# Created by Kenney (www.kenney.nl) 

mtllib benchCushion.mtl 

g benchCushion

v -0.03 0.05 0.11 
v -0.37 0.05 0.11 
v -0.03 0.07 0.11 
v -0.37 0.07 0.11 
v -0.01 0.05 0.16 
v -0.01 0.05 0.04 
v -0.03 0.05 0.16 
v -0.03 0.05 0.04 
v -0.03 0.05 0.09 
v -0.37 0.05 0.09 
v -0.39 0.05 0.16 
v -0.37 0.05 0.16 
v -0.39 0.05 0.04 
v -0.37 0.05 0.04 
v -0.36 0 0.04 
v -0.36 0 0 
v -0.4 0 0.04 
v -0.4 0 0 
v -0.04 0.39 0.16 
v -0.04 0.295 0.17 
v -0.04 0.24 0.16 
v -0.04 0.24 0.2 
v -0.04 0.295 0.19 
v -0.04 0.335 0.19 
v -0.04 0.335 0.17 
v -0.04 0.39 0.2 
v -0.36 0.19 0 
v -0.36 0.19 0.04 
v -0.37 0.07 0.09 
v -0.03 0.07 0.09 
v -0.36 0.295 0.19 
v -0.36 0.335 0.19 
v 0 0.19 0.04 
v 0 0 0 
v 0 0 0.04 
v 0 0.22 0 
v 0 0.22 0.16 
v 0 0.19 0.16 
v 0 0.46 0.2 
v 0 0.24 0.16 
v 0 0.46 0.16 
v 0 0 0.16 
v 0 0 0.2 
v -0.36 0.19 0.16 
v -0.4 0.19 0.16 
v -0.4 0.19 0.04 
v -0.36 0.19 0.2 
v -0.04 0.19 0 
v -0.04 0.19 0.04 
v -0.04 0.19 0.16 
v -0.04 0.19 0.2 
v -0.36 0.335 0.17 
v -0.04 0 0.2 
v -0.04 0.22 0.2 
v -0.04 0.43 0.2 
v -0.36 0.39 0.2 
v -0.04 0.46 0.2 
v -0.36 0.22 0.2 
v -0.4 0.46 0.2 
v -0.4 0 0.2 
v -0.36 0 0.2 
v -0.36 0.24 0.2 
v -0.36 0.43 0.2 
v -0.36 0.46 0.2 
v -0.4 0.22 0 
v -0.04 0 0 
v -0.36 0.295 0.17 
v -0.04 0 0.16 
v -0.04 0 0.04 
v -0.36 0.24 0.16 
v -0.36 0.39 0.16 
v -0.36 0 0.16 
v -0.4 0 0.16 
v -0.01 0.07 0.04 
v -0.01 0.07 0.16 
v -0.03 0.07 0.04 
v -0.03 0.07 0.16 
v -0.39 0.07 0.04 
v -0.37 0.07 0.04 
v -0.39 0.07 0.16 
v -0.37 0.07 0.16 
v -0.4 0.24 0.16 
v -0.4 0.46 0.16 
v -0.36 0.43 0.16 
v -0.36 0.46 0.16 
v -0.04 0.43 0.16 
v -0.04 0.46 0.16 
v -0.4 0.22 0.16 
v 0 0.24 0 
v -0.4 0.24 0 

vn 0 0 1 
vn 0 -1 0 
vn -1 0 0 
vn 1 0 0 
vn 0 0 -1 
vn 0 1 0 

vt -1.181102 1.968504 
vt -14.56693 1.968504 
vt -1.181102 2.755906 
vt -14.56693 2.755906 
vt -0.3937008 6.299212 
vt -0.3937008 1.574803 
vt -1.181102 6.299212 
vt -1.181102 1.574803 
vt -1.181102 4.330709 
vt -1.181102 3.543307 
vt -14.56693 4.330709 
vt -14.56693 3.543307 
vt -15.35433 6.299212 
vt -14.56693 6.299212 
vt -15.35433 1.574803 
vt -14.56693 1.574803 
vt -14.17323 1.574803 
vt -14.17323 0 
vt -15.74803 1.574803 
vt -15.74803 0 
vt 6.299212 15.35433 
vt 6.692914 11.61417 
vt 6.299212 9.448819 
vt 7.874016 9.448819 
vt 7.480315 11.61417 
vt 7.480315 13.18898 
vt 6.692914 13.18898 
vt 7.874016 15.35433 
vt 0 7.480315 
vt 0 0 
vt -1.574803 7.480315 
vt -1.574803 0 
vt 14.56693 1.968504 
vt 1.181102 1.968504 
vt 14.56693 2.755906 
vt 1.181102 2.755906 
vt -1.574803 11.61417 
vt -14.17323 11.61417 
vt -1.574803 13.18898 
vt -14.17323 13.18898 
vt 0 8.661417 
vt -6.299212 8.661417 
vt -6.299212 7.480315 
vt -7.874016 18.11024 
vt -6.299212 9.448819 
vt -6.299212 18.11024 
vt -6.299212 0 
vt -7.874016 0 
vt -14.17323 6.299212 
vt -15.74803 6.299212 
vt -14.17323 7.874016 
vt -1.574803 1.574803 
vt -1.574803 6.299212 
vt -1.574803 7.874016 
vt 0 1.574803 
vt 0 6.299212 
vt 1.574803 6.692914 
vt 1.574803 7.480315 
vt 14.17323 6.692914 
vt 14.17323 7.480315 
vt 8.788187E-32 -6.439336E-32 
vt -1.574803 -6.439336E-32 
vt 8.788187E-32 18.11024 
vt -1.574803 8.661417 
vt -14.17323 7.480315 
vt -1.574803 9.448819 
vt -1.574803 15.35433 
vt -1.574803 16.92913 
vt -14.17323 15.35433 
vt -1.574803 18.11024 
vt -14.17323 8.661417 
vt -15.74803 18.11024 
vt -15.74803 -6.439336E-32 
vt -14.17323 -6.439336E-32 
vt -14.17323 9.448819 
vt -14.17323 16.92913 
vt -14.17323 18.11024 
vt 15.74803 0 
vt 14.17323 0 
vt 15.74803 8.661417 
vt 1.574803 0 
vt 1.574803 11.61417 
vt 1.574803 13.18898 
vt 14.17323 11.61417 
vt 14.17323 13.18898 
vt -1.574803 6.692914 
vt -14.17323 6.692914 
vt 0 7.874016 
vt -6.692914 13.18898 
vt -6.299212 15.35433 
vt -7.874016 15.35433 
vt -7.480315 13.18898 
vt -7.480315 11.61417 
vt -6.692914 11.61417 
vt -7.874016 9.448819 
vt -7.874016 7.480315 
vt -15.74803 7.874016 
vt 0.3937008 1.574803 
vt 0.3937008 6.299212 
vt 1.181102 1.574803 
vt 1.181102 6.299212 
vt 1.181102 3.543307 
vt 1.181102 4.330709 
vt 14.56693 3.543307 
vt 14.56693 4.330709 
vt 15.35433 1.574803 
vt 14.56693 1.574803 
vt 15.35433 6.299212 
vt 14.56693 6.299212 
vt 15.74803 9.448819 
vt 14.17323 9.448819 
vt 15.74803 18.11024 
vt 14.17323 15.35433 
vt 14.17323 16.92913 
vt 1.574803 15.35433 
vt 14.17323 18.11024 
vt 1.574803 16.92913 
vt 0 18.11024 
vt 0 9.448819 
vt 1.574803 9.448819 
vt 1.574803 18.11024 
vt 1.574803 6.299212 
vt 1.574803 7.874016 
vt 14.17323 6.299212 
vt 14.17323 7.874016 
vt 15.74803 6.299212 
vt 15.74803 7.874016 
vt -6.299212 16.92913 
vt -7.874016 16.92913 
vt 6.299212 16.92913 
vt 6.299212 18.11024 
vt 7.874016 16.92913 
vt 7.874016 18.11024 
vt 6.299212 0 
vt 6.299212 7.480315 
vt 7.874016 0 
vt 7.874016 7.480315 
vt 6.299212 -2.012429E-14 
vt 7.874016 -2.012429E-14 
vt 6.299212 8.661417 
vt 1.574803 -2.012429E-14 
vt -6.306925E-15 -2.012429E-14 
vt 1.574803 1.968504 
vt 1.574803 2.755906 
vt 6.299212 1.968504 
vt 6.299212 2.755906 
vt -15.35433 2.755906 
vt -15.35433 1.968504 
vt -15.74803 7.480315 
vt 3.543307 1.968504 
vt 3.543307 2.755906 
vt -0.3937008 1.968504 
vt -0.3937008 2.755906 
vt 4.330709 2.755906 
vt 4.330709 1.968504 
vt -3.965309E-15 -9.76677E-17 
vt 1.574803 -9.76677E-17 
vt 0.3937008 2.755906 
vt 0.3937008 1.968504 
vt -3.965309E-15 7.480315 
vt -4.330709 2.755906 
vt -4.330709 1.968504 
vt -6.299212 2.755906 
vt -6.299212 1.968504 
vt 15.35433 1.968504 
vt 15.74803 7.480315 
vt 15.35433 2.755906 
vt -1.574803 2.755906 
vt -1.574803 1.968504 
vt -3.543307 2.755906 
vt -3.543307 1.968504 

usemtl wood

f 2/2/1 1/1/1 3/3/1 
f 3/3/1 4/4/1 2/2/1 
f 6/6/2 5/5/2 7/7/2 
f 7/7/2 8/8/2 6/6/2 
f 7/7/2 1/9/2 8/8/2 
f 1/9/2 9/10/2 8/8/2 
f 9/10/2 1/9/2 2/11/2 
f 2/11/2 10/12/2 9/10/2 
f 11/13/2 10/12/2 2/11/2 
f 2/11/2 12/14/2 11/13/2 
f 10/12/2 11/13/2 13/15/2 
f 13/15/2 14/16/2 10/12/2 
f 16/18/2 15/17/2 17/19/2 
f 17/19/2 18/20/2 16/18/2 
f 20/22/3 19/21/3 21/23/3 
f 21/23/3 22/24/3 20/22/3 
f 22/24/3 23/25/3 20/22/3 
f 22/24/3 24/26/3 23/25/3 
f 19/21/3 20/22/3 25/27/3 
f 25/27/3 26/28/3 19/21/3 
f 25/27/3 24/26/3 26/28/3 
f 24/26/3 22/24/3 26/28/3 
f 16/30/4 27/29/4 28/31/4 
f 28/31/4 15/32/4 16/30/4 
f 9/34/5 10/33/5 29/35/5 
f 29/35/5 30/36/5 9/34/5 
f 31/38/1 23/37/1 24/39/1 
f 24/39/1 32/40/1 31/38/1 
f 34/30/4 33/31/4 35/32/4 
f 33/31/4 34/30/4 36/41/4 
f 36/41/4 37/42/4 33/31/4 
f 37/42/4 38/43/4 33/31/4 
f 39/44/4 38/43/4 37/42/4 
f 39/44/4 37/42/4 40/45/4 
f 40/45/4 41/46/4 39/44/4 
f 39/44/4 42/47/4 38/43/4 
f 39/44/4 43/48/4 42/47/4 
f 28/17/2 44/49/2 45/50/2 
f 45/50/2 46/19/2 28/17/2 
f 44/49/2 28/17/2 27/18/2 
f 47/51/2 44/49/2 27/18/2 
f 47/51/2 27/18/2 48/32/2 
f 47/51/2 48/32/2 49/52/2 
f 47/51/2 49/52/2 50/53/2 
f 50/53/2 51/54/2 47/51/2 
f 50/53/2 49/52/2 33/55/2 
f 33/55/2 38/56/2 50/53/2 
f 24/58/6 25/57/6 52/59/6 
f 52/59/6 32/60/6 24/58/6 
f 53/62/1 43/61/1 39/63/1 
f 39/63/1 51/31/1 53/62/1 
f 39/63/1 54/64/1 51/31/1 
f 54/64/1 47/65/1 51/31/1 
f 39/63/1 22/66/1 54/64/1 
f 39/63/1 26/67/1 22/66/1 
f 39/63/1 55/68/1 26/67/1 
f 55/68/1 56/69/1 26/67/1 
f 39/63/1 57/70/1 55/68/1 
f 47/65/1 54/64/1 58/71/1 
f 47/65/1 58/71/1 59/72/1 
f 47/65/1 59/72/1 60/73/1 
f 60/73/1 61/74/1 47/65/1 
f 58/71/1 62/75/1 59/72/1 
f 62/75/1 56/69/1 59/72/1 
f 56/69/1 63/76/1 59/72/1 
f 56/69/1 55/68/1 63/76/1 
f 63/76/1 64/77/1 59/72/1 
f 16/79/5 18/78/5 65/80/5 
f 65/80/5 27/60/5 16/79/5 
f 65/80/5 48/58/5 27/60/5 
f 48/58/5 65/80/5 36/41/5 
f 48/58/5 36/41/5 34/30/5 
f 34/30/5 66/81/5 48/58/5 
f 25/83/5 20/82/5 67/84/5 
f 67/84/5 52/85/5 25/83/5 
f 20/86/2 23/31/2 31/65/2 
f 31/65/2 67/87/2 20/86/2 
f 42/56/2 43/88/2 53/54/2 
f 53/54/2 68/53/2 42/56/2 
f 34/30/2 35/55/2 69/52/2 
f 69/52/2 66/32/2 34/30/2 
f 52/89/4 70/45/4 71/90/4 
f 71/90/4 56/91/4 52/89/4 
f 56/91/4 32/92/4 52/89/4 
f 56/91/4 31/93/4 32/92/4 
f 70/45/4 52/89/4 67/94/4 
f 67/94/4 62/95/4 70/45/4 
f 67/94/4 31/93/4 62/95/4 
f 31/93/4 56/91/4 62/95/4 
f 72/47/4 44/43/4 47/96/4 
f 47/96/4 61/48/4 72/47/4 
f 72/49/2 61/51/2 60/97/2 
f 60/97/2 73/50/2 72/49/2 
f 75/99/6 74/98/6 76/100/6 
f 76/100/6 77/101/6 75/99/6 
f 76/100/6 30/102/6 77/101/6 
f 30/102/6 3/103/6 77/101/6 
f 3/103/6 30/102/6 29/104/6 
f 29/104/6 4/105/6 3/103/6 
f 78/106/6 4/105/6 29/104/6 
f 29/104/6 79/107/6 78/106/6 
f 4/105/6 78/106/6 80/108/6 
f 80/108/6 81/109/6 4/105/6 
f 70/111/5 82/110/5 83/112/5 
f 83/112/5 71/113/5 70/111/5 
f 83/112/5 84/114/5 71/113/5 
f 84/114/5 19/115/5 71/113/5 
f 83/112/5 85/116/5 84/114/5 
f 19/115/5 84/114/5 86/117/5 
f 19/115/5 86/117/5 41/118/5 
f 19/115/5 41/118/5 40/119/5 
f 40/119/5 21/120/5 19/115/5 
f 86/117/5 87/121/5 41/118/5 
f 39/88/6 41/56/6 87/122/6 
f 87/122/6 57/123/6 39/88/6 
f 64/125/6 85/124/6 83/126/6 
f 83/126/6 59/127/6 64/125/6 
f 55/123/6 86/122/6 84/124/6 
f 84/124/6 63/125/6 55/123/6 
f 84/128/4 85/46/4 64/44/4 
f 64/44/4 63/129/4 84/128/4 
f 87/131/3 86/130/3 55/132/3 
f 55/132/3 57/133/3 87/131/3 
f 19/53/2 26/54/2 56/51/2 
f 56/51/2 71/49/2 19/53/2 
f 50/135/3 68/134/3 53/136/3 
f 53/136/3 51/137/3 50/135/3 
f 48/29/3 66/30/3 69/81/3 
f 69/81/3 49/58/3 48/29/3 
f 45/135/3 73/138/3 60/139/3 
f 60/139/3 88/140/3 45/135/3 
f 60/139/3 82/23/3 88/140/3 
f 60/139/3 83/131/3 82/23/3 
f 60/139/3 59/133/3 83/131/3 
f 46/58/3 45/135/3 88/140/3 
f 46/58/3 88/140/3 65/41/3 
f 17/141/3 46/58/3 65/41/3 
f 65/41/3 18/142/3 17/141/3 
f 78/144/3 13/143/3 11/145/3 
f 11/145/3 80/146/3 78/144/3 
f 14/2/1 17/20/1 15/18/1 
f 15/18/1 28/65/1 14/2/1 
f 28/65/1 79/4/1 14/2/1 
f 28/65/1 78/147/1 79/4/1 
f 17/20/1 14/2/1 13/148/1 
f 13/148/1 46/149/1 17/20/1 
f 13/148/1 78/147/1 46/149/1 
f 78/147/1 28/65/1 46/149/1 
f 76/144/3 8/143/3 9/150/3 
f 9/150/3 30/151/3 76/144/3 
f 6/152/1 69/32/1 35/30/1 
f 35/30/1 33/29/1 6/152/1 
f 33/29/1 74/153/1 6/152/1 
f 33/29/1 76/3/1 74/153/1 
f 69/32/1 6/152/1 8/1/1 
f 8/1/1 49/31/1 69/32/1 
f 8/1/1 76/3/1 49/31/1 
f 76/3/1 33/29/1 49/31/1 
f 77/146/3 3/154/3 1/155/3 
f 1/155/3 7/145/3 77/146/3 
f 7/34/5 42/156/5 68/157/5 
f 68/157/5 50/58/5 7/34/5 
f 50/58/5 77/36/5 7/34/5 
f 50/58/5 75/158/5 77/36/5 
f 42/156/5 7/34/5 5/159/5 
f 5/159/5 38/160/5 42/156/5 
f 5/159/5 75/158/5 38/160/5 
f 75/158/5 50/58/5 38/160/5 
f 2/162/4 4/161/4 81/163/4 
f 81/163/4 12/164/4 2/162/4 
f 11/165/5 72/79/5 73/78/5 
f 73/78/5 45/166/5 11/165/5 
f 45/166/5 80/167/5 11/165/5 
f 45/166/5 81/35/5 80/167/5 
f 72/79/5 11/165/5 12/33/5 
f 12/33/5 44/60/5 72/79/5 
f 12/33/5 81/35/5 44/60/5 
f 81/35/5 45/166/5 44/60/5 
f 14/169/4 79/168/4 29/170/4 
f 29/170/4 10/171/4 14/169/4 
f 6/169/4 74/168/4 75/163/4 
f 75/163/4 5/164/4 6/169/4 

usemtl carpet

f 40/56/6 89/30/6 90/78/6 
f 90/78/6 21/122/6 40/56/6 
f 90/78/6 22/123/6 21/122/6 
f 90/78/6 70/124/6 22/123/6 
f 90/78/6 82/126/6 70/124/6 
f 22/123/6 70/124/6 62/125/6 
f 58/71/1 54/64/1 22/66/1 
f 22/66/1 62/75/1 58/71/1 
f 36/41/4 89/119/4 40/45/4 
f 40/45/4 37/42/4 36/41/4 
f 36/41/5 65/80/5 90/110/5 
f 90/110/5 89/119/5 36/41/5 
f 90/119/3 65/41/3 88/140/3 
f 88/140/3 82/23/3 90/119/3 
g benchCushion




usemtl wood

f 2/2/1 1/1/1 3/3/1 
f 3/3/1 4/4/1 2/2/1 
f 6/6/2 5/5/2 7/7/2 
f 7/7/2 8/8/2 6/6/2 
f 7/7/2 1/9/2 8/8/2 
f 1/9/2 9/10/2 8/8/2 
f 9/10/2 1/9/2 2/11/2 
f 2/11/2 10/12/2 9/10/2 
f 11/13/2 10/12/2 2/11/2 
f 2/11/2 12/14/2 11/13/2 
f 10/12/2 11/13/2 13/15/2 
f 13/15/2 14/16/2 10/12/2 
f 16/18/2 15/17/2 17/19/2 
f 17/19/2 18/20/2 16/18/2 
f 20/22/3 19/21/3 21/23/3 
f 21/23/3 22/24/3 20/22/3 
f 22/24/3 23/25/3 20/22/3 
f 22/24/3 24/26/3 23/25/3 
f 19/21/3 20/22/3 25/27/3 
f 25/27/3 26/28/3 19/21/3 
f 25/27/3 24/26/3 26/28/3 
f 24/26/3 22/24/3 26/28/3 
f 16/30/4 27/29/4 28/31/4 
f 28/31/4 15/32/4 16/30/4 
f 9/34/5 10/33/5 29/35/5 
f 29/35/5 30/36/5 9/34/5 
f 31/38/1 23/37/1 24/39/1 
f 24/39/1 32/40/1 31/38/1 
f 34/30/4 33/31/4 35/32/4 
f 33/31/4 34/30/4 36/41/4 
f 36/41/4 37/42/4 33/31/4 
f 37/42/4 38/43/4 33/31/4 
f 39/44/4 38/43/4 37/42/4 
f 39/44/4 37/42/4 40/45/4 
f 40/45/4 41/46/4 39/44/4 
f 39/44/4 42/47/4 38/43/4 
f 39/44/4 43/48/4 42/47/4 
f 28/17/2 44/49/2 45/50/2 
f 45/50/2 46/19/2 28/17/2 
f 44/49/2 28/17/2 27/18/2 
f 47/51/2 44/49/2 27/18/2 
f 47/51/2 27/18/2 48/32/2 
f 47/51/2 48/32/2 49/52/2 
f 47/51/2 49/52/2 50/53/2 
f 50/53/2 51/54/2 47/51/2 
f 50/53/2 49/52/2 33/55/2 
f 33/55/2 38/56/2 50/53/2 
f 24/58/6 25/57/6 52/59/6 
f 52/59/6 32/60/6 24/58/6 
f 53/62/1 43/61/1 39/63/1 
f 39/63/1 51/31/1 53/62/1 
f 39/63/1 54/64/1 51/31/1 
f 54/64/1 47/65/1 51/31/1 
f 39/63/1 22/66/1 54/64/1 
f 39/63/1 26/67/1 22/66/1 
f 39/63/1 55/68/1 26/67/1 
f 55/68/1 56/69/1 26/67/1 
f 39/63/1 57/70/1 55/68/1 
f 47/65/1 54/64/1 58/71/1 
f 47/65/1 58/71/1 59/72/1 
f 47/65/1 59/72/1 60/73/1 
f 60/73/1 61/74/1 47/65/1 
f 58/71/1 62/75/1 59/72/1 
f 62/75/1 56/69/1 59/72/1 
f 56/69/1 63/76/1 59/72/1 
f 56/69/1 55/68/1 63/76/1 
f 63/76/1 64/77/1 59/72/1 
f 16/79/5 18/78/5 65/80/5 
f 65/80/5 27/60/5 16/79/5 
f 65/80/5 48/58/5 27/60/5 
f 48/58/5 65/80/5 36/41/5 
f 48/58/5 36/41/5 34/30/5 
f 34/30/5 66/81/5 48/58/5 
f 25/83/5 20/82/5 67/84/5 
f 67/84/5 52/85/5 25/83/5 
f 20/86/2 23/31/2 31/65/2 
f 31/65/2 67/87/2 20/86/2 
f 42/56/2 43/88/2 53/54/2 
f 53/54/2 68/53/2 42/56/2 
f 34/30/2 35/55/2 69/52/2 
f 69/52/2 66/32/2 34/30/2 
f 52/89/4 70/45/4 71/90/4 
f 71/90/4 56/91/4 52/89/4 
f 56/91/4 32/92/4 52/89/4 
f 56/91/4 31/93/4 32/92/4 
f 70/45/4 52/89/4 67/94/4 
f 67/94/4 62/95/4 70/45/4 
f 67/94/4 31/93/4 62/95/4 
f 31/93/4 56/91/4 62/95/4 
f 72/47/4 44/43/4 47/96/4 
f 47/96/4 61/48/4 72/47/4 
f 72/49/2 61/51/2 60/97/2 
f 60/97/2 73/50/2 72/49/2 
f 75/99/6 74/98/6 76/100/6 
f 76/100/6 77/101/6 75/99/6 
f 76/100/6 30/102/6 77/101/6 
f 30/102/6 3/103/6 77/101/6 
f 3/103/6 30/102/6 29/104/6 
f 29/104/6 4/105/6 3/103/6 
f 78/106/6 4/105/6 29/104/6 
f 29/104/6 79/107/6 78/106/6 
f 4/105/6 78/106/6 80/108/6 
f 80/108/6 81/109/6 4/105/6 
f 70/111/5 82/110/5 83/112/5 
f 83/112/5 71/113/5 70/111/5 
f 83/112/5 84/114/5 71/113/5 
f 84/114/5 19/115/5 71/113/5 
f 83/112/5 85/116/5 84/114/5 
f 19/115/5 84/114/5 86/117/5 
f 19/115/5 86/117/5 41/118/5 
f 19/115/5 41/118/5 40/119/5 
f 40/119/5 21/120/5 19/115/5 
f 86/117/5 87/121/5 41/118/5 
f 39/88/6 41/56/6 87/122/6 
f 87/122/6 57/123/6 39/88/6 
f 64/125/6 85/124/6 83/126/6 
f 83/126/6 59/127/6 64/125/6 
f 55/123/6 86/122/6 84/124/6 
f 84/124/6 63/125/6 55/123/6 
f 84/128/4 85/46/4 64/44/4 
f 64/44/4 63/129/4 84/128/4 
f 87/131/3 86/130/3 55/132/3 
f 55/132/3 57/133/3 87/131/3 
f 19/53/2 26/54/2 56/51/2 
f 56/51/2 71/49/2 19/53/2 
f 50/135/3 68/134/3 53/136/3 
f 53/136/3 51/137/3 50/135/3 
f 48/29/3 66/30/3 69/81/3 
f 69/81/3 49/58/3 48/29/3 
f 45/135/3 73/138/3 60/139/3 
f 60/139/3 88/140/3 45/135/3 
f 60/139/3 82/23/3 88/140/3 
f 60/139/3 83/131/3 82/23/3 
f 60/139/3 59/133/3 83/131/3 
f 46/58/3 45/135/3 88/140/3 
f 46/58/3 88/140/3 65/41/3 
f 17/141/3 46/58/3 65/41/3 
f 65/41/3 18/142/3 17/141/3 
f 78/144/3 13/143/3 11/145/3 
f 11/145/3 80/146/3 78/144/3 
f 14/2/1 17/20/1 15/18/1 
f 15/18/1 28/65/1 14/2/1 
f 28/65/1 79/4/1 14/2/1 
f 28/65/1 78/147/1 79/4/1 
f 17/20/1 14/2/1 13/148/1 
f 13/148/1 46/149/1 17/20/1 
f 13/148/1 78/147/1 46/149/1 
f 78/147/1 28/65/1 46/149/1 
f 76/144/3 8/143/3 9/150/3 
f 9/150/3 30/151/3 76/144/3 
f 6/152/1 69/32/1 35/30/1 
f 35/30/1 33/29/1 6/152/1 
f 33/29/1 74/153/1 6/152/1 
f 33/29/1 76/3/1 74/153/1 
f 69/32/1 6/152/1 8/1/1 
f 8/1/1 49/31/1 69/32/1 
f 8/1/1 76/3/1 49/31/1 
f 76/3/1 33/29/1 49/31/1 
f 77/146/3 3/154/3 1/155/3 
f 1/155/3 7/145/3 77/146/3 
f 7/34/5 42/156/5 68/157/5 
f 68/157/5 50/58/5 7/34/5 
f 50/58/5 77/36/5 7/34/5 
f 50/58/5 75/158/5 77/36/5 
f 42/156/5 7/34/5 5/159/5 
f 5/159/5 38/160/5 42/156/5 
f 5/159/5 75/158/5 38/160/5 
f 75/158/5 50/58/5 38/160/5 
f 2/162/4 4/161/4 81/163/4 
f 81/163/4 12/164/4 2/162/4 
f 11/165/5 72/79/5 73/78/5 
f 73/78/5 45/166/5 11/165/5 
f 45/166/5 80/167/5 11/165/5 
f 45/166/5 81/35/5 80/167/5 
f 72/79/5 11/165/5 12/33/5 
f 12/33/5 44/60/5 72/79/5 
f 12/33/5 81/35/5 44/60/5 
f 81/35/5 45/166/5 44/60/5 
f 14/169/4 79/168/4 29/170/4 
f 29/170/4 10/171/4 14/169/4 
f 6/169/4 74/168/4 75/163/4 
f 75/163/4 5/164/4 6/169/4 

usemtl carpet

f 40/56/6 89/30/6 90/78/6 
f 90/78/6 21/122/6 40/56/6 
f 90/78/6 22/123/6 21/122/6 
f 90/78/6 70/124/6 22/123/6 
f 90/78/6 82/126/6 70/124/6 
f 22/123/6 70/124/6 62/125/6 
f 58/71/1 54/64/1 22/66/1 
f 22/66/1 62/75/1 58/71/1 
f 36/41/4 89/119/4 40/45/4 
f 40/45/4 37/42/4 36/41/4 
f 36/41/5 65/80/5 90/110/5 
f 90/110/5 89/119/5 36/41/5 
f 90/119/3 65/41/3 88/140/3 
f 88/140/3 82/23/3 90/119/3 
