# Created by Kenney (www.kenney.nl) 

mtllib bookcaseClosedDoors.mtl 

g bookcaseClosedDoors

v -0.02 0.61 0.04 
v -0.02 0.8200001 0.04 
v -0.02 0.61 0.21 
v -0.02 0.8200001 0.21 
v -0.02 0.13 0.04 
v -0.02 0.34 0.04 
v -0.02 0.13 0.21 
v -0.02 0.34 0.21 
v -0.38 0.37 0.21 
v -0.36 0.37 0.21 
v -0.38 0.58 0.21 
v -0.36 0.58 0.21 
v -0.38 0.13 0.21 
v -0.36 0.13 0.21 
v -0.38 0.34 0.21 
v -0.36 0.34 0.21 
v -0.36 0 0.04 
v -0.4 0 0.04 
v -0.36 0.1 0.04 
v -0.4 0.1 0.04 
v -0.36 0.13 0.04 
v -0.38 0.13 0.04 
v -0.36 0.34 0.04 
v -0.38 0.34 0.04 
v -0.04 0.61 0.21 
v -0.04 0.8200001 0.21 
v -0.36 0.37 0.04 
v -0.38 0.37 0.04 
v -0.36 0.58 0.04 
v -0.38 0.58 0.04 
v -0.36 0.61 0.04 
v -0.38 0.61 0.04 
v -0.36 0.8200001 0.04 
v -0.38 0.8200001 0.04 
v -0.04 0 0.21 
v 0 0 0.21 
v -0.04 0.1 0.21 
v 0 0.1 0.21 
v -0.38 0.61 0.21 
v -0.36 0.61 0.21 
v -0.38 0.8200001 0.21 
v -0.36 0.8200001 0.21 
v -0.04 0.13 0.04 
v -0.04 0.34 0.04 
v -0.36 0.37 0.23 
v -0.04 0.37 0.23 
v -0.36 0.58 0.23 
v -0.04 0.58 0.23 
v -0.36 0.13 0.23 
v -0.04 0.13 0.23 
v -0.36 0.34 0.23 
v -0.04 0.34 0.23 
v -0.02 0.37 0.04 
v -0.02 0.58 0.04 
v -0.02 0.37 0.21 
v -0.02 0.58 0.21 
v -0.04 0.61 0.04 
v -0.04 0.8200001 0.04 
v -0.04 0.37 0.04 
v -0.04 0.58 0.04 
v -0.04 0.13 0.21 
v -0.04 0.34 0.21 
v -0.04 0.37 0.21 
v -0.04 0.58 0.21 
v -0.36 0.1 0.21 
v -0.36 0 0.21 
v -0.36 0.1 0.25 
v -0.36 0 0.25 
v -0.36 0.61 0.23 
v -0.04 0.61 0.23 
v -0.36 0.8200001 0.23 
v -0.04 0.8200001 0.23 
v 0 0 0.04 
v -0.04 0 0.04 
v 0 0.1 0.04 
v -0.04 0.1 0.04 
v 0 0.85 0 
v -7.219114E-16 0.85 0.25 
v -0.4 0.85 0 
v -0.4 0.85 0.25 
v 0 0 0 
v -0.04 0 0 
v -0.4 0 0.25 
v -0.4 0 0.21 
v 0 0 0.25 
v -0.36 0.8200001 0 
v -0.04 0.8200001 0 
v -0.4 0.1 0.21 
v -0.4 0 0 
v -0.04 0 0.25 
v -0.04 0.1 0.25 
v -0.04 0.13 0.25 
v -0.04 0.34 0.25 
v -0.04 0.37 0.25 
v -0.36 0.34 0.25 
v -0.04 0.58 0.25 
v -0.04 0.61 0.25 
v -0.36 0.58 0.25 
v -0.04 0.8200001 0.25 
v -0.36 0.8200001 0.25 
v -0.36 0.13 0.25 
v -0.36 0.37 0.25 
v -0.36 0.61 0.25 
v -0.36 0 0 
v -0.36 0.1 0.02 
v -0.04 0.1 0.02 
v -0.36 0.115 0.02 
v -0.36 0.115 0.04 
v -0.04 0.115 0.04 
v -0.04 0.115 0.02 
v -0.04 0.13 0.24 
v -0.36 0.13 0.24 
v -0.04 0.34 0.24 
v -0.36 0.34 0.24 
v -0.36 0.8200001 0.24 
v -0.36 0.61 0.24 
v -0.04 0.8200001 0.24 
v -0.04 0.37 0.24 
v -0.36 0.37 0.24 
v -0.04 0.58 0.24 
v -0.36 0.58 0.24 
v -0.04 0.61 0.24 

vn -1 0 0 
vn 0 0 -1 
vn 0 0 1 
vn 1 0 0 
vn 0 1 0 
vn 0 -1 0 

vt 1.574803 24.01575 
vt 1.574803 32.28347 
vt 8.267716 24.01575 
vt 8.267716 32.28347 
vt 1.574803 5.11811 
vt 1.574803 13.38583 
vt 8.267716 5.11811 
vt 8.267716 13.38583 
vt 14.96063 14.56693 
vt 14.17323 14.56693 
vt 14.96063 22.83465 
vt 14.17323 22.83465 
vt 14.96063 5.11811 
vt 14.17323 5.11811 
vt 14.96063 13.38583 
vt 14.17323 13.38583 
vt -14.17323 0 
vt -15.74803 0 
vt -14.17323 3.937008 
vt -15.74803 3.937008 
vt -14.17323 5.11811 
vt -14.96063 5.11811 
vt -14.17323 13.38583 
vt -14.96063 13.38583 
vt 0.7874016 24.01575 
vt 0.7874016 32.28347 
vt -14.17323 14.56693 
vt -14.96063 14.56693 
vt -14.17323 22.83465 
vt -14.96063 22.83465 
vt -14.17323 24.01575 
vt -14.96063 24.01575 
vt -14.17323 32.28347 
vt -14.96063 32.28347 
vt 1.574803 0 
vt 0 0 
vt 1.574803 3.937008 
vt 0 3.937008 
vt 14.96063 24.01575 
vt 14.17323 24.01575 
vt 14.96063 32.28347 
vt 14.17323 32.28347 
vt -0.7874016 5.11811 
vt -1.574803 5.11811 
vt -0.7874016 13.38583 
vt -1.574803 13.38583 
vt 1.574803 14.56693 
vt 1.574803 22.83465 
vt 8.267716 14.56693 
vt 8.267716 22.83465 
vt -0.7874016 24.01575 
vt -1.574803 24.01575 
vt -0.7874016 32.28347 
vt -1.574803 32.28347 
vt -0.7874016 14.56693 
vt -1.574803 14.56693 
vt -0.7874016 22.83465 
vt -1.574803 22.83465 
vt 0.7874016 5.11811 
vt 0.7874016 13.38583 
vt 0.7874016 14.56693 
vt 0.7874016 22.83465 
vt -8.267716 13.38583 
vt -8.267716 5.11811 
vt 9.055119 5.11811 
vt 9.055119 13.38583 
vt -8.267716 32.28347 
vt -8.267716 24.01575 
vt -9.055119 13.38583 
vt -9.055119 5.11811 
vt 9.055119 14.56693 
vt 9.055119 22.83465 
vt -8.267716 3.937008 
vt -8.267716 0 
vt -9.84252 3.937008 
vt -9.84252 0 
vt -8.267716 22.83465 
vt -8.267716 14.56693 
vt -1.574803 0 
vt -1.574803 3.937008 
vt 2.842171E-14 9.84252 
vt 15.74803 0 
vt 15.74803 9.84252 
vt 0 1.574803 
vt -1.574803 1.574803 
vt -14.17323 9.84252 
vt -14.17323 8.267716 
vt -15.74803 9.84252 
vt -15.74803 8.267716 
vt 0 33.46457 
vt -9.84252 33.46457 
vt -8.267716 -3.560348E-30 
vt -9.84252 -4.23851E-30 
vt -1.574803 -6.781615E-31 
vt 14.17323 1.574803 
vt 14.17323 8.267716 
vt 14.96063 1.574803 
vt 14.96063 8.267716 
vt 14.17323 9.055119 
vt 1.574803 9.055119 
vt 1.574803 8.267716 
vt 1.574803 1.574803 
vt 0.7874016 8.267716 
vt 0.7874016 1.574803 
vt -14.17323 1.574803 
vt -14.96063 8.267716 
vt -14.96063 1.574803 
vt -14.17323 -3.500421E-16 
vt -14.17323 9.055119 
vt -1.574803 -3.500421E-16 
vt -1.574803 8.267716 
vt -1.574803 9.055119 
vt -0.7874016 1.574803 
vt -0.7874016 8.267716 
vt 8.267716 -6.868872E-15 
vt 8.267716 3.937008 
vt 9.84252 -6.868872E-15 
vt 9.84252 33.46457 
vt -1.554798E-14 33.46457 
vt 1.574803 -6.868872E-15 
vt -1.554798E-14 -6.868872E-15 
vt -2.999986E-31 -4.293045E-15 
vt -1.574803 -4.293045E-15 
vt -2.842171E-14 33.46457 
vt -15.74803 33.46457 
vt -15.74803 -4.293045E-15 
vt -14.17323 -4.293045E-15 
vt -15.74803 1.574803 
vt 0 9.84252 
vt 0 8.267716 
vt -1.574803 9.84252 
vt 14.17323 0 
vt 15.74803 33.46457 
vt 8.267716 0 
vt 9.84252 0 
vt 9.84252 3.937008 
vt -14.17323 0.7874016 
vt -1.574803 0.7874016 
vt 0 32.28347 
vt -0.7874016 4.527559 
vt -1.574803 4.527559 
vt -0.7874016 3.937008 
vt 15.74803 3.937008 
vt 14.17323 3.937008 
vt 14.17323 4.527559 
vt 1.574803 4.527559 
vt 0.7874016 3.937008 
vt 0.7874016 4.527559 
vt -9.055119 22.83465 
vt -9.055119 14.56693 
vt 9.055119 24.01575 
vt 9.055119 32.28347 
vt -9.055119 32.28347 
vt -9.055119 24.01575 
vt 9.448819 5.11811 
vt 9.448819 13.38583 
vt 9.84252 5.11811 
vt 9.84252 13.38583 
vt -1.574803 9.448819 
vt -14.17323 9.448819 
vt -9.448819 32.28347 
vt -9.448819 24.01575 
vt -9.84252 32.28347 
vt -9.84252 24.01575 
vt 9.448819 24.01575 
vt 9.448819 32.28347 
vt 9.84252 24.01575 
vt 9.84252 32.28347 
vt 1.574803 9.448819 
vt 1.574803 9.84252 
vt 14.17323 9.448819 
vt 14.17323 9.84252 
vt -9.448819 22.83465 
vt -9.448819 14.56693 
vt -9.84252 22.83465 
vt -9.84252 14.56693 
vt -9.448819 13.38583 
vt -9.448819 5.11811 
vt -9.84252 13.38583 
vt -9.84252 5.11811 
vt 9.448819 14.56693 
vt 9.448819 22.83465 
vt 9.84252 14.56693 
vt 9.84252 22.83465 
vt 1.574803 0.7874016 
vt 14.17323 0.7874016 

usemtl wood

f 2/2/1 1/1/1 3/3/1 
f 3/3/1 4/4/1 2/2/1 
f 6/6/1 5/5/1 7/7/1 
f 7/7/1 8/8/1 6/6/1 
f 10/10/2 9/9/2 11/11/2 
f 11/11/2 12/12/2 10/10/2 
f 14/14/2 13/13/2 15/15/2 
f 15/15/2 16/16/2 14/14/2 
f 18/18/3 17/17/3 19/19/3 
f 19/19/3 20/20/3 18/18/3 
f 22/22/3 21/21/3 23/23/3 
f 23/23/3 24/24/3 22/22/3 
f 3/25/2 25/1/2 26/2/2 
f 26/2/2 4/26/2 3/25/2 
f 28/28/3 27/27/3 29/29/3 
f 29/29/3 30/30/3 28/28/3 
f 32/32/3 31/31/3 33/33/3 
f 33/33/3 34/34/3 32/32/3 
f 36/36/2 35/35/2 37/37/2 
f 37/37/2 38/38/2 36/36/2 
f 40/40/2 39/39/2 41/41/2 
f 41/41/2 42/42/2 40/40/2 
f 43/44/3 5/43/3 6/45/3 
f 6/45/3 44/46/3 43/44/3 
f 46/47/2 45/10/2 47/12/2 
f 47/12/2 48/48/2 46/47/2 
f 50/5/2 49/14/2 51/16/2 
f 51/16/2 52/6/2 50/5/2 
f 54/48/1 53/47/1 55/49/1 
f 55/49/1 56/50/1 54/48/1 
f 57/52/3 1/51/3 2/53/3 
f 2/53/3 58/54/3 57/52/3 
f 59/56/3 53/55/3 54/57/3 
f 54/57/3 60/58/3 59/56/3 
f 7/59/2 61/5/2 62/6/2 
f 62/6/2 8/60/2 7/59/2 
f 55/61/2 63/47/2 64/48/2 
f 64/48/2 56/62/2 55/61/2 
f 22/44/4 24/46/4 15/63/4 
f 15/63/4 13/64/4 22/44/4 
f 62/8/1 61/7/1 50/65/1 
f 50/65/1 52/66/1 62/8/1 
f 32/52/4 34/54/4 41/67/4 
f 41/67/4 39/68/4 32/52/4 
f 14/64/4 16/63/4 51/69/4 
f 51/69/4 49/70/4 14/64/4 
f 64/50/1 63/49/1 46/71/1 
f 46/71/1 48/72/1 64/50/1 
f 66/74/4 65/73/4 67/75/4 
f 67/75/4 68/76/4 66/74/4 
f 70/1/2 69/40/2 71/42/2 
f 71/42/2 72/2/2 70/1/2 
f 28/56/4 30/58/4 11/77/4 
f 11/77/4 9/78/4 28/56/4 
f 74/79/3 73/36/3 75/38/3 
f 75/38/3 76/80/3 74/79/3 
f 78/81/5 77/36/5 79/82/5 
f 79/82/5 80/83/5 78/81/5 
f 81/36/6 73/84/6 74/85/6 
f 74/85/6 82/79/6 81/36/6 
f 66/87/6 68/86/6 83/88/6 
f 83/88/6 84/89/6 66/87/6 
f 81/36/4 77/90/4 78/91/4 
f 78/91/4 75/80/4 81/36/4 
f 78/91/4 38/73/4 75/80/4 
f 78/91/4 36/92/4 38/73/4 
f 78/91/4 85/93/4 36/92/4 
f 81/36/4 75/80/4 73/94/4 
f 40/96/5 31/95/5 32/97/5 
f 32/97/5 39/98/5 40/96/5 
f 31/95/5 40/96/5 69/99/5 
f 31/95/5 69/99/5 70/100/5 
f 31/95/5 70/100/5 25/101/5 
f 57/102/5 31/95/5 25/101/5 
f 57/102/5 25/101/5 3/103/5 
f 3/103/5 1/104/5 57/102/5 
f 33/105/6 42/87/6 41/106/6 
f 41/106/6 34/107/6 33/105/6 
f 42/87/6 33/105/6 86/108/6 
f 71/109/6 42/87/6 86/108/6 
f 71/109/6 86/108/6 87/110/6 
f 71/109/6 87/110/6 58/85/6 
f 71/109/6 58/85/6 26/111/6 
f 26/111/6 72/112/6 71/109/6 
f 26/111/6 58/85/6 2/113/6 
f 2/113/6 4/114/6 26/111/6 
f 88/116/1 84/115/1 83/117/1 
f 83/117/1 80/118/1 88/116/1 
f 20/37/1 88/116/1 80/118/1 
f 20/37/1 80/118/1 79/119/1 
f 18/120/1 20/37/1 79/119/1 
f 79/119/1 89/121/1 18/120/1 
f 90/123/3 85/122/3 78/124/3 
f 78/124/3 91/80/3 90/123/3 
f 78/124/3 92/44/3 91/80/3 
f 92/44/3 67/19/3 91/80/3 
f 78/124/3 93/46/3 92/44/3 
f 78/124/3 94/56/3 93/46/3 
f 94/56/3 95/23/3 93/46/3 
f 78/124/3 96/58/3 94/56/3 
f 78/124/3 97/52/3 96/58/3 
f 97/52/3 98/29/3 96/58/3 
f 78/124/3 99/54/3 97/52/3 
f 78/124/3 100/33/3 99/54/3 
f 67/19/3 92/44/3 101/21/3 
f 67/19/3 101/21/3 80/125/3 
f 101/21/3 95/23/3 80/125/3 
f 100/33/3 78/124/3 80/125/3 
f 67/19/3 80/125/3 83/126/3 
f 83/126/3 68/127/3 67/19/3 
f 95/23/3 102/27/3 80/125/3 
f 95/23/3 94/56/3 102/27/3 
f 102/27/3 98/29/3 80/125/3 
f 98/29/3 103/31/3 80/125/3 
f 98/29/3 97/52/3 103/31/3 
f 103/31/3 100/33/3 80/125/3 
f 64/111/6 48/112/6 47/109/6 
f 47/109/6 60/85/6 64/111/6 
f 47/109/6 29/105/6 60/85/6 
f 47/109/6 12/87/6 29/105/6 
f 12/87/6 11/106/6 29/105/6 
f 11/106/6 30/107/6 29/105/6 
f 64/111/6 60/85/6 54/113/6 
f 54/113/6 56/114/6 64/111/6 
f 104/17/6 17/105/6 18/128/6 
f 18/128/6 89/18/6 104/17/6 
f 36/130/6 85/129/6 90/131/6 
f 90/131/6 35/111/6 36/130/6 
f 104/132/2 89/82/2 79/133/2 
f 79/133/2 86/42/2 104/132/2 
f 79/133/2 87/2/2 86/42/2 
f 87/2/2 79/133/2 77/90/2 
f 87/2/2 77/90/2 81/36/2 
f 81/36/2 82/35/2 87/2/2 
f 62/111/6 52/112/6 51/109/6 
f 51/109/6 44/85/6 62/111/6 
f 51/109/6 23/105/6 44/85/6 
f 51/109/6 16/87/6 23/105/6 
f 16/87/6 15/106/6 23/105/6 
f 15/106/6 24/107/6 23/105/6 
f 62/111/6 44/85/6 6/113/6 
f 6/113/6 8/114/6 62/111/6 
f 37/116/1 35/134/1 90/135/1 
f 90/135/1 91/136/1 37/116/1 
f 19/105/6 65/87/6 88/89/6 
f 88/89/6 20/128/6 19/105/6 
f 65/87/6 19/105/6 105/137/6 
f 67/86/6 65/87/6 105/137/6 
f 67/86/6 105/137/6 106/138/6 
f 67/86/6 106/138/6 76/85/6 
f 67/86/6 76/85/6 37/111/6 
f 37/111/6 91/131/6 67/86/6 
f 37/111/6 76/85/6 75/84/6 
f 75/84/6 38/130/6 37/111/6 
f 104/36/4 86/139/4 33/54/4 
f 33/54/4 107/140/4 104/36/4 
f 33/54/4 108/141/4 107/140/4 
f 33/54/4 31/52/4 108/141/4 
f 31/52/4 29/58/4 108/141/4 
f 29/58/4 27/56/4 108/141/4 
f 27/56/4 23/46/4 108/141/4 
f 23/46/4 21/44/4 108/141/4 
f 104/36/4 107/140/4 105/142/4 
f 105/142/4 17/79/4 104/36/4 
f 105/142/4 19/80/4 17/79/4 
f 10/96/5 27/95/5 28/97/5 
f 28/97/5 9/98/5 10/96/5 
f 27/95/5 10/96/5 45/99/5 
f 27/95/5 45/99/5 46/100/5 
f 27/95/5 46/100/5 63/101/5 
f 59/102/5 27/95/5 63/101/5 
f 59/102/5 63/101/5 55/103/5 
f 55/103/5 53/104/5 59/102/5 
f 14/96/5 21/95/5 22/97/5 
f 22/97/5 13/98/5 14/96/5 
f 21/95/5 14/96/5 49/99/5 
f 21/95/5 49/99/5 50/100/5 
f 21/95/5 50/100/5 61/101/5 
f 43/102/5 21/95/5 61/101/5 
f 43/102/5 61/101/5 7/103/5 
f 7/103/5 5/104/5 43/102/5 
f 66/132/2 84/82/2 88/143/2 
f 88/143/2 65/144/2 66/132/2 
f 44/6/2 23/16/2 27/10/2 
f 27/10/2 59/47/2 44/6/2 
f 60/48/2 29/12/2 31/40/2 
f 31/40/2 57/1/2 60/48/2 
f 109/146/2 108/145/2 21/14/2 
f 21/14/2 43/5/2 109/146/2 
f 106/147/1 87/139/1 82/36/1 
f 82/36/1 74/35/1 106/147/1 
f 74/35/1 76/37/1 106/147/1 
f 87/139/1 106/147/1 110/148/1 
f 110/148/1 58/2/1 87/139/1 
f 110/148/1 109/146/1 58/2/1 
f 109/146/1 43/5/1 58/2/1 
f 43/5/1 44/6/1 58/2/1 
f 44/6/1 59/47/1 58/2/1 
f 59/47/1 60/48/1 58/2/1 
f 60/48/1 57/1/1 58/2/1 
f 10/78/4 12/77/4 47/149/4 
f 47/149/4 45/150/4 10/78/4 
f 26/4/1 25/3/1 70/151/1 
f 70/151/1 72/152/1 26/4/1 
f 40/68/4 42/67/4 71/153/4 
f 71/153/4 69/154/4 40/68/4 
f 112/21/3 111/44/3 113/46/3 
f 113/46/3 114/23/3 112/21/3 
f 113/156/1 111/155/1 92/157/1 
f 92/157/1 93/158/1 113/156/1 
f 113/159/6 93/131/6 95/86/6 
f 95/86/6 114/160/6 113/159/6 
f 116/162/4 115/161/4 100/163/4 
f 100/163/4 103/164/4 116/162/4 
f 117/159/6 99/131/6 100/86/6 
f 100/86/6 115/160/6 117/159/6 
f 119/27/3 118/56/3 120/58/3 
f 120/58/3 121/29/3 119/27/3 
f 116/31/3 122/52/3 117/54/3 
f 117/54/3 115/33/3 116/31/3 
f 117/166/1 122/165/1 97/167/1 
f 97/167/1 99/168/1 117/166/1 
f 97/170/5 122/169/5 116/171/5 
f 116/171/5 103/172/5 97/170/5 
f 120/159/6 96/131/6 98/86/6 
f 98/86/6 121/160/6 120/159/6 
f 119/174/4 121/173/4 98/175/4 
f 98/175/4 102/176/4 119/174/4 
f 112/178/4 114/177/4 95/179/4 
f 95/179/4 101/180/4 112/178/4 
f 94/170/5 118/169/5 119/171/5 
f 119/171/5 102/172/5 94/170/5 
f 120/182/1 118/181/1 94/183/1 
f 94/183/1 96/184/1 120/182/1 
f 92/170/5 111/169/5 112/171/5 
f 112/171/5 101/172/5 92/170/5 
f 106/37/2 105/144/2 107/145/2 
f 107/145/2 110/146/2 106/37/2 
f 109/102/5 110/185/5 107/186/5 
f 107/186/5 108/95/5 109/102/5 
g bookcaseClosedDoors




usemtl wood

f 2/2/1 1/1/1 3/3/1 
f 3/3/1 4/4/1 2/2/1 
f 6/6/1 5/5/1 7/7/1 
f 7/7/1 8/8/1 6/6/1 
f 10/10/2 9/9/2 11/11/2 
f 11/11/2 12/12/2 10/10/2 
f 14/14/2 13/13/2 15/15/2 
f 15/15/2 16/16/2 14/14/2 
f 18/18/3 17/17/3 19/19/3 
f 19/19/3 20/20/3 18/18/3 
f 22/22/3 21/21/3 23/23/3 
f 23/23/3 24/24/3 22/22/3 
f 3/25/2 25/1/2 26/2/2 
f 26/2/2 4/26/2 3/25/2 
f 28/28/3 27/27/3 29/29/3 
f 29/29/3 30/30/3 28/28/3 
f 32/32/3 31/31/3 33/33/3 
f 33/33/3 34/34/3 32/32/3 
f 36/36/2 35/35/2 37/37/2 
f 37/37/2 38/38/2 36/36/2 
f 40/40/2 39/39/2 41/41/2 
f 41/41/2 42/42/2 40/40/2 
f 43/44/3 5/43/3 6/45/3 
f 6/45/3 44/46/3 43/44/3 
f 46/47/2 45/10/2 47/12/2 
f 47/12/2 48/48/2 46/47/2 
f 50/5/2 49/14/2 51/16/2 
f 51/16/2 52/6/2 50/5/2 
f 54/48/1 53/47/1 55/49/1 
f 55/49/1 56/50/1 54/48/1 
f 57/52/3 1/51/3 2/53/3 
f 2/53/3 58/54/3 57/52/3 
f 59/56/3 53/55/3 54/57/3 
f 54/57/3 60/58/3 59/56/3 
f 7/59/2 61/5/2 62/6/2 
f 62/6/2 8/60/2 7/59/2 
f 55/61/2 63/47/2 64/48/2 
f 64/48/2 56/62/2 55/61/2 
f 22/44/4 24/46/4 15/63/4 
f 15/63/4 13/64/4 22/44/4 
f 62/8/1 61/7/1 50/65/1 
f 50/65/1 52/66/1 62/8/1 
f 32/52/4 34/54/4 41/67/4 
f 41/67/4 39/68/4 32/52/4 
f 14/64/4 16/63/4 51/69/4 
f 51/69/4 49/70/4 14/64/4 
f 64/50/1 63/49/1 46/71/1 
f 46/71/1 48/72/1 64/50/1 
f 66/74/4 65/73/4 67/75/4 
f 67/75/4 68/76/4 66/74/4 
f 70/1/2 69/40/2 71/42/2 
f 71/42/2 72/2/2 70/1/2 
f 28/56/4 30/58/4 11/77/4 
f 11/77/4 9/78/4 28/56/4 
f 74/79/3 73/36/3 75/38/3 
f 75/38/3 76/80/3 74/79/3 
f 78/81/5 77/36/5 79/82/5 
f 79/82/5 80/83/5 78/81/5 
f 81/36/6 73/84/6 74/85/6 
f 74/85/6 82/79/6 81/36/6 
f 66/87/6 68/86/6 83/88/6 
f 83/88/6 84/89/6 66/87/6 
f 81/36/4 77/90/4 78/91/4 
f 78/91/4 75/80/4 81/36/4 
f 78/91/4 38/73/4 75/80/4 
f 78/91/4 36/92/4 38/73/4 
f 78/91/4 85/93/4 36/92/4 
f 81/36/4 75/80/4 73/94/4 
f 40/96/5 31/95/5 32/97/5 
f 32/97/5 39/98/5 40/96/5 
f 31/95/5 40/96/5 69/99/5 
f 31/95/5 69/99/5 70/100/5 
f 31/95/5 70/100/5 25/101/5 
f 57/102/5 31/95/5 25/101/5 
f 57/102/5 25/101/5 3/103/5 
f 3/103/5 1/104/5 57/102/5 
f 33/105/6 42/87/6 41/106/6 
f 41/106/6 34/107/6 33/105/6 
f 42/87/6 33/105/6 86/108/6 
f 71/109/6 42/87/6 86/108/6 
f 71/109/6 86/108/6 87/110/6 
f 71/109/6 87/110/6 58/85/6 
f 71/109/6 58/85/6 26/111/6 
f 26/111/6 72/112/6 71/109/6 
f 26/111/6 58/85/6 2/113/6 
f 2/113/6 4/114/6 26/111/6 
f 88/116/1 84/115/1 83/117/1 
f 83/117/1 80/118/1 88/116/1 
f 20/37/1 88/116/1 80/118/1 
f 20/37/1 80/118/1 79/119/1 
f 18/120/1 20/37/1 79/119/1 
f 79/119/1 89/121/1 18/120/1 
f 90/123/3 85/122/3 78/124/3 
f 78/124/3 91/80/3 90/123/3 
f 78/124/3 92/44/3 91/80/3 
f 92/44/3 67/19/3 91/80/3 
f 78/124/3 93/46/3 92/44/3 
f 78/124/3 94/56/3 93/46/3 
f 94/56/3 95/23/3 93/46/3 
f 78/124/3 96/58/3 94/56/3 
f 78/124/3 97/52/3 96/58/3 
f 97/52/3 98/29/3 96/58/3 
f 78/124/3 99/54/3 97/52/3 
f 78/124/3 100/33/3 99/54/3 
f 67/19/3 92/44/3 101/21/3 
f 67/19/3 101/21/3 80/125/3 
f 101/21/3 95/23/3 80/125/3 
f 100/33/3 78/124/3 80/125/3 
f 67/19/3 80/125/3 83/126/3 
f 83/126/3 68/127/3 67/19/3 
f 95/23/3 102/27/3 80/125/3 
f 95/23/3 94/56/3 102/27/3 
f 102/27/3 98/29/3 80/125/3 
f 98/29/3 103/31/3 80/125/3 
f 98/29/3 97/52/3 103/31/3 
f 103/31/3 100/33/3 80/125/3 
f 64/111/6 48/112/6 47/109/6 
f 47/109/6 60/85/6 64/111/6 
f 47/109/6 29/105/6 60/85/6 
f 47/109/6 12/87/6 29/105/6 
f 12/87/6 11/106/6 29/105/6 
f 11/106/6 30/107/6 29/105/6 
f 64/111/6 60/85/6 54/113/6 
f 54/113/6 56/114/6 64/111/6 
f 104/17/6 17/105/6 18/128/6 
f 18/128/6 89/18/6 104/17/6 
f 36/130/6 85/129/6 90/131/6 
f 90/131/6 35/111/6 36/130/6 
f 104/132/2 89/82/2 79/133/2 
f 79/133/2 86/42/2 104/132/2 
f 79/133/2 87/2/2 86/42/2 
f 87/2/2 79/133/2 77/90/2 
f 87/2/2 77/90/2 81/36/2 
f 81/36/2 82/35/2 87/2/2 
f 62/111/6 52/112/6 51/109/6 
f 51/109/6 44/85/6 62/111/6 
f 51/109/6 23/105/6 44/85/6 
f 51/109/6 16/87/6 23/105/6 
f 16/87/6 15/106/6 23/105/6 
f 15/106/6 24/107/6 23/105/6 
f 62/111/6 44/85/6 6/113/6 
f 6/113/6 8/114/6 62/111/6 
f 37/116/1 35/134/1 90/135/1 
f 90/135/1 91/136/1 37/116/1 
f 19/105/6 65/87/6 88/89/6 
f 88/89/6 20/128/6 19/105/6 
f 65/87/6 19/105/6 105/137/6 
f 67/86/6 65/87/6 105/137/6 
f 67/86/6 105/137/6 106/138/6 
f 67/86/6 106/138/6 76/85/6 
f 67/86/6 76/85/6 37/111/6 
f 37/111/6 91/131/6 67/86/6 
f 37/111/6 76/85/6 75/84/6 
f 75/84/6 38/130/6 37/111/6 
f 104/36/4 86/139/4 33/54/4 
f 33/54/4 107/140/4 104/36/4 
f 33/54/4 108/141/4 107/140/4 
f 33/54/4 31/52/4 108/141/4 
f 31/52/4 29/58/4 108/141/4 
f 29/58/4 27/56/4 108/141/4 
f 27/56/4 23/46/4 108/141/4 
f 23/46/4 21/44/4 108/141/4 
f 104/36/4 107/140/4 105/142/4 
f 105/142/4 17/79/4 104/36/4 
f 105/142/4 19/80/4 17/79/4 
f 10/96/5 27/95/5 28/97/5 
f 28/97/5 9/98/5 10/96/5 
f 27/95/5 10/96/5 45/99/5 
f 27/95/5 45/99/5 46/100/5 
f 27/95/5 46/100/5 63/101/5 
f 59/102/5 27/95/5 63/101/5 
f 59/102/5 63/101/5 55/103/5 
f 55/103/5 53/104/5 59/102/5 
f 14/96/5 21/95/5 22/97/5 
f 22/97/5 13/98/5 14/96/5 
f 21/95/5 14/96/5 49/99/5 
f 21/95/5 49/99/5 50/100/5 
f 21/95/5 50/100/5 61/101/5 
f 43/102/5 21/95/5 61/101/5 
f 43/102/5 61/101/5 7/103/5 
f 7/103/5 5/104/5 43/102/5 
f 66/132/2 84/82/2 88/143/2 
f 88/143/2 65/144/2 66/132/2 
f 44/6/2 23/16/2 27/10/2 
f 27/10/2 59/47/2 44/6/2 
f 60/48/2 29/12/2 31/40/2 
f 31/40/2 57/1/2 60/48/2 
f 109/146/2 108/145/2 21/14/2 
f 21/14/2 43/5/2 109/146/2 
f 106/147/1 87/139/1 82/36/1 
f 82/36/1 74/35/1 106/147/1 
f 74/35/1 76/37/1 106/147/1 
f 87/139/1 106/147/1 110/148/1 
f 110/148/1 58/2/1 87/139/1 
f 110/148/1 109/146/1 58/2/1 
f 109/146/1 43/5/1 58/2/1 
f 43/5/1 44/6/1 58/2/1 
f 44/6/1 59/47/1 58/2/1 
f 59/47/1 60/48/1 58/2/1 
f 60/48/1 57/1/1 58/2/1 
f 10/78/4 12/77/4 47/149/4 
f 47/149/4 45/150/4 10/78/4 
f 26/4/1 25/3/1 70/151/1 
f 70/151/1 72/152/1 26/4/1 
f 40/68/4 42/67/4 71/153/4 
f 71/153/4 69/154/4 40/68/4 
f 112/21/3 111/44/3 113/46/3 
f 113/46/3 114/23/3 112/21/3 
f 113/156/1 111/155/1 92/157/1 
f 92/157/1 93/158/1 113/156/1 
f 113/159/6 93/131/6 95/86/6 
f 95/86/6 114/160/6 113/159/6 
f 116/162/4 115/161/4 100/163/4 
f 100/163/4 103/164/4 116/162/4 
f 117/159/6 99/131/6 100/86/6 
f 100/86/6 115/160/6 117/159/6 
f 119/27/3 118/56/3 120/58/3 
f 120/58/3 121/29/3 119/27/3 
f 116/31/3 122/52/3 117/54/3 
f 117/54/3 115/33/3 116/31/3 
f 117/166/1 122/165/1 97/167/1 
f 97/167/1 99/168/1 117/166/1 
f 97/170/5 122/169/5 116/171/5 
f 116/171/5 103/172/5 97/170/5 
f 120/159/6 96/131/6 98/86/6 
f 98/86/6 121/160/6 120/159/6 
f 119/174/4 121/173/4 98/175/4 
f 98/175/4 102/176/4 119/174/4 
f 112/178/4 114/177/4 95/179/4 
f 95/179/4 101/180/4 112/178/4 
f 94/170/5 118/169/5 119/171/5 
f 119/171/5 102/172/5 94/170/5 
f 120/182/1 118/181/1 94/183/1 
f 94/183/1 96/184/1 120/182/1 
f 92/170/5 111/169/5 112/171/5 
f 112/171/5 101/172/5 92/170/5 
f 106/37/2 105/144/2 107/145/2 
f 107/145/2 110/146/2 106/37/2 
f 109/102/5 110/185/5 107/186/5 
f 107/186/5 108/95/5 109/102/5 
g doorLeft

v -0.177774 0.3930726 0.02 
v -0.2 0.115 0.02 
v -0.2 0.82 0.02 
v -0.177774 0.4516136 0.02 
v -0.157774 0.4516136 0.02 
v -0.157774 0.3930726 0.02 
v -0.04 0.82 0.02 
v -0.04 0.82 0.04 
v -0.2 0.115 0.04 
v -0.2 0.82 0.04 
v -0.173424 0.400111 0 
v -0.162124 0.400111 0 
v -0.173424 0.4445751 0 
v -0.162124 0.4445751 0 

vn -0.9771543 0 -0.2125311 
vn 0 0.9432915 -0.3319654 
vn 0.9771543 0 -0.2125311 
vn 0 -0.9432915 -0.3319654 

vt 5.424172 10.94774 
vt 6.299212 0 
vt 6.299212 27.75591 
vt 5.424172 13.2525 
vt 4.63677 13.2525 
vt 4.63677 10.94774 
vt 0 27.75591 
vt -0.7874016 27.75591 
vt -0.7874016 0 
vt -6.299212 0 
vt -6.299212 27.75591 
vt 0.7874016 0 
vt 0.7874016 27.75591 
vt 0 0.7874016 
vt -6.299212 0.7874016 
vt 6.299212 0.7874016 
vt 5.252912 11.22484 
vt 4.80803 11.22484 
vt 5.252912 12.9754 
vt 4.80803 12.9754 
vt 0.3469941 11.22484 
vt 0.3469941 12.9754 
vt 1.152805 10.94774 
vt 1.152805 13.2525 
vt 4.63677 4.399373 
vt 5.424172 4.399373 
vt 4.80803 3.564635 
vt 5.252912 3.564635 
vt 1.791269 12.9754 
vt 1.791269 11.22484 
vt 0.9854577 13.2525 
vt 0.9854577 10.94774 
vt 4.63677 3.634271 
vt 4.80803 4.469009 
vt 5.424172 3.634271 
vt 5.252912 4.469009 

usemtl wood

f 123/187/2 110/36/2 124/188/2 
f 124/188/2 125/189/2 123/187/2 
f 125/189/2 126/190/2 123/187/2 
f 125/189/2 127/191/2 126/190/2 
f 110/36/2 123/187/2 128/192/2 
f 128/192/2 129/193/2 110/36/2 
f 128/192/2 127/191/2 129/193/2 
f 127/191/2 125/189/2 129/193/2 
f 110/36/4 129/193/4 130/194/4 
f 130/194/4 109/195/4 110/36/4 
f 131/196/3 109/36/3 130/193/3 
f 130/193/3 132/197/3 131/196/3 
f 125/193/1 124/36/1 131/198/1 
f 131/198/1 132/199/1 125/193/1 
f 110/36/6 109/200/6 131/201/6 
f 131/201/6 124/196/6 110/36/6 
f 130/200/5 129/36/5 125/188/5 
f 125/188/5 132/202/5 130/200/5 

usemtl metal

f 134/204/2 133/203/2 135/205/2 
f 135/205/2 136/206/2 134/204/2 
f 135/208/7 133/207/7 123/209/7 
f 123/209/7 126/210/7 135/208/7 
f 126/212/8 127/211/8 136/213/8 
f 136/213/8 135/214/8 126/212/8 
f 134/216/9 136/215/9 127/217/9 
f 127/217/9 128/218/9 134/216/9 
f 134/220/10 128/219/10 123/221/10 
f 123/221/10 133/222/10 134/220/10 
g doorRight

v -0.237876 0.400111 0 
v -0.226576 0.400111 0 
v -0.237876 0.4445751 0 
v -0.226576 0.4445751 0 
v -0.222226 0.4516136 0.02 
v -0.222226 0.3930726 0.02 
v -0.242226 0.3930726 0.02 
v -0.242226 0.4516136 0.02 
v -0.36 0.82 0.02 
v -0.36 0.82 0.04 


vt -4.80803 11.22484 
vt -5.252912 11.22484 
vt -4.80803 12.9754 
vt -5.252912 12.9754 
vt -0.3469941 12.9754 
vt -0.3469941 11.22484 
vt -1.152805 13.2525 
vt -1.152805 10.94774 
vt -5.424172 3.634271 
vt -5.252912 4.469009 
vt -4.63677 3.634271 
vt -4.80803 4.469009 
vt -1.791269 11.22484 
vt -1.791269 12.9754 
vt -0.9854577 10.94774 
vt -0.9854577 13.2525 
vt -5.424172 4.399373 
vt -4.63677 4.399373 
vt -5.252912 3.564635 
vt -4.80803 3.564635 
vt -4.63677 10.94774 
vt -4.63677 13.2525 
vt -5.424172 13.2525 
vt -5.424172 10.94774 

usemtl metal

f 138/224/2 137/223/2 139/225/2 
f 139/225/2 140/226/2 138/224/2 
f 138/228/9 140/227/9 141/229/9 
f 141/229/9 142/230/9 138/228/9 
f 138/232/10 142/231/10 143/233/10 
f 143/233/10 137/234/10 138/232/10 
f 139/236/7 137/235/7 143/237/7 
f 143/237/7 144/238/7 139/236/7 
f 144/240/8 141/239/8 140/241/8 
f 140/241/8 139/242/8 144/240/8 

usemtl wood

f 124/188/6 131/202/6 108/200/6 
f 108/200/6 107/36/6 124/188/6 
f 124/36/4 125/193/4 132/194/4 
f 132/194/4 131/195/4 124/36/4 
f 132/201/5 125/196/5 145/36/5 
f 145/36/5 146/200/5 132/201/5 
f 108/36/3 131/188/3 132/189/3 
f 132/189/3 146/193/3 108/36/3 
f 145/193/1 107/36/1 108/198/1 
f 108/198/1 146/199/1 145/193/1 
f 124/196/2 107/36/2 145/193/2 
f 145/193/2 143/243/2 124/196/2 
f 145/193/2 144/244/2 143/243/2 
f 145/193/2 141/245/2 144/244/2 
f 124/196/2 143/243/2 142/246/2 
f 142/246/2 125/197/2 124/196/2 
f 142/246/2 141/245/2 125/197/2 
f 141/245/2 145/193/2 125/197/2 
