# Created by Kenney (www.kenney.nl) 

mtllib books.mtl 

g books

v -0.02444759 0.1039023 0.0126 
v -0.02444759 0.1039023 0.0945 
v -0.04889518 0.09779037 0.0126 
v -0.04889518 0.09779037 0.0945 
v -0.04964759 0 0.0945 
v -0.04964759 0 0.0063 
v -0.1504476 0 0.0945 
v -0.07484759 0 0.0189 
v -0.1000476 0 0.0189 
v -0.1000476 0 0.0063 
v -0.1252476 0 0.0063 
v -0.1252476 0 0 
v -0.1504476 0 0 
v -0.07484759 0 0.0063 
v -0.02444759 1.804779E-16 0.0945 
v 0 0.006111898 0.0945 
v -0.1252476 0.0945 0 
v -0.1252476 0.0945 0.0063 
v 0 0.006111898 0.0126 
v -0.02444759 1.804779E-16 0.0126 
v -0.1504476 0.0945 0 
v -0.1504476 0.0945 0.0945 
v -0.1252476 0.0945 0.0945 
v -0.04964759 0.1008 0.0945 
v -0.07484759 0.0882 0.0945 
v -0.07484759 0.1008 0.0945 
v -0.1000476 0.0882 0.0945 
v -0.1000476 0.1008 0.0945 
v -0.1252476 0.1008 0.0945 
v -0.1000476 0.0882 0.0189 
v -0.07484759 0.0882 0.0189 
v -0.1000476 0.1008 0.0063 
v -0.1252476 0.1008 0.0063 
v -0.07484759 0.1008 0.0063 
v -0.04964759 0.1008 0.0063 

vn -0.2425356 0.9701425 0 
vn 0 -1 0 
vn 0 0 1 
vn 1 0 0 
vn 0.2425356 -0.9701425 0 
vn 0 0 -1 
vn -1 0 0 
vn 0 1 0 
vn 0.9701425 0.2425356 0 
vn -0.9701425 -0.2425356 0 

vt 0.496063 0.05836035 
vt 3.720472 0.05836035 
vt 0.496063 -0.9337656 
vt 3.720472 -0.9337656 
vt -1.95463 3.720472 
vt -1.95463 0.2480315 
vt -5.923133 3.720472 
vt -2.946756 0.7440945 
vt -3.938882 0.7440945 
vt -3.938882 0.2480315 
vt -4.931007 0.2480315 
vt -4.931007 0 
vt -5.923133 0 
vt -2.946756 0.2480315 
vt -0.9625036 7.105427E-15 
vt -1.925007 3.850014 
vt 0 0.2406259 
vt -0.9625036 4.09064 
vt 0 3.720472 
vt 0 0 
vt -0.2480315 3.720472 
vt -0.2480315 0 
vt -3.720472 0.05836035 
vt -0.496063 0.05836035 
vt -3.720472 -0.9337656 
vt -0.496063 -0.9337656 
vt 0.9625036 7.105427E-15 
vt 1.925007 3.850014 
vt 0.9625036 4.09064 
vt 3.720472 0 
vt 3.720472 3.720472 
vt 4.931007 0 
vt 4.931007 0.2480315 
vt 5.923133 0 
vt 4.931007 3.720472 
vt 5.923133 3.720472 
vt -0.496063 4.201945 
vt -0.496063 0.2334414 
vt -3.720472 4.201945 
vt -3.720472 0.2334414 
vt -1.95463 0 
vt -1.95463 3.968504 
vt -2.946756 3.472441 
vt -2.946756 3.968504 
vt -3.938882 3.472441 
vt -4.931007 3.720472 
vt -3.938882 3.968504 
vt -4.931007 3.968504 
vt 0.496063 0.2334414 
vt 0.496063 4.201945 
vt 3.720472 0.2334414 
vt 3.720472 4.201945 
vt 3.938882 0 
vt 2.946756 0 
vt 3.938882 3.472441 
vt 2.946756 3.472441 
vt 2.946756 0.7440945 
vt 2.946756 3.720472 
vt 3.938882 0.7440945 
vt 3.938882 3.720472 
vt -0.7440945 3.472441 
vt -0.2480315 3.968504 
vt -3.720472 3.968504 
vt -3.720472 3.472441 
vt -0.7440945 0 
vt 3.938882 3.968504 
vt 4.931007 3.968504 
vt 3.938882 0.2480315 
vt 0.2480315 3.720472 
vt 0.2480315 3.968504 
vt 3.720472 3.968504 
vt 0.2480315 0 
vt 0.7440945 0 
vt 0.7440945 3.472441 
vt 3.720472 3.472441 
vt -3.720472 0 
vt 1.95463 0 
vt 2.946756 3.968504 
vt 1.95463 3.968504 
vt 1.95463 0.2480315 
vt 1.95463 3.720472 
vt 2.946756 0.2480315 

usemtl carpetDarker

f 2/2/1 1/1/1 3/3/1 
f 3/3/1 4/4/1 2/2/1 
f 6/6/2 5/5/2 7/7/2 
f 7/7/2 8/8/2 6/6/2 
f 7/7/2 9/9/2 8/8/2 
f 7/7/2 10/10/2 9/9/2 
f 7/7/2 11/11/2 10/10/2 
f 7/7/2 12/12/2 11/11/2 
f 7/7/2 13/13/2 12/12/2 
f 6/6/2 8/8/2 14/14/2 
f 4/16/3 15/15/3 16/17/3 
f 16/17/3 2/18/3 4/16/3 
f 12/20/4 17/19/4 18/21/4 
f 18/21/4 11/22/4 12/20/4 
f 19/24/5 16/23/5 15/25/5 
f 15/25/5 20/26/5 19/24/5 
f 19/17/6 20/27/6 3/28/6 
f 3/28/6 1/29/6 19/17/6 
f 21/19/7 13/20/7 7/30/7 
f 7/30/7 22/31/7 21/19/7 
f 18/33/8 17/32/8 21/34/8 
f 21/34/8 23/35/8 18/33/8 
f 21/34/8 22/36/8 23/35/8 
f 19/38/9 1/37/9 2/39/9 
f 2/39/9 16/40/9 19/38/9 
f 7/13/3 5/41/3 24/42/3 
f 24/42/3 25/43/3 7/13/3 
f 24/42/3 26/44/3 25/43/3 
f 7/13/3 25/43/3 27/45/3 
f 27/45/3 22/7/3 7/13/3 
f 27/45/3 23/46/3 22/7/3 
f 23/46/3 27/45/3 28/47/3 
f 28/47/3 29/48/3 23/46/3 
f 12/32/6 13/34/6 21/36/6 
f 21/36/6 17/35/6 12/32/6 
f 3/50/10 20/49/10 15/51/10 
f 15/51/10 4/52/10 3/50/10 

usemtl carpetWhite

f 8/54/6 9/53/6 30/55/6 
f 30/55/6 31/56/6 8/54/6 
f 25/58/8 31/57/8 30/59/8 
f 30/59/8 27/60/8 25/58/8 

usemtl plant

f 30/61/4 10/22/4 32/62/4 
f 32/62/4 28/63/4 30/61/4 
f 28/63/4 27/64/4 30/61/4 
f 10/22/4 30/61/4 9/65/4 
f 10/53/6 11/32/6 18/35/6 
f 18/35/6 32/66/6 10/53/6 
f 18/35/6 33/67/6 32/66/6 
f 28/60/8 32/68/8 33/33/8 
f 33/33/8 29/35/8 28/60/8 
f 33/70/7 18/69/7 23/31/7 
f 23/31/7 29/71/7 33/70/7 

usemtl metal

f 34/70/7 14/72/7 8/73/7 
f 8/73/7 31/74/7 34/70/7 
f 31/74/7 26/71/7 34/70/7 
f 31/74/7 25/75/7 26/71/7 
f 6/22/4 35/62/4 24/63/4 
f 24/63/4 5/76/4 6/22/4 
f 6/77/6 14/54/6 34/78/6 
f 34/78/6 35/79/6 6/77/6 
f 24/81/8 35/80/8 34/82/8 
f 34/82/8 26/58/8 24/81/8 
g books




usemtl carpetDarker

f 2/2/1 1/1/1 3/3/1 
f 3/3/1 4/4/1 2/2/1 
f 6/6/2 5/5/2 7/7/2 
f 7/7/2 8/8/2 6/6/2 
f 7/7/2 9/9/2 8/8/2 
f 7/7/2 10/10/2 9/9/2 
f 7/7/2 11/11/2 10/10/2 
f 7/7/2 12/12/2 11/11/2 
f 7/7/2 13/13/2 12/12/2 
f 6/6/2 8/8/2 14/14/2 
f 4/16/3 15/15/3 16/17/3 
f 16/17/3 2/18/3 4/16/3 
f 12/20/4 17/19/4 18/21/4 
f 18/21/4 11/22/4 12/20/4 
f 19/24/5 16/23/5 15/25/5 
f 15/25/5 20/26/5 19/24/5 
f 19/17/6 20/27/6 3/28/6 
f 3/28/6 1/29/6 19/17/6 
f 21/19/7 13/20/7 7/30/7 
f 7/30/7 22/31/7 21/19/7 
f 18/33/8 17/32/8 21/34/8 
f 21/34/8 23/35/8 18/33/8 
f 21/34/8 22/36/8 23/35/8 
f 19/38/9 1/37/9 2/39/9 
f 2/39/9 16/40/9 19/38/9 
f 7/13/3 5/41/3 24/42/3 
f 24/42/3 25/43/3 7/13/3 
f 24/42/3 26/44/3 25/43/3 
f 7/13/3 25/43/3 27/45/3 
f 27/45/3 22/7/3 7/13/3 
f 27/45/3 23/46/3 22/7/3 
f 23/46/3 27/45/3 28/47/3 
f 28/47/3 29/48/3 23/46/3 
f 12/32/6 13/34/6 21/36/6 
f 21/36/6 17/35/6 12/32/6 
f 3/50/10 20/49/10 15/51/10 
f 15/51/10 4/52/10 3/50/10 

usemtl carpetWhite

f 8/54/6 9/53/6 30/55/6 
f 30/55/6 31/56/6 8/54/6 
f 25/58/8 31/57/8 30/59/8 
f 30/59/8 27/60/8 25/58/8 

usemtl plant

f 30/61/4 10/22/4 32/62/4 
f 32/62/4 28/63/4 30/61/4 
f 28/63/4 27/64/4 30/61/4 
f 10/22/4 30/61/4 9/65/4 
f 10/53/6 11/32/6 18/35/6 
f 18/35/6 32/66/6 10/53/6 
f 18/35/6 33/67/6 32/66/6 
f 28/60/8 32/68/8 33/33/8 
f 33/33/8 29/35/8 28/60/8 
f 33/70/7 18/69/7 23/31/7 
f 23/31/7 29/71/7 33/70/7 

usemtl metal

f 34/70/7 14/72/7 8/73/7 
f 8/73/7 31/74/7 34/70/7 
f 31/74/7 26/71/7 34/70/7 
f 31/74/7 25/75/7 26/71/7 
f 6/22/4 35/62/4 24/63/4 
f 24/63/4 5/76/4 6/22/4 
f 6/77/6 14/54/6 34/78/6 
f 34/78/6 35/79/6 6/77/6 
f 24/81/8 35/80/8 34/82/8 
f 34/82/8 26/58/8 24/81/8 
