# Created by Kenney (www.kenney.nl) 

mtllib cabinetBed.mtl 

g cabinetBed

v 0.01 0.2132 0.205 
v 7.219114E-16 0.2132 0.205 
v 0.01 0.2332 0.205 
v -0.246 0.2132 0.205 
v -0.256 0.2132 0.205 
v -0.256 0.2332 0.205 
v -0.246 8.164189E-18 0.205 
v 7.219114E-16 0 0.205 
v 0 0 0 
v -0.246 8.164189E-18 1.082867E-15 
v -0.246 0.2132 1.082867E-15 
v -0.0246 0.0246 0.164 
v -0.0246 0.1886 0.164 
v -0.2214 0.0246 0.164 
v -0.2214 0.1886 0.164 
v -0.0246 0.0246 0 
v -0.2214 0.0246 7.219114E-16 
v -0.2214 0.1886 7.219114E-16 
v 0 0.2132 0 
v -0.0246 0.1886 0 
v 0.01 0.2332 -0.01 
v -0.256 0.2332 -0.01 
v 0.01 0.2132 -0.01 
v -0.256 0.2132 -0.01 

vn 0 0 1 
vn 0 -1 0 
vn -1 0 0 
vn 0 0 -1 
vn 1 0 0 
vn 0 1 0 

vt 0.3937008 8.393701 
vt -4.249516E-15 8.393701 
vt 0.3937008 9.181103 
vt -9.68504 8.393701 
vt -10.07874 8.393701 
vt -10.07874 9.181103 
vt -9.68504 3.214248E-16 
vt -4.249516E-15 -1.128998E-30 
vt 2.842171E-14 8.070867 
vt 0 0 
vt -9.68504 8.070867 
vt -9.68504 4.263256E-14 
vt -6.941976E-29 3.214248E-16 
vt -6.941976E-29 8.393701 
vt 8.070867 3.214248E-16 
vt 8.070867 8.393701 
vt 0.968504 0.968504 
vt 0.968504 7.425197 
vt 8.716536 0.968504 
vt 8.716536 7.425197 
vt 9.68504 3.214248E-16 
vt 9.68504 8.393701 
vt 0 8.393701 
vt -8.070867 8.393701 
vt -8.070867 0 
vt 3.552714E-16 7.425197 
vt 3.552714E-16 0.968504 
vt -6.456693 7.425197 
vt -6.456693 0.968504 
vt -3.730349E-15 0.968504 
vt -3.730349E-15 7.425197 
vt 6.456693 0.968504 
vt 6.456693 7.425197 
vt 0.968504 6.456693 
vt 8.716536 6.456693 
vt 0.968504 1.986125E-31 
vt 8.716536 2.842171E-14 
vt -0.968504 6.456693 
vt -0.968504 6.090784E-30 
vt -8.716536 6.456693 
vt -8.716536 2.842171E-14 
vt -0.3937008 8.070867 
vt 10.07874 8.070867 
vt -0.3937008 -0.3937008 
vt 10.07874 -0.3937008 
vt -0.3937008 8.393701 
vt -0.3937008 9.181103 
vt 10.07874 8.393701 
vt 10.07874 9.181103 
vt -8.070867 9.181103 
vt -9.68504 4.262254E-14 
vt -10.07874 8.070867 
vt -10.07874 -0.3937008 
vt -1.406157E-15 -1.002773E-17 
vt 0.3937008 -0.3937008 
vt 2.701555E-14 8.070867 
vt 0.3937008 8.070867 
vt 8.070867 9.181103 

usemtl wood

f 2/2/1 1/1/1 3/3/1 
f 3/3/1 4/4/1 2/2/1 
f 3/3/1 5/5/1 4/4/1 
f 3/3/1 6/6/1 5/5/1 
f 2/2/1 4/4/1 7/7/1 
f 7/7/1 8/8/1 2/2/1 
f 9/10/2 8/9/2 7/11/2 
f 7/11/2 10/12/2 9/10/2 
f 11/14/3 10/13/3 7/15/3 
f 7/15/3 4/16/3 11/14/3 
f 13/18/4 12/17/4 14/19/4 
f 14/19/4 15/20/4 13/18/4 
f 17/19/4 16/17/4 10/21/4 
f 10/21/4 11/22/4 17/19/4 
f 11/22/4 18/20/4 17/19/4 
f 11/22/4 19/23/4 18/20/4 
f 16/17/4 19/23/4 9/10/4 
f 9/10/4 10/21/4 16/17/4 
f 16/17/4 20/18/4 19/23/4 
f 20/18/4 18/20/4 19/23/4 
f 9/10/5 19/23/5 2/24/5 
f 2/24/5 8/25/5 9/10/5 
f 17/27/5 18/26/5 15/28/5 
f 15/28/5 14/29/5 17/27/5 
f 20/31/3 16/30/3 12/32/3 
f 12/32/3 13/33/3 20/31/3 
f 14/35/6 12/34/6 16/36/6 
f 16/36/6 17/37/6 14/35/6 
f 20/39/2 13/38/2 15/40/2 
f 15/40/2 18/41/2 20/39/2 
f 6/43/6 3/42/6 21/44/6 
f 21/44/6 22/45/6 6/43/6 
f 21/47/4 23/46/4 24/48/4 
f 24/48/4 22/49/4 21/47/4 
f 23/1/5 21/3/5 3/50/5 
f 3/50/5 1/24/5 23/1/5 
f 11/51/2 4/11/2 5/52/2 
f 11/51/2 5/52/2 24/53/2 
f 19/54/2 11/51/2 24/53/2 
f 19/54/2 24/53/2 23/55/2 
f 2/56/2 19/54/2 23/55/2 
f 23/55/2 1/57/2 2/56/2 
f 22/47/3 24/46/3 5/16/3 
f 5/16/3 6/58/3 22/47/3 
g cabinetBed




usemtl wood

f 2/2/1 1/1/1 3/3/1 
f 3/3/1 4/4/1 2/2/1 
f 3/3/1 5/5/1 4/4/1 
f 3/3/1 6/6/1 5/5/1 
f 2/2/1 4/4/1 7/7/1 
f 7/7/1 8/8/1 2/2/1 
f 9/10/2 8/9/2 7/11/2 
f 7/11/2 10/12/2 9/10/2 
f 11/14/3 10/13/3 7/15/3 
f 7/15/3 4/16/3 11/14/3 
f 13/18/4 12/17/4 14/19/4 
f 14/19/4 15/20/4 13/18/4 
f 17/19/4 16/17/4 10/21/4 
f 10/21/4 11/22/4 17/19/4 
f 11/22/4 18/20/4 17/19/4 
f 11/22/4 19/23/4 18/20/4 
f 16/17/4 19/23/4 9/10/4 
f 9/10/4 10/21/4 16/17/4 
f 16/17/4 20/18/4 19/23/4 
f 20/18/4 18/20/4 19/23/4 
f 9/10/5 19/23/5 2/24/5 
f 2/24/5 8/25/5 9/10/5 
f 17/27/5 18/26/5 15/28/5 
f 15/28/5 14/29/5 17/27/5 
f 20/31/3 16/30/3 12/32/3 
f 12/32/3 13/33/3 20/31/3 
f 14/35/6 12/34/6 16/36/6 
f 16/36/6 17/37/6 14/35/6 
f 20/39/2 13/38/2 15/40/2 
f 15/40/2 18/41/2 20/39/2 
f 6/43/6 3/42/6 21/44/6 
f 21/44/6 22/45/6 6/43/6 
f 21/47/4 23/46/4 24/48/4 
f 24/48/4 22/49/4 21/47/4 
f 23/1/5 21/3/5 3/50/5 
f 3/50/5 1/24/5 23/1/5 
f 11/51/2 4/11/2 5/52/2 
f 11/51/2 5/52/2 24/53/2 
f 19/54/2 11/51/2 24/53/2 
f 19/54/2 24/53/2 23/55/2 
f 2/56/2 19/54/2 23/55/2 
f 23/55/2 1/57/2 2/56/2 
f 22/47/3 24/46/3 5/16/3 
f 5/16/3 6/58/3 22/47/3 
g door

v -0.0246 0.1886 0.02 
v -0.0246 0.1886 0.0364 
v -0.2214 0.1886 0.02 
v -0.2214 0.1886 0.0364 
v -0.2214 0.0246 0.02 
v -0.2214 0.0246 0.0364 
v -0.0246 0.0246 0.02 
v -0.0246 0.0246 0.0364 
v -0.2009141 0.07077137 0.02 
v -0.2009141 0.1363714 0.02 
v -0.1804141 0.1363714 0.02 
v -0.1804141 0.07077137 0.02 
v -0.1824641 0.1298114 0.0077 
v -0.1988641 0.1298114 0.0077 
v -0.1824641 0.07733136 0.0077 
v -0.1988641 0.07733136 0.0077 

vn 0 0.8823529 -0.4705883 
vn 0.986394 0 -0.164399 
vn -0.986394 0 -0.164399 
vn 0 -0.8823529 -0.4705883 

vt 4.352074E-14 2.935389E-25 
vt 4.840572E-13 0.6456693 
vt 7.748032 -5.442757E-12 
vt 7.748032 0.6456693 
vt 3.552714E-13 7.593926E-15 
vt 3.552714E-13 6.456693 
vt 0.6456693 7.593926E-15 
vt 0.6456693 6.456693 
vt -7.748032 -5.442757E-12 
vt -4.689582E-13 0.6456693 
vt -7.748032 0.6456693 
vt 6.941501 1.81777 
vt 7.748032 -4.869438E-13 
vt 7.748032 6.456693 
vt 6.941501 4.400448 
vt 6.134414 4.400448 
vt 6.134414 1.81777 
vt 4.476419E-13 6.456693 
vt -3.152759E-25 6.456693 
vt -0.6456693 6.456693 
vt -0.6456693 9.539599E-28 
vt -7.748032 -4.869438E-13 
vt -7.748032 6.456693 
vt -1.539509E-14 2.969934E-26 
vt -4.346153E-13 6.456693 
vt 6.134414 2.070799 
vt 6.941501 2.070799 
vt 6.215123 1.52198 
vt 6.860792 1.52198 
vt 1.499423 4.14218 
vt 1.499423 2.076038 
vt 1.008492 4.400448 
vt 1.008492 1.81777 
vt 0.6502441 4.14218 
vt 1.141176 4.400448 
vt 0.6502441 2.076038 
vt 1.141176 1.81777 
vt 6.860792 2.076038 
vt 6.215123 2.076038 
vt 6.860792 4.14218 
vt 6.215123 4.14218 
vt 6.134414 0.8554214 
vt 6.215123 1.40424 
vt 6.941501 0.8554214 
vt 6.860792 1.40424 

usemtl wood

f 26/60/6 25/59/6 27/61/6 
f 27/61/6 28/62/6 26/60/6 
f 27/64/3 29/63/3 30/65/3 
f 30/65/3 28/66/3 27/64/3 
f 29/67/2 31/10/2 32/68/2 
f 32/68/2 30/69/2 29/67/2 
f 33/70/4 31/10/4 29/71/4 
f 29/71/4 27/72/4 33/70/4 
f 27/72/4 34/73/4 33/70/4 
f 27/72/4 35/74/4 34/73/4 
f 31/10/4 33/70/4 36/75/4 
f 36/75/4 25/76/4 31/10/4 
f 36/75/4 35/74/4 25/76/4 
f 35/74/4 27/72/4 25/76/4 
f 31/10/5 25/77/5 26/78/5 
f 26/78/5 32/79/5 31/10/5 
f 28/81/1 30/80/1 32/82/1 
f 32/82/1 26/83/1 28/81/1 

usemtl metal

f 34/85/7 35/84/7 37/86/7 
f 37/86/7 38/87/7 34/85/7 
f 39/89/8 37/88/8 35/90/8 
f 35/90/8 36/91/8 39/89/8 
f 34/93/9 38/92/9 40/94/9 
f 40/94/9 33/95/9 34/93/9 
f 39/97/4 40/96/4 38/98/4 
f 38/98/4 37/99/4 39/97/4 
f 39/101/10 36/100/10 33/102/10 
f 33/102/10 40/103/10 39/101/10 
