# Created by Kenney (www.kenney.nl) 

mtllib cardboardBoxClosed.mtl 

g cardboardBoxClosed

v 0 0.221 -9.023893E-17 
v 0 0.221 0.2125 
v -0.10625 0.281 -9.023893E-17 
v -0.10625 0.281 0.2125 
v -0.10625 0.251 -9.023893E-17 
v -0.10625 0.251 0.2125 
v -0.2125 0.221 -9.023893E-17 
v -0.2125 0.221 0.2125 
v -0.2125 0 -9.023893E-17 
v -0.2125 0 0.2125 
v -0.12325 0 -9.023893E-17 
v -0.12325 0.0595 -9.023893E-17 
v -0.08925 0.0595 -9.023893E-17 
v 0 0 -9.023893E-17 
v -0.08925 0 -9.023893E-17 
v 0 0 0.2125 
v -0.08925 0 0.2125 
v -0.08925 0.0595 0.2125 
v -0.12325 0.0595 0.2125 
v -0.12325 0 0.2125 

vn 0.4917196 0.8707535 0 
vn -0.4917196 -0.8707535 0 
vn -0.2717291 0.9623738 0 
vn 0.2717291 -0.9623738 0 
vn -1 0 0 
vn 1 0 0 
vn 0 0 -1 
vn 0 0 1 
vn 0 -1 0 
vn 0 1 0 

vt 3.552714E-15 4.278348 
vt -8.366141 4.278348 
vt 3.552714E-15 9.082314 
vt -8.366141 9.082314 
vt -3.658877E-15 -1.340481 
vt 8.366141 -1.340481 
vt -3.765041E-15 -5.687099 
vt 8.366141 -5.687099 
vt -3.552714E-15 0 
vt -3.552714E-15 8.700788 
vt 8.366141 0 
vt 8.366141 8.700788 
vt 4.852362 0 
vt 4.852362 2.34252 
vt 3.51378 2.34252 
vt 0 8.700788 
vt 0 0 
vt 3.51378 0 
vt 3.552714E-15 8.700788 
vt 3.552714E-15 0 
vt -8.366141 8.700788 
vt -8.366141 0 
vt -3.51378 0 
vt -3.51378 2.34252 
vt -4.852362 2.34252 
vt -4.852362 0 
vt -4.852362 8.366141 
vt -4.852362 -3.552714E-15 
vt -8.366141 8.366141 
vt -8.366141 -3.552714E-15 
vt -3.51378 -3.552714E-15 
vt -3.51378 8.366141 
vt 0 -3.552714E-15 
vt 0 8.366141 

usemtl wood

f 2/2/1 1/1/1 3/3/1 
f 3/3/1 4/4/1 2/2/1 
f 2/2/2 3/3/2 1/1/2 
f 3/3/2 2/2/2 4/4/2 
f 6/6/3 5/5/3 7/7/3 
f 7/7/3 8/8/3 6/6/3 
f 6/6/4 7/7/4 5/5/4 
f 7/7/4 6/6/4 8/8/4 
f 7/10/5 9/9/5 10/11/5 
f 10/11/5 8/12/5 7/10/5 
f 7/10/6 10/11/6 9/9/6 
f 10/11/6 7/10/6 8/12/6 
f 11/13/7 9/11/7 7/12/7 
f 7/12/7 12/14/7 11/13/7 
f 7/12/7 13/15/7 12/14/7 
f 13/15/7 7/12/7 1/16/7 
f 13/15/7 1/16/7 14/17/7 
f 14/17/7 15/18/7 13/15/7 
f 11/13/8 7/12/8 9/11/8 
f 7/12/8 11/13/8 12/14/8 
f 7/12/8 12/14/8 13/15/8 
f 13/15/8 1/16/8 7/12/8 
f 13/15/8 14/17/8 1/16/8 
f 14/17/8 13/15/8 15/18/8 
f 15/18/8 12/14/8 11/13/8 
f 12/14/8 15/18/8 13/15/8 
f 14/20/6 1/19/6 2/21/6 
f 2/21/6 16/22/6 14/20/6 
f 14/20/5 2/21/5 1/19/5 
f 2/21/5 14/20/5 16/22/5 
f 17/23/8 16/17/8 2/16/8 
f 2/16/8 18/24/8 17/23/8 
f 2/16/8 19/25/8 18/24/8 
f 19/25/8 2/16/8 8/21/8 
f 19/25/8 8/21/8 10/22/8 
f 10/22/8 20/26/8 19/25/8 
f 17/23/7 2/16/7 16/17/7 
f 2/16/7 17/23/7 18/24/7 
f 2/16/7 18/24/7 19/25/7 
f 19/25/7 8/21/7 2/16/7 
f 19/25/7 10/22/7 8/21/7 
f 10/22/7 19/25/7 20/26/7 
f 11/28/9 20/27/9 10/29/9 
f 10/29/9 9/30/9 11/28/9 
f 20/27/9 11/28/9 15/31/9 
f 15/31/9 17/32/9 20/27/9 
f 17/32/9 15/31/9 14/33/9 
f 14/33/9 16/34/9 17/32/9 
f 11/28/10 10/29/10 20/27/10 
f 10/29/10 11/28/10 9/30/10 
f 17/18/8 19/14/8 20/13/8 
f 19/14/8 17/18/8 18/15/8 
f 14/33/10 17/32/10 16/34/10 
f 17/32/10 14/33/10 15/31/10 

usemtl woodDark

f 17/18/7 20/13/7 19/14/7 
f 19/14/7 18/15/7 17/18/7 
f 15/31/10 20/27/10 17/32/10 
f 20/27/10 15/31/10 11/28/10 
f 15/18/7 11/13/7 12/14/7 
f 12/14/7 13/15/7 15/18/7 
g cardboardBoxClosed




usemtl wood

f 2/2/1 1/1/1 3/3/1 
f 3/3/1 4/4/1 2/2/1 
f 2/2/2 3/3/2 1/1/2 
f 3/3/2 2/2/2 4/4/2 
f 6/6/3 5/5/3 7/7/3 
f 7/7/3 8/8/3 6/6/3 
f 6/6/4 7/7/4 5/5/4 
f 7/7/4 6/6/4 8/8/4 
f 7/10/5 9/9/5 10/11/5 
f 10/11/5 8/12/5 7/10/5 
f 7/10/6 10/11/6 9/9/6 
f 10/11/6 7/10/6 8/12/6 
f 11/13/7 9/11/7 7/12/7 
f 7/12/7 12/14/7 11/13/7 
f 7/12/7 13/15/7 12/14/7 
f 13/15/7 7/12/7 1/16/7 
f 13/15/7 1/16/7 14/17/7 
f 14/17/7 15/18/7 13/15/7 
f 11/13/8 7/12/8 9/11/8 
f 7/12/8 11/13/8 12/14/8 
f 7/12/8 12/14/8 13/15/8 
f 13/15/8 1/16/8 7/12/8 
f 13/15/8 14/17/8 1/16/8 
f 14/17/8 13/15/8 15/18/8 
f 15/18/8 12/14/8 11/13/8 
f 12/14/8 15/18/8 13/15/8 
f 14/20/6 1/19/6 2/21/6 
f 2/21/6 16/22/6 14/20/6 
f 14/20/5 2/21/5 1/19/5 
f 2/21/5 14/20/5 16/22/5 
f 17/23/8 16/17/8 2/16/8 
f 2/16/8 18/24/8 17/23/8 
f 2/16/8 19/25/8 18/24/8 
f 19/25/8 2/16/8 8/21/8 
f 19/25/8 8/21/8 10/22/8 
f 10/22/8 20/26/8 19/25/8 
f 17/23/7 2/16/7 16/17/7 
f 2/16/7 17/23/7 18/24/7 
f 2/16/7 18/24/7 19/25/7 
f 19/25/7 8/21/7 2/16/7 
f 19/25/7 10/22/7 8/21/7 
f 10/22/7 19/25/7 20/26/7 
f 11/28/9 20/27/9 10/29/9 
f 10/29/9 9/30/9 11/28/9 
f 20/27/9 11/28/9 15/31/9 
f 15/31/9 17/32/9 20/27/9 
f 17/32/9 15/31/9 14/33/9 
f 14/33/9 16/34/9 17/32/9 
f 11/28/10 10/29/10 20/27/10 
f 10/29/10 11/28/10 9/30/10 
f 17/18/8 19/14/8 20/13/8 
f 19/14/8 17/18/8 18/15/8 
f 14/33/10 17/32/10 16/34/10 
f 17/32/10 14/33/10 15/31/10 

usemtl woodDark

f 17/18/7 20/13/7 19/14/7 
f 19/14/7 18/15/7 17/18/7 
f 15/31/10 20/27/10 17/32/10 
f 20/27/10 15/31/10 11/28/10 
f 15/18/7 11/13/7 12/14/7 
f 12/14/7 13/15/7 15/18/7 
