# Created by Kenney (www.kenney.nl) 

mtllib computerMouse.mtl 

g computerMouse

v 0.02485 0.01533454 0.02289223 
v 0.012425 0 0 
v 0.02485 0 0.02289223 
v -0.02485 0 0.02289223 
v -0.012425 0 0 
v -0.02485 0.01533454 0.02289223 
v 0.02485 0 0.05955171 
v 0.02432854 0 0.06606784 
v 0.02202458 0 0.07220959 
v 0.01810692 0 0.07752699 
v 0.0128626 0 0.08163042 
v 0.006675864 0 0.08421925 
v -1.443823E-15 0 0.08510379 
v -0.006675864 0 0.08421925 
v -0.0128626 0 0.08163042 
v -0.01810692 0 0.07752699 
v -0.02202458 0 0.07220959 
v -0.02432854 0 0.06606784 
v -0.02485 0 0.05955171 
v 0.02485 0.023572 0.05955171 
v -0.02485 0.023572 0.05955171 
v 0.02432854 0.023572 0.06606784 
v 0.02202458 0.023572 0.07220959 
v 0.01810692 0.023572 0.07752699 
v 0.0128626 0.023572 0.08163042 
v 0.006675864 0.023572 0.08421925 
v -1.443823E-15 0.023572 0.08510379 
v -0.006675864 0.023572 0.08421925 
v -0.0128626 0.023572 0.08163042 
v -0.01810692 0.023572 0.07752699 
v -0.02202458 0.023572 0.07220959 
v -0.02432854 0.023572 0.06606784 

vn 0.878889 0 -0.4770263 
vn -0.878889 0 -0.4770263 
vn 0 0.8308246 -0.5565345 
vn 0 -1 0 
vn 0 0.9756719 -0.2192353 
vn 1 0 0 
vn -1 0 0 
vn 0 1 0 
vn -0.9968132 0 0.07977068 
vn -0.9760346 0 0.2176152 
vn 0.9968132 0 0.07977068 
vn 0.9760346 0 0.2176152 
vn 0.87905 0 0.4767296 
vn 0.7172763 0 0.6967888 
vn 0.505645 0 0.8627416 
vn 0.2609636 0 0.9653486 
vn 0 0 1 
vn -0.2609636 0 0.9653486 
vn -0.505645 0 0.8627416 
vn -0.7172763 0 0.6967888 
vn -0.87905 0 0.4767296 

vt -1.258812 0.6037222 
vt -0.2333485 0 
vt -1.258812 0 
vt 1.258812 2.656802E-17 
vt 0.2333485 2.656802E-17 
vt 1.258812 0.6037222 
vt -0.9783465 1.084789 
vt 0.9783465 1.084789 
vt -0.4891732 1.963002E-18 
vt 0.4891732 -1.963002E-18 
vt 0.9783465 2.344556 
vt 0.9783465 0.901269 
vt 0.9578167 2.601096 
vt 0.4891732 0 
vt 0.8671095 2.842897 
vt 0.7128709 3.052243 
vt 0.5064017 3.213796 
vt 0.2628293 3.315719 
vt -0.4891732 0 
vt -5.684342E-14 3.350543 
vt -0.2628293 3.315719 
vt -0.5064017 3.213796 
vt -0.9783465 0.901269 
vt -0.7128709 3.052243 
vt -0.8671095 2.842897 
vt -0.9578167 2.601096 
vt -0.9783465 2.344556 
vt -0.9783465 1.0117 
vt -0.9783465 2.490975 
vt 0.9783465 1.0117 
vt 0.9783465 2.490975 
vt -0.901269 0.6037222 
vt -0.901269 0 
vt -2.344556 0.9280315 
vt -2.344556 0 
vt 0.901269 0 
vt 0.901269 0.6037222 
vt 2.344556 0 
vt 2.344556 0.9280315 
vt 5.684342E-14 3.350543 
vt 2.259041 -1.02485E-18 
vt 2.259041 0.9280315 
vt 2.516401 -1.02485E-18 
vt 2.516401 0.9280315 
vt -2.259041 0.9280315 
vt -2.259041 -1.02485E-18 
vt -2.516401 0.9280315 
vt -2.516401 -1.02485E-18 
vt -2.098962 0.9280315 
vt -2.098962 0 
vt -2.357217 0.9280315 
vt -2.357217 0 
vt -1.774444 0.9280315 
vt -1.774444 0 
vt -2.034474 0.9280315 
vt -2.034474 0 
vt -1.319461 0 
vt -1.581622 0 
vt -1.319461 0.9280315 
vt -1.581622 0.9280315 
vt -0.7734241 0 
vt -1.037461 0 
vt -0.7734241 0.9280315 
vt -1.037461 0.9280315 
vt -0.1749717 0 
vt -0.4400981 0 
vt -0.1749717 0.9280315 
vt -0.4400981 0.9280315 
vt 0.4400981 0 
vt 0.1749717 0 
vt 0.4400981 0.9280315 
vt 0.1749717 0.9280315 
vt 1.037461 0 
vt 0.7734241 0 
vt 1.037461 0.9280315 
vt 0.7734241 0.9280315 
vt 1.581622 0 
vt 1.319461 0 
vt 1.581622 0.9280315 
vt 1.319461 0.9280315 
vt 1.774444 0 
vt 1.774444 0.9280315 
vt 2.034474 0 
vt 2.034474 0.9280315 
vt 2.098962 0 
vt 2.098962 0.9280315 
vt 2.357217 0 
vt 2.357217 0.9280315 

usemtl metalDark

f 2/2/1 1/1/1 3/3/1 
f 5/5/2 4/4/2 6/6/2 
f 6/8/3 1/7/3 2/9/3 
f 2/9/3 5/10/3 6/8/3 
f 3/12/4 7/11/4 8/13/4 
f 8/13/4 2/14/4 3/12/4 
f 8/13/4 9/15/4 2/14/4 
f 9/15/4 10/16/4 2/14/4 
f 10/16/4 11/17/4 2/14/4 
f 11/17/4 12/18/4 2/14/4 
f 12/18/4 5/19/4 2/14/4 
f 12/18/4 13/20/4 5/19/4 
f 13/20/4 14/21/4 5/19/4 
f 14/21/4 15/22/4 5/19/4 
f 15/22/4 4/23/4 5/19/4 
f 15/22/4 16/24/4 4/23/4 
f 16/24/4 17/25/4 4/23/4 
f 17/25/4 18/26/4 4/23/4 
f 18/26/4 19/27/4 4/23/4 
f 20/29/5 1/28/5 6/30/5 
f 6/30/5 21/31/5 20/29/5 
f 3/33/6 1/32/6 20/34/6 
f 20/34/6 7/35/6 3/33/6 
f 6/37/7 4/36/7 19/38/7 
f 19/38/7 21/39/7 6/37/7 
f 22/26/8 20/27/8 21/11/8 
f 21/11/8 23/25/8 22/26/8 
f 21/11/8 24/24/8 23/25/8 
f 21/11/8 25/22/8 24/24/8 
f 21/11/8 26/21/8 25/22/8 
f 21/11/8 27/40/8 26/21/8 
f 21/11/8 28/18/8 27/40/8 
f 21/11/8 29/17/8 28/18/8 
f 21/11/8 30/16/8 29/17/8 
f 21/11/8 31/15/8 30/16/8 
f 21/11/8 32/13/8 31/15/8 
f 22/26/4 21/11/4 20/27/4 
f 21/11/4 22/26/4 23/25/4 
f 21/11/4 23/25/4 24/24/4 
f 21/11/4 24/24/4 25/22/4 
f 21/11/4 25/22/4 26/21/4 
f 21/11/4 26/21/4 27/40/4 
f 21/11/4 27/40/4 28/18/4 
f 21/11/4 28/18/4 29/17/4 
f 21/11/4 29/17/4 30/16/4 
f 21/11/4 30/16/4 31/15/4 
f 21/11/4 31/15/4 32/13/4 
f 21/42/9 19/41/9 18/43/10 
f 18/43/10 32/44/10 21/42/9 
f 7/46/11 20/45/11 22/47/12 
f 22/47/12 8/48/12 7/46/11 
f 8/50/12 22/49/12 23/51/13 
f 23/51/13 9/52/13 8/50/12 
f 9/54/13 23/53/13 24/55/14 
f 24/55/14 10/56/14 9/54/13 
f 11/58/15 10/57/14 24/59/14 
f 24/59/14 25/60/15 11/58/15 
f 12/62/16 11/61/15 25/63/15 
f 25/63/15 26/64/16 12/62/16 
f 13/66/17 12/65/16 26/67/16 
f 26/67/16 27/68/17 13/66/17 
f 14/70/18 13/69/17 27/71/17 
f 27/71/17 28/72/18 14/70/18 
f 15/74/19 14/73/18 28/75/18 
f 28/75/18 29/76/19 15/74/19 
f 16/78/20 15/77/19 29/79/19 
f 29/79/19 30/80/20 16/78/20 
f 31/82/21 17/81/21 16/83/20 
f 16/83/20 30/84/20 31/82/21 
f 32/86/10 18/85/10 17/87/21 
f 17/87/21 31/88/21 32/86/10 
g computerMouse




usemtl metalDark

f 2/2/1 1/1/1 3/3/1 
f 5/5/2 4/4/2 6/6/2 
f 6/8/3 1/7/3 2/9/3 
f 2/9/3 5/10/3 6/8/3 
f 3/12/4 7/11/4 8/13/4 
f 8/13/4 2/14/4 3/12/4 
f 8/13/4 9/15/4 2/14/4 
f 9/15/4 10/16/4 2/14/4 
f 10/16/4 11/17/4 2/14/4 
f 11/17/4 12/18/4 2/14/4 
f 12/18/4 5/19/4 2/14/4 
f 12/18/4 13/20/4 5/19/4 
f 13/20/4 14/21/4 5/19/4 
f 14/21/4 15/22/4 5/19/4 
f 15/22/4 4/23/4 5/19/4 
f 15/22/4 16/24/4 4/23/4 
f 16/24/4 17/25/4 4/23/4 
f 17/25/4 18/26/4 4/23/4 
f 18/26/4 19/27/4 4/23/4 
f 20/29/5 1/28/5 6/30/5 
f 6/30/5 21/31/5 20/29/5 
f 3/33/6 1/32/6 20/34/6 
f 20/34/6 7/35/6 3/33/6 
f 6/37/7 4/36/7 19/38/7 
f 19/38/7 21/39/7 6/37/7 
f 22/26/8 20/27/8 21/11/8 
f 21/11/8 23/25/8 22/26/8 
f 21/11/8 24/24/8 23/25/8 
f 21/11/8 25/22/8 24/24/8 
f 21/11/8 26/21/8 25/22/8 
f 21/11/8 27/40/8 26/21/8 
f 21/11/8 28/18/8 27/40/8 
f 21/11/8 29/17/8 28/18/8 
f 21/11/8 30/16/8 29/17/8 
f 21/11/8 31/15/8 30/16/8 
f 21/11/8 32/13/8 31/15/8 
f 22/26/4 21/11/4 20/27/4 
f 21/11/4 22/26/4 23/25/4 
f 21/11/4 23/25/4 24/24/4 
f 21/11/4 24/24/4 25/22/4 
f 21/11/4 25/22/4 26/21/4 
f 21/11/4 26/21/4 27/40/4 
f 21/11/4 27/40/4 28/18/4 
f 21/11/4 28/18/4 29/17/4 
f 21/11/4 29/17/4 30/16/4 
f 21/11/4 30/16/4 31/15/4 
f 21/11/4 31/15/4 32/13/4 
f 21/42/9 19/41/9 18/43/10 
f 18/43/10 32/44/10 21/42/9 
f 7/46/11 20/45/11 22/47/12 
f 22/47/12 8/48/12 7/46/11 
f 8/50/12 22/49/12 23/51/13 
f 23/51/13 9/52/13 8/50/12 
f 9/54/13 23/53/13 24/55/14 
f 24/55/14 10/56/14 9/54/13 
f 11/58/15 10/57/14 24/59/14 
f 24/59/14 25/60/15 11/58/15 
f 12/62/16 11/61/15 25/63/15 
f 25/63/15 26/64/16 12/62/16 
f 13/66/17 12/65/16 26/67/16 
f 26/67/16 27/68/17 13/66/17 
f 14/70/18 13/69/17 27/71/17 
f 27/71/17 28/72/18 14/70/18 
f 15/74/19 14/73/18 28/75/18 
f 28/75/18 29/76/19 15/74/19 
f 16/78/20 15/77/19 29/79/19 
f 29/79/19 30/80/20 16/78/20 
f 31/82/21 17/81/21 16/83/20 
f 16/83/20 30/84/20 31/82/21 
f 32/86/10 18/85/10 17/87/21 
f 17/87/21 31/88/21 32/86/10 
