# Created by Kenney (www.kenney.nl) 

mtllib desk.mtl 

g desk

v -0.6844755 0.05 0.33 
v -0.6844755 0.05 0.04 
v -0.7044755 0.05 0.33 
v -0.7044755 0.05 0.04 
v -0.6744754 0 0.04 
v -0.6744754 0 0 
v -0.7144755 0 0.04 
v -0.7144755 0 0 
v -0.7144755 0 0.33 
v -0.7144755 0.3244075 0.33 
v -0.7144755 0 0.37 
v -0.7144755 0.3544075 0.37 
v -0.7144755 0.3244075 0.04 
v -0.7144755 0.3544075 0 
v 0 0.3244075 0.33 
v 0 0.3244075 0.04 
v -0.01 0.3244075 0.33 
v -0.01 0.3244075 0.04 
v 0 0 0.37 
v 0 0 0.33 
v -0.04 0 0.37 
v -0.04 0 0.33 
v -0.04 0 0.36 
v -0.04 0 0.34 
v -0.6744754 0 0.36 
v -0.6744754 0 0.34 
v -0.6744754 0 0.37 
v -0.6744754 0 0.33 
v 0 0 0.04 
v 0 0 0 
v -0.04 0 0.04 
v -0.04 0 0 
v -0.6744754 0.3244075 0 
v -0.6744754 0.3244075 0.04 
v 0.01 0.3844076 -0.01 
v 0.01 0.3844076 0.38 
v -0.7244754 0.3844076 -0.01 
v -0.7244754 0.3844076 0.38 
v 0 0.3544075 0 
v 0 0.3544075 0.37 
v -0.7244754 0.3544075 -0.01 
v 0.01 0.3544075 -0.01 
v 0.01 0.3544075 0.38 
v -0.7244754 0.3544075 0.38 
v -0.01 0.05 0.33 
v -0.01 0.05 0.04 
v -0.03 0.05 0.33 
v -0.03 0.05 0.04 
v -0.6844755 0.3244075 0.04 
v -0.6844755 0.3244075 0.33 
v -0.7044755 0.3244075 0.33 
v -0.6744754 0.3244075 0.33 
v -0.7044755 0.3244075 0.04 
v -0.04 0.3244075 0.37 
v -0.6744754 0.3244075 0.37 
v -0.04 0.2444076 0 
v -0.04 0.2444076 0.04 
v -0.04 0.3244075 0.33 
v -0.03 0.3244075 0.33 
v -0.03 0.2444076 0.04 
v -0.6744754 0.3244075 0.36 
v -0.04 0.3244075 0.36 
v -0.6744754 0.3244075 0.34 
v -0.04 0.3244075 0.34 
v -0.04 0.3244075 0.164 
v -0.04 0.3244075 0 
v -0.2368 0.3244075 0.164 
v -0.2368 0.3244075 7.219114E-16 
v -0.03 0.2444076 0.194 
v -0.03 0.3244075 0.194 
v -0.2668 0.3244075 7.219114E-16 
v -0.2668 0.3244075 0.194 
v -0.2668 0.2444076 0.194 
v -0.2668 0.2444076 7.219114E-16 
v -0.04 0.2744075 0 
v -0.04 0.2744075 0.04 
v -0.2368 0.2744075 7.219114E-16 
v -0.04 0.2744075 0.164 
v -0.2368 0.2744075 0.164 

vn 0 -1 0 
vn -1 0 0 
vn 1 0 0 
vn 0 1 0 
vn 0 0 -1 
vn 0 0 1 

vt -26.94785 12.99213 
vt -26.94785 1.574803 
vt -27.73525 12.99213 
vt -27.73525 1.574803 
vt -26.55415 1.574803 
vt -26.55415 0 
vt -28.12896 1.574803 
vt -28.12896 0 
vt 12.99213 -1.621613E-14 
vt 12.99213 12.77195 
vt 14.56693 -1.621613E-14 
vt 14.56693 13.95305 
vt 1.574803 12.77195 
vt -1.699875E-14 13.95305 
vt 1.574803 -1.621613E-14 
vt -1.699875E-14 -1.621613E-14 
vt 2.881318E-13 12.99213 
vt 2.881318E-13 1.574803 
vt -0.3937008 12.99213 
vt -0.3937008 1.574803 
vt 0 14.56693 
vt 0 12.99213 
vt -1.574803 14.56693 
vt -1.574803 12.99213 
vt -1.574803 14.17323 
vt -1.574803 13.38583 
vt -26.55415 14.17323 
vt -26.55415 13.38583 
vt -28.12896 14.56693 
vt -26.55415 14.56693 
vt -26.55415 12.99213 
vt -28.12896 12.99213 
vt 0 1.574803 
vt 0 0 
vt -1.574803 1.574803 
vt -1.574803 0 
vt 0 12.77195 
vt -1.574803 12.77195 
vt -0.3937008 -0.3937008 
vt -0.3937008 14.96063 
vt 28.52266 -0.3937008 
vt 28.52266 14.96063 
vt 0 13.95305 
vt -14.56693 13.95305 
vt -12.99213 12.77195 
vt -12.99213 0 
vt -14.56693 0 
vt 28.52266 13.95305 
vt -0.3937008 13.95305 
vt 28.52266 15.13416 
vt -0.3937008 15.13416 
vt 0.3937008 15.13416 
vt 0.3937008 13.95305 
vt -14.96063 15.13416 
vt -14.96063 13.95305 
vt 0.3937008 -0.3937008 
vt 0.3937008 14.96063 
vt -28.52266 14.96063 
vt -28.52266 -0.3937008 
vt 14.96063 13.95305 
vt 14.96063 15.13416 
vt -28.52266 13.95305 
vt -28.52266 15.13416 
vt -1.181102 12.99213 
vt -1.181102 1.574803 
vt -1.574803 1.968504 
vt -12.99213 1.968504 
vt 26.55415 0 
vt 27.73525 1.968504 
vt 28.12896 0 
vt 28.12896 12.77195 
vt 27.73525 12.77195 
vt 26.94785 1.968504 
vt 26.55415 12.77195 
vt 26.94785 12.77195 
vt 1.574803 1.968504 
vt 12.99213 1.968504 
vt -28.12896 -2.340526E-16 
vt -26.94785 1.968504 
vt -26.55415 -2.340526E-16 
vt -26.55415 12.77195 
vt -26.94785 12.77195 
vt -27.73525 1.968504 
vt -28.12896 12.77195 
vt -27.73525 12.77195 
vt -28.12896 13.95305 
vt 0 9.622345 
vt 1.574803 0 
vt 1.574803 9.622345 
vt -3.883294E-27 -1.930934E-14 
vt 1.181102 1.968504 
vt 1.574803 -1.930934E-14 
vt 1.181102 12.77195 
vt 0.3937008 1.968504 
vt -3.883294E-27 12.77195 
vt 0.3937008 12.77195 
vt -1.574803 -4.657556E-16 
vt -0.3937008 1.968504 
vt 1.764447E-15 -4.657556E-16 
vt 1.764447E-15 12.77195 
vt -0.3937008 12.77195 
vt -1.181102 1.968504 
vt -1.574803 9.622345 
vt -1.181102 9.622345 
vt -14.17323 12.77195 
vt -14.17323 0 
vt -14.56693 12.77195 
vt 14.17323 0 
vt 14.17323 12.77195 
vt 14.56693 0 
vt 14.56693 12.77195 
vt -13.38583 12.77195 
vt -13.38583 0 
vt 12.99213 0 
vt 13.38583 0 
vt 13.38583 12.77195 
vt -1.574803 6.456693 
vt -1.574803 -1.826997E-14 
vt -9.322835 6.456693 
vt -9.322835 1.015174E-14 
vt 7.637795 9.622345 
vt 7.637795 12.77195 
vt -26.55415 8.253525E-15 
vt -10.50394 3.667524E-14 
vt -10.50394 7.637795 
vt -1.181102 7.637795 
vt -10.50394 9.622345 
vt -1.181102 12.77195 
vt -10.50394 12.77195 
vt 4.748185E-14 9.622345 
vt 4.748185E-14 12.77195 
vt 1.574803 1.574803 
vt 9.322835 2.842171E-14 
vt 1.574803 6.456693 
vt 9.322835 6.456693 
vt -1.574803 5.06901E-15 
vt -10.50394 3.349072E-14 
vt 0 10.80345 
vt 1.574803 10.80345 
vt 6.456693 12.77195 
vt 6.456693 10.80345 
vt -4.89408E-14 12.77195 
vt -4.89408E-14 10.80345 
vt -6.456693 12.77195 
vt -6.456693 10.80345 
vt 9.322835 10.80345 
vt 9.322835 12.77195 
vt 28.12896 2.849205E-30 
vt 26.55415 2.689692E-30 
vt 28.12896 13.95305 
vt 1.574803 1.595131E-31 
vt 10.50394 9.622345 
vt 10.50394 12.77195 

usemtl wood

f 2/2/1 1/1/1 3/3/1 
f 3/3/1 4/4/1 2/2/1 
f 6/6/1 5/5/1 7/7/1 
f 7/7/1 8/8/1 6/6/1 
f 10/10/2 9/9/2 11/11/2 
f 10/10/2 11/11/2 12/12/2 
f 13/13/2 10/10/2 12/12/2 
f 13/13/2 12/12/2 14/14/2 
f 7/15/2 13/13/2 14/14/2 
f 14/14/2 8/16/2 7/15/2 
f 16/18/1 15/17/1 17/19/1 
f 17/19/1 18/20/1 16/18/1 
f 20/22/1 19/21/1 21/23/1 
f 21/23/1 22/24/1 20/22/1 
f 21/23/1 23/25/1 22/24/1 
f 23/25/1 24/26/1 22/24/1 
f 24/26/1 23/25/1 25/27/1 
f 25/27/1 26/28/1 24/26/1 
f 11/29/1 26/28/1 25/27/1 
f 25/27/1 27/30/1 11/29/1 
f 11/29/1 28/31/1 26/28/1 
f 11/29/1 9/32/1 28/31/1 
f 30/34/1 29/33/1 31/35/1 
f 31/35/1 32/36/1 30/34/1 
f 6/34/3 33/37/3 34/38/3 
f 34/38/3 5/36/3 6/34/3 
f 36/40/4 35/39/4 37/41/4 
f 37/41/4 38/42/4 36/40/4 
f 30/34/3 16/38/3 29/36/3 
f 16/38/3 30/34/3 39/43/3 
f 39/43/3 40/44/3 16/38/3 
f 40/44/3 15/45/3 16/38/3 
f 40/44/3 20/46/3 15/45/3 
f 40/44/3 19/47/3 20/46/3 
f 42/49/5 41/48/5 37/50/5 
f 37/50/5 35/51/5 42/49/5 
f 42/53/3 35/52/3 36/54/3 
f 36/54/3 43/55/3 42/53/3 
f 40/21/1 42/56/1 43/57/1 
f 43/57/1 44/58/1 40/21/1 
f 44/58/1 12/29/1 40/21/1 
f 44/58/1 14/8/1 12/29/1 
f 42/56/1 40/21/1 39/34/1 
f 39/34/1 41/59/1 42/56/1 
f 39/34/1 14/8/1 41/59/1 
f 14/8/1 44/58/1 41/59/1 
f 37/51/2 41/49/2 44/60/2 
f 44/60/2 38/61/2 37/51/2 
f 44/62/6 43/53/6 36/52/6 
f 36/52/6 38/63/6 44/62/6 
f 46/20/1 45/19/1 47/64/1 
f 47/64/1 48/65/1 46/20/1 
f 2/66/3 49/38/3 50/45/3 
f 50/45/3 1/67/3 2/66/3 
f 3/69/5 28/68/5 9/70/5 
f 9/70/5 10/71/5 3/69/5 
f 10/71/5 51/72/5 3/69/5 
f 28/68/5 3/69/5 1/73/5 
f 1/73/5 52/74/5 28/68/5 
f 1/73/5 50/75/5 52/74/5 
f 53/13/2 4/76/2 3/77/2 
f 3/77/2 51/10/2 53/13/2 
f 2/79/6 7/78/6 5/80/6 
f 5/80/6 34/81/6 2/79/6 
f 34/81/6 49/82/6 2/79/6 
f 7/78/6 2/79/6 4/83/6 
f 4/83/6 13/84/6 7/78/6 
f 4/83/6 53/85/6 13/84/6 
f 21/36/6 19/34/6 40/43/6 
f 40/43/6 54/38/6 21/36/6 
f 40/43/6 55/81/6 54/38/6 
f 55/81/6 40/43/6 12/86/6 
f 55/81/6 12/86/6 11/8/6 
f 11/8/6 27/6/6 55/81/6 
f 56/87/2 32/34/2 31/88/2 
f 31/88/2 57/89/2 56/87/2 
f 47/91/5 20/90/5 22/92/5 
f 22/92/5 58/13/5 47/91/5 
f 58/13/5 59/93/5 47/91/5 
f 20/90/5 47/91/5 45/94/5 
f 45/94/5 15/95/5 20/90/5 
f 45/94/5 17/96/5 15/95/5 
f 46/66/3 18/38/3 17/45/3 
f 17/45/3 45/67/3 46/66/3 
f 46/98/6 31/97/6 29/99/6 
f 29/99/6 16/100/6 46/98/6 
f 16/100/6 18/101/6 46/98/6 
f 31/97/6 46/98/6 48/102/6 
f 48/102/6 57/103/6 31/97/6 
f 48/102/6 60/104/6 57/103/6 
f 25/106/3 61/105/3 55/107/3 
f 55/107/3 27/47/3 25/106/3 
f 62/109/2 23/108/2 21/110/2 
f 21/110/2 54/111/2 62/109/2 
f 62/25/1 54/23/1 55/30/1 
f 55/30/1 61/27/1 62/25/1 
f 25/6/6 23/36/6 62/38/6 
f 62/38/6 61/81/6 25/6/6 
f 24/88/5 26/68/5 63/74/5 
f 63/74/5 64/13/5 24/88/5 
f 28/46/3 52/45/3 63/112/3 
f 63/112/3 26/113/3 28/46/3 
f 58/10/2 22/114/2 24/115/2 
f 24/115/2 64/116/2 58/10/2 
f 66/118/1 65/117/1 67/119/1 
f 67/119/1 68/120/1 66/118/1 
f 53/4/1 51/3/1 10/32/1 
f 10/32/1 13/7/1 53/4/1 
f 60/89/2 48/76/2 47/77/2 
f 47/77/2 69/121/2 60/89/2 
f 47/77/2 70/122/2 69/121/2 
f 47/77/2 59/10/2 70/122/2 
f 34/5/1 52/31/1 50/1/1 
f 50/1/1 49/2/1 34/5/1 
f 52/31/1 34/5/1 33/123/1 
f 63/28/1 52/31/1 33/123/1 
f 63/28/1 33/123/1 71/124/1 
f 63/28/1 71/124/1 72/125/1 
f 63/28/1 72/125/1 58/24/1 
f 58/24/1 64/26/1 63/28/1 
f 58/24/1 72/125/1 70/126/1 
f 70/126/1 59/64/1 58/24/1 
f 73/127/6 69/104/6 70/128/6 
f 70/128/6 72/129/6 73/127/6 
f 71/131/2 74/130/2 73/121/2 
f 73/121/2 72/122/2 71/131/2 
f 76/132/4 75/88/4 77/133/4 
f 77/133/4 78/134/4 76/132/4 
f 77/133/4 79/135/4 78/134/4 
f 60/65/1 69/126/1 73/125/1 
f 73/125/1 57/35/1 60/65/1 
f 73/125/1 56/136/1 57/35/1 
f 73/125/1 74/137/1 56/136/1 
f 66/37/2 75/138/2 76/139/2 
f 76/139/2 65/140/2 66/37/2 
f 76/139/2 78/141/2 65/140/2 
f 77/143/3 68/142/3 67/144/3 
f 67/144/3 79/145/3 77/143/3 
f 78/139/5 79/146/5 67/147/5 
f 67/147/5 65/13/5 78/139/5 
f 6/149/5 8/148/5 14/150/5 
f 14/150/5 33/74/5 6/149/5 
f 14/150/5 68/147/5 33/74/5 
f 14/150/5 66/13/5 68/147/5 
f 66/13/5 14/150/5 39/43/5 
f 75/139/5 66/13/5 39/43/5 
f 56/89/5 75/139/5 39/43/5 
f 56/89/5 39/43/5 30/34/5 
f 30/34/5 32/151/5 56/89/5 
f 56/89/5 77/146/5 75/139/5 
f 77/146/5 56/89/5 74/152/5 
f 74/152/5 71/153/5 77/146/5 
f 71/153/5 68/147/5 77/146/5 
f 71/153/5 33/74/5 68/147/5 
g desk




usemtl wood

f 2/2/1 1/1/1 3/3/1 
f 3/3/1 4/4/1 2/2/1 
f 6/6/1 5/5/1 7/7/1 
f 7/7/1 8/8/1 6/6/1 
f 10/10/2 9/9/2 11/11/2 
f 10/10/2 11/11/2 12/12/2 
f 13/13/2 10/10/2 12/12/2 
f 13/13/2 12/12/2 14/14/2 
f 7/15/2 13/13/2 14/14/2 
f 14/14/2 8/16/2 7/15/2 
f 16/18/1 15/17/1 17/19/1 
f 17/19/1 18/20/1 16/18/1 
f 20/22/1 19/21/1 21/23/1 
f 21/23/1 22/24/1 20/22/1 
f 21/23/1 23/25/1 22/24/1 
f 23/25/1 24/26/1 22/24/1 
f 24/26/1 23/25/1 25/27/1 
f 25/27/1 26/28/1 24/26/1 
f 11/29/1 26/28/1 25/27/1 
f 25/27/1 27/30/1 11/29/1 
f 11/29/1 28/31/1 26/28/1 
f 11/29/1 9/32/1 28/31/1 
f 30/34/1 29/33/1 31/35/1 
f 31/35/1 32/36/1 30/34/1 
f 6/34/3 33/37/3 34/38/3 
f 34/38/3 5/36/3 6/34/3 
f 36/40/4 35/39/4 37/41/4 
f 37/41/4 38/42/4 36/40/4 
f 30/34/3 16/38/3 29/36/3 
f 16/38/3 30/34/3 39/43/3 
f 39/43/3 40/44/3 16/38/3 
f 40/44/3 15/45/3 16/38/3 
f 40/44/3 20/46/3 15/45/3 
f 40/44/3 19/47/3 20/46/3 
f 42/49/5 41/48/5 37/50/5 
f 37/50/5 35/51/5 42/49/5 
f 42/53/3 35/52/3 36/54/3 
f 36/54/3 43/55/3 42/53/3 
f 40/21/1 42/56/1 43/57/1 
f 43/57/1 44/58/1 40/21/1 
f 44/58/1 12/29/1 40/21/1 
f 44/58/1 14/8/1 12/29/1 
f 42/56/1 40/21/1 39/34/1 
f 39/34/1 41/59/1 42/56/1 
f 39/34/1 14/8/1 41/59/1 
f 14/8/1 44/58/1 41/59/1 
f 37/51/2 41/49/2 44/60/2 
f 44/60/2 38/61/2 37/51/2 
f 44/62/6 43/53/6 36/52/6 
f 36/52/6 38/63/6 44/62/6 
f 46/20/1 45/19/1 47/64/1 
f 47/64/1 48/65/1 46/20/1 
f 2/66/3 49/38/3 50/45/3 
f 50/45/3 1/67/3 2/66/3 
f 3/69/5 28/68/5 9/70/5 
f 9/70/5 10/71/5 3/69/5 
f 10/71/5 51/72/5 3/69/5 
f 28/68/5 3/69/5 1/73/5 
f 1/73/5 52/74/5 28/68/5 
f 1/73/5 50/75/5 52/74/5 
f 53/13/2 4/76/2 3/77/2 
f 3/77/2 51/10/2 53/13/2 
f 2/79/6 7/78/6 5/80/6 
f 5/80/6 34/81/6 2/79/6 
f 34/81/6 49/82/6 2/79/6 
f 7/78/6 2/79/6 4/83/6 
f 4/83/6 13/84/6 7/78/6 
f 4/83/6 53/85/6 13/84/6 
f 21/36/6 19/34/6 40/43/6 
f 40/43/6 54/38/6 21/36/6 
f 40/43/6 55/81/6 54/38/6 
f 55/81/6 40/43/6 12/86/6 
f 55/81/6 12/86/6 11/8/6 
f 11/8/6 27/6/6 55/81/6 
f 56/87/2 32/34/2 31/88/2 
f 31/88/2 57/89/2 56/87/2 
f 47/91/5 20/90/5 22/92/5 
f 22/92/5 58/13/5 47/91/5 
f 58/13/5 59/93/5 47/91/5 
f 20/90/5 47/91/5 45/94/5 
f 45/94/5 15/95/5 20/90/5 
f 45/94/5 17/96/5 15/95/5 
f 46/66/3 18/38/3 17/45/3 
f 17/45/3 45/67/3 46/66/3 
f 46/98/6 31/97/6 29/99/6 
f 29/99/6 16/100/6 46/98/6 
f 16/100/6 18/101/6 46/98/6 
f 31/97/6 46/98/6 48/102/6 
f 48/102/6 57/103/6 31/97/6 
f 48/102/6 60/104/6 57/103/6 
f 25/106/3 61/105/3 55/107/3 
f 55/107/3 27/47/3 25/106/3 
f 62/109/2 23/108/2 21/110/2 
f 21/110/2 54/111/2 62/109/2 
f 62/25/1 54/23/1 55/30/1 
f 55/30/1 61/27/1 62/25/1 
f 25/6/6 23/36/6 62/38/6 
f 62/38/6 61/81/6 25/6/6 
f 24/88/5 26/68/5 63/74/5 
f 63/74/5 64/13/5 24/88/5 
f 28/46/3 52/45/3 63/112/3 
f 63/112/3 26/113/3 28/46/3 
f 58/10/2 22/114/2 24/115/2 
f 24/115/2 64/116/2 58/10/2 
f 66/118/1 65/117/1 67/119/1 
f 67/119/1 68/120/1 66/118/1 
f 53/4/1 51/3/1 10/32/1 
f 10/32/1 13/7/1 53/4/1 
f 60/89/2 48/76/2 47/77/2 
f 47/77/2 69/121/2 60/89/2 
f 47/77/2 70/122/2 69/121/2 
f 47/77/2 59/10/2 70/122/2 
f 34/5/1 52/31/1 50/1/1 
f 50/1/1 49/2/1 34/5/1 
f 52/31/1 34/5/1 33/123/1 
f 63/28/1 52/31/1 33/123/1 
f 63/28/1 33/123/1 71/124/1 
f 63/28/1 71/124/1 72/125/1 
f 63/28/1 72/125/1 58/24/1 
f 58/24/1 64/26/1 63/28/1 
f 58/24/1 72/125/1 70/126/1 
f 70/126/1 59/64/1 58/24/1 
f 73/127/6 69/104/6 70/128/6 
f 70/128/6 72/129/6 73/127/6 
f 71/131/2 74/130/2 73/121/2 
f 73/121/2 72/122/2 71/131/2 
f 76/132/4 75/88/4 77/133/4 
f 77/133/4 78/134/4 76/132/4 
f 77/133/4 79/135/4 78/134/4 
f 60/65/1 69/126/1 73/125/1 
f 73/125/1 57/35/1 60/65/1 
f 73/125/1 56/136/1 57/35/1 
f 73/125/1 74/137/1 56/136/1 
f 66/37/2 75/138/2 76/139/2 
f 76/139/2 65/140/2 66/37/2 
f 76/139/2 78/141/2 65/140/2 
f 77/143/3 68/142/3 67/144/3 
f 67/144/3 79/145/3 77/143/3 
f 78/139/5 79/146/5 67/147/5 
f 67/147/5 65/13/5 78/139/5 
f 6/149/5 8/148/5 14/150/5 
f 14/150/5 33/74/5 6/149/5 
f 14/150/5 68/147/5 33/74/5 
f 14/150/5 66/13/5 68/147/5 
f 66/13/5 14/150/5 39/43/5 
f 75/139/5 66/13/5 39/43/5 
f 56/89/5 75/139/5 39/43/5 
f 56/89/5 39/43/5 30/34/5 
f 30/34/5 32/151/5 56/89/5 
f 56/89/5 77/146/5 75/139/5 
f 77/146/5 56/89/5 74/152/5 
f 74/152/5 71/153/5 77/146/5 
f 71/153/5 68/147/5 77/146/5 
f 71/153/5 33/74/5 68/147/5 
g drawer

v -0.04 0.2744076 0.164 
v -0.2368 0.2744076 0.164 
v -0.04 0.3244076 0.164 
v -0.2368 0.3244076 0.164 
v -0.04 0.2744076 0 
v -0.1612 0.2891576 0 
v -0.2368 0.2744076 0 
v -0.2368 0.3244076 0 
v -0.1612 0.3096576 0 
v -0.1156 0.3096576 0 
v -0.1156 0.2891576 0 
v -0.04 0.3244076 0 
v -0.06032898 0.3244076 0.143671 
v -0.06032898 0.3244076 0.02032898 
v -0.216471 0.3244076 0.02032898 
v -0.216471 0.3244076 0.143671 
v -0.06032898 0.2844076 0.143671 
v -0.216471 0.2844076 0.143671 
v -0.06032898 0.2844076 0.02032898 
v -0.216471 0.2844076 0.02032898 
v -0.12216 0.2912076 -0.0123 
v -0.12216 0.3076076 -0.0123 
v -0.15464 0.2912076 -0.0123 
v -0.15464 0.3076076 -0.0123 

vn 0.8823529 0 -0.4705883 
vn -0.8823529 0 -0.4705883 
vn 0 0.986394 -0.164399 
vn 0 -0.986394 -0.164399 

vt 0 0.01537871 
vt -7.748032 0.01537871 
vt 0 1.983883 
vt -7.748032 1.983883 
vt 1.184238E-15 0.01537871 
vt 4.771654 0.5960874 
vt 7.748032 0.01537871 
vt 7.748032 1.983883 
vt 4.771654 1.403174 
vt 2.976378 1.403174 
vt 2.976378 0.5960874 
vt 1.184238E-15 1.983883 
vt 6.456693 1.983883 
vt 6.456693 0.01537871 
vt -2.4869E-14 -6.456693 
vt -7.748032 2.842171E-14 
vt -7.748032 -6.456693 
vt -6.456693 0.01537871 
vt -6.456693 1.983883 
vt -1.421085E-15 0.01537871 
vt -1.421085E-15 1.983883 
vt 0.8003536 -0.8003536 
vt 0.8003536 -5.656339 
vt 2.4869E-14 -6.456693 
vt 7.748032 -6.456693 
vt 6.947678 -5.656339 
vt 7.748032 2.842171E-14 
vt 6.947678 -0.8003536 
vt 5.656339 1.983883 
vt 5.656339 0.4090795 
vt 0.8003536 1.983883 
vt 0.8003536 0.4090795 
vt 6.947678 0.4090795 
vt 6.947678 1.983883 
vt -5.656339 0.4090795 
vt -5.656339 1.983883 
vt -0.8003536 0.4090795 
vt -0.8003536 1.983883 
vt -6.947678 0.4090795 
vt -6.947678 1.983883 
vt 7.646549 0.676796 
vt 7.097731 0.5960873 
vt 7.646549 1.322465 
vt 7.097731 1.403174 
vt -4.000417 0.676796 
vt -4.000417 1.322465 
vt -3.451598 0.5960873 
vt -3.451598 1.403174 
vt 2.976378 -6.138162 
vt 4.771654 -6.138162 
vt 3.234646 -6.629094 
vt 4.513386 -6.629094 
vt 2.976378 6.466839 
vt 3.234646 6.95777 
vt 4.771654 6.466839 
vt 4.513386 6.95777 
vt 4.513386 0.676796 
vt 3.234646 0.676796 
vt 4.513386 1.322465 
vt 3.234646 1.322465 

usemtl wood

f 81/155/6 80/154/6 82/156/6 
f 82/156/6 83/157/6 81/155/6 
f 85/159/5 84/158/5 86/160/5 
f 86/160/5 87/161/5 85/159/5 
f 87/161/5 88/162/5 85/159/5 
f 87/161/5 89/163/5 88/162/5 
f 84/158/5 85/159/5 90/164/5 
f 90/164/5 91/165/5 84/158/5 
f 90/164/5 89/163/5 91/165/5 
f 89/163/5 87/161/5 91/165/5 
f 84/167/3 91/166/3 82/156/3 
f 82/156/3 80/154/3 84/167/3 
f 84/168/1 80/34/1 81/169/1 
f 81/169/1 86/170/1 84/168/1 
f 87/172/2 86/171/2 81/173/2 
f 81/173/2 83/174/2 87/172/2 
f 93/176/4 92/175/4 91/177/4 
f 91/177/4 87/178/4 93/176/4 
f 87/178/4 94/179/4 93/176/4 
f 87/178/4 83/180/4 94/179/4 
f 92/175/4 83/180/4 82/34/4 
f 82/34/4 91/177/4 92/175/4 
f 92/175/4 95/181/4 83/180/4 
f 95/181/4 94/179/4 83/180/4 
f 97/181/4 96/175/4 98/176/4 
f 98/176/4 99/179/4 97/181/4 
f 99/183/3 94/182/3 95/184/3 
f 95/184/3 97/185/3 99/183/3 
f 96/185/5 97/186/5 95/187/5 
f 95/187/5 92/184/5 96/185/5 
f 93/189/2 98/188/2 96/190/2 
f 96/190/2 92/191/2 93/189/2 
f 99/192/6 98/190/6 93/191/6 
f 93/191/6 94/193/6 99/192/6 

usemtl metal

f 90/195/7 100/194/7 101/196/7 
f 101/196/7 89/197/7 90/195/7 
f 103/199/8 102/198/8 85/200/8 
f 85/200/8 88/201/8 103/199/8 
f 88/203/9 89/202/9 101/204/9 
f 101/204/9 103/205/9 88/203/9 
f 100/207/10 90/206/10 85/208/10 
f 85/208/10 102/209/10 100/207/10 
f 100/211/5 102/210/5 103/212/5 
f 103/212/5 101/213/5 100/211/5 
