# Created by Kenney (www.kenney.nl) 

mtllib deskCorner.mtl 

g deskCorner

v -0.9244754 0 0.05 
v -0.9344755 0 0.05 
v -0.9244754 0.3244075 0.05 
v -0.9344755 0.3244075 0.05 
v -0.9544755 0.3244075 0.9244754 
v -0.9544755 0.3244075 0.05 
v -0.9644754 0.3244075 0.9244754 
v -0.9644754 0.3244075 0.05 
v -0.9544755 0 0.05 
v -0.9644754 0 0.05 
v -0.9344754 4.511947E-16 0.9244754 
v -0.9244754 4.511947E-16 0.9244754 
v -0.9344754 0.3244075 0.9244754 
v -0.9244754 0.3244075 0.9244754 
v -0.07032898 0.3244075 0.7381465 
v -0.07032898 0.3244075 0.6148044 
v -0.226471 0.3244075 0.7381465 
v -0.226471 0.3244075 0.6148044 
v -0.2468 0.3244075 0.7584754 
v -0.05 0.3244075 0.7584754 
v -0.05 0.3244075 0.5944755 
v -0.2468 0.3244075 0.5944755 
v -0.9244754 0 0.01000001 
v -0.9644754 0 0.01000001 
v -0.9544755 4.511947E-16 0.9244754 
v -0.9644754 4.511947E-16 0.9644754 
v -0.9244754 4.624745E-16 0.9344755 
v -0.9244754 4.624745E-16 0.9544755 
v -0.9244754 4.511947E-16 0.9644754 
v -0.9644754 4.511947E-16 0.9244754 
v -0.05 0 0.9344754 
v -0.05 0 0.9544755 
v -0.6344755 0.3244075 0.02 
v -0.6344755 0.3244075 0.01 
v -0.9244754 0.3244075 0.02000001 
v -0.9244754 0.3244075 0.01000001 
v 0 0.3544075 0.5844755 
v -0.01 0.3544075 0.9644754 
v 0 0.3544075 0.9744755 
v -0.9744755 0.3544075 0.9744755 
v -0.9644754 0.3544075 0.9644754 
v -0.9644754 0.3544075 0.01000001 
v -0.01 0.3544075 0.5944755 
v -0.5844755 0.3544075 0.5844755 
v -0.5944755 0.3544075 0.5944755 
v -0.5844755 0.3544075 0 
v -0.5944755 0.3544075 0.01 
v -0.9744755 0.3544075 5.811533E-09 
v -0.01 0.3244075 0.9244754 
v -0.01 0.3244075 0.6344755 
v -0.02 0.3244075 0.9244754 
v -0.02 0.3244075 0.6344755 
v -0.01 0 0.9644754 
v -0.01 0 0.9244754 
v -0.05 0 0.9644754 
v -0.05 0 0.9244754 
v 0 0.3844076 0.5844755 
v 0 0.3844076 0.9744755 
v -0.6344755 0.05 0.04 
v -0.9244754 0.05 0.04 
v -0.6344755 0.3244075 0.04 
v -0.9244754 0.3244075 0.04 
v -0.05 0.3244075 0.9644754 
v -0.05 0.3244075 0.9544755 
v -0.9244754 0.3244075 0.9644754 
v -0.9244754 0.3244075 0.9544755 
v -0.04 0.2444076 0.7884755 
v -0.2768 0.2444076 0.7884755 
v -0.04 0.3244075 0.7884755 
v -0.2768 0.3244075 0.7884755 
v -0.05 0.2744075 0.5944755 
v -0.05 0.2744075 0.6344755 
v -0.2468 0.2744075 0.5944755 
v -0.05 0.2744075 0.7584754 
v -0.2468 0.2744075 0.7584754 
v -0.5944755 0 0.05 
v -0.5944755 0 0.01 
v -0.6344755 0 0.05 
v -0.6344755 0 0.01 
v -0.9744755 0.3844076 5.811533E-09 
v -0.9744755 0.3844076 0.9744755 
v -0.5944755 0.3244075 0.05 
v -0.6344755 0.3244075 0.05 
v -0.5844755 0.3844076 0 
v -0.9244754 0.3244075 0.9344755 
v -0.05 0 0.5944755 
v -0.05 0.2444076 0.5944755 
v -0.05 0 0.6344755 
v -0.05 0.2444076 0.6344755 
v -0.04 0.2444076 0.6344755 
v -0.2768 0.2444076 0.5944755 
v -0.9244754 0.05 0.02000001 
v -0.5844755 0.3844076 0.5844755 
v -0.6344755 0.05 0.02 
v -0.01 0 0.6344755 
v -0.01 0 0.5944755 
v -0.02 0.05 0.6344755 
v -0.02 0.05 0.9244754 
v -0.04 0.05 0.6344755 
v -0.5944755 0.3244075 0.5944755 
v -0.2768 0.3244075 0.5944755 
v -0.05 0.3244075 0.9244754 
v -0.05 0.3244075 0.9344754 
v -0.04 0.3244075 0.9244754 
v -0.04 0.05 0.9244754 

vn 0 0 1 
vn 0 -1 0 
vn 0 0 -1 
vn -1 0 0 
vn 1 0 0 
vn 0 1 0 

vt -36.39667 0 
vt -36.79037 0 
vt -36.39667 12.77195 
vt -36.79037 12.77195 
vt -37.57777 36.39667 
vt -37.57777 1.968504 
vt -37.97147 36.39667 
vt -37.97147 1.968504 
vt -37.57777 0 
vt -37.97147 0 
vt -37.57777 12.77195 
vt -37.97147 12.77195 
vt 36.79037 1.776357E-14 
vt 36.39667 1.776357E-14 
vt 36.79037 12.77195 
vt 36.39667 12.77195 
vt -2.768857 29.06088 
vt -2.768857 24.2049 
vt -8.916182 29.06088 
vt -8.916182 24.2049 
vt -9.716536 29.86124 
vt -1.968504 29.86124 
vt -1.968504 23.40455 
vt -9.716536 23.40455 
vt -36.39667 1.968504 
vt -36.39667 0.393701 
vt -36.79037 1.968504 
vt -37.97147 0.393701 
vt -36.79037 36.39667 
vt -37.97147 37.97147 
vt -36.39667 36.39667 
vt -36.39667 36.79037 
vt -36.39667 37.57777 
vt -36.39667 37.97147 
vt -1.968504 36.79037 
vt -1.968504 37.57777 
vt 37.97148 1.776357E-14 
vt 37.57777 1.776357E-14 
vt 37.97148 12.77195 
vt 37.57777 12.77195 
vt -24.97935 0.7874016 
vt -24.97935 0.3937008 
vt -36.39667 0.7874018 
vt 1.968504 -6.584466E-23 
vt 1.968504 12.77195 
vt -1.968504 12.77195 
vt -1.968504 -5.135774E-23 
vt -36.39667 1.776357E-14 
vt -4.522031E-15 23.01085 
vt -0.3937008 37.97147 
vt -4.522031E-15 38.36518 
vt -38.36518 38.36518 
vt -0.3937008 23.40455 
vt -23.01085 23.01085 
vt -23.40455 23.40455 
vt -23.01085 4.522031E-15 
vt -23.40455 0.3937008 
vt -38.36518 2.288005E-07 
vt -0.3937008 36.39667 
vt -0.3937008 24.97935 
vt -0.7874016 36.39667 
vt -0.7874016 24.97935 
vt -1.968504 37.97147 
vt -1.968504 36.39667 
vt -23.01085 15.13416 
vt -23.01085 13.95305 
vt -38.36518 15.13416 
vt -38.36518 13.95305 
vt -24.97935 1.968504 
vt -36.39667 1.968504 
vt -24.97935 12.77195 
vt -1.574803 9.622345 
vt -10.89764 9.622345 
vt -1.574803 12.77195 
vt -10.89764 12.77195 
vt 1.968504 23.40455 
vt 1.968504 24.97935 
vt 9.716536 23.40455 
vt 1.968504 29.86124 
vt 9.716536 29.86124 
vt -23.40455 1.968504 
vt -2.02093E-07 13.95305 
vt -2.02093E-07 15.13416 
vt 38.36518 13.95305 
vt 38.36518 15.13416 
vt -23.40455 0 
vt -24.97935 0 
vt -23.40455 12.77195 
vt 23.01085 13.95305 
vt 23.01085 15.13416 
vt -36.39667 -2.27336E-14 
vt -36.79037 12.77195 
vt -36.79037 -2.228951E-14 
vt 23.40455 0 
vt 23.40455 9.622345 
vt 24.97935 0 
vt 24.97935 9.622345 
vt -1.574803 31.04234 
vt -1.574803 24.97935 
vt -10.89764 31.04234 
vt -1.968504 24.97935 
vt -10.89764 23.40455 
vt 36.39667 2.48745E-14 
vt 37.97147 2.48745E-14 
vt 37.97147 13.95305 
vt 0.3937006 13.95305 
vt 1.968504 7.110931E-15 
vt 0.3937006 7.110931E-15 
vt -0.393701 1.467815E-09 
vt -1.968504 1.467815E-09 
vt -0.393701 13.95305 
vt -1.968504 12.77195 
vt -37.97147 13.95305 
vt -37.97147 1.467833E-09 
vt -36.39667 1.467833E-09 
vt 23.40455 10.80345 
vt 23.40455 12.77195 
vt 24.97935 10.80345 
vt 29.86124 12.77195 
vt 29.86124 10.80345 
vt -1.574803 12.77195 
vt -1.574803 1.968504 
vt -1.968504 12.77195 
vt -1.968504 5.299665E-23 
vt -0.7874013 1.968504 
vt -0.3937005 5.299665E-23 
vt -0.7874013 12.77195 
vt -0.3937005 12.77195 
vt 6.99996E-15 23.01085 
vt 6.99996E-15 38.36518 
vt 23.01085 23.01085 
vt 38.36518 38.36518 
vt 23.01085 2.670984E-15 
vt 38.36518 2.288005E-07 
vt -24.97935 1.574803 
vt -36.39667 1.574803 
vt 0.3937005 12.77195 
vt 0.7874013 1.968504 
vt 0.3937005 1.487945E-14 
vt 1.968504 1.487945E-14 
vt 1.574803 1.968504 
vt 1.574803 12.77195 
vt 1.968504 12.77195 
vt 0.7874013 12.77195 
vt -37.57777 1.820766E-14 
vt -37.97147 1.776357E-14 
vt 24.97935 1.968504 
vt 24.97935 12.77195 
vt 36.39667 1.968504 
vt 4.308935E-07 15.13416 
vt 4.308935E-07 13.95305 
vt 37.97147 1.348048E-16 
vt 36.39667 1.348048E-16 
vt 23.40455 13.95305 
vt 23.40455 1.348048E-16 
vt 24.97935 1.348048E-16 
vt 0 13.95305 
vt 0 15.13416 
vt -1.968504 0 
vt -0.7874016 1.968504 
vt -0.3937008 0 
vt -0.3937008 12.77195 
vt -0.7874016 12.77195 
vt -1.574803 1.968504 
vt -1.968504 9.622345 
vt -2.288006E-07 13.95305 
vt -2.288006E-07 15.13416 
vt 10.89764 12.77195 
vt 9.716536 12.77195 
vt 1.968504 12.77195 
vt 0.3937008 13.95305 
vt 1.968504 10.80345 
vt 1.968504 9.622345 
vt 0.3937008 1.184054E-10 
vt 1.968504 1.184054E-10 
vt 9.716536 10.80345 
vt 10.89764 9.622345 
vt -1.574803 36.39667 
vt 0.3937008 -8.655036E-14 
vt 1.574803 1.968504 
vt 1.968504 -8.655036E-14 
vt 1.574803 12.77195 
vt 0.7874016 1.968504 
vt 0.3937008 12.77195 
vt 0.7874016 12.77195 
vt 1.968504 2.388994E-22 
vt 1.968504 12.77195 
vt 36.39667 1.820766E-14 
vt -23.40455 10.80345 
vt -29.86124 12.77195 
vt -29.86124 10.80345 
vt 37.57777 0 
vt 37.97147 0 
vt 37.97147 12.77195 
vt 31.04234 9.622345 
vt 31.04234 12.77195 
vt -0.3937004 -7.665107E-10 
vt -1.968503 12.77195 
vt -0.3937004 13.95305 
vt -23.40454 13.95305 
vt -23.40454 12.77195 
vt -1.968503 -7.665107E-10 
vt -23.40455 13.95305 
vt -1.968504 1.64106E-23 
vt -36.39667 1.820766E-14 
vt 36.39667 0 
vt 36.79037 0 
vt 36.79037 12.77195 

usemtl wood

f 2/2/1 1/1/1 3/3/1 
f 3/3/1 4/4/1 2/2/1 
f 6/6/2 5/5/2 7/7/2 
f 7/7/2 8/8/2 6/6/2 
f 10/10/1 9/9/1 6/11/1 
f 6/11/1 8/12/1 10/10/1 
f 12/14/3 11/13/3 13/15/3 
f 13/15/3 14/16/3 12/14/3 
f 16/18/2 15/17/2 17/19/2 
f 17/19/2 18/20/2 16/18/2 
f 19/21/2 17/19/2 15/17/2 
f 19/21/2 18/20/2 17/19/2 
f 20/22/2 19/21/2 15/17/2 
f 15/17/2 21/23/2 20/22/2 
f 21/23/2 15/17/2 16/18/2 
f 16/18/2 22/24/2 21/23/2 
f 16/18/2 18/20/2 22/24/2 
f 18/20/2 19/21/2 22/24/2 
f 23/26/2 1/25/2 2/27/2 
f 2/27/2 24/28/2 23/26/2 
f 2/27/2 9/6/2 24/28/2 
f 9/6/2 10/8/2 24/28/2 
f 25/5/2 9/6/2 2/27/2 
f 2/27/2 11/29/2 25/5/2 
f 26/30/2 25/5/2 11/29/2 
f 26/30/2 11/29/2 12/31/2 
f 26/30/2 12/31/2 27/32/2 
f 26/30/2 27/32/2 28/33/2 
f 28/33/2 29/34/2 26/30/2 
f 26/30/2 30/7/2 25/5/2 
f 28/33/2 27/32/2 31/35/2 
f 31/35/2 32/36/2 28/33/2 
f 25/38/3 30/37/3 7/39/3 
f 7/39/3 5/40/3 25/38/3 
f 34/42/2 33/41/2 35/43/2 
f 35/43/2 36/26/2 34/42/2 
f 6/45/4 9/44/4 25/14/4 
f 25/14/4 5/16/4 6/45/4 
f 2/47/5 4/46/5 13/3/5 
f 13/3/5 11/48/5 2/47/5 
f 38/50/2 37/49/2 39/51/2 
f 39/51/2 40/52/2 38/50/2 
f 40/52/2 41/30/2 38/50/2 
f 40/52/2 42/28/2 41/30/2 
f 37/49/2 38/50/2 43/53/2 
f 43/53/2 44/54/2 37/49/2 
f 43/53/2 45/55/2 44/54/2 
f 45/55/2 46/56/2 44/54/2 
f 45/55/2 47/57/2 46/56/2 
f 47/57/2 48/58/2 46/56/2 
f 47/57/2 42/28/2 48/58/2 
f 42/28/2 40/52/2 48/58/2 
f 50/60/2 49/59/2 51/61/2 
f 51/61/2 52/62/2 50/60/2 
f 54/59/2 53/50/2 55/63/2 
f 55/63/2 56/64/2 54/59/2 
f 55/63/2 32/36/2 56/64/2 
f 32/36/2 31/35/2 56/64/2 
f 37/66/5 57/65/5 58/67/5 
f 58/67/5 39/68/5 37/66/5 
f 60/70/1 59/69/1 61/71/1 
f 61/71/1 62/3/1 60/70/1 
f 64/36/2 63/63/2 65/34/2 
f 65/34/2 66/33/2 64/36/2 
f 68/73/1 67/72/1 69/74/1 
f 69/74/1 70/75/1 68/73/1 
f 72/77/6 71/76/6 73/78/6 
f 73/78/6 74/79/6 72/77/6 
f 73/78/6 75/80/6 74/79/6 
f 77/57/2 76/81/2 78/69/2 
f 78/69/2 79/42/2 77/57/2 
f 80/83/4 48/82/4 40/84/4 
f 40/84/4 81/85/4 80/83/4 
f 78/87/1 76/86/1 82/88/1 
f 82/88/1 83/71/1 78/87/1 
f 46/89/3 48/84/3 80/85/3 
f 80/85/3 84/90/3 46/89/3 
f 12/91/5 14/3/5 85/92/5 
f 85/92/5 27/93/5 12/91/5 
f 87/95/4 86/94/4 88/96/4 
f 88/96/4 89/97/4 87/95/4 
f 90/99/2 67/98/2 68/100/2 
f 68/100/2 89/101/2 90/99/2 
f 68/100/2 87/23/2 89/101/2 
f 68/100/2 91/102/2 87/23/2 
f 7/16/4 30/103/4 26/104/4 
f 7/16/4 26/104/4 41/105/4 
f 8/45/4 7/16/4 41/105/4 
f 8/45/4 41/105/4 42/106/4 
f 10/107/4 8/45/4 42/106/4 
f 42/106/4 24/108/4 10/107/4 
f 55/110/1 53/109/1 38/111/1 
f 38/111/1 63/112/1 55/110/1 
f 38/111/1 65/3/1 63/112/1 
f 65/3/1 38/111/1 41/113/1 
f 65/3/1 41/113/1 26/114/1 
f 26/114/1 29/115/1 65/3/1 
f 21/117/4 71/116/4 72/118/4 
f 72/118/4 20/119/4 21/117/4 
f 72/118/4 74/120/4 20/119/4 
f 60/122/5 62/121/5 3/123/5 
f 60/122/5 3/123/5 1/124/5 
f 92/125/5 60/122/5 1/124/5 
f 92/125/5 1/124/5 23/126/5 
f 35/127/5 92/125/5 23/126/5 
f 23/126/5 36/128/5 35/127/5 
f 58/130/6 57/129/6 93/131/6 
f 93/131/6 81/132/6 58/130/6 
f 93/131/6 84/133/6 81/132/6 
f 84/133/6 80/134/6 81/132/6 
f 94/41/2 59/135/2 60/136/2 
f 60/136/2 92/43/2 94/41/2 
f 94/138/4 34/137/4 79/139/4 
f 79/139/4 78/140/4 94/138/4 
f 78/140/4 59/141/4 94/138/4 
f 78/140/4 61/142/4 59/141/4 
f 78/140/4 83/143/4 61/142/4 
f 34/137/4 94/138/4 33/144/4 
f 28/145/5 66/11/5 65/12/5 
f 65/12/5 29/146/5 28/145/5 
f 96/53/2 95/60/2 88/101/2 
f 88/101/2 86/23/2 96/53/2 
f 33/148/3 94/147/3 92/149/3 
f 92/149/3 35/16/3 33/148/3 
f 46/151/5 84/150/5 93/65/5 
f 93/65/5 44/66/5 46/151/5 
f 23/153/3 24/152/3 42/105/3 
f 42/105/3 36/16/3 23/153/3 
f 42/105/3 34/148/3 36/16/3 
f 34/148/3 42/105/3 47/154/3 
f 34/148/3 47/154/3 77/155/3 
f 77/155/3 79/156/3 34/148/3 
f 97/69/5 52/71/5 51/3/5 
f 51/3/5 98/70/5 97/69/5 
f 37/157/3 44/89/3 93/90/3 
f 93/90/3 57/158/3 37/157/3 
f 97/160/1 88/159/1 95/161/1 
f 95/161/1 50/162/1 97/160/1 
f 50/162/1 52/163/1 97/160/1 
f 88/159/1 97/160/1 99/164/1 
f 99/164/1 89/165/1 88/159/1 
f 99/164/1 90/72/1 89/165/1 
f 40/68/1 39/166/1 58/167/1 
f 58/167/1 81/67/1 40/68/1 
f 101/168/3 100/117/3 45/154/3 
f 45/154/3 22/169/3 101/168/3 
f 45/154/3 21/170/3 22/169/3 
f 21/170/3 45/154/3 43/171/3 
f 71/172/3 21/170/3 43/171/3 
f 87/173/3 71/172/3 43/171/3 
f 87/173/3 43/171/3 96/174/3 
f 96/174/3 86/175/3 87/173/3 
f 87/173/3 73/176/3 71/172/3 
f 101/168/3 22/169/3 73/176/3 
f 73/176/3 87/173/3 91/177/3 
f 91/177/3 101/168/3 73/176/3 
f 3/25/2 14/31/2 13/29/2 
f 13/29/2 4/27/2 3/25/2 
f 85/32/2 14/31/2 3/25/2 
f 85/32/2 3/25/2 61/135/2 
f 85/32/2 61/135/2 83/69/2 
f 85/32/2 83/69/2 82/81/2 
f 85/32/2 82/81/2 100/55/2 
f 85/32/2 100/55/2 101/102/2 
f 85/32/2 101/102/2 70/100/2 
f 85/32/2 70/100/2 102/64/2 
f 102/64/2 103/35/2 85/32/2 
f 3/25/2 62/136/2 61/135/2 
f 102/64/2 70/100/2 69/98/2 
f 69/98/2 104/178/2 102/64/2 
f 105/180/3 54/179/3 56/181/3 
f 56/181/3 102/170/3 105/180/3 
f 102/170/3 104/182/3 105/180/3 
f 54/179/3 105/180/3 98/183/3 
f 98/183/3 49/184/3 54/179/3 
f 98/183/3 51/185/3 49/184/3 
f 103/187/3 31/186/3 27/188/3 
f 27/188/3 85/16/3 103/187/3 
f 73/189/5 22/88/5 19/190/5 
f 19/190/5 75/191/5 73/189/5 
f 97/62/2 98/61/2 105/178/2 
f 105/178/2 99/99/2 97/62/2 
f 74/172/3 75/176/3 19/169/3 
f 19/169/3 20/170/3 74/172/3 
f 64/40/4 32/192/4 55/193/4 
f 55/193/4 63/194/4 64/40/4 
f 101/117/4 91/95/4 68/195/4 
f 68/195/4 70/196/4 101/117/4 
f 82/198/5 77/197/5 47/199/5 
f 47/199/5 45/200/5 82/198/5 
f 45/200/5 100/201/5 82/198/5 
f 77/197/5 82/198/5 76/202/5 
f 90/97/4 99/147/4 105/149/4 
f 105/149/4 67/195/4 90/97/4 
f 105/149/4 69/196/4 67/195/4 
f 105/149/4 104/16/4 69/196/4 
f 96/86/5 50/71/5 95/87/5 
f 50/71/5 96/86/5 43/203/5 
f 43/203/5 38/113/5 50/71/5 
f 38/113/5 49/3/5 50/71/5 
f 38/113/5 54/1/5 49/3/5 
f 38/113/5 53/10/5 54/1/5 
f 28/205/1 32/204/1 64/112/1 
f 64/112/1 66/3/1 28/205/1 
f 102/16/4 56/206/4 31/207/4 
f 31/207/4 103/208/4 102/16/4 
g deskCorner




usemtl wood

f 2/2/1 1/1/1 3/3/1 
f 3/3/1 4/4/1 2/2/1 
f 6/6/2 5/5/2 7/7/2 
f 7/7/2 8/8/2 6/6/2 
f 10/10/1 9/9/1 6/11/1 
f 6/11/1 8/12/1 10/10/1 
f 12/14/3 11/13/3 13/15/3 
f 13/15/3 14/16/3 12/14/3 
f 16/18/2 15/17/2 17/19/2 
f 17/19/2 18/20/2 16/18/2 
f 19/21/2 17/19/2 15/17/2 
f 19/21/2 18/20/2 17/19/2 
f 20/22/2 19/21/2 15/17/2 
f 15/17/2 21/23/2 20/22/2 
f 21/23/2 15/17/2 16/18/2 
f 16/18/2 22/24/2 21/23/2 
f 16/18/2 18/20/2 22/24/2 
f 18/20/2 19/21/2 22/24/2 
f 23/26/2 1/25/2 2/27/2 
f 2/27/2 24/28/2 23/26/2 
f 2/27/2 9/6/2 24/28/2 
f 9/6/2 10/8/2 24/28/2 
f 25/5/2 9/6/2 2/27/2 
f 2/27/2 11/29/2 25/5/2 
f 26/30/2 25/5/2 11/29/2 
f 26/30/2 11/29/2 12/31/2 
f 26/30/2 12/31/2 27/32/2 
f 26/30/2 27/32/2 28/33/2 
f 28/33/2 29/34/2 26/30/2 
f 26/30/2 30/7/2 25/5/2 
f 28/33/2 27/32/2 31/35/2 
f 31/35/2 32/36/2 28/33/2 
f 25/38/3 30/37/3 7/39/3 
f 7/39/3 5/40/3 25/38/3 
f 34/42/2 33/41/2 35/43/2 
f 35/43/2 36/26/2 34/42/2 
f 6/45/4 9/44/4 25/14/4 
f 25/14/4 5/16/4 6/45/4 
f 2/47/5 4/46/5 13/3/5 
f 13/3/5 11/48/5 2/47/5 
f 38/50/2 37/49/2 39/51/2 
f 39/51/2 40/52/2 38/50/2 
f 40/52/2 41/30/2 38/50/2 
f 40/52/2 42/28/2 41/30/2 
f 37/49/2 38/50/2 43/53/2 
f 43/53/2 44/54/2 37/49/2 
f 43/53/2 45/55/2 44/54/2 
f 45/55/2 46/56/2 44/54/2 
f 45/55/2 47/57/2 46/56/2 
f 47/57/2 48/58/2 46/56/2 
f 47/57/2 42/28/2 48/58/2 
f 42/28/2 40/52/2 48/58/2 
f 50/60/2 49/59/2 51/61/2 
f 51/61/2 52/62/2 50/60/2 
f 54/59/2 53/50/2 55/63/2 
f 55/63/2 56/64/2 54/59/2 
f 55/63/2 32/36/2 56/64/2 
f 32/36/2 31/35/2 56/64/2 
f 37/66/5 57/65/5 58/67/5 
f 58/67/5 39/68/5 37/66/5 
f 60/70/1 59/69/1 61/71/1 
f 61/71/1 62/3/1 60/70/1 
f 64/36/2 63/63/2 65/34/2 
f 65/34/2 66/33/2 64/36/2 
f 68/73/1 67/72/1 69/74/1 
f 69/74/1 70/75/1 68/73/1 
f 72/77/6 71/76/6 73/78/6 
f 73/78/6 74/79/6 72/77/6 
f 73/78/6 75/80/6 74/79/6 
f 77/57/2 76/81/2 78/69/2 
f 78/69/2 79/42/2 77/57/2 
f 80/83/4 48/82/4 40/84/4 
f 40/84/4 81/85/4 80/83/4 
f 78/87/1 76/86/1 82/88/1 
f 82/88/1 83/71/1 78/87/1 
f 46/89/3 48/84/3 80/85/3 
f 80/85/3 84/90/3 46/89/3 
f 12/91/5 14/3/5 85/92/5 
f 85/92/5 27/93/5 12/91/5 
f 87/95/4 86/94/4 88/96/4 
f 88/96/4 89/97/4 87/95/4 
f 90/99/2 67/98/2 68/100/2 
f 68/100/2 89/101/2 90/99/2 
f 68/100/2 87/23/2 89/101/2 
f 68/100/2 91/102/2 87/23/2 
f 7/16/4 30/103/4 26/104/4 
f 7/16/4 26/104/4 41/105/4 
f 8/45/4 7/16/4 41/105/4 
f 8/45/4 41/105/4 42/106/4 
f 10/107/4 8/45/4 42/106/4 
f 42/106/4 24/108/4 10/107/4 
f 55/110/1 53/109/1 38/111/1 
f 38/111/1 63/112/1 55/110/1 
f 38/111/1 65/3/1 63/112/1 
f 65/3/1 38/111/1 41/113/1 
f 65/3/1 41/113/1 26/114/1 
f 26/114/1 29/115/1 65/3/1 
f 21/117/4 71/116/4 72/118/4 
f 72/118/4 20/119/4 21/117/4 
f 72/118/4 74/120/4 20/119/4 
f 60/122/5 62/121/5 3/123/5 
f 60/122/5 3/123/5 1/124/5 
f 92/125/5 60/122/5 1/124/5 
f 92/125/5 1/124/5 23/126/5 
f 35/127/5 92/125/5 23/126/5 
f 23/126/5 36/128/5 35/127/5 
f 58/130/6 57/129/6 93/131/6 
f 93/131/6 81/132/6 58/130/6 
f 93/131/6 84/133/6 81/132/6 
f 84/133/6 80/134/6 81/132/6 
f 94/41/2 59/135/2 60/136/2 
f 60/136/2 92/43/2 94/41/2 
f 94/138/4 34/137/4 79/139/4 
f 79/139/4 78/140/4 94/138/4 
f 78/140/4 59/141/4 94/138/4 
f 78/140/4 61/142/4 59/141/4 
f 78/140/4 83/143/4 61/142/4 
f 34/137/4 94/138/4 33/144/4 
f 28/145/5 66/11/5 65/12/5 
f 65/12/5 29/146/5 28/145/5 
f 96/53/2 95/60/2 88/101/2 
f 88/101/2 86/23/2 96/53/2 
f 33/148/3 94/147/3 92/149/3 
f 92/149/3 35/16/3 33/148/3 
f 46/151/5 84/150/5 93/65/5 
f 93/65/5 44/66/5 46/151/5 
f 23/153/3 24/152/3 42/105/3 
f 42/105/3 36/16/3 23/153/3 
f 42/105/3 34/148/3 36/16/3 
f 34/148/3 42/105/3 47/154/3 
f 34/148/3 47/154/3 77/155/3 
f 77/155/3 79/156/3 34/148/3 
f 97/69/5 52/71/5 51/3/5 
f 51/3/5 98/70/5 97/69/5 
f 37/157/3 44/89/3 93/90/3 
f 93/90/3 57/158/3 37/157/3 
f 97/160/1 88/159/1 95/161/1 
f 95/161/1 50/162/1 97/160/1 
f 50/162/1 52/163/1 97/160/1 
f 88/159/1 97/160/1 99/164/1 
f 99/164/1 89/165/1 88/159/1 
f 99/164/1 90/72/1 89/165/1 
f 40/68/1 39/166/1 58/167/1 
f 58/167/1 81/67/1 40/68/1 
f 101/168/3 100/117/3 45/154/3 
f 45/154/3 22/169/3 101/168/3 
f 45/154/3 21/170/3 22/169/3 
f 21/170/3 45/154/3 43/171/3 
f 71/172/3 21/170/3 43/171/3 
f 87/173/3 71/172/3 43/171/3 
f 87/173/3 43/171/3 96/174/3 
f 96/174/3 86/175/3 87/173/3 
f 87/173/3 73/176/3 71/172/3 
f 101/168/3 22/169/3 73/176/3 
f 73/176/3 87/173/3 91/177/3 
f 91/177/3 101/168/3 73/176/3 
f 3/25/2 14/31/2 13/29/2 
f 13/29/2 4/27/2 3/25/2 
f 85/32/2 14/31/2 3/25/2 
f 85/32/2 3/25/2 61/135/2 
f 85/32/2 61/135/2 83/69/2 
f 85/32/2 83/69/2 82/81/2 
f 85/32/2 82/81/2 100/55/2 
f 85/32/2 100/55/2 101/102/2 
f 85/32/2 101/102/2 70/100/2 
f 85/32/2 70/100/2 102/64/2 
f 102/64/2 103/35/2 85/32/2 
f 3/25/2 62/136/2 61/135/2 
f 102/64/2 70/100/2 69/98/2 
f 69/98/2 104/178/2 102/64/2 
f 105/180/3 54/179/3 56/181/3 
f 56/181/3 102/170/3 105/180/3 
f 102/170/3 104/182/3 105/180/3 
f 54/179/3 105/180/3 98/183/3 
f 98/183/3 49/184/3 54/179/3 
f 98/183/3 51/185/3 49/184/3 
f 103/187/3 31/186/3 27/188/3 
f 27/188/3 85/16/3 103/187/3 
f 73/189/5 22/88/5 19/190/5 
f 19/190/5 75/191/5 73/189/5 
f 97/62/2 98/61/2 105/178/2 
f 105/178/2 99/99/2 97/62/2 
f 74/172/3 75/176/3 19/169/3 
f 19/169/3 20/170/3 74/172/3 
f 64/40/4 32/192/4 55/193/4 
f 55/193/4 63/194/4 64/40/4 
f 101/117/4 91/95/4 68/195/4 
f 68/195/4 70/196/4 101/117/4 
f 82/198/5 77/197/5 47/199/5 
f 47/199/5 45/200/5 82/198/5 
f 45/200/5 100/201/5 82/198/5 
f 77/197/5 82/198/5 76/202/5 
f 90/97/4 99/147/4 105/149/4 
f 105/149/4 67/195/4 90/97/4 
f 105/149/4 69/196/4 67/195/4 
f 105/149/4 104/16/4 69/196/4 
f 96/86/5 50/71/5 95/87/5 
f 50/71/5 96/86/5 43/203/5 
f 43/203/5 38/113/5 50/71/5 
f 38/113/5 49/3/5 50/71/5 
f 38/113/5 54/1/5 49/3/5 
f 38/113/5 53/10/5 54/1/5 
f 28/205/1 32/204/1 64/112/1 
f 64/112/1 66/3/1 28/205/1 
f 102/16/4 56/206/4 31/207/4 
f 31/207/4 103/208/4 102/16/4 
g drawer

v -0.05 0.2744076 0.7584754 
v -0.2468 0.2744076 0.7584754 
v -0.05 0.3244076 0.7584754 
v -0.2468 0.3244076 0.7584754 
v -0.05 0.2744076 0.5944754 
v -0.1712 0.2891576 0.5944754 
v -0.2468 0.2744076 0.5944754 
v -0.2468 0.3244076 0.5944754 
v -0.1712 0.3096576 0.5944754 
v -0.1256 0.3096576 0.5944754 
v -0.1256 0.2891576 0.5944754 
v -0.05 0.3244076 0.5944754 
v -0.07032898 0.3244076 0.7381464 
v -0.07032898 0.3244076 0.6148044 
v -0.226471 0.3244076 0.6148044 
v -0.226471 0.3244076 0.7381464 
v -0.07032898 0.2844076 0.7381464 
v -0.226471 0.2844076 0.7381464 
v -0.07032898 0.2844076 0.6148044 
v -0.226471 0.2844076 0.6148044 
v -0.13216 0.2912076 0.5821754 
v -0.13216 0.3076076 0.5821754 
v -0.16464 0.2912076 0.5821754 
v -0.16464 0.3076076 0.5821754 

vn 0.8823529 0 -0.4705883 
vn -0.8823529 0 -0.4705883 
vn 0 0.986394 -0.164399 
vn 0 -0.986394 -0.164399 

vt 0 0.01537871 
vt -7.748032 0.01537871 
vt 0 1.983883 
vt -7.748032 1.983883 
vt 1.184238E-15 0.01537871 
vt 4.771654 0.5960874 
vt 7.748032 0.01537871 
vt 7.748032 1.983883 
vt 4.771654 1.403174 
vt 2.976378 1.403174 
vt 2.976378 0.5960874 
vt 1.184238E-15 1.983883 
vt 6.456693 1.983883 
vt 6.456693 0.01537871 
vt 0 0 
vt -2.4869E-14 -6.456693 
vt -7.748032 2.842171E-14 
vt -7.748032 -6.456693 
vt -6.456693 0.01537871 
vt -6.456693 1.983883 
vt -1.421085E-15 0.01537871 
vt -1.421085E-15 1.983883 
vt 0.8003536 -0.8003536 
vt 0.8003536 -5.656339 
vt 2.4869E-14 -6.456693 
vt 7.748032 -6.456693 
vt 6.947678 -5.656339 
vt 7.748032 2.842171E-14 
vt 6.947678 -0.8003536 
vt 5.656339 1.983883 
vt 5.656339 0.4090795 
vt 0.8003536 1.983883 
vt 0.8003536 0.4090795 
vt 6.947678 0.4090795 
vt 6.947678 1.983883 
vt -5.656339 0.4090795 
vt -5.656339 1.983883 
vt -0.8003536 0.4090795 
vt -0.8003536 1.983883 
vt -6.947678 0.4090795 
vt -6.947678 1.983883 
vt 7.646549 0.676796 
vt 7.097731 0.5960873 
vt 7.646549 1.322465 
vt 7.097731 1.403174 
vt -4.000417 0.676796 
vt -4.000417 1.322465 
vt -3.451598 0.5960873 
vt -3.451598 1.403174 
vt 2.976378 -6.138162 
vt 4.771654 -6.138162 
vt 3.234646 -6.629094 
vt 4.513386 -6.629094 
vt 2.976378 6.466839 
vt 3.234646 6.95777 
vt 4.771654 6.466839 
vt 4.513386 6.95777 
vt 4.513386 0.676796 
vt 3.234646 0.676796 
vt 4.513386 1.322465 
vt 3.234646 1.322465 

usemtl wood

f 107/210/1 106/209/1 108/211/1 
f 108/211/1 109/212/1 107/210/1 
f 111/214/3 110/213/3 112/215/3 
f 112/215/3 113/216/3 111/214/3 
f 113/216/3 114/217/3 111/214/3 
f 113/216/3 115/218/3 114/217/3 
f 110/213/3 111/214/3 116/219/3 
f 116/219/3 117/220/3 110/213/3 
f 116/219/3 115/218/3 117/220/3 
f 115/218/3 113/216/3 117/220/3 
f 110/222/5 117/221/5 108/211/5 
f 108/211/5 106/209/5 110/222/5 
f 110/224/2 106/223/2 107/225/2 
f 107/225/2 112/226/2 110/224/2 
f 113/228/4 112/227/4 107/229/4 
f 107/229/4 109/230/4 113/228/4 
f 119/232/6 118/231/6 117/233/6 
f 117/233/6 113/234/6 119/232/6 
f 113/234/6 120/235/6 119/232/6 
f 113/234/6 109/236/6 120/235/6 
f 118/231/6 109/236/6 108/223/6 
f 108/223/6 117/233/6 118/231/6 
f 118/231/6 121/237/6 109/236/6 
f 121/237/6 120/235/6 109/236/6 
f 123/237/6 122/231/6 124/232/6 
f 124/232/6 125/235/6 123/237/6 
f 125/239/5 120/238/5 121/240/5 
f 121/240/5 123/241/5 125/239/5 
f 122/241/3 123/242/3 121/243/3 
f 121/243/3 118/240/3 122/241/3 
f 119/245/4 124/244/4 122/246/4 
f 122/246/4 118/247/4 119/245/4 
f 125/248/1 124/246/1 119/247/1 
f 119/247/1 120/249/1 125/248/1 

usemtl metal

f 116/251/7 126/250/7 127/252/7 
f 127/252/7 115/253/7 116/251/7 
f 129/255/8 128/254/8 111/256/8 
f 111/256/8 114/257/8 129/255/8 
f 114/259/9 115/258/9 127/260/9 
f 127/260/9 129/261/9 114/259/9 
f 126/263/10 116/262/10 111/264/10 
f 111/264/10 128/265/10 126/263/10 
f 126/267/3 128/266/3 129/268/3 
f 129/268/3 127/269/3 126/267/3 
