# Created by Kenney (www.kenney.nl) 

mtllib doorway.mtl 

g doorway

v -0.45765 0.9811817 0 
v -0.45765 2.283045E-16 0 
v -0.45765 0.9811817 0.0891 
v -0.45765 2.283045E-16 0.0891 
v 0 1.688743E-17 0.0891 
v -0.02835 1.606253E-16 0.0891 
v 0 1.009532 0.0891 
v -0.02835 0.9811817 0.0891 
v -0.486 1.009532 0.0891 
v -0.486 1.688743E-17 0.0891 
v -0.02835 1.606253E-16 0 
v -0.02835 0.9811817 0 
v 0 1.009532 0 
v 0 0 0 
v -0.486 7.309353E-17 0 
v -0.486 1.009532 0 

vn 1 0 0 
vn 0 0 1 
vn -1 0 0 
vn 0 -1 0 
vn 0 1 0 
vn 0 0 -1 

vt 2.802597E-45 38.6292 
vt 2.802597E-45 7.952689E-15 
vt -3.507874 38.6292 
vt -3.507874 7.952689E-15 
vt 0 6.648595E-16 
vt -1.116142 6.32383E-15 
vt 0 39.74535 
vt -1.116142 38.6292 
vt -18.01772 38.6292 
vt -19.13386 39.74535 
vt -18.01772 8.988366E-15 
vt -19.13386 6.648595E-16 
vt 0 6.32383E-15 
vt 0 38.6292 
vt 3.507874 6.32383E-15 
vt 3.507874 38.6292 
vt 0 0 
vt -3.507874 39.74535 
vt -3.507874 6.648595E-16 
vt -18.01772 3.507874 
vt -18.01772 -3.95817E-29 
vt -19.13386 3.507874 
vt -19.13386 -3.993068E-29 
vt -6.349453E-31 1.438849E-15 
vt -6.349453E-31 39.74535 
vt 3.507874 -7.739896E-16 
vt 3.507874 39.74535 
vt -1.116142 3.507874 
vt -1.116142 0 
vt -18.01772 0 
vt 2.988814E-15 -8.769551E-15 
vt 2.988814E-15 3.507874 
vt 19.13386 -8.769551E-15 
vt 19.13386 3.507874 
vt -3.568937E-30 3.507874 
vt -1.116142 3.150328E-32 
vt 19.13386 2.877698E-15 
vt 18.01772 8.988366E-15 
vt 19.13386 39.74535 
vt 18.01772 38.6292 
vt 1.116142 38.6292 
vt 1.116142 6.32383E-15 

usemtl wood

f 2/2/1 1/1/1 3/3/1 
f 3/3/1 4/4/1 2/2/1 
f 6/6/2 5/5/2 7/7/2 
f 7/7/2 8/8/2 6/6/2 
f 7/7/2 3/9/2 8/8/2 
f 3/9/2 7/7/2 9/10/2 
f 4/11/2 3/9/2 9/10/2 
f 9/10/2 10/12/2 4/11/2 
f 12/14/3 11/13/3 6/15/3 
f 6/15/3 8/16/3 12/14/3 
f 14/17/1 13/7/1 7/18/1 
f 7/18/1 5/19/1 14/17/1 
f 2/21/4 4/20/4 10/22/4 
f 10/22/4 15/23/4 2/21/4 
f 16/25/3 15/24/3 10/26/3 
f 10/26/3 9/27/3 16/25/3 
f 12/29/4 8/28/4 3/20/4 
f 3/20/4 1/30/4 12/29/4 
f 7/32/5 13/31/5 16/33/5 
f 16/33/5 9/34/5 7/32/5 
f 14/17/4 5/35/4 6/28/4 
f 6/28/4 11/36/4 14/17/4 
f 2/38/6 15/37/6 16/39/6 
f 16/39/6 1/40/6 2/38/6 
f 16/39/6 12/41/6 1/40/6 
f 12/41/6 16/39/6 13/7/6 
f 11/42/6 12/41/6 13/7/6 
f 13/7/6 14/17/6 11/42/6 
g doorway




usemtl wood

f 2/2/1 1/1/1 3/3/1 
f 3/3/1 4/4/1 2/2/1 
f 6/6/2 5/5/2 7/7/2 
f 7/7/2 8/8/2 6/6/2 
f 7/7/2 3/9/2 8/8/2 
f 3/9/2 7/7/2 9/10/2 
f 4/11/2 3/9/2 9/10/2 
f 9/10/2 10/12/2 4/11/2 
f 12/14/3 11/13/3 6/15/3 
f 6/15/3 8/16/3 12/14/3 
f 14/17/1 13/7/1 7/18/1 
f 7/18/1 5/19/1 14/17/1 
f 2/21/4 4/20/4 10/22/4 
f 10/22/4 15/23/4 2/21/4 
f 16/25/3 15/24/3 10/26/3 
f 10/26/3 9/27/3 16/25/3 
f 12/29/4 8/28/4 3/20/4 
f 3/20/4 1/30/4 12/29/4 
f 7/32/5 13/31/5 16/33/5 
f 16/33/5 9/34/5 7/32/5 
f 14/17/4 5/35/4 6/28/4 
f 6/28/4 11/36/4 14/17/4 
f 2/38/6 15/37/6 16/39/6 
f 16/39/6 1/40/6 2/38/6 
f 16/39/6 12/41/6 1/40/6 
f 12/41/6 16/39/6 13/7/6 
f 11/42/6 12/41/6 13/7/6 
f 13/7/6 14/17/6 11/42/6 
g door

v -0.10935 0.3222811 0.0243 
v -0.37665 0.3222811 0.0243 
v -0.122715 0.311837 0.03645 
v -0.363285 0.311837 0.03645 
v -0.10935 0.081 0.0243 
v -0.122715 0.09144405 0.03645 
v -0.122715 0.4459461 0.05265 
v -0.363285 0.4459461 0.05265 
v -0.122715 0.8777667 0.05265 
v -0.363285 0.8777667 0.05265 
v -0.10935 0.3222811 0.06479999 
v -0.122715 0.311837 0.05265 
v -0.37665 0.3222811 0.06479999 
v -0.363285 0.311837 0.05265 
v -0.37665 0.081 0.06479999 
v -0.363285 0.09144405 0.05265 
v -0.37665 0.4235311 0.0243 
v -0.10935 0.4235311 0.0243 
v -0.363285 0.4459461 0.03645 
v -0.122715 0.4459461 0.03645 
v -0.363285 0.8777667 0.03645 
v -0.122715 0.8777667 0.03645 
v -0.37665 0.9001818 0.0243 
v -0.10935 0.9001818 0.0243 
v -0.37665 0.081 0.0243 
v -0.363285 0.09144405 0.03645 
v -0.10935 0.081 0.06479999 
v -0.122715 0.09144405 0.05265 
v -0.10935 0.4235311 0.06479999 
v -0.10935 0.9001818 0.06479999 
v -0.37665 0.9001818 0.06479999 
v -0.45765 7.691507E-17 0.0243 
v -0.4358676 0.4032811 0.0243 
v -0.45765 0.9811817 0.0243 
v -0.4358676 0.5247811 0.0243 
v -0.3953676 0.5247811 0.0243 
v -0.02835 0 0.0243 
v -0.02835 0.9811817 0.0243 
v -0.3953676 0.4032811 0.0243 
v -0.37665 0.4235311 0.06479999 
v -0.02835 0.9811817 0.06479999 
v -0.02835 0 0.06479999 
v -0.45765 0.9811817 0.06479999 
v -0.3949064 0.5247811 0.06479999 
v -0.3949064 0.4032811 0.06479999 
v -0.4354064 0.5247811 0.06479999 
v -0.45765 0 0.06479999 
v -0.4354064 0.4032811 0.06479999 
v -0.4318176 0.4154311 0.0162 
v -0.4318176 0.5126311 0.0162 
v -0.3989564 0.5126311 0.0729 
v -0.3989564 0.4154311 0.0729 
v -0.3463064 0.4923811 0.10125 
v -0.4232564 0.4923811 0.10125 
v -0.3463064 0.4923811 0.0891 
v -0.4070564 0.4923811 0.08505 
v -0.4070564 0.4923811 0.0729 
v -0.4232564 0.4923811 0.0729 
v -0.4313564 0.4154311 0.0729 
v -0.3994176 0.4154311 0.0162 
v -0.3994176 0.5126311 0.0162 
v -0.4070564 0.4761811 0.10125 
v -0.4232564 0.4761811 0.10125 
v -0.3463064 0.4842811 0.10125 
v -0.4075176 0.4923811 0.004049998 
v -0.4075176 0.4761811 0.004049998 
v -0.4075176 0.4923811 0.0162 
v -0.4075176 0.4761811 0.0162 
v -0.3463064 0.4842811 0.0891 
v -0.4237176 0.4761811 -0.01215 
v -0.4237176 0.4923811 -0.01215 
v -0.4237176 0.4761811 0.0162 
v -0.4237176 0.4923811 0.0162 
v -0.4075176 0.4761811 -0.01215 
v -0.4313564 0.5126311 0.0729 
v -0.3467676 0.4923811 0 
v -0.3467676 0.4923811 -0.01215 
v -0.4070564 0.4761811 0.08505 
v -0.3467676 0.4842811 -0.01215 
v -0.3467676 0.4842811 0 
v -0.4232564 0.4761811 0.0729 
v -0.4070564 0.4761811 0.0729 

vn 0 -0.7583378 -0.6518618 
vn -0.6726728 0 -0.73994 
vn 0 -0.7583378 0.6518618 
vn 0.6726728 0 0.73994 
vn 0 0.4765415 -0.8791519 
vn 0 -0.4765415 -0.8791519 
vn 0.6726728 0 -0.73994 
vn 0 0.7583378 -0.6518618 
vn -0.6726728 0 0.73994 
vn 0 0.7583378 0.6518618 
vn 0 -0.4765415 0.8791519 
vn 0 0.4765415 0.8791519 
vn -0.8944272 0 -0.4472136 
vn 0.8944272 0 0.4472136 
vn 0 -0.5547002 0.8320503 
vn 0 -0.5547002 -0.8320503 
vn 0.8944272 0 -0.4472136 
vn 0 0.5547002 -0.8320503 
vn -0.8944272 0 0.4472136 
vn 0.066519 0 -0.9977851 
vn 0 0.5547002 0.8320503 
vn 0.1321637 -0.9912279 0 
vn 0.066519 0 0.9977851 

vt 3.188976 8.875554 
vt 13.7126 8.875554 
vt 3.715158 8.244771 
vt 13.18642 8.244771 
vt 1.823367 3.188976 
vt 1.823367 12.68823 
vt 2.53448 3.60016 
vt 2.53448 12.27705 
vt -3.715158 17.55693 
vt -13.18642 17.55693 
vt -3.715158 34.55774 
vt -13.18642 34.55774 
vt -3.188976 8.875554 
vt -3.715158 8.244771 
vt -13.7126 8.875554 
vt -13.18642 8.244771 
vt -10.68279 3.188976 
vt -10.68279 12.68823 
vt -9.971672 3.60016 
vt -9.971672 12.27705 
vt 13.7126 14.27946 
vt 3.188976 14.27946 
vt 13.18642 15.28324 
vt 3.715158 15.28324 
vt 13.18642 30.53348 
vt 3.715158 30.53348 
vt 13.7126 31.53726 
vt 3.188976 31.53726 
vt 10.68279 16.67445 
vt 9.971672 17.55693 
vt 10.68279 35.44023 
vt 9.971672 34.55774 
vt 10.68279 3.188976 
vt 9.971672 3.60016 
vt 10.68279 12.68823 
vt 9.971672 12.27705 
vt 3.188976 1.474192 
vt 3.715158 2.104975 
vt 13.7126 1.474192 
vt 13.18642 2.104975 
vt 3.715158 3.60016 
vt 3.715158 12.27705 
vt 13.18642 3.60016 
vt 13.18642 12.27705 
vt -1.823367 3.188976 
vt -2.53448 3.60016 
vt -1.823367 12.68823 
vt -2.53448 12.27705 
vt -3.715158 3.60016 
vt -13.18642 3.60016 
vt -3.715158 12.27705 
vt -13.18642 12.27705 
vt -3.188976 1.474192 
vt -13.7126 1.474192 
vt -3.715158 2.104975 
vt -13.18642 2.104975 
vt -1.823367 16.67445 
vt -2.53448 17.55693 
vt -1.823367 35.44023 
vt -2.53448 34.55774 
vt 1.823367 16.67445 
vt 1.823367 35.44023 
vt 2.53448 17.55693 
vt 2.53448 34.55774 
vt -3.715158 30.53348 
vt -13.18642 30.53348 
vt -3.188976 31.53726 
vt -13.7126 31.53726 
vt 3.188976 3.188976 
vt 13.7126 3.188976 
vt 16.90158 3.028153E-15 
vt 16.044 15.87721 
vt 16.90158 38.6292 
vt 13.7126 12.68823 
vt 3.188976 12.68823 
vt 16.044 20.66067 
vt 14.44951 20.66067 
vt 13.7126 35.44023 
vt 3.188976 35.44023 
vt -3.753811E-15 1.589456E-31 
vt -3.753811E-15 38.6292 
vt 3.188976 16.67445 
vt 14.44951 15.87721 
vt 13.7126 16.67445 
vt -3.188976 14.27946 
vt -13.7126 14.27946 
vt -3.715158 15.28324 
vt -13.18642 15.28324 
vt 0.7972441 38.6292 
vt 0.7972441 0 
vt -0.7972441 38.6292 
vt -0.7972441 0 
vt -9.947598E-14 0.7972441 
vt 16.90158 0.7972441 
vt 9.947598E-14 -0.7972441 
vt 16.90158 -0.7972441 
vt 13.18642 17.55693 
vt 3.715158 17.55693 
vt 13.18642 34.55774 
vt 3.715158 34.55774 
vt -14.43136 20.66067 
vt -13.7126 16.67445 
vt -14.43136 15.87721 
vt -3.188976 16.67445 
vt -13.7126 35.44023 
vt -16.02584 20.66067 
vt -13.7126 12.68823 
vt -3.188976 12.68823 
vt -5.094457E-15 38.6292 
vt -3.188976 3.188976 
vt -5.094457E-15 0 
vt -16.90158 0 
vt -3.188976 35.44023 
vt -13.7126 3.188976 
vt -16.02584 15.87721 
vt -16.90158 38.6292 
vt 9.947598E-14 0.7972441 
vt -9.947598E-14 -0.7972441 
vt -16.90158 0.7972441 
vt -16.90158 -0.7972441 
vt -0.7972441 3.028153E-15 
vt 0.7972441 1.97462E-30 
vt -10.68279 16.67445 
vt -10.68279 35.44023 
vt -9.971672 17.55693 
vt -9.971672 34.55774 
vt 6.10548 16.35555 
vt 6.10548 20.18233 
vt 6.462018 15.87721 
vt 6.462018 20.66067 
vt -7.166975 20.66067 
vt -7.166975 15.87721 
vt -7.523513 20.18233 
vt -7.523513 16.35555 
vt 12.51797 2.232283 
vt 15.5475 2.232283 
vt 12.51797 1.753937 
vt 14.9097 1.594488 
vt 14.9097 1.116142 
vt 15.5475 1.116142 
vt -14.43136 13.65287 
vt -16.02584 13.65287 
vt -14.5908 14.22777 
vt -15.86639 14.22777 
vt 16.044 13.65287 
vt 14.44951 13.65287 
vt 15.88455 14.22777 
vt 14.60896 14.22777 
vt 7.531633 20.18233 
vt 7.531633 16.35555 
vt 7.175095 20.66067 
vt 7.175095 15.87721 
vt 15.88455 16.17359 
vt 14.60896 16.17359 
vt 16.044 16.74849 
vt 14.44951 16.74849 
vt -14.9097 18.74729 
vt -15.5475 18.74729 
vt -12.51797 19.06618 
vt -15.5475 19.38508 
vt -12.51797 19.38508 
vt 1.594488 19.38508 
vt 1.594488 18.74729 
vt 1.116142 19.38508 
vt 1.116142 18.74729 
vt -1.753937 19.38508 
vt -1.753937 19.06618 
vt -2.232283 19.38508 
vt -2.232283 19.06618 
vt -2.232283 18.74729 
vt -1.116142 18.74729 
vt -1.116142 19.38508 
vt -14.92786 -1.116142 
vt -14.92786 -1.594488 
vt -15.56565 -1.116142 
vt -14.92786 -2.232283 
vt -15.56565 -2.232283 
vt 14.60896 16.35555 
vt 15.56565 18.74729 
vt 15.88455 16.35555 
vt 15.88455 20.18233 
vt 15.56565 19.38508 
vt 14.92786 19.38508 
vt 14.92786 18.74729 
vt 14.60896 20.18233 
vt -6.453898 15.87721 
vt -6.453898 20.66067 
vt -6.09736 16.35555 
vt -6.09736 20.18233 
vt 12.53613 -1.753937 
vt 14.92786 -1.594488 
vt 12.53613 -2.232283 
vt 15.56565 -2.232283 
vt 15.56565 -1.116142 
vt 14.92786 -1.116142 
vt 14.77061 18.74729 
vt 12.37357 19.06618 
vt 14.77061 19.38508 
vt 12.37357 19.38508 
vt 12.53613 19.06618 
vt 12.53613 19.38508 
vt -14.5908 16.17359 
vt -15.86639 16.17359 
vt -14.43136 16.74849 
vt -16.02584 16.74849 
vt 2.232283 19.38508 
vt 2.232283 19.06618 
vt 1.753937 19.38508 
vt 1.753937 19.06618 
vt 2.232283 18.74729 
vt -2.232283 -9.888303 
vt -1.753937 -9.888303 
vt -2.232283 -12.3012 
vt -1.594488 -12.3012 
vt -15.86639 16.35555 
vt -14.5908 16.35555 
vt -14.5908 20.18233 
vt -14.9097 19.38508 
vt -15.86639 20.18233 
vt -1.594488 19.38508 
vt -1.594488 18.74729 
vt -14.9097 2.232283 
vt -14.9097 1.594488 
vt -15.5475 2.232283 
vt -14.9097 1.116142 
vt -15.5475 1.116142 
vt 1.753937 -9.906301 
vt 2.232283 -9.906301 
vt 1.594488 -12.3192 
vt 2.232283 -12.3192 
vt -14.78873 18.74729 
vt -14.78873 19.38508 
vt -12.39169 19.06618 
vt -12.39169 19.38508 

usemtl wood

f 18/44/7 17/43/7 19/45/7 
f 19/45/7 20/46/7 18/44/7 
f 17/48/8 21/47/8 22/49/8 
f 22/49/8 19/50/8 17/48/8 
f 24/52/2 23/51/2 25/53/2 
f 25/53/2 26/54/2 24/52/2 
f 28/56/9 27/55/9 29/57/9 
f 29/57/9 30/58/9 28/56/9 
f 29/60/10 31/59/10 32/61/10 
f 32/61/10 30/62/10 29/60/10 
f 34/64/11 33/63/11 35/65/11 
f 35/65/11 36/66/11 34/64/11 
f 38/68/12 37/67/12 39/69/12 
f 39/69/12 40/70/12 38/68/12 
f 35/72/13 33/71/13 39/73/13 
f 39/73/13 37/74/13 35/72/13 
f 42/76/13 41/75/13 18/77/13 
f 18/77/13 20/78/13 42/76/13 
f 22/80/14 21/79/14 41/81/14 
f 41/81/14 42/82/14 22/80/14 
f 19/84/6 22/83/6 42/85/6 
f 42/85/6 20/86/6 19/84/6 
f 44/88/15 43/87/15 27/89/15 
f 27/89/15 28/90/15 44/88/15 
f 32/92/2 44/91/2 28/93/2 
f 28/93/2 30/94/2 32/92/2 
f 31/96/16 43/95/16 44/97/16 
f 44/97/16 32/98/16 31/96/16 
f 23/100/15 45/99/15 46/101/15 
f 46/101/15 25/102/15 23/100/15 
f 40/104/8 34/103/8 36/105/8 
f 36/105/8 38/106/8 40/104/8 
f 26/108/17 25/107/17 46/109/17 
f 46/109/17 47/110/17 26/108/17 
f 41/112/6 21/111/6 48/113/6 
f 48/113/6 49/114/6 41/112/6 
f 48/113/6 50/115/6 49/114/6 
f 49/114/6 18/116/6 41/112/6 
f 49/114/6 17/117/6 18/116/6 
f 50/115/6 51/118/6 49/114/6 
f 50/115/6 52/119/6 51/118/6 
f 50/115/6 39/120/6 52/119/6 
f 50/115/6 40/121/6 39/120/6 
f 53/122/6 48/113/6 21/111/6 
f 21/111/6 54/123/6 53/122/6 
f 21/111/6 17/117/6 54/123/6 
f 40/121/6 50/115/6 54/123/6 
f 17/117/6 34/124/6 54/123/6 
f 34/124/6 40/121/6 54/123/6 
f 17/117/6 55/125/6 34/124/6 
f 17/117/6 49/114/6 55/125/6 
f 55/125/6 33/126/6 34/124/6 
f 33/126/6 55/125/6 52/119/6 
f 52/119/6 39/120/6 33/126/6 
f 56/128/18 45/127/18 23/129/18 
f 23/129/18 24/130/18 56/128/18 
f 53/132/1 54/131/1 57/133/1 
f 57/133/1 58/134/1 53/132/1 
f 59/136/5 57/135/5 54/137/5 
f 54/137/5 50/138/5 59/136/5 
f 36/140/6 35/139/6 37/141/6 
f 37/141/6 38/142/6 36/140/6 
f 56/144/2 60/143/2 61/145/2 
f 61/145/2 45/146/2 56/144/2 
f 56/144/2 47/147/2 60/143/2 
f 47/147/2 62/148/2 60/143/2 
f 45/146/2 61/145/2 29/149/2 
f 45/146/2 29/149/2 27/150/2 
f 57/151/2 45/146/2 27/150/2 
f 57/151/2 27/150/2 43/152/2 
f 58/153/2 57/151/2 43/152/2 
f 43/152/2 63/154/2 58/153/2 
f 57/151/2 46/155/2 45/146/2 
f 57/151/2 47/147/2 46/155/2 
f 63/154/2 43/152/2 31/156/2 
f 63/154/2 31/156/2 64/157/2 
f 31/156/2 29/149/2 64/157/2 
f 29/149/2 61/145/2 64/157/2 
f 64/157/2 59/158/2 63/154/2 
f 64/157/2 62/148/2 59/158/2 
f 62/148/2 47/147/2 59/158/2 
f 47/147/2 57/151/2 59/158/2 
f 53/160/4 58/159/4 63/161/4 
f 63/161/4 48/162/4 53/160/4 
f 50/133/3 48/163/3 63/164/3 
f 63/164/3 59/131/3 50/133/3 
f 47/166/10 56/165/10 24/167/10 
f 24/167/10 26/168/10 47/166/10 

usemtl metal

f 66/170/19 65/169/19 49/171/19 
f 49/171/19 51/172/19 66/170/19 
f 61/174/20 60/173/20 67/175/20 
f 67/175/20 68/176/20 61/174/20 
f 70/178/5 69/177/5 71/179/5 
f 71/179/5 72/180/5 70/178/5 
f 72/180/5 73/181/5 70/178/5 
f 73/181/5 74/182/5 70/178/5 
f 64/184/21 61/183/21 68/185/21 
f 68/185/21 75/186/21 64/184/21 
f 55/188/22 49/187/22 65/189/22 
f 65/189/22 76/190/22 55/188/22 
f 76/192/23 77/191/23 52/193/23 
f 52/193/23 55/194/23 76/192/23 
f 77/196/24 66/195/24 51/197/24 
f 51/197/24 52/198/24 77/196/24 
f 79/200/2 78/199/2 80/201/2 
f 80/201/2 70/202/2 79/200/2 
f 80/201/2 69/203/2 70/202/2 
f 82/205/1 81/204/1 83/206/1 
f 83/206/1 84/207/1 82/205/1 
f 85/209/1 71/208/1 69/210/1 
f 69/210/1 80/211/1 85/209/1 
f 87/210/3 86/212/3 88/213/3 
f 88/213/3 89/214/3 87/210/3 
f 82/216/4 84/215/4 88/217/4 
f 88/217/4 90/218/4 82/216/4 
f 88/217/4 86/219/4 90/218/4 
f 88/221/6 76/220/6 65/222/6 
f 65/222/6 66/223/6 88/221/6 
f 66/223/6 89/224/6 88/221/6 
f 66/223/6 83/225/6 89/224/6 
f 76/220/6 88/221/6 84/226/6 
f 84/226/6 77/227/6 76/220/6 
f 84/226/6 83/225/6 77/227/6 
f 83/225/6 66/223/6 77/227/6 
f 62/229/25 64/228/25 75/230/25 
f 75/230/25 91/231/25 62/229/25 
f 81/233/5 92/232/5 93/234/5 
f 93/234/5 87/235/5 81/233/5 
f 87/235/5 89/236/5 81/233/5 
f 83/237/5 81/233/5 89/236/5 
f 85/239/26 94/238/26 72/240/26 
f 72/240/26 71/241/26 85/239/26 
f 90/226/6 86/221/6 87/224/6 
f 87/224/6 95/242/6 90/226/6 
f 87/224/6 93/243/6 95/242/6 
f 91/245/27 67/244/27 60/246/27 
f 60/246/27 62/247/27 91/245/27 
f 95/249/1 93/248/1 92/250/1 
f 92/250/1 96/251/1 95/249/1 
f 74/206/3 97/207/3 79/252/3 
f 79/252/3 70/248/3 74/206/3 
f 85/254/28 80/253/28 78/255/28 
f 78/255/28 94/256/28 85/254/28 
f 98/199/2 75/257/2 68/258/2 
f 68/258/2 67/259/2 98/199/2 
f 67/259/2 73/260/2 98/199/2 
f 67/259/2 74/202/2 73/260/2 
f 75/257/2 98/199/2 97/200/2 
f 97/200/2 91/261/2 75/257/2 
f 97/200/2 74/202/2 91/261/2 
f 74/202/2 67/259/2 91/261/2 
f 98/213/1 73/214/1 72/262/1 
f 72/262/1 94/263/1 98/213/1 
f 94/265/4 78/264/4 79/266/4 
f 79/266/4 98/267/4 94/265/4 
f 79/266/4 97/268/4 98/267/4 
f 95/270/28 96/269/28 82/271/28 
f 82/271/28 90/272/28 95/270/28 
f 81/274/29 82/273/29 96/275/29 
f 96/275/29 92/276/29 81/274/29 
