# Created by Kenney (www.kenney.nl) 

mtllib hoodLarge.mtl 

g hoodLarge

v 0 0 0.2849 
v 0 0 0 
v -0.43 0 0.2849 
v -0.43 0 0 
v -0.43 0.07 0 
v 1.443823E-15 0.07 0 
v 1.443823E-15 0.07 0.2849 
v -0.43 0.07 0.2849 
v -0.05 0.15 0.2849 
v -0.1281538 0.15 0.1281538 
v -0.05 0.15 0.05 
v -0.38 0.15 0.05 
v -0.3018462 0.15 0.1281538 
v -0.3018462 0.15 0.2849 
v -0.38 0.15 0.2849 
v -0.1281538 0.15 0.2849 
v -0.1281538 0.3695317 0.1281538 
v -0.1281538 0.3695317 0.2849 
v -0.3018462 0.3695317 0.1281538 
v -0.3018462 0.3695317 0.2849 

vn 0 -1 0 
vn 0 0 -1 
vn 1 0 0 
vn -1 0 0 
vn 0 1 0 
vn 0 0.529999 -0.8479983 
vn -0.8479983 0.529999 0 
vn 0.8479983 0.529999 0 
vn 0 0 1 

vt 0 11.21654 
vt 0 0 
vt -16.92913 11.21654 
vt -16.92913 0 
vt 16.92913 0 
vt 16.92913 2.755906 
vt -5.684342E-14 2.755906 
vt -1.961818E-44 2.755906 
vt -11.21654 2.755906 
vt -11.21654 -9.10844E-44 
vt -3.83459E-30 -2.715852E-13 
vt -3.83459E-30 2.755906 
vt 11.21654 -2.715852E-13 
vt 11.21654 2.755906 
vt 1.968504 11.21654 
vt 5.045425 5.045425 
vt 1.968504 1.968504 
vt 14.96063 1.968504 
vt 11.88371 5.045425 
vt 11.88371 11.21654 
vt 14.96063 11.21654 
vt 5.045425 11.21654 
vt 16.92913 2.337003 
vt -5.684342E-14 2.337003 
vt 14.96063 6.051169 
vt 1.968504 6.051169 
vt 5.737694E-17 -6.63542 
vt 1.968504 -2.921254 
vt 11.21654 -6.63542 
vt 11.21654 -2.921254 
vt -1.926561E-31 2.337003 
vt -11.21654 2.337003 
vt -1.968504 6.051169 
vt -11.21654 6.051169 
vt -5.045425 14.54849 
vt -5.045425 5.905512 
vt -11.21654 14.54849 
vt -11.21654 5.905512 
vt 11.88371 5.905512 
vt 5.045425 5.905512 
vt 11.88371 14.54849 
vt 5.045425 14.54849 
vt 11.21654 5.905512 
vt 11.21654 14.54849 

usemtl metalDark

f 2/2/1 1/1/1 3/3/1 
f 3/3/1 4/4/1 2/2/1 
f 2/2/2 4/5/2 5/6/2 
f 5/6/2 6/7/2 2/2/2 
f 2/2/3 6/8/3 7/9/3 
f 7/9/3 1/10/3 2/2/3 
f 5/12/4 4/11/4 3/13/4 
f 3/13/4 8/14/4 5/12/4 
f 10/16/5 9/15/5 11/17/5 
f 11/17/5 12/18/5 10/16/5 
f 12/18/5 13/19/5 10/16/5 
f 12/18/5 14/20/5 13/19/5 
f 12/18/5 15/21/5 14/20/5 
f 9/15/5 10/16/5 16/22/5 
f 6/24/6 5/23/6 12/25/6 
f 12/25/6 11/26/6 6/24/6 
f 12/28/7 5/27/7 8/29/7 
f 8/29/7 15/30/7 12/28/7 
f 7/32/8 6/31/8 11/33/8 
f 11/33/8 9/34/8 7/32/8 
f 18/22/5 17/16/5 19/19/5 
f 19/19/5 20/20/5 18/22/5 
f 10/36/3 17/35/3 18/37/3 
f 18/37/3 16/38/3 10/36/3 
f 10/40/2 13/39/2 19/41/2 
f 19/41/2 17/42/2 10/40/2 
f 19/42/4 13/40/4 14/43/4 
f 14/43/4 20/44/4 19/42/4 

usemtl _defaultMat

f 14/3/9 16/4/9 18/2/9 
f 18/3/9 20/4/9 14/2/9 
f 3/3/9 1/4/9 7/2/9 
f 7/3/9 8/4/9 3/2/9 
f 7/3/9 9/4/9 8/2/9 
f 9/3/9 15/4/9 8/2/9 
f 9/3/9 16/4/9 15/2/9 
f 16/3/9 14/4/9 15/2/9 
g hoodLarge




usemtl metalDark

f 2/2/1 1/1/1 3/3/1 
f 3/3/1 4/4/1 2/2/1 
f 2/2/2 4/5/2 5/6/2 
f 5/6/2 6/7/2 2/2/2 
f 2/2/3 6/8/3 7/9/3 
f 7/9/3 1/10/3 2/2/3 
f 5/12/4 4/11/4 3/13/4 
f 3/13/4 8/14/4 5/12/4 
f 10/16/5 9/15/5 11/17/5 
f 11/17/5 12/18/5 10/16/5 
f 12/18/5 13/19/5 10/16/5 
f 12/18/5 14/20/5 13/19/5 
f 12/18/5 15/21/5 14/20/5 
f 9/15/5 10/16/5 16/22/5 
f 6/24/6 5/23/6 12/25/6 
f 12/25/6 11/26/6 6/24/6 
f 12/28/7 5/27/7 8/29/7 
f 8/29/7 15/30/7 12/28/7 
f 7/32/8 6/31/8 11/33/8 
f 11/33/8 9/34/8 7/32/8 
f 18/22/5 17/16/5 19/19/5 
f 19/19/5 20/20/5 18/22/5 
f 10/36/3 17/35/3 18/37/3 
f 18/37/3 16/38/3 10/36/3 
f 10/40/2 13/39/2 19/41/2 
f 19/41/2 17/42/2 10/40/2 
f 19/42/4 13/40/4 14/43/4 
f 14/43/4 20/44/4 19/42/4 

usemtl _defaultMat

f 14/3/9 16/4/9 18/2/9 
f 18/3/9 20/4/9 14/2/9 
f 3/3/9 1/4/9 7/2/9 
f 7/3/9 8/4/9 3/2/9 
f 7/3/9 9/4/9 8/2/9 
f 9/3/9 15/4/9 8/2/9 
f 9/3/9 16/4/9 15/2/9 
f 16/3/9 14/4/9 15/2/9 
