# Created by Kenney (www.kenney.nl) 

mtllib kitchenCabinetDrawer.mtl 

g kitchenCabinetDrawer

v 0 0.45 0.42 
v 0 0.45 0.45 
v -0.43 0.45 0.42 
v -0.43 0.45 0.45 
v 0 0.39 0.45 
v -0.43 0.39 0.45 
v 0 0.39 0.02 
v 0 0.39 0 
v -0.43 0.39 0.02 
v -0.43 0.39 0 
v 0 0.42 0.42 
v 0 0.42 0 
v -0.43 0.42 0 
v -0.43 0.42 0.42 
v 0 0 0.45 
v 0 0 0.04 
v -0.43 0 0.45 
v -0.43 0 0.04 
v -0.02684418 0.277543 0.04 
v -0.02684418 0.277543 0.4 
v -0.4031558 0.277543 0.04 
v -0.4031558 0.277543 0.4 
v -0.02684418 0.08508605 0.02 
v -0.02684418 0.08508605 0.4 
v -0.4031558 0.08508605 0.02 
v -0.4031558 0.08508605 0.4 
v -0.02684418 0.3631558 0.4 
v -0.02684418 0.3631558 0.02 
v -0.4031558 0.3631558 0.4 
v -0.4031558 0.3631558 0.02 
v 0 0.05824186 0.04 
v 0 0.05824186 0.02 
v -0.43 0.05824186 0.04 
v -0.43 0.05824186 0.02 
v -0.4031558 0.277543 0.02 
v -0.4031558 0.2506988 0.04 
v -0.4031558 0.2506988 0.4 
v -0.02684418 0.2506988 0.4 
v -0.02684418 0.2506988 0.04 
v -0.02684418 0.277543 0.02 

vn 0 1 0 
vn 0 0 1 
vn 0 -1 0 
vn 1 0 0 
vn -1 0 0 
vn 0 0 -1 

vt 0 16.53543 
vt 0 17.71654 
vt 16.92913 16.53543 
vt 16.92913 17.71654 
vt 0 15.35433 
vt -16.92913 15.35433 
vt -16.92913 17.71654 
vt 0 0.7874016 
vt 0 0 
vt -16.92913 0.7874016 
vt -16.92913 0 
vt -16.53543 17.71654 
vt -16.53543 16.53543 
vt -17.71654 17.71654 
vt -17.71654 15.35433 
vt -0.7874016 15.35433 
vt 0.7874016 15.35433 
vt 16.53543 16.53543 
vt 17.71654 15.35433 
vt 16.53543 17.71654 
vt 17.71654 17.71654 
vt 16.92913 15.35433 
vt 16.92913 0 
vt 0 1.574803 
vt -16.92913 1.574803 
vt 1.056858 1.574803 
vt 1.056858 15.74803 
vt 15.87228 1.574803 
vt 15.87228 15.74803 
vt 1.056858 0.7874016 
vt 15.87228 0.7874016 
vt -1.056858 15.74803 
vt -1.056858 0.7874016 
vt -15.87228 15.74803 
vt -15.87228 0.7874016 
vt -0.7874016 14.29747 
vt -0.7874016 10.92689 
vt -15.74803 14.29747 
vt -1.574803 10.92689 
vt -0.7874016 3.349844 
vt -15.74803 10.92689 
vt -1.574803 9.870033 
vt -15.74803 3.349844 
vt -15.74803 9.870033 
vt 16.92913 2.292987 
vt 0 2.292987 
vt 1.574803 0 
vt 1.574803 2.292987 
vt 17.71654 0 
vt 0.7874016 2.292987 
vt -0.7874016 2.292987 
vt -1.574803 2.292987 
vt -1.574803 0 
vt -17.71654 0 
vt 15.87228 3.349844 
vt 1.056858 3.349844 
vt 15.87228 9.870033 
vt 1.056858 9.870033 
vt 16.92913 0.7874016 
vt -1.056858 1.574803 
vt -15.87228 1.574803 
vt 15.87228 10.92689 
vt 1.056858 10.92689 
vt 0.7874016 10.92689 
vt 1.574803 9.870033 
vt 0.7874016 3.349844 
vt 15.74803 3.349844 
vt 0.7874016 14.29747 
vt 15.74803 9.870033 
vt 1.574803 10.92689 
vt 15.74803 14.29747 
vt 15.74803 10.92689 
vt 15.87228 14.29747 
vt 1.056858 14.29747 

usemtl metal

f 2/2/1 1/1/1 3/3/1 
f 3/3/1 4/4/1 2/2/1 
f 6/6/2 5/5/2 2/2/2 
f 2/2/2 4/7/2 6/6/2 
f 8/9/3 7/8/3 9/10/3 
f 9/10/3 10/11/3 8/9/3 
f 11/13/4 1/12/4 2/14/4 
f 11/13/4 2/14/4 5/15/4 
f 11/13/4 5/15/4 7/16/4 
f 11/13/4 7/16/4 8/5/4 
f 8/5/4 12/1/4 11/13/4 
f 13/1/5 10/5/5 9/17/5 
f 9/17/5 14/18/5 13/1/5 
f 9/17/5 6/19/5 14/18/5 
f 6/19/5 3/20/5 14/18/5 
f 6/19/5 4/21/5 3/20/5 
f 8/5/6 10/22/6 13/3/6 
f 13/3/6 12/1/6 8/5/6 
f 11/1/6 14/3/6 3/4/6 
f 3/4/6 1/2/6 11/1/6 
f 11/1/1 12/9/1 13/23/1 
f 13/23/1 14/3/1 11/1/1 

usemtl wood

f 16/24/3 15/2/3 17/7/3 
f 17/7/3 18/25/3 16/24/3 
f 20/27/1 19/26/1 21/28/1 
f 21/28/1 22/29/1 20/27/1 
f 24/27/1 23/30/1 25/31/1 
f 25/31/1 26/29/1 24/27/1 
f 28/33/3 27/32/3 29/34/3 
f 29/34/3 30/35/3 28/33/3 
f 32/8/3 31/24/3 33/25/3 
f 33/25/3 34/10/3 32/8/3 
f 35/37/4 30/36/4 29/38/4 
f 29/38/4 21/39/4 35/37/4 
f 21/39/4 25/40/4 35/37/4 
f 29/38/4 22/41/4 21/39/4 
f 25/40/4 21/39/4 36/42/4 
f 36/42/4 26/43/4 25/40/4 
f 36/42/4 37/44/4 26/43/4 
f 16/9/6 18/23/6 33/45/6 
f 33/45/6 31/46/6 16/9/6 
f 33/48/5 18/47/5 17/49/5 
f 33/48/5 17/49/5 6/19/5 
f 33/48/5 6/19/5 9/17/5 
f 9/17/5 34/50/5 33/48/5 
f 32/51/4 7/16/4 5/15/4 
f 5/15/4 31/52/4 32/51/4 
f 5/15/4 16/53/4 31/52/4 
f 5/15/4 15/54/4 16/53/4 
f 24/56/6 26/55/6 37/57/6 
f 37/57/6 38/58/6 24/56/6 
f 5/2/1 7/8/1 9/59/1 
f 9/59/1 6/4/1 5/2/1 
f 17/11/2 15/9/2 5/5/2 
f 5/5/2 6/6/2 17/11/2 
f 39/60/3 38/32/3 37/34/3 
f 37/34/3 36/61/3 39/60/3 
f 39/58/6 36/57/6 21/62/6 
f 21/62/6 19/63/6 39/58/6 
f 39/65/5 40/64/5 23/66/5 
f 23/66/5 24/67/5 39/65/5 
f 39/65/5 28/68/5 40/64/5 
f 24/67/5 38/69/5 39/65/5 
f 28/68/5 39/65/5 19/70/5 
f 19/70/5 27/71/5 28/68/5 
f 19/70/5 20/72/5 27/71/5 
f 25/55/6 32/46/6 34/45/6 
f 34/45/6 9/22/6 25/55/6 
f 9/22/6 35/62/6 25/55/6 
f 9/22/6 30/73/6 35/62/6 
f 9/22/6 28/74/6 30/73/6 
f 32/46/6 25/55/6 23/56/6 
f 23/56/6 7/5/6 32/46/6 
f 28/74/6 9/22/6 7/5/6 
f 23/56/6 40/63/6 7/5/6 
f 40/63/6 28/74/6 7/5/6 
f 20/63/6 22/62/6 29/73/6 
f 29/73/6 27/74/6 20/63/6 
g kitchenCabinetDrawer




usemtl metal

f 2/2/1 1/1/1 3/3/1 
f 3/3/1 4/4/1 2/2/1 
f 6/6/2 5/5/2 2/2/2 
f 2/2/2 4/7/2 6/6/2 
f 8/9/3 7/8/3 9/10/3 
f 9/10/3 10/11/3 8/9/3 
f 11/13/4 1/12/4 2/14/4 
f 11/13/4 2/14/4 5/15/4 
f 11/13/4 5/15/4 7/16/4 
f 11/13/4 7/16/4 8/5/4 
f 8/5/4 12/1/4 11/13/4 
f 13/1/5 10/5/5 9/17/5 
f 9/17/5 14/18/5 13/1/5 
f 9/17/5 6/19/5 14/18/5 
f 6/19/5 3/20/5 14/18/5 
f 6/19/5 4/21/5 3/20/5 
f 8/5/6 10/22/6 13/3/6 
f 13/3/6 12/1/6 8/5/6 
f 11/1/6 14/3/6 3/4/6 
f 3/4/6 1/2/6 11/1/6 
f 11/1/1 12/9/1 13/23/1 
f 13/23/1 14/3/1 11/1/1 

usemtl wood

f 16/24/3 15/2/3 17/7/3 
f 17/7/3 18/25/3 16/24/3 
f 20/27/1 19/26/1 21/28/1 
f 21/28/1 22/29/1 20/27/1 
f 24/27/1 23/30/1 25/31/1 
f 25/31/1 26/29/1 24/27/1 
f 28/33/3 27/32/3 29/34/3 
f 29/34/3 30/35/3 28/33/3 
f 32/8/3 31/24/3 33/25/3 
f 33/25/3 34/10/3 32/8/3 
f 35/37/4 30/36/4 29/38/4 
f 29/38/4 21/39/4 35/37/4 
f 21/39/4 25/40/4 35/37/4 
f 29/38/4 22/41/4 21/39/4 
f 25/40/4 21/39/4 36/42/4 
f 36/42/4 26/43/4 25/40/4 
f 36/42/4 37/44/4 26/43/4 
f 16/9/6 18/23/6 33/45/6 
f 33/45/6 31/46/6 16/9/6 
f 33/48/5 18/47/5 17/49/5 
f 33/48/5 17/49/5 6/19/5 
f 33/48/5 6/19/5 9/17/5 
f 9/17/5 34/50/5 33/48/5 
f 32/51/4 7/16/4 5/15/4 
f 5/15/4 31/52/4 32/51/4 
f 5/15/4 16/53/4 31/52/4 
f 5/15/4 15/54/4 16/53/4 
f 24/56/6 26/55/6 37/57/6 
f 37/57/6 38/58/6 24/56/6 
f 5/2/1 7/8/1 9/59/1 
f 9/59/1 6/4/1 5/2/1 
f 17/11/2 15/9/2 5/5/2 
f 5/5/2 6/6/2 17/11/2 
f 39/60/3 38/32/3 37/34/3 
f 37/34/3 36/61/3 39/60/3 
f 39/58/6 36/57/6 21/62/6 
f 21/62/6 19/63/6 39/58/6 
f 39/65/5 40/64/5 23/66/5 
f 23/66/5 24/67/5 39/65/5 
f 39/65/5 28/68/5 40/64/5 
f 24/67/5 38/69/5 39/65/5 
f 28/68/5 39/65/5 19/70/5 
f 19/70/5 27/71/5 28/68/5 
f 19/70/5 20/72/5 27/71/5 
f 25/55/6 32/46/6 34/45/6 
f 34/45/6 9/22/6 25/55/6 
f 9/22/6 35/62/6 25/55/6 
f 9/22/6 30/73/6 35/62/6 
f 9/22/6 28/74/6 30/73/6 
f 32/46/6 25/55/6 23/56/6 
f 23/56/6 7/5/6 32/46/6 
f 28/74/6 9/22/6 7/5/6 
f 23/56/6 40/63/6 7/5/6 
f 40/63/6 28/74/6 7/5/6 
f 20/63/6 22/62/6 29/73/6 
f 29/73/6 27/74/6 20/63/6 
g door

v -0.02684418 0.08508605 0.04 
v -0.4031558 0.08508605 0.04 
v -0.02684418 0.08508605 0.02 
v -0.4031558 0.08508605 0.02 
v -0.02684418 0.277543 0.02 
v -0.4031558 0.277543 0.02 
v -0.04718611 0.105428 0.02 
v -0.3578139 0.2172011 0.02 
v -0.3828139 0.105428 0.02 
v -0.3828139 0.2572011 0.02 
v -0.3578139 0.2372011 0.02 
v -0.2778139 0.2372011 0.02 
v -0.2778139 0.2172011 0.02 
v -0.04718611 0.2572011 0.02 
v -0.3578139 0.2172011 0 
v -0.2778139 0.2172011 0 
v -0.3578139 0.2272011 0 
v -0.2778139 0.2272011 0 
v -0.3578139 0.2372011 0.01 
v -0.2778139 0.2372011 0.01 

vn 0 0.7071068 -0.7071068 

vt -14.81542 0 
vt 0 7.577046 
vt -14.81542 7.577046 
vt 0 0.3937008 
vt 0 -0.3937008 
vt -14.81542 0.3937008 
vt -14.81542 -0.3937008 
vt 14.81542 -0.3937008 
vt 14.81542 0.3937008 
vt -0.3937008 0 
vt -0.3937008 7.577046 
vt 0.3937008 0 
vt 0.3937008 7.577046 
vt 0.8008635 0.8008635 
vt 13.0303 5.20138 
vt 14.01455 0.8008635 
vt 14.01455 6.776183 
vt 13.0303 5.988781 
vt 9.880697 5.988781 
vt 9.880697 5.20138 
vt 0.8008635 6.776183 
vt 14.81542 0 
vt 14.81542 7.577046 
vt 13.0303 5.59508 
vt 9.880697 5.59508 
vt -9.880697 -0.3937008 
vt -9.880697 -1.181102 
vt -13.0303 -0.3937008 
vt -13.0303 -1.181102 
vt -1.181102 5.20138 
vt -1.181102 5.59508 
vt -0.3937008 5.20138 
vt -0.7874016 5.988781 
vt -0.3937008 5.988781 
vt 9.880697 -0.7874016 
vt 9.880697 -0.3937008 
vt 13.0303 -0.7874016 
vt 13.0303 -0.3937008 
vt 1.181102 5.59508 
vt 1.181102 5.20138 
vt 0.7874016 5.988781 
vt 0.3937008 5.20138 
vt 0.3937008 5.988781 
vt 13.0303 3.121154 
vt 9.880697 3.121154 
vt 13.0303 3.677931 
vt 9.880697 3.677931 

usemtl wood

f 42/75/2 41/9/2 19/76/2 
f 19/76/2 21/77/2 42/75/2 
f 43/79/3 41/78/3 42/80/3 
f 42/80/3 44/81/3 43/79/3 
f 19/78/1 45/79/1 46/82/1 
f 46/82/1 21/83/1 19/78/1 
f 46/85/5 44/84/5 42/86/5 
f 42/86/5 21/87/5 46/85/5 
f 43/86/4 45/87/4 19/85/4 
f 19/85/4 41/84/4 43/86/4 
f 48/89/6 47/88/6 49/90/6 
f 49/90/6 50/91/6 48/89/6 
f 50/91/6 51/92/6 48/89/6 
f 50/91/6 52/93/6 51/92/6 
f 47/88/6 48/89/6 53/94/6 
f 53/94/6 54/95/6 47/88/6 
f 53/94/6 52/93/6 54/95/6 
f 52/93/6 50/91/6 54/95/6 

usemtl woodDark

f 49/90/6 43/9/6 44/96/6 
f 44/96/6 46/97/6 49/90/6 
f 46/97/6 50/91/6 49/90/6 
f 46/97/6 54/95/6 50/91/6 
f 43/9/6 49/90/6 47/88/6 
f 47/88/6 45/76/6 43/9/6 
f 47/88/6 54/95/6 45/76/6 
f 54/95/6 46/97/6 45/76/6 

usemtl metal

f 56/94/6 55/89/6 57/98/6 
f 57/98/6 58/99/6 56/94/6 
f 56/101/3 53/100/3 48/102/3 
f 48/102/3 55/103/3 56/101/3 
f 57/105/5 55/104/5 48/106/5 
f 48/106/5 59/107/5 57/105/5 
f 48/106/5 51/108/5 59/107/5 
f 52/110/1 60/109/1 59/111/1 
f 59/111/1 51/112/1 52/110/1 
f 56/114/4 58/113/4 60/115/4 
f 60/115/4 53/116/4 56/114/4 
f 60/115/4 52/117/4 53/116/4 
f 58/119/7 57/118/7 59/120/7 
f 59/120/7 60/121/7 58/119/7 
g drawer

v -0.3828139 0.2978849 0.02 
v -0.4031558 0.3631558 0.02 
v -0.3828139 0.3428138 0.02 
v -0.04718611 0.3428138 0.02 
v -0.04718611 0.2978849 0.02 
v -0.02684418 0.3631558 0.02 
v -0.02684418 0.3631558 0.4 
v -0.4031558 0.3631558 0.4 
v -0.04718611 0.3631558 0.04034193 
v -0.3828139 0.3631558 0.04034193 
v -0.3828139 0.3631558 0.3796581 
v -0.04718611 0.3631558 0.3796581 
v -0.255 0.3103494 0.02 
v -0.255 0.3303494 0.02 
v -0.175 0.3303494 0.02 
v -0.175 0.3103494 0.02 
v -0.04718611 0.2931558 0.04034193 
v -0.04718611 0.2931558 0.3796581 
v -0.3828139 0.2931558 0.04034193 
v -0.3828139 0.2931558 0.3796581 
v -0.255 0.3203494 0 
v -0.175 0.3203494 0 
v -0.255 0.3303494 0.01 
v -0.175 0.3303494 0.01 
v -0.255 0.3103494 0 
v -0.175 0.3103494 0 


vt 14.81542 3.370582 
vt 14.01455 2.569719 
vt 0.8008635 2.569719 
vt 0 3.370582 
vt -14.81542 3.370582 
vt 0 14.96063 
vt 14.01455 14.15977 
vt 0.8008635 14.15977 
vt 14.81542 14.96063 
vt -14.96063 3.370582 
vt -14.96063 0 
vt -14.81542 14.96063 
vt 0 3.123195E-14 
vt 14.96063 3.123195E-14 
vt 14.96063 3.370582 
vt 8.982512 1.29159 
vt 8.982512 2.078992 
vt 5.832906 2.078992 
vt 5.832906 1.29159 
vt -0.8008635 3.370582 
vt -0.8008635 0.6146769 
vt -14.15977 3.370582 
vt -14.15977 0.6146769 
vt 14.01455 0.6146769 
vt 0.8008635 0.6146769 
vt 14.01455 3.370582 
vt 0.8008635 3.370582 
vt 14.15977 0.6146769 
vt 14.15977 3.370582 
vt -14.01455 0.6146769 
vt -14.01455 3.370582 
vt 8.982512 0.6349038 
vt 5.832906 0.6349038 
vt 8.982512 1.191681 
vt 5.832906 1.191681 
vt -0.7874016 1.29159 
vt -0.7874016 1.685291 
vt 0 1.29159 
vt -0.3937008 2.078992 
vt 0 2.078992 
vt 5.832906 -0.3937008 
vt 5.832906 0 
vt 8.982512 -0.3937008 
vt 8.982512 0 
vt 8.982512 1.685291 
vt 5.832906 1.685291 
vt -5.832906 0 
vt -5.832906 -0.7874016 
vt -8.982512 0 
vt -8.982512 -0.7874016 
vt 0.7874016 1.685291 
vt 0.7874016 1.29159 
vt 0.3937008 2.078992 

usemtl woodDark

f 61/90/6 40/9/6 35/96/6 
f 35/96/6 62/122/6 61/90/6 
f 62/122/6 63/123/6 61/90/6 
f 62/122/6 64/124/6 63/123/6 
f 40/9/6 61/90/6 65/88/6 
f 65/88/6 66/125/6 40/9/6 
f 65/88/6 64/124/6 66/125/6 
f 64/124/6 62/122/6 66/125/6 

usemtl wood

f 22/75/2 20/9/2 67/125/2 
f 67/125/2 68/126/2 22/75/2 
f 69/88/1 67/127/1 66/9/1 
f 66/9/1 62/96/1 69/88/1 
f 62/96/1 70/90/1 69/88/1 
f 62/96/1 71/128/1 70/90/1 
f 67/127/1 69/88/1 72/129/1 
f 72/129/1 68/130/1 67/127/1 
f 72/129/1 71/128/1 68/130/1 
f 71/128/1 62/96/1 68/130/1 
f 40/9/4 66/125/4 67/131/4 
f 67/131/4 20/132/4 40/9/4 
f 40/9/3 20/127/3 22/133/3 
f 22/133/3 35/75/3 40/9/3 
f 62/125/5 35/134/5 22/135/5 
f 22/135/5 68/136/5 62/125/5 
f 73/137/6 65/88/6 61/90/6 
f 61/90/6 63/123/6 73/137/6 
f 63/123/6 74/138/6 73/137/6 
f 63/123/6 75/139/6 74/138/6 
f 65/88/6 73/137/6 76/140/6 
f 76/140/6 64/124/6 65/88/6 
f 76/140/6 75/139/6 64/124/6 
f 75/139/6 63/123/6 64/124/6 
f 78/129/1 77/88/1 79/90/1 
f 79/90/1 80/128/1 78/129/1 
f 79/142/4 70/141/4 71/143/4 
f 71/143/4 80/144/4 79/142/4 
f 78/146/6 80/145/6 71/147/6 
f 71/147/6 72/148/6 78/146/6 
f 69/148/5 77/146/5 78/149/5 
f 78/149/5 72/150/5 69/148/5 
f 79/151/2 77/142/2 69/141/2 
f 69/141/2 70/152/2 79/151/2 

usemtl metal

f 82/154/7 81/153/7 83/155/7 
f 83/155/7 84/156/7 82/154/7 
f 81/158/5 85/157/5 73/159/5 
f 73/159/5 83/160/5 81/158/5 
f 73/159/5 74/161/5 83/160/5 
f 75/163/1 84/162/1 83/164/1 
f 83/164/1 74/165/1 75/163/1 
f 86/140/6 85/137/6 81/166/6 
f 81/166/6 82/167/6 86/140/6 
f 86/169/3 76/168/3 73/170/3 
f 73/170/3 85/171/3 86/169/3 
f 86/173/4 82/172/4 84/174/4 
f 84/174/4 76/159/4 86/173/4 
f 84/174/4 75/161/4 76/159/4 
