# Created by Kenney (www.kenney.nl) 

mtllib kitchenFridgeSmall.mtl 

g kitchenFridgeSmall

v 0 0 0.2819339 
v 0 0 0.04 
v -0.43 0 0.2819339 
v -0.43 0 0.04 
v 0 0.6002463 0.02 
v 0 0.6002463 0.2819339 
v -0.43 0.6002463 0.02 
v -0.43 0.6002463 0.2819339 
v 0 0.05998001 0.02 
v 0 0.05998001 0.04 
v -0.07792911 0.07792911 0.2819339 
v -0.07792911 0.3356727 0.2819339 
v -0.3520709 0.3356727 0.2819339 
v -0.3520709 0.07792911 0.2819339 
v -0.43 0.05998001 0.04 
v -0.43 0.05998001 0.02 
v -0.4031558 0.08682419 0.25 
v -0.02684418 0.08682419 0.25 
v -0.4031558 0.5734021 0.25 
v -0.02684418 0.5734021 0.25 
v -0.02684418 0.5734021 0.02 
v -0.4031558 0.5734021 0.02 
v -0.02684418 0.08682419 0.02 
v -0.4031558 0.08682419 0.02 

vn 0 -1 0 
vn 0 1 0 
vn 1 0 0 
vn 0 0 1 
vn -1 0 0 
vn 0 0 -1 

vt 0 11.09976 
vt 0 1.574803 
vt -16.92913 11.09976 
vt -16.92913 1.574803 
vt 0 0.7874016 
vt 16.92913 0.7874016 
vt 16.92913 11.09976 
vt -0.7874016 23.63174 
vt -0.7874016 2.361418 
vt -11.09976 23.63174 
vt -1.574803 2.361418 
vt -1.574803 0 
vt -11.09976 0 
vt -16.92913 0 
vt -3.068075 3.068075 
vt 0 0 
vt 0 23.63174 
vt -3.068075 13.21546 
vt -13.86106 13.21546 
vt -13.86106 3.068075 
vt -16.92913 23.63174 
vt 1.574803 0 
vt 1.574803 2.361418 
vt 11.09976 0 
vt 11.09976 23.63174 
vt 0.7874016 23.63174 
vt 0.7874016 2.361418 
vt 16.92913 0 
vt 16.92913 2.361418 
vt 0 2.361418 
vt -16.92913 0.7874016 
vt 15.87228 3.418275 
vt 1.056858 3.418275 
vt 15.87228 22.57489 
vt 1.056858 22.57489 
vt -1.056858 9.84252 
vt -1.056858 0.7874016 
vt -15.87228 9.84252 
vt -15.87228 0.7874016 
vt 1.056858 0.7874016 
vt 1.056858 9.84252 
vt 15.87228 0.7874016 
vt 15.87228 9.84252 
vt 16.92913 23.63174 
vt -0.7874016 22.57489 
vt -0.7874016 3.418275 
vt -9.84252 22.57489 
vt -9.84252 3.418275 
vt 0.7874016 3.418275 
vt 0.7874016 22.57489 
vt 9.84252 3.418275 
vt 9.84252 22.57489 

usemtl metalLight

f 2/2/1 1/1/1 3/3/1 
f 3/3/1 4/4/1 2/2/1 
f 6/1/2 5/5/2 7/6/2 
f 7/6/2 8/7/2 6/1/2 
f 9/9/3 5/8/3 6/10/3 
f 6/10/3 10/11/3 9/9/3 
f 6/10/3 2/12/3 10/11/3 
f 6/10/3 1/13/3 2/12/3 
f 11/15/4 3/14/4 1/16/4 
f 1/16/4 6/17/4 11/15/4 
f 6/17/4 12/18/4 11/15/4 
f 6/17/4 13/19/4 12/18/4 
f 3/14/4 11/15/4 14/20/4 
f 14/20/4 8/21/4 3/14/4 
f 14/20/4 13/19/4 8/21/4 
f 13/19/4 6/17/4 8/21/4 
f 15/23/5 4/22/5 3/24/5 
f 15/23/5 3/24/5 8/25/5 
f 15/23/5 8/25/5 7/26/5 
f 7/26/5 16/27/5 15/23/5 
f 2/16/6 4/28/6 15/29/6 
f 15/29/6 10/30/6 2/16/6 
f 9/5/1 10/2/1 15/4/1 
f 15/4/1 16/31/1 9/5/1 
f 18/33/6 17/32/6 19/34/6 
f 19/34/6 20/35/6 18/33/6 
f 21/37/1 20/36/1 19/38/1 
f 19/38/1 22/39/1 21/37/1 
f 18/41/2 23/40/2 24/42/2 
f 24/42/2 17/43/2 18/41/2 
f 24/32/6 9/30/6 16/29/6 
f 16/29/6 7/44/6 24/32/6 
f 7/44/6 22/34/6 24/32/6 
f 7/44/6 21/35/6 22/34/6 
f 9/30/6 24/32/6 23/33/6 
f 23/33/6 5/17/6 9/30/6 
f 23/33/6 21/35/6 5/17/6 
f 21/35/6 7/44/6 5/17/6 
f 24/46/3 22/45/3 19/47/3 
f 19/47/3 17/48/3 24/46/3 
f 21/50/5 23/49/5 18/51/5 
f 18/51/5 20/52/5 21/50/5 

usemtl metalDark

f 14/20/4 11/15/4 12/18/4 
f 12/18/4 13/19/4 14/20/4 
g kitchenFridgeSmall




usemtl metalLight

f 2/2/1 1/1/1 3/3/1 
f 3/3/1 4/4/1 2/2/1 
f 6/1/2 5/5/2 7/6/2 
f 7/6/2 8/7/2 6/1/2 
f 9/9/3 5/8/3 6/10/3 
f 6/10/3 10/11/3 9/9/3 
f 6/10/3 2/12/3 10/11/3 
f 6/10/3 1/13/3 2/12/3 
f 11/15/4 3/14/4 1/16/4 
f 1/16/4 6/17/4 11/15/4 
f 6/17/4 12/18/4 11/15/4 
f 6/17/4 13/19/4 12/18/4 
f 3/14/4 11/15/4 14/20/4 
f 14/20/4 8/21/4 3/14/4 
f 14/20/4 13/19/4 8/21/4 
f 13/19/4 6/17/4 8/21/4 
f 15/23/5 4/22/5 3/24/5 
f 15/23/5 3/24/5 8/25/5 
f 15/23/5 8/25/5 7/26/5 
f 7/26/5 16/27/5 15/23/5 
f 2/16/6 4/28/6 15/29/6 
f 15/29/6 10/30/6 2/16/6 
f 9/5/1 10/2/1 15/4/1 
f 15/4/1 16/31/1 9/5/1 
f 18/33/6 17/32/6 19/34/6 
f 19/34/6 20/35/6 18/33/6 
f 21/37/1 20/36/1 19/38/1 
f 19/38/1 22/39/1 21/37/1 
f 18/41/2 23/40/2 24/42/2 
f 24/42/2 17/43/2 18/41/2 
f 24/32/6 9/30/6 16/29/6 
f 16/29/6 7/44/6 24/32/6 
f 7/44/6 22/34/6 24/32/6 
f 7/44/6 21/35/6 22/34/6 
f 9/30/6 24/32/6 23/33/6 
f 23/33/6 5/17/6 9/30/6 
f 23/33/6 21/35/6 5/17/6 
f 21/35/6 7/44/6 5/17/6 
f 24/46/3 22/45/3 19/47/3 
f 19/47/3 17/48/3 24/46/3 
f 21/50/5 23/49/5 18/51/5 
f 18/51/5 20/52/5 21/50/5 

usemtl metalDark

f 14/20/4 11/15/4 12/18/4 
f 12/18/4 13/19/4 14/20/4 
g doorFridge

v -0.02684418 0.08682419 0 
v -0.3631558 0.4534021 0 
v -0.4031558 0.08682419 0 
v -0.4031558 0.5734021 0 
v -0.3631558 0.5334021 0 
v -0.3431558 0.5334021 0 
v -0.3431558 0.4534021 0 
v -0.02684418 0.5734021 0 
v -0.02684418 0.5734021 0.05 
v -0.4031558 0.5734021 0.05 
v -0.4031558 0.08682419 0.05 
v -0.06781388 0.1277939 0.05 
v -0.02684418 0.08682419 0.05 
v -0.06781388 0.2003251 0.05 
v -0.06781388 0.2499012 0.05 
v -0.06781388 0.3703251 0.05 
v -0.06781388 0.4199012 0.05 
v -0.06781388 0.5324324 0.05 
v -0.3621861 0.5324324 0.05 
v -0.3621861 0.1277939 0.05 
v -0.3621861 0.2003251 0.05 
v -0.3621861 0.2499012 0.05 
v -0.3621861 0.3703251 0.05 
v -0.3621861 0.4199012 0.05 
v -0.06781388 0.1277939 0.03 
v -0.3621861 0.1277939 0.03 
v -0.3621861 0.2003251 0.03 
v -0.3621861 0.3703251 0.03 
v -0.3621861 0.5324324 0.03 
v -0.06781388 0.5324324 0.03 
v -0.06781388 0.2003251 0.03 
v -0.06781388 0.3703251 0.03 
v -0.06781388 0.2003251 0.09 
v -0.3621861 0.2003251 0.09 
v -0.06781388 0.2499012 0.09 
v -0.3621861 0.2499012 0.09 
v -0.3621861 0.3703251 0.09 
v -0.3621861 0.4199012 0.09 
v -0.06781388 0.3703251 0.09 
v -0.06781388 0.4199012 0.09 
v -0.3631558 0.4534021 -0.01 
v -0.3431558 0.4534021 -0.01 
v -0.3631558 0.5334021 -0.01 
v -0.3431558 0.5334021 -0.01 


vt 13.24062 14.4322 
vt 14.81542 0 
vt 14.81542 19.15661 
vt 13.24062 17.58181 
vt 12.45321 17.58181 
vt 12.45321 14.4322 
vt 0 19.15661 
vt 0 -0.984252 
vt 0 0.984252 
vt 14.81542 -0.984252 
vt 14.81542 0.984252 
vt -14.81542 0 
vt -1.61298 1.61298 
vt -1.61298 4.46854 
vt -1.61298 6.420354 
vt -1.61298 11.16145 
vt -1.61298 13.11327 
vt -1.61298 17.54363 
vt -13.20244 17.54363 
vt -13.20244 1.61298 
vt -14.81542 19.15661 
vt -13.20244 4.46854 
vt -13.20244 6.420354 
vt -13.20244 11.16145 
vt -13.20244 13.11327 
vt -14.81542 0.984252 
vt -14.81542 -0.984252 
vt 0.984252 19.15661 
vt 0.984252 0 
vt -0.984252 19.15661 
vt -0.984252 0 
vt 1.61298 0.1968504 
vt 1.61298 0.984252 
vt 13.20244 0.1968504 
vt 13.20244 0.984252 
vt -0.1968504 4.46854 
vt -0.1968504 1.61298 
vt -0.984252 4.46854 
vt -0.984252 1.61298 
vt -0.984252 11.16145 
vt -0.1968504 11.16145 
vt -0.984252 6.420354 
vt -0.984252 17.54363 
vt -0.1968504 17.54363 
vt -0.984252 13.11327 
vt -1.61298 0.984252 
vt -1.61298 0.1968504 
vt -13.20244 0.984252 
vt -13.20244 0.1968504 
vt 0.1968504 1.61298 
vt 0.1968504 4.46854 
vt 0.984252 1.61298 
vt 0.984252 4.46854 
vt 0.1968504 11.16145 
vt 0.984252 11.16145 
vt 0.1968504 17.54363 
vt 0.984252 17.54363 
vt 0.984252 13.11327 
vt 0.984252 6.420354 
vt -1.61298 2.559055 
vt -13.20244 2.559055 
vt -2.559055 6.420354 
vt -2.559055 4.46854 
vt 2.559055 4.46854 
vt 2.559055 6.420354 
vt 2.559055 11.16145 
vt 2.559055 13.11327 
vt -2.559055 13.11327 
vt -2.559055 11.16145 
vt -1.377953 14.4322 
vt -1.377953 17.58181 
vt -0.984252 14.4322 
vt -0.984252 17.58181 
vt -12.45321 -0.984252 
vt -12.45321 -1.377953 
vt -13.24062 -0.984252 
vt -13.24062 -1.377953 
vt 12.45321 -1.377953 
vt 12.45321 -0.984252 
vt 13.24062 -1.377953 
vt 13.24062 -0.984252 
vt 1.377953 14.4322 
vt 0.984252 14.4322 
vt 1.377953 17.58181 
vt 0.984252 17.58181 

usemtl metalLight

f 26/53/6 25/16/6 27/54/6 
f 27/54/6 28/55/6 26/53/6 
f 28/55/6 29/56/6 26/53/6 
f 28/55/6 30/57/6 29/56/6 
f 25/16/6 26/53/6 31/58/6 
f 31/58/6 32/59/6 25/16/6 
f 31/58/6 30/57/6 32/59/6 
f 30/57/6 28/55/6 32/59/6 
f 33/61/2 32/60/2 28/62/2 
f 28/62/2 34/63/2 33/61/2 
f 36/65/4 35/64/4 37/16/4 
f 37/16/4 33/59/4 36/65/4 
f 33/59/4 38/66/4 36/65/4 
f 33/59/4 39/67/4 38/66/4 
f 33/59/4 40/68/4 39/67/4 
f 33/59/4 41/69/4 40/68/4 
f 33/59/4 42/70/4 41/69/4 
f 33/59/4 43/71/4 42/70/4 
f 35/64/4 36/65/4 44/72/4 
f 44/72/4 34/73/4 35/64/4 
f 43/71/4 33/59/4 34/73/4 
f 44/72/4 45/74/4 34/73/4 
f 45/74/4 46/75/4 34/73/4 
f 46/75/4 47/76/4 34/73/4 
f 47/76/4 48/77/4 34/73/4 
f 48/77/4 43/71/4 34/73/4 
f 25/60/1 37/61/1 35/78/1 
f 35/78/1 27/79/1 25/60/1 
f 25/81/3 32/80/3 33/82/3 
f 33/82/3 37/83/3 25/81/3 
f 28/82/5 27/83/5 35/81/5 
f 35/81/5 34/80/5 28/82/5 
f 36/85/2 49/84/2 50/86/2 
f 50/86/2 44/87/2 36/85/2 
f 50/89/3 51/88/3 45/90/3 
f 45/90/3 44/91/3 50/89/3 
f 47/92/3 45/90/3 51/88/3 
f 51/88/3 52/93/3 47/92/3 
f 47/92/3 46/94/3 45/90/3 
f 43/95/3 47/92/3 52/93/3 
f 52/93/3 53/96/3 43/95/3 
f 43/95/3 48/97/3 47/92/3 
f 54/99/1 42/98/1 43/100/1 
f 43/100/1 53/101/1 54/99/1 
f 50/72/4 49/65/4 55/66/4 
f 55/66/4 51/74/4 50/72/4 
f 51/74/4 55/66/4 56/68/4 
f 56/68/4 52/76/4 51/74/4 
f 52/76/4 56/68/4 54/70/4 
f 54/70/4 53/71/4 52/76/4 
f 55/103/5 49/102/5 36/104/5 
f 36/104/5 38/105/5 55/103/5 
f 56/106/5 55/103/5 38/105/5 
f 38/105/5 40/107/5 56/106/5 
f 54/108/5 56/106/5 40/107/5 
f 40/107/5 42/109/5 54/108/5 
f 40/107/5 41/110/5 42/109/5 
f 38/105/5 39/111/5 40/107/5 

usemtl glass

f 58/74/4 57/66/4 59/67/4 
f 59/67/4 60/75/4 58/74/4 
f 58/74/6 59/67/6 57/66/6 
f 59/67/6 58/74/6 60/75/6 
f 38/98/1 57/112/1 58/113/1 
f 58/113/1 55/99/1 38/98/1 
f 58/113/1 51/101/1 55/99/1 
f 58/113/1 45/100/1 51/101/1 
f 38/98/2 58/113/2 57/112/2 
f 58/113/2 38/98/2 55/99/2 
f 58/113/2 55/99/2 51/101/2 
f 58/113/2 51/101/2 45/100/2 
f 38/90/3 39/94/3 59/114/3 
f 59/114/3 57/115/3 38/90/3 
f 38/90/5 59/114/5 39/94/5 
f 59/114/5 38/90/5 57/115/5 
f 46/111/5 45/105/5 58/116/5 
f 58/116/5 60/117/5 46/111/5 
f 46/111/3 58/116/3 45/105/3 
f 58/116/3 46/111/3 60/117/3 
f 48/110/5 47/107/5 61/118/5 
f 61/118/5 62/119/5 48/110/5 
f 48/110/3 61/118/3 47/107/3 
f 61/118/3 48/110/3 62/119/3 
f 61/76/4 63/68/4 64/69/4 
f 64/69/4 62/77/4 61/76/4 
f 61/76/6 64/69/6 63/68/6 
f 64/69/6 61/76/6 62/77/6 
f 40/98/1 63/112/1 61/113/1 
f 61/113/1 56/99/1 40/98/1 
f 61/113/1 52/101/1 56/99/1 
f 61/113/1 47/100/1 52/101/1 
f 40/98/2 61/113/2 63/112/2 
f 61/113/2 40/98/2 56/99/2 
f 61/113/2 56/99/2 52/101/2 
f 61/113/2 52/101/2 47/100/2 
f 40/92/3 41/97/3 64/120/3 
f 64/120/3 63/121/3 40/92/3 
f 40/92/5 64/120/5 41/97/5 
f 64/120/5 40/92/5 63/121/5 

usemtl metal

f 66/58/6 65/53/6 67/56/6 
f 67/56/6 68/57/6 66/58/6 
f 67/123/5 65/122/5 26/124/5 
f 26/124/5 29/125/5 67/123/5 
f 66/127/1 31/126/1 26/128/1 
f 26/128/1 65/129/1 66/127/1 
f 30/131/2 68/130/2 67/132/2 
f 67/132/2 29/133/2 30/131/2 
f 31/135/3 66/134/3 68/136/3 
f 68/136/3 30/137/3 31/135/3 
