# Created by Kenney (www.kenney.nl) 

mtllib lampSquareFloor.mtl 

g lampSquareFloor

v -0.12 0.14 0 
v -0.12 0.86 0 
v -0.12 0.14 0.12 
v -0.12 0.86 0.12 
v 0 0.14 0.12 
v 0 0.86 0.12 
v 0 0.14 0 
v 0 0.86 0 
v -0.02081921 0.86 0.02081921 
v -0.09918079 0.86 0.02081921 
v -0.09918079 0.86 0.09918079 
v -0.02081921 0.86 0.09918079 
v -0.02081921 0.14 0.09918079 
v -0.09918079 0.14 0.09918079 
v -0.09918079 0.14 0.02081921 
v -0.02081921 0.14 0.02081921 
v 0 0 0.12 
v 0 0 0 
v -0.12 0 0.12 
v -0.12 0 0 
v -0.012 0.02 0.108 
v -0.05274148 0.02 0.05274148 
v -0.012 0.02 0.012 
v -0.108 0.02 0.012 
v -0.06725851 0.02 0.05274148 
v -0.06725851 0.02 0.06725851 
v -0.05274148 0.02 0.06725851 
v -0.108 0.02 0.108 
v -0.05092685 0.77 0.05092685 
v -0.05092685 0.77 0.06907315 
v -0.06907315 0.77 0.05092685 
v -0.06907315 0.77 0.06907315 

vn -1 0 0 
vn 0 0 1 
vn 0 0 -1 
vn 0 1 0 
vn 1 0 0 
vn 0 -1 0 
vn 0 0.5144957 -0.8574929 
vn 0 0.5144957 0.8574929 
vn 0 -0.002419498 0.9999971 
vn 0.8574929 0.5144957 0 
vn -0.8574929 0.5144957 0 
vn -0.9999971 -0.002419498 0 
vn 0 -0.002419498 -0.9999971 
vn 0.9999971 -0.002419498 0 

vt 0 5.511811 
vt 0 33.85827 
vt 4.72441 5.511811 
vt 4.72441 33.85827 
vt -4.72441 5.511811 
vt -4.72441 33.85827 
vt 0 4.72441 
vt 0.819654 0.819654 
vt 0 0 
vt 4.72441 0 
vt 3.904755 0.819654 
vt 3.904755 3.904755 
vt 0.819654 3.904755 
vt 4.72441 4.72441 
vt -0.819654 3.904755 
vt -4.72441 4.72441 
vt -3.904755 3.904755 
vt -3.904755 0.819654 
vt -0.819654 0.819654 
vt -4.72441 0 
vt 0.819654 5.511811 
vt 0.819654 33.85827 
vt 3.904755 5.511811 
vt 3.904755 33.85827 
vt -0.819654 5.511811 
vt -3.904755 5.511811 
vt -0.819654 33.85827 
vt -3.904755 33.85827 
vt 0.472441 4.251968 
vt 2.076436 2.076436 
vt 0.472441 0.472441 
vt 4.251968 0.472441 
vt 2.647973 2.076436 
vt 2.647973 2.647973 
vt 2.076436 2.647973 
vt 4.251968 4.251968 
vt 2.004994 2.004994 
vt 2.004994 2.719415 
vt 2.719415 2.004994 
vt 2.719415 2.719415 
vt 4.72441 7.350511E-30 
vt 4.251968 0.9182602 
vt 0.472441 0.9182602 
vt 3.727712E-29 -2.430689 
vt -4.72441 -2.430689 
vt -0.472441 -1.512429 
vt -4.251968 -1.512429 
vt -2.076436 0.793806 
vt -2.647973 0.793806 
vt -2.004994 30.32145 
vt -2.719415 30.32145 
vt -4.72441 1.470102E-29 
vt -0.472441 0.9182602 
vt -4.251968 0.9182602 
vt -2.29903E-29 -2.430689 
vt 0.472441 -1.512429 
vt 4.72441 -2.430689 
vt 4.251968 -1.512429 
vt 2.004994 30.32145 
vt 2.719415 30.32145 
vt 2.076436 0.793806 
vt 2.647973 0.793806 
vt 2.647973 0.7823753 
vt 2.076436 0.7823753 
vt 2.719415 30.31002 
vt 2.004994 30.31002 
vt -2.004994 30.31002 
vt -2.076436 0.7823753 
vt -2.719415 30.31002 
vt -2.647973 0.7823753 

usemtl lamp

f 2/2/1 1/1/1 3/3/1 
f 3/3/1 4/4/1 2/2/1 
f 3/5/2 5/1/2 6/2/2 
f 6/2/2 4/6/2 3/5/2 
f 7/1/3 1/3/3 2/4/3 
f 2/4/3 8/2/3 7/1/3 
f 9/8/4 6/7/4 8/9/4 
f 8/9/4 2/10/4 9/8/4 
f 2/10/4 10/11/4 9/8/4 
f 2/10/4 11/12/4 10/11/4 
f 6/7/4 9/8/4 12/13/4 
f 12/13/4 4/14/4 6/7/4 
f 12/13/4 11/12/4 4/14/4 
f 11/12/4 2/10/4 4/14/4 
f 7/1/5 8/2/5 6/6/5 
f 6/6/5 5/5/5 7/1/5 
f 13/15/6 7/9/6 5/7/6 
f 5/7/6 3/16/6 13/15/6 
f 3/16/6 14/17/6 13/15/6 
f 3/16/6 15/18/6 14/17/6 
f 7/9/6 13/15/6 16/19/6 
f 16/19/6 1/20/6 7/9/6 
f 16/19/6 15/18/6 1/20/6 
f 15/18/6 3/16/6 1/20/6 
f 9/22/1 16/21/1 13/23/1 
f 13/23/1 12/24/1 9/22/1 
f 15/26/2 16/25/2 9/27/2 
f 9/27/2 10/28/2 15/26/2 
f 13/21/3 14/23/3 11/24/3 
f 11/24/3 12/22/3 13/21/3 
f 15/25/5 10/27/5 11/28/5 
f 11/28/5 14/26/5 15/25/5 

usemtl metal

f 18/9/6 17/7/6 19/16/6 
f 19/16/6 20/20/6 18/9/6 
f 22/30/4 21/29/4 23/31/4 
f 23/31/4 24/32/4 22/30/4 
f 24/32/4 25/33/4 22/30/4 
f 24/32/4 26/34/4 25/33/4 
f 21/29/4 22/30/4 27/35/4 
f 27/35/4 28/36/4 21/29/4 
f 27/35/4 26/34/4 28/36/4 
f 26/34/4 24/32/4 28/36/4 
f 30/38/4 29/37/4 31/39/4 
f 31/39/4 32/40/4 30/38/4 
f 18/9/7 20/41/7 24/42/7 
f 24/42/7 23/43/7 18/9/7 
f 19/45/8 17/44/8 21/46/8 
f 21/46/8 28/47/8 19/45/8 
f 26/49/9 27/48/9 30/50/9 
f 30/50/9 32/51/9 26/49/9 
f 17/52/10 18/9/10 23/53/10 
f 23/53/10 21/54/10 17/52/10 
f 24/56/11 20/55/11 19/57/11 
f 19/57/11 28/58/11 24/56/11 
f 32/60/12 31/59/12 25/61/12 
f 25/61/12 26/62/12 32/60/12 
f 22/64/13 25/63/13 31/65/13 
f 31/65/13 29/66/13 22/64/13 
f 22/68/14 29/67/14 30/69/14 
f 30/69/14 27/70/14 22/68/14 
g lampSquareFloor




usemtl lamp

f 2/2/1 1/1/1 3/3/1 
f 3/3/1 4/4/1 2/2/1 
f 3/5/2 5/1/2 6/2/2 
f 6/2/2 4/6/2 3/5/2 
f 7/1/3 1/3/3 2/4/3 
f 2/4/3 8/2/3 7/1/3 
f 9/8/4 6/7/4 8/9/4 
f 8/9/4 2/10/4 9/8/4 
f 2/10/4 10/11/4 9/8/4 
f 2/10/4 11/12/4 10/11/4 
f 6/7/4 9/8/4 12/13/4 
f 12/13/4 4/14/4 6/7/4 
f 12/13/4 11/12/4 4/14/4 
f 11/12/4 2/10/4 4/14/4 
f 7/1/5 8/2/5 6/6/5 
f 6/6/5 5/5/5 7/1/5 
f 13/15/6 7/9/6 5/7/6 
f 5/7/6 3/16/6 13/15/6 
f 3/16/6 14/17/6 13/15/6 
f 3/16/6 15/18/6 14/17/6 
f 7/9/6 13/15/6 16/19/6 
f 16/19/6 1/20/6 7/9/6 
f 16/19/6 15/18/6 1/20/6 
f 15/18/6 3/16/6 1/20/6 
f 9/22/1 16/21/1 13/23/1 
f 13/23/1 12/24/1 9/22/1 
f 15/26/2 16/25/2 9/27/2 
f 9/27/2 10/28/2 15/26/2 
f 13/21/3 14/23/3 11/24/3 
f 11/24/3 12/22/3 13/21/3 
f 15/25/5 10/27/5 11/28/5 
f 11/28/5 14/26/5 15/25/5 

usemtl metal

f 18/9/6 17/7/6 19/16/6 
f 19/16/6 20/20/6 18/9/6 
f 22/30/4 21/29/4 23/31/4 
f 23/31/4 24/32/4 22/30/4 
f 24/32/4 25/33/4 22/30/4 
f 24/32/4 26/34/4 25/33/4 
f 21/29/4 22/30/4 27/35/4 
f 27/35/4 28/36/4 21/29/4 
f 27/35/4 26/34/4 28/36/4 
f 26/34/4 24/32/4 28/36/4 
f 30/38/4 29/37/4 31/39/4 
f 31/39/4 32/40/4 30/38/4 
f 18/9/7 20/41/7 24/42/7 
f 24/42/7 23/43/7 18/9/7 
f 19/45/8 17/44/8 21/46/8 
f 21/46/8 28/47/8 19/45/8 
f 26/49/9 27/48/9 30/50/9 
f 30/50/9 32/51/9 26/49/9 
f 17/52/10 18/9/10 23/53/10 
f 23/53/10 21/54/10 17/52/10 
f 24/56/11 20/55/11 19/57/11 
f 19/57/11 28/58/11 24/56/11 
f 32/60/12 31/59/12 25/61/12 
f 25/61/12 26/62/12 32/60/12 
f 22/64/13 25/63/13 31/65/13 
f 31/65/13 29/66/13 22/64/13 
f 22/68/14 29/67/14 30/69/14 
f 30/69/14 27/70/14 22/68/14 
