# Created by Kenney (www.kenney.nl) 

mtllib lampRoundFloor.mtl 

g lampRoundFloor

v 0 0 0.12 
v 0 0 0 
v -0.12 0 0.12 
v -0.12 0 0 
v -0.012 0.02 0.108 
v -0.05274148 0.02 0.05274148 
v -0.012 0.02 0.012 
v -0.108 0.02 0.012 
v -0.06725851 0.02 0.05274148 
v -0.06725851 0.02 0.06725851 
v -0.05274148 0.02 0.06725851 
v -0.108 0.02 0.108 
v -0.05092685 0.76075 0.05092685 
v -0.05092685 0.76075 0.06907315 
v -0.06907315 0.76075 0.05092685 
v -0.06907315 0.76075 0.06907315 
v -0.09879938 0.6815 0.08240083 
v -0.06 0.6815 0.1048017 
v -0.09879938 0.86 0.08240083 
v -0.06 0.86 0.1048017 
v -0.02120062 0.6815 0.03759917 
v -0.02120062 0.86 0.03759917 
v -0.02120062 0.6815 0.08240083 
v -0.02120062 0.86 0.08240083 
v -0.09879938 0.86 0.03759917 
v -0.09879938 0.6815 0.03759917 
v -0.06 0.6815 0.01519834 
v -0.06 0.86 0.01519834 
v 0.01601971 0.6815 0.10389 
v -0.06 0.6815 0.14778 
v -0.1360197 0.6815 0.10389 
v 0.01601971 0.6815 0.01611 
v -0.06 0.6815 -0.02778 
v -0.1360197 0.6815 0.01611 
v -0.006026006 0.86 0.0911619 
v -0.006026006 0.86 0.0288381 
v -0.06 0.86 -0.0023238 
v -0.113974 0.86 0.0288381 
v -0.06 0.86 0.1223238 
v -0.113974 0.86 0.0911619 

vn 0 -1 0 
vn 0 1 0 
vn -0.8574929 0.5144957 0 
vn 0 0.5144957 -0.8574929 
vn 0 -0.002449712 0.999997 
vn 0.999997 -0.002449712 0 
vn 0 -0.002449712 -0.999997 
vn 0 0.5144957 0.8574929 
vn -0.999997 -0.002449712 0 
vn 0.8574929 0.5144957 0 
vn 0.5 0 -0.8660254 
vn -1 0 0 
vn 1 0 0 
vn -0.5 0 -0.8660254 
vn 0.5 0 0.8660254 
vn -0.5 0 0.8660254 
vn 0.4962297 0.1225741 -0.859495 
vn 0.9924594 0.1225741 0 
vn -0.9924594 0.1225741 0 
vn -0.4962297 0.1225741 0.859495 
vn -0.4962297 0.1225741 -0.859495 
vn 0.4962297 0.1225741 0.859495 

vt 0 4.72441 
vt 0 0 
vt -4.72441 4.72441 
vt -4.72441 0 
vt 0.472441 4.251968 
vt 2.076436 2.076436 
vt 0.472441 0.472441 
vt 4.251968 0.472441 
vt 2.647973 2.076436 
vt 2.647973 2.647973 
vt 2.076436 2.647973 
vt 4.251968 4.251968 
vt 2.004994 2.004994 
vt 2.004994 2.719415 
vt 2.719415 2.004994 
vt 2.719415 2.719415 
vt -2.86582E-18 -2.430689 
vt 0.472441 -1.512429 
vt 4.72441 -2.430689 
vt 4.251968 -1.512429 
vt 4.72441 0 
vt 4.251968 0.9182602 
vt 0.472441 0.9182602 
vt -2.076436 0.793886 
vt -2.647973 0.793886 
vt -2.004994 29.95736 
vt -2.719415 29.95736 
vt -2.004994 29.94579 
vt -2.076436 0.7823126 
vt -2.719415 29.94579 
vt -2.647973 0.7823126 
vt 2.647973 0.7823126 
vt 2.076436 0.7823126 
vt 2.719415 29.94579 
vt 2.004994 29.94579 
vt 0 -2.430689 
vt -4.72441 -2.430689 
vt -0.472441 -1.512429 
vt -4.251968 -1.512429 
vt 2.004994 29.95736 
vt 2.719415 29.95736 
vt 2.076436 0.793886 
vt 2.647973 0.793886 
vt -4.72441 5.897808E-18 
vt -0.472441 0.9182602 
vt -4.251968 0.9182602 
vt 1.746549 26.83071 
vt -0.01729553 26.83071 
vt 1.746549 33.85827 
vt -0.01729553 33.85827 
vt 1.480282 26.83071 
vt 1.480282 33.85827 
vt 3.244127 26.83071 
vt 3.244127 33.85827 
vt -1.480282 33.85827 
vt -1.480282 26.83071 
vt -3.244127 33.85827 
vt -3.244127 26.83071 
vt 4.108754 26.83071 
vt 2.344909 26.83071 
vt 4.108754 33.85827 
vt 2.344909 33.85827 
vt -2.344909 26.83071 
vt -4.108754 26.83071 
vt -2.344909 33.85827 
vt -4.108754 33.85827 
vt 0.01729553 26.83071 
vt -1.746549 26.83071 
vt 0.01729553 33.85827 
vt -1.746549 33.85827 
vt 0.6306973 4.090158 
vt -0.8346702 3.244127 
vt -2.362205 5.81811 
vt -2.362205 4.12605 
vt -5.355107 4.090158 
vt -3.889739 3.244127 
vt -3.889739 1.480282 
vt -0.8346702 1.480282 
vt 0.6306973 0.634252 
vt -2.362205 -1.093701 
vt -2.362205 0.5983598 
vt -5.355107 0.634252 
vt 0.2372443 3.589051 
vt 0.8346702 1.480282 
vt 0.2372443 1.135358 
vt 2.362205 -0.09148819 
vt 2.362205 0.5983598 
vt 4.487165 1.135358 
vt 3.889739 1.480282 
vt 3.889739 3.244127 
vt 0.8346702 3.244127 
vt 2.362205 4.815897 
vt 2.362205 4.12605 
vt 4.487165 3.589051 
vt 2.59258 26.65706 
vt -0.8633258 26.65706 
vt 2.091473 33.73801 
vt -0.3622195 33.73801 
vt -0.634252 26.55108 
vt -4.090158 26.55108 
vt -1.135358 33.63203 
vt -3.589051 33.63203 
vt 0.634252 25.97199 
vt 1.135358 33.05294 
vt 4.090158 25.97199 
vt 3.589051 33.05294 
vt 0.8633258 25.86601 
vt -2.59258 25.86601 
vt 0.3622195 32.94696 
vt -2.091473 32.94696 
vt 4.954784 26.36752 
vt 1.498879 26.36752 
vt 4.453678 33.44847 
vt 1.999985 33.44847 
vt -1.498879 26.15556 
vt -4.954784 26.15556 
vt -1.999985 33.23651 
vt -4.453678 33.23651 

usemtl metal

f 2/2/1 1/1/1 3/3/1 
f 3/3/1 4/4/1 2/2/1 
f 6/6/2 5/5/2 7/7/2 
f 7/7/2 8/8/2 6/6/2 
f 8/8/2 9/9/2 6/6/2 
f 8/8/2 10/10/2 9/9/2 
f 5/5/2 6/6/2 11/11/2 
f 11/11/2 12/12/2 5/5/2 
f 11/11/2 10/10/2 12/12/2 
f 10/10/2 8/8/2 12/12/2 
f 14/14/2 13/13/2 15/15/2 
f 15/15/2 16/16/2 14/14/2 
f 8/18/3 4/17/3 3/19/3 
f 3/19/3 12/20/3 8/18/3 
f 2/2/4 4/21/4 8/22/4 
f 8/22/4 7/23/4 2/2/4 
f 10/25/5 11/24/5 14/26/5 
f 14/26/5 16/27/5 10/25/5 
f 6/29/6 13/28/6 14/30/6 
f 14/30/6 11/31/6 6/29/6 
f 6/33/7 9/32/7 15/34/7 
f 15/34/7 13/35/7 6/33/7 
f 3/37/8 1/36/8 5/38/8 
f 5/38/8 12/39/8 3/37/8 
f 16/41/9 15/40/9 9/42/9 
f 9/42/9 10/43/9 16/41/9 
f 1/44/10 2/2/10 7/45/10 
f 7/45/10 5/46/10 1/44/10 

usemtl lamp

f 18/48/11 17/47/11 19/49/11 
f 19/49/11 20/50/11 18/48/11 
f 22/52/12 21/51/12 23/53/12 
f 23/53/12 24/54/12 22/52/12 
f 26/56/13 25/55/13 19/57/13 
f 19/57/13 17/58/13 26/56/13 
f 23/60/14 18/59/14 20/61/14 
f 20/61/14 24/62/14 23/60/14 
f 26/64/15 27/63/15 28/65/15 
f 28/65/15 25/66/15 26/64/15 
f 27/68/16 21/67/16 22/69/16 
f 22/69/16 28/70/16 27/68/16 
f 23/72/1 29/71/1 30/73/1 
f 30/73/1 18/74/1 23/72/1 
f 30/73/1 31/75/1 18/74/1 
f 31/75/1 17/76/1 18/74/1 
f 31/75/1 26/77/1 17/76/1 
f 29/71/1 23/72/1 21/78/1 
f 32/79/1 29/71/1 21/78/1 
f 21/78/1 33/80/1 32/79/1 
f 21/78/1 27/81/1 33/80/1 
f 27/81/1 34/82/1 33/80/1 
f 27/81/1 26/77/1 34/82/1 
f 26/77/1 31/75/1 34/82/1 
f 22/84/2 35/83/2 36/85/2 
f 36/85/2 37/86/2 22/84/2 
f 37/86/2 28/87/2 22/84/2 
f 37/86/2 38/88/2 28/87/2 
f 38/88/2 25/89/2 28/87/2 
f 38/88/2 19/90/2 25/89/2 
f 35/83/2 22/84/2 24/91/2 
f 24/91/2 39/92/2 35/83/2 
f 24/91/2 20/93/2 39/92/2 
f 20/93/2 19/90/2 39/92/2 
f 19/90/2 40/94/2 39/92/2 
f 19/90/2 38/88/2 40/94/2 
f 32/96/17 33/95/17 37/97/17 
f 37/97/17 36/98/17 32/96/17 
f 29/100/18 32/99/18 36/101/18 
f 36/101/18 35/102/18 29/100/18 
f 38/104/19 34/103/19 31/105/19 
f 31/105/19 40/106/19 38/104/19 
f 31/108/20 30/107/20 39/109/20 
f 39/109/20 40/110/20 31/108/20 
f 33/112/21 34/111/21 38/113/21 
f 38/113/21 37/114/21 33/112/21 
f 30/116/22 29/115/22 35/117/22 
f 35/117/22 39/118/22 30/116/22 
g lampRoundFloor




usemtl metal

f 2/2/1 1/1/1 3/3/1 
f 3/3/1 4/4/1 2/2/1 
f 6/6/2 5/5/2 7/7/2 
f 7/7/2 8/8/2 6/6/2 
f 8/8/2 9/9/2 6/6/2 
f 8/8/2 10/10/2 9/9/2 
f 5/5/2 6/6/2 11/11/2 
f 11/11/2 12/12/2 5/5/2 
f 11/11/2 10/10/2 12/12/2 
f 10/10/2 8/8/2 12/12/2 
f 14/14/2 13/13/2 15/15/2 
f 15/15/2 16/16/2 14/14/2 
f 8/18/3 4/17/3 3/19/3 
f 3/19/3 12/20/3 8/18/3 
f 2/2/4 4/21/4 8/22/4 
f 8/22/4 7/23/4 2/2/4 
f 10/25/5 11/24/5 14/26/5 
f 14/26/5 16/27/5 10/25/5 
f 6/29/6 13/28/6 14/30/6 
f 14/30/6 11/31/6 6/29/6 
f 6/33/7 9/32/7 15/34/7 
f 15/34/7 13/35/7 6/33/7 
f 3/37/8 1/36/8 5/38/8 
f 5/38/8 12/39/8 3/37/8 
f 16/41/9 15/40/9 9/42/9 
f 9/42/9 10/43/9 16/41/9 
f 1/44/10 2/2/10 7/45/10 
f 7/45/10 5/46/10 1/44/10 

usemtl lamp

f 18/48/11 17/47/11 19/49/11 
f 19/49/11 20/50/11 18/48/11 
f 22/52/12 21/51/12 23/53/12 
f 23/53/12 24/54/12 22/52/12 
f 26/56/13 25/55/13 19/57/13 
f 19/57/13 17/58/13 26/56/13 
f 23/60/14 18/59/14 20/61/14 
f 20/61/14 24/62/14 23/60/14 
f 26/64/15 27/63/15 28/65/15 
f 28/65/15 25/66/15 26/64/15 
f 27/68/16 21/67/16 22/69/16 
f 22/69/16 28/70/16 27/68/16 
f 23/72/1 29/71/1 30/73/1 
f 30/73/1 18/74/1 23/72/1 
f 30/73/1 31/75/1 18/74/1 
f 31/75/1 17/76/1 18/74/1 
f 31/75/1 26/77/1 17/76/1 
f 29/71/1 23/72/1 21/78/1 
f 32/79/1 29/71/1 21/78/1 
f 21/78/1 33/80/1 32/79/1 
f 21/78/1 27/81/1 33/80/1 
f 27/81/1 34/82/1 33/80/1 
f 27/81/1 26/77/1 34/82/1 
f 26/77/1 31/75/1 34/82/1 
f 22/84/2 35/83/2 36/85/2 
f 36/85/2 37/86/2 22/84/2 
f 37/86/2 28/87/2 22/84/2 
f 37/86/2 38/88/2 28/87/2 
f 38/88/2 25/89/2 28/87/2 
f 38/88/2 19/90/2 25/89/2 
f 35/83/2 22/84/2 24/91/2 
f 24/91/2 39/92/2 35/83/2 
f 24/91/2 20/93/2 39/92/2 
f 20/93/2 19/90/2 39/92/2 
f 19/90/2 40/94/2 39/92/2 
f 19/90/2 38/88/2 40/94/2 
f 32/96/17 33/95/17 37/97/17 
f 37/97/17 36/98/17 32/96/17 
f 29/100/18 32/99/18 36/101/18 
f 36/101/18 35/102/18 29/100/18 
f 38/104/19 34/103/19 31/105/19 
f 31/105/19 40/106/19 38/104/19 
f 31/108/20 30/107/20 39/109/20 
f 39/109/20 40/110/20 31/108/20 
f 33/112/21 34/111/21 38/113/21 
f 38/113/21 37/114/21 33/112/21 
f 30/116/22 29/115/22 35/117/22 
f 35/117/22 39/118/22 30/116/22 
