# Created by Kenney (www.kenney.nl) 

mtllib loungeDesignSofaCorner.mtl 

g loungeDesignSofaCorner

v -0.9398286 0.05 0.9398286 
v -0.8923386 0.05 1.282339 
v -0.1601714 0.05 0.9398286 
v -0.8923386 0.05 1.332339 
v -0.9423386 0.05 1.282339 
v -0.9598285 0.05 0.1601714 
v -0.9398286 0.05 0.1601714 
v -0.1601714 0.05 0.9598285 
v -0.06749 0.05 0.9773185 
v -0.06749 0.05 1.027319 
v -0.06749 0.05 1.282339 
v -0.06749 0.05 1.332339 
v -1.349828 0.05 1.349828 
v -0.01749 0.05 1.332339 
v 0 0.05 1.349828 
v 0 0.05 0.9598285 
v -0.9423386 0.05 1.332339 
v -1.282339 0.05 1.332339 
v -0.9773185 0.05 0.06749 
v -0.9773185 0.05 0.01749001 
v -1.027319 0.05 0.06749 
v -1.282339 0.05 0.01749 
v -1.282339 0.05 0.06749 
v -1.282339 0.05 0.8923386 
v -1.332339 0.05 0.06749 
v -1.332339 0.05 0.8923386 
v -1.332339 0.05 1.332339 
v -1.332339 0.05 1.282339 
v -1.332339 0.05 0.9423386 
v -1.349828 0.05 0 
v -0.9598285 0.05 8.218493E-09 
v -1.027318 0.05 0.01749001 
v -1.332339 0.05 0.01749 
v -1.282339 0.05 0.9423386 
v -1.282339 0.05 1.282339 
v -0.01749 0.05 0.9773185 
v -0.01749 0.05 1.282339 
v -0.01749 0.05 1.027319 
v -1.349828 0.33 0 
v -0.9598285 0.33 8.218493E-09 
v -0.9598285 0.33 0.1601714 
v -0.9598285 0.23 0.1601714 
v -1.259657 0.4 0.1601714 
v -1.243694 0.33 0.1601714 
v -1.259657 0.4 1.259657 
v -1.22089 0.23 0.1601714 
v -1.22089 0.23 1.22089 
v -0.9398286 0.23 0.1601714 
v -0.9398286 0.23 0.9398286 
v -1.349828 0.33 0.1601714 
v -1.349828 0.4 0.1601714 
v -1.349828 0.4 1.349828 
v 0 0.33 1.349828 
v -0.1601714 0.33 1.349828 
v -0.1601714 0.4 1.349828 
v -0.1601714 0.23 0.9398286 
v -0.1601714 0.23 0.9598285 
v -0.1601714 0.4 1.259657 
v 0 0.33 0.9598285 
v -0.1601714 0.33 0.9598285 
v -0.1601714 0.23 1.22089 
v -0.1601714 0.33 1.243694 
v -1.324829 1.804779E-16 0.025 
v -1.289848 1.804779E-16 0.025 
v -1.289848 1.804779E-16 0.05998 
v -1.324829 1.804779E-16 0.05998 
v -1.019809 1.804779E-16 0.02500001 
v -1.019809 1.804779E-16 0.05998001 
v -1.289849 0 0.9348286 
v -1.324829 0 0.9348286 
v -0.9848285 1.804779E-16 0.02500001 
v -0.9848285 1.804779E-16 0.05998001 
v -1.324829 0 0.8998486 
v -1.289849 0 0.8998486 
v -0.025 0 1.019809 
v -0.05998 0 1.019809 
v -0.025 0 0.9848285 
v -0.05998 0 0.9848285 
v -0.025 0 1.324829 
v -0.05998 0 1.324829 
v -0.05998 0 1.289849 
v -0.025 0 1.289849 
v -1.289849 5.752732E-16 1.289849 
v -1.289849 5.696332E-16 1.324829 
v -1.324829 5.752732E-16 1.324829 
v -1.324829 5.752732E-16 1.289849 

vn 0 -1 0 
vn 0 0 -1 
vn 1 0 0 
vn 0.9749711 0.222332 0 
vn 0 1 0 
vn 0 0 1 
vn -1 0 0 
vn 0 0.222332 -0.9749711 
vn 0 -0.1485339 -0.9889073 
vn 0.9889073 -0.1485339 0 
vn -0.9889073 -0.1485339 0 
vn 0 -0.1485339 0.9889073 

vt -37.00113 37.00113 
vt -35.13144 50.48577 
vt -6.305962 37.00113 
vt -35.13144 52.45427 
vt -37.09995 50.48577 
vt -37.78852 6.305963 
vt -37.00113 6.305963 
vt -6.305962 37.78852 
vt -2.657087 38.47711 
vt -2.657087 40.44561 
vt -2.657087 50.48577 
vt -2.657087 52.45427 
vt -53.14286 53.14286 
vt -0.6885827 52.45427 
vt -4.866815E-17 53.14286 
vt -4.866815E-17 37.78852 
vt -37.09995 52.45427 
vt -50.48577 52.45427 
vt -38.47711 2.657087 
vt -38.47711 0.688583 
vt -40.44561 2.657087 
vt -50.48577 0.6885827 
vt -50.48577 2.657087 
vt -50.48577 35.13144 
vt -52.45427 2.657087 
vt -52.45427 35.13144 
vt -52.45427 52.45427 
vt -52.45427 50.48577 
vt -52.45427 37.09995 
vt -53.14286 -9.686729E-17 
vt -37.78852 3.235627E-07 
vt -40.44561 0.688583 
vt -52.45427 0.6885827 
vt -50.48577 37.09995 
vt -50.48577 50.48577 
vt -0.6885827 38.47711 
vt -0.6885827 50.48577 
vt -0.6885827 40.44561 
vt 53.14286 1.968504 
vt 37.78852 1.968504 
vt 53.14286 12.99213 
vt 37.78852 12.99213 
vt -1.119883E-06 12.99213 
vt -1.119883E-06 1.968504 
vt -6.305963 12.99213 
vt -6.305963 1.968504 
vt -6.305963 9.055119 
vt -6.305963 26.37994 
vt -6.305963 23.55329 
vt -49.5928 26.37994 
vt -6.305963 19.51521 
vt -48.06655 19.51521 
vt -37.00113 9.055119 
vt -37.00113 1.968504 
vt 37.00113 1.968504 
vt 37.78852 9.055119 
vt 37.00113 9.055119 
vt 48.96434 12.99213 
vt 49.5928 15.74803 
vt 53.14286 15.74803 
vt 37.78852 3.235628E-07 
vt 37.78852 6.305963 
vt 53.14286 2.101413E-14 
vt 48.96434 6.305962 
vt 53.14286 6.305962 
vt -37.78852 9.055119 
vt -48.06655 9.055119 
vt -37.78852 12.99213 
vt -48.96434 12.99213 
vt 7.820101E-07 1.968504 
vt 7.820101E-07 12.99213 
vt 6.305963 12.99213 
vt 6.305963 15.74803 
vt 1.516024E-13 1.968504 
vt -53.14286 1.968504 
vt 1.516024E-13 12.99213 
vt -6.305962 12.99213 
vt -53.14286 15.74803 
vt -6.305962 15.74803 
vt 6.305962 1.968504 
vt 6.305962 9.055119 
vt -37.78852 1.968504 
vt 49.5928 6.305962 
vt 49.5928 49.5928 
vt 53.14286 53.14286 
vt 6.305962 53.14286 
vt 6.305962 49.5928 
vt -53.14286 12.99213 
vt 0 1.968504 
vt 0 12.99213 
vt 6.305962 12.99213 
vt 37.00113 6.305963 
vt 37.00113 37.00113 
vt 48.06655 48.06655 
vt 6.305962 48.06655 
vt 6.305962 37.78852 
vt 6.305962 37.00113 
vt 48.06655 6.305962 
vt 48.06655 19.51521 
vt 6.305962 19.51521 
vt 49.5928 26.37994 
vt 6.305962 23.55329 
vt 6.305962 26.37994 
vt 5.107615E-15 37.78852 
vt 5.107615E-15 53.14286 
vt 6.305962 48.96434 
vt 48.06655 9.055119 
vt -49.5928 15.74803 
vt 52.1586 -0.1461949 
vt 50.78144 -0.1461949 
vt 52.45427 1.84439 
vt 50.48577 1.84439 
vt -50.78144 0.984252 
vt -52.1586 0.984252 
vt -50.78144 2.361417 
vt -52.1586 2.361417 
vt -0.6885838 -5.552179 
vt -0.9842531 -7.542764 
vt -2.657088 -5.552179 
vt -2.361418 -7.542764 
vt 0.6885838 7.954212 
vt 2.657088 7.954212 
vt 0.9842531 5.963627 
vt 2.361418 5.963627 
vt 0.6885838 9.737905 
vt 2.657088 9.737905 
vt 0.9842531 7.74732 
vt 2.361418 7.74732 
vt -50.78144 5.466682 
vt -52.1586 5.466682 
vt -50.48577 7.457267 
vt -52.45427 7.457267 
vt -38.77278 0.9842523 
vt -40.14994 0.9842522 
vt -38.77278 2.361418 
vt -40.14994 2.361418 
vt 52.1586 -5.262126 
vt 50.78144 -5.262126 
vt 52.45427 -3.271541 
vt 50.48577 -3.271541 
vt -50.78144 0.3507507 
vt -52.1586 0.3507507 
vt -50.48577 2.341336 
vt -52.45427 2.341336 
vt -50.78144 35.42711 
vt -52.1586 35.42711 
vt -50.78144 36.80428 
vt -52.1586 36.80428 
vt -0.6885838 -3.768486 
vt -0.9842531 -5.759071 
vt -2.657088 -3.768486 
vt -2.361418 -5.759071 
vt -35.13144 -5.552179 
vt -35.42711 -7.542764 
vt -37.09995 -5.552179 
vt -36.80428 -7.542764 
vt -38.77278 0.3507507 
vt -40.14994 0.3507507 
vt -38.47711 2.341336 
vt -40.44561 2.341336 
vt 40.14994 -0.1461949 
vt 38.77278 -0.1461949 
vt 40.44561 1.84439 
vt 38.47711 1.84439 
vt 35.13144 9.737905 
vt 37.09995 9.737905 
vt 35.42711 7.74732 
vt 36.80428 7.74732 
vt -0.984252 5.963627 
vt -2.361417 5.963627 
vt -0.6885827 7.954212 
vt -2.657087 7.954212 
vt -0.984252 40.14994 
vt -0.984252 38.77278 
vt -2.361417 40.14994 
vt -2.361417 38.77278 
vt -0.984252 7.74732 
vt -2.361417 7.74732 
vt -0.6885827 9.737905 
vt -2.657087 9.737905 
vt 38.47711 2.341335 
vt 40.44561 2.341335 
vt 38.77278 0.3507505 
vt 40.14994 0.3507505 
vt 2.361417 -7.542764 
vt 0.984252 -7.542764 
vt 2.657087 -5.552179 
vt 0.6885827 -5.552179 
vt -0.984252 52.1586 
vt -0.984252 50.78144 
vt -2.361417 52.1586 
vt -2.361417 50.78144 
vt -50.48577 1.84439 
vt -50.78144 -0.1461948 
vt -52.45427 1.84439 
vt -52.1586 -0.1461948 
vt 50.48577 2.341335 
vt 52.45427 2.341335 
vt 50.78144 0.3507505 
vt 52.1586 0.3507505 
vt -38.47711 1.84439 
vt -38.77278 -0.1461948 
vt -40.44561 1.84439 
vt -40.14994 -0.1461948 
vt 2.361417 -5.759071 
vt 0.984252 -5.759071 
vt 2.657087 -3.768486 
vt 0.6885827 -3.768486 
vt -50.48577 -5.552179 
vt -50.78144 -7.542764 
vt -52.45427 -5.552179 
vt -52.1586 -7.542764 
vt -50.78144 7.74732 
vt -52.1586 7.74732 
vt -50.48577 9.737905 
vt -52.45427 9.737905 
vt 52.1586 -7.542764 
vt 50.78144 -7.542764 
vt 52.45427 -5.552179 
vt 50.48577 -5.552179 
vt 50.48577 9.737905 
vt 52.45427 9.737905 
vt 50.78144 7.74732 
vt 52.1586 7.74732 
vt -50.78144 52.1586 
vt -50.78144 50.78144 
vt -52.1586 52.1586 
vt -52.1586 50.78144 

usemtl carpetBlue

f 2/2/1 1/1/1 3/3/1 
f 3/3/1 4/4/1 2/2/1 
f 2/2/1 5/5/1 1/1/1 
f 1/1/1 5/5/1 6/6/1 
f 6/6/1 7/7/1 1/1/1 
f 4/4/1 3/3/1 8/8/1 
f 4/4/1 8/8/1 9/9/1 
f 4/4/1 9/9/1 10/10/1 
f 4/4/1 10/10/1 11/11/1 
f 4/4/1 11/11/1 12/12/1 
f 13/13/1 4/4/1 12/12/1 
f 13/13/1 12/12/1 14/14/1 
f 15/15/1 13/13/1 14/14/1 
f 14/14/1 16/16/1 15/15/1 
f 13/13/1 17/17/1 4/4/1 
f 13/13/1 5/5/1 17/17/1 
f 13/13/1 18/18/1 5/5/1 
f 18/18/1 6/6/1 5/5/1 
f 18/18/1 19/19/1 6/6/1 
f 19/19/1 20/20/1 6/6/1 
f 18/18/1 21/21/1 19/19/1 
f 18/18/1 22/22/1 21/21/1 
f 18/18/1 23/23/1 22/22/1 
f 18/18/1 24/24/1 23/23/1 
f 25/25/1 23/23/1 24/24/1 
f 24/24/1 26/26/1 25/25/1 
f 13/13/1 27/27/1 18/18/1 
f 13/13/1 28/28/1 27/27/1 
f 13/13/1 29/29/1 28/28/1 
f 13/13/1 30/30/1 29/29/1 
f 21/21/1 22/22/1 30/30/1 
f 25/25/1 26/26/1 30/30/1 
f 26/26/1 29/29/1 30/30/1 
f 20/20/1 30/30/1 31/31/1 
f 31/31/1 6/6/1 20/20/1 
f 20/20/1 32/32/1 30/30/1 
f 32/32/1 21/21/1 30/30/1 
f 22/22/1 33/33/1 30/30/1 
f 33/33/1 25/25/1 30/30/1 
f 28/28/1 29/29/1 34/34/1 
f 35/35/1 34/34/1 24/24/1 
f 35/35/1 28/28/1 34/34/1 
f 24/24/1 18/18/1 35/35/1 
f 36/36/1 8/8/1 16/16/1 
f 16/16/1 14/14/1 36/36/1 
f 14/14/1 37/37/1 36/36/1 
f 37/37/1 38/38/1 36/36/1 
f 36/36/1 9/9/1 8/8/1 
f 38/38/1 37/37/1 11/11/1 
f 11/11/1 10/10/1 38/38/1 
f 31/40/2 30/39/2 39/41/2 
f 39/41/2 40/42/2 31/40/2 
f 31/44/3 40/43/3 41/45/3 
f 41/45/3 6/46/3 31/44/3 
f 41/45/3 42/47/3 6/46/3 
f 44/49/4 43/48/4 45/50/4 
f 45/50/4 46/51/4 44/49/4 
f 45/50/4 47/52/4 46/51/4 
f 7/46/3 48/47/3 49/53/3 
f 49/53/3 1/54/3 7/46/3 
f 7/55/2 6/40/2 42/56/2 
f 42/56/2 48/57/2 7/55/2 
f 43/59/2 44/58/2 50/41/2 
f 50/41/2 51/60/2 43/59/2 
f 41/62/5 40/61/5 39/63/5 
f 39/63/5 44/64/5 41/62/5 
f 39/63/5 50/65/5 44/64/5 
f 46/67/6 42/66/6 41/68/6 
f 41/68/6 44/69/6 46/67/6 
f 39/71/7 30/70/7 13/39/7 
f 13/39/7 50/72/7 39/71/7 
f 13/39/7 51/73/7 50/72/7 
f 13/39/7 52/60/7 51/73/7 
f 13/75/6 15/74/6 53/76/6 
f 53/76/6 54/77/6 13/75/6 
f 54/77/6 52/78/6 13/75/6 
f 54/77/6 55/79/6 52/78/6 
f 3/80/2 1/55/2 49/57/2 
f 49/57/2 56/81/2 3/80/2 
f 3/54/3 56/53/3 57/66/3 
f 57/66/3 8/82/3 3/54/3 
f 45/84/5 43/83/5 51/65/5 
f 45/84/5 51/65/5 52/85/5 
f 45/84/5 52/85/5 55/86/5 
f 55/86/5 58/87/5 45/84/5 
f 16/82/3 59/68/3 53/88/3 
f 53/88/3 15/75/3 16/82/3 
f 59/90/2 16/89/2 8/80/2 
f 8/80/2 57/81/2 59/90/2 
f 57/81/2 60/91/2 59/90/2 
f 49/93/5 48/92/5 42/62/5 
f 49/93/5 42/62/5 47/94/5 
f 49/93/5 47/94/5 61/95/5 
f 49/93/5 61/95/5 57/96/5 
f 57/96/5 56/97/5 49/93/5 
f 42/62/5 46/98/5 47/94/5 
f 61/100/8 47/99/8 45/101/8 
f 45/101/8 62/102/8 61/100/8 
f 45/101/8 58/103/8 62/102/8 
f 53/105/5 59/104/5 60/96/5 
f 60/96/5 54/86/5 53/105/5 
f 60/96/5 62/106/5 54/86/5 
f 60/42/7 57/56/7 61/107/7 
f 61/107/7 62/58/7 60/42/7 
f 54/88/3 62/69/3 58/108/3 
f 58/108/3 55/78/3 54/88/3 

usemtl metal

f 64/110/9 63/109/9 33/111/9 
f 33/111/9 22/112/9 64/110/9 
f 63/114/1 64/113/1 65/115/1 
f 65/115/1 66/116/1 63/114/1 
f 64/118/10 22/117/10 23/119/10 
f 23/119/10 65/120/10 64/118/10 
f 21/122/11 32/121/11 67/123/11 
f 67/123/11 68/124/11 21/122/11 
f 25/126/11 33/125/11 63/127/11 
f 63/127/11 66/128/11 25/126/11 
f 70/130/12 69/129/12 34/131/12 
f 34/131/12 29/132/12 70/130/12 
f 67/134/1 71/133/1 72/135/1 
f 72/135/1 68/136/1 67/134/1 
f 74/138/9 73/137/9 26/139/9 
f 26/139/9 24/140/9 74/138/9 
f 66/142/12 65/141/12 23/143/12 
f 23/143/12 25/144/12 66/142/12 
f 73/146/1 74/145/1 69/147/1 
f 69/147/1 70/148/1 73/146/1 
f 71/150/10 20/149/10 19/151/10 
f 19/151/10 72/152/10 71/150/10 
f 74/154/10 24/153/10 34/155/10 
f 34/155/10 69/156/10 74/154/10 
f 68/158/12 72/157/12 19/159/12 
f 19/159/12 21/160/12 68/158/12 
f 71/162/9 67/161/9 32/163/9 
f 32/163/9 20/164/9 71/162/9 
f 29/166/11 26/165/11 73/167/11 
f 73/167/11 70/168/11 29/166/11 
f 76/170/12 75/169/12 38/171/12 
f 38/171/12 10/172/12 76/170/12 
f 77/174/1 75/173/1 76/175/1 
f 76/175/1 78/176/1 77/174/1 
f 80/178/12 79/177/12 14/179/12 
f 14/179/12 12/180/12 80/178/12 
f 10/182/11 9/181/11 78/183/11 
f 78/183/11 76/184/11 10/182/11 
f 82/186/9 81/185/9 11/187/9 
f 11/187/9 37/188/9 82/186/9 
f 82/190/1 79/189/1 80/191/1 
f 80/191/1 81/192/1 82/190/1 
f 82/194/10 37/193/10 14/195/10 
f 14/195/10 79/196/10 82/194/10 
f 12/198/11 11/197/11 81/199/11 
f 81/199/11 80/200/11 12/198/11 
f 77/202/10 36/201/10 38/203/10 
f 38/203/10 75/204/10 77/202/10 
f 77/206/9 78/205/9 9/207/9 
f 9/207/9 36/208/9 77/206/9 
f 83/210/10 35/209/10 18/211/10 
f 18/211/10 84/212/10 83/210/10 
f 85/214/12 84/213/12 18/215/12 
f 18/215/12 27/216/12 85/214/12 
f 83/218/9 86/217/9 28/219/9 
f 28/219/9 35/220/9 83/218/9 
f 27/222/11 28/221/11 86/223/11 
f 86/223/11 85/224/11 27/222/11 
f 83/226/1 84/225/1 85/227/1 
f 85/227/1 86/228/1 83/226/1 
g loungeDesignSofaCorner




usemtl carpetBlue

f 2/2/1 1/1/1 3/3/1 
f 3/3/1 4/4/1 2/2/1 
f 2/2/1 5/5/1 1/1/1 
f 1/1/1 5/5/1 6/6/1 
f 6/6/1 7/7/1 1/1/1 
f 4/4/1 3/3/1 8/8/1 
f 4/4/1 8/8/1 9/9/1 
f 4/4/1 9/9/1 10/10/1 
f 4/4/1 10/10/1 11/11/1 
f 4/4/1 11/11/1 12/12/1 
f 13/13/1 4/4/1 12/12/1 
f 13/13/1 12/12/1 14/14/1 
f 15/15/1 13/13/1 14/14/1 
f 14/14/1 16/16/1 15/15/1 
f 13/13/1 17/17/1 4/4/1 
f 13/13/1 5/5/1 17/17/1 
f 13/13/1 18/18/1 5/5/1 
f 18/18/1 6/6/1 5/5/1 
f 18/18/1 19/19/1 6/6/1 
f 19/19/1 20/20/1 6/6/1 
f 18/18/1 21/21/1 19/19/1 
f 18/18/1 22/22/1 21/21/1 
f 18/18/1 23/23/1 22/22/1 
f 18/18/1 24/24/1 23/23/1 
f 25/25/1 23/23/1 24/24/1 
f 24/24/1 26/26/1 25/25/1 
f 13/13/1 27/27/1 18/18/1 
f 13/13/1 28/28/1 27/27/1 
f 13/13/1 29/29/1 28/28/1 
f 13/13/1 30/30/1 29/29/1 
f 21/21/1 22/22/1 30/30/1 
f 25/25/1 26/26/1 30/30/1 
f 26/26/1 29/29/1 30/30/1 
f 20/20/1 30/30/1 31/31/1 
f 31/31/1 6/6/1 20/20/1 
f 20/20/1 32/32/1 30/30/1 
f 32/32/1 21/21/1 30/30/1 
f 22/22/1 33/33/1 30/30/1 
f 33/33/1 25/25/1 30/30/1 
f 28/28/1 29/29/1 34/34/1 
f 35/35/1 34/34/1 24/24/1 
f 35/35/1 28/28/1 34/34/1 
f 24/24/1 18/18/1 35/35/1 
f 36/36/1 8/8/1 16/16/1 
f 16/16/1 14/14/1 36/36/1 
f 14/14/1 37/37/1 36/36/1 
f 37/37/1 38/38/1 36/36/1 
f 36/36/1 9/9/1 8/8/1 
f 38/38/1 37/37/1 11/11/1 
f 11/11/1 10/10/1 38/38/1 
f 31/40/2 30/39/2 39/41/2 
f 39/41/2 40/42/2 31/40/2 
f 31/44/3 40/43/3 41/45/3 
f 41/45/3 6/46/3 31/44/3 
f 41/45/3 42/47/3 6/46/3 
f 44/49/4 43/48/4 45/50/4 
f 45/50/4 46/51/4 44/49/4 
f 45/50/4 47/52/4 46/51/4 
f 7/46/3 48/47/3 49/53/3 
f 49/53/3 1/54/3 7/46/3 
f 7/55/2 6/40/2 42/56/2 
f 42/56/2 48/57/2 7/55/2 
f 43/59/2 44/58/2 50/41/2 
f 50/41/2 51/60/2 43/59/2 
f 41/62/5 40/61/5 39/63/5 
f 39/63/5 44/64/5 41/62/5 
f 39/63/5 50/65/5 44/64/5 
f 46/67/6 42/66/6 41/68/6 
f 41/68/6 44/69/6 46/67/6 
f 39/71/7 30/70/7 13/39/7 
f 13/39/7 50/72/7 39/71/7 
f 13/39/7 51/73/7 50/72/7 
f 13/39/7 52/60/7 51/73/7 
f 13/75/6 15/74/6 53/76/6 
f 53/76/6 54/77/6 13/75/6 
f 54/77/6 52/78/6 13/75/6 
f 54/77/6 55/79/6 52/78/6 
f 3/80/2 1/55/2 49/57/2 
f 49/57/2 56/81/2 3/80/2 
f 3/54/3 56/53/3 57/66/3 
f 57/66/3 8/82/3 3/54/3 
f 45/84/5 43/83/5 51/65/5 
f 45/84/5 51/65/5 52/85/5 
f 45/84/5 52/85/5 55/86/5 
f 55/86/5 58/87/5 45/84/5 
f 16/82/3 59/68/3 53/88/3 
f 53/88/3 15/75/3 16/82/3 
f 59/90/2 16/89/2 8/80/2 
f 8/80/2 57/81/2 59/90/2 
f 57/81/2 60/91/2 59/90/2 
f 49/93/5 48/92/5 42/62/5 
f 49/93/5 42/62/5 47/94/5 
f 49/93/5 47/94/5 61/95/5 
f 49/93/5 61/95/5 57/96/5 
f 57/96/5 56/97/5 49/93/5 
f 42/62/5 46/98/5 47/94/5 
f 61/100/8 47/99/8 45/101/8 
f 45/101/8 62/102/8 61/100/8 
f 45/101/8 58/103/8 62/102/8 
f 53/105/5 59/104/5 60/96/5 
f 60/96/5 54/86/5 53/105/5 
f 60/96/5 62/106/5 54/86/5 
f 60/42/7 57/56/7 61/107/7 
f 61/107/7 62/58/7 60/42/7 
f 54/88/3 62/69/3 58/108/3 
f 58/108/3 55/78/3 54/88/3 

usemtl metal

f 64/110/9 63/109/9 33/111/9 
f 33/111/9 22/112/9 64/110/9 
f 63/114/1 64/113/1 65/115/1 
f 65/115/1 66/116/1 63/114/1 
f 64/118/10 22/117/10 23/119/10 
f 23/119/10 65/120/10 64/118/10 
f 21/122/11 32/121/11 67/123/11 
f 67/123/11 68/124/11 21/122/11 
f 25/126/11 33/125/11 63/127/11 
f 63/127/11 66/128/11 25/126/11 
f 70/130/12 69/129/12 34/131/12 
f 34/131/12 29/132/12 70/130/12 
f 67/134/1 71/133/1 72/135/1 
f 72/135/1 68/136/1 67/134/1 
f 74/138/9 73/137/9 26/139/9 
f 26/139/9 24/140/9 74/138/9 
f 66/142/12 65/141/12 23/143/12 
f 23/143/12 25/144/12 66/142/12 
f 73/146/1 74/145/1 69/147/1 
f 69/147/1 70/148/1 73/146/1 
f 71/150/10 20/149/10 19/151/10 
f 19/151/10 72/152/10 71/150/10 
f 74/154/10 24/153/10 34/155/10 
f 34/155/10 69/156/10 74/154/10 
f 68/158/12 72/157/12 19/159/12 
f 19/159/12 21/160/12 68/158/12 
f 71/162/9 67/161/9 32/163/9 
f 32/163/9 20/164/9 71/162/9 
f 29/166/11 26/165/11 73/167/11 
f 73/167/11 70/168/11 29/166/11 
f 76/170/12 75/169/12 38/171/12 
f 38/171/12 10/172/12 76/170/12 
f 77/174/1 75/173/1 76/175/1 
f 76/175/1 78/176/1 77/174/1 
f 80/178/12 79/177/12 14/179/12 
f 14/179/12 12/180/12 80/178/12 
f 10/182/11 9/181/11 78/183/11 
f 78/183/11 76/184/11 10/182/11 
f 82/186/9 81/185/9 11/187/9 
f 11/187/9 37/188/9 82/186/9 
f 82/190/1 79/189/1 80/191/1 
f 80/191/1 81/192/1 82/190/1 
f 82/194/10 37/193/10 14/195/10 
f 14/195/10 79/196/10 82/194/10 
f 12/198/11 11/197/11 81/199/11 
f 81/199/11 80/200/11 12/198/11 
f 77/202/10 36/201/10 38/203/10 
f 38/203/10 75/204/10 77/202/10 
f 77/206/9 78/205/9 9/207/9 
f 9/207/9 36/208/9 77/206/9 
f 83/210/10 35/209/10 18/211/10 
f 18/211/10 84/212/10 83/210/10 
f 85/214/12 84/213/12 18/215/12 
f 18/215/12 27/216/12 85/214/12 
f 83/218/9 86/217/9 28/219/9 
f 28/219/9 35/220/9 83/218/9 
f 27/222/11 28/221/11 86/223/11 
f 86/223/11 85/224/11 27/222/11 
f 83/226/1 84/225/1 85/227/1 
f 85/227/1 86/228/1 83/226/1 
g Group

v -0.8998486 0 1.289849 
v -0.8998486 0 1.324829 
v -0.9348286 0 1.289849 
v -0.9348286 0 1.324829 

vn 0.9889073 -0.1485339 -7.309142E-18 
vn -0.9889073 -0.1485339 -7.309142E-18 
vn -3.672265E-18 -0.1485339 -0.9889073 
vn -3.672265E-18 -0.1485339 0.9889073 
vn -2.472342E-17 -1 -4.920858E-17 

vt 0 -0.2923895 
vt 0.2956693 1.698195 
vt 1.968504 -0.2923895 
vt 1.672835 1.698195 
vt 0 -9.002843E-15 
vt -1.968504 -9.002843E-15 
vt -0.2956693 1.990585 
vt -1.672835 1.990585 
vt 1.968504 -9.004482E-15 
vt 1.672835 1.990585 
vt 0.2956693 1.990585 
vt 1.569451E-18 -0.2923895 
vt -1.968504 -0.2923895 
vt -0.2956693 1.698195 
vt -1.672835 1.698195 
vt 0.2956693 0.2956693 
vt 0.2956693 1.672835 
vt 1.672835 0.2956693 
vt 1.672835 1.672835 

usemtl metal

f 87/230/13 2/229/13 4/231/13 
f 4/231/13 88/232/13 87/230/13 
f 17/234/14 5/233/14 89/235/14 
f 89/235/14 90/236/14 17/234/14 
f 5/233/15 2/237/15 87/238/15 
f 87/238/15 89/239/15 5/233/15 
f 4/241/16 17/240/16 90/242/16 
f 90/242/16 88/243/16 4/241/16 
f 90/245/17 89/244/17 87/246/17 
f 87/246/17 88/247/17 90/245/17 
