# Created by Kenney (www.kenney.nl) 

mtllib paneling.mtl 

g paneling

v 0 0 0 
v -0.5 0 0 
v 0 0.5947658 0 
v -0.5 0.5947658 0 
v 0 0 -0.02 
v -0.4456229 0.05437709 -0.02 
v -0.5 0 -0.02 
v -0.5 0.5545206 -0.02 
v -0.4456229 0.5001435 -0.02 
v -0.05437709 0.5001435 -0.02 
v -0.05437709 0.05437709 -0.02 
v 0 0.5545206 -0.02 
v -0.5 0.5947658 -0.015 
v -0.5 0.5797659 -0.03 
v -0.5 0.5545206 -0.03 
v 0 0.5947658 -0.015 
v 0 0.5545206 -0.03 
v 0 0.5797659 -0.03 
v -0.4280168 0.07443658 -0.01 
v -0.07198315 0.07443658 -0.01 
v -0.4280168 0.480084 -0.01 
v -0.07198315 0.480084 -0.01 

vn 0 0 1 
vn 0 0 -1 
vn 0 -1 0 
vn -1 0 0 
vn 0 1 0 
vn -0.4938808 0 -0.8695296 
vn 0.4938808 0 -0.8695296 
vn 0 -0.4461516 -0.8949574 
vn 0 0.4461516 -0.8949574 
vn 1 0 0 
vn 0 0.7071068 -0.7071068 

vt 0 0 
vt -19.68504 0 
vt 0 23.41598 
vt -19.68504 23.41598 
vt 17.54421 2.14083 
vt 19.68504 0 
vt 19.68504 21.83152 
vt 17.54421 19.69069 
vt 2.14083 19.69069 
vt 2.14083 2.14083 
vt 0 21.83152 
vt 0 -0.7874016 
vt -19.68504 -0.7874016 
vt -0.7874016 0 
vt -0.7874016 21.83152 
vt -0.5905512 23.41598 
vt -1.181102 22.82543 
vt -1.181102 21.83152 
vt 0 -0.5905512 
vt 19.68504 -0.5905512 
vt 19.68504 22.82543 
vt 0 22.82543 
vt 0 -1.181102 
vt -19.68504 -1.181102 
vt 16.85106 2.930574 
vt 2.833982 2.930574 
vt 16.85106 18.90095 
vt 2.833982 18.90095 
vt 1.472633 2.14083 
vt 1.472633 19.69069 
vt 2.26979 2.930574 
vt 2.26979 18.90095 
vt 15.64409 2.14083 
vt 14.84693 2.930574 
vt 15.64409 19.69069 
vt 14.84693 18.90095 
vt 16.85106 17.09119 
vt 2.833982 17.09119 
vt 17.54421 17.97363 
vt 2.14083 17.97363 
vt 17.54421 1.564651 
vt 2.14083 1.564651 
vt 16.85106 2.447088 
vt 2.833982 2.447088 
vt 1.181102 22.82543 
vt 1.181102 21.83152 
vt 0.5905512 23.41598 
vt 0.7874016 21.83152 
vt 0.7874016 0 
vt -2.462155E-30 15.30485 
vt -1.231077E-30 16.14001 
vt 19.68504 15.30485 
vt 19.68504 16.14001 

usemtl wood

f 2/2/1 1/1/1 3/3/1 
f 3/3/1 4/4/1 2/2/1 
f 6/5/2 5/1/2 7/6/2 
f 7/6/2 8/7/2 6/5/2 
f 8/7/2 9/8/2 6/5/2 
f 8/7/2 10/9/2 9/8/2 
f 5/1/2 6/5/2 11/10/2 
f 11/10/2 12/11/2 5/1/2 
f 11/10/2 10/9/2 12/11/2 
f 10/9/2 8/7/2 12/11/2 
f 5/12/3 1/1/3 2/2/3 
f 2/2/3 7/13/3 5/12/3 
f 8/15/4 7/14/4 2/1/4 
f 2/1/4 13/16/4 8/15/4 
f 2/1/4 4/3/4 13/16/4 
f 8/15/4 13/16/4 14/17/4 
f 14/17/4 15/18/4 8/15/4 
f 3/1/5 16/19/5 13/20/5 
f 13/20/5 4/6/5 3/1/5 
f 17/11/2 15/7/2 14/21/2 
f 14/21/2 18/22/2 17/11/2 
f 17/23/3 12/12/3 8/13/3 
f 8/13/3 15/24/3 17/23/3 
f 20/26/2 19/25/2 21/27/2 
f 21/27/2 22/28/2 20/26/2 
f 10/30/6 11/29/6 20/31/6 
f 20/31/6 22/32/6 10/30/6 
f 19/34/7 6/33/7 9/35/7 
f 9/35/7 21/36/7 19/34/7 
f 22/38/8 21/37/8 9/39/8 
f 9/39/8 10/40/8 22/38/8 
f 11/42/9 6/41/9 19/43/9 
f 19/43/9 20/44/9 11/42/9 
f 17/46/10 18/45/10 16/47/10 
f 16/47/10 12/48/10 17/46/10 
f 16/47/10 5/49/10 12/48/10 
f 16/47/10 1/1/10 5/49/10 
f 16/47/10 3/3/10 1/1/10 
f 16/51/11 18/50/11 14/52/11 
f 14/52/11 13/53/11 16/51/11 
g paneling




usemtl wood

f 2/2/1 1/1/1 3/3/1 
f 3/3/1 4/4/1 2/2/1 
f 6/5/2 5/1/2 7/6/2 
f 7/6/2 8/7/2 6/5/2 
f 8/7/2 9/8/2 6/5/2 
f 8/7/2 10/9/2 9/8/2 
f 5/1/2 6/5/2 11/10/2 
f 11/10/2 12/11/2 5/1/2 
f 11/10/2 10/9/2 12/11/2 
f 10/9/2 8/7/2 12/11/2 
f 5/12/3 1/1/3 2/2/3 
f 2/2/3 7/13/3 5/12/3 
f 8/15/4 7/14/4 2/1/4 
f 2/1/4 13/16/4 8/15/4 
f 2/1/4 4/3/4 13/16/4 
f 8/15/4 13/16/4 14/17/4 
f 14/17/4 15/18/4 8/15/4 
f 3/1/5 16/19/5 13/20/5 
f 13/20/5 4/6/5 3/1/5 
f 17/11/2 15/7/2 14/21/2 
f 14/21/2 18/22/2 17/11/2 
f 17/23/3 12/12/3 8/13/3 
f 8/13/3 15/24/3 17/23/3 
f 20/26/2 19/25/2 21/27/2 
f 21/27/2 22/28/2 20/26/2 
f 10/30/6 11/29/6 20/31/6 
f 20/31/6 22/32/6 10/30/6 
f 19/34/7 6/33/7 9/35/7 
f 9/35/7 21/36/7 19/34/7 
f 22/38/8 21/37/8 9/39/8 
f 9/39/8 10/40/8 22/38/8 
f 11/42/9 6/41/9 19/43/9 
f 19/43/9 20/44/9 11/42/9 
f 17/46/10 18/45/10 16/47/10 
f 16/47/10 12/48/10 17/46/10 
f 16/47/10 5/49/10 12/48/10 
f 16/47/10 1/1/10 5/49/10 
f 16/47/10 3/3/10 1/1/10 
f 16/51/11 18/50/11 14/52/11 
f 14/52/11 13/53/11 16/51/11 
