# Created by Kenney (www.kenney.nl) 

mtllib plantSmall3.mtl 

g plantSmall3

v 0.0245 0.065 0.04243525 
v 0.0175 0 0.03031089 
v -0.02450001 0.065 0.04243524 
v -0.01750001 0 0.03031089 
v -0.01852727 0.025 -0.03209018 
v -0.03705454 0.025 -3.72529E-09 
v -0.01852727 0.065 -0.03209018 
v -0.03705454 0.065 -3.72529E-09 
v 0.01852727 0.025 0.03209018 
v 0.0125 0.025 0.0125 
v 0.03705454 0.025 3.72529E-09 
v 0.0125 0.025 -0.0125 
v 0.01852727 0.025 -0.03209017 
v -0.0125 0.025 -0.0125 
v -0.0125 0.025 0.0125 
v -0.01852727 0.025 0.03209017 
v 0.02450001 0.065 -0.04243524 
v -0.0245 0.065 -0.04243525 
v 0.01750001 0 -0.03031089 
v -0.0175 0 -0.03031089 
v -0.035 0 -3.72529E-09 
v -0.04900001 0.065 -7.450581E-09 
v 0.035 0 3.72529E-09 
v 0.04900001 0.065 7.450581E-09 
v 0.01852727 0.065 -0.03209017 
v 0.01852727 0.065 0.03209018 
v -0.01852727 0.065 0.03209017 
v 0.03705454 0.065 3.72529E-09 
v 0.009625002 0.07 -0.009625001 
v -0.009625 0.07 -0.009625002 
v 0.009625 0.07 0.009625002 
v -0.009625002 0.07 0.009625001 
v -0.01099605 0.07 0.01904571 
v -0.0219921 0.07 -1.862645E-09 
v -0.01550443 0.085 0.02685446 
v -0.03100886 0.085 -3.72529E-09 
v 0.0219921 0.07 1.862645E-09 
v 0.01099605 0.07 0.01904571 
v 0.03100886 0.085 3.72529E-09 
v 0.01550443 0.085 0.02685446 
v -0.01550443 0.085 -0.02685446 
v -0.01829522 0.135 -1.862645E-09 
v -0.009147611 0.135 -0.01584413 
v 0.01829522 0.135 1.862645E-09 
v 0.009147611 0.135 0.01584413 
v -0.009147614 0.135 0.01584413 
v -1.624301E-15 0.145 7.219114E-16 
v 0.01550443 0.085 -0.02685446 
v 0.009147614 0.135 -0.01584413 
v 0.01099605 0.07 -0.01904571 
v -0.01099605 0.07 -0.01904571 

vn -1.171881E-07 -0.1833659 0.9830449 
vn 0.8660255 0 0.5000002 
vn 0 1 0 
vn 1.171881E-07 -0.1833659 -0.9830449 
vn -0.8513418 -0.1833659 -0.4915225 
vn 0 -1 0 
vn 0.8513418 -0.1833659 0.4915225 
vn -1.192093E-07 0 1 
vn 0.8513419 -0.1833659 -0.4915223 
vn 1.192093E-07 0 -1 
vn -0.8660255 0 -0.5000002 
vn -0.8513419 -0.1833659 0.4915223 
vn 0.8660256 0 -0.5 
vn -0.8660256 0 0.5 
vn 1.189667E-07 0.06375889 -0.9979655 
vn -1.189667E-07 0.06375889 0.9979655 
vn -0.9979655 0.06375889 -1.189667E-07 
vn 0.9979655 0.06375889 1.189667E-07 
vn -0.7681691 -0.4617596 0.4435025 
vn 0.768169 -0.4617596 0.4435027 
vn -0.8457623 0.2150542 -0.4883012 
vn 0.8457623 0.2150542 0.4883012 
vn -0.4622262 0.8456532 0.2668664 
vn -6.36259E-08 0.8456532 0.5337328 
vn -1.057393E-07 -0.4617597 0.8870053 
vn 1.1642E-07 0.2150542 -0.9766023 
vn 6.36259E-08 0.8456532 -0.5337328 
vn -0.8457624 0.2150542 0.488301 
vn 1.057393E-07 -0.4617597 -0.8870053 
vn -1.1642E-07 0.2150542 0.9766023 
vn -0.4622262 0.8456532 -0.2668665 
vn 0.8457624 0.2150542 -0.488301 
vn 0.7681691 -0.4617596 -0.4435025 
vn 0.4622262 0.8456532 -0.2668664 
vn -0.768169 -0.4617596 -0.4435027 
vn 0.4622262 0.8456532 0.2668665 

vt 1.929134 5.644022 
vt 1.377953 0.4376365 
vt -1.929134 5.644022 
vt -1.377953 0.4376365 
vt 1.45884 1.968504 
vt -1.45884 1.968504 
vt 1.45884 5.11811 
vt -1.45884 5.11811 
vt -2.526785 -1.45884 
vt -0.984252 -0.984252 
vt -5.684342E-14 -2.91768 
vt 0.984252 -0.984252 
vt 2.526785 -1.45884 
vt 0.984252 0.984252 
vt 2.526785 1.45884 
vt -0.984252 0.984252 
vt -5.684342E-14 2.91768 
vt -2.526785 1.45884 
vt 2.386684 1.377953 
vt 2.386684 -1.377953 
vt 0 2.755906 
vt 0 -2.755906 
vt -2.386684 1.377953 
vt -2.386684 -1.377953 
vt -3.341358 1.929134 
vt -3.341358 -1.929134 
vt -5.684342E-14 -3.858268 
vt 3.341358 -1.929134 
vt -5.684342E-14 3.858268 
vt 3.341358 1.929134 
vt -0.984252 1.901744 
vt -0.757874 5.452275 
vt 0.984252 1.901744 
vt 0.757874 5.452275 
vt 0.8658305 5.581488 
vt -0.8658305 5.581488 
vt 1.220821 6.91305 
vt -1.220821 6.91305 
vt 1.220821 6.081576 
vt -1.220821 6.081576 
vt 0.7202844 10.11291 
vt -0.7202844 10.11291 
vt 0.7202844 4.618527 
vt -0.7202844 4.618527 
vt -1.427691E-14 6.0938 
vt -1.278977E-13 6.0938 
vt 1.278977E-13 6.0938 
vt 1.131767E-13 6.0938 
vt 1.4721E-14 6.0938 
vt -1.131767E-13 6.0938 
vt 1.499662 -0.8658305 
vt 0.757874 0.757874 
vt 1.499662 0.8658305 
vt 5.684342E-14 1.731661 
vt -0.757874 0.757874 
vt -1.499662 0.8658305 
vt -0.757874 -0.757874 
vt -1.499662 -0.8658305 
vt 0.757874 -0.757874 
vt 5.684342E-14 -1.731661 

usemtl wood

f 2/2/1 1/1/1 3/3/1 
f 3/3/1 4/4/1 2/2/1 
f 6/6/2 5/5/2 7/7/2 
f 7/7/2 8/8/2 6/6/2 
f 10/10/3 9/9/3 11/11/3 
f 11/11/3 12/12/3 10/10/3 
f 11/11/3 13/13/3 12/12/3 
f 13/13/3 14/14/3 12/12/3 
f 13/13/3 5/15/3 14/14/3 
f 9/9/3 10/10/3 15/16/3 
f 9/9/3 15/16/3 6/17/3 
f 15/16/3 14/14/3 6/17/3 
f 14/14/3 5/15/3 6/17/3 
f 6/17/3 16/18/3 9/9/3 
f 18/1/4 17/3/4 19/4/4 
f 19/4/4 20/2/4 18/1/4 
f 20/4/5 21/2/5 22/1/5 
f 22/1/5 18/3/5 20/4/5 
f 2/20/6 4/19/6 21/21/6 
f 21/21/6 23/22/6 2/20/6 
f 21/21/6 20/23/6 23/22/6 
f 20/23/6 19/24/6 23/22/6 
f 2/4/7 23/2/7 24/1/7 
f 24/1/7 1/3/7 2/4/7 
f 13/5/8 25/7/8 7/8/8 
f 7/8/8 5/6/8 13/5/8 
f 23/4/9 19/2/9 17/1/9 
f 17/1/9 24/3/9 23/4/9 
f 26/9/3 3/25/3 1/26/3 
f 1/26/3 24/27/3 26/9/3 
f 26/9/3 27/18/3 3/25/3 
f 24/27/3 28/11/3 26/9/3 
f 24/27/3 17/28/3 28/11/3 
f 17/28/3 25/13/3 28/11/3 
f 22/29/3 3/25/3 27/18/3 
f 27/18/3 8/17/3 22/29/3 
f 8/17/3 7/15/3 22/29/3 
f 7/15/3 18/30/3 22/29/3 
f 7/15/3 25/13/3 18/30/3 
f 25/13/3 17/28/3 18/30/3 
f 26/8/10 9/6/10 16/5/10 
f 16/5/10 27/7/10 26/8/10 
f 11/6/11 9/5/11 26/7/11 
f 26/7/11 28/8/11 11/6/11 
f 21/4/12 4/2/12 3/1/12 
f 3/1/12 22/3/12 21/4/12 
f 16/6/13 6/5/13 8/7/13 
f 8/7/13 27/8/13 16/6/13 
f 13/6/14 11/5/14 28/7/14 
f 28/7/14 25/8/14 13/6/14 
f 29/32/15 12/31/15 14/33/15 
f 14/33/15 30/34/15 29/32/15 
f 15/31/16 10/33/16 31/34/16 
f 31/34/16 32/32/16 15/31/16 
f 14/31/17 15/33/17 32/34/17 
f 32/34/17 30/32/17 14/31/17 
f 10/31/18 12/33/18 29/34/18 
f 29/34/18 31/32/18 10/31/18 

usemtl plant

f 34/36/19 33/35/19 35/37/19 
f 35/37/19 36/38/19 34/36/19 
f 38/36/20 37/35/20 39/37/20 
f 39/37/20 40/38/20 38/36/20 
f 41/40/21 36/39/21 42/41/21 
f 42/41/21 43/42/21 41/40/21 
f 40/40/22 39/39/22 44/41/22 
f 44/41/22 45/42/22 40/40/22 
f 42/44/23 46/43/23 47/45/23 
f 46/44/24 45/43/24 47/46/24 
f 38/35/25 40/37/25 35/38/25 
f 35/38/25 33/36/25 38/35/25 
f 49/42/26 48/40/26 41/39/26 
f 41/39/26 43/41/26 49/42/26 
f 47/47/27 49/44/27 43/43/27 
f 36/40/28 35/39/28 46/41/28 
f 46/41/28 42/42/28 36/40/28 
f 41/37/29 48/38/29 50/36/29 
f 50/36/29 51/35/29 41/37/29 
f 35/40/30 40/39/30 45/41/30 
f 45/41/30 46/42/30 35/40/30 
f 42/43/31 47/48/31 43/44/31 
f 39/40/32 48/39/32 49/41/32 
f 49/41/32 44/42/32 39/40/32 
f 37/36/33 50/35/33 48/37/33 
f 48/37/33 39/38/33 37/36/33 
f 47/49/34 44/44/34 49/43/34 
f 51/36/35 34/35/35 36/37/35 
f 36/37/35 41/38/35 51/36/35 
f 45/44/36 44/43/36 47/50/36 
f 32/52/6 38/51/6 33/53/6 
f 33/53/6 34/54/6 32/52/6 
f 34/54/6 30/55/6 32/52/6 
f 34/54/6 51/56/6 30/55/6 
f 51/56/6 29/57/6 30/55/6 
f 51/56/6 50/58/6 29/57/6 
f 38/51/6 32/52/6 31/59/6 
f 31/59/6 37/60/6 38/51/6 
f 31/59/6 29/57/6 37/60/6 
f 29/57/6 50/58/6 37/60/6 
g plantSmall3




usemtl wood

f 2/2/1 1/1/1 3/3/1 
f 3/3/1 4/4/1 2/2/1 
f 6/6/2 5/5/2 7/7/2 
f 7/7/2 8/8/2 6/6/2 
f 10/10/3 9/9/3 11/11/3 
f 11/11/3 12/12/3 10/10/3 
f 11/11/3 13/13/3 12/12/3 
f 13/13/3 14/14/3 12/12/3 
f 13/13/3 5/15/3 14/14/3 
f 9/9/3 10/10/3 15/16/3 
f 9/9/3 15/16/3 6/17/3 
f 15/16/3 14/14/3 6/17/3 
f 14/14/3 5/15/3 6/17/3 
f 6/17/3 16/18/3 9/9/3 
f 18/1/4 17/3/4 19/4/4 
f 19/4/4 20/2/4 18/1/4 
f 20/4/5 21/2/5 22/1/5 
f 22/1/5 18/3/5 20/4/5 
f 2/20/6 4/19/6 21/21/6 
f 21/21/6 23/22/6 2/20/6 
f 21/21/6 20/23/6 23/22/6 
f 20/23/6 19/24/6 23/22/6 
f 2/4/7 23/2/7 24/1/7 
f 24/1/7 1/3/7 2/4/7 
f 13/5/8 25/7/8 7/8/8 
f 7/8/8 5/6/8 13/5/8 
f 23/4/9 19/2/9 17/1/9 
f 17/1/9 24/3/9 23/4/9 
f 26/9/3 3/25/3 1/26/3 
f 1/26/3 24/27/3 26/9/3 
f 26/9/3 27/18/3 3/25/3 
f 24/27/3 28/11/3 26/9/3 
f 24/27/3 17/28/3 28/11/3 
f 17/28/3 25/13/3 28/11/3 
f 22/29/3 3/25/3 27/18/3 
f 27/18/3 8/17/3 22/29/3 
f 8/17/3 7/15/3 22/29/3 
f 7/15/3 18/30/3 22/29/3 
f 7/15/3 25/13/3 18/30/3 
f 25/13/3 17/28/3 18/30/3 
f 26/8/10 9/6/10 16/5/10 
f 16/5/10 27/7/10 26/8/10 
f 11/6/11 9/5/11 26/7/11 
f 26/7/11 28/8/11 11/6/11 
f 21/4/12 4/2/12 3/1/12 
f 3/1/12 22/3/12 21/4/12 
f 16/6/13 6/5/13 8/7/13 
f 8/7/13 27/8/13 16/6/13 
f 13/6/14 11/5/14 28/7/14 
f 28/7/14 25/8/14 13/6/14 
f 29/32/15 12/31/15 14/33/15 
f 14/33/15 30/34/15 29/32/15 
f 15/31/16 10/33/16 31/34/16 
f 31/34/16 32/32/16 15/31/16 
f 14/31/17 15/33/17 32/34/17 
f 32/34/17 30/32/17 14/31/17 
f 10/31/18 12/33/18 29/34/18 
f 29/34/18 31/32/18 10/31/18 

usemtl plant

f 34/36/19 33/35/19 35/37/19 
f 35/37/19 36/38/19 34/36/19 
f 38/36/20 37/35/20 39/37/20 
f 39/37/20 40/38/20 38/36/20 
f 41/40/21 36/39/21 42/41/21 
f 42/41/21 43/42/21 41/40/21 
f 40/40/22 39/39/22 44/41/22 
f 44/41/22 45/42/22 40/40/22 
f 42/44/23 46/43/23 47/45/23 
f 46/44/24 45/43/24 47/46/24 
f 38/35/25 40/37/25 35/38/25 
f 35/38/25 33/36/25 38/35/25 
f 49/42/26 48/40/26 41/39/26 
f 41/39/26 43/41/26 49/42/26 
f 47/47/27 49/44/27 43/43/27 
f 36/40/28 35/39/28 46/41/28 
f 46/41/28 42/42/28 36/40/28 
f 41/37/29 48/38/29 50/36/29 
f 50/36/29 51/35/29 41/37/29 
f 35/40/30 40/39/30 45/41/30 
f 45/41/30 46/42/30 35/40/30 
f 42/43/31 47/48/31 43/44/31 
f 39/40/32 48/39/32 49/41/32 
f 49/41/32 44/42/32 39/40/32 
f 37/36/33 50/35/33 48/37/33 
f 48/37/33 39/38/33 37/36/33 
f 47/49/34 44/44/34 49/43/34 
f 51/36/35 34/35/35 36/37/35 
f 36/37/35 41/38/35 51/36/35 
f 45/44/36 44/43/36 47/50/36 
f 32/52/6 38/51/6 33/53/6 
f 33/53/6 34/54/6 32/52/6 
f 34/54/6 30/55/6 32/52/6 
f 34/54/6 51/56/6 30/55/6 
f 51/56/6 29/57/6 30/55/6 
f 51/56/6 50/58/6 29/57/6 
f 38/51/6 32/52/6 31/59/6 
f 31/59/6 37/60/6 38/51/6 
f 31/59/6 29/57/6 37/60/6 
f 29/57/6 50/58/6 37/60/6 
