# Created by Kenney (www.kenney.nl) 

mtllib sideTable.mtl 

g sideTable

v -0.4844755 0.05 0.16 
v -0.4844755 0.05 0.04 
v -0.5044755 0.05 0.16 
v -0.5044755 0.05 0.04 
v -0.4744754 0 0.04 
v -0.4744754 0 0 
v -0.5144755 0 0.04 
v -0.5144755 0 0 
v -0.5144755 0 0.16 
v -0.5144755 0.3244075 0.16 
v -0.5144755 0 0.2 
v -0.5144755 0.3544075 0.2 
v -0.5144755 0.3244075 0.04 
v -0.5144755 0.3544075 0 
v -0.4744754 0.3244075 0.16 
v -0.4744754 0.3244075 0.04 
v -0.4744754 0.3244075 0 
v -0.4744754 0.3244075 0.2 
v -0.04 0.3244075 0 
v -0.04 0.3244075 0.04 
v -0.04 0.3244075 0.16 
v -0.04 0.3244075 0.2 
v 0 0.3244075 0.04 
v 0 0.3244075 0.16 
v 0 0.3544075 0 
v 0 0 0 
v -0.04 0 0 
v 0 0 0.2 
v 0 0 0.16 
v -0.04 0 0.2 
v -0.04 0 0.16 
v 0 0 0.04 
v -0.04 0 0.04 
v -0.4744754 0 0.2 
v -0.4744754 0 0.16 
v -0.01 0.07 0.04 
v -0.01 0.07 0.16 
v -0.03 0.07 0.04 
v -0.03 0.07 0.16 
v 0.01 0.3844076 -0.01 
v 0.01 0.3844076 0.21 
v -0.5244755 0.3844076 -0.01 
v -0.5244755 0.3844076 0.21 
v 0 0.3544075 0.2 
v -0.5244755 0.3544075 -0.01 
v 0.01 0.3544075 -0.01 
v 0.01 0.3544075 0.21 
v -0.5244755 0.3544075 0.21 
v -0.01 0.05 0.16 
v -0.01 0.05 0.04 
v -0.03 0.05 0.16 
v -0.03 0.05 0.04 
v -0.4844755 0.07 0.04 
v -0.4844755 0.07 0.16 
v -0.5044755 0.07 0.16 
v -0.5044755 0.07 0.04 

vn 0 -1 0 
vn -1 0 0 
vn 0 0 -1 
vn 1 0 0 
vn 0 1 0 
vn 0 0 1 

vt -19.07384 6.299212 
vt -19.07384 1.574803 
vt -19.86124 6.299212 
vt -19.86124 1.574803 
vt -18.68014 1.574803 
vt -18.68014 0 
vt -20.25494 1.574803 
vt -20.25494 0 
vt 6.299212 -1.167682E-14 
vt 6.299212 12.77195 
vt 7.874016 -1.167682E-14 
vt 7.874016 13.95305 
vt 1.574803 12.77195 
vt -2.687918E-14 13.95305 
vt 1.574803 -1.167682E-14 
vt -2.687918E-14 -1.167682E-14 
vt -18.68014 6.299212 
vt -20.25494 6.299212 
vt -18.68014 7.874016 
vt -1.574803 0 
vt -1.574803 1.574803 
vt -1.574803 6.299212 
vt -1.574803 7.874016 
vt 0 1.574803 
vt 0 6.299212 
vt 20.25494 0 
vt 18.68014 0 
vt 20.25494 13.95305 
vt 18.68014 12.77195 
vt 0 13.95305 
vt 0 0 
vt 1.574803 0 
vt 0 7.874016 
vt 6.299212 0 
vt 7.874016 0 
vt 7.874016 12.77195 
vt 0 12.77195 
vt -1.574803 12.77195 
vt -20.25494 7.874016 
vt 0.3937008 1.574803 
vt 0.3937008 6.299212 
vt 1.181102 1.574803 
vt 1.181102 6.299212 
vt -0.3937008 -0.3937008 
vt -0.3937008 8.267716 
vt 20.64864 -0.3937008 
vt 20.64864 8.267716 
vt -7.874016 13.95305 
vt -6.299212 12.77195 
vt -6.299212 0 
vt -7.874016 0 
vt 20.64864 13.95305 
vt -0.3937008 13.95305 
vt 20.64864 15.13416 
vt -0.3937008 15.13416 
vt 0.3937008 15.13416 
vt 0.3937008 13.95305 
vt -8.267716 15.13416 
vt -8.267716 13.95305 
vt 0.3937008 -0.3937008 
vt 0.3937008 8.267716 
vt -20.64864 8.267716 
vt -20.64864 -0.3937008 
vt 8.267716 13.95305 
vt 8.267716 15.13416 
vt -20.64864 13.95305 
vt -20.64864 15.13416 
vt -0.3937008 6.299212 
vt -0.3937008 1.574803 
vt -1.181102 6.299212 
vt -1.181102 1.574803 
vt -1.574803 2.755906 
vt -1.574803 1.968504 
vt -6.299212 2.755906 
vt -6.299212 1.968504 
vt 19.86124 1.968504 
vt 20.25494 12.77195 
vt 19.86124 2.755906 
vt 19.07384 2.755906 
vt 19.07384 1.968504 
vt 19.07384 1.574803 
vt 19.07384 6.299212 
vt 19.86124 1.574803 
vt 19.86124 6.299212 
vt 1.574803 1.968504 
vt 1.574803 2.755906 
vt 6.299212 1.968504 
vt 6.299212 2.755906 
vt -19.07384 1.968504 
vt -18.68014 12.77195 
vt -19.07384 2.755906 
vt -19.86124 2.755906 
vt -19.86124 1.968504 
vt -20.25494 12.77195 
vt -7.874016 12.77195 
vt -20.25494 13.95305 
vt -1.957444E-15 2.222824E-15 
vt 1.181102 1.968504 
vt 1.574803 2.222824E-15 
vt 1.181102 2.755906 
vt 0.3937008 2.755906 
vt 0.3937008 1.968504 
vt -1.957444E-15 12.77195 
vt -0.3937008 1.968504 
vt -0.3937008 2.755906 
vt -1.181102 2.755906 
vt -1.181102 1.968504 

usemtl wood

f 2/2/1 1/1/1 3/3/1 
f 3/3/1 4/4/1 2/2/1 
f 6/6/1 5/5/1 7/7/1 
f 7/7/1 8/8/1 6/6/1 
f 10/10/2 9/9/2 11/11/2 
f 10/10/2 11/11/2 12/12/2 
f 13/13/2 10/10/2 12/12/2 
f 13/13/2 12/12/2 14/14/2 
f 7/15/2 13/13/2 14/14/2 
f 14/14/2 8/16/2 7/15/2 
f 16/5/1 15/17/1 10/18/1 
f 10/18/1 13/7/1 16/5/1 
f 15/17/1 16/5/1 17/6/1 
f 18/19/1 15/17/1 17/6/1 
f 18/19/1 17/6/1 19/20/1 
f 18/19/1 19/20/1 20/21/1 
f 18/19/1 20/21/1 21/22/1 
f 21/22/1 22/23/1 18/19/1 
f 21/22/1 20/21/1 23/24/1 
f 23/24/1 24/25/1 21/22/1 
f 6/27/3 8/26/3 14/28/3 
f 14/28/3 17/29/3 6/27/3 
f 14/28/3 19/13/3 17/29/3 
f 19/13/3 14/28/3 25/30/3 
f 19/13/3 25/30/3 26/31/3 
f 26/31/3 27/32/3 19/13/3 
f 29/25/1 28/33/1 30/23/1 
f 30/23/1 31/22/1 29/25/1 
f 26/31/1 32/24/1 33/21/1 
f 33/21/1 27/20/1 26/31/1 
f 21/10/2 31/34/2 30/35/2 
f 30/35/2 22/36/2 21/10/2 
f 6/31/4 17/37/4 16/38/4 
f 16/38/4 5/20/4 6/31/4 
f 35/17/1 34/19/1 11/39/1 
f 11/39/1 9/18/1 35/17/1 
f 37/41/5 36/40/5 38/42/5 
f 38/42/5 39/43/5 37/41/5 
f 41/45/5 40/44/5 42/46/5 
f 42/46/5 43/47/5 41/45/5 
f 26/31/4 23/38/4 32/20/4 
f 23/38/4 26/31/4 25/30/4 
f 25/30/4 44/48/4 23/38/4 
f 44/48/4 24/49/4 23/38/4 
f 44/48/4 29/50/4 24/49/4 
f 44/48/4 28/51/4 29/50/4 
f 46/53/3 45/52/3 42/54/3 
f 42/54/3 40/55/3 46/53/3 
f 46/57/4 40/56/4 41/58/4 
f 41/58/4 47/59/4 46/57/4 
f 44/33/1 46/60/1 47/61/1 
f 47/61/1 48/62/1 44/33/1 
f 48/62/1 12/39/1 44/33/1 
f 48/62/1 14/8/1 12/39/1 
f 46/60/1 44/33/1 25/31/1 
f 25/31/1 45/63/1 46/60/1 
f 25/31/1 14/8/1 45/63/1 
f 14/8/1 48/62/1 45/63/1 
f 42/55/2 45/53/2 48/64/2 
f 48/64/2 43/65/2 42/55/2 
f 48/66/6 47/57/6 41/56/6 
f 41/56/6 43/67/6 48/66/6 
f 50/69/1 49/68/1 51/70/1 
f 51/70/1 52/71/1 50/69/1 
f 2/73/4 53/72/4 54/74/4 
f 54/74/4 1/75/4 2/73/4 
f 3/76/3 35/27/3 9/26/3 
f 9/26/3 10/77/3 3/76/3 
f 10/77/3 55/78/3 3/76/3 
f 10/77/3 54/79/3 55/78/3 
f 35/27/3 3/76/3 1/80/3 
f 1/80/3 15/29/3 35/27/3 
f 1/80/3 54/79/3 15/29/3 
f 54/79/3 10/77/3 15/29/3 
f 54/82/5 53/81/5 56/83/5 
f 56/83/5 55/84/5 54/82/5 
f 56/86/2 4/85/2 3/87/2 
f 3/87/2 55/88/2 56/86/2 
f 2/89/6 7/8/6 5/6/6 
f 5/6/6 16/90/6 2/89/6 
f 16/90/6 53/91/6 2/89/6 
f 16/90/6 56/92/6 53/91/6 
f 7/8/6 2/89/6 4/93/6 
f 4/93/6 13/94/6 7/8/6 
f 4/93/6 56/92/6 13/94/6 
f 56/92/6 16/90/6 13/94/6 
f 35/50/4 15/49/4 18/95/4 
f 18/95/4 34/51/4 35/50/4 
f 30/20/6 28/31/6 44/30/6 
f 44/30/6 22/38/6 30/20/6 
f 44/30/6 18/90/6 22/38/6 
f 18/90/6 44/30/6 12/96/6 
f 18/90/6 12/96/6 11/8/6 
f 11/8/6 34/6/6 18/90/6 
f 19/37/2 27/31/2 33/32/2 
f 33/32/2 20/13/2 19/37/2 
f 38/86/2 52/85/2 51/87/2 
f 51/87/2 39/88/2 38/86/2 
f 51/98/3 29/97/3 31/99/3 
f 31/99/3 21/13/3 51/98/3 
f 21/13/3 39/100/3 51/98/3 
f 21/13/3 37/101/3 39/100/3 
f 29/97/3 51/98/3 49/102/3 
f 49/102/3 24/103/3 29/97/3 
f 49/102/3 37/101/3 24/103/3 
f 37/101/3 21/13/3 24/103/3 
f 50/73/4 36/72/4 37/74/4 
f 37/74/4 49/75/4 50/73/4 
f 50/104/6 33/20/6 32/31/6 
f 32/31/6 23/37/6 50/104/6 
f 23/37/6 36/105/6 50/104/6 
f 23/37/6 38/106/6 36/105/6 
f 33/20/6 50/104/6 52/107/6 
f 52/107/6 20/38/6 33/20/6 
f 52/107/6 38/106/6 20/38/6 
f 38/106/6 23/37/6 20/38/6 

usemtl _defaultMat

f 44/48/5 25/51/5 14/50/5 
f 14/48/5 12/51/5 44/50/5 
g sideTable




usemtl wood

f 2/2/1 1/1/1 3/3/1 
f 3/3/1 4/4/1 2/2/1 
f 6/6/1 5/5/1 7/7/1 
f 7/7/1 8/8/1 6/6/1 
f 10/10/2 9/9/2 11/11/2 
f 10/10/2 11/11/2 12/12/2 
f 13/13/2 10/10/2 12/12/2 
f 13/13/2 12/12/2 14/14/2 
f 7/15/2 13/13/2 14/14/2 
f 14/14/2 8/16/2 7/15/2 
f 16/5/1 15/17/1 10/18/1 
f 10/18/1 13/7/1 16/5/1 
f 15/17/1 16/5/1 17/6/1 
f 18/19/1 15/17/1 17/6/1 
f 18/19/1 17/6/1 19/20/1 
f 18/19/1 19/20/1 20/21/1 
f 18/19/1 20/21/1 21/22/1 
f 21/22/1 22/23/1 18/19/1 
f 21/22/1 20/21/1 23/24/1 
f 23/24/1 24/25/1 21/22/1 
f 6/27/3 8/26/3 14/28/3 
f 14/28/3 17/29/3 6/27/3 
f 14/28/3 19/13/3 17/29/3 
f 19/13/3 14/28/3 25/30/3 
f 19/13/3 25/30/3 26/31/3 
f 26/31/3 27/32/3 19/13/3 
f 29/25/1 28/33/1 30/23/1 
f 30/23/1 31/22/1 29/25/1 
f 26/31/1 32/24/1 33/21/1 
f 33/21/1 27/20/1 26/31/1 
f 21/10/2 31/34/2 30/35/2 
f 30/35/2 22/36/2 21/10/2 
f 6/31/4 17/37/4 16/38/4 
f 16/38/4 5/20/4 6/31/4 
f 35/17/1 34/19/1 11/39/1 
f 11/39/1 9/18/1 35/17/1 
f 37/41/5 36/40/5 38/42/5 
f 38/42/5 39/43/5 37/41/5 
f 41/45/5 40/44/5 42/46/5 
f 42/46/5 43/47/5 41/45/5 
f 26/31/4 23/38/4 32/20/4 
f 23/38/4 26/31/4 25/30/4 
f 25/30/4 44/48/4 23/38/4 
f 44/48/4 24/49/4 23/38/4 
f 44/48/4 29/50/4 24/49/4 
f 44/48/4 28/51/4 29/50/4 
f 46/53/3 45/52/3 42/54/3 
f 42/54/3 40/55/3 46/53/3 
f 46/57/4 40/56/4 41/58/4 
f 41/58/4 47/59/4 46/57/4 
f 44/33/1 46/60/1 47/61/1 
f 47/61/1 48/62/1 44/33/1 
f 48/62/1 12/39/1 44/33/1 
f 48/62/1 14/8/1 12/39/1 
f 46/60/1 44/33/1 25/31/1 
f 25/31/1 45/63/1 46/60/1 
f 25/31/1 14/8/1 45/63/1 
f 14/8/1 48/62/1 45/63/1 
f 42/55/2 45/53/2 48/64/2 
f 48/64/2 43/65/2 42/55/2 
f 48/66/6 47/57/6 41/56/6 
f 41/56/6 43/67/6 48/66/6 
f 50/69/1 49/68/1 51/70/1 
f 51/70/1 52/71/1 50/69/1 
f 2/73/4 53/72/4 54/74/4 
f 54/74/4 1/75/4 2/73/4 
f 3/76/3 35/27/3 9/26/3 
f 9/26/3 10/77/3 3/76/3 
f 10/77/3 55/78/3 3/76/3 
f 10/77/3 54/79/3 55/78/3 
f 35/27/3 3/76/3 1/80/3 
f 1/80/3 15/29/3 35/27/3 
f 1/80/3 54/79/3 15/29/3 
f 54/79/3 10/77/3 15/29/3 
f 54/82/5 53/81/5 56/83/5 
f 56/83/5 55/84/5 54/82/5 
f 56/86/2 4/85/2 3/87/2 
f 3/87/2 55/88/2 56/86/2 
f 2/89/6 7/8/6 5/6/6 
f 5/6/6 16/90/6 2/89/6 
f 16/90/6 53/91/6 2/89/6 
f 16/90/6 56/92/6 53/91/6 
f 7/8/6 2/89/6 4/93/6 
f 4/93/6 13/94/6 7/8/6 
f 4/93/6 56/92/6 13/94/6 
f 56/92/6 16/90/6 13/94/6 
f 35/50/4 15/49/4 18/95/4 
f 18/95/4 34/51/4 35/50/4 
f 30/20/6 28/31/6 44/30/6 
f 44/30/6 22/38/6 30/20/6 
f 44/30/6 18/90/6 22/38/6 
f 18/90/6 44/30/6 12/96/6 
f 18/90/6 12/96/6 11/8/6 
f 11/8/6 34/6/6 18/90/6 
f 19/37/2 27/31/2 33/32/2 
f 33/32/2 20/13/2 19/37/2 
f 38/86/2 52/85/2 51/87/2 
f 51/87/2 39/88/2 38/86/2 
f 51/98/3 29/97/3 31/99/3 
f 31/99/3 21/13/3 51/98/3 
f 21/13/3 39/100/3 51/98/3 
f 21/13/3 37/101/3 39/100/3 
f 29/97/3 51/98/3 49/102/3 
f 49/102/3 24/103/3 29/97/3 
f 49/102/3 37/101/3 24/103/3 
f 37/101/3 21/13/3 24/103/3 
f 50/73/4 36/72/4 37/74/4 
f 37/74/4 49/75/4 50/73/4 
f 50/104/6 33/20/6 32/31/6 
f 32/31/6 23/37/6 50/104/6 
f 23/37/6 36/105/6 50/104/6 
f 23/37/6 38/106/6 36/105/6 
f 33/20/6 50/104/6 52/107/6 
f 52/107/6 20/38/6 33/20/6 
f 52/107/6 38/106/6 20/38/6 
f 38/106/6 23/37/6 20/38/6 

usemtl _defaultMat

f 44/48/5 25/51/5 14/50/5 
f 14/48/5 12/51/5 44/50/5 
