# Created by Kenney (www.kenney.nl) 

mtllib stairsOpenSingle.mtl 

g stairsOpenSingle

v 0 0.1217756 0 
v 0 0.1217756 0.79 
v -0.1839486 0.1217756 0 
v -0.1839486 0.1217756 0.79 
v -1.311589 1.095981 0 
v -1.311589 1.065537 0 
v -1.311589 1.095981 0.79 
v -1.311589 1.065537 0.79 
v -1.14764 0.9742048 0 
v -1.14764 0.943761 0 
v -1.14764 0.9742048 0.79 
v -1.14764 0.943761 0.79 
v -1.331589 0.943761 0.79 
v -1.331589 0.9742048 0.79 
v -0.3278972 0.3653268 0 
v -0.3278972 0.3653268 0.79 
v -0.5118458 0.3653268 0 
v -0.5118458 0.3653268 0.79 
v -1.475538 1.217756 0 
v -1.475538 1.217756 0.79 
v -1.659486 1.217756 0 
v -1.659486 1.217756 0.79 
v -1.331589 0.9742048 0 
v -0.1639486 0.2435512 0 
v -0.1639486 0.2435512 0.79 
v -0.3478972 0.2435512 0 
v -0.3478972 0.2435512 0.79 
v -0.9836917 0.8524293 0 
v -0.9836917 0.8524293 0.79 
v -1.16764 0.8524293 0 
v -1.16764 0.8524293 0.79 
v -0.8197431 0.7306536 0 
v -0.8197431 0.7306536 0.79 
v -1.003692 0.7306536 0 
v -1.003692 0.7306536 0.79 
v -1.495538 1.095981 0 
v -1.495538 1.095981 0.79 
v -0.4918458 0.4871024 0 
v -0.4918458 0.4871024 0.79 
v -0.6757944 0.4871024 0 
v -0.6757944 0.4871024 0.79 
v -1.639486 1.339532 0 
v -1.639486 1.339532 0.79 
v -1.823435 1.339532 0 
v -1.823435 1.339532 0.79 
v -0.6557944 0.608878 0 
v -0.6557944 0.608878 0.79 
v -0.839743 0.608878 0 
v -0.839743 0.608878 0.79 
v -1.475538 1.187312 0.79 
v -1.659486 1.187312 0.79 
v -1.659486 1.187312 0 
v -1.475538 1.187312 0 
v -1.495538 1.065537 0.79 
v -1.495538 1.065537 0 
v -1.003692 0.7002098 0.79 
v -0.8197431 0.7002098 0.79 
v -1.16764 0.8219854 0.79 
v -0.9836917 0.8219854 0.79 
v -0.6757944 0.4566585 0.79 
v -0.4918458 0.4566585 0.79 
v -0.3478972 0.2131073 0.79 
v -0.1639486 0.2131073 0.79 
v -0.1839486 0.09133171 0 
v 0 0.09133171 0 
v -0.5118458 0.3348829 0 
v -0.3278972 0.3348829 0 
v -0.6757944 0.4566585 0 
v -0.4918458 0.4566585 0 
v 0 0.09133171 0.79 
v -0.1839486 0.09133171 0.79 
v -1.331589 0.943761 0 
v -1.639486 1.309088 0 
v -1.639486 1.309088 0.79 
v -1.003692 0.7002098 0 
v -0.6557944 0.5784342 0 
v -0.6557944 0.5784342 0.79 
v -0.3478972 0.2131073 0 
v -0.1639486 0.2131073 0 
v -1.823435 1.309088 0 
v -0.9836917 0.8219854 0 
v -1.16764 0.8219854 0 
v -0.839743 0.5784342 0.79 
v -0.839743 0.5784342 0 
v -0.8197431 0.7002098 0 
v -0.3278972 0.3348829 0.79 
v -0.5118458 0.3348829 0.79 
v -1.823435 1.309088 0.77 
v -1.823435 1.309088 0.79 

vn 0 1 0 
vn 1 0 0 
vn 0 0 1 
vn -1 0 0 
vn 0 -1 0 
vn 0 0 -1 

vt 1.596129E-16 5.100933E-15 
vt 1.596129E-16 31.10236 
vt 7.242071 5.100933E-15 
vt 7.242071 31.10236 
vt 0 43.14884 
vt 0 41.95026 
vt -31.10236 43.14884 
vt -31.10236 41.95026 
vt -2.609432E-13 38.35452 
vt -2.609432E-13 37.15594 
vt -31.10236 38.35452 
vt -31.10236 37.15594 
vt -52.42476 37.15594 
vt -52.42476 38.35452 
vt -45.18269 37.15594 
vt -45.18269 38.35452 
vt 12.90934 -5.293942E-14 
vt 12.90934 31.10236 
vt 20.15141 -5.293942E-14 
vt 20.15141 31.10236 
vt 58.09203 -1.36266E-13 
vt 58.09203 31.10236 
vt 65.3341 -1.36266E-13 
vt 65.3341 31.10236 
vt 45.18269 -1.323485E-13 
vt 45.18269 31.10236 
vt 52.42476 -1.323485E-13 
vt 52.42476 31.10236 
vt 6.45467 -1.599212E-14 
vt 6.45467 31.10236 
vt 13.69674 -1.599212E-14 
vt 13.69674 31.10236 
vt 38.72802 -7.294237E-14 
vt 38.72802 31.10236 
vt 45.97009 -7.294237E-14 
vt 45.97009 31.10236 
vt 32.27335 -1.058788E-13 
vt 32.27335 31.10236 
vt 39.51542 -1.058788E-13 
vt 39.51542 31.10236 
vt 51.63736 -1.588183E-13 
vt 51.63736 31.10236 
vt 58.87943 -1.588183E-13 
vt 58.87943 31.10236 
vt 19.36401 -7.058589E-14 
vt 19.36401 31.10236 
vt 26.60608 -7.058589E-14 
vt 26.60608 31.10236 
vt 64.5467 -1.325284E-13 
vt 64.5467 31.10236 
vt 71.78877 -1.325284E-13 
vt 71.78877 31.10236 
vt 25.81868 -6.531545E-14 
vt 25.81868 31.10236 
vt 33.06075 -6.531545E-14 
vt 33.06075 31.10236 
vt -58.09203 46.74458 
vt -65.3341 46.74458 
vt -58.09203 47.94315 
vt -65.3341 47.94315 
vt 0 46.74458 
vt 0 47.94315 
vt 31.10236 46.74458 
vt 31.10236 47.94315 
vt -31.10236 47.94315 
vt -31.10236 46.74458 
vt -58.87943 41.95026 
vt -58.87943 43.14884 
vt -51.63736 41.95026 
vt -51.63736 43.14884 
vt 31.10236 41.95026 
vt 31.10236 43.14884 
vt -51.63736 31.10236 
vt -51.63736 -1.129573E-13 
vt -58.87943 31.10236 
vt -58.87943 -1.129573E-13 
vt -39.51542 27.56731 
vt -39.51542 28.76589 
vt -32.27335 27.56731 
vt -32.27335 28.76589 
vt -45.97009 32.36163 
vt -45.97009 33.56021 
vt -38.72802 32.36163 
vt -38.72802 33.56021 
vt -26.60608 17.97868 
vt -26.60608 19.17726 
vt -19.36401 17.97868 
vt -19.36401 19.17726 
vt -13.69674 8.390052 
vt -13.69674 9.588631 
vt -6.45467 8.390052 
vt -6.45467 9.588631 
vt 7.242071 3.595737 
vt 0 3.595737 
vt 7.242071 4.794315 
vt 0 4.794315 
vt 20.15141 13.18437 
vt 12.90934 13.18437 
vt 20.15141 14.38295 
vt 12.90934 14.38295 
vt 26.60608 17.97868 
vt 19.36401 17.97868 
vt 26.60608 19.17726 
vt 19.36401 19.17726 
vt 0 17.97868 
vt 0 19.17726 
vt 31.10236 17.97868 
vt 31.10236 19.17726 
vt 2.601114E-14 31.10236 
vt 2.601114E-14 -2.443962E-15 
vt -7.242071 31.10236 
vt -7.242071 -2.443962E-15 
vt 52.42476 37.15594 
vt 45.18269 37.15594 
vt 52.42476 38.35452 
vt 45.18269 38.35452 
vt 58.87943 41.95026 
vt 51.63736 41.95026 
vt 58.87943 43.14884 
vt 51.63736 43.14884 
vt 0 52.73747 
vt 0 51.53889 
vt -31.10236 52.73747 
vt -31.10236 51.53889 
vt 0 27.56731 
vt 0 28.76589 
vt 31.10236 27.56731 
vt 31.10236 28.76589 
vt 0 23.97158 
vt 0 22.773 
vt -31.10236 23.97158 
vt -31.10236 22.773 
vt 13.69674 8.390052 
vt 6.45467 8.390052 
vt 13.69674 9.588631 
vt 6.45467 9.588631 
vt 71.78877 51.53889 
vt 64.5467 51.53889 
vt 71.78877 52.73747 
vt 64.5467 52.73747 
vt 65.3341 46.74458 
vt 58.09203 46.74458 
vt 65.3341 47.94315 
vt 58.09203 47.94315 
vt 0 37.15594 
vt 0 38.35452 
vt 31.10236 37.15594 
vt 31.10236 38.35452 
vt -38.72802 31.10236 
vt -38.72802 -8.876573E-14 
vt -45.97009 31.10236 
vt -45.97009 -8.876573E-14 
vt -31.10236 4.794315 
vt -31.10236 3.595737 
vt -25.81868 31.10236 
vt -25.81868 -6.169184E-14 
vt -33.06075 31.10236 
vt -33.06075 -6.169184E-14 
vt -1.242587E-13 28.76589 
vt -1.242587E-13 27.56731 
vt -31.10236 28.76589 
vt -31.10236 27.56731 
vt -12.90934 31.10236 
vt -12.90934 -3.836398E-14 
vt -20.15141 31.10236 
vt -20.15141 -3.836398E-14 
vt 31.10236 3.595737 
vt 31.10236 4.794315 
vt 1.587992E-14 22.773 
vt 1.587992E-14 23.97158 
vt 31.10236 22.773 
vt 31.10236 23.97158 
vt 39.51542 27.56731 
vt 32.27335 27.56731 
vt 39.51542 28.76589 
vt 32.27335 28.76589 
vt 6.624182E-14 32.36163 
vt 6.624182E-14 33.56021 
vt 31.10236 32.36163 
vt 31.10236 33.56021 
vt 0 33.56021 
vt 0 32.36163 
vt -31.10236 33.56021 
vt -31.10236 32.36163 
vt -6.45467 31.10236 
vt -6.45467 -1.599701E-14 
vt -13.69674 31.10236 
vt -13.69674 -1.599701E-14 
vt 0 9.588631 
vt 0 8.390052 
vt -31.10236 9.588631 
vt -31.10236 8.390052 
vt -7.242071 3.595737 
vt -7.242071 4.794315 
vt 33.06075 22.773 
vt 25.81868 22.773 
vt 33.06075 23.97158 
vt 25.81868 23.97158 
vt 45.97009 32.36163 
vt 38.72802 32.36163 
vt 45.97009 33.56021 
vt 38.72802 33.56021 
vt -19.36401 31.10236 
vt -19.36401 -6.406112E-14 
vt -26.60608 31.10236 
vt -26.60608 -6.406112E-14 
vt 0 13.18437 
vt 0 14.38295 
vt 31.10236 13.18437 
vt 31.10236 14.38295 
vt -20.15141 13.18437 
vt -20.15141 14.38295 
vt -12.90934 13.18437 
vt -12.90934 14.38295 
vt 31.10236 8.390052 
vt 31.10236 9.588631 
vt -31.10236 19.17726 
vt -31.10236 17.97868 
vt -71.78877 30.31496 
vt -64.5467 -8.189217E-14 
vt -71.78877 -8.189217E-14 
vt -71.78877 31.10236 
vt -64.5467 31.10236 
vt -58.09203 31.10236 
vt -58.09203 -1.397932E-13 
vt -65.3341 31.10236 
vt -65.3341 -1.397932E-13 
vt -45.18269 -6.599799E-14 
vt -52.42476 -6.599799E-14 
vt -45.18269 31.10236 
vt -52.42476 31.10236 
vt -31.10236 14.38295 
vt -31.10236 13.18437 
vt -33.06075 22.773 
vt -33.06075 23.97158 
vt -25.81868 22.773 
vt -25.81868 23.97158 
vt -32.27335 -9.822706E-14 
vt -39.51542 -9.822706E-14 
vt -32.27335 31.10236 
vt -39.51542 31.10236 
vt -64.5467 51.53889 
vt -71.78877 51.53889 
vt -64.5467 52.73747 
vt -71.78877 52.73747 
vt 2.923895E-14 51.53889 
vt 2.923895E-14 52.73747 
vt 30.31496 51.53889 
vt 31.10236 52.73747 
vt 31.10236 51.53889 

usemtl metal

f 2/2/1 1/1/1 3/3/1 
f 3/3/1 4/4/1 2/2/1 
f 6/6/2 5/5/2 7/7/2 
f 7/7/2 8/8/2 6/6/2 
f 10/10/2 9/9/2 11/11/2 
f 11/11/2 12/12/2 10/10/2 
f 14/14/3 13/13/3 12/15/3 
f 12/15/3 11/16/3 14/14/3 
f 16/18/1 15/17/1 17/19/1 
f 17/19/1 18/20/1 16/18/1 
f 20/22/1 19/21/1 21/23/1 
f 21/23/1 22/24/1 20/22/1 
f 11/26/1 9/25/1 23/27/1 
f 23/27/1 14/28/1 11/26/1 
f 25/30/1 24/29/1 26/31/1 
f 26/31/1 27/32/1 25/30/1 
f 29/34/1 28/33/1 30/35/1 
f 30/35/1 31/36/1 29/34/1 
f 33/38/1 32/37/1 34/39/1 
f 34/39/1 35/40/1 33/38/1 
f 7/42/1 5/41/1 36/43/1 
f 36/43/1 37/44/1 7/42/1 
f 39/46/1 38/45/1 40/47/1 
f 40/47/1 41/48/1 39/46/1 
f 43/50/1 42/49/1 44/51/1 
f 44/51/1 45/52/1 43/50/1 
f 47/54/1 46/53/1 48/55/1 
f 48/55/1 49/56/1 47/54/1 
f 51/58/3 50/57/3 20/59/3 
f 20/59/3 22/60/3 51/58/3 
f 21/62/4 52/61/4 51/63/4 
f 51/63/4 22/64/4 21/62/4 
f 53/61/2 19/62/2 20/65/2 
f 20/65/2 50/66/2 53/61/2 
f 37/68/3 54/67/3 8/69/3 
f 8/69/3 7/70/3 37/68/3 
f 36/5/4 55/6/4 54/71/4 
f 54/71/4 37/72/4 36/5/4 
f 6/74/5 8/73/5 54/75/5 
f 54/75/5 55/76/5 6/74/5 
f 35/78/3 56/77/3 57/79/3 
f 57/79/3 33/80/3 35/78/3 
f 31/82/3 58/81/3 59/83/3 
f 59/83/3 29/84/3 31/82/3 
f 41/86/3 60/85/3 61/87/3 
f 61/87/3 39/88/3 41/86/3 
f 27/90/3 62/89/3 63/91/3 
f 63/91/3 25/92/3 27/90/3 
f 65/94/6 64/93/6 3/95/6 
f 3/95/6 1/96/6 65/94/6 
f 67/98/6 66/97/6 17/99/6 
f 17/99/6 15/100/6 67/98/6 
f 69/102/6 68/101/6 40/103/6 
f 40/103/6 38/104/6 69/102/6 
f 40/106/4 68/105/4 60/107/4 
f 60/107/4 41/108/4 40/106/4 
f 65/110/5 70/109/5 71/111/5 
f 71/111/5 64/112/5 65/110/5 
f 10/114/6 72/113/6 23/115/6 
f 23/115/6 9/116/6 10/114/6 
f 6/118/6 55/117/6 36/119/6 
f 36/119/6 5/120/6 6/118/6 
f 73/122/2 42/121/2 43/123/2 
f 43/123/2 74/124/2 73/122/2 
f 34/126/4 75/125/4 56/127/4 
f 56/127/4 35/128/4 34/126/4 
f 76/130/2 46/129/2 47/131/2 
f 47/131/2 77/132/2 76/130/2 
f 79/134/6 78/133/6 26/135/6 
f 26/135/6 24/136/6 79/134/6 
f 73/138/6 80/137/6 44/139/6 
f 44/139/6 42/140/6 73/138/6 
f 53/142/6 52/141/6 21/143/6 
f 21/143/6 19/144/6 53/142/6 
f 23/146/4 72/145/4 13/147/4 
f 13/147/4 14/148/4 23/146/4 
f 81/150/5 59/149/5 58/151/5 
f 58/151/5 82/152/5 81/150/5 
f 65/94/2 1/96/2 2/153/2 
f 2/153/2 70/154/2 65/94/2 
f 76/156/5 77/155/5 83/157/5 
f 83/157/5 84/158/5 76/156/5 
f 85/160/2 32/159/2 33/161/2 
f 33/161/2 57/162/2 85/160/2 
f 67/164/5 86/163/5 87/165/5 
f 87/165/5 66/166/5 67/164/5 
f 3/96/4 64/94/4 71/167/4 
f 71/167/4 4/168/4 3/96/4 
f 48/170/4 84/169/4 83/171/4 
f 83/171/4 49/172/4 48/170/4 
f 85/174/6 75/173/6 34/175/6 
f 34/175/6 32/176/6 85/174/6 
f 30/178/4 82/177/4 58/179/4 
f 58/179/4 31/180/4 30/178/4 
f 81/182/2 28/181/2 29/183/2 
f 29/183/2 59/184/2 81/182/2 
f 79/186/5 63/185/5 62/187/5 
f 62/187/5 78/188/5 79/186/5 
f 79/190/2 24/189/2 25/191/2 
f 25/191/2 63/192/2 79/190/2 
f 4/194/3 71/193/3 70/94/3 
f 70/94/3 2/96/3 4/194/3 
f 76/196/6 84/195/6 48/197/6 
f 48/197/6 46/198/6 76/196/6 
f 81/200/6 82/199/6 30/201/6 
f 30/201/6 28/202/6 81/200/6 
f 69/204/5 61/203/5 60/205/5 
f 60/205/5 68/206/5 69/204/5 
f 17/208/4 66/207/4 87/209/4 
f 87/209/4 18/210/4 17/208/4 
f 18/212/3 87/211/3 86/213/3 
f 86/213/3 16/214/3 18/212/3 
f 26/189/4 78/190/4 62/215/4 
f 62/215/4 27/216/4 26/189/4 
f 69/105/2 38/106/2 39/217/2 
f 39/217/2 61/218/2 69/105/2 
f 73/220/5 88/219/5 80/221/5 
f 89/222/5 88/219/5 73/220/5 
f 73/220/5 74/223/5 89/222/5 
f 53/225/5 50/224/5 51/226/5 
f 51/226/5 52/227/5 53/225/5 
f 72/229/5 10/228/5 12/230/5 
f 12/230/5 13/231/5 72/229/5 
f 67/207/2 15/208/2 16/232/2 
f 16/232/2 86/233/2 67/207/2 
f 49/235/3 83/234/3 77/236/3 
f 77/236/3 47/237/3 49/235/3 
f 75/239/5 85/238/5 57/240/5 
f 57/240/5 56/241/5 75/239/5 
f 89/243/3 74/242/3 43/244/3 
f 43/244/3 45/245/3 89/243/3 
f 44/247/4 80/246/4 88/248/4 
f 88/248/4 45/249/4 44/247/4 
f 88/248/4 89/250/4 45/249/4 
g stairsOpenSingle




usemtl metal

f 2/2/1 1/1/1 3/3/1 
f 3/3/1 4/4/1 2/2/1 
f 6/6/2 5/5/2 7/7/2 
f 7/7/2 8/8/2 6/6/2 
f 10/10/2 9/9/2 11/11/2 
f 11/11/2 12/12/2 10/10/2 
f 14/14/3 13/13/3 12/15/3 
f 12/15/3 11/16/3 14/14/3 
f 16/18/1 15/17/1 17/19/1 
f 17/19/1 18/20/1 16/18/1 
f 20/22/1 19/21/1 21/23/1 
f 21/23/1 22/24/1 20/22/1 
f 11/26/1 9/25/1 23/27/1 
f 23/27/1 14/28/1 11/26/1 
f 25/30/1 24/29/1 26/31/1 
f 26/31/1 27/32/1 25/30/1 
f 29/34/1 28/33/1 30/35/1 
f 30/35/1 31/36/1 29/34/1 
f 33/38/1 32/37/1 34/39/1 
f 34/39/1 35/40/1 33/38/1 
f 7/42/1 5/41/1 36/43/1 
f 36/43/1 37/44/1 7/42/1 
f 39/46/1 38/45/1 40/47/1 
f 40/47/1 41/48/1 39/46/1 
f 43/50/1 42/49/1 44/51/1 
f 44/51/1 45/52/1 43/50/1 
f 47/54/1 46/53/1 48/55/1 
f 48/55/1 49/56/1 47/54/1 
f 51/58/3 50/57/3 20/59/3 
f 20/59/3 22/60/3 51/58/3 
f 21/62/4 52/61/4 51/63/4 
f 51/63/4 22/64/4 21/62/4 
f 53/61/2 19/62/2 20/65/2 
f 20/65/2 50/66/2 53/61/2 
f 37/68/3 54/67/3 8/69/3 
f 8/69/3 7/70/3 37/68/3 
f 36/5/4 55/6/4 54/71/4 
f 54/71/4 37/72/4 36/5/4 
f 6/74/5 8/73/5 54/75/5 
f 54/75/5 55/76/5 6/74/5 
f 35/78/3 56/77/3 57/79/3 
f 57/79/3 33/80/3 35/78/3 
f 31/82/3 58/81/3 59/83/3 
f 59/83/3 29/84/3 31/82/3 
f 41/86/3 60/85/3 61/87/3 
f 61/87/3 39/88/3 41/86/3 
f 27/90/3 62/89/3 63/91/3 
f 63/91/3 25/92/3 27/90/3 
f 65/94/6 64/93/6 3/95/6 
f 3/95/6 1/96/6 65/94/6 
f 67/98/6 66/97/6 17/99/6 
f 17/99/6 15/100/6 67/98/6 
f 69/102/6 68/101/6 40/103/6 
f 40/103/6 38/104/6 69/102/6 
f 40/106/4 68/105/4 60/107/4 
f 60/107/4 41/108/4 40/106/4 
f 65/110/5 70/109/5 71/111/5 
f 71/111/5 64/112/5 65/110/5 
f 10/114/6 72/113/6 23/115/6 
f 23/115/6 9/116/6 10/114/6 
f 6/118/6 55/117/6 36/119/6 
f 36/119/6 5/120/6 6/118/6 
f 73/122/2 42/121/2 43/123/2 
f 43/123/2 74/124/2 73/122/2 
f 34/126/4 75/125/4 56/127/4 
f 56/127/4 35/128/4 34/126/4 
f 76/130/2 46/129/2 47/131/2 
f 47/131/2 77/132/2 76/130/2 
f 79/134/6 78/133/6 26/135/6 
f 26/135/6 24/136/6 79/134/6 
f 73/138/6 80/137/6 44/139/6 
f 44/139/6 42/140/6 73/138/6 
f 53/142/6 52/141/6 21/143/6 
f 21/143/6 19/144/6 53/142/6 
f 23/146/4 72/145/4 13/147/4 
f 13/147/4 14/148/4 23/146/4 
f 81/150/5 59/149/5 58/151/5 
f 58/151/5 82/152/5 81/150/5 
f 65/94/2 1/96/2 2/153/2 
f 2/153/2 70/154/2 65/94/2 
f 76/156/5 77/155/5 83/157/5 
f 83/157/5 84/158/5 76/156/5 
f 85/160/2 32/159/2 33/161/2 
f 33/161/2 57/162/2 85/160/2 
f 67/164/5 86/163/5 87/165/5 
f 87/165/5 66/166/5 67/164/5 
f 3/96/4 64/94/4 71/167/4 
f 71/167/4 4/168/4 3/96/4 
f 48/170/4 84/169/4 83/171/4 
f 83/171/4 49/172/4 48/170/4 
f 85/174/6 75/173/6 34/175/6 
f 34/175/6 32/176/6 85/174/6 
f 30/178/4 82/177/4 58/179/4 
f 58/179/4 31/180/4 30/178/4 
f 81/182/2 28/181/2 29/183/2 
f 29/183/2 59/184/2 81/182/2 
f 79/186/5 63/185/5 62/187/5 
f 62/187/5 78/188/5 79/186/5 
f 79/190/2 24/189/2 25/191/2 
f 25/191/2 63/192/2 79/190/2 
f 4/194/3 71/193/3 70/94/3 
f 70/94/3 2/96/3 4/194/3 
f 76/196/6 84/195/6 48/197/6 
f 48/197/6 46/198/6 76/196/6 
f 81/200/6 82/199/6 30/201/6 
f 30/201/6 28/202/6 81/200/6 
f 69/204/5 61/203/5 60/205/5 
f 60/205/5 68/206/5 69/204/5 
f 17/208/4 66/207/4 87/209/4 
f 87/209/4 18/210/4 17/208/4 
f 18/212/3 87/211/3 86/213/3 
f 86/213/3 16/214/3 18/212/3 
f 26/189/4 78/190/4 62/215/4 
f 62/215/4 27/216/4 26/189/4 
f 69/105/2 38/106/2 39/217/2 
f 39/217/2 61/218/2 69/105/2 
f 73/220/5 88/219/5 80/221/5 
f 89/222/5 88/219/5 73/220/5 
f 73/220/5 74/223/5 89/222/5 
f 53/225/5 50/224/5 51/226/5 
f 51/226/5 52/227/5 53/225/5 
f 72/229/5 10/228/5 12/230/5 
f 12/230/5 13/231/5 72/229/5 
f 67/207/2 15/208/2 16/232/2 
f 16/232/2 86/233/2 67/207/2 
f 49/235/3 83/234/3 77/236/3 
f 77/236/3 47/237/3 49/235/3 
f 75/239/5 85/238/5 57/240/5 
f 57/240/5 56/241/5 75/239/5 
f 89/243/3 74/242/3 43/244/3 
f 43/244/3 45/245/3 89/243/3 
f 44/247/4 80/246/4 88/248/4 
f 88/248/4 45/249/4 44/247/4 
f 88/248/4 89/250/4 45/249/4 
g Group

v -0.02 1.001154E-14 0.29 
v -0.1839486 0.09133171 0.29 
v -0.1839486 9.337238E-15 0.29 
v -1.823435 1.217756 0.29 
v -0.3478972 0.2131073 0.29 
v -0.5118458 0.3348829 0.29 
v -0.6757944 0.4566585 0.29 
v -0.8397431 0.5784342 0.29 
v -1.003692 0.7002098 0.29 
v -1.16764 0.8219854 0.29 
v -1.331589 0.943761 0.29 
v -1.495538 1.065537 0.29 
v -1.659486 1.187312 0.29 
v -1.659486 1.309088 0.29 
v -1.823435 1.309088 0.29 
v -1.495538 1.187312 0.29 
v -1.331589 1.065537 0.29 
v -1.16764 0.943761 0.29 
v -1.003692 0.8219854 0.29 
v -0.8397431 0.7002098 0.29 
v -0.6757944 0.5784342 0.29 
v -0.5118458 0.4566585 0.29 
v -0.3478972 0.3348829 0.29 
v -0.1839486 0.2131073 0.29 
v -0.02 0.09133171 0.29 
v -1.823435 1.217756 0.48 
v -0.1839486 0.09133171 0.48 
v -0.1839486 9.337238E-15 0.48 
v -0.02 1.001154E-14 0.48 
v -0.02 0.09133171 0.48 
v -0.3478972 0.2131073 0.48 
v -0.1839486 0.2131073 0.48 
v -0.5118458 0.3348829 0.48 
v -0.3478972 0.3348829 0.48 
v -0.6757944 0.4566585 0.48 
v -0.5118458 0.4566585 0.48 
v -0.8397431 0.5784342 0.48 
v -0.6757944 0.5784342 0.48 
v -1.003692 0.7002098 0.48 
v -0.8397431 0.7002098 0.48 
v -1.16764 0.8219854 0.48 
v -1.003692 0.8219854 0.48 
v -1.331589 0.943761 0.48 
v -1.16764 0.943761 0.48 
v -1.495538 1.065537 0.48 
v -1.331589 1.065537 0.48 
v -1.659486 1.187312 0.48 
v -1.495538 1.187312 0.48 
v -1.659486 1.309088 0.48 
v -1.823435 1.309088 0.48 

vn -0.5962774 -0.8027785 0 
vn 0.5962774 0.8027785 0 

vt 0 2.654728E-14 
vt 6.45467 3.595737 
vt 6.45467 0 
vt 71.00137 47.94315 
vt 12.90934 8.390052 
vt 19.36401 13.18437 
vt 25.81868 17.97868 
vt 32.27335 22.773 
vt 38.72802 27.56731 
vt 45.18269 32.36163 
vt 51.63736 37.15594 
vt 58.09203 41.95026 
vt 64.5467 46.74458 
vt 71.00137 51.53889 
vt -71.00137 47.94315 
vt -6.45467 3.595737 
vt -6.45467 0 
vt -12.90934 8.390052 
vt -19.36401 13.18437 
vt -25.81868 17.97868 
vt -32.27335 22.773 
vt -38.72802 27.56731 
vt -45.18269 32.36163 
vt -51.63736 37.15594 
vt -58.09203 41.95026 
vt -64.5467 46.74458 
vt -71.00137 51.53889 
vt -7.480315 8.390052 
vt -7.480315 3.595737 
vt 0 0 
vt 0 7.480315 
vt 6.45467 7.480315 
vt -7.480315 2.654728E-14 
vt 1.091858E-28 7.480315 
vt 1.091858E-28 0 
vt -6.45467 7.480315 
vt 7.480315 5.18167 
vt 0 5.18167 
vt 7.480315 85.58578 
vt 0 85.58578 
vt 7.480315 47.94315 
vt 7.480315 51.53889 
vt 64.5467 0 
vt 64.5467 7.480315 
vt 71.00137 0 
vt 71.00137 7.480315 
vt -7.480315 51.53889 
vt -7.480315 46.74458 
vt 58.09203 0 
vt 58.09203 7.480315 
vt -7.480315 41.95026 
vt 51.63736 0 
vt 51.63736 7.480315 
vt -7.480315 37.15594 
vt 45.18269 0 
vt 45.18269 7.480315 
vt -7.480315 32.36163 
vt 38.72802 0 
vt 38.72802 7.480315 
vt -7.480315 27.56731 
vt 32.27335 0 
vt 32.27335 7.480315 
vt -7.480315 22.773 
vt 25.81868 0 
vt 25.81868 7.480315 
vt -7.480315 17.97868 
vt 19.36401 0 
vt 19.36401 7.480315 
vt -7.480315 13.18437 
vt 12.90934 0 
vt 12.90934 7.480315 

usemtl wood

f 91/252/6 90/251/6 92/253/6 
f 92/253/6 93/254/6 91/252/6 
f 93/254/6 94/255/6 91/252/6 
f 93/254/6 95/256/6 94/255/6 
f 93/254/6 96/257/6 95/256/6 
f 93/254/6 97/258/6 96/257/6 
f 93/254/6 98/259/6 97/258/6 
f 93/254/6 99/260/6 98/259/6 
f 93/254/6 100/261/6 99/260/6 
f 93/254/6 101/262/6 100/261/6 
f 93/254/6 102/263/6 101/262/6 
f 93/254/6 103/138/6 102/263/6 
f 93/254/6 104/264/6 103/138/6 
f 101/262/6 102/263/6 105/142/6 
f 100/261/6 101/262/6 106/118/6 
f 99/260/6 100/261/6 107/114/6 
f 98/259/6 99/260/6 108/200/6 
f 97/258/6 98/259/6 109/174/6 
f 96/257/6 97/258/6 110/196/6 
f 95/256/6 96/257/6 111/102/6 
f 91/252/3 92/253/3 90/251/3 
f 92/253/3 91/252/3 93/254/3 
f 93/254/3 91/252/3 94/255/3 
f 93/254/3 94/255/3 95/256/3 
f 93/254/3 95/256/3 96/257/3 
f 93/254/3 96/257/3 97/258/3 
f 93/254/3 97/258/3 98/259/3 
f 93/254/3 98/259/3 99/260/3 
f 93/254/3 99/260/3 100/261/3 
f 93/254/3 100/261/3 101/262/3 
f 93/254/3 101/262/3 102/263/3 
f 93/254/3 102/263/3 103/138/3 
f 93/254/3 103/138/3 104/264/3 
f 101/262/3 105/142/3 102/263/3 
f 100/261/3 106/118/3 101/262/3 
f 99/260/3 107/114/3 100/261/3 
f 98/259/3 108/200/3 99/260/3 
f 97/258/3 109/174/3 98/259/3 
f 96/257/3 110/196/3 97/258/3 
f 95/256/3 111/102/3 96/257/3 
f 94/255/3 112/98/3 95/256/3 
f 91/252/3 113/134/3 94/255/3 
f 90/251/3 114/94/3 91/252/3 
f 94/255/6 95/256/6 112/98/6 
f 91/252/6 94/255/6 113/134/6 
f 90/251/6 91/252/6 114/94/6 
f 116/266/3 115/265/3 117/267/3 
f 117/267/3 118/251/3 116/266/3 
f 118/251/3 119/94/3 116/266/3 
f 116/266/3 120/268/3 115/265/3 
f 116/266/3 121/91/3 120/268/3 
f 120/268/3 122/269/3 115/265/3 
f 120/268/3 123/213/3 122/269/3 
f 122/269/3 124/270/3 115/265/3 
f 122/269/3 125/87/3 124/270/3 
f 124/270/3 126/271/3 115/265/3 
f 124/270/3 127/236/3 126/271/3 
f 126/271/3 128/272/3 115/265/3 
f 126/271/3 129/79/3 128/272/3 
f 128/272/3 130/273/3 115/265/3 
f 128/272/3 131/83/3 130/273/3 
f 130/273/3 132/274/3 115/265/3 
f 130/273/3 133/15/3 132/274/3 
f 132/274/3 134/275/3 115/265/3 
f 132/274/3 135/69/3 134/275/3 
f 134/275/3 136/276/3 115/265/3 
f 134/275/3 137/57/3 136/276/3 
f 136/276/3 138/242/3 115/265/3 
f 138/242/3 139/277/3 115/265/3 
f 116/266/6 117/267/6 115/265/6 
f 117/267/6 116/266/6 118/251/6 
f 118/251/6 116/266/6 119/94/6 
f 116/266/6 115/265/6 120/268/6 
f 116/266/6 120/268/6 121/91/6 
f 120/268/6 115/265/6 122/269/6 
f 120/268/6 122/269/6 123/213/6 
f 122/269/6 115/265/6 124/270/6 
f 122/269/6 124/270/6 125/87/6 
f 124/270/6 115/265/6 126/271/6 
f 124/270/6 126/271/6 127/236/6 
f 126/271/6 115/265/6 128/272/6 
f 126/271/6 128/272/6 129/79/6 
f 128/272/6 115/265/6 130/273/6 
f 128/272/6 130/273/6 131/83/6 
f 130/273/6 115/265/6 132/274/6 
f 130/273/6 132/274/6 133/15/6 
f 132/274/6 115/265/6 134/275/6 
f 132/274/6 134/275/6 135/69/6 
f 134/275/6 115/265/6 136/276/6 
f 134/275/6 136/276/6 137/57/6 
f 136/276/6 115/265/6 138/242/6 
f 138/242/6 115/265/6 139/277/6 
f 91/94/2 113/190/2 121/278/2 
f 121/278/2 116/279/2 91/94/2 
f 91/94/4 121/278/4 113/190/4 
f 121/278/4 91/94/4 116/279/4 
f 119/281/1 114/280/1 91/253/1 
f 91/253/1 116/282/1 119/281/1 
f 119/281/5 91/253/5 114/280/5 
f 91/253/5 119/281/5 116/282/5 
f 90/251/2 114/94/2 119/279/2 
f 119/279/2 118/283/2 90/251/2 
f 90/251/4 119/279/4 114/94/4 
f 119/279/4 90/251/4 118/283/4 
f 90/285/5 118/284/5 117/286/5 
f 117/286/5 92/267/5 90/285/5 
f 90/285/1 117/286/1 118/284/1 
f 117/286/1 90/285/1 92/267/1 
f 92/288/7 117/287/7 115/289/7 
f 115/289/7 93/290/7 92/288/7 
f 92/288/8 115/289/8 117/287/8 
f 115/289/8 92/288/8 93/290/8 
f 104/122/4 93/62/4 115/291/4 
f 115/291/4 139/292/4 104/122/4 
f 104/122/2 115/291/2 93/62/2 
f 115/291/2 104/122/2 139/292/2 
f 138/294/1 103/293/1 104/295/1 
f 104/295/1 139/296/1 138/294/1 
f 138/294/5 104/295/5 103/293/5 
f 104/295/5 138/294/5 139/296/5 
f 102/61/2 103/122/2 138/297/2 
f 138/297/2 136/298/2 102/61/2 
f 102/61/4 138/297/4 103/122/4 
f 138/297/4 102/61/4 136/298/4 
f 137/300/1 105/299/1 102/293/1 
f 102/293/1 136/294/1 137/300/1 
f 137/300/5 102/293/5 105/299/5 
f 102/293/5 137/300/5 136/294/5 
f 101/6/2 105/61/2 137/298/2 
f 137/298/2 134/301/2 101/6/2 
f 101/6/4 137/298/4 105/61/4 
f 137/298/4 101/6/4 134/301/4 
f 135/303/1 106/302/1 101/299/1 
f 101/299/1 134/300/1 135/303/1 
f 135/303/5 101/299/5 106/302/5 
f 101/299/5 135/303/5 134/300/5 
f 100/145/2 106/6/2 135/301/2 
f 135/301/2 132/304/2 100/145/2 
f 100/145/4 135/301/4 106/6/4 
f 135/301/4 100/145/4 132/304/4 
f 133/306/1 107/305/1 100/302/1 
f 100/302/1 132/303/1 133/306/1 
f 133/306/5 100/302/5 107/305/5 
f 100/302/5 133/306/5 132/303/5 
f 99/182/2 107/145/2 133/304/2 
f 133/304/2 130/307/2 99/182/2 
f 99/182/4 133/304/4 107/145/4 
f 133/304/4 99/182/4 130/307/4 
f 131/309/1 108/308/1 99/305/1 
f 99/305/1 130/306/1 131/309/1 
f 131/309/5 99/305/5 108/308/5 
f 99/305/5 131/309/5 130/306/5 
f 98/125/2 108/182/2 131/307/2 
f 131/307/2 128/310/2 98/125/2 
f 98/125/4 131/307/4 108/182/4 
f 131/307/4 98/125/4 128/310/4 
f 129/312/1 109/311/1 98/308/1 
f 98/308/1 128/309/1 129/312/1 
f 129/312/5 98/308/5 109/311/5 
f 98/308/5 129/312/5 128/309/5 
f 97/130/2 109/125/2 129/310/2 
f 129/310/2 126/313/2 97/130/2 
f 97/130/4 129/310/4 109/125/4 
f 129/310/4 97/130/4 126/313/4 
f 127/315/1 110/314/1 97/311/1 
f 97/311/1 126/312/1 127/315/1 
f 127/315/5 97/311/5 110/314/5 
f 97/311/5 127/315/5 126/312/5 
f 96/105/2 110/130/2 127/313/2 
f 127/313/2 124/316/2 96/105/2 
f 96/105/4 127/313/4 110/130/4 
f 127/313/4 96/105/4 124/316/4 
f 125/318/1 111/317/1 96/314/1 
f 96/314/1 124/315/1 125/318/1 
f 125/318/5 96/314/5 111/317/5 
f 96/314/5 125/318/5 124/315/5 
f 95/207/2 111/105/2 125/316/2 
f 125/316/2 122/319/2 95/207/2 
f 95/207/4 125/316/4 111/105/4 
f 125/316/4 95/207/4 122/319/4 
f 123/321/1 112/320/1 95/317/1 
f 95/317/1 122/318/1 123/321/1 
f 123/321/5 95/317/5 112/320/5 
f 95/317/5 123/321/5 122/318/5 
f 94/190/2 112/207/2 123/319/2 
f 123/319/2 120/278/2 94/190/2 
f 94/190/4 123/319/4 112/207/4 
f 123/319/4 94/190/4 120/278/4 
f 121/282/1 113/253/1 94/320/1 
f 94/320/1 120/321/1 121/282/1 
f 121/282/5 94/320/5 113/253/5 
f 94/320/5 121/282/5 120/321/5 
