# Created by Kenney (www.kenney.nl) 

mtllib stoolBarSquare.mtl 

g stoolBarSquare

v -0.17947 0.355 0.05112689 
v -0.17947 0.145 0.05112689 
v -0.17947 0.355 0.07112689 
v -0.17947 0.145 0.07112689 
v -0.17947 0.125 0.07112689 
v -0.17947 0.145 0.1587509 
v -0.17947 0.125 0.1587509 
v -0.17947 0.355 0.1587509 
v -0.17947 0.355 0.1787509 
v -0.17947 0.145 0.1787509 
v -0.17947 0 0.1587509 
v -0.17947 0.125 0.1787509 
v -0.17947 0 0.1787509 
v -0.17947 0.125 0.05112689 
v -0.17947 0 0.05112689 
v -0.17947 0 0.07112689 
v -0.06597 0.125 0.1587509 
v -0.06597 0.125 0.07112689 
v -0.08597 0.125 0.1587509 
v -0.08597 0.125 0.07112689 
v -0.08597 0.125 0.1787509 
v -0.08597 0.125 0.05112689 
v -0.19947 0.125 0.1587509 
v -0.19947 0.125 0.07112689 
v -0.08597 0.145 0.07112689 
v -0.08597 0.145 0.1587509 
v -0.08597 0 0.1587509 
v -0.08597 0 0.1787509 
v -0.08597 0.145 0.05112689 
v -0.08597 0.355 0.05112689 
v -0.08597 0.355 0.07112689 
v -0.08597 0 0.07112689 
v -0.08597 0 0.05112689 
v -0.08597 0.355 0.1587509 
v -0.08597 0.145 0.1787509 
v -0.08597 0.355 0.1787509 
v -0.19947 0 0.1787509 
v -0.19947 0 0.1587509 
v -0.19947 0.145 0.07112689 
v -0.19947 0.355 0.07112689 
v -0.19947 0 0.07112689 
v -0.06597 0 0.07112689 
v -0.06597 0.145 0.07112689 
v -0.06597 0.355 0.07112689 
v -0.19947 0.145 0.1587509 
v -0.06597 0.145 0.1587509 
v -0.06597 0 0.1787509 
v -0.06597 0.355 0.1787509 
v -0.19947 0.355 0.1787509 
v -0.06597 0.355 0.1587509 
v -0.19947 0.355 0.1587509 
v -0.06597 0 0.1587509 
v -0.19947 0 0.05112689 
v -0.19947 0.355 0.05112689 
v -0.06597 0 0.05112689 
v -0.06597 0.355 0.05112689 
v -0.05597 0.405 0.04112688 
v -0.05597 0.405 0.1887509 
v -0.20947 0.405 0.04112688 
v -0.20947 0.405 0.1887509 
v -0.05597 0.355 0.04112688 
v -0.05597 0.355 0.1887509 
v -0.20947 0.355 0.1887509 
v -0.08597 0.355 0.04112688 
v -0.20947 0.355 0.04112688 

vn 1 0 0 
vn 0 -1 0 
vn -1 0 0 
vn 0 0 1 
vn 0 1 0 
vn 0 0 -1 

vt -2.01287 13.97638 
vt -2.01287 5.708662 
vt -2.800271 13.97638 
vt -2.800271 5.708662 
vt -2.800271 4.92126 
vt -6.250035 5.708662 
vt -6.250035 4.92126 
vt -6.250035 13.97638 
vt -7.037437 13.97638 
vt -7.037437 5.708662 
vt -6.250035 -4.080675E-14 
vt -7.037437 4.92126 
vt -7.037437 -4.080675E-14 
vt -2.01287 4.92126 
vt -2.01287 8.161351E-14 
vt -2.800271 8.161351E-14 
vt -2.597244 6.250035 
vt -2.597244 2.800271 
vt -3.384646 6.250035 
vt -3.384646 2.800271 
vt -3.384646 7.037437 
vt -7.065748 7.037437 
vt -7.065748 6.250035 
vt -3.384646 2.01287 
vt -7.065748 2.800271 
vt -7.065748 2.01287 
vt -7.853149 6.250035 
vt -7.853149 2.800271 
vt 2.800271 4.92126 
vt 2.800271 5.708662 
vt 6.250035 4.92126 
vt 6.250035 5.708662 
vt 6.250035 0 
vt 7.037437 0 
vt 7.037437 4.92126 
vt 2.01287 5.708662 
vt 2.01287 13.97638 
vt 2.800271 13.97638 
vt 2.800271 0 
vt 2.01287 4.92126 
vt 2.01287 0 
vt 6.250035 13.97638 
vt 7.037437 5.708662 
vt 7.037437 13.97638 
vt -7.853149 7.037437 
vt -7.065748 5.708662 
vt -7.853149 5.708662 
vt -7.065748 13.97638 
vt -7.853149 13.97638 
vt -3.384646 5.708662 
vt -7.065748 4.92126 
vt -3.384646 4.92126 
vt -7.065748 -8.086191E-15 
vt -7.853149 -8.086191E-15 
vt -7.853149 4.92126 
vt -2.597244 4.92126 
vt -3.384646 1.212929E-14 
vt -2.597244 1.212929E-14 
vt -3.384646 13.97638 
vt -2.597244 5.708662 
vt -2.597244 13.97638 
vt 3.384646 6.250035 
vt 3.384646 7.037437 
vt 7.065748 6.250035 
vt 7.065748 7.037437 
vt 7.853149 6.250035 
vt 7.065748 2.800271 
vt 7.853149 2.800271 
vt 3.384646 2.800271 
vt 2.597244 6.250035 
vt 2.597244 2.800271 
vt 7.065748 2.01287 
vt 3.384646 2.01287 
vt -2.597244 0 
vt -3.384646 0 
vt -7.853149 0 
vt -7.065748 0 
vt 3.384646 5.708662 
vt 2.597244 5.708662 
vt 3.384646 13.97638 
vt 2.597244 13.97638 
vt 7.065748 5.708662 
vt 3.384646 4.92126 
vt 7.065748 4.92126 
vt 7.853149 5.708662 
vt 7.853149 13.97638 
vt 7.065748 13.97638 
vt 3.384646 0 
vt 2.597244 0 
vt 2.597244 4.92126 
vt 7.853149 4.92126 
vt 7.065748 0 
vt 7.853149 0 
vt -2.597244 7.037437 
vt -7.853149 2.01287 
vt -2.597244 2.01287 
vt -6.250035 0 
vt -7.037437 0 
vt -2.800271 0 
vt -2.01287 0 
vt 2.203543 1.619169 
vt 2.203543 7.431138 
vt 8.24685 1.619169 
vt 8.24685 7.431138 
vt -1.619169 15.94488 
vt -1.619169 13.97638 
vt -7.431138 15.94488 
vt -7.431138 13.97638 
vt -8.24685 7.431138 
vt -2.203543 7.431138 
vt -2.203543 1.619169 
vt -3.384646 1.619169 
vt -8.24685 1.619169 
vt 8.24685 13.97638 
vt 8.24685 15.94488 
vt 2.203543 13.97638 
vt 2.203543 15.94488 
vt 1.619169 13.97638 
vt 1.619169 15.94488 
vt 7.431138 13.97638 
vt 7.431138 15.94488 
vt -2.203543 13.97638 
vt -8.24685 13.97638 
vt -2.203543 15.94488 
vt -8.24685 15.94488 

usemtl wood

f 2/2/1 1/1/1 3/3/1 
f 3/3/1 4/4/1 2/2/1 
f 5/5/1 4/4/1 6/6/1 
f 6/6/1 7/7/1 5/5/1 
f 6/6/1 8/8/1 9/9/1 
f 9/9/1 10/10/1 6/6/1 
f 11/11/1 7/7/1 12/12/1 
f 12/12/1 13/13/1 11/11/1 
f 15/15/1 14/14/1 5/5/1 
f 5/5/1 16/16/1 15/15/1 
f 18/18/2 17/17/2 19/19/2 
f 19/19/2 20/20/2 18/18/2 
f 19/19/2 21/21/2 12/22/2 
f 12/22/2 7/23/2 19/19/2 
f 22/24/2 20/20/2 5/25/2 
f 5/25/2 14/26/2 22/24/2 
f 5/25/2 7/23/2 23/27/2 
f 23/27/2 24/28/2 5/25/2 
f 25/30/3 20/29/3 19/31/3 
f 19/31/3 26/32/3 25/30/3 
f 19/31/3 27/33/3 28/34/3 
f 28/34/3 21/35/3 19/31/3 
f 30/37/3 29/36/3 25/30/3 
f 25/30/3 31/38/3 30/37/3 
f 32/39/3 20/29/3 22/40/3 
f 22/40/3 33/41/3 32/39/3 
f 34/42/3 26/32/3 35/43/3 
f 35/43/3 36/44/3 34/42/3 
f 11/23/2 13/22/2 37/45/2 
f 37/45/2 38/27/2 11/23/2 
f 39/47/4 4/46/4 3/48/4 
f 3/48/4 40/49/4 39/47/4 
f 25/50/4 4/46/4 5/51/4 
f 5/51/4 20/52/4 25/50/4 
f 41/54/4 16/53/4 5/51/4 
f 5/51/4 24/55/4 41/54/4 
f 18/56/4 20/52/4 32/57/4 
f 32/57/4 42/58/4 18/56/4 
f 31/59/4 25/50/4 43/60/4 
f 43/60/4 44/61/4 31/59/4 
f 35/63/5 26/62/5 6/64/5 
f 6/64/5 10/65/5 35/63/5 
f 45/66/5 6/64/5 4/67/5 
f 4/67/5 39/68/5 45/66/5 
f 25/69/5 26/62/5 46/70/5 
f 46/70/5 43/71/5 25/69/5 
f 2/72/5 4/67/5 25/69/5 
f 25/69/5 29/73/5 2/72/5 
f 28/75/4 47/74/4 48/61/4 
f 48/61/4 21/52/4 28/75/4 
f 48/61/4 35/50/4 21/52/4 
f 35/50/4 12/51/4 21/52/4 
f 48/61/4 36/59/4 35/50/4 
f 12/51/4 35/50/4 10/46/4 
f 12/51/4 10/46/4 49/49/4 
f 12/51/4 49/49/4 37/76/4 
f 37/76/4 13/77/4 12/51/4 
f 10/46/4 9/48/4 49/49/4 
f 46/79/6 26/78/6 34/80/6 
f 34/80/6 50/81/6 46/79/6 
f 6/82/6 26/78/6 19/83/6 
f 19/83/6 7/84/6 6/82/6 
f 6/82/6 45/85/6 51/86/6 
f 51/86/6 8/87/6 6/82/6 
f 52/89/6 27/88/6 19/83/6 
f 19/83/6 17/90/6 52/89/6 
f 23/91/6 7/84/6 11/92/6 
f 11/92/6 38/93/6 23/91/6 
f 52/17/2 47/94/2 28/21/2 
f 28/21/2 27/19/2 52/17/2 
f 15/26/2 16/25/2 41/28/2 
f 41/28/2 53/95/2 15/26/2 
f 54/37/3 53/41/3 41/39/3 
f 41/39/3 24/29/3 54/37/3 
f 54/37/3 24/29/3 39/30/3 
f 39/30/3 24/29/3 23/31/3 
f 23/31/3 45/32/3 39/30/3 
f 37/34/3 45/32/3 23/31/3 
f 23/31/3 38/33/3 37/34/3 
f 37/34/3 51/42/3 45/32/3 
f 37/34/3 49/44/3 51/42/3 
f 39/30/3 40/38/3 54/37/3 
f 55/96/2 42/18/2 32/20/2 
f 32/20/2 33/24/2 55/96/2 
f 46/6/1 50/8/1 48/9/1 
f 48/9/1 17/7/1 46/6/1 
f 48/9/1 52/97/1 17/7/1 
f 48/9/1 47/98/1 52/97/1 
f 46/6/1 17/7/1 18/5/1 
f 43/4/1 46/6/1 18/5/1 
f 43/4/1 18/5/1 42/99/1 
f 44/3/1 43/4/1 42/99/1 
f 44/3/1 42/99/1 55/100/1 
f 55/100/1 56/1/1 44/3/1 
f 15/92/6 53/93/6 54/86/6 
f 54/86/6 14/84/6 15/92/6 
f 54/86/6 2/82/6 14/84/6 
f 2/82/6 22/83/6 14/84/6 
f 54/86/6 1/87/6 2/82/6 
f 22/83/6 2/82/6 29/78/6 
f 22/83/6 29/78/6 56/81/6 
f 22/83/6 56/81/6 55/89/6 
f 55/89/6 33/88/6 22/83/6 
f 29/78/6 30/80/6 56/81/6 

usemtl carpet

f 58/102/5 57/101/5 59/103/5 
f 59/103/5 60/104/5 58/102/5 
f 61/106/1 57/105/1 58/107/1 
f 58/107/1 62/108/1 61/106/1 
f 44/18/2 50/17/2 34/19/2 
f 34/19/2 31/20/2 44/18/2 
f 9/22/2 31/20/2 34/19/2 
f 63/109/2 9/22/2 34/19/2 
f 63/109/2 34/19/2 36/21/2 
f 63/109/2 36/21/2 48/94/2 
f 62/110/2 63/109/2 48/94/2 
f 48/94/2 61/111/2 62/110/2 
f 9/22/2 30/24/2 31/20/2 
f 9/22/2 64/112/2 30/24/2 
f 63/109/2 49/45/2 9/22/2 
f 63/109/2 51/27/2 49/45/2 
f 63/109/2 40/28/2 51/27/2 
f 63/109/2 54/95/2 40/28/2 
f 64/112/2 9/22/2 1/26/2 
f 1/26/2 65/113/2 64/112/2 
f 1/26/2 54/95/2 65/113/2 
f 54/95/2 63/109/2 65/113/2 
f 9/22/2 8/23/2 1/26/2 
f 8/23/2 3/25/2 1/26/2 
f 3/25/2 8/23/2 51/27/2 
f 51/27/2 40/28/2 3/25/2 
f 56/96/2 64/112/2 61/111/2 
f 61/111/2 48/94/2 56/96/2 
f 56/96/2 30/24/2 64/112/2 
f 48/94/2 50/17/2 56/96/2 
f 50/17/2 44/18/2 56/96/2 
f 64/80/6 65/114/6 59/115/6 
f 59/115/6 61/116/6 64/80/6 
f 59/115/6 57/117/6 61/116/6 
f 59/119/3 65/118/3 63/120/3 
f 63/120/3 60/121/3 59/119/3 
f 63/123/4 62/122/4 58/124/4 
f 58/124/4 60/125/4 63/123/4 
g stoolBarSquare




usemtl wood

f 2/2/1 1/1/1 3/3/1 
f 3/3/1 4/4/1 2/2/1 
f 5/5/1 4/4/1 6/6/1 
f 6/6/1 7/7/1 5/5/1 
f 6/6/1 8/8/1 9/9/1 
f 9/9/1 10/10/1 6/6/1 
f 11/11/1 7/7/1 12/12/1 
f 12/12/1 13/13/1 11/11/1 
f 15/15/1 14/14/1 5/5/1 
f 5/5/1 16/16/1 15/15/1 
f 18/18/2 17/17/2 19/19/2 
f 19/19/2 20/20/2 18/18/2 
f 19/19/2 21/21/2 12/22/2 
f 12/22/2 7/23/2 19/19/2 
f 22/24/2 20/20/2 5/25/2 
f 5/25/2 14/26/2 22/24/2 
f 5/25/2 7/23/2 23/27/2 
f 23/27/2 24/28/2 5/25/2 
f 25/30/3 20/29/3 19/31/3 
f 19/31/3 26/32/3 25/30/3 
f 19/31/3 27/33/3 28/34/3 
f 28/34/3 21/35/3 19/31/3 
f 30/37/3 29/36/3 25/30/3 
f 25/30/3 31/38/3 30/37/3 
f 32/39/3 20/29/3 22/40/3 
f 22/40/3 33/41/3 32/39/3 
f 34/42/3 26/32/3 35/43/3 
f 35/43/3 36/44/3 34/42/3 
f 11/23/2 13/22/2 37/45/2 
f 37/45/2 38/27/2 11/23/2 
f 39/47/4 4/46/4 3/48/4 
f 3/48/4 40/49/4 39/47/4 
f 25/50/4 4/46/4 5/51/4 
f 5/51/4 20/52/4 25/50/4 
f 41/54/4 16/53/4 5/51/4 
f 5/51/4 24/55/4 41/54/4 
f 18/56/4 20/52/4 32/57/4 
f 32/57/4 42/58/4 18/56/4 
f 31/59/4 25/50/4 43/60/4 
f 43/60/4 44/61/4 31/59/4 
f 35/63/5 26/62/5 6/64/5 
f 6/64/5 10/65/5 35/63/5 
f 45/66/5 6/64/5 4/67/5 
f 4/67/5 39/68/5 45/66/5 
f 25/69/5 26/62/5 46/70/5 
f 46/70/5 43/71/5 25/69/5 
f 2/72/5 4/67/5 25/69/5 
f 25/69/5 29/73/5 2/72/5 
f 28/75/4 47/74/4 48/61/4 
f 48/61/4 21/52/4 28/75/4 
f 48/61/4 35/50/4 21/52/4 
f 35/50/4 12/51/4 21/52/4 
f 48/61/4 36/59/4 35/50/4 
f 12/51/4 35/50/4 10/46/4 
f 12/51/4 10/46/4 49/49/4 
f 12/51/4 49/49/4 37/76/4 
f 37/76/4 13/77/4 12/51/4 
f 10/46/4 9/48/4 49/49/4 
f 46/79/6 26/78/6 34/80/6 
f 34/80/6 50/81/6 46/79/6 
f 6/82/6 26/78/6 19/83/6 
f 19/83/6 7/84/6 6/82/6 
f 6/82/6 45/85/6 51/86/6 
f 51/86/6 8/87/6 6/82/6 
f 52/89/6 27/88/6 19/83/6 
f 19/83/6 17/90/6 52/89/6 
f 23/91/6 7/84/6 11/92/6 
f 11/92/6 38/93/6 23/91/6 
f 52/17/2 47/94/2 28/21/2 
f 28/21/2 27/19/2 52/17/2 
f 15/26/2 16/25/2 41/28/2 
f 41/28/2 53/95/2 15/26/2 
f 54/37/3 53/41/3 41/39/3 
f 41/39/3 24/29/3 54/37/3 
f 54/37/3 24/29/3 39/30/3 
f 39/30/3 24/29/3 23/31/3 
f 23/31/3 45/32/3 39/30/3 
f 37/34/3 45/32/3 23/31/3 
f 23/31/3 38/33/3 37/34/3 
f 37/34/3 51/42/3 45/32/3 
f 37/34/3 49/44/3 51/42/3 
f 39/30/3 40/38/3 54/37/3 
f 55/96/2 42/18/2 32/20/2 
f 32/20/2 33/24/2 55/96/2 
f 46/6/1 50/8/1 48/9/1 
f 48/9/1 17/7/1 46/6/1 
f 48/9/1 52/97/1 17/7/1 
f 48/9/1 47/98/1 52/97/1 
f 46/6/1 17/7/1 18/5/1 
f 43/4/1 46/6/1 18/5/1 
f 43/4/1 18/5/1 42/99/1 
f 44/3/1 43/4/1 42/99/1 
f 44/3/1 42/99/1 55/100/1 
f 55/100/1 56/1/1 44/3/1 
f 15/92/6 53/93/6 54/86/6 
f 54/86/6 14/84/6 15/92/6 
f 54/86/6 2/82/6 14/84/6 
f 2/82/6 22/83/6 14/84/6 
f 54/86/6 1/87/6 2/82/6 
f 22/83/6 2/82/6 29/78/6 
f 22/83/6 29/78/6 56/81/6 
f 22/83/6 56/81/6 55/89/6 
f 55/89/6 33/88/6 22/83/6 
f 29/78/6 30/80/6 56/81/6 

usemtl carpet

f 58/102/5 57/101/5 59/103/5 
f 59/103/5 60/104/5 58/102/5 
f 61/106/1 57/105/1 58/107/1 
f 58/107/1 62/108/1 61/106/1 
f 44/18/2 50/17/2 34/19/2 
f 34/19/2 31/20/2 44/18/2 
f 9/22/2 31/20/2 34/19/2 
f 63/109/2 9/22/2 34/19/2 
f 63/109/2 34/19/2 36/21/2 
f 63/109/2 36/21/2 48/94/2 
f 62/110/2 63/109/2 48/94/2 
f 48/94/2 61/111/2 62/110/2 
f 9/22/2 30/24/2 31/20/2 
f 9/22/2 64/112/2 30/24/2 
f 63/109/2 49/45/2 9/22/2 
f 63/109/2 51/27/2 49/45/2 
f 63/109/2 40/28/2 51/27/2 
f 63/109/2 54/95/2 40/28/2 
f 64/112/2 9/22/2 1/26/2 
f 1/26/2 65/113/2 64/112/2 
f 1/26/2 54/95/2 65/113/2 
f 54/95/2 63/109/2 65/113/2 
f 9/22/2 8/23/2 1/26/2 
f 8/23/2 3/25/2 1/26/2 
f 3/25/2 8/23/2 51/27/2 
f 51/27/2 40/28/2 3/25/2 
f 56/96/2 64/112/2 61/111/2 
f 61/111/2 48/94/2 56/96/2 
f 56/96/2 30/24/2 64/112/2 
f 48/94/2 50/17/2 56/96/2 
f 50/17/2 44/18/2 56/96/2 
f 64/80/6 65/114/6 59/115/6 
f 59/115/6 61/116/6 64/80/6 
f 59/115/6 57/117/6 61/116/6 
f 59/119/3 65/118/3 63/120/3 
f 63/120/3 60/121/3 59/119/3 
f 63/123/4 62/122/4 58/124/4 
f 58/124/4 60/125/4 63/123/4 
