# Created by Kenney (www.kenney.nl) 

mtllib toaster.mtl 

g toaster

v 0.08399187 0.01 0.03 
v 0.08399187 5.639933E-18 0.03 
v 0.08399187 0.01 0.05 
v 0.08399187 5.639933E-18 0.05 
v 0.06399187 5.639933E-18 0.03 
v 0.06399187 0.01 0.03 
v 0.06399187 5.639933E-18 0.05 
v 0.06399187 0.01 0.05 
v -0.0584797 0.13 0.01197968 
v -0.0584797 0.08 0.01197968 
v -0.0584797 0.13 0.03802032 
v -0.0584797 0.08 0.03802032 
v 0.0484797 0.08 0.03802032 
v 0.0484797 0.13 0.03802032 
v 0.0484797 0.08 0.01197968 
v 0.0484797 0.13 0.01197968 
v 0.08399187 4.22995E-18 -0.03 
v 0.06399187 4.22995E-18 -0.03 
v 0.08399187 0.01 -0.03 
v 0.06399187 0.01 -0.03 
v 0.08399187 0.01 -0.05 
v 0.08399187 4.22995E-18 -0.05 
v 0.06399187 4.22995E-18 -0.05 
v 0.06399187 0.01 -0.05 
v 0.09399187 0.04926069 -0.015 
v 0.09399187 0.02926069 -0.015 
v 0.09399187 0.04926069 0.015 
v 0.09399187 0.02926069 0.015 
v 0.08399187 0.02926069 -0.015 
v 0.08399187 0.04926069 -0.015 
v 0.08399187 0.04926069 0.015 
v 0.08399187 0.04926069 -0.00540499 
v 0.08399187 0.04926069 0.00540499 
v 0.08399187 0.02926069 0.015 
v 0.0484797 0.08 -0.03802032 
v 0.0484797 0.08 -0.01197968 
v -0.0584797 0.08 -0.03802032 
v -0.0584797 0.08 -0.01197968 
v 0.0484797 0.13 -0.03802032 
v 0.0484797 0.13 -0.01197968 
v -0.0584797 0.13 -0.01197968 
v -0.0584797 0.13 -0.03802032 
v 0.08399187 0.08720683 -0.00540499 
v 0.08399187 0.08720683 0.00540499 
v -0.07399186 0 -0.03 
v -0.07399186 0 -0.05 
v -0.09399187 0 -0.03 
v -0.09399187 0 -0.05 
v -0.07399186 0.01 -0.03 
v -0.09399187 0.01 -0.03 
v -0.09399187 0.01 -0.05 
v -0.07399186 0 0.05 
v -0.09399187 0 0.05 
v -0.07399186 0.01 0.05 
v -0.09399187 0.01 0.05 
v -0.09399187 0 0.03 
v -0.07399186 0 0.03 
v -0.09399187 0.01 0.03 
v -0.07399186 0.01 0.03 
v -0.07399186 0.01 -0.05 
v 0.08399187 0.1064675 -0.05 
v 0.08399187 0.1064675 0.05 
v -0.09083911 0.1182338 -0.05 
v -0.08912896 0.1207932 -0.05 
v -0.09083911 0.1182338 0.05 
v -0.08912896 0.1207932 0.05 
v -0.09220057 0.115473 -0.05 
v -0.09220057 0.115473 0.05 
v 0.06045938 0.13 0.05 
v 0.06045938 0.13 -0.05 
v -0.07045938 0.13 -0.05 
v -0.07045938 0.13 0.05 
v -0.09319001 0.1125582 -0.05 
v -0.09319001 0.1125582 0.05 
v -0.09379055 0.1095391 -0.05 
v -0.09379055 0.1095391 0.05 
v -0.08222562 0.1268473 -0.05 
v -0.08222562 0.1268473 0.05 
v -0.08478505 0.1251371 -0.05 
v -0.08478505 0.1251371 0.05 
v -0.07655004 0.1291981 -0.05 
v -0.07655004 0.1291981 0.05 
v -0.07946488 0.1282087 -0.05 
v -0.07946488 0.1282087 0.05 
v -0.07353099 0.1297987 -0.05 
v -0.07353099 0.1297987 0.05 
v -0.08709937 0.1231075 -0.05 
v -0.08709937 0.1231075 0.05 
v -0.09399187 0.1064675 -0.05 
v -0.09399187 0.1064675 0.05 
v 0.08379054 0.1095391 0.05 
v 0.08319002 0.1125582 0.05 
v 0.08220056 0.115473 0.05 
v 0.08083911 0.1182338 0.05 
v 0.07912896 0.1207932 0.05 
v 0.07709936 0.1231075 0.05 
v 0.07478505 0.1251371 0.05 
v 0.07222562 0.1268473 0.05 
v 0.06946487 0.1282087 0.05 
v 0.06655004 0.1291981 0.05 
v 0.06353099 0.1297987 0.05 
v 0.08379054 0.1095391 -0.05 
v 0.08319002 0.1125582 -0.05 
v 0.06353099 0.1297987 -0.05 
v 0.07709936 0.1231075 -0.05 
v 0.07912896 0.1207932 -0.05 
v 0.08083911 0.1182338 -0.05 
v 0.08220056 0.115473 -0.05 
v 0.07478505 0.1251371 -0.05 
v 0.07222562 0.1268473 -0.05 
v 0.06946487 0.1282087 -0.05 
v 0.06655004 0.1291981 -0.05 

vn 1 0 0 
vn -1 0 0 
vn 0 0 1 
vn 0 0 -1 
vn 0 1 0 
vn 0 -1 0 
vn -0.8660254 0.5 0 
vn -0.7933533 0.6087614 0 
vn -0.9238795 0.3826834 0 
vn -0.9659258 0.258819 0 
vn -0.9914449 0.1305262 0 
vn -0.5 0.8660254 0 
vn -0.6087614 0.7933533 0 
vn -0.258819 0.9659258 0 
vn -0.3826834 0.9238795 0 
vn -0.06540313 0.9978589 0 
vn -0.1305262 0.9914449 0 
vn -0.7071068 0.7071068 0 
vn -0.9978589 0.06540313 0 
vn 0.9914449 0.1305262 0 
vn 0.9978589 0.06540313 0 
vn 0.9659258 0.258819 0 
vn 0.1305262 0.9914449 0 
vn 0.06540313 0.9978589 0 
vn 0.7071068 0.7071068 0 
vn 0.7933533 0.6087614 0 
vn 0.8660254 0.5 0 
vn 0.9238795 0.3826834 0 
vn 0.6087614 0.7933533 0 
vn 0.5 0.8660254 0 
vn 0.3826834 0.9238795 0 
vn 0.258819 0.9659258 0 

vt -1.181102 0.3937008 
vt -1.181102 2.220446E-16 
vt -1.968504 0.3937008 
vt -1.968504 2.220446E-16 
vt 1.181102 2.220446E-16 
vt 1.181102 0.3937008 
vt 1.968504 2.220446E-16 
vt 1.968504 0.3937008 
vt 3.306767 2.220446E-16 
vt 2.519365 2.220446E-16 
vt 3.306767 0.3937008 
vt 2.519365 0.3937008 
vt -2.519365 2.220446E-16 
vt -3.306767 2.220446E-16 
vt -2.519365 0.3937008 
vt -3.306767 0.3937008 
vt -0.4716409 5.11811 
vt -0.4716409 3.149606 
vt -1.496863 5.11811 
vt -1.496863 3.149606 
vt 2.302351 3.149606 
vt -1.90865 3.149606 
vt 2.302351 5.11811 
vt -1.90865 5.11811 
vt -1.90865 0.4716409 
vt -1.90865 1.496863 
vt 2.302351 0.4716409 
vt 2.302351 1.496863 
vt 1.90865 3.149606 
vt -2.302351 3.149606 
vt 1.90865 5.11811 
vt -2.302351 5.11811 
vt 0.4716409 3.149606 
vt 0.4716409 5.11811 
vt 1.496863 3.149606 
vt 1.496863 5.11811 
vt 3.306767 1.665335E-16 
vt 2.519365 1.665335E-16 
vt 1.968504 1.665335E-16 
vt 1.181102 1.665335E-16 
vt -1.968504 1.665335E-16 
vt -1.181102 1.665335E-16 
vt -2.519365 1.665335E-16 
vt -3.306767 1.665335E-16 
vt 0.5905512 1.939397 
vt 0.5905512 1.151996 
vt -0.5905512 1.939397 
vt -0.5905512 1.151996 
vt -3.306767 1.151996 
vt -3.700467 1.151996 
vt -3.306767 1.939397 
vt -3.700467 1.939397 
vt -3.700467 -0.5905512 
vt -3.700467 0.5905512 
vt -3.306767 -0.5905512 
vt -3.306767 0.5905512 
vt -3.306767 -0.2127949 
vt -3.306767 0.2127949 
vt 3.700467 0.5905512 
vt 3.700467 -0.5905512 
vt 3.306767 0.5905512 
vt 3.306767 -0.5905512 
vt 3.700467 1.151996 
vt 3.306767 1.151996 
vt 3.700467 1.939397 
vt 3.306767 1.939397 
vt -1.90865 -1.496863 
vt -1.90865 -0.4716409 
vt 2.302351 -1.496863 
vt 2.302351 -0.4716409 
vt 0.2127949 3.43334 
vt 0.2127949 1.939397 
vt -0.2127949 3.43334 
vt -0.2127949 1.939397 
vt -2.913066 -1.181102 
vt -2.913066 -1.968504 
vt -3.700467 -1.181102 
vt -3.700467 -1.968504 
vt -2.913066 0 
vt -3.700467 0 
vt -2.913066 0.3937008 
vt -3.700467 0.3937008 
vt 3.306767 -1.181102 
vt 3.306767 -1.968504 
vt 2.519365 -1.181102 
vt 2.519365 -1.968504 
vt -1.968504 0 
vt -1.181102 0 
vt 3.700467 0 
vt 2.913066 0 
vt 3.700467 0.3937008 
vt 2.913066 0.3937008 
vt 1.968504 0 
vt 1.181102 0 
vt -2.913066 1.968504 
vt -2.913066 1.181102 
vt -3.700467 1.968504 
vt -3.700467 1.181102 
vt 3.306767 1.968504 
vt 3.306767 1.181102 
vt 2.519365 1.968504 
vt 2.519365 1.181102 
vt 1.968504 4.191634 
vt -1.968504 4.191634 
vt -1.968504 1.883475 
vt -1.968504 2.004664 
vt 1.968504 1.883475 
vt 1.968504 2.004664 
vt -1.968504 2.471863 
vt -1.968504 2.593052 
vt 1.968504 2.471863 
vt 1.968504 2.593052 
vt -2.380291 1.968504 
vt -2.380291 -1.968504 
vt 2.773991 -1.968504 
vt 2.773991 1.968504 
vt -1.968504 3.01692 
vt -1.968504 3.138109 
vt 1.968504 3.01692 
vt 1.968504 3.138109 
vt -1.968504 3.50932 
vt -1.968504 3.630509 
vt 1.968504 3.50932 
vt 1.968504 3.630509 
vt -1.968504 0.08285214 
vt 1.968504 0.08285214 
vt -1.968504 -0.03833671 
vt 1.968504 -0.03833671 
vt -1.968504 -1.218825 
vt 1.968504 -1.218825 
vt -1.968504 -1.340014 
vt 1.968504 -1.340014 
vt -1.968504 -0.5734104 
vt 1.968504 -0.5734104 
vt -1.968504 -0.6945992 
vt 1.968504 -0.6945992 
vt -1.968504 -2.433312 
vt 1.968504 -2.433312 
vt -1.968504 -2.554501 
vt 1.968504 -2.554501 
vt -1.968504 1.261824 
vt -1.968504 1.383012 
vt 1.968504 1.261824 
vt 1.968504 1.383012 
vt -1.968504 3.940638 
vt -1.968504 4.061826 
vt 1.968504 3.940638 
vt 1.968504 4.061826 
vt 3.306767 4.191634 
vt -3.700467 4.191634 
vt 3.29884 4.312564 
vt -3.692541 4.312564 
vt 3.275198 4.431424 
vt -3.668898 4.431424 
vt 3.236243 4.546181 
vt -3.629944 4.546181 
vt 3.182642 4.654872 
vt -3.576343 4.654872 
vt 3.115313 4.755637 
vt -3.509014 4.755637 
vt 3.035408 4.846752 
vt -3.429109 4.846752 
vt 2.944293 4.926657 
vt -3.337994 4.926657 
vt 2.843529 4.993986 
vt -3.237229 4.993986 
vt 2.734838 5.047586 
vt -3.128538 5.047586 
vt 2.62008 5.086541 
vt -3.013781 5.086541 
vt 2.50122 5.110184 
vt -2.894921 5.110184 
vt 2.380291 5.11811 
vt -2.773991 5.11811 
vt -1.968504 -1.842348 
vt 1.968504 -1.842348 
vt -1.968504 -1.963537 
vt 1.968504 -1.963537 
vt -1.968504 0.7387338 
vt 1.968504 0.7387338 
vt -1.968504 0.6175449 
vt 1.968504 0.6175449 
vt 1.968504 4.087576 
vt 1.968504 3.966387 
vt -1.968504 4.087576 
vt -1.968504 3.966387 
vt 1.968504 3.707316 
vt 1.968504 3.586127 
vt -1.968504 3.707316 
vt -1.968504 3.586127 
vt 1.968504 -2.161643 
vt -1.968504 -2.161643 
vt 1.968504 -2.040454 
vt -1.968504 -2.040454 
vt 1.968504 1.642597 
vt 1.968504 1.521408 
vt -1.968504 1.642597 
vt -1.968504 1.521408 
vt 1.968504 2.767181 
vt 1.968504 2.645993 
vt -1.968504 2.767181 
vt -1.968504 2.645993 
vt 1.968504 0.2890135 
vt -1.968504 0.2890135 
vt 1.968504 0.4102024 
vt -1.968504 0.4102024 
vt 1.968504 0.9135449 
vt -1.968504 0.9135449 
vt 1.968504 1.034734 
vt -1.968504 1.034734 
vt 1.968504 -0.9672066 
vt -1.968504 -0.9672066 
vt 1.968504 -0.8460178 
vt -1.968504 -0.8460178 
vt 1.968504 -0.3414997 
vt -1.968504 -0.3414997 
vt 1.968504 -0.2203109 
vt -1.968504 -0.2203109 
vt 1.968504 -1.577401 
vt -1.968504 -1.577401 
vt 1.968504 -1.456212 
vt -1.968504 -1.456212 
vt 1.968504 3.26466 
vt 1.968504 3.143471 
vt -1.968504 3.26466 
vt -1.968504 3.143471 
vt 1.968504 2.223392 
vt 1.968504 2.102204 
vt -1.968504 2.223392 
vt -1.968504 2.102204 
vt 3.700467 4.191634 
vt -3.306767 4.191634 
vt 3.692541 4.312564 
vt -3.29884 4.312564 
vt 3.668898 4.431424 
vt -3.275198 4.431424 
vt 3.629944 4.546181 
vt -3.236243 4.546181 
vt 3.576343 4.654872 
vt -3.182642 4.654872 
vt 3.509014 4.755637 
vt -3.115313 4.755637 
vt 3.429109 4.846752 
vt -3.035408 4.846752 
vt 3.337994 4.926657 
vt -2.944293 4.926657 
vt 3.237229 4.993986 
vt -2.843529 4.993986 
vt 3.128538 5.047586 
vt -2.734838 5.047586 
vt 3.013781 5.086541 
vt -2.62008 5.086541 
vt 2.894921 5.110184 
vt -2.50122 5.110184 
vt 2.773991 5.11811 
vt -2.380291 5.11811 

usemtl metalMedium

f 2/2/1 1/1/1 3/3/1 
f 3/3/1 4/4/1 2/2/1 
f 6/6/2 5/5/2 7/7/2 
f 7/7/2 8/8/2 6/6/2 
f 7/10/3 4/9/3 3/11/3 
f 3/11/3 8/12/3 7/10/3 
f 2/14/4 5/13/4 6/15/4 
f 6/15/4 1/16/4 2/14/4 
f 10/18/1 9/17/1 11/19/1 
f 11/19/1 12/20/1 10/18/1 
f 13/22/4 12/21/4 11/23/4 
f 11/23/4 14/24/4 13/22/4 
f 13/26/5 15/25/5 10/27/5 
f 10/27/5 12/28/5 13/26/5 
f 10/30/3 15/29/3 16/31/3 
f 16/31/3 9/32/3 10/30/3 
f 16/34/2 15/33/2 13/35/2 
f 13/35/2 14/36/2 16/34/2 
f 18/38/3 17/37/3 19/11/3 
f 19/11/3 20/12/3 18/38/3 
f 22/39/1 21/8/1 19/6/1 
f 19/6/1 17/40/1 22/39/1 
f 24/3/2 23/41/2 18/42/2 
f 18/42/2 20/1/2 24/3/2 
f 22/44/4 23/43/4 24/15/4 
f 24/15/4 21/16/4 22/44/4 
f 26/46/1 25/45/1 27/47/1 
f 27/47/1 28/48/1 26/46/1 
f 26/50/4 29/49/4 30/51/4 
f 30/51/4 25/52/4 26/50/4 
f 27/54/5 25/53/5 30/55/5 
f 30/55/5 31/56/5 27/54/5 
f 30/55/5 32/57/5 31/56/5 
f 32/57/5 33/58/5 31/56/5 
f 26/60/6 28/59/6 34/61/6 
f 34/61/6 29/62/6 26/60/6 
f 34/64/3 28/63/3 27/65/3 
f 27/65/3 31/66/3 34/64/3 
f 36/68/5 35/67/5 37/69/5 
f 37/69/5 38/70/5 36/68/5 
f 39/19/2 35/20/2 36/18/2 
f 36/18/2 40/17/2 39/19/2 
f 36/22/4 38/21/4 41/23/4 
f 41/23/4 40/24/4 36/22/4 
f 37/30/3 35/29/3 39/31/3 
f 39/31/3 42/32/3 37/30/3 
f 32/72/1 43/71/1 44/73/1 
f 44/73/1 33/74/1 32/72/1 
f 37/35/1 42/36/1 41/34/1 
f 41/34/1 38/33/1 37/35/1 
f 46/76/6 45/75/6 47/77/6 
f 47/77/6 48/78/6 46/76/6 
f 47/80/3 45/79/3 49/81/3 
f 49/81/3 50/82/3 47/80/3 
f 22/84/6 17/83/6 18/85/6 
f 18/85/6 23/86/6 22/84/6 
f 51/3/2 48/87/2 47/88/2 
f 47/88/2 50/1/2 51/3/2 
f 53/80/3 52/79/3 54/81/3 
f 54/81/3 55/82/3 53/80/3 
f 57/90/4 56/89/4 58/91/4 
f 58/91/4 59/92/4 57/90/4 
f 46/93/1 60/8/1 49/6/1 
f 49/6/1 45/94/1 46/93/1 
f 46/90/4 48/89/4 51/91/4 
f 51/91/4 60/92/4 46/90/4 
f 58/6/2 56/94/2 53/93/2 
f 53/93/2 55/8/2 58/6/2 
f 57/88/1 59/1/1 54/3/1 
f 54/3/1 52/87/1 57/88/1 
f 57/96/6 52/95/6 53/97/6 
f 53/97/6 56/98/6 57/96/6 
f 2/100/6 4/99/6 7/101/6 
f 7/101/6 5/102/6 2/100/6 

usemtl metal

f 30/45/1 43/71/1 32/72/1 
f 43/71/1 30/45/1 19/6/1 
f 43/71/1 19/6/1 21/8/1 
f 43/71/1 21/8/1 61/103/1 
f 61/103/1 62/104/1 43/71/1 
f 62/104/1 44/73/1 43/71/1 
f 62/104/1 33/74/1 44/73/1 
f 62/104/1 31/47/1 33/74/1 
f 62/104/1 34/48/1 31/47/1 
f 62/104/1 1/1/1 34/48/1 
f 62/104/1 3/3/1 1/1/1 
f 29/46/1 1/1/1 19/6/1 
f 19/6/1 30/45/1 29/46/1 
f 29/46/1 34/48/1 1/1/1 
f 64/106/8 63/105/7 65/107/7 
f 65/107/7 66/108/8 64/106/8 
f 63/110/7 67/109/9 68/111/9 
f 68/111/9 65/112/7 63/110/7 
f 39/67/5 69/113/5 70/114/5 
f 70/114/5 71/115/5 39/67/5 
f 71/115/5 42/69/5 39/67/5 
f 71/115/5 41/70/5 42/69/5 
f 71/115/5 9/27/5 41/70/5 
f 71/115/5 11/28/5 9/27/5 
f 69/113/5 39/67/5 14/26/5 
f 14/26/5 72/116/5 69/113/5 
f 14/26/5 11/28/5 72/116/5 
f 11/28/5 71/115/5 72/116/5 
f 39/67/5 40/68/5 14/26/5 
f 40/68/5 16/25/5 14/26/5 
f 16/25/5 40/68/5 41/70/5 
f 41/70/5 9/27/5 16/25/5 
f 67/118/9 73/117/10 74/119/10 
f 74/119/10 68/120/9 67/118/9 
f 49/75/6 59/96/6 58/98/6 
f 58/98/6 50/77/6 49/75/6 
f 59/96/6 49/75/6 60/76/6 
f 54/95/6 59/96/6 60/76/6 
f 54/95/6 60/76/6 24/86/6 
f 54/95/6 24/86/6 20/85/6 
f 54/95/6 20/85/6 6/102/6 
f 6/102/6 8/101/6 54/95/6 
f 6/102/6 20/85/6 19/83/6 
f 19/83/6 1/100/6 6/102/6 
f 73/122/10 75/121/11 76/123/11 
f 76/123/11 74/124/10 73/122/10 
f 78/126/12 77/125/12 79/127/13 
f 79/127/13 80/128/13 78/126/12 
f 82/130/14 81/129/14 83/131/15 
f 83/131/15 84/132/15 82/130/14 
f 84/134/15 83/133/15 77/135/12 
f 77/135/12 78/136/12 84/134/15 
f 72/138/16 71/137/16 85/139/17 
f 85/139/17 86/140/17 72/138/16 
f 87/142/18 64/141/8 66/143/8 
f 66/143/8 88/144/18 87/142/18 
f 75/146/11 89/145/19 90/147/19 
f 90/147/19 76/148/11 75/146/11 
f 8/12/3 3/11/3 62/149/3 
f 62/149/3 54/81/3 8/12/3 
f 62/149/3 55/82/3 54/81/3 
f 62/149/3 90/150/3 55/82/3 
f 62/149/3 91/151/3 90/150/3 
f 91/151/3 76/152/3 90/150/3 
f 91/151/3 92/153/3 76/152/3 
f 92/153/3 74/154/3 76/152/3 
f 92/153/3 93/155/3 74/154/3 
f 93/155/3 68/156/3 74/154/3 
f 93/155/3 94/157/3 68/156/3 
f 94/157/3 65/158/3 68/156/3 
f 94/157/3 95/159/3 65/158/3 
f 95/159/3 66/160/3 65/158/3 
f 95/159/3 96/161/3 66/160/3 
f 96/161/3 88/162/3 66/160/3 
f 96/161/3 97/163/3 88/162/3 
f 97/163/3 80/164/3 88/162/3 
f 97/163/3 98/165/3 80/164/3 
f 98/165/3 78/166/3 80/164/3 
f 98/165/3 99/167/3 78/166/3 
f 99/167/3 84/168/3 78/166/3 
f 99/167/3 100/169/3 84/168/3 
f 100/169/3 82/170/3 84/168/3 
f 100/169/3 101/171/3 82/170/3 
f 101/171/3 86/172/3 82/170/3 
f 101/171/3 69/173/3 86/172/3 
f 69/173/3 72/174/3 86/172/3 
f 86/176/17 85/175/17 81/177/14 
f 81/177/14 82/178/14 86/176/17 
f 80/180/13 79/179/13 87/181/18 
f 87/181/18 88/182/18 80/180/13 
f 89/104/2 51/3/2 50/1/2 
f 50/1/2 90/103/2 89/104/2 
f 50/1/2 58/6/2 90/103/2 
f 58/6/2 55/8/2 90/103/2 
f 61/184/21 102/183/20 91/185/20 
f 91/185/20 62/186/21 61/184/21 
f 102/188/20 103/187/22 92/189/22 
f 92/189/22 91/190/20 102/188/20 
f 101/192/23 104/191/23 70/193/24 
f 70/193/24 69/194/24 101/192/23 
f 106/196/26 105/195/25 96/197/25 
f 96/197/25 95/198/26 106/196/26 
f 108/200/28 107/199/27 94/201/27 
f 94/201/27 93/202/28 108/200/28 
f 97/204/29 109/203/29 110/205/30 
f 110/205/30 98/206/30 97/204/29 
f 96/208/25 105/207/25 109/209/29 
f 109/209/29 97/210/29 96/208/25 
f 99/212/31 111/211/31 112/213/32 
f 112/213/32 100/214/32 99/212/31 
f 98/216/30 110/215/30 111/217/31 
f 111/217/31 99/218/31 98/216/30 
f 100/220/32 112/219/32 104/221/23 
f 104/221/23 101/222/23 100/220/32 
f 103/224/22 108/223/28 93/225/28 
f 93/225/28 92/226/22 103/224/22 
f 107/228/27 106/227/26 95/229/26 
f 95/229/26 94/230/27 107/228/27 
f 60/92/4 51/91/4 89/231/4 
f 89/231/4 24/15/4 60/92/4 
f 89/231/4 21/16/4 24/15/4 
f 89/231/4 61/232/4 21/16/4 
f 89/231/4 75/233/4 61/232/4 
f 75/233/4 102/234/4 61/232/4 
f 75/233/4 73/235/4 102/234/4 
f 73/235/4 103/236/4 102/234/4 
f 73/235/4 67/237/4 103/236/4 
f 67/237/4 108/238/4 103/236/4 
f 67/237/4 63/239/4 108/238/4 
f 63/239/4 107/240/4 108/238/4 
f 63/239/4 64/241/4 107/240/4 
f 64/241/4 106/242/4 107/240/4 
f 64/241/4 87/243/4 106/242/4 
f 87/243/4 105/244/4 106/242/4 
f 87/243/4 79/245/4 105/244/4 
f 79/245/4 109/246/4 105/244/4 
f 79/245/4 77/247/4 109/246/4 
f 77/247/4 110/248/4 109/246/4 
f 77/247/4 83/249/4 110/248/4 
f 83/249/4 111/250/4 110/248/4 
f 83/249/4 81/251/4 111/250/4 
f 81/251/4 112/252/4 111/250/4 
f 81/251/4 85/253/4 112/252/4 
f 85/253/4 104/254/4 112/252/4 
f 85/253/4 71/255/4 104/254/4 
f 71/255/4 70/256/4 104/254/4 
g toaster




usemtl metalMedium

f 2/2/1 1/1/1 3/3/1 
f 3/3/1 4/4/1 2/2/1 
f 6/6/2 5/5/2 7/7/2 
f 7/7/2 8/8/2 6/6/2 
f 7/10/3 4/9/3 3/11/3 
f 3/11/3 8/12/3 7/10/3 
f 2/14/4 5/13/4 6/15/4 
f 6/15/4 1/16/4 2/14/4 
f 10/18/1 9/17/1 11/19/1 
f 11/19/1 12/20/1 10/18/1 
f 13/22/4 12/21/4 11/23/4 
f 11/23/4 14/24/4 13/22/4 
f 13/26/5 15/25/5 10/27/5 
f 10/27/5 12/28/5 13/26/5 
f 10/30/3 15/29/3 16/31/3 
f 16/31/3 9/32/3 10/30/3 
f 16/34/2 15/33/2 13/35/2 
f 13/35/2 14/36/2 16/34/2 
f 18/38/3 17/37/3 19/11/3 
f 19/11/3 20/12/3 18/38/3 
f 22/39/1 21/8/1 19/6/1 
f 19/6/1 17/40/1 22/39/1 
f 24/3/2 23/41/2 18/42/2 
f 18/42/2 20/1/2 24/3/2 
f 22/44/4 23/43/4 24/15/4 
f 24/15/4 21/16/4 22/44/4 
f 26/46/1 25/45/1 27/47/1 
f 27/47/1 28/48/1 26/46/1 
f 26/50/4 29/49/4 30/51/4 
f 30/51/4 25/52/4 26/50/4 
f 27/54/5 25/53/5 30/55/5 
f 30/55/5 31/56/5 27/54/5 
f 30/55/5 32/57/5 31/56/5 
f 32/57/5 33/58/5 31/56/5 
f 26/60/6 28/59/6 34/61/6 
f 34/61/6 29/62/6 26/60/6 
f 34/64/3 28/63/3 27/65/3 
f 27/65/3 31/66/3 34/64/3 
f 36/68/5 35/67/5 37/69/5 
f 37/69/5 38/70/5 36/68/5 
f 39/19/2 35/20/2 36/18/2 
f 36/18/2 40/17/2 39/19/2 
f 36/22/4 38/21/4 41/23/4 
f 41/23/4 40/24/4 36/22/4 
f 37/30/3 35/29/3 39/31/3 
f 39/31/3 42/32/3 37/30/3 
f 32/72/1 43/71/1 44/73/1 
f 44/73/1 33/74/1 32/72/1 
f 37/35/1 42/36/1 41/34/1 
f 41/34/1 38/33/1 37/35/1 
f 46/76/6 45/75/6 47/77/6 
f 47/77/6 48/78/6 46/76/6 
f 47/80/3 45/79/3 49/81/3 
f 49/81/3 50/82/3 47/80/3 
f 22/84/6 17/83/6 18/85/6 
f 18/85/6 23/86/6 22/84/6 
f 51/3/2 48/87/2 47/88/2 
f 47/88/2 50/1/2 51/3/2 
f 53/80/3 52/79/3 54/81/3 
f 54/81/3 55/82/3 53/80/3 
f 57/90/4 56/89/4 58/91/4 
f 58/91/4 59/92/4 57/90/4 
f 46/93/1 60/8/1 49/6/1 
f 49/6/1 45/94/1 46/93/1 
f 46/90/4 48/89/4 51/91/4 
f 51/91/4 60/92/4 46/90/4 
f 58/6/2 56/94/2 53/93/2 
f 53/93/2 55/8/2 58/6/2 
f 57/88/1 59/1/1 54/3/1 
f 54/3/1 52/87/1 57/88/1 
f 57/96/6 52/95/6 53/97/6 
f 53/97/6 56/98/6 57/96/6 
f 2/100/6 4/99/6 7/101/6 
f 7/101/6 5/102/6 2/100/6 

usemtl metal

f 30/45/1 43/71/1 32/72/1 
f 43/71/1 30/45/1 19/6/1 
f 43/71/1 19/6/1 21/8/1 
f 43/71/1 21/8/1 61/103/1 
f 61/103/1 62/104/1 43/71/1 
f 62/104/1 44/73/1 43/71/1 
f 62/104/1 33/74/1 44/73/1 
f 62/104/1 31/47/1 33/74/1 
f 62/104/1 34/48/1 31/47/1 
f 62/104/1 1/1/1 34/48/1 
f 62/104/1 3/3/1 1/1/1 
f 29/46/1 1/1/1 19/6/1 
f 19/6/1 30/45/1 29/46/1 
f 29/46/1 34/48/1 1/1/1 
f 64/106/8 63/105/7 65/107/7 
f 65/107/7 66/108/8 64/106/8 
f 63/110/7 67/109/9 68/111/9 
f 68/111/9 65/112/7 63/110/7 
f 39/67/5 69/113/5 70/114/5 
f 70/114/5 71/115/5 39/67/5 
f 71/115/5 42/69/5 39/67/5 
f 71/115/5 41/70/5 42/69/5 
f 71/115/5 9/27/5 41/70/5 
f 71/115/5 11/28/5 9/27/5 
f 69/113/5 39/67/5 14/26/5 
f 14/26/5 72/116/5 69/113/5 
f 14/26/5 11/28/5 72/116/5 
f 11/28/5 71/115/5 72/116/5 
f 39/67/5 40/68/5 14/26/5 
f 40/68/5 16/25/5 14/26/5 
f 16/25/5 40/68/5 41/70/5 
f 41/70/5 9/27/5 16/25/5 
f 67/118/9 73/117/10 74/119/10 
f 74/119/10 68/120/9 67/118/9 
f 49/75/6 59/96/6 58/98/6 
f 58/98/6 50/77/6 49/75/6 
f 59/96/6 49/75/6 60/76/6 
f 54/95/6 59/96/6 60/76/6 
f 54/95/6 60/76/6 24/86/6 
f 54/95/6 24/86/6 20/85/6 
f 54/95/6 20/85/6 6/102/6 
f 6/102/6 8/101/6 54/95/6 
f 6/102/6 20/85/6 19/83/6 
f 19/83/6 1/100/6 6/102/6 
f 73/122/10 75/121/11 76/123/11 
f 76/123/11 74/124/10 73/122/10 
f 78/126/12 77/125/12 79/127/13 
f 79/127/13 80/128/13 78/126/12 
f 82/130/14 81/129/14 83/131/15 
f 83/131/15 84/132/15 82/130/14 
f 84/134/15 83/133/15 77/135/12 
f 77/135/12 78/136/12 84/134/15 
f 72/138/16 71/137/16 85/139/17 
f 85/139/17 86/140/17 72/138/16 
f 87/142/18 64/141/8 66/143/8 
f 66/143/8 88/144/18 87/142/18 
f 75/146/11 89/145/19 90/147/19 
f 90/147/19 76/148/11 75/146/11 
f 8/12/3 3/11/3 62/149/3 
f 62/149/3 54/81/3 8/12/3 
f 62/149/3 55/82/3 54/81/3 
f 62/149/3 90/150/3 55/82/3 
f 62/149/3 91/151/3 90/150/3 
f 91/151/3 76/152/3 90/150/3 
f 91/151/3 92/153/3 76/152/3 
f 92/153/3 74/154/3 76/152/3 
f 92/153/3 93/155/3 74/154/3 
f 93/155/3 68/156/3 74/154/3 
f 93/155/3 94/157/3 68/156/3 
f 94/157/3 65/158/3 68/156/3 
f 94/157/3 95/159/3 65/158/3 
f 95/159/3 66/160/3 65/158/3 
f 95/159/3 96/161/3 66/160/3 
f 96/161/3 88/162/3 66/160/3 
f 96/161/3 97/163/3 88/162/3 
f 97/163/3 80/164/3 88/162/3 
f 97/163/3 98/165/3 80/164/3 
f 98/165/3 78/166/3 80/164/3 
f 98/165/3 99/167/3 78/166/3 
f 99/167/3 84/168/3 78/166/3 
f 99/167/3 100/169/3 84/168/3 
f 100/169/3 82/170/3 84/168/3 
f 100/169/3 101/171/3 82/170/3 
f 101/171/3 86/172/3 82/170/3 
f 101/171/3 69/173/3 86/172/3 
f 69/173/3 72/174/3 86/172/3 
f 86/176/17 85/175/17 81/177/14 
f 81/177/14 82/178/14 86/176/17 
f 80/180/13 79/179/13 87/181/18 
f 87/181/18 88/182/18 80/180/13 
f 89/104/2 51/3/2 50/1/2 
f 50/1/2 90/103/2 89/104/2 
f 50/1/2 58/6/2 90/103/2 
f 58/6/2 55/8/2 90/103/2 
f 61/184/21 102/183/20 91/185/20 
f 91/185/20 62/186/21 61/184/21 
f 102/188/20 103/187/22 92/189/22 
f 92/189/22 91/190/20 102/188/20 
f 101/192/23 104/191/23 70/193/24 
f 70/193/24 69/194/24 101/192/23 
f 106/196/26 105/195/25 96/197/25 
f 96/197/25 95/198/26 106/196/26 
f 108/200/28 107/199/27 94/201/27 
f 94/201/27 93/202/28 108/200/28 
f 97/204/29 109/203/29 110/205/30 
f 110/205/30 98/206/30 97/204/29 
f 96/208/25 105/207/25 109/209/29 
f 109/209/29 97/210/29 96/208/25 
f 99/212/31 111/211/31 112/213/32 
f 112/213/32 100/214/32 99/212/31 
f 98/216/30 110/215/30 111/217/31 
f 111/217/31 99/218/31 98/216/30 
f 100/220/32 112/219/32 104/221/23 
f 104/221/23 101/222/23 100/220/32 
f 103/224/22 108/223/28 93/225/28 
f 93/225/28 92/226/22 103/224/22 
f 107/228/27 106/227/26 95/229/26 
f 95/229/26 94/230/27 107/228/27 
f 60/92/4 51/91/4 89/231/4 
f 89/231/4 24/15/4 60/92/4 
f 89/231/4 21/16/4 24/15/4 
f 89/231/4 61/232/4 21/16/4 
f 89/231/4 75/233/4 61/232/4 
f 75/233/4 102/234/4 61/232/4 
f 75/233/4 73/235/4 102/234/4 
f 73/235/4 103/236/4 102/234/4 
f 73/235/4 67/237/4 103/236/4 
f 67/237/4 108/238/4 103/236/4 
f 67/237/4 63/239/4 108/238/4 
f 63/239/4 107/240/4 108/238/4 
f 63/239/4 64/241/4 107/240/4 
f 64/241/4 106/242/4 107/240/4 
f 64/241/4 87/243/4 106/242/4 
f 87/243/4 105/244/4 106/242/4 
f 87/243/4 79/245/4 105/244/4 
f 79/245/4 109/246/4 105/244/4 
f 79/245/4 77/247/4 109/246/4 
f 77/247/4 110/248/4 109/246/4 
f 77/247/4 83/249/4 110/248/4 
f 83/249/4 111/250/4 110/248/4 
f 83/249/4 81/251/4 111/250/4 
f 81/251/4 112/252/4 111/250/4 
f 81/251/4 85/253/4 112/252/4 
f 85/253/4 104/254/4 112/252/4 
f 85/253/4 71/255/4 104/254/4 
f 71/255/4 70/256/4 104/254/4 
