# Created by Kenney (www.kenney.nl) 

mtllib trashcan.mtl 

g trashcan

v -0.05192337 -2.506236E-18 0.08993394 
v -0.1038468 3.137308E-19 1.490116E-08 
v -0.05192337 0.3410557 0.08993394 
v -0.1038468 0.3681839 1.490116E-08 
v -0.05192337 0.3681839 0.08993394 
v -0.05192338 3.137308E-19 -0.08993392 
v -0.05192338 0.03255384 -0.08993392 
v -0.05192338 0.3681839 -0.08993392 
v 0.05192337 0.3681839 -0.08993394 
v 0.05192337 0.03255384 -0.08993394 
v 0.1038468 -2.506236E-18 -1.490116E-08 
v 0.1038468 0.3681839 -1.490116E-08 
v 0.05192337 3.137308E-19 -0.08993394 
v 0.05192338 -2.506236E-18 0.08993392 
v 0.05192338 0.3410557 0.08993392 
v 0.05192338 0.3681839 0.08993392 
v -0.04649775 3.137308E-19 -0.1224878 
v 0.04649772 3.137308E-19 -0.1224878 
v -0.05192337 0.3953121 0.08993394 
v 0.05192338 0.3953121 0.08993392 
v 0.1038468 0.3953121 -1.490116E-08 
v 0.05192337 0.3953121 -0.08993394 
v -0.05192338 0.3953121 -0.08993392 
v -0.1038468 0.3953121 1.490116E-08 
v 0.03530789 0.427866 -0.06115508 
v 0.0706158 0.427866 -7.450581E-09 
v -0.03530791 0.427866 -0.06115507 
v -0.0706158 0.427866 7.450581E-09 
v 0.03530791 0.427866 0.06115507 
v -0.03530789 0.427866 0.06115508 
v -0.04649775 0.0271282 -0.1224878 
v 0.04649772 0.0271282 -0.1224878 
v -0.04465409 0.3429547 0.1116365 
v -0.04465409 0.3662849 0.1116365 
v 0.04465412 0.3429547 0.1116365 
v 0.04465412 0.3662849 0.1116365 

vn -0.8660255 0 0.5000002 
vn -0.8660256 0 -0.5 
vn -1.192093E-07 0 -1 
vn 0.8660255 0 -0.5000002 
vn 0.8660256 0 0.5 
vn 0 -1 0 
vn 1.192093E-07 0 1 
vn 0 1 0 
vn -8.931291E-08 0.6623315 -0.749211 
vn -0.6488358 0.6623315 -0.3746054 
vn -0.6488358 0.6623315 0.3746056 
vn 8.931291E-08 0.6623315 0.749211 
vn 0.6488358 0.6623315 0.3746054 
vn 0.6488358 0.6623315 -0.3746056 
vn -0.9863941 0 -0.1643989 
vn 0.9863941 0 -0.1643991 
vn -1.959789E-08 0.986394 -0.164399 
vn -0.9482225 0 0.3176073 
vn 1.039111E-08 -0.9961938 0.08716696 
vn 0.9482226 0 0.317607 
vn 1.039111E-08 0.9961938 0.08716696 

vt 4.330709 -1.569381E-16 
vt -4.330709 7.826335E-17 
vt 4.330709 28.44601 
vt -4.330709 30.70866 
vt 4.330709 30.70866 
vt 4.330709 2.616695E-17 
vt -4.330709 2.616695E-17 
vt -4.330709 2.715178 
vt 4.330709 2.715178 
vt -4.330709 -2.090345E-16 
vt 4.330709 -2.350827E-16 
vt -4.330709 -2.350827E-16 
vt -4.330709 28.44601 
vt 10.21619 -3.878179 
vt 7.501008 -4.330709 
vt 10.21619 3.878179 
vt 7.501008 4.330709 
vt -1.705303E-13 -8.661417 
vt 7.105427E-15 8.661417 
vt -7.501008 4.330709 
vt -7.501008 -4.330709 
vt 4.330709 -2.090345E-16 
vt -4.330709 32.97131 
vt 4.330709 32.97131 
vt -5.100685 2.944882 
vt -1.563194E-13 5.889764 
vt -5.100685 -2.944882 
vt -4.263256E-14 -5.889764 
vt 5.100685 2.944882 
vt 5.100685 -2.944882 
vt 4.330709 19.73431 
vt -4.330709 19.73431 
vt 2.944882 23.35836 
vt -2.944882 23.35836 
vt -6.686984 9.684492E-18 
vt -9.439614 9.684492E-18 
vt -6.686984 2.715178 
vt -9.439614 2.262648 
vt 9.439614 5.913187E-17 
vt 6.686984 5.913187E-17 
vt 9.439614 2.262648 
vt 6.686984 2.715178 
vt 3.878179 -9.705206 
vt -3.878179 -9.705206 
vt 4.330709 -6.952576 
vt -4.330709 -6.952576 
vt 3.878179 2.262648 
vt 3.878179 2.616695E-17 
vt -3.878179 2.262648 
vt -3.878179 2.616695E-17 
vt -3.724409 28.6044 
vt -3.724409 30.55028 
vt 3.724409 28.6044 
vt 3.724409 30.55028 
vt 5.73716 28.44601 
vt 5.73716 30.70866 
vt 7.64612 28.6044 
vt 7.64612 30.55028 
vt 4.330709 9.952008 
vt -4.330709 9.952008 
vt 3.724409 11.76904 
vt -3.724409 11.76904 
vt -5.73716 28.44601 
vt -7.64612 28.6044 
vt -5.73716 30.70866 
vt -7.64612 30.55028 
vt 4.330709 -4.795676 
vt 3.724409 -6.612711 
vt -4.330709 -4.795676 
vt -3.724409 -6.612711 

usemtl metal

f 2/2/1 1/1/1 3/3/1 
f 3/3/1 4/4/1 2/2/1 
f 3/3/1 5/5/1 4/4/1 
f 6/7/2 2/6/2 4/5/2 
f 4/5/2 7/8/2 6/7/2 
f 4/5/2 8/4/2 7/8/2 
f 7/9/3 8/5/3 9/4/3 
f 9/4/3 10/8/3 7/9/3 
f 12/4/4 11/10/4 13/6/4 
f 13/6/4 10/9/4 12/4/4 
f 10/9/4 9/5/4 12/4/4 
f 14/12/5 11/11/5 12/5/5 
f 12/5/5 15/13/5 14/12/5 
f 12/5/5 16/4/5 15/13/5 
f 6/15/6 17/14/6 18/16/6 
f 18/16/6 13/17/6 6/15/6 
f 13/17/6 2/18/6 6/15/6 
f 13/17/6 11/19/6 2/18/6 
f 11/19/6 14/20/6 2/18/6 
f 14/20/6 1/21/6 2/18/6 
f 3/13/7 1/10/7 14/22/7 
f 14/22/7 15/3/7 3/13/7 

usemtl metalDark

f 19/23/7 5/4/7 16/5/7 
f 16/5/7 20/24/7 19/23/7 
f 16/4/5 12/5/5 21/24/5 
f 21/24/5 20/23/5 16/4/5 
f 12/4/4 9/5/4 22/24/4 
f 22/24/4 21/23/4 12/4/4 
f 8/5/3 23/24/3 22/23/3 
f 22/23/3 9/4/3 8/5/3 
f 8/4/2 4/5/2 24/24/2 
f 24/24/2 23/23/2 8/4/2 
f 4/4/1 5/5/1 19/24/1 
f 19/24/1 24/23/1 4/4/1 
f 26/26/8 25/25/8 27/27/8 
f 27/27/8 28/28/8 26/26/8 
f 28/28/8 29/29/8 26/26/8 
f 28/28/8 30/30/8 29/29/8 
f 22/32/9 23/31/9 27/33/9 
f 27/33/9 25/34/9 22/32/9 
f 27/34/10 23/32/10 24/31/10 
f 24/31/10 28/33/10 27/34/10 
f 30/33/11 28/34/11 24/32/11 
f 24/32/11 19/31/11 30/33/11 
f 30/34/12 19/32/12 20/31/12 
f 20/31/12 29/33/12 30/34/12 
f 21/31/13 26/33/13 29/34/13 
f 29/34/13 20/32/13 21/31/13 
f 21/32/14 22/31/14 25/33/14 
f 25/33/14 26/34/14 21/32/14 
f 17/36/15 6/35/15 7/37/15 
f 7/37/15 31/38/15 17/36/15 
f 13/40/16 18/39/16 32/41/16 
f 32/41/16 10/42/16 13/40/16 
f 32/44/17 31/43/17 7/45/17 
f 7/45/17 10/46/17 32/44/17 
f 17/48/3 31/47/3 32/49/3 
f 32/49/3 18/50/3 17/48/3 
f 34/52/7 33/51/7 35/53/7 
f 35/53/7 36/54/7 34/52/7 
f 5/56/18 3/55/18 33/57/18 
f 33/57/18 34/58/18 5/56/18 
f 3/60/19 15/59/19 35/61/19 
f 35/61/19 33/62/19 3/60/19 
f 35/64/20 15/63/20 16/65/20 
f 16/65/20 36/66/20 35/64/20 
f 36/68/21 16/67/21 5/69/21 
f 5/69/21 34/70/21 36/68/21 
g trashcan




usemtl metal

f 2/2/1 1/1/1 3/3/1 
f 3/3/1 4/4/1 2/2/1 
f 3/3/1 5/5/1 4/4/1 
f 6/7/2 2/6/2 4/5/2 
f 4/5/2 7/8/2 6/7/2 
f 4/5/2 8/4/2 7/8/2 
f 7/9/3 8/5/3 9/4/3 
f 9/4/3 10/8/3 7/9/3 
f 12/4/4 11/10/4 13/6/4 
f 13/6/4 10/9/4 12/4/4 
f 10/9/4 9/5/4 12/4/4 
f 14/12/5 11/11/5 12/5/5 
f 12/5/5 15/13/5 14/12/5 
f 12/5/5 16/4/5 15/13/5 
f 6/15/6 17/14/6 18/16/6 
f 18/16/6 13/17/6 6/15/6 
f 13/17/6 2/18/6 6/15/6 
f 13/17/6 11/19/6 2/18/6 
f 11/19/6 14/20/6 2/18/6 
f 14/20/6 1/21/6 2/18/6 
f 3/13/7 1/10/7 14/22/7 
f 14/22/7 15/3/7 3/13/7 

usemtl metalDark

f 19/23/7 5/4/7 16/5/7 
f 16/5/7 20/24/7 19/23/7 
f 16/4/5 12/5/5 21/24/5 
f 21/24/5 20/23/5 16/4/5 
f 12/4/4 9/5/4 22/24/4 
f 22/24/4 21/23/4 12/4/4 
f 8/5/3 23/24/3 22/23/3 
f 22/23/3 9/4/3 8/5/3 
f 8/4/2 4/5/2 24/24/2 
f 24/24/2 23/23/2 8/4/2 
f 4/4/1 5/5/1 19/24/1 
f 19/24/1 24/23/1 4/4/1 
f 26/26/8 25/25/8 27/27/8 
f 27/27/8 28/28/8 26/26/8 
f 28/28/8 29/29/8 26/26/8 
f 28/28/8 30/30/8 29/29/8 
f 22/32/9 23/31/9 27/33/9 
f 27/33/9 25/34/9 22/32/9 
f 27/34/10 23/32/10 24/31/10 
f 24/31/10 28/33/10 27/34/10 
f 30/33/11 28/34/11 24/32/11 
f 24/32/11 19/31/11 30/33/11 
f 30/34/12 19/32/12 20/31/12 
f 20/31/12 29/33/12 30/34/12 
f 21/31/13 26/33/13 29/34/13 
f 29/34/13 20/32/13 21/31/13 
f 21/32/14 22/31/14 25/33/14 
f 25/33/14 26/34/14 21/32/14 
f 17/36/15 6/35/15 7/37/15 
f 7/37/15 31/38/15 17/36/15 
f 13/40/16 18/39/16 32/41/16 
f 32/41/16 10/42/16 13/40/16 
f 32/44/17 31/43/17 7/45/17 
f 7/45/17 10/46/17 32/44/17 
f 17/48/3 31/47/3 32/49/3 
f 32/49/3 18/50/3 17/48/3 
f 34/52/7 33/51/7 35/53/7 
f 35/53/7 36/54/7 34/52/7 
f 5/56/18 3/55/18 33/57/18 
f 33/57/18 34/58/18 5/56/18 
f 3/60/19 15/59/19 35/61/19 
f 35/61/19 33/62/19 3/60/19 
f 35/64/20 15/63/20 16/65/20 
f 16/65/20 36/66/20 35/64/20 
f 36/68/21 16/67/21 5/69/21 
f 5/69/21 34/70/21 36/68/21 
