# Created by Kenney (www.kenney.nl) 

mtllib wallCorner.mtl 

g wallCorner

v -0.5 1.289532 0.1 
v -0.5 -9.023893E-17 0.1 
v -0.5 1.289532 0.55 
v -0.5 0 0.55 
v 0 0 0.05 
v -0.45 0 0.05 
v 0 1.289532 0.05 
v -0.45 1.289532 0.05 
v -0.45 0 0 
v 0 0 0 
v -0.45 1.289532 0 
v 0 1.289532 0 
v -0.55 0 0.55 
v -0.55 1.289532 0.55 
v -0.55 -9.023893E-17 0.1 
v -0.55 1.289532 0.1 

vn 1 0 0 
vn 0 0 1 
vn 0.7071068 0 0.7071068 
vn 0 0 -1 
vn -1 0 0 
vn -0.7071068 0 -0.7071068 
vn 0 1 0 
vn 0 -1 0 

vt -3.937008 50.76897 
vt -3.937008 -3.552714E-15 
vt -21.65354 50.76897 
vt -21.65354 4.935487E-32 
vt 0 0 
vt -17.71654 0 
vt 0 50.76897 
vt -17.71654 50.76897 
vt -13.91943 50.76897 
vt -13.91943 0 
vt -16.70331 50.76897 
vt -16.70331 -3.552714E-15 
vt 19.68504 3.937008 
vt 19.68504 21.65354 
vt 21.65354 21.65354 
vt -21.65354 21.65354 
vt -19.68504 3.937008 
vt -21.65354 3.937008 
vt 0 1.968504 
vt 17.71654 0 
vt 17.71654 1.968504 
vt 21.65354 3.937008 
vt -19.68504 21.65354 
vt -17.71654 1.712476E-31 
vt -17.71654 1.968504 

usemtl metalDark

f 2/2/1 1/1/1 3/3/1 
f 3/3/1 4/4/1 2/2/1 
f 6/6/2 5/5/2 7/7/2 
f 7/7/2 8/8/2 6/6/2 
f 6/10/3 8/9/3 1/11/3 
f 1/11/3 2/12/3 6/10/3 

usemtl _defaultMat

f 10/7/4 9/8/4 11/6/4 
f 11/7/4 12/8/4 10/6/4 
f 10/7/1 12/8/1 7/6/1 
f 7/7/1 5/8/1 10/6/1 
f 13/14/2 4/13/2 3/15/2 
f 3/14/2 14/13/2 13/15/2 
f 16/17/5 15/16/5 13/18/5 
f 13/17/5 14/16/5 16/18/5 
f 11/17/6 9/16/6 15/18/6 
f 15/17/6 16/16/6 11/18/6 

usemtl wood

f 7/19/7 12/5/7 11/20/7 
f 11/20/7 8/21/7 7/19/7 
f 11/20/7 16/22/7 8/21/7 
f 16/22/7 1/13/7 8/21/7 
f 16/22/7 14/15/7 1/13/7 
f 3/14/7 1/13/7 14/15/7 
f 2/17/8 4/23/8 13/16/8 
f 2/17/8 13/16/8 15/18/8 
f 2/17/8 15/18/8 9/24/8 
f 6/25/8 2/17/8 9/24/8 
f 6/25/8 9/24/8 10/5/8 
f 10/5/8 5/19/8 6/25/8 
g wallCorner




usemtl metalDark

f 2/2/1 1/1/1 3/3/1 
f 3/3/1 4/4/1 2/2/1 
f 6/6/2 5/5/2 7/7/2 
f 7/7/2 8/8/2 6/6/2 
f 6/10/3 8/9/3 1/11/3 
f 1/11/3 2/12/3 6/10/3 

usemtl _defaultMat

f 10/7/4 9/8/4 11/6/4 
f 11/7/4 12/8/4 10/6/4 
f 10/7/1 12/8/1 7/6/1 
f 7/7/1 5/8/1 10/6/1 
f 13/14/2 4/13/2 3/15/2 
f 3/14/2 14/13/2 13/15/2 
f 16/17/5 15/16/5 13/18/5 
f 13/17/5 14/16/5 16/18/5 
f 11/17/6 9/16/6 15/18/6 
f 15/17/6 16/16/6 11/18/6 

usemtl wood

f 7/19/7 12/5/7 11/20/7 
f 11/20/7 8/21/7 7/19/7 
f 11/20/7 16/22/7 8/21/7 
f 16/22/7 1/13/7 8/21/7 
f 16/22/7 14/15/7 1/13/7 
f 3/14/7 1/13/7 14/15/7 
f 2/17/8 4/23/8 13/16/8 
f 2/17/8 13/16/8 15/18/8 
f 2/17/8 15/18/8 9/24/8 
f 6/25/8 2/17/8 9/24/8 
f 6/25/8 9/24/8 10/5/8 
f 10/5/8 5/19/8 6/25/8 
