{
    "asset" : {
        "version" : "2.0",
        "generator" : "Khronos glTF Blender I/O v0.9.24"
    },
    "scene" : 0,
    "scenes" : [
        {
            "nodes" : [
                0
            ],
            "name" : "Scene"
        }
    ],
    "nodes" : [
        {
            "translation" : [
                -0.0028839111328125,
                0.5915476083755493,
                -0.00023837517073843628
            ],
            "mesh" : 0,
            "name" : "lamp_lowres"
        }
    ],
    "materials" : [
        {
            "pbrMetallicRoughness" : {},
            "name" : "Mat"
        },
        {
            "pbrMetallicRoughness" : {},
            "name" : "Mat.1"
        },
        {
            "pbrMetallicRoughness" : {},
            "name" : "black metal"
        }
    ],
    "meshes" : [
        {
            "primitives" : [
                {
                    "indices" : 3,
                    "material" : 0,
                    "attributes" : {
                        "POSITION" : 0,
                        "NORMAL" : 1,
                        "TEXCOORD_0" : 2
                    }
                },
                {
                    "indices" : 7,
                    "material" : 1,
                    "attributes" : {
                        "POSITION" : 4,
                        "NORMAL" : 5,
                        "TEXCOORD_0" : 6
                    }
                },
                {
                    "indices" : 11,
                    "material" : 2,
                    "attributes" : {
                        "POSITION" : 8,
                        "NORMAL" : 9,
                        "TEXCOORD_0" : 10
                    }
                }
            ],
            "name" : "Untitled.068"
        }
    ],
    "accessors" : [
        {
            "bufferView" : 0,
            "type" : "VEC3",
            "max" : [
                54.79342269897461,
                -86.19530487060547,
                60.8542594909668
            ],
            "count" : 354,
            "min" : [
                -54.74781036376953,
                -116.4222183227539,
                -37.72334289550781
            ],
            "componentType" : 5126
        },
        {
            "count" : 354,
            "type" : "VEC3",
            "bufferView" : 1,
            "componentType" : 5126
        },
        {
            "count" : 354,
            "type" : "VEC2",
            "bufferView" : 2,
            "componentType" : 5126
        },
        {
            "count" : 1578,
            "type" : "SCALAR",
            "bufferView" : 3,
            "componentType" : 5123
        },
        {
            "bufferView" : 4,
            "type" : "VEC3",
            "max" : [
                53.128517150878906,
                -0.5498287081718445,
                61.152191162109375
            ],
            "count" : 2045,
            "min" : [
                -53.127105712890625,
                -137.97715759277344,
                -31.071836471557617
            ],
            "componentType" : 5126
        },
        {
            "count" : 2045,
            "type" : "VEC3",
            "bufferView" : 5,
            "componentType" : 5126
        },
        {
            "count" : 2045,
            "type" : "VEC2",
            "bufferView" : 6,
            "componentType" : 5126
        },
        {
            "count" : 5199,
            "type" : "SCALAR",
            "bufferView" : 7,
            "componentType" : 5123
        },
        {
            "bufferView" : 8,
            "type" : "VEC3",
            "max" : [
                0.36273887753486633,
                -6.1733856201171875,
                1.4880017042160034
            ],
            "count" : 33,
            "min" : [
                -0.35900425910949707,
                -10.560543060302734,
                -1.5236539840698242
            ],
            "componentType" : 5126
        },
        {
            "count" : 33,
            "type" : "VEC3",
            "bufferView" : 9,
            "componentType" : 5126
        },
        {
            "count" : 33,
            "type" : "VEC2",
            "bufferView" : 10,
            "componentType" : 5126
        },
        {
            "count" : 84,
            "type" : "SCALAR",
            "bufferView" : 11,
            "componentType" : 5123
        }
    ],
    "bufferViews" : [
        {
            "byteLength" : 4248,
            "byteOffset" : 0,
            "buffer" : 0
        },
        {
            "byteLength" : 4248,
            "byteOffset" : 4248,
            "buffer" : 0
        },
        {
            "byteLength" : 2832,
            "byteOffset" : 8496,
            "buffer" : 0
        },
        {
            "byteLength" : 3156,
            "byteOffset" : 11328,
            "buffer" : 0
        },
        {
            "byteLength" : 24540,
            "byteOffset" : 14484,
            "buffer" : 0
        },
        {
            "byteLength" : 24540,
            "byteOffset" : 39024,
            "buffer" : 0
        },
        {
            "byteLength" : 16360,
            "byteOffset" : 63564,
            "buffer" : 0
        },
        {
            "byteLength" : 10398,
            "byteOffset" : 79924,
            "buffer" : 0
        },
        {
            "byteLength" : 396,
            "byteOffset" : 90324,
            "buffer" : 0
        },
        {
            "byteLength" : 396,
            "byteOffset" : 90720,
            "buffer" : 0
        },
        {
            "byteLength" : 264,
            "byteOffset" : 91116,
            "buffer" : 0
        },
        {
            "byteLength" : 168,
            "byteOffset" : 91380,
            "buffer" : 0
        }
    ],
    "buffers" : [
        {
            "uri" : "data:application/octet-stream;base64,",
            "byteLength" : 91548
        }
    ]
}
