{"accessors":[{"bufferView":0,"componentType":5123,"count":12288,"max":[2111],"min":[0],"type":"SCALAR"},{"bufferView":1,"componentType":5126,"count":2112,"max":[0.003984331618994474,0.07204795628786087,0.029606206342577934],"min":[-0.003984361421316862,-0.07204794138669968,-6.545277386749149e-08],"type":"VEC3"},{"bufferView":2,"componentType":5126,"count":2112,"max":[1.0,1.0,1.0],"min":[-1.0,-1.0,-1.0],"type":"VEC3"},{"bufferView":3,"componentType":5123,"count":36,"max":[23],"min":[0],"type":"SCALAR"},{"bufferView":4,"componentType":5126,"count":24,"max":[0.0,0.6979993581771851,0.017999982461333275],"min":[-0.2994997203350067,0.0,-0.0],"type":"VEC3"},{"bufferView":5,"componentType":5126,"count":24,"max":[1.0,1.0,1.0],"min":[-1.0,-1.0,-1.0],"type":"VEC3"},{"bufferView":6,"componentType":5123,"count":72,"max":[47],"min":[0],"type":"SCALAR"},{"bufferView":7,"componentType":5126,"count":48,"max":[0.5999994277954102,0.06999993324279785,0.619999349117279],"min":[0.0,0.0,-0.0],"type":"VEC3"},{"bufferView":8,"componentType":5126,"count":48,"max":[0.0,1.0,1.0],"min":[-1.0,0.0,0.0],"type":"VEC3"},{"bufferView":9,"componentType":5123,"count":12288,"max":[2111],"min":[0],"type":"SCALAR"},{"bufferView":10,"componentType":5126,"count":2112,"max":[0.003984331618994474,0.07204795628786087,0.029606206342577934],"min":[-0.003984361421316862,-0.07204794138669968,-6.545277386749149e-08],"type":"VEC3"},{"bufferView":11,"componentType":5126,"count":2112,"max":[1.0,1.0,1.0],"min":[-1.0,-1.0,-1.0],"type":"VEC3"},{"bufferView":12,"componentType":5123,"count":36,"max":[23],"min":[0],"type":"SCALAR"},{"bufferView":13,"componentType":5126,"count":24,"max":[0.2994997203350067,0.6979993581771851,0.017999982461333275],"min":[0.0,0.0,-0.0],"type":"VEC3"},{"bufferView":14,"componentType":5126,"count":24,"max":[1.0,1.0,1.0],"min":[-1.0,-1.0,-1.0],"type":"VEC3"},{"bufferView":15,"componentType":5123,"count":120,"max":[77],"min":[0],"type":"SCALAR"},{"bufferView":16,"componentType":5126,"count":78,"max":[0.5999994277954102,0.6999993324279785,0.5899994373321533],"min":[0.0,0.0,-0.0],"type":"VEC3"},{"bufferView":17,"componentType":5126,"count":78,"max":[1.0,1.0,1.0],"min":[-1.0,-1.0,-1.0],"type":"VEC3"}],"asset":{"generator":"Khronos Blender glTF 2.0 exporter","version":"2.0"},"bufferViews":[{"buffer":0,"byteLength":24576,"byteOffset":0,"target":34963},{"buffer":0,"byteLength":25344,"byteOffset":24576,"target":34962},{"buffer":0,"byteLength":25344,"byteOffset":49920,"target":34962},{"buffer":0,"byteLength":72,"byteOffset":75264,"target":34963},{"buffer":0,"byteLength":288,"byteOffset":75336,"target":34962},{"buffer":0,"byteLength":288,"byteOffset":75624,"target":34962},{"buffer":0,"byteLength":144,"byteOffset":75912,"target":34963},{"buffer":0,"byteLength":576,"byteOffset":76056,"target":34962},{"buffer":0,"byteLength":576,"byteOffset":76632,"target":34962},{"buffer":0,"byteLength":24576,"byteOffset":77208,"target":34963},{"buffer":0,"byteLength":25344,"byteOffset":101784,"target":34962},{"buffer":0,"byteLength":25344,"byteOffset":127128,"target":34962},{"buffer":0,"byteLength":72,"byteOffset":152472,"target":34963},{"buffer":0,"byteLength":288,"byteOffset":152544,"target":34962},{"buffer":0,"byteLength":288,"byteOffset":152832,"target":34962},{"buffer":0,"byteLength":240,"byteOffset":153120,"target":34963},{"buffer":0,"byteLength":936,"byteOffset":153360,"target":34962},{"buffer":0,"byteLength":936,"byteOffset":154296,"target":34962}],"buffers":[{"byteLength":155232,"uri":"data:application/octet-stream;base64,"}],"extensionsRequired":["KHR_materials_pbrSpecularGlossiness"],"extensionsUsed":["KHR_materials_pbrSpecularGlossiness"],"materials":[{"extensions":{"KHR_materials_pbrSpecularGlossiness":{}},"name":"Door"},{"name":"DoorHandleMetal","pbrMetallicRoughness":{"metallicFactor":0.48181819915771484,"roughnessFactor":0.47272729873657227}},{"extensions":{"KHR_materials_pbrSpecularGlossiness":{}},"name":"Top"},{"extensions":{"KHR_materials_pbrSpecularGlossiness":{}},"name":"Wood"}],"meshes":[{"name":"Handle.001","primitives":[{"attributes":{"NORMAL":2,"POSITION":1},"indices":0,"material":1}]},{"name":"Cabinet1_Door_R","primitives":[{"attributes":{"NORMAL":5,"POSITION":4},"indices":3,"material":0}]},{"name":"Countertop1","primitives":[{"attributes":{"NORMAL":8,"POSITION":7},"indices":6,"material":2}]},{"name":"Handle","primitives":[{"attributes":{"NORMAL":11,"POSITION":10},"indices":9,"material":1}]},{"name":"Cabinet1_Door_L","primitives":[{"attributes":{"NORMAL":14,"POSITION":13},"indices":12,"material":0}]},{"name":"Cabinet1","primitives":[{"attributes":{"NORMAL":17,"POSITION":16},"indices":15,"material":3}]}],"nodes":[{"mesh":5,"name":"Cabinet1","translation":[-0.00022424757480621338,0.0012378767132759094,-0.001112528145313263]},{"mesh":4,"name":"Cabinet1_Door_L","translation":[-0.00022424757480621338,0.0012378767132759094,0.5898870825767517]},{"mesh":1,"name":"Cabinet1_Door_R","translation":[0.5997751951217651,0.0012378767132759094,0.5898870825767517]},{"mesh":2,"name":"Countertop1","translation":[-0.00022424757480621338,0.701237678527832,-0.001112528145313263]},{"mesh":3,"name":"HandleLeft","translation":[0.24519430100917816,0.5770111083984375,0.6078867316246033]},{"mesh":0,"name":"HandleRight","translation":[0.35435664653778076,0.5770111083984375,0.6078867316246033]}],"scene":0,"scenes":[{"name":"Scene","nodes":[0,2,5,1,4,3]}]}
