{
    "asset" : {
        "version" : "2.0",
        "generator" : "Khronos glTF Blender I/O v0.9.24"
    },
    "scene" : 0,
    "scenes" : [
        {
            "nodes" : [
                0
            ],
            "name" : "Scene"
        }
    ],
    "nodes" : [
        {
            "mesh" : 0,
            "name" : "ceilingFan"
        }
    ],
    "materials" : [
        {
            "pbrMetallicRoughness" : {
                "baseColorFactor" : [
                    0.9372549057006836,
                    0.9803921580314636,
                    0.95686274766922,
                    1
                ],
                "roughnessFactor" : 1,
                "metallicFactor" : 0
            },
            "emissiveFactor" : [
                0,
                0,
                0
            ],
            "name" : "metalLight"
        },
        {
            "pbrMetallicRoughness" : {
                "baseColorFactor" : [
                    1,
                    0.9137254953384399,
                    0.5882353186607361,
                    1
                ],
                "roughnessFactor" : 1,
                "metallicFactor" : 0
            },
            "emissiveFactor" : [
                0,
                0,
                0
            ],
            "name" : "lamp"
        },
        {
            "pbrMetallicRoughness" : {
                "baseColorFactor" : [
                    0.8962264060974121,
                    0.6015712022781372,
                    0.39315590262413025,
                    1
                ],
                "roughnessFactor" : 1,
                "metallicFactor" : 0
            },
            "emissiveFactor" : [
                0,
                0,
                0
            ],
            "name" : "wood"
        }
    ],
    "meshes" : [
        {
            "primitives" : [
                {
                    "indices" : 3,
                    "material" : 0,
                    "attributes" : {
                        "POSITION" : 0,
                        "NORMAL" : 1,
                        "TEXCOORD_0" : 2
                    }
                },
                {
                    "indices" : 7,
                    "material" : 1,
                    "attributes" : {
                        "POSITION" : 4,
                        "NORMAL" : 5,
                        "TEXCOORD_0" : 6
                    }
                },
                {
                    "indices" : 11,
                    "material" : 2,
                    "attributes" : {
                        "POSITION" : 8,
                        "NORMAL" : 9,
                        "TEXCOORD_0" : 10
                    }
                }
            ],
            "name" : "ceilingFan.001"
        }
    ],
    "accessors" : [
        {
            "bufferView" : 0,
            "type" : "VEC3",
            "max" : [
                32.68362045288086,
                5.664709874508844e-07,
                31.535146713256836
            ],
            "count" : 370,
            "min" : [
                -22.557498931884766,
                -40.11540985107422,
                -32.251800537109375
            ],
            "componentType" : 5126
        },
        {
            "count" : 370,
            "type" : "VEC3",
            "bufferView" : 1,
            "componentType" : 5126
        },
        {
            "count" : 370,
            "type" : "VEC2",
            "bufferView" : 2,
            "componentType" : 5126
        },
        {
            "count" : 384,
            "type" : "SCALAR",
            "bufferView" : 3,
            "componentType" : 5123
        },
        {
            "bufferView" : 4,
            "type" : "VEC3",
            "max" : [
                18.295242309570312,
                -20.479501724243164,
                20.76719856262207
            ],
            "count" : 76,
            "min" : [
                -18.295242309570312,
                -33.34440994262695,
                -21.483850479125977
            ],
            "componentType" : 5126
        },
        {
            "count" : 76,
            "type" : "VEC3",
            "bufferView" : 5,
            "componentType" : 5126
        },
        {
            "count" : 76,
            "type" : "VEC2",
            "bufferView" : 6,
            "componentType" : 5126
        },
        {
            "count" : 78,
            "type" : "SCALAR",
            "bufferView" : 7,
            "componentType" : 5123
        },
        {
            "bufferView" : 8,
            "type" : "VEC3",
            "max" : [
                84.84876251220703,
                -15.739792823791504,
                78.40423583984375
            ],
            "count" : 170,
            "min" : [
                -51.571998596191406,
                -20.479516983032227,
                -79.12088012695312
            ],
            "componentType" : 5126
        },
        {
            "count" : 170,
            "type" : "VEC3",
            "bufferView" : 9,
            "componentType" : 5126
        },
        {
            "count" : 170,
            "type" : "VEC2",
            "bufferView" : 10,
            "componentType" : 5126
        },
        {
            "count" : 180,
            "type" : "SCALAR",
            "bufferView" : 11,
            "componentType" : 5123
        }
    ],
    "bufferViews" : [
        {
            "byteLength" : 4440,
            "byteOffset" : 0,
            "buffer" : 0
        },
        {
            "byteLength" : 4440,
            "byteOffset" : 4440,
            "buffer" : 0
        },
        {
            "byteLength" : 2960,
            "byteOffset" : 8880,
            "buffer" : 0
        },
        {
            "byteLength" : 768,
            "byteOffset" : 11840,
            "buffer" : 0
        },
        {
            "byteLength" : 912,
            "byteOffset" : 12608,
            "buffer" : 0
        },
        {
            "byteLength" : 912,
            "byteOffset" : 13520,
            "buffer" : 0
        },
        {
            "byteLength" : 608,
            "byteOffset" : 14432,
            "buffer" : 0
        },
        {
            "byteLength" : 156,
            "byteOffset" : 15040,
            "buffer" : 0
        },
        {
            "byteLength" : 2040,
            "byteOffset" : 15196,
            "buffer" : 0
        },
        {
            "byteLength" : 2040,
            "byteOffset" : 17236,
            "buffer" : 0
        },
        {
            "byteLength" : 1360,
            "byteOffset" : 19276,
            "buffer" : 0
        },
        {
            "byteLength" : 360,
            "byteOffset" : 20636,
            "buffer" : 0
        }
    ],
    "buffers" : [
        {
            "uri" : "data:application/octet-stream;base64,",
            "byteLength" : 20996
        }
    ]
}
