# Created by Kenney (www.kenney.nl) 

mtllib cabinetBedDrawer.mtl 

g cabinetBedDrawer

v 7.219114E-16 0 0.205 
v -0.03 0 0.205 
v 7.219114E-16 0.2432 0.205 
v -0.03 0.03 0.205 
v -0.216 0.03 0.205 
v -0.246 0.2432 0.205 
v 0.01 0.2632 0.205 
v 0.01 0.2432 0.205 
v -0.256 0.2432 0.205 
v -0.256 0.2632 0.205 
v -0.246 1.127987E-17 0.205 
v -0.216 1.127987E-17 0.205 
v -0.246 1.127987E-17 0.175 
v -0.246 0.03 0.175 
v -0.246 0.03 0.03 
v -0.246 0.2432 1.082867E-15 
v -0.246 1.127987E-17 0.03 
v -0.246 1.127987E-17 1.082867E-15 
v -0.216 1.127987E-17 1.082867E-15 
v -0.2214 0.0546 7.219114E-16 
v -0.216 0.03 1.082867E-15 
v -0.0246 0.0546 0 
v -0.2214 0.1472728 1.082867E-15 
v -0.2214 0.1682094 1.082867E-15 
v -0.0246 0.1472728 3.609557E-16 
v -0.2214 0.2186 7.219114E-16 
v -0.0246 0.2186 0 
v 0 0.2432 0 
v 0 0 0 
v -0.03 0.03 0 
v -0.03 0 0 
v -0.0246 0.1682094 3.609557E-16 
v 0 0.03 0.03 
v 7.219114E-16 0.03 0.175 
v 7.219114E-16 0 0.175 
v 0 0 0.03 
v -0.2214 0.0546 0.164 
v -0.2214 0.1472728 0.164 
v -0.0246 0.2186 0.164 
v -0.0246 0.1682094 0.164 
v -0.0246 0.1686 0.164 
v -0.0246 0.0546 0.164 
v -0.2214 0.2186 0.164 
v 0.01 0.2632 -0.01 
v -0.256 0.2632 -0.01 
v 0.01 0.2432 -0.01 
v -0.256 0.2432 -0.01 
v -0.216 0.03 0.175 
v -0.216 0.03 0.03 
v -0.03 0.03 0.03 
v -0.03 0.03 0.175 
v -0.03 0 0.03 
v -0.216 1.127987E-17 0.03 
v -0.216 1.127987E-17 0.175 
v -0.03 0 0.175 
v -0.0246 0.1472728 0.164 
v -0.2214 0.1682094 0.164 
v -0.2214 0.1686 0.164 

vn 0 0 1 
vn -1 0 0 
vn 0 0 -1 
vn 1 0 0 
vn 0 1 0 
vn 0 -1 0 

vt -8.356293E-15 1.807032E-29 
vt -1.181102 1.807032E-29 
vt -8.356293E-15 9.574803 
vt -1.181102 1.181102 
vt -8.503937 1.181102 
vt -9.68504 9.574803 
vt 0.3937008 10.3622 
vt 0.3937008 9.574803 
vt -10.07874 9.574803 
vt -10.07874 10.3622 
vt -9.68504 4.440892E-16 
vt -8.503937 4.440892E-16 
vt 6.889764 -1.806996E-15 
vt 6.889764 1.181102 
vt 8.070867 -1.806996E-15 
vt 8.070867 9.574803 
vt 1.181102 1.181102 
vt -1.86285E-15 9.574803 
vt 1.181102 -1.806996E-15 
vt -1.86285E-15 -1.806996E-15 
vt 9.68504 4.440892E-16 
vt 8.503937 4.440892E-16 
vt 9.68504 9.574803 
vt 8.716536 2.149606 
vt 8.503937 1.181102 
vt 0.968504 2.149606 
vt 8.716536 5.798141 
vt 8.716536 6.622416 
vt 0.968504 5.798141 
vt 8.716536 8.606299 
vt 0.968504 8.606299 
vt 0 9.574803 
vt 0 0 
vt 1.181102 0 
vt 0.968504 6.622416 
vt -8.070867 9.574803 
vt -6.889764 1.181102 
vt -6.889764 0 
vt -8.070867 0 
vt -1.181102 0 
vt 2.753353E-15 2.149606 
vt -6.456693 2.149606 
vt -1.14575E-14 5.798141 
vt -6.456693 5.798141 
vt -3.959163E-15 8.606299 
vt 6.456693 8.606299 
vt 1.025169E-14 6.622416 
vt 6.456693 6.622416 
vt 6.456693 6.637795 
vt 0.968504 6.456693 
vt 8.716536 6.456693 
vt 0.968504 9.341444E-31 
vt 8.716536 2.842171E-14 
vt -0.968504 6.456693 
vt -0.968504 0 
vt -8.716536 6.456693 
vt -8.716536 2.842171E-14 
vt -0.3937008 8.070867 
vt 10.07874 8.070867 
vt -0.3937008 -0.3937008 
vt 10.07874 -0.3937008 
vt -0.3937008 9.574803 
vt -0.3937008 10.3622 
vt 10.07874 9.574803 
vt 10.07874 10.3622 
vt -8.070867 10.3622 
vt -9.68504 8.070867 
vt -9.68504 4.263256E-14 
vt -10.07874 8.070867 
vt -10.07874 -0.3937008 
vt -3.369936E-15 1.375637E-29 
vt 0.3937008 -0.3937008 
vt 2.505177E-14 8.070867 
vt 0.3937008 8.070867 
vt 8.070867 10.3622 
vt -8.503937 6.889764 
vt -9.68504 6.889764 
vt -9.68504 1.181102 
vt -8.503937 4.263256E-14 
vt -1.181102 2.811605E-31 
vt -8.503937 8.070867 
vt -1.181102 6.889764 
vt -1.181102 8.070867 
vt -6.347653E-17 1.181102 
vt 2.835823E-14 6.889764 
vt 0 1.181102 
vt -4.263256E-14 1.181102 
vt -4.263256E-14 4.440892E-16 
vt -1.181102 4.440892E-16 
vt 9.68504 1.181102 
vt -6.889764 4.440892E-16 
vt -8.070867 1.181102 
vt -8.070867 4.440892E-16 
vt 2.842171E-14 8.070867 
vt 2.842171E-14 6.889764 
vt 6.889764 0 
vt 8.070867 0 
vt 8.070867 1.181102 
vt -2.842171E-14 0 
vt -2.842171E-14 1.181102 
vt -0.968504 1.421085E-14 
vt -8.716536 4.263256E-14 
vt 0.968504 1.421085E-14 
vt 8.716536 4.263256E-14 
vt -3.996803E-15 2.149606 
vt 1.021405E-14 5.798141 
vt 6.456693 2.149606 
vt 6.456693 5.798141 
vt 3.092114E-15 8.606299 
vt -1.111874E-14 6.622416 
vt -6.456693 8.606299 
vt -6.456693 6.637795 
vt -6.456693 6.622416 

usemtl wood

f 2/2/1 1/1/1 3/3/1 
f 3/3/1 4/4/1 2/2/1 
f 3/3/1 5/5/1 4/4/1 
f 5/5/1 3/3/1 6/6/1 
f 7/7/1 6/6/1 3/3/1 
f 3/3/1 8/8/1 7/7/1 
f 7/7/1 9/9/1 6/6/1 
f 7/7/1 10/10/1 9/9/1 
f 5/5/1 6/6/1 11/11/1 
f 11/11/1 12/12/1 5/5/1 
f 14/14/2 13/13/2 11/15/2 
f 14/14/2 11/15/2 6/16/2 
f 15/17/2 14/14/2 6/16/2 
f 15/17/2 6/16/2 16/18/2 
f 17/19/2 15/17/2 16/18/2 
f 16/18/2 18/20/2 17/19/2 
f 19/22/3 18/21/3 16/23/3 
f 16/23/3 20/24/3 19/22/3 
f 20/24/3 21/25/3 19/22/3 
f 20/24/3 22/26/3 21/25/3 
f 16/23/3 23/27/3 20/24/3 
f 16/23/3 24/28/3 23/27/3 
f 24/28/3 25/29/3 23/27/3 
f 16/23/3 26/30/3 24/28/3 
f 16/23/3 27/31/3 26/30/3 
f 16/23/3 28/32/3 27/31/3 
f 22/26/3 25/29/3 28/32/3 
f 22/26/3 28/32/3 29/33/3 
f 30/17/3 22/26/3 29/33/3 
f 30/17/3 21/25/3 22/26/3 
f 29/33/3 31/34/3 30/17/3 
f 25/29/3 32/35/3 28/32/3 
f 25/29/3 24/28/3 32/35/3 
f 32/35/3 27/31/3 28/32/3 
f 29/33/4 28/32/4 3/36/4 
f 3/36/4 33/4/4 29/33/4 
f 3/36/4 34/37/4 33/4/4 
f 3/36/4 35/38/4 34/37/4 
f 3/36/4 1/39/4 35/38/4 
f 29/33/4 33/4/4 36/40/4 
f 37/42/4 20/41/4 23/43/4 
f 23/43/4 38/44/4 37/42/4 
f 39/46/2 27/45/2 32/47/2 
f 32/47/2 40/48/2 39/46/2 
f 40/48/2 41/49/2 39/46/2 
f 37/51/5 42/50/5 22/52/5 
f 22/52/5 20/53/5 37/51/5 
f 27/55/6 39/54/6 43/56/6 
f 43/56/6 26/57/6 27/55/6 
f 10/59/5 7/58/5 44/60/5 
f 44/60/5 45/61/5 10/59/5 
f 44/63/3 46/62/3 47/64/3 
f 47/64/3 45/65/3 44/63/3 
f 46/8/4 44/7/4 7/66/4 
f 7/66/4 8/36/4 46/8/4 
f 16/68/6 6/67/6 9/69/6 
f 16/68/6 9/69/6 47/70/6 
f 28/71/6 16/68/6 47/70/6 
f 28/71/6 47/70/6 46/72/6 
f 3/73/6 28/71/6 46/72/6 
f 46/72/6 8/74/6 3/73/6 
f 45/63/2 47/62/2 9/16/2 
f 9/16/2 10/75/2 45/63/2 
f 49/5/6 48/76/6 14/77/6 
f 14/77/6 15/78/6 49/5/6 
f 48/76/6 49/5/6 21/79/6 
f 48/76/6 21/79/6 30/80/6 
f 5/81/6 48/76/6 30/80/6 
f 5/81/6 30/80/6 50/4/6 
f 5/81/6 50/4/6 51/82/6 
f 51/82/6 4/83/6 5/81/6 
f 51/82/6 50/4/6 33/84/6 
f 33/84/6 34/85/6 51/82/6 
f 29/33/6 36/86/6 52/4/6 
f 52/4/6 31/40/6 29/33/6 
f 52/40/1 36/33/1 33/86/1 
f 33/86/1 50/4/1 52/40/1 
f 30/86/2 31/33/2 52/34/2 
f 52/34/2 50/17/2 30/86/2 
f 19/79/6 53/5/6 17/78/6 
f 17/78/6 18/68/6 19/79/6 
f 17/11/1 53/12/1 49/5/1 
f 49/5/1 15/78/1 17/11/1 
f 19/88/4 21/87/4 49/4/4 
f 49/4/4 53/89/4 19/88/4 
f 54/76/6 12/81/6 11/67/6 
f 11/67/6 13/77/6 54/76/6 
f 54/22/3 13/21/3 14/90/3 
f 14/90/3 48/25/3 54/22/3 
f 54/91/4 48/37/4 5/92/4 
f 5/92/4 12/93/4 54/91/4 
f 35/95/6 1/94/6 2/83/6 
f 2/83/6 55/82/6 35/95/6 
f 51/14/2 55/96/2 2/97/2 
f 2/97/2 4/98/2 51/14/2 
f 35/99/3 55/34/3 51/17/3 
f 51/17/3 34/100/3 35/99/3 
f 56/29/3 42/26/3 37/24/3 
f 37/24/3 38/27/3 56/29/3 
f 25/101/6 56/54/6 38/56/6 
f 38/56/6 23/102/6 25/101/6 
f 57/51/5 40/50/5 32/103/5 
f 32/103/5 24/104/5 57/51/5 
f 25/106/2 22/105/2 42/107/2 
f 42/107/2 56/108/2 25/106/2 
f 24/110/4 26/109/4 43/111/4 
f 43/111/4 58/112/4 24/110/4 
f 24/110/4 58/112/4 57/113/4 

usemtl _defaultMat

f 40/24/3 57/27/3 58/29/3 
f 58/24/3 41/27/3 40/29/3 
f 41/24/3 58/27/3 43/29/3 
f 43/24/3 39/27/3 41/29/3 
g cabinetBedDrawer




usemtl wood

f 2/2/1 1/1/1 3/3/1 
f 3/3/1 4/4/1 2/2/1 
f 3/3/1 5/5/1 4/4/1 
f 5/5/1 3/3/1 6/6/1 
f 7/7/1 6/6/1 3/3/1 
f 3/3/1 8/8/1 7/7/1 
f 7/7/1 9/9/1 6/6/1 
f 7/7/1 10/10/1 9/9/1 
f 5/5/1 6/6/1 11/11/1 
f 11/11/1 12/12/1 5/5/1 
f 14/14/2 13/13/2 11/15/2 
f 14/14/2 11/15/2 6/16/2 
f 15/17/2 14/14/2 6/16/2 
f 15/17/2 6/16/2 16/18/2 
f 17/19/2 15/17/2 16/18/2 
f 16/18/2 18/20/2 17/19/2 
f 19/22/3 18/21/3 16/23/3 
f 16/23/3 20/24/3 19/22/3 
f 20/24/3 21/25/3 19/22/3 
f 20/24/3 22/26/3 21/25/3 
f 16/23/3 23/27/3 20/24/3 
f 16/23/3 24/28/3 23/27/3 
f 24/28/3 25/29/3 23/27/3 
f 16/23/3 26/30/3 24/28/3 
f 16/23/3 27/31/3 26/30/3 
f 16/23/3 28/32/3 27/31/3 
f 22/26/3 25/29/3 28/32/3 
f 22/26/3 28/32/3 29/33/3 
f 30/17/3 22/26/3 29/33/3 
f 30/17/3 21/25/3 22/26/3 
f 29/33/3 31/34/3 30/17/3 
f 25/29/3 32/35/3 28/32/3 
f 25/29/3 24/28/3 32/35/3 
f 32/35/3 27/31/3 28/32/3 
f 29/33/4 28/32/4 3/36/4 
f 3/36/4 33/4/4 29/33/4 
f 3/36/4 34/37/4 33/4/4 
f 3/36/4 35/38/4 34/37/4 
f 3/36/4 1/39/4 35/38/4 
f 29/33/4 33/4/4 36/40/4 
f 37/42/4 20/41/4 23/43/4 
f 23/43/4 38/44/4 37/42/4 
f 39/46/2 27/45/2 32/47/2 
f 32/47/2 40/48/2 39/46/2 
f 40/48/2 41/49/2 39/46/2 
f 37/51/5 42/50/5 22/52/5 
f 22/52/5 20/53/5 37/51/5 
f 27/55/6 39/54/6 43/56/6 
f 43/56/6 26/57/6 27/55/6 
f 10/59/5 7/58/5 44/60/5 
f 44/60/5 45/61/5 10/59/5 
f 44/63/3 46/62/3 47/64/3 
f 47/64/3 45/65/3 44/63/3 
f 46/8/4 44/7/4 7/66/4 
f 7/66/4 8/36/4 46/8/4 
f 16/68/6 6/67/6 9/69/6 
f 16/68/6 9/69/6 47/70/6 
f 28/71/6 16/68/6 47/70/6 
f 28/71/6 47/70/6 46/72/6 
f 3/73/6 28/71/6 46/72/6 
f 46/72/6 8/74/6 3/73/6 
f 45/63/2 47/62/2 9/16/2 
f 9/16/2 10/75/2 45/63/2 
f 49/5/6 48/76/6 14/77/6 
f 14/77/6 15/78/6 49/5/6 
f 48/76/6 49/5/6 21/79/6 
f 48/76/6 21/79/6 30/80/6 
f 5/81/6 48/76/6 30/80/6 
f 5/81/6 30/80/6 50/4/6 
f 5/81/6 50/4/6 51/82/6 
f 51/82/6 4/83/6 5/81/6 
f 51/82/6 50/4/6 33/84/6 
f 33/84/6 34/85/6 51/82/6 
f 29/33/6 36/86/6 52/4/6 
f 52/4/6 31/40/6 29/33/6 
f 52/40/1 36/33/1 33/86/1 
f 33/86/1 50/4/1 52/40/1 
f 30/86/2 31/33/2 52/34/2 
f 52/34/2 50/17/2 30/86/2 
f 19/79/6 53/5/6 17/78/6 
f 17/78/6 18/68/6 19/79/6 
f 17/11/1 53/12/1 49/5/1 
f 49/5/1 15/78/1 17/11/1 
f 19/88/4 21/87/4 49/4/4 
f 49/4/4 53/89/4 19/88/4 
f 54/76/6 12/81/6 11/67/6 
f 11/67/6 13/77/6 54/76/6 
f 54/22/3 13/21/3 14/90/3 
f 14/90/3 48/25/3 54/22/3 
f 54/91/4 48/37/4 5/92/4 
f 5/92/4 12/93/4 54/91/4 
f 35/95/6 1/94/6 2/83/6 
f 2/83/6 55/82/6 35/95/6 
f 51/14/2 55/96/2 2/97/2 
f 2/97/2 4/98/2 51/14/2 
f 35/99/3 55/34/3 51/17/3 
f 51/17/3 34/100/3 35/99/3 
f 56/29/3 42/26/3 37/24/3 
f 37/24/3 38/27/3 56/29/3 
f 25/101/6 56/54/6 38/56/6 
f 38/56/6 23/102/6 25/101/6 
f 57/51/5 40/50/5 32/103/5 
f 32/103/5 24/104/5 57/51/5 
f 25/106/2 22/105/2 42/107/2 
f 42/107/2 56/108/2 25/106/2 
f 24/110/4 26/109/4 43/111/4 
f 43/111/4 58/112/4 24/110/4 
f 24/110/4 58/112/4 57/113/4 

usemtl _defaultMat

f 40/24/3 57/27/3 58/29/3 
f 58/24/3 41/27/3 40/29/3 
f 41/24/3 58/27/3 43/29/3 
f 43/24/3 39/27/3 41/29/3 
g door

v -0.0246 0.1472728 0.0123 
v -0.0246 0.1472728 0.0287 
v -0.2214 0.1472728 0.0123 
v -0.2214 0.1472728 0.0287 
v -0.2214 0.0546 0.0123 
v -0.2214 0.0546 0.0287 
v -0.0246 0.0546 0.0123 
v -0.0246 0.0546 0.0287 
v -0.2009 0.07909898 0.0123 
v -0.2009 0.124699 0.0123 
v -0.1804 0.124699 0.0123 
v -0.1804 0.07909898 0.0123 
v -0.19885 0.08565898 0 
v -0.18245 0.08565898 0 
v -0.19885 0.118139 0 
v -0.18245 0.118139 0 

vn 0.986394 0 -0.164399 
vn 0 -0.8823529 -0.4705883 
vn 0 0.8823529 -0.4705883 
vn -0.986394 0 -0.164399 

vt 4.164627E-14 1.658724E-25 
vt 4.821828E-13 0.6456693 
vt 7.748032 -5.442757E-12 
vt 7.748032 0.6456693 
vt 3.552714E-13 7.81597E-15 
vt 3.552714E-13 3.648535 
vt 0.6456693 7.81597E-15 
vt 0.6456693 3.648535 
vt -7.748032 -5.442757E-12 
vt -4.689582E-13 0.6456693 
vt -7.748032 0.6456693 
vt 6.940945 0.9645272 
vt 7.748032 -4.867218E-13 
vt 7.748032 3.648535 
vt 6.940945 2.759803 
vt 6.133858 2.759803 
vt 6.133858 0.9645272 
vt 2.700062E-13 3.648535 
vt -1.901664E-25 3.648535 
vt -0.6456693 3.648535 
vt -0.6456693 9.539599E-28 
vt 6.860236 1.222795 
vt 6.214567 1.222795 
vt 6.860236 2.501535 
vt 6.214567 2.501535 
vt 1.499332 2.501535 
vt 1.499332 1.222795 
vt 1.0084 2.759803 
vt 1.0084 0.9645272 
vt 6.133858 0.4538952 
vt 6.214567 1.002714 
vt 6.940945 0.4538952 
vt 6.860236 1.002714 
vt 6.133858 1.298731 
vt 6.940945 1.298731 
vt 6.214567 0.7499118 
vt 6.860236 0.7499118 
vt 0.6501527 2.501535 
vt 1.141084 2.759803 
vt 0.6501527 1.222795 
vt 1.141084 0.9645272 

usemtl wood

f 60/115/5 59/114/5 61/116/5 
f 61/116/5 62/117/5 60/115/5 
f 61/119/2 63/118/2 64/120/2 
f 64/120/2 62/121/2 61/119/2 
f 63/122/6 65/33/6 66/123/6 
f 66/123/6 64/124/6 63/122/6 
f 67/125/3 65/33/3 63/126/3 
f 63/126/3 61/127/3 67/125/3 
f 61/127/3 68/128/3 67/125/3 
f 61/127/3 69/129/3 68/128/3 
f 65/33/3 67/125/3 70/130/3 
f 70/130/3 59/131/3 65/33/3 
f 70/130/3 69/129/3 59/131/3 
f 69/129/3 61/127/3 59/131/3 
f 65/33/4 59/132/4 60/133/4 
f 60/133/4 66/134/4 65/33/4 

usemtl metal

f 72/136/3 71/135/3 73/137/3 
f 73/137/3 74/138/3 72/136/3 
f 72/140/7 74/139/7 69/141/7 
f 69/141/7 70/142/7 72/140/7 
f 72/144/8 70/143/8 67/145/8 
f 67/145/8 71/146/8 72/144/8 
f 68/148/9 69/147/9 74/149/9 
f 74/149/9 73/150/9 68/148/9 
f 68/152/10 73/151/10 71/153/10 
f 71/153/10 67/154/10 68/152/10 
g drawer

v -0.0246 0.1686 0.164 
v -0.2214 0.1686 0.164 
v -0.0246 0.2186 0.164 
v -0.2214 0.2186 0.164 
v -0.0246 0.1686 0 
v -0.1458 0.18335 0 
v -0.2214 0.1686 0 
v -0.2214 0.2186 0 
v -0.1458 0.20385 0 
v -0.1002 0.20385 0 
v -0.1002 0.18335 0 
v -0.0246 0.2186 0 
v -0.04492898 0.2186 0.143671 
v -0.04492898 0.2186 0.02032898 
v -0.201071 0.2186 0.02032898 
v -0.201071 0.2186 0.143671 
v -0.04492898 0.1786 0.143671 
v -0.201071 0.1786 0.143671 
v -0.04492898 0.1786 0.02032898 
v -0.201071 0.1786 0.02032898 
v -0.10676 0.1854 -0.0123 
v -0.10676 0.2018 -0.0123 
v -0.13924 0.1854 -0.0123 
v -0.13924 0.2018 -0.0123 

vn 0.8823529 0 -0.4705883 
vn -0.8823529 0 -0.4705883 
vn 0 0.986394 -0.164399 
vn 0 -0.986394 -0.164399 

vt 0 0.01537871 
vt -7.748032 0.01537871 
vt 0 1.983883 
vt -7.748032 1.983883 
vt 1.184238E-15 0.01537871 
vt 4.771654 0.5960874 
vt 7.748032 0.01537871 
vt 7.748032 1.983883 
vt 4.771654 1.403174 
vt 2.976378 1.403174 
vt 2.976378 0.5960874 
vt 1.184238E-15 1.983883 
vt 6.456693 1.983883 
vt 6.456693 0.01537871 
vt -2.4869E-14 -6.456693 
vt -7.748032 2.842171E-14 
vt -7.748032 -6.456693 
vt -6.456693 0.01537871 
vt -6.456693 1.983883 
vt -1.421085E-15 0.01537871 
vt -1.421085E-15 1.983883 
vt 0.8003536 -0.8003536 
vt 0.8003536 -5.656339 
vt 2.4869E-14 -6.456693 
vt 7.748032 -6.456693 
vt 6.947678 -5.656339 
vt 7.748032 2.842171E-14 
vt 6.947678 -0.8003536 
vt 5.656339 1.983883 
vt 5.656339 0.4090795 
vt 0.8003536 1.983883 
vt 0.8003536 0.4090795 
vt 6.947678 0.4090795 
vt 6.947678 1.983883 
vt -5.656339 0.4090795 
vt -5.656339 1.983883 
vt -0.8003536 0.4090795 
vt -0.8003536 1.983883 
vt -6.947678 0.4090795 
vt -6.947678 1.983883 
vt 7.646549 0.676796 
vt 7.097731 0.5960873 
vt 7.646549 1.322465 
vt 7.097731 1.403174 
vt -4.000417 0.676796 
vt -4.000417 1.322465 
vt -3.451598 0.5960873 
vt -3.451598 1.403174 
vt 2.976378 -6.138162 
vt 4.771654 -6.138162 
vt 3.234646 -6.629094 
vt 4.513386 -6.629094 
vt 2.976378 6.466839 
vt 3.234646 6.95777 
vt 4.771654 6.466839 
vt 4.513386 6.95777 
vt 4.513386 0.676796 
vt 3.234646 0.676796 
vt 4.513386 1.322465 
vt 3.234646 1.322465 

usemtl wood

f 76/156/1 75/155/1 77/157/1 
f 77/157/1 78/158/1 76/156/1 
f 80/160/3 79/159/3 81/161/3 
f 81/161/3 82/162/3 80/160/3 
f 82/162/3 83/163/3 80/160/3 
f 82/162/3 84/164/3 83/163/3 
f 79/159/3 80/160/3 85/165/3 
f 85/165/3 86/166/3 79/159/3 
f 85/165/3 84/164/3 86/166/3 
f 84/164/3 82/162/3 86/166/3 
f 79/168/4 86/167/4 77/157/4 
f 77/157/4 75/155/4 79/168/4 
f 79/169/6 75/33/6 76/170/6 
f 76/170/6 81/171/6 79/169/6 
f 82/173/2 81/172/2 76/174/2 
f 76/174/2 78/175/2 82/173/2 
f 88/177/5 87/176/5 86/178/5 
f 86/178/5 82/179/5 88/177/5 
f 82/179/5 89/180/5 88/177/5 
f 82/179/5 78/181/5 89/180/5 
f 87/176/5 78/181/5 77/33/5 
f 77/33/5 86/178/5 87/176/5 
f 87/176/5 90/182/5 78/181/5 
f 90/182/5 89/180/5 78/181/5 
f 92/182/5 91/176/5 93/177/5 
f 93/177/5 94/180/5 92/182/5 
f 94/184/4 89/183/4 90/185/4 
f 90/185/4 92/186/4 94/184/4 
f 91/186/3 92/187/3 90/188/3 
f 90/188/3 87/185/3 91/186/3 
f 88/190/2 93/189/2 91/191/2 
f 91/191/2 87/192/2 88/190/2 
f 94/193/1 93/191/1 88/192/1 
f 88/192/1 89/194/1 94/193/1 

usemtl metal

f 85/196/11 95/195/11 96/197/11 
f 96/197/11 84/198/11 85/196/11 
f 98/200/12 97/199/12 80/201/12 
f 80/201/12 83/202/12 98/200/12 
f 83/204/13 84/203/13 96/205/13 
f 96/205/13 98/206/13 83/204/13 
f 95/208/14 85/207/14 80/209/14 
f 80/209/14 97/210/14 95/208/14 
f 95/212/3 97/211/3 98/213/3 
f 98/213/3 96/214/3 95/212/3 
