# Created by Kenney (www.kenney.nl) 

mtllib cabinetTelevision.mtl 

g cabinetTelevision

v 0 3.38396E-17 0.04 
v -0.04 3.38396E-17 0.04 
v 0 0.04 0.04 
v -0.04 0.04 0.04 
v -0.04 0 0 
v -0.04 0.04 0 
v 0 0 0 
v 0 2.594369E-16 0.25 
v 0 2.143175E-16 0.21 
v -0.04 2.594369E-16 0.25 
v -0.04 2.143175E-16 0.21 
v -0.04 0.04 0.21 
v -0.04 0.04 0.25 
v -0.04 0.27 0.21 
v -0.04 0.27 0 
v -0.76 0.27 0.21 
v -0.39 0.27 0.05 
v -0.41 0.27 0.05 
v -0.41 0.27 0.03 
v -0.39 0.27 0.03 
v -0.76 0.27 0 
v -0.04 0.08 0.21 
v -0.39 0.08 0.03 
v -0.04 0.08 0 
v -0.76 0.08 0 
v -0.41 0.08 0.03 
v -0.41 0.08 0.05 
v -0.39 0.08 0.05 
v -0.76 0.08 0.21 
v 0 0.04 0.21 
v -0.76 5.639933E-17 0.04 
v -0.76 5.639933E-17 3.609557E-16 
v -0.8 5.639933E-17 0.04 
v -0.8 5.639933E-17 3.609557E-16 
v -0.76 0.04 0.04 
v -0.8 0.04 0.04 
v -0.76 0.04 0.21 
v -0.76 2.368772E-16 0.21 
v -0.76 0.04 0.25 
v -0.76 2.368772E-16 0.25 
v -0.8 2.368772E-16 0.21 
v -0.8 0.04 0.21 
v -0.8 2.368772E-16 0.25 
v 0 0.31 0 
v 0 0.31 0.25 
v -0.8 0.31 0 
v -0.8 0.31 0.25 
v -0.76 0.04 0 
v -0.04 0.165 0.21 
v -0.04 0.165 0.03 
v -0.76 0.165 0.21 
v -0.39 0.165 0.05 
v -0.41 0.165 0.05 
v -0.41 0.165 0.03 
v -0.76 0.165 0.03 
v -0.39 0.165 0.03 
v -0.41 0.185 0.03 
v -0.41 0.185 0.05 
v -0.76 0.185 0.03 
v -0.76 0.185 0.21 
v -0.39 0.185 0.05 
v -0.04 0.185 0.21 
v -0.39 0.185 0.03 
v -0.04 0.185 0.03 

vn 0 0 1 
vn -1 0 0 
vn 0 -1 0 
vn 0 1 0 
vn 0 0 -1 
vn 1 0 0 

vt 0 -1.972152E-31 
vt -1.574803 -1.972152E-31 
vt 0 1.574803 
vt -1.574803 1.574803 
vt 0 0 
vt 1.574803 1.332268E-15 
vt 1.574803 1.574803 
vt -1.574803 0 
vt 0 9.84252 
vt 0 8.267716 
vt -1.574803 9.84252 
vt -1.574803 8.267716 
vt 8.267716 1.574803 
vt 9.84252 1.574803 
vt 8.267716 8.437695E-15 
vt 9.84252 1.021405E-14 
vt -29.92126 8.267716 
vt -15.35433 1.968504 
vt -16.14173 1.968504 
vt -16.14173 1.181102 
vt -15.35433 1.181102 
vt -29.92126 0 
vt 1.574803 8.267716 
vt 15.35433 1.181102 
vt 1.574803 0 
vt 29.92126 0 
vt 16.14173 1.181102 
vt 16.14173 1.968504 
vt 15.35433 1.968504 
vt 29.92126 8.267716 
vt 1.574803 1.44329E-15 
vt 0 1.44329E-15 
vt -29.92126 1.574803 
vt -29.92126 1.421085E-14 
vt -31.49606 1.574803 
vt -31.49606 1.421085E-14 
vt -29.92126 8.881784E-16 
vt -31.49606 8.881784E-16 
vt -8.267716 1.574803 
vt -8.267716 9.325873E-15 
vt -9.84252 1.574803 
vt -9.84252 9.325873E-15 
vt 31.49606 2.331468E-15 
vt 29.92126 2.331468E-15 
vt 31.49606 1.574803 
vt 29.92126 1.574803 
vt -29.92126 9.84252 
vt -31.49606 9.84252 
vt -31.49606 8.267716 
vt 31.49606 0 
vt 31.49606 9.84252 
vt 0 12.20472 
vt -9.84252 12.20472 
vt -8.267716 8.437695E-15 
vt -9.84252 1.021405E-14 
vt -1.574803 1.332268E-15 
vt 0 1.021405E-14 
vt -1.574803 1.021405E-14 
vt -31.49606 12.20472 
vt -31.49606 9.325873E-15 
vt -29.92126 9.325873E-15 
vt 1.421085E-14 2.220446E-15 
vt 1.574803 2.220446E-15 
vt 9.84252 12.20472 
vt 8.267716 9.325873E-15 
vt 9.84252 9.325873E-15 
vt 31.49606 2.220446E-15 
vt 29.92126 2.220446E-15 
vt 31.49606 12.20472 
vt 29.92126 3.149606 
vt 29.92126 10.62992 
vt 1.574803 10.62992 
vt 1.574803 3.149606 
vt 1.574803 4.17911E-32 
vt -1.574803 1.181102 
vt -29.92126 1.181102 
vt 29.92126 1.181102 
vt 1.574803 1.181102 
vt 29.92126 7.283464 
vt 1.574803 7.283464 
vt 29.92126 6.496063 
vt 1.574803 6.496063 
vt -29.92126 -3.012276E-16 
vt -1.574803 -3.012276E-16 
vt -8.235142E-34 1.574803 
vt -8.235142E-34 8.267716 
vt -1.421085E-14 2.220446E-15 
vt -1.574803 2.220446E-15 
vt -15.35433 7.283464 
vt -16.14173 7.283464 
vt -15.35433 10.62992 
vt -16.14173 10.62992 
vt -29.92126 7.283464 
vt -1.574803 7.283464 
vt -29.92126 6.496063 
vt -16.14173 6.496063 
vt -15.35433 6.496063 
vt -1.574803 6.496063 
vt -15.35433 3.149606 
vt -16.14173 3.149606 
vt 0 10.62992 
vt 1.181102 6.496063 
vt 0 3.149606 
vt 8.267716 3.149606 
vt 8.267716 6.496063 
vt 1.181102 7.283464 
vt 8.267716 10.62992 
vt 8.267716 7.283464 
vt -1.181102 7.283464 
vt -8.267716 10.62992 
vt -8.267716 7.283464 
vt -1.181102 6.496063 
vt -8.267716 3.149606 
vt -8.267716 6.496063 
vt 1.181102 10.62992 
vt 1.968504 7.283464 
vt 1.968504 10.62992 
vt -1.181102 10.62992 
vt -1.968504 10.62992 
vt -1.968504 7.283464 
vt -1.181102 3.149606 
vt -1.968504 6.496063 
vt -1.968504 3.149606 
vt 1.181102 3.149606 
vt 1.968504 3.149606 
vt 1.968504 6.496063 

usemtl wood

f 2/2/1 1/1/1 3/3/1 
f 3/3/1 4/4/1 2/2/1 
f 6/3/2 5/5/2 2/6/2 
f 2/6/2 4/7/2 6/3/2 
f 7/5/3 1/3/3 2/4/3 
f 2/4/3 5/8/3 7/5/3 
f 9/10/3 8/9/3 10/11/3 
f 10/11/3 11/12/3 9/10/3 
f 13/14/2 12/13/2 11/15/2 
f 11/15/2 10/16/2 13/14/2 
f 15/8/3 14/12/3 16/17/3 
f 16/17/3 17/18/3 15/8/3 
f 16/17/3 18/19/3 17/18/3 
f 16/17/3 19/20/3 18/19/3 
f 15/8/3 17/18/3 20/21/3 
f 20/21/3 21/22/3 15/8/3 
f 20/21/3 19/20/3 21/22/3 
f 19/20/3 16/17/3 21/22/3 
f 23/24/4 22/23/4 24/25/4 
f 24/25/4 25/26/4 23/24/4 
f 25/26/4 26/27/4 23/24/4 
f 25/26/4 27/28/4 26/27/4 
f 22/23/4 23/24/4 28/29/4 
f 28/29/4 29/30/4 22/23/4 
f 28/29/4 27/28/4 29/30/4 
f 27/28/4 25/26/4 29/30/4 
f 9/32/5 11/31/5 12/7/5 
f 12/7/5 30/3/5 9/32/5 
f 32/34/3 31/33/3 33/35/3 
f 33/35/3 34/36/3 32/34/3 
f 33/38/1 31/37/1 35/33/1 
f 35/33/1 36/35/1 33/38/1 
f 38/40/6 37/39/6 39/41/6 
f 39/41/6 40/42/6 38/40/6 
f 38/44/5 41/43/5 42/45/5 
f 42/45/5 37/46/5 38/44/5 
f 38/17/3 40/47/3 43/48/3 
f 43/48/3 41/49/3 38/17/3 
f 45/9/4 44/5/4 46/50/4 
f 46/50/4 47/51/4 45/9/4 
f 7/5/6 44/52/6 45/53/6 
f 45/53/6 3/4/6 7/5/6 
f 45/53/6 30/39/6 3/4/6 
f 45/53/6 9/54/6 30/39/6 
f 45/53/6 8/55/6 9/54/6 
f 7/5/6 3/4/6 1/56/6 
f 10/58/1 8/57/1 45/52/1 
f 45/52/1 13/4/1 10/58/1 
f 45/52/1 39/33/1 13/4/1 
f 39/33/1 45/52/1 47/59/1 
f 39/33/1 47/59/1 43/60/1 
f 43/60/1 40/61/1 39/33/1 
f 36/7/2 34/62/2 33/63/2 
f 34/62/2 36/7/2 47/64/2 
f 47/64/2 46/52/2 34/62/2 
f 36/7/2 42/13/2 47/64/2 
f 42/13/2 41/65/2 47/64/2 
f 41/65/2 43/66/2 47/64/2 
f 32/68/5 34/67/5 46/69/5 
f 46/69/5 48/46/5 32/68/5 
f 46/69/5 25/70/5 48/46/5 
f 25/70/5 6/7/5 48/46/5 
f 46/69/5 21/71/5 25/70/5 
f 46/69/5 15/72/5 21/71/5 
f 6/7/5 25/70/5 24/73/5 
f 6/7/5 24/73/5 44/52/5 
f 24/73/5 15/72/5 44/52/5 
f 15/72/5 46/69/5 44/52/5 
f 6/7/5 44/52/5 7/5/5 
f 7/5/5 5/74/5 6/7/5 
f 50/75/3 49/12/3 51/17/3 
f 51/17/3 52/18/3 50/75/3 
f 51/17/3 53/19/3 52/18/3 
f 51/17/3 54/20/3 53/19/3 
f 51/17/3 55/76/3 54/20/3 
f 50/75/3 52/18/3 56/21/3 
f 58/28/4 57/27/4 59/77/4 
f 58/28/4 59/77/4 60/30/4 
f 61/29/4 58/28/4 60/30/4 
f 61/29/4 60/30/4 62/23/4 
f 63/24/4 61/29/4 62/23/4 
f 62/23/4 64/78/4 63/24/4 
f 62/80/5 60/79/5 16/71/5 
f 16/71/5 14/72/5 62/80/5 
f 22/73/5 29/70/5 51/81/5 
f 51/81/5 49/82/5 22/73/5 
f 35/33/3 37/17/3 42/49/3 
f 42/49/3 36/35/3 35/33/3 
f 37/17/3 35/33/3 48/83/3 
f 39/47/3 37/17/3 48/83/3 
f 39/47/3 48/83/3 6/84/3 
f 39/47/3 6/84/3 4/4/3 
f 39/47/3 4/4/3 12/12/3 
f 12/12/3 13/11/3 39/47/3 
f 12/12/3 4/4/3 3/85/3 
f 3/85/3 30/86/3 12/12/3 
f 32/87/6 48/3/6 35/4/6 
f 35/4/6 31/88/6 32/87/6 
f 57/90/1 63/89/1 20/91/1 
f 20/91/1 19/92/1 57/90/1 
f 63/89/1 57/90/1 59/93/1 
f 64/94/1 63/89/1 59/93/1 
f 64/94/1 59/93/1 55/95/1 
f 64/94/1 55/95/1 54/96/1 
f 64/94/1 54/96/1 56/97/1 
f 56/97/1 50/98/1 64/94/1 
f 23/99/1 56/97/1 54/96/1 
f 54/96/1 26/100/1 23/99/1 
f 57/90/5 20/91/5 63/89/5 
f 20/91/5 57/90/5 19/92/5 
f 63/89/5 59/93/5 57/90/5 
f 64/94/5 59/93/5 63/89/5 
f 64/94/5 55/95/5 59/93/5 
f 64/94/5 54/96/5 55/95/5 
f 64/94/5 56/97/5 54/96/5 
f 56/97/5 64/94/5 50/98/5 
f 23/99/5 54/96/5 56/97/5 
f 54/96/5 23/99/5 26/100/5 
f 50/102/2 15/101/2 24/103/2 
f 24/103/2 22/104/2 50/102/2 
f 22/104/2 49/105/2 50/102/2 
f 15/101/2 50/102/2 64/106/2 
f 64/106/2 14/107/2 15/101/2 
f 64/106/2 62/108/2 14/107/2 
f 59/109/6 25/103/6 21/101/6 
f 21/101/6 16/110/6 59/109/6 
f 16/110/6 60/111/6 59/109/6 
f 25/103/6 59/109/6 55/112/6 
f 55/112/6 29/113/6 25/103/6 
f 55/112/6 51/114/6 29/113/6 
f 58/90/1 61/89/1 17/91/1 
f 17/91/1 18/92/1 58/90/1 
f 58/90/5 17/91/5 61/89/5 
f 17/91/5 58/90/5 18/92/5 
f 19/115/2 57/106/2 58/116/2 
f 58/116/2 18/117/2 19/115/2 
f 19/115/6 58/116/6 57/106/6 
f 58/116/6 19/115/6 18/117/6 
f 63/109/6 20/118/6 17/119/6 
f 17/119/6 61/120/6 63/109/6 
f 63/109/2 17/119/2 20/118/2 
f 17/119/2 63/109/2 61/120/2 
f 53/96/1 27/100/1 28/99/1 
f 28/99/1 52/97/1 53/96/1 
f 53/96/5 28/99/5 27/100/5 
f 28/99/5 53/96/5 52/97/5 
f 23/121/6 56/112/6 52/122/6 
f 52/122/6 28/123/6 23/121/6 
f 23/121/2 52/122/2 56/112/2 
f 52/122/2 23/121/2 28/123/2 
f 54/102/2 26/124/2 27/125/2 
f 27/125/2 53/126/2 54/102/2 
f 54/102/6 27/125/6 26/124/6 
f 27/125/6 54/102/6 53/126/6 
g cabinetTelevision




usemtl wood

f 2/2/1 1/1/1 3/3/1 
f 3/3/1 4/4/1 2/2/1 
f 6/3/2 5/5/2 2/6/2 
f 2/6/2 4/7/2 6/3/2 
f 7/5/3 1/3/3 2/4/3 
f 2/4/3 5/8/3 7/5/3 
f 9/10/3 8/9/3 10/11/3 
f 10/11/3 11/12/3 9/10/3 
f 13/14/2 12/13/2 11/15/2 
f 11/15/2 10/16/2 13/14/2 
f 15/8/3 14/12/3 16/17/3 
f 16/17/3 17/18/3 15/8/3 
f 16/17/3 18/19/3 17/18/3 
f 16/17/3 19/20/3 18/19/3 
f 15/8/3 17/18/3 20/21/3 
f 20/21/3 21/22/3 15/8/3 
f 20/21/3 19/20/3 21/22/3 
f 19/20/3 16/17/3 21/22/3 
f 23/24/4 22/23/4 24/25/4 
f 24/25/4 25/26/4 23/24/4 
f 25/26/4 26/27/4 23/24/4 
f 25/26/4 27/28/4 26/27/4 
f 22/23/4 23/24/4 28/29/4 
f 28/29/4 29/30/4 22/23/4 
f 28/29/4 27/28/4 29/30/4 
f 27/28/4 25/26/4 29/30/4 
f 9/32/5 11/31/5 12/7/5 
f 12/7/5 30/3/5 9/32/5 
f 32/34/3 31/33/3 33/35/3 
f 33/35/3 34/36/3 32/34/3 
f 33/38/1 31/37/1 35/33/1 
f 35/33/1 36/35/1 33/38/1 
f 38/40/6 37/39/6 39/41/6 
f 39/41/6 40/42/6 38/40/6 
f 38/44/5 41/43/5 42/45/5 
f 42/45/5 37/46/5 38/44/5 
f 38/17/3 40/47/3 43/48/3 
f 43/48/3 41/49/3 38/17/3 
f 45/9/4 44/5/4 46/50/4 
f 46/50/4 47/51/4 45/9/4 
f 7/5/6 44/52/6 45/53/6 
f 45/53/6 3/4/6 7/5/6 
f 45/53/6 30/39/6 3/4/6 
f 45/53/6 9/54/6 30/39/6 
f 45/53/6 8/55/6 9/54/6 
f 7/5/6 3/4/6 1/56/6 
f 10/58/1 8/57/1 45/52/1 
f 45/52/1 13/4/1 10/58/1 
f 45/52/1 39/33/1 13/4/1 
f 39/33/1 45/52/1 47/59/1 
f 39/33/1 47/59/1 43/60/1 
f 43/60/1 40/61/1 39/33/1 
f 36/7/2 34/62/2 33/63/2 
f 34/62/2 36/7/2 47/64/2 
f 47/64/2 46/52/2 34/62/2 
f 36/7/2 42/13/2 47/64/2 
f 42/13/2 41/65/2 47/64/2 
f 41/65/2 43/66/2 47/64/2 
f 32/68/5 34/67/5 46/69/5 
f 46/69/5 48/46/5 32/68/5 
f 46/69/5 25/70/5 48/46/5 
f 25/70/5 6/7/5 48/46/5 
f 46/69/5 21/71/5 25/70/5 
f 46/69/5 15/72/5 21/71/5 
f 6/7/5 25/70/5 24/73/5 
f 6/7/5 24/73/5 44/52/5 
f 24/73/5 15/72/5 44/52/5 
f 15/72/5 46/69/5 44/52/5 
f 6/7/5 44/52/5 7/5/5 
f 7/5/5 5/74/5 6/7/5 
f 50/75/3 49/12/3 51/17/3 
f 51/17/3 52/18/3 50/75/3 
f 51/17/3 53/19/3 52/18/3 
f 51/17/3 54/20/3 53/19/3 
f 51/17/3 55/76/3 54/20/3 
f 50/75/3 52/18/3 56/21/3 
f 58/28/4 57/27/4 59/77/4 
f 58/28/4 59/77/4 60/30/4 
f 61/29/4 58/28/4 60/30/4 
f 61/29/4 60/30/4 62/23/4 
f 63/24/4 61/29/4 62/23/4 
f 62/23/4 64/78/4 63/24/4 
f 62/80/5 60/79/5 16/71/5 
f 16/71/5 14/72/5 62/80/5 
f 22/73/5 29/70/5 51/81/5 
f 51/81/5 49/82/5 22/73/5 
f 35/33/3 37/17/3 42/49/3 
f 42/49/3 36/35/3 35/33/3 
f 37/17/3 35/33/3 48/83/3 
f 39/47/3 37/17/3 48/83/3 
f 39/47/3 48/83/3 6/84/3 
f 39/47/3 6/84/3 4/4/3 
f 39/47/3 4/4/3 12/12/3 
f 12/12/3 13/11/3 39/47/3 
f 12/12/3 4/4/3 3/85/3 
f 3/85/3 30/86/3 12/12/3 
f 32/87/6 48/3/6 35/4/6 
f 35/4/6 31/88/6 32/87/6 
f 57/90/1 63/89/1 20/91/1 
f 20/91/1 19/92/1 57/90/1 
f 63/89/1 57/90/1 59/93/1 
f 64/94/1 63/89/1 59/93/1 
f 64/94/1 59/93/1 55/95/1 
f 64/94/1 55/95/1 54/96/1 
f 64/94/1 54/96/1 56/97/1 
f 56/97/1 50/98/1 64/94/1 
f 23/99/1 56/97/1 54/96/1 
f 54/96/1 26/100/1 23/99/1 
f 57/90/5 20/91/5 63/89/5 
f 20/91/5 57/90/5 19/92/5 
f 63/89/5 59/93/5 57/90/5 
f 64/94/5 59/93/5 63/89/5 
f 64/94/5 55/95/5 59/93/5 
f 64/94/5 54/96/5 55/95/5 
f 64/94/5 56/97/5 54/96/5 
f 56/97/5 64/94/5 50/98/5 
f 23/99/5 54/96/5 56/97/5 
f 54/96/5 23/99/5 26/100/5 
f 50/102/2 15/101/2 24/103/2 
f 24/103/2 22/104/2 50/102/2 
f 22/104/2 49/105/2 50/102/2 
f 15/101/2 50/102/2 64/106/2 
f 64/106/2 14/107/2 15/101/2 
f 64/106/2 62/108/2 14/107/2 
f 59/109/6 25/103/6 21/101/6 
f 21/101/6 16/110/6 59/109/6 
f 16/110/6 60/111/6 59/109/6 
f 25/103/6 59/109/6 55/112/6 
f 55/112/6 29/113/6 25/103/6 
f 55/112/6 51/114/6 29/113/6 
f 58/90/1 61/89/1 17/91/1 
f 17/91/1 18/92/1 58/90/1 
f 58/90/5 17/91/5 61/89/5 
f 17/91/5 58/90/5 18/92/5 
f 19/115/2 57/106/2 58/116/2 
f 58/116/2 18/117/2 19/115/2 
f 19/115/6 58/116/6 57/106/6 
f 58/116/6 19/115/6 18/117/6 
f 63/109/6 20/118/6 17/119/6 
f 17/119/6 61/120/6 63/109/6 
f 63/109/2 17/119/2 20/118/2 
f 17/119/2 63/109/2 61/120/2 
f 53/96/1 27/100/1 28/99/1 
f 28/99/1 52/97/1 53/96/1 
f 53/96/5 28/99/5 27/100/5 
f 28/99/5 53/96/5 52/97/5 
f 23/121/6 56/112/6 52/122/6 
f 52/122/6 28/123/6 23/121/6 
f 23/121/2 52/122/2 56/112/2 
f 52/122/2 23/121/2 28/123/2 
f 54/102/2 26/124/2 27/125/2 
f 27/125/2 53/126/2 54/102/2 
f 54/102/6 27/125/6 26/124/6 
f 27/125/6 54/102/6 53/126/6 
