# Created by Kenney (www.kenney.nl) 

mtllib chairModernCushion.mtl 

g chairModernCushion

v -0.17 -1.116358E-17 0.03 
v -0.2 -1.116358E-17 0.03 
v -0.17 0.19 0.03 
v -0.2 0.19 0.03 
v -0.03 0 0.17 
v 0 0 0.17 
v -0.03 0.19 0.17 
v 0 0.19 0.17 
v -0.17 0 0 
v -0.2 0 0 
v 0 -1.116358E-17 0.03 
v -0.03 -1.116358E-17 0.03 
v 0 0.19 0.03 
v -0.03 0.19 0.03 
v -0.17 0.19 0 
v 0 0.46 0.17 
v 0 0.24 0.17 
v 0 0.46 0.2 
v 0 0.22 0.17 
v 0 0 0.2 
v 0 0.22 0 
v 0 0 0 
v -0.17 0.19 0.17 
v -0.2 0.19 0.17 
v -0.17 0.19 0.2 
v -0.03 0.19 0 
v -0.03 0.19 0.2 
v -0.03 0 0.2 
v -0.2 0.46 0.2 
v -0.2 0 0.2 
v -0.17 0 0.2 
v -0.2 0.22 0 
v -0.03 0 0 
v -0.2 1.116358E-17 0.17 
v -0.17 1.116358E-17 0.17 
v -0.2 0.46 0.17 
v -0.17 0.43 0.17 
v -0.17 0.24 0.17 
v -0.17 0.43 0.18 
v -0.17 0.24 0.18 
v -0.03 0.24 0.17 
v -0.03 0.43 0.17 
v -0.03 0.24 0.18 
v -0.03 0.43 0.18 
v -0.2 0.22 0.17 
v -0.2 0.24 0.17 
v -0.2 0.24 0 
v 0 0.24 0 

vn 0 0 1 
vn 0 0 -1 
vn 0 -1 0 
vn 1 0 0 
vn -1 0 0 
vn 0 1 0 

vt -6.692914 -1.758044E-15 
vt -7.874016 -1.758044E-15 
vt -6.692914 7.480315 
vt -7.874016 7.480315 
vt 1.181102 0 
vt 0 0 
vt 1.181102 7.480315 
vt 0 7.480315 
vt -6.692914 1.181102 
vt -6.692914 0 
vt -7.874016 1.181102 
vt -7.874016 0 
vt -1.401298E-44 -1.758044E-15 
vt -1.181102 -1.758044E-15 
vt -1.401298E-44 7.480315 
vt -1.181102 7.480315 
vt -1.181102 -4.39511E-16 
vt -6.692914 18.11024 
vt -6.692914 9.448819 
vt -7.874016 18.11024 
vt -6.692914 8.661417 
vt 0 8.661417 
vt -6.692914 6.692914 
vt -7.874016 6.692914 
vt -6.692914 7.874016 
vt -1.181102 0 
vt -1.181102 1.181102 
vt -1.181102 6.692914 
vt -1.181102 7.874016 
vt 0 1.181102 
vt 0 6.692914 
vt 0 18.11024 
vt 7.874016 0 
vt 6.692914 0 
vt 7.874016 8.661417 
vt 6.692914 7.480315 
vt 0 7.874016 
vt 1.181102 -4.39511E-16 
vt 7.874016 7.480315 
vt 7.874016 -7.032176E-15 
vt 6.692914 -7.032176E-15 
vt -6.692914 4.39511E-16 
vt -7.874016 7.874016 
vt 5.836601E-15 6.692914 
vt 5.836601E-15 7.874016 
vt 7.874016 6.692914 
vt 7.874016 7.874016 
vt -6.692914 16.92913 
vt -7.086614 16.92913 
vt -7.086614 9.448819 
vt 6.692914 9.448819 
vt 6.692914 16.92913 
vt 7.086614 9.448819 
vt 7.086614 16.92913 
vt -1.181102 7.086614 
vt -6.692914 7.086614 
vt 6.692914 -9.848799E-15 
vt 7.874016 -1.028831E-14 
vt 6.692914 8.661417 
vt 6.692914 18.11024 
vt 7.874016 18.11024 
vt 1.181102 -1.072782E-14 
vt -3.253779E-15 -1.028831E-14 
vt 7.874016 9.448819 
vt 1.181102 16.92913 
vt 0 9.448819 
vt 1.181102 9.448819 
vt 6.692914 6.692914 
vt 1.181102 7.086614 
vt 6.692914 7.086614 
vt 7.874016 1.697757E-15 
vt 1.181102 6.692914 
vt 2.002872E-15 6.692914 
vt 2.002872E-15 1.697757E-15 

usemtl metal

f 2/2/1 1/1/1 3/3/1 
f 3/3/1 4/4/1 2/2/1 
f 6/6/2 5/5/2 7/7/2 
f 7/7/2 8/8/2 6/6/2 
f 9/10/3 1/9/3 2/11/3 
f 2/11/3 10/12/3 9/10/3 
f 12/14/1 11/13/1 13/15/1 
f 13/15/1 14/16/1 12/14/1 
f 9/6/4 15/8/4 3/16/4 
f 3/16/4 1/17/4 9/6/4 
f 17/19/4 16/18/4 18/20/4 
f 18/20/4 19/21/4 17/19/4 
f 18/20/4 8/3/4 19/21/4 
f 18/20/4 6/10/4 8/3/4 
f 18/20/4 20/12/4 6/10/4 
f 19/21/4 8/3/4 13/16/4 
f 21/22/4 19/21/4 13/16/4 
f 13/16/4 22/6/4 21/22/4 
f 22/6/4 13/16/4 11/17/4 
f 3/9/3 23/23/3 24/24/3 
f 24/24/3 4/11/3 3/9/3 
f 23/23/3 3/9/3 15/10/3 
f 25/25/3 23/23/3 15/10/3 
f 25/25/3 15/10/3 26/26/3 
f 25/25/3 26/26/3 14/27/3 
f 25/25/3 14/27/3 7/28/3 
f 7/28/3 27/29/3 25/25/3 
f 7/28/3 14/27/3 13/30/3 
f 13/30/3 8/31/3 7/28/3 
f 28/26/1 20/6/1 18/32/1 
f 18/32/1 27/16/1 28/26/1 
f 18/32/1 25/3/1 27/16/1 
f 25/3/1 18/32/1 29/20/1 
f 25/3/1 29/20/1 30/12/1 
f 30/12/1 31/10/1 25/3/1 
f 9/34/2 10/33/2 32/35/2 
f 32/35/2 15/36/2 9/34/2 
f 32/35/2 26/7/2 15/36/2 
f 26/7/2 32/35/2 21/22/2 
f 26/7/2 21/22/2 22/6/2 
f 22/6/2 33/5/2 26/7/2 
f 6/31/3 20/37/3 28/29/3 
f 28/29/3 5/28/3 6/31/3 
f 22/6/3 11/30/3 12/27/3 
f 12/27/3 33/26/3 22/6/3 
f 26/8/5 33/6/5 12/38/5 
f 12/38/5 14/7/5 26/8/5 
f 7/36/5 5/34/5 28/33/5 
f 28/33/5 27/39/5 7/36/5 
f 35/41/2 34/40/2 24/39/2 
f 24/39/2 23/36/2 35/41/2 
f 35/42/4 23/3/4 25/4/4 
f 25/4/4 31/12/4 35/42/4 
f 35/23/3 31/25/3 30/43/3 
f 30/43/3 34/24/3 35/23/3 
f 18/45/6 16/44/6 36/46/6 
f 36/46/6 29/47/6 18/45/6 
f 38/19/4 37/48/4 39/49/4 
f 39/49/4 40/50/4 38/19/4 
f 42/52/5 41/51/5 43/53/5 
f 43/53/5 44/54/5 42/52/5 
f 42/28/3 44/55/3 39/56/3 
f 39/56/3 37/23/3 42/28/3 
f 24/36/5 34/57/5 30/58/5 
f 30/58/5 45/59/5 24/36/5 
f 30/58/5 46/51/5 45/59/5 
f 30/58/5 36/60/5 46/51/5 
f 30/58/5 29/61/5 36/60/5 
f 4/7/5 24/36/5 45/59/5 
f 4/7/5 45/59/5 32/22/5 
f 2/62/5 4/7/5 32/22/5 
f 32/22/5 10/63/5 2/62/5 
f 38/51/2 46/64/2 36/61/2 
f 36/61/2 37/52/2 38/51/2 
f 36/61/2 16/32/2 37/52/2 
f 42/65/2 37/52/2 16/32/2 
f 42/65/2 16/32/2 17/66/2 
f 17/66/2 41/67/2 42/65/2 

usemtl carpetBlue

f 43/69/6 38/68/6 40/70/6 
f 47/71/6 38/68/6 43/69/6 
f 47/71/6 43/69/6 41/72/6 
f 47/71/6 41/72/6 17/73/6 
f 17/73/6 48/74/6 47/71/6 
f 47/71/6 46/46/6 38/68/6 
f 21/22/4 48/66/4 17/19/4 
f 17/19/4 19/21/4 21/22/4 
f 21/22/2 32/35/2 47/64/2 
f 47/64/2 48/66/2 21/22/2 
f 47/66/5 32/22/5 45/59/5 
f 45/59/5 46/51/5 47/66/5 
f 44/65/2 43/67/2 40/51/2 
f 40/51/2 39/52/2 44/65/2 
g chairModernCushion




usemtl metal

f 2/2/1 1/1/1 3/3/1 
f 3/3/1 4/4/1 2/2/1 
f 6/6/2 5/5/2 7/7/2 
f 7/7/2 8/8/2 6/6/2 
f 9/10/3 1/9/3 2/11/3 
f 2/11/3 10/12/3 9/10/3 
f 12/14/1 11/13/1 13/15/1 
f 13/15/1 14/16/1 12/14/1 
f 9/6/4 15/8/4 3/16/4 
f 3/16/4 1/17/4 9/6/4 
f 17/19/4 16/18/4 18/20/4 
f 18/20/4 19/21/4 17/19/4 
f 18/20/4 8/3/4 19/21/4 
f 18/20/4 6/10/4 8/3/4 
f 18/20/4 20/12/4 6/10/4 
f 19/21/4 8/3/4 13/16/4 
f 21/22/4 19/21/4 13/16/4 
f 13/16/4 22/6/4 21/22/4 
f 22/6/4 13/16/4 11/17/4 
f 3/9/3 23/23/3 24/24/3 
f 24/24/3 4/11/3 3/9/3 
f 23/23/3 3/9/3 15/10/3 
f 25/25/3 23/23/3 15/10/3 
f 25/25/3 15/10/3 26/26/3 
f 25/25/3 26/26/3 14/27/3 
f 25/25/3 14/27/3 7/28/3 
f 7/28/3 27/29/3 25/25/3 
f 7/28/3 14/27/3 13/30/3 
f 13/30/3 8/31/3 7/28/3 
f 28/26/1 20/6/1 18/32/1 
f 18/32/1 27/16/1 28/26/1 
f 18/32/1 25/3/1 27/16/1 
f 25/3/1 18/32/1 29/20/1 
f 25/3/1 29/20/1 30/12/1 
f 30/12/1 31/10/1 25/3/1 
f 9/34/2 10/33/2 32/35/2 
f 32/35/2 15/36/2 9/34/2 
f 32/35/2 26/7/2 15/36/2 
f 26/7/2 32/35/2 21/22/2 
f 26/7/2 21/22/2 22/6/2 
f 22/6/2 33/5/2 26/7/2 
f 6/31/3 20/37/3 28/29/3 
f 28/29/3 5/28/3 6/31/3 
f 22/6/3 11/30/3 12/27/3 
f 12/27/3 33/26/3 22/6/3 
f 26/8/5 33/6/5 12/38/5 
f 12/38/5 14/7/5 26/8/5 
f 7/36/5 5/34/5 28/33/5 
f 28/33/5 27/39/5 7/36/5 
f 35/41/2 34/40/2 24/39/2 
f 24/39/2 23/36/2 35/41/2 
f 35/42/4 23/3/4 25/4/4 
f 25/4/4 31/12/4 35/42/4 
f 35/23/3 31/25/3 30/43/3 
f 30/43/3 34/24/3 35/23/3 
f 18/45/6 16/44/6 36/46/6 
f 36/46/6 29/47/6 18/45/6 
f 38/19/4 37/48/4 39/49/4 
f 39/49/4 40/50/4 38/19/4 
f 42/52/5 41/51/5 43/53/5 
f 43/53/5 44/54/5 42/52/5 
f 42/28/3 44/55/3 39/56/3 
f 39/56/3 37/23/3 42/28/3 
f 24/36/5 34/57/5 30/58/5 
f 30/58/5 45/59/5 24/36/5 
f 30/58/5 46/51/5 45/59/5 
f 30/58/5 36/60/5 46/51/5 
f 30/58/5 29/61/5 36/60/5 
f 4/7/5 24/36/5 45/59/5 
f 4/7/5 45/59/5 32/22/5 
f 2/62/5 4/7/5 32/22/5 
f 32/22/5 10/63/5 2/62/5 
f 38/51/2 46/64/2 36/61/2 
f 36/61/2 37/52/2 38/51/2 
f 36/61/2 16/32/2 37/52/2 
f 42/65/2 37/52/2 16/32/2 
f 42/65/2 16/32/2 17/66/2 
f 17/66/2 41/67/2 42/65/2 

usemtl carpetBlue

f 43/69/6 38/68/6 40/70/6 
f 47/71/6 38/68/6 43/69/6 
f 47/71/6 43/69/6 41/72/6 
f 47/71/6 41/72/6 17/73/6 
f 17/73/6 48/74/6 47/71/6 
f 47/71/6 46/46/6 38/68/6 
f 21/22/4 48/66/4 17/19/4 
f 17/19/4 19/21/4 21/22/4 
f 21/22/2 32/35/2 47/64/2 
f 47/64/2 48/66/2 21/22/2 
f 47/66/5 32/22/5 45/59/5 
f 45/59/5 46/51/5 47/66/5 
f 44/65/2 43/67/2 40/51/2 
f 40/51/2 39/52/2 44/65/2 
