# Created by Kenney (www.kenney.nl) 

mtllib chair.mtl 

g chair

v -0.03 0.05 0.11 
v -0.17 0.05 0.11 
v -0.03 0.07 0.11 
v -0.17 0.07 0.11 
v -0.16 0 0.04 
v -0.16 0 0 
v -0.2 0 0.04 
v -0.2 0 0 
v -0.04 0.43 0.16 
v -0.04 0.295 0.17 
v -0.04 0.24 0.16 
v -0.04 0.24 0.2 
v -0.04 0.295 0.19 
v -0.04 0.335 0.19 
v -0.04 0.335 0.17 
v -0.04 0.43 0.2 
v -0.17 0.05 0.09 
v -0.03 0.05 0.09 
v -0.17 0.07 0.09 
v -0.03 0.07 0.09 
v 0 0.24 0 
v 0 0.24 0.16 
v -0.2 0.24 0 
v -0.16 0.24 0.16 
v -0.2 0.24 0.16 
v -0.16 0.24 0.2 
v -0.16 0.295 0.19 
v -0.16 0.335 0.19 
v -0.2 0 0.16 
v -0.2 0.19 0.16 
v -0.2 0 0.2 
v -0.2 0.47 0.16 
v -0.2 0.47 0.2 
v -0.2 0.19 0.04 
v -0.16 0.19 0.16 
v -0.16 0.19 0.04 
v -0.16 0.19 0 
v -0.16 0.19 0.2 
v -0.04 0.19 0 
v -0.04 0.19 0.04 
v -0.04 0.19 0.16 
v -0.04 0.19 0.2 
v 0 0.19 0.04 
v 0 0.19 0.16 
v -0.16 0.335 0.17 
v 0 0 0.2 
v -0.04 0 0.2 
v 0 0.47 0.2 
v -0.16 0.43 0.2 
v -0.16 0 0.2 
v 0 0 0 
v -0.04 0 0 
v -0.16 0.295 0.17 
v 0 0.47 0.16 
v 0 0 0.16 
v -0.04 0 0.16 
v -0.16 0.43 0.16 
v 0 0 0.04 
v -0.04 0 0.04 
v -0.16 0 0.16 
v -0.19 0.05 0.04 
v -0.19 0.07 0.04 
v -0.19 0.05 0.16 
v -0.19 0.07 0.16 
v -0.17 0.07 0.16 
v -0.17 0.05 0.16 
v -0.01 0.05 0.04 
v -0.01 0.07 0.04 
v -0.03 0.07 0.04 
v -0.03 0.05 0.04 
v -0.16 0.05 0.04 
v -0.17 0.07 0.04 
v -0.17 0.05 0.04 
v -0.03 0.07 0.16 
v -0.03 0.05 0.16 
v -0.01 0.07 0.16 
v -0.01 0.05 0.16 

vn 0 0 1 
vn 0 -1 0 
vn -1 0 0 
vn 0 0 -1 
vn 0 1 0 
vn 1 0 0 

vt -1.181102 1.968504 
vt -6.692914 1.968504 
vt -1.181102 2.755906 
vt -6.692914 2.755906 
vt -6.299212 1.574803 
vt -6.299212 0 
vt -7.874016 1.574803 
vt -7.874016 0 
vt 6.299212 16.92913 
vt 6.692914 11.61417 
vt 6.299212 9.448819 
vt 7.874016 9.448819 
vt 7.480315 11.61417 
vt 7.480315 13.18898 
vt 6.692914 13.18898 
vt 7.874016 16.92913 
vt 6.692914 1.968504 
vt 1.181102 1.968504 
vt 6.692914 2.755906 
vt 1.181102 2.755906 
vt 0 0 
vt 0 6.299212 
vt 7.874016 0 
vt 1.574803 6.299212 
vt 1.574803 7.874016 
vt 6.299212 6.299212 
vt 7.874016 6.299212 
vt 6.299212 7.874016 
vt -1.574803 11.61417 
vt -6.299212 11.61417 
vt -1.574803 13.18898 
vt -6.299212 13.18898 
vt 6.299212 -1.002187E-14 
vt 6.299212 7.480315 
vt 7.874016 -1.002187E-14 
vt 6.299212 18.50394 
vt 7.874016 18.50394 
vt 1.574803 7.480315 
vt -4.399725E-15 9.448819 
vt 1.574803 -1.002187E-14 
vt -4.399725E-15 -1.002187E-14 
vt -6.299212 6.299212 
vt -7.874016 6.299212 
vt -6.299212 7.874016 
vt -1.574803 0 
vt -1.574803 1.574803 
vt -1.574803 6.299212 
vt -1.574803 7.874016 
vt 0 1.574803 
vt 1.574803 6.692914 
vt 6.299212 6.692914 
vt 9.734888E-16 -5.72205E-17 
vt -1.574803 -5.72205E-17 
vt 9.734888E-16 18.50394 
vt -1.574803 7.480315 
vt -1.574803 9.448819 
vt -6.299212 7.480315 
vt -1.574803 16.92913 
vt -6.299212 16.92913 
vt -6.299212 9.448819 
vt -7.874016 18.50394 
vt -7.874016 -5.72205E-17 
vt -6.299212 -5.72205E-17 
vt 6.299212 0 
vt 0 9.448819 
vt 1.574803 0 
vt 1.574803 11.61417 
vt 1.574803 13.18898 
vt 6.299212 11.61417 
vt 6.299212 13.18898 
vt -1.574803 6.692914 
vt -6.299212 6.692914 
vt 1.402366E-13 6.299212 
vt 1.402366E-13 7.874016 
vt 7.874016 7.874016 
vt 0 7.874016 
vt 1.574803 16.92913 
vt 0 18.50394 
vt 1.574803 9.448819 
vt -6.692914 13.18898 
vt -7.874016 16.92913 
vt -7.480315 13.18898 
vt -7.480315 11.61417 
vt -6.692914 11.61417 
vt -7.874016 9.448819 
vt -7.874016 7.480315 
vt -7.874016 7.874016 
vt -6.299212 18.50394 
vt 1.574803 1.968504 
vt 1.574803 2.755906 
vt 6.299212 1.968504 
vt 6.299212 2.755906 
vt 7.480315 1.968504 
vt 7.874016 7.480315 
vt 7.480315 2.755906 
vt -0.3937008 1.968504 
vt 0 7.480315 
vt -0.3937008 2.755906 
vt -1.574803 1.968504 
vt -1.574803 2.755906 
vt -3.543307 2.755906 
vt -3.543307 1.968504 
vt -6.299212 1.968504 
vt -7.480315 2.755906 
vt -7.480315 1.968504 
vt -4.330709 2.755906 
vt -4.330709 1.968504 
vt -6.299212 2.755906 
vt 3.543307 1.968504 
vt 3.543307 2.755906 
vt 4.330709 2.755906 
vt 4.330709 1.968504 
vt -3.24578E-14 1.392469E-15 
vt 1.574803 1.392469E-15 
vt 0.3937008 2.755906 
vt 0.3937008 1.968504 
vt -3.24578E-14 7.480315 
vt -0.3937008 6.299212 
vt -0.3937008 1.574803 
vt -1.181102 6.299212 
vt -1.181102 1.574803 
vt -1.181102 4.330709 
vt -1.181102 3.543307 
vt -6.692914 4.330709 
vt -6.692914 3.543307 
vt -7.480315 6.299212 
vt -6.692914 6.299212 
vt -7.480315 1.574803 
vt -6.692914 1.574803 
vt 0.3937008 1.574803 
vt 0.3937008 6.299212 
vt 1.181102 1.574803 
vt 1.181102 6.299212 
vt 1.181102 3.543307 
vt 1.181102 4.330709 
vt 6.692914 3.543307 
vt 6.692914 4.330709 
vt 7.480315 1.574803 
vt 6.692914 1.574803 
vt 7.480315 6.299212 
vt 6.692914 6.299212 

usemtl wood

f 2/2/1 1/1/1 3/3/1 
f 3/3/1 4/4/1 2/2/1 
f 6/6/2 5/5/2 7/7/2 
f 7/7/2 8/8/2 6/6/2 
f 10/10/3 9/9/3 11/11/3 
f 11/11/3 12/12/3 10/10/3 
f 12/12/3 13/13/3 10/10/3 
f 12/12/3 14/14/3 13/13/3 
f 9/9/3 10/10/3 15/15/3 
f 15/15/3 16/16/3 9/9/3 
f 15/15/3 14/14/3 16/16/3 
f 14/14/3 12/12/3 16/16/3 
f 18/18/4 17/17/4 19/19/4 
f 19/19/4 20/20/4 18/18/4 
f 22/22/5 21/21/5 23/23/5 
f 23/23/5 11/24/5 22/22/5 
f 23/23/5 12/25/5 11/24/5 
f 23/23/5 24/26/5 12/25/5 
f 23/23/5 25/27/5 24/26/5 
f 12/25/5 24/26/5 26/28/5 
f 27/30/1 13/29/1 14/31/1 
f 14/31/1 28/32/1 27/30/1 
f 30/34/3 29/33/3 31/35/3 
f 31/35/3 25/11/3 30/34/3 
f 31/35/3 32/36/3 25/11/3 
f 31/35/3 33/37/3 32/36/3 
f 34/38/3 30/34/3 25/11/3 
f 34/38/3 25/11/3 23/39/3 
f 7/40/3 34/38/3 23/39/3 
f 23/39/3 8/41/3 7/40/3 
f 36/5/2 35/42/2 30/43/2 
f 30/43/2 34/7/2 36/5/2 
f 35/42/2 36/5/2 37/6/2 
f 38/44/2 35/42/2 37/6/2 
f 38/44/2 37/6/2 39/45/2 
f 38/44/2 39/45/2 40/46/2 
f 38/44/2 40/46/2 41/47/2 
f 41/47/2 42/48/2 38/44/2 
f 41/47/2 40/46/2 43/49/2 
f 43/49/2 44/22/2 41/47/2 
f 14/38/5 15/50/5 45/51/5 
f 45/51/5 28/34/5 14/38/5 
f 47/53/1 46/52/1 48/54/1 
f 48/54/1 42/55/1 47/53/1 
f 48/54/1 12/56/1 42/55/1 
f 12/56/1 38/57/1 42/55/1 
f 48/54/1 16/58/1 12/56/1 
f 48/54/1 49/59/1 16/58/1 
f 38/57/1 12/56/1 26/60/1 
f 38/57/1 26/60/1 33/61/1 
f 26/60/1 49/59/1 33/61/1 
f 49/59/1 48/54/1 33/61/1 
f 38/57/1 33/61/1 31/62/1 
f 31/62/1 50/63/1 38/57/1 
f 6/64/4 8/23/4 23/12/4 
f 23/12/4 37/34/4 6/64/4 
f 23/12/4 39/38/4 37/34/4 
f 39/38/4 23/12/4 21/65/4 
f 39/38/4 21/65/4 51/21/4 
f 51/21/4 52/66/4 39/38/4 
f 15/68/4 10/67/4 53/69/4 
f 53/69/4 45/70/4 15/68/4 
f 10/71/2 13/55/2 27/57/2 
f 27/57/2 53/72/2 10/71/2 
f 48/74/5 54/73/5 32/27/5 
f 32/27/5 33/75/5 48/74/5 
f 55/22/2 46/76/2 47/48/2 
f 47/48/2 56/47/2 55/22/2 
f 24/11/4 25/12/4 32/37/4 
f 32/37/4 57/9/4 24/11/4 
f 32/37/4 9/77/4 57/9/4 
f 32/37/4 54/78/4 9/77/4 
f 9/77/4 54/78/4 22/65/4 
f 22/65/4 11/79/4 9/77/4 
f 51/21/2 58/49/2 59/46/2 
f 59/46/2 52/45/2 51/21/2 
f 9/47/2 16/48/2 49/44/2 
f 49/44/2 57/42/2 9/47/2 
f 45/80/6 24/60/6 57/59/6 
f 57/59/6 49/81/6 45/80/6 
f 49/81/6 28/82/6 45/80/6 
f 49/81/6 27/83/6 28/82/6 
f 24/60/6 45/80/6 53/84/6 
f 53/84/6 26/85/6 24/60/6 
f 53/84/6 27/83/6 26/85/6 
f 27/83/6 49/81/6 26/85/6 
f 60/6/6 35/57/6 38/86/6 
f 38/86/6 50/8/6 60/6/6 
f 60/42/2 50/44/2 31/87/2 
f 31/87/2 29/43/2 60/42/2 
f 22/60/6 54/88/6 48/61/6 
f 48/61/6 44/57/6 22/60/6 
f 48/61/6 55/6/6 44/57/6 
f 48/61/6 46/8/6 55/6/6 
f 22/60/6 44/57/6 43/55/6 
f 21/65/6 22/60/6 43/55/6 
f 43/55/6 51/21/6 21/65/6 
f 51/21/6 43/55/6 58/45/6 
f 62/90/3 61/89/3 63/91/3 
f 63/91/3 64/92/3 62/90/3 
f 63/93/4 60/64/4 29/23/4 
f 29/23/4 30/94/4 63/93/4 
f 30/94/4 64/95/4 63/93/4 
f 30/94/4 65/19/4 64/95/4 
f 60/64/4 63/93/4 66/17/4 
f 66/17/4 35/34/4 60/64/4 
f 66/17/4 65/19/4 35/34/4 
f 65/19/4 30/94/4 35/34/4 
f 67/96/1 59/45/1 58/21/1 
f 58/21/1 43/97/1 67/96/1 
f 43/97/1 68/98/1 67/96/1 
f 43/97/1 69/3/1 68/98/1 
f 59/45/1 67/96/1 70/1/1 
f 70/1/1 40/55/1 59/45/1 
f 70/1/1 69/3/1 40/55/1 
f 69/3/1 43/97/1 40/55/1 
f 39/97/3 52/21/3 59/66/3 
f 59/66/3 40/38/3 39/97/3 
f 41/34/3 56/64/3 47/23/3 
f 47/23/3 42/94/3 41/34/3 
f 6/21/6 37/97/6 36/55/6 
f 36/55/6 5/45/6 6/21/6 
f 36/55/6 71/99/6 5/45/6 
f 73/99/6 72/100/6 19/101/6 
f 19/101/6 17/102/6 73/99/6 
f 73/2/1 71/103/1 36/57/1 
f 36/57/1 72/4/1 73/2/1 
f 36/57/1 62/104/1 72/4/1 
f 71/103/1 73/2/1 61/105/1 
f 71/103/1 61/105/1 7/8/1 
f 7/8/1 5/6/1 71/103/1 
f 61/105/1 34/86/1 7/8/1 
f 61/105/1 62/104/1 34/86/1 
f 62/104/1 36/57/1 34/86/1 
f 2/107/6 4/106/6 65/108/6 
f 65/108/6 66/103/6 2/107/6 
f 69/90/3 70/89/3 18/109/3 
f 18/109/3 20/110/3 69/90/3 
f 74/92/3 3/111/3 1/112/3 
f 1/112/3 75/91/3 74/92/3 
f 75/18/4 55/113/4 56/114/4 
f 56/114/4 41/38/4 75/18/4 
f 41/38/4 74/20/4 75/18/4 
f 41/38/4 76/115/4 74/20/4 
f 55/113/4 75/18/4 77/116/4 
f 77/116/4 44/117/4 55/113/4 
f 77/116/4 76/115/4 44/117/4 
f 76/115/4 41/38/4 44/117/4 
f 67/119/2 77/118/2 75/120/2 
f 75/120/2 70/121/2 67/119/2 
f 75/120/2 1/122/2 70/121/2 
f 1/122/2 18/123/2 70/121/2 
f 18/123/2 1/122/2 2/124/2 
f 2/124/2 17/125/2 18/123/2 
f 63/126/2 17/125/2 2/124/2 
f 2/124/2 66/127/2 63/126/2 
f 17/125/2 63/126/2 61/128/2 
f 61/128/2 73/129/2 17/125/2 
f 67/99/6 68/100/6 76/108/6 
f 76/108/6 77/103/6 67/99/6 
f 76/131/5 68/130/5 69/132/5 
f 69/132/5 74/133/5 76/131/5 
f 69/132/5 20/134/5 74/133/5 
f 20/134/5 3/135/5 74/133/5 
f 3/135/5 20/134/5 19/136/5 
f 19/136/5 4/137/5 3/135/5 
f 62/138/5 4/137/5 19/136/5 
f 19/136/5 72/139/5 62/138/5 
f 4/137/5 62/138/5 64/140/5 
f 64/140/5 65/141/5 4/137/5 
g chair




usemtl wood

f 2/2/1 1/1/1 3/3/1 
f 3/3/1 4/4/1 2/2/1 
f 6/6/2 5/5/2 7/7/2 
f 7/7/2 8/8/2 6/6/2 
f 10/10/3 9/9/3 11/11/3 
f 11/11/3 12/12/3 10/10/3 
f 12/12/3 13/13/3 10/10/3 
f 12/12/3 14/14/3 13/13/3 
f 9/9/3 10/10/3 15/15/3 
f 15/15/3 16/16/3 9/9/3 
f 15/15/3 14/14/3 16/16/3 
f 14/14/3 12/12/3 16/16/3 
f 18/18/4 17/17/4 19/19/4 
f 19/19/4 20/20/4 18/18/4 
f 22/22/5 21/21/5 23/23/5 
f 23/23/5 11/24/5 22/22/5 
f 23/23/5 12/25/5 11/24/5 
f 23/23/5 24/26/5 12/25/5 
f 23/23/5 25/27/5 24/26/5 
f 12/25/5 24/26/5 26/28/5 
f 27/30/1 13/29/1 14/31/1 
f 14/31/1 28/32/1 27/30/1 
f 30/34/3 29/33/3 31/35/3 
f 31/35/3 25/11/3 30/34/3 
f 31/35/3 32/36/3 25/11/3 
f 31/35/3 33/37/3 32/36/3 
f 34/38/3 30/34/3 25/11/3 
f 34/38/3 25/11/3 23/39/3 
f 7/40/3 34/38/3 23/39/3 
f 23/39/3 8/41/3 7/40/3 
f 36/5/2 35/42/2 30/43/2 
f 30/43/2 34/7/2 36/5/2 
f 35/42/2 36/5/2 37/6/2 
f 38/44/2 35/42/2 37/6/2 
f 38/44/2 37/6/2 39/45/2 
f 38/44/2 39/45/2 40/46/2 
f 38/44/2 40/46/2 41/47/2 
f 41/47/2 42/48/2 38/44/2 
f 41/47/2 40/46/2 43/49/2 
f 43/49/2 44/22/2 41/47/2 
f 14/38/5 15/50/5 45/51/5 
f 45/51/5 28/34/5 14/38/5 
f 47/53/1 46/52/1 48/54/1 
f 48/54/1 42/55/1 47/53/1 
f 48/54/1 12/56/1 42/55/1 
f 12/56/1 38/57/1 42/55/1 
f 48/54/1 16/58/1 12/56/1 
f 48/54/1 49/59/1 16/58/1 
f 38/57/1 12/56/1 26/60/1 
f 38/57/1 26/60/1 33/61/1 
f 26/60/1 49/59/1 33/61/1 
f 49/59/1 48/54/1 33/61/1 
f 38/57/1 33/61/1 31/62/1 
f 31/62/1 50/63/1 38/57/1 
f 6/64/4 8/23/4 23/12/4 
f 23/12/4 37/34/4 6/64/4 
f 23/12/4 39/38/4 37/34/4 
f 39/38/4 23/12/4 21/65/4 
f 39/38/4 21/65/4 51/21/4 
f 51/21/4 52/66/4 39/38/4 
f 15/68/4 10/67/4 53/69/4 
f 53/69/4 45/70/4 15/68/4 
f 10/71/2 13/55/2 27/57/2 
f 27/57/2 53/72/2 10/71/2 
f 48/74/5 54/73/5 32/27/5 
f 32/27/5 33/75/5 48/74/5 
f 55/22/2 46/76/2 47/48/2 
f 47/48/2 56/47/2 55/22/2 
f 24/11/4 25/12/4 32/37/4 
f 32/37/4 57/9/4 24/11/4 
f 32/37/4 9/77/4 57/9/4 
f 32/37/4 54/78/4 9/77/4 
f 9/77/4 54/78/4 22/65/4 
f 22/65/4 11/79/4 9/77/4 
f 51/21/2 58/49/2 59/46/2 
f 59/46/2 52/45/2 51/21/2 
f 9/47/2 16/48/2 49/44/2 
f 49/44/2 57/42/2 9/47/2 
f 45/80/6 24/60/6 57/59/6 
f 57/59/6 49/81/6 45/80/6 
f 49/81/6 28/82/6 45/80/6 
f 49/81/6 27/83/6 28/82/6 
f 24/60/6 45/80/6 53/84/6 
f 53/84/6 26/85/6 24/60/6 
f 53/84/6 27/83/6 26/85/6 
f 27/83/6 49/81/6 26/85/6 
f 60/6/6 35/57/6 38/86/6 
f 38/86/6 50/8/6 60/6/6 
f 60/42/2 50/44/2 31/87/2 
f 31/87/2 29/43/2 60/42/2 
f 22/60/6 54/88/6 48/61/6 
f 48/61/6 44/57/6 22/60/6 
f 48/61/6 55/6/6 44/57/6 
f 48/61/6 46/8/6 55/6/6 
f 22/60/6 44/57/6 43/55/6 
f 21/65/6 22/60/6 43/55/6 
f 43/55/6 51/21/6 21/65/6 
f 51/21/6 43/55/6 58/45/6 
f 62/90/3 61/89/3 63/91/3 
f 63/91/3 64/92/3 62/90/3 
f 63/93/4 60/64/4 29/23/4 
f 29/23/4 30/94/4 63/93/4 
f 30/94/4 64/95/4 63/93/4 
f 30/94/4 65/19/4 64/95/4 
f 60/64/4 63/93/4 66/17/4 
f 66/17/4 35/34/4 60/64/4 
f 66/17/4 65/19/4 35/34/4 
f 65/19/4 30/94/4 35/34/4 
f 67/96/1 59/45/1 58/21/1 
f 58/21/1 43/97/1 67/96/1 
f 43/97/1 68/98/1 67/96/1 
f 43/97/1 69/3/1 68/98/1 
f 59/45/1 67/96/1 70/1/1 
f 70/1/1 40/55/1 59/45/1 
f 70/1/1 69/3/1 40/55/1 
f 69/3/1 43/97/1 40/55/1 
f 39/97/3 52/21/3 59/66/3 
f 59/66/3 40/38/3 39/97/3 
f 41/34/3 56/64/3 47/23/3 
f 47/23/3 42/94/3 41/34/3 
f 6/21/6 37/97/6 36/55/6 
f 36/55/6 5/45/6 6/21/6 
f 36/55/6 71/99/6 5/45/6 
f 73/99/6 72/100/6 19/101/6 
f 19/101/6 17/102/6 73/99/6 
f 73/2/1 71/103/1 36/57/1 
f 36/57/1 72/4/1 73/2/1 
f 36/57/1 62/104/1 72/4/1 
f 71/103/1 73/2/1 61/105/1 
f 71/103/1 61/105/1 7/8/1 
f 7/8/1 5/6/1 71/103/1 
f 61/105/1 34/86/1 7/8/1 
f 61/105/1 62/104/1 34/86/1 
f 62/104/1 36/57/1 34/86/1 
f 2/107/6 4/106/6 65/108/6 
f 65/108/6 66/103/6 2/107/6 
f 69/90/3 70/89/3 18/109/3 
f 18/109/3 20/110/3 69/90/3 
f 74/92/3 3/111/3 1/112/3 
f 1/112/3 75/91/3 74/92/3 
f 75/18/4 55/113/4 56/114/4 
f 56/114/4 41/38/4 75/18/4 
f 41/38/4 74/20/4 75/18/4 
f 41/38/4 76/115/4 74/20/4 
f 55/113/4 75/18/4 77/116/4 
f 77/116/4 44/117/4 55/113/4 
f 77/116/4 76/115/4 44/117/4 
f 76/115/4 41/38/4 44/117/4 
f 67/119/2 77/118/2 75/120/2 
f 75/120/2 70/121/2 67/119/2 
f 75/120/2 1/122/2 70/121/2 
f 1/122/2 18/123/2 70/121/2 
f 18/123/2 1/122/2 2/124/2 
f 2/124/2 17/125/2 18/123/2 
f 63/126/2 17/125/2 2/124/2 
f 2/124/2 66/127/2 63/126/2 
f 17/125/2 63/126/2 61/128/2 
f 61/128/2 73/129/2 17/125/2 
f 67/99/6 68/100/6 76/108/6 
f 76/108/6 77/103/6 67/99/6 
f 76/131/5 68/130/5 69/132/5 
f 69/132/5 74/133/5 76/131/5 
f 69/132/5 20/134/5 74/133/5 
f 20/134/5 3/135/5 74/133/5 
f 3/135/5 20/134/5 19/136/5 
f 19/136/5 4/137/5 3/135/5 
f 62/138/5 4/137/5 19/136/5 
f 19/136/5 72/139/5 62/138/5 
f 4/137/5 62/138/5 64/140/5 
f 64/140/5 65/141/5 4/137/5 
