# Created by Kenney (www.kenney.nl) 

mtllib dryer.mtl 

g dryer

v -0.39 0 0.35 
v -0.05350879 0.05350879 0.35 
v 0 0 0.35 
v 0 0.47 0.35 
v -0.05350879 0.4164912 0.35 
v -0.3364912 0.4164912 0.35 
v -0.3364912 0.05350879 0.35 
v -0.39 0.47 0.35 
v 0 0.06255291 0 
v -0.2286465 0.1002045 0 
v -0.39 0.06255291 0 
v -0.26 0.1131915 0 
v -0.2869239 0.1338509 0 
v -0.3075833 0.1607748 0 
v -0.3205703 0.1921283 0 
v -0.39 0.3889967 0 
v -0.195 0.09577481 0 
v -0.325 0.2257748 0 
v -0.3205703 0.2594213 0 
v -0.3075833 0.2907748 0 
v -0.2869239 0.3176987 0 
v -0.26 0.3383581 0 
v -0.2286465 0.3513452 0 
v -0.195 0.3557748 0 
v -0.1613535 0.1002045 0 
v 0 0.3889967 0 
v -0.1613535 0.3513452 0 
v -0.13 0.3383581 0 
v -0.1030761 0.3176987 0 
v -0.0824167 0.2907748 0 
v -0.06942964 0.2594213 0 
v -0.065 0.2257748 0 
v -0.06942964 0.1921283 0 
v -0.0824167 0.1607748 0 
v -0.1030761 0.1338509 0 
v -0.13 0.1131915 0 
v -0.39 0 0.02 
v 0 0 0.02 
v -0.39 0.06255291 0.02 
v 0 0.06255291 0.02 
v -0.07331756 0.07891756 0.33 
v -0.3166824 0.07891756 0.33 
v -0.07331756 0.3910824 0.33 
v -0.3166824 0.3910824 0.33 
v 0 0.47 0.04251085 
v -0.39 0.47 0.04251085 
v 0 0.47 0.0191953 
v -0.39 0.47 0.0191953 
v -0.195 0.09577481 0.27 
v -0.1613535 0.1002045 0.27 
v -0.2286465 0.1002045 0.27 
v -0.13 0.1131915 0.27 
v -0.26 0.1131915 0.27 
v -0.1030761 0.1338509 0.27 
v -0.2869239 0.1338509 0.27 
v -0.0824167 0.1607748 0.27 
v -0.3075833 0.1607748 0.27 
v -0.06942964 0.1921283 0.27 
v -0.3205703 0.1921283 0.27 
v -0.065 0.2257748 0.27 
v -0.325 0.2257748 0.27 
v -0.3205703 0.2594213 0.27 
v -0.06942964 0.2594213 0.27 
v -0.0824167 0.2907748 0.27 
v -0.3075833 0.2907748 0.27 
v -0.1030761 0.3176987 0.27 
v -0.2869239 0.3176987 0.27 
v -0.13 0.3383581 0.27 
v -0.26 0.3383581 0.27 
v -0.2286465 0.3513452 0.27 
v -0.1613535 0.3513452 0.27 
v -0.195 0.3557748 0.27 
v -0.3730657 0.4054746 0.003904761 
v -0.3730657 0.4535221 0.01529054 
v -0.2491995 0.4535221 0.01529054 
v -0.06631232 0.4535221 0.01529054 
v -0.01693425 0.4535221 0.01529054 
v -0.01693425 0.4054746 0.003904761 
v -0.2491995 0.4054746 0.003904761 
v -0.06631232 0.4054746 0.003904761 
v -0.2437786 0.4072376 0.004322546 
v -0.2389044 0.4101424 0.005010872 
v -0.2348269 0.4140397 0.005934437 
v -0.2317551 0.41873 0.007045875 
v -0.2298467 0.4239725 0.008288183 
v -0.2291995 0.4294983 0.00959765 
v -0.2298467 0.4350243 0.01090712 
v -0.2317551 0.4402667 0.01214943 
v -0.2348269 0.444957 0.01326086 
v -0.2389044 0.4488543 0.01418443 
v -0.2437786 0.451759 0.01487275 

vn 0 0 1 
vn 0 0 -1 
vn 0 -1 0 
vn 0 0.6185091 0.7857777 
vn -0.7104954 0 0.7037019 
vn 0 -0.6185091 0.7857777 
vn 0.7104954 0 0.7037019 
vn 0 1 0 
vn 1 0 0 
vn -1 0 0 
vn 0.7071068 -0.7071068 0 
vn 0.8660254 -0.5 0 
vn 0.5 -0.8660254 0 
vn 0.258819 -0.9659258 0 
vn -0.258819 -0.9659258 0 
vn -0.5 -0.8660254 0 
vn -0.7071068 -0.7071068 0 
vn -0.8660254 -0.5 0 
vn -0.9659258 -0.258819 0 
vn -0.9659258 0.258819 0 
vn -0.8660254 0.5 0 
vn -0.7071068 0.7071068 0 
vn -0.5 0.8660254 0 
vn -0.258819 0.9659258 0 
vn 0.258819 0.9659258 0 
vn 0.5 0.8660254 0 
vn 0.7071068 0.7071068 0 
vn 0.8660254 0.5 0 
vn 0.9659258 0.258819 0 
vn 0.9659258 -0.258819 0 
vn 0 0.2305837 -0.9730525 

vt -15.35433 0 
vt -2.106645 2.106645 
vt 0 0 
vt 0 18.50394 
vt -2.106645 16.39729 
vt -13.24769 16.39729 
vt -13.24769 2.106645 
vt -15.35433 18.50394 
vt 0 2.462713 
vt 9.00183 3.945057 
vt 15.35433 2.462713 
vt 10.23622 4.456358 
vt 11.29622 5.269722 
vt 12.10958 6.329717 
vt 12.62088 7.564108 
vt 15.35433 15.31483 
vt 7.677166 3.770662 
vt 12.79528 8.888772 
vt 12.62088 10.21344 
vt 12.10958 11.44783 
vt 11.29622 12.50782 
vt 10.23622 13.32119 
vt 9.00183 13.83249 
vt 7.677166 14.00688 
vt 6.352501 3.945057 
vt 0 15.31483 
vt 6.352501 13.83249 
vt 5.11811 13.32119 
vt 4.058115 12.50782 
vt 3.244752 11.44783 
vt 2.73345 10.21344 
vt 2.559055 8.888772 
vt 2.73345 7.564108 
vt 3.244752 6.329717 
vt 4.058115 5.269722 
vt 5.11811 4.456358 
vt 15.35433 0 
vt 0 0.7874016 
vt -15.35433 0.7874016 
vt 0 13.77953 
vt -15.35433 13.77953 
vt -2.886518 3.106991 
vt -12.46781 3.106991 
vt -2.886518 15.39695 
vt -12.46781 15.39695 
vt -2.106645 -6.867407 
vt -13.24769 -6.867407 
vt -2.886518 -5.594344 
vt -12.46781 -5.594344 
vt 7.199596 3.106991 
vt 7.199596 15.39695 
vt 8.307839 2.106645 
vt 8.307839 16.39729 
vt -2.886518 20.13433 
vt -12.46781 20.13433 
vt -2.106645 21.40739 
vt -13.24769 21.40739 
vt -18.00447 15.39695 
vt -18.00447 3.106991 
vt -19.11271 16.39729 
vt -19.11271 2.106645 
vt 0 1.673656 
vt 15.35433 1.673656 
vt 15.35433 13.77953 
vt -1.673656 18.50394 
vt -0.7874016 2.462713 
vt -0.7874016 0 
vt -13.77953 0 
vt -13.77953 18.50394 
vt 0.7874016 -6.127913E-14 
vt 0.7874016 2.462713 
vt 13.77953 -6.127913E-14 
vt 1.673656 18.50394 
vt 13.77953 18.50394 
vt -1.085503E-27 15.31483 
vt 3.7643E-14 2.462713 
vt 0 0.7557205 
vt 15.35433 0.7557205 
vt 0.7557205 18.50394 
vt -0.7557205 18.50394 
vt 0 3.046422 
vt 0 1.710328 
vt -10.62992 3.046422 
vt -10.62992 1.710328 
vt -10.62992 -0.01151572 
vt 0 -0.01151572 
vt -10.62992 -1.347611 
vt 0 -1.347611 
vt -10.62992 -3.023143 
vt 0 -3.023143 
vt -10.62992 -4.359238 
vt 0 -4.359238 
vt -10.62992 -5.783221 
vt 0 -5.783221 
vt -10.62992 -7.119316 
vt 0 -7.119316 
vt 10.62992 8.103656 
vt 0 8.103656 
vt 10.62992 9.439752 
vt 0 9.439752 
vt 10.62992 9.826314 
vt 0 9.826314 
vt 10.62992 11.16241 
vt 0 11.16241 
vt 10.62992 10.8338 
vt 0 10.8338 
vt 10.62992 12.16989 
vt 0 12.16989 
vt 0 11.05745 
vt 0 12.39355 
vt 10.62992 11.05745 
vt 10.62992 12.39355 
vt 0 10.48203 
vt 0 11.81813 
vt 10.62992 10.48203 
vt 10.62992 11.81813 
vt 10.62992 9.146751 
vt 0 9.146751 
vt 0 7.142609 
vt 0 8.478703 
vt 10.62992 7.142609 
vt 10.62992 8.478703 
vt 0 4.606183 
vt 0 5.942278 
vt 10.62992 4.606183 
vt 10.62992 5.942278 
vt 10.62992 1.710328 
vt 10.62992 3.046422 
vt 10.62992 -0.01151572 
vt 10.62992 -1.347611 
vt 10.62992 -3.023143 
vt 10.62992 -4.359238 
vt 10.62992 -5.783221 
vt 10.62992 -7.119316 
vt -10.62992 8.103656 
vt -10.62992 9.439752 
vt -10.62992 9.826314 
vt -10.62992 11.16241 
vt -10.62992 10.8338 
vt -10.62992 12.16989 
vt -10.62992 12.39355 
vt -10.62992 11.05745 
vt -10.62992 11.81813 
vt -10.62992 10.48203 
vt 0 10.48285 
vt -10.62992 10.48285 
vt -10.62992 9.146751 
vt -10.62992 8.478703 
vt -10.62992 7.142609 
vt -10.62992 5.942278 
vt -10.62992 4.606183 
vt -2.407412E-35 14.90213 
vt 14.68763 15.56884 
vt 15.35433 14.90213 
vt 15.35433 18.17956 
vt 14.68763 17.51286 
vt 9.811005 17.51286 
vt 2.610721 17.51286 
vt 0.6667026 17.51286 
vt 0.6667026 15.56884 
vt -3.819862E-20 18.17956 
vt 9.811005 15.56884 
vt 2.610721 15.56884 
vt 9.597584 15.64017 
vt 9.405685 15.7577 
vt 9.245152 15.91539 
vt 9.124218 16.10515 
vt 9.049084 16.31727 
vt 9.023603 16.54085 
vt 9.049084 16.76443 
vt 9.124218 16.97654 
vt 9.245152 17.16631 
vt 9.405685 17.324 
vt 9.597584 17.44152 

usemtl metalLight

f 2/2/1 1/1/1 3/3/1 
f 3/3/1 4/4/1 2/2/1 
f 4/4/1 5/5/1 2/2/1 
f 4/4/1 6/6/1 5/5/1 
f 1/1/1 2/2/1 7/7/1 
f 7/7/1 8/8/1 1/1/1 
f 7/7/1 6/6/1 8/8/1 
f 6/6/1 4/4/1 8/8/1 
f 10/10/2 9/9/2 11/11/2 
f 11/11/2 12/12/2 10/10/2 
f 11/11/2 13/13/2 12/12/2 
f 11/11/2 14/14/2 13/13/2 
f 11/11/2 15/15/2 14/14/2 
f 11/11/2 16/16/2 15/15/2 
f 10/10/2 17/17/2 9/9/2 
f 16/16/2 18/18/2 15/15/2 
f 16/16/2 19/19/2 18/18/2 
f 16/16/2 20/20/2 19/19/2 
f 16/16/2 21/21/2 20/20/2 
f 16/16/2 22/22/2 21/21/2 
f 16/16/2 23/23/2 22/22/2 
f 16/16/2 24/24/2 23/23/2 
f 9/9/2 17/17/2 25/25/2 
f 24/24/2 16/16/2 26/26/2 
f 27/27/2 24/24/2 26/26/2 
f 28/28/2 27/27/2 26/26/2 
f 29/29/2 28/28/2 26/26/2 
f 30/30/2 29/29/2 26/26/2 
f 31/31/2 30/30/2 26/26/2 
f 32/32/2 31/31/2 26/26/2 
f 33/33/2 32/32/2 26/26/2 
f 33/33/2 26/26/2 9/9/2 
f 9/9/2 34/34/2 33/33/2 
f 9/9/2 35/35/2 34/34/2 
f 9/9/2 36/36/2 35/35/2 
f 9/9/2 25/25/2 36/36/2 
f 38/3/2 37/37/2 39/11/2 
f 39/11/2 40/9/2 38/3/2 
f 9/3/3 40/38/3 39/39/3 
f 39/39/3 11/1/3 9/3/3 
f 38/38/3 3/40/3 1/41/3 
f 1/41/3 37/39/3 38/38/3 
f 42/43/1 41/42/1 43/44/1 
f 43/44/1 44/45/1 42/43/1 
f 7/47/4 2/46/4 41/48/4 
f 41/48/4 42/49/4 7/47/4 
f 43/51/5 41/50/5 2/52/5 
f 2/52/5 5/53/5 43/51/5 
f 44/55/6 43/54/6 5/56/6 
f 5/56/6 6/57/6 44/55/6 
f 42/59/7 44/58/7 6/60/7 
f 6/60/7 7/61/7 42/59/7 
f 4/40/8 45/62/8 46/63/8 
f 46/63/8 8/64/8 4/40/8 
f 9/9/9 26/26/9 45/65/9 
f 45/65/9 40/66/9 9/9/9 
f 45/65/9 38/67/9 40/66/9 
f 45/65/9 3/68/9 38/67/9 
f 45/65/9 4/69/9 3/68/9 
f 39/71/10 37/70/10 1/72/10 
f 1/72/10 46/73/10 39/71/10 
f 1/72/10 8/74/10 46/73/10 
f 39/71/10 46/73/10 16/75/10 
f 16/75/10 11/76/10 39/71/10 

usemtl metalMedium

f 45/62/8 47/77/8 48/78/8 
f 48/78/8 46/63/8 45/62/8 
f 48/79/10 16/75/10 46/73/10 
f 26/26/9 47/80/9 45/65/9 
f 50/25/2 49/17/2 51/10/2 
f 51/10/2 52/36/2 50/25/2 
f 51/10/2 53/12/2 52/36/2 
f 53/12/2 54/35/2 52/36/2 
f 53/12/2 55/13/2 54/35/2 
f 55/13/2 56/34/2 54/35/2 
f 55/13/2 57/14/2 56/34/2 
f 57/14/2 58/33/2 56/34/2 
f 57/14/2 59/15/2 58/33/2 
f 59/15/2 60/32/2 58/33/2 
f 59/15/2 61/18/2 60/32/2 
f 61/18/2 62/19/2 60/32/2 
f 62/19/2 63/31/2 60/32/2 
f 62/19/2 64/30/2 63/31/2 
f 62/19/2 65/20/2 64/30/2 
f 65/20/2 66/29/2 64/30/2 
f 65/20/2 67/21/2 66/29/2 
f 67/21/2 68/28/2 66/29/2 
f 67/21/2 69/22/2 68/28/2 
f 69/22/2 70/23/2 68/28/2 
f 70/23/2 71/27/2 68/28/2 
f 70/23/2 72/24/2 71/27/2 
f 20/82/12 21/81/11 67/83/11 
f 67/83/11 65/84/12 20/82/12 
f 22/86/13 69/85/13 67/87/11 
f 67/87/11 21/88/11 22/86/13 
f 23/90/14 70/89/14 69/91/13 
f 69/91/13 22/92/13 23/90/14 
f 24/94/3 72/93/3 70/95/14 
f 70/95/14 23/96/14 24/94/3 
f 27/98/15 71/97/15 72/99/3 
f 72/99/3 24/100/3 27/98/15 
f 28/102/16 68/101/16 71/103/15 
f 71/103/15 27/104/15 28/102/16 
f 29/106/17 66/105/17 68/107/16 
f 68/107/16 28/108/16 29/106/17 
f 29/110/17 30/109/18 64/111/18 
f 64/111/18 66/112/17 29/110/17 
f 30/114/18 31/113/19 63/115/19 
f 63/115/19 64/116/18 30/114/18 
f 60/117/10 63/115/19 31/113/19 
f 31/113/19 32/118/10 60/117/10 
f 32/120/10 33/119/20 58/121/20 
f 58/121/20 60/122/10 32/120/10 
f 33/124/20 34/123/21 56/125/21 
f 56/125/21 58/126/20 33/124/20 
f 34/81/21 35/82/22 54/127/22 
f 54/127/22 56/128/21 34/81/21 
f 54/129/22 35/86/22 36/88/23 
f 36/88/23 52/130/23 54/129/22 
f 52/131/23 36/90/23 25/92/24 
f 25/92/24 50/132/24 52/131/23 
f 50/133/24 25/94/24 17/96/8 
f 17/96/8 49/134/8 50/133/24 
f 49/135/8 17/98/8 10/100/25 
f 10/100/25 51/136/25 49/135/8 
f 51/137/25 10/102/25 12/104/26 
f 12/104/26 53/138/26 51/137/25 
f 53/139/26 12/106/26 13/108/27 
f 13/108/27 55/140/27 53/139/26 
f 13/109/27 14/110/28 57/141/28 
f 57/141/28 55/142/27 13/109/27 
f 14/113/28 15/114/29 59/143/29 
f 59/143/29 57/144/28 14/113/28 
f 15/118/29 18/145/9 61/146/9 
f 61/146/9 59/147/29 15/118/29 
f 18/119/9 19/120/30 62/148/30 
f 62/148/30 61/149/9 18/119/9 
f 19/123/30 20/124/12 65/150/12 
f 65/150/12 62/151/30 19/123/30 
f 73/153/31 26/152/31 16/154/31 
f 16/154/31 48/155/31 73/153/31 
f 48/155/31 74/156/31 73/153/31 
f 48/155/31 75/157/31 74/156/31 
f 48/155/31 76/158/31 75/157/31 
f 48/155/31 77/159/31 76/158/31 
f 26/152/31 73/153/31 78/160/31 
f 78/160/31 47/161/31 26/152/31 
f 78/160/31 77/159/31 47/161/31 
f 77/159/31 48/155/31 47/161/31 
f 73/153/31 79/162/31 78/160/31 
f 79/162/31 80/163/31 78/160/31 
f 80/163/31 79/162/31 81/164/31 
f 81/164/31 76/158/31 80/163/31 
f 81/164/31 82/165/31 76/158/31 
f 82/165/31 83/166/31 76/158/31 
f 83/166/31 84/167/31 76/158/31 
f 84/167/31 85/168/31 76/158/31 
f 85/168/31 86/169/31 76/158/31 
f 86/169/31 87/170/31 76/158/31 
f 87/170/31 88/171/31 76/158/31 
f 88/171/31 89/172/31 76/158/31 
f 89/172/31 90/173/31 76/158/31 
f 90/173/31 91/174/31 76/158/31 
f 91/174/31 75/157/31 76/158/31 

usemtl metalDark

f 79/162/31 73/153/31 74/156/31 
f 74/156/31 81/164/31 79/162/31 
f 74/156/31 82/165/31 81/164/31 
f 74/156/31 83/166/31 82/165/31 
f 74/156/31 84/167/31 83/166/31 
f 74/156/31 85/168/31 84/167/31 
f 74/156/31 86/169/31 85/168/31 
f 74/156/31 87/170/31 86/169/31 
f 74/156/31 88/171/31 87/170/31 
f 74/156/31 89/172/31 88/171/31 
f 74/156/31 90/173/31 89/172/31 
f 74/156/31 91/174/31 90/173/31 
f 74/156/31 75/157/31 91/174/31 
f 78/160/31 80/163/31 76/158/31 
f 76/158/31 77/159/31 78/160/31 
g dryer




usemtl metalLight

f 2/2/1 1/1/1 3/3/1 
f 3/3/1 4/4/1 2/2/1 
f 4/4/1 5/5/1 2/2/1 
f 4/4/1 6/6/1 5/5/1 
f 1/1/1 2/2/1 7/7/1 
f 7/7/1 8/8/1 1/1/1 
f 7/7/1 6/6/1 8/8/1 
f 6/6/1 4/4/1 8/8/1 
f 10/10/2 9/9/2 11/11/2 
f 11/11/2 12/12/2 10/10/2 
f 11/11/2 13/13/2 12/12/2 
f 11/11/2 14/14/2 13/13/2 
f 11/11/2 15/15/2 14/14/2 
f 11/11/2 16/16/2 15/15/2 
f 10/10/2 17/17/2 9/9/2 
f 16/16/2 18/18/2 15/15/2 
f 16/16/2 19/19/2 18/18/2 
f 16/16/2 20/20/2 19/19/2 
f 16/16/2 21/21/2 20/20/2 
f 16/16/2 22/22/2 21/21/2 
f 16/16/2 23/23/2 22/22/2 
f 16/16/2 24/24/2 23/23/2 
f 9/9/2 17/17/2 25/25/2 
f 24/24/2 16/16/2 26/26/2 
f 27/27/2 24/24/2 26/26/2 
f 28/28/2 27/27/2 26/26/2 
f 29/29/2 28/28/2 26/26/2 
f 30/30/2 29/29/2 26/26/2 
f 31/31/2 30/30/2 26/26/2 
f 32/32/2 31/31/2 26/26/2 
f 33/33/2 32/32/2 26/26/2 
f 33/33/2 26/26/2 9/9/2 
f 9/9/2 34/34/2 33/33/2 
f 9/9/2 35/35/2 34/34/2 
f 9/9/2 36/36/2 35/35/2 
f 9/9/2 25/25/2 36/36/2 
f 38/3/2 37/37/2 39/11/2 
f 39/11/2 40/9/2 38/3/2 
f 9/3/3 40/38/3 39/39/3 
f 39/39/3 11/1/3 9/3/3 
f 38/38/3 3/40/3 1/41/3 
f 1/41/3 37/39/3 38/38/3 
f 42/43/1 41/42/1 43/44/1 
f 43/44/1 44/45/1 42/43/1 
f 7/47/4 2/46/4 41/48/4 
f 41/48/4 42/49/4 7/47/4 
f 43/51/5 41/50/5 2/52/5 
f 2/52/5 5/53/5 43/51/5 
f 44/55/6 43/54/6 5/56/6 
f 5/56/6 6/57/6 44/55/6 
f 42/59/7 44/58/7 6/60/7 
f 6/60/7 7/61/7 42/59/7 
f 4/40/8 45/62/8 46/63/8 
f 46/63/8 8/64/8 4/40/8 
f 9/9/9 26/26/9 45/65/9 
f 45/65/9 40/66/9 9/9/9 
f 45/65/9 38/67/9 40/66/9 
f 45/65/9 3/68/9 38/67/9 
f 45/65/9 4/69/9 3/68/9 
f 39/71/10 37/70/10 1/72/10 
f 1/72/10 46/73/10 39/71/10 
f 1/72/10 8/74/10 46/73/10 
f 39/71/10 46/73/10 16/75/10 
f 16/75/10 11/76/10 39/71/10 

usemtl metalMedium

f 45/62/8 47/77/8 48/78/8 
f 48/78/8 46/63/8 45/62/8 
f 48/79/10 16/75/10 46/73/10 
f 26/26/9 47/80/9 45/65/9 
f 50/25/2 49/17/2 51/10/2 
f 51/10/2 52/36/2 50/25/2 
f 51/10/2 53/12/2 52/36/2 
f 53/12/2 54/35/2 52/36/2 
f 53/12/2 55/13/2 54/35/2 
f 55/13/2 56/34/2 54/35/2 
f 55/13/2 57/14/2 56/34/2 
f 57/14/2 58/33/2 56/34/2 
f 57/14/2 59/15/2 58/33/2 
f 59/15/2 60/32/2 58/33/2 
f 59/15/2 61/18/2 60/32/2 
f 61/18/2 62/19/2 60/32/2 
f 62/19/2 63/31/2 60/32/2 
f 62/19/2 64/30/2 63/31/2 
f 62/19/2 65/20/2 64/30/2 
f 65/20/2 66/29/2 64/30/2 
f 65/20/2 67/21/2 66/29/2 
f 67/21/2 68/28/2 66/29/2 
f 67/21/2 69/22/2 68/28/2 
f 69/22/2 70/23/2 68/28/2 
f 70/23/2 71/27/2 68/28/2 
f 70/23/2 72/24/2 71/27/2 
f 20/82/12 21/81/11 67/83/11 
f 67/83/11 65/84/12 20/82/12 
f 22/86/13 69/85/13 67/87/11 
f 67/87/11 21/88/11 22/86/13 
f 23/90/14 70/89/14 69/91/13 
f 69/91/13 22/92/13 23/90/14 
f 24/94/3 72/93/3 70/95/14 
f 70/95/14 23/96/14 24/94/3 
f 27/98/15 71/97/15 72/99/3 
f 72/99/3 24/100/3 27/98/15 
f 28/102/16 68/101/16 71/103/15 
f 71/103/15 27/104/15 28/102/16 
f 29/106/17 66/105/17 68/107/16 
f 68/107/16 28/108/16 29/106/17 
f 29/110/17 30/109/18 64/111/18 
f 64/111/18 66/112/17 29/110/17 
f 30/114/18 31/113/19 63/115/19 
f 63/115/19 64/116/18 30/114/18 
f 60/117/10 63/115/19 31/113/19 
f 31/113/19 32/118/10 60/117/10 
f 32/120/10 33/119/20 58/121/20 
f 58/121/20 60/122/10 32/120/10 
f 33/124/20 34/123/21 56/125/21 
f 56/125/21 58/126/20 33/124/20 
f 34/81/21 35/82/22 54/127/22 
f 54/127/22 56/128/21 34/81/21 
f 54/129/22 35/86/22 36/88/23 
f 36/88/23 52/130/23 54/129/22 
f 52/131/23 36/90/23 25/92/24 
f 25/92/24 50/132/24 52/131/23 
f 50/133/24 25/94/24 17/96/8 
f 17/96/8 49/134/8 50/133/24 
f 49/135/8 17/98/8 10/100/25 
f 10/100/25 51/136/25 49/135/8 
f 51/137/25 10/102/25 12/104/26 
f 12/104/26 53/138/26 51/137/25 
f 53/139/26 12/106/26 13/108/27 
f 13/108/27 55/140/27 53/139/26 
f 13/109/27 14/110/28 57/141/28 
f 57/141/28 55/142/27 13/109/27 
f 14/113/28 15/114/29 59/143/29 
f 59/143/29 57/144/28 14/113/28 
f 15/118/29 18/145/9 61/146/9 
f 61/146/9 59/147/29 15/118/29 
f 18/119/9 19/120/30 62/148/30 
f 62/148/30 61/149/9 18/119/9 
f 19/123/30 20/124/12 65/150/12 
f 65/150/12 62/151/30 19/123/30 
f 73/153/31 26/152/31 16/154/31 
f 16/154/31 48/155/31 73/153/31 
f 48/155/31 74/156/31 73/153/31 
f 48/155/31 75/157/31 74/156/31 
f 48/155/31 76/158/31 75/157/31 
f 48/155/31 77/159/31 76/158/31 
f 26/152/31 73/153/31 78/160/31 
f 78/160/31 47/161/31 26/152/31 
f 78/160/31 77/159/31 47/161/31 
f 77/159/31 48/155/31 47/161/31 
f 73/153/31 79/162/31 78/160/31 
f 79/162/31 80/163/31 78/160/31 
f 80/163/31 79/162/31 81/164/31 
f 81/164/31 76/158/31 80/163/31 
f 81/164/31 82/165/31 76/158/31 
f 82/165/31 83/166/31 76/158/31 
f 83/166/31 84/167/31 76/158/31 
f 84/167/31 85/168/31 76/158/31 
f 85/168/31 86/169/31 76/158/31 
f 86/169/31 87/170/31 76/158/31 
f 87/170/31 88/171/31 76/158/31 
f 88/171/31 89/172/31 76/158/31 
f 89/172/31 90/173/31 76/158/31 
f 90/173/31 91/174/31 76/158/31 
f 91/174/31 75/157/31 76/158/31 

usemtl metalDark

f 79/162/31 73/153/31 74/156/31 
f 74/156/31 81/164/31 79/162/31 
f 74/156/31 82/165/31 81/164/31 
f 74/156/31 83/166/31 82/165/31 
f 74/156/31 84/167/31 83/166/31 
f 74/156/31 85/168/31 84/167/31 
f 74/156/31 86/169/31 85/168/31 
f 74/156/31 87/170/31 86/169/31 
f 74/156/31 88/171/31 87/170/31 
f 74/156/31 89/172/31 88/171/31 
f 74/156/31 90/173/31 89/172/31 
f 74/156/31 91/174/31 90/173/31 
f 74/156/31 75/157/31 91/174/31 
f 78/160/31 80/163/31 76/158/31 
f 76/158/31 77/159/31 78/160/31 
g dryerDoor

v -0.2899195 0.2743897 -0.02 
v -0.325 0.2743897 -0.02 
v -0.325 0.2743897 -0.03 
v -0.335 0.2743897 -0.03 
v -0.325 0.2743897 0 
v -0.335 0.2743897 0 
v -0.065 0.3557748 -0.02 
v -0.065 0.3557748 0 
v -0.325 0.3557748 -0.02 
v -0.325 0.3557748 0 
v -0.065 0.09577481 -0.02 
v -0.065 0.09577481 0 
v -0.325 0.1771599 0 
v -0.2877377 0.1330371 0 
v -0.325 0.09577481 0 
v -0.1022623 0.1330371 0 
v -0.2877377 0.1771599 0 
v -0.2877377 0.185996 0 
v -0.335 0.185996 0 
v -0.335 0.1771599 0 
v -0.325 0.185996 0 
v -0.2877377 0.2655536 0 
v -0.325 0.2655536 0 
v -0.1022623 0.3185125 0 
v -0.2877377 0.3185125 0 
v -0.335 0.2655536 0 
v -0.2877377 0.2743897 0 
v -0.325 0.185996 -0.02116391 
v -0.335 0.185996 -0.02116391 
v -0.335 0.1771599 -0.03 
v -0.335 0.2655536 -0.02116391 
v -0.325 0.1771599 -0.03 
v -0.2899195 0.1771599 -0.02 
v -0.325 0.09577481 -0.02 
v -0.325 0.1771599 -0.02 
v -0.325 0.2655536 -0.02116391 
v -0.1152456 0.1460204 0.04 
v -0.2747544 0.1460204 0.04 
v -0.1152456 0.3055292 0.04 
v -0.2747544 0.183966 0.04 
v -0.2747544 0.1915651 0.04 
v -0.2747544 0.2599846 0.04 
v -0.2747544 0.2675836 0.04 
v -0.2747544 0.3055292 0.04 

vn 0.2741385 0 -0.9616902 
vn -0.9511509 0 0.3087263 
vn 0 0.9511509 0.3087263 
vn 0.9511509 0 0.3087263 
vn 0 -0.9511509 0.3087263 

vt 8.8551 -0.7874016 
vt 10.23622 -0.7874016 
vt 10.23622 -1.181102 
vt 10.62992 -1.181102 
vt 10.23622 -5.961192E-17 
vt 10.62992 -5.961192E-17 
vt 0 -0.7874016 
vt 10.23622 0 
vt 0.7874016 5.11811 
vt 0.7874016 -5.11811 
vt 0 5.11811 
vt 0 -5.11811 
vt -10.23622 -1.913972 
vt -8.769199 -3.651089 
vt -10.23622 -5.11811 
vt -1.467021 -3.651089 
vt -8.769199 -1.913972 
vt -8.769199 -1.566094 
vt -10.62992 -1.566094 
vt -10.62992 -1.913972 
vt -10.23622 -1.566094 
vt -8.769199 1.566094 
vt -10.23622 1.566094 
vt -1.467021 3.651089 
vt -8.769199 3.651089 
vt -10.62992 1.913972 
vt -10.62992 1.566094 
vt -10.23622 1.913972 
vt -8.769199 1.913972 
vt -10.23622 5.11811 
vt 10.23622 -0.8332246 
vt 10.23622 3.603455E-31 
vt 10.62992 -0.8332246 
vt 10.62992 3.603455E-31 
vt -0.7874016 1.913972 
vt -0.7874016 5.11811 
vt 5.542233E-13 1.913972 
vt 5.542233E-13 5.11811 
vt -1.181102 1.913972 
vt -0.8332246 -1.566094 
vt -1.181102 -1.913972 
vt 3.783011E-13 -1.913972 
vt 3.783011E-13 -1.566094 
vt -0.8332246 1.566094 
vt 3.783011E-13 1.913972 
vt 3.783011E-13 1.566094 
vt 10.16786 -1.913972 
vt 8.73172 -1.913972 
vt 10.16786 1.913972 
vt 8.73172 1.913972 
vt -0.7874016 -5.11811 
vt -0.7874016 -1.913972 
vt 1.847411E-13 -5.11811 
vt 1.847411E-13 -1.913972 
vt 10.62992 -1.913972 
vt 10.23622 -1.913972 
vt 10.62992 1.913972 
vt 10.23622 1.913972 
vt 1.745813E-13 -1.566094 
vt 1.745813E-13 1.566094 
vt -10.23622 -0.8332246 
vt -10.62992 -0.8332246 
vt -10.23622 7.229631E-28 
vt -10.62992 7.229631E-28 
vt -8.8551 -0.7874016 
vt -10.23622 -1.181102 
vt -10.23622 -0.7874016 
vt -10.23622 5.961192E-17 
vt -10.62992 -1.181102 
vt -10.62992 5.961192E-17 
vt 8.8551 1.913972 
vt 10.23622 5.11811 
vt 8.8551 -1.913972 
vt 10.23622 -5.11811 
vt -10.23622 0 
vt -1.978173 -3.139937 
vt -8.258047 -3.139937 
vt -1.978173 3.139937 
vt -8.258047 -1.646016 
vt -8.258047 -1.346841 
vt -8.258047 1.346841 
vt -8.258047 1.646016 
vt -8.258047 3.139937 
vt -2.707283 -3.651089 
vt -2.707283 -1.913972 
vt -1.051601 -3.139937 
vt -1.051601 -1.646016 
vt -2.707283 -1.566094 
vt -1.051601 -1.346841 
vt -2.707283 1.566094 
vt -1.051601 1.346841 
vt -2.707283 1.913972 
vt -1.051601 1.646016 
vt -2.707283 3.651089 
vt -1.051601 3.139937 
vt -1.467021 1.127187 
vt -1.978173 -0.5284944 
vt -8.769199 1.127187 
vt -8.258047 -0.5284944 
vt -0.452908 3.651089 
vt -0.452908 -3.651089 
vt -2.10859 3.139937 
vt -2.10859 -3.139937 
vt -1.467021 -1.127187 
vt -8.769199 -1.127187 
vt -1.978173 0.5284944 
vt -8.258047 0.5284944 

usemtl metalLight

f 93/176/8 92/175/8 94/177/8 
f 94/177/8 95/178/8 93/176/8 
f 95/178/8 96/179/8 93/176/8 
f 95/178/8 97/180/8 96/179/8 
f 99/3/8 98/181/8 100/176/8 
f 100/176/8 101/182/8 99/3/8 
f 102/184/9 98/183/9 99/185/9 
f 99/185/9 103/186/9 102/184/9 
f 105/188/1 104/187/1 106/189/1 
f 106/189/1 107/190/1 105/188/1 
f 105/188/1 108/191/1 104/187/1 
f 108/191/1 109/192/1 104/187/1 
f 104/187/1 109/192/1 110/193/1 
f 110/193/1 111/194/1 104/187/1 
f 109/192/1 112/195/1 110/193/1 
f 109/192/1 113/196/1 112/195/1 
f 113/196/1 114/197/1 112/195/1 
f 107/190/1 106/189/1 103/186/1 
f 103/186/1 99/185/1 107/190/1 
f 99/185/1 115/198/1 107/190/1 
f 99/185/1 116/199/1 115/198/1 
f 114/197/1 113/196/1 97/200/1 
f 97/200/1 117/201/1 114/197/1 
f 113/196/1 96/202/1 97/200/1 
f 113/196/1 118/203/1 96/202/1 
f 118/203/1 101/204/1 96/202/1 
f 118/203/1 116/199/1 101/204/1 
f 116/199/1 99/185/1 101/204/1 
f 112/206/8 119/205/8 120/207/8 
f 120/207/8 110/208/8 112/206/8 
f 100/210/10 93/209/10 96/211/10 
f 96/211/10 101/212/10 100/210/10 
f 120/214/10 95/213/10 121/215/10 
f 121/215/10 111/216/10 120/214/10 
f 111/216/10 110/217/10 120/214/10 
f 95/213/10 120/214/10 122/218/10 
f 122/218/10 97/219/10 95/213/10 
f 122/218/10 117/220/10 97/219/10 
f 124/222/32 123/221/32 94/223/32 
f 94/223/32 92/224/32 124/222/32 
f 126/226/10 125/225/10 106/227/10 
f 106/227/10 104/228/10 126/226/10 
f 123/230/2 121/229/2 95/231/2 
f 95/231/2 94/232/2 123/230/2 
f 122/201/1 120/193/1 119/195/1 
f 119/195/1 127/197/1 122/201/1 
f 127/218/10 119/214/10 112/233/10 
f 112/233/10 114/234/10 127/218/10 
f 122/236/3 127/235/3 114/237/3 
f 114/237/3 117/238/3 122/236/3 
f 123/240/3 124/239/3 126/241/3 
f 126/241/3 104/242/3 123/240/3 
f 104/242/3 121/243/3 123/240/3 
f 104/242/3 111/244/3 121/243/3 
f 92/245/2 93/232/2 100/246/2 
f 92/245/2 100/246/2 98/185/2 
f 124/247/2 92/245/2 98/185/2 
f 124/247/2 98/185/2 102/186/2 
f 126/230/2 124/247/2 102/186/2 
f 102/186/2 125/248/2 126/230/2 
f 102/181/3 103/3/3 106/249/3 
f 106/249/3 125/241/3 102/181/3 
f 129/251/1 128/250/1 130/252/1 
f 130/252/1 131/253/1 129/251/1 
f 130/252/1 132/254/1 131/253/1 
f 130/252/1 133/255/1 132/254/1 
f 130/252/1 134/256/1 133/255/1 
f 130/252/1 135/257/1 134/256/1 
f 108/259/33 105/258/33 129/260/33 
f 129/260/33 131/261/33 108/259/33 
f 109/262/33 108/259/33 131/261/33 
f 131/261/33 132/263/33 109/262/33 
f 113/264/33 109/262/33 132/263/33 
f 132/263/33 133/265/33 113/264/33 
f 118/266/33 113/264/33 133/265/33 
f 133/265/33 134/267/33 118/266/33 
f 116/268/33 118/266/33 134/267/33 
f 134/267/33 135/269/33 116/268/33 
f 130/271/34 115/270/34 116/272/34 
f 116/272/34 135/273/34 130/271/34 
f 107/275/35 115/274/35 130/276/35 
f 130/276/35 128/277/35 107/275/35 
f 105/279/36 107/278/36 128/280/36 
f 128/280/36 129/281/36 105/279/36 
