# Created by Kenney (www.kenney.nl) 

mtllib hoodModern.mtl 

g hoodModern

v 0 -0.03 0.2849 
v 0 0 0 
v -0.43 -0.03 0.2849 
v -0.43 0 0 
v -0.43 0.06 0 
v 1.443823E-15 0.06 0 
v 1.443823E-15 0.06 0.2849 
v -0.43 0.06 0.2849 
v -0.12 0.3695317 0.2 
v -0.12 0.3695317 0.2849 
v -0.31 0.3695317 0.2 
v -0.31 0.3695317 0.2849 
v -0.12 0.06 0.2849 
v -0.31 0.06 0.2849 
v -0.31 0.06 0.16 
v -0.12 0.06 0.16 

vn 0 -0.9945016 -0.1047211 
vn 0 0 -1 
vn 1 0 0 
vn -1 0 0 
vn 0 1 0 
vn 0 0 1 
vn 0 0.1281617 -0.9917532 

vt 2.780862E-16 -11.27855 
vt 0 0 
vt 16.92913 -11.27855 
vt 16.92913 4.174082E-16 
vt 16.92913 0 
vt 16.92913 2.362205 
vt -5.684342E-14 2.362205 
vt -5.539854E-29 2.362205 
vt -11.21654 2.362205 
vt -11.21654 -1.181102 
vt 0 2.362205 
vt 11.21654 -1.181102 
vt 11.21654 2.362205 
vt 4.72441 7.874016 
vt 4.72441 11.21654 
vt 12.20472 7.874016 
vt 12.20472 11.21654 
vt -4.72441 2.362205 
vt -12.20472 2.362205 
vt -4.72441 14.54849 
vt -12.20472 14.54849 
vt 12.20472 3.150043 
vt 4.72441 3.150043 
vt 12.20472 15.43766 
vt 4.72441 15.43766 
vt -5.684342E-14 11.21654 
vt 4.72441 6.299212 
vt -5.684342E-14 0 
vt 12.20472 6.299212 
vt 16.92913 11.21654 
vt -6.299212 2.362205 
vt -7.874016 14.54849 
vt -11.21654 14.54849 
vt 6.299212 2.362205 
vt 7.874016 14.54849 
vt 11.21654 14.54849 

usemtl metalMedium

f 2/2/1 1/1/1 3/3/1 
f 3/3/1 4/4/1 2/2/1 
f 2/2/2 4/5/2 5/6/2 
f 5/6/2 6/7/2 2/2/2 
f 2/2/3 6/8/3 7/9/3 
f 7/9/3 1/10/3 2/2/3 
f 5/11/4 4/2/4 3/12/4 
f 3/12/4 8/13/4 5/11/4 
f 10/15/5 9/14/5 11/16/5 
f 11/16/5 12/17/5 10/15/5 
f 14/19/6 13/18/6 10/20/6 
f 10/20/6 12/21/6 14/19/6 
f 16/23/7 15/22/7 11/24/7 
f 11/24/7 9/25/7 16/23/7 
f 16/27/5 7/26/5 6/28/5 
f 6/28/5 5/5/5 16/27/5 
f 5/5/5 15/29/5 16/27/5 
f 5/5/5 14/17/5 15/29/5 
f 5/5/5 8/30/5 14/17/5 
f 7/26/5 16/27/5 13/15/5 
f 13/9/3 16/31/3 9/32/3 
f 9/32/3 10/33/3 13/9/3 
f 11/35/4 15/34/4 14/13/4 
f 14/13/4 12/36/4 11/35/4 

usemtl _defaultMat

f 3/12/6 1/13/6 7/11/6 
f 7/12/6 8/13/6 3/11/6 
f 7/12/6 13/13/6 8/11/6 
f 13/12/6 14/13/6 8/11/6 
g hoodModern




usemtl metalMedium

f 2/2/1 1/1/1 3/3/1 
f 3/3/1 4/4/1 2/2/1 
f 2/2/2 4/5/2 5/6/2 
f 5/6/2 6/7/2 2/2/2 
f 2/2/3 6/8/3 7/9/3 
f 7/9/3 1/10/3 2/2/3 
f 5/11/4 4/2/4 3/12/4 
f 3/12/4 8/13/4 5/11/4 
f 10/15/5 9/14/5 11/16/5 
f 11/16/5 12/17/5 10/15/5 
f 14/19/6 13/18/6 10/20/6 
f 10/20/6 12/21/6 14/19/6 
f 16/23/7 15/22/7 11/24/7 
f 11/24/7 9/25/7 16/23/7 
f 16/27/5 7/26/5 6/28/5 
f 6/28/5 5/5/5 16/27/5 
f 5/5/5 15/29/5 16/27/5 
f 5/5/5 14/17/5 15/29/5 
f 5/5/5 8/30/5 14/17/5 
f 7/26/5 16/27/5 13/15/5 
f 13/9/3 16/31/3 9/32/3 
f 9/32/3 10/33/3 13/9/3 
f 11/35/4 15/34/4 14/13/4 
f 14/13/4 12/36/4 11/35/4 

usemtl _defaultMat

f 3/12/6 1/13/6 7/11/6 
f 7/12/6 8/13/6 3/11/6 
f 7/12/6 13/13/6 8/11/6 
f 13/12/6 14/13/6 8/11/6 
