# Created by Kenney (www.kenney.nl) 

mtllib kitchenCabinetCornerRound.mtl 

g kitchenCabinetCornerRound

v 0 0.39 0.45 
v 0 0.39 0.3292284 
v -0.02 0.39 0.45 
v -0.002816594 0.39 0.2862554 
v -0.01121818 0.39 0.2440178 
v -0.02 0.39 0.334596 
v -0.02506102 0.39 0.2032381 
v -0.02269141 0.39 0.293533 
v -0.0307196 0.39 0.2531726 
v -0.04410824 0.39 0.1646142 
v -0.0439472 0.39 0.2142053 
v -0.06214787 0.39 0.177298 
v -0.06803395 0.39 0.1288068 
v -0.08501021 0.39 0.1430821 
v -0.09642876 0.39 0.09642876 
v -0.112143 0.39 0.112143 
v -0.1288068 0.39 0.06803395 
v -0.1430821 0.39 0.08501021 
v -0.1646142 0.39 0.04410824 
v -0.177298 0.39 0.06214787 
v -0.2032381 0.39 0.02506102 
v -0.2142053 0.39 0.0439472 
v -0.2440178 0.39 0.01121818 
v -0.2531726 0.39 0.0307196 
v -0.2862554 0.39 0.002816594 
v -0.293533 0.39 0.02269141 
v -0.3292284 0.39 0 
v -0.334596 0.39 0.02 
v -0.45 0.39 0 
v -0.45 0.39 0.02 
v -0.09642876 0.42 0.09642876 
v -0.06803395 0.42 0.1288068 
v -0.1288068 0.42 0.06803395 
v -0.45 0.42 0 
v -0.45 0.42 0.42 
v -0.45 0.39 0.45 
v -0.45 0.45 0.42 
v -0.45 0.45 0.45 
v -0.3292284 0.42 0 
v -0.2862554 0.42 0.002816594 
v -0.2440178 0.42 0.01121818 
v -0.02506102 0.42 0.2032381 
v -0.01121818 0.42 0.2440178 
v -0.2032381 0.42 0.02506102 
v -0.04410824 0.42 0.1646142 
v -0.002816594 0.42 0.2862554 
v 0 0.42 0.3292284 
v -0.1646142 0.42 0.04410824 
v 0 0.42 0.45 
v -0.42 0.42 0.45 
v -0.42 0.45 0.45 
v -0.42 0.45 0.42 
v -0.42 0.42 0.42 
v -0.45 0.05824186 0.02 
v -0.334596 0.05824186 0.02 
v -0.0307196 0.05824186 0.2531726 
v -0.02269141 0.05824186 0.293533 
v -0.08501021 0.05824186 0.1430821 
v -0.06214787 0.05824186 0.177298 
v -0.177298 0.05824186 0.06214787 
v -0.1430821 0.05824186 0.08501021 
v -0.02 0.05824186 0.45 
v -0.04 0.05824186 0.45 
v -0.45 0 0.45 
v -0.04 0 0.45 
v -0.0439472 0.05824186 0.2142053 
v -0.112143 0.05824186 0.112143 
v -0.293533 0.05824186 0.02269141 
v -0.2531726 0.05824186 0.0307196 
v -0.02 0.05824186 0.334596 
v -0.04 0.05824186 0.3399636 
v -0.04256623 0.05824186 0.3008105 
v -0.05022101 0.05824186 0.2623273 
v -0.06283338 0.05824186 0.2251725 
v -0.08018751 0.05824186 0.1899818 
v -0.1019865 0.05824186 0.1573573 
v -0.1278573 0.05824186 0.1278573 
v -0.1573573 0.05824186 0.1019865 
v -0.1899818 0.05824186 0.08018751 
v -0.2142053 0.05824186 0.0439472 
v -0.2251725 0.05824186 0.06283338 
v -0.2623273 0.05824186 0.05022101 
v -0.3008105 0.05824186 0.04256623 
v -0.3399636 0.05824186 0.04 
v -0.45 0.05824186 0.04 
v -0.45 0 0.04 
v -0.06283338 0 0.2251725 
v -0.05022101 0 0.2623273 
v -0.2623273 0 0.05022101 
v -0.2251725 0 0.06283338 
v -0.1019865 0 0.1573573 
v -0.08018751 0 0.1899818 
v -0.04256623 0 0.3008105 
v -0.04 0 0.3399636 
v -0.3399636 0 0.04 
v -0.3008105 0 0.04256623 
v -0.1899818 0 0.08018751 
v -0.1278573 0 0.1278573 
v -0.1573573 0 0.1019865 

vn 0 -1 0 
vn 0.7071068 0 -0.7071068 
vn 0.7933533 0 -0.6087614 
vn 0.6087614 0 -0.7933533 
vn -1 0 0 
vn 0 0 -1 
vn 0.1305262 0 -0.9914449 
vn 0.258819 0 -0.9659258 
vn 0.9238795 0 -0.3826834 
vn 0.9659258 0 -0.258819 
vn 0.3826834 0 -0.9238795 
vn 0.8660254 0 -0.5 
vn 0.9914449 0 -0.1305262 
vn 0.9978589 0 -0.06540313 
vn 0.06540313 0 -0.9978589 
vn 0.5 0 -0.8660254 
vn 1 0 0 
vn 0 0 1 
vn 0 1 0 

vt 0 17.71654 
vt 0 12.96175 
vt -0.7874016 17.71654 
vt -0.1108895 11.2699 
vt -0.4416608 9.607 
vt -0.7874016 13.17307 
vt -0.9866543 8.001501 
vt -0.8933627 11.55642 
vt -1.209433 9.967424 
vt -1.736545 6.480874 
vt -1.730205 8.433281 
vt -2.446767 6.980237 
vt -2.678502 5.071136 
vt -3.346859 5.633153 
vt -3.796408 3.796408 
vt -4.41508 4.41508 
vt -5.071136 2.678502 
vt -5.633153 3.346859 
vt -6.480874 1.736545 
vt -6.980237 2.446767 
vt -8.001501 0.9866543 
vt -8.433281 1.730205 
vt -9.607 0.4416608 
vt -9.967424 1.209433 
vt -11.2699 0.1108895 
vt -11.55642 0.8933627 
vt -12.96175 0 
vt -13.17307 0.7874016 
vt -17.71654 0 
vt -17.71654 0.7874016 
vt -0.3511449 16.53543 
vt -0.3511449 15.35433 
vt -2.046623 16.53543 
vt -2.046623 15.35433 
vt 2.046623 15.35433 
vt 0.3511449 15.35433 
vt 2.046623 16.53543 
vt 0.3511449 16.53543 
vt -2.003447E-14 15.35433 
vt -2.003447E-14 16.53543 
vt 0.7874016 15.35433 
vt 16.53543 16.53543 
vt 17.71654 15.35433 
vt 16.53543 17.71654 
vt 17.71654 17.71654 
vt 12.96175 15.35433 
vt 17.71654 16.53543 
vt 12.96175 16.53543 
vt 11.03172 15.35433 
vt 9.336241 15.35433 
vt 11.03172 16.53543 
vt 9.336241 16.53543 
vt -7.259713 16.53543 
vt -7.259713 15.35433 
vt -8.955191 16.53543 
vt -8.955191 15.35433 
vt 8.955191 15.35433 
vt 7.259713 15.35433 
vt 8.955191 16.53543 
vt 7.259713 16.53543 
vt -5.044465 16.53543 
vt -5.044465 15.35433 
vt -6.739943 16.53543 
vt -6.739943 15.35433 
vt -2.728399 16.53543 
vt -2.728399 15.35433 
vt -4.423877 16.53543 
vt -4.423877 15.35433 
vt -9.336241 16.53543 
vt -9.336241 15.35433 
vt -11.03172 16.53543 
vt -11.03172 15.35433 
vt -11.23852 16.53543 
vt -11.23852 15.35433 
vt -12.934 16.53543 
vt -12.934 15.35433 
vt 12.934 15.35433 
vt 11.23852 15.35433 
vt 12.934 16.53543 
vt 11.23852 16.53543 
vt 4.423877 15.35433 
vt 2.728399 15.35433 
vt 4.423877 16.53543 
vt 2.728399 16.53543 
vt 6.739943 15.35433 
vt 5.044465 15.35433 
vt 6.739943 16.53543 
vt 5.044465 16.53543 
vt -12.96175 16.53543 
vt -12.96175 15.35433 
vt -17.71654 16.53543 
vt -17.71654 15.35433 
vt 7.236887E-08 15.35433 
vt -0.7874015 15.35433 
vt 7.236887E-08 16.53543 
vt -17.71654 15.35433 
vt -16.53543 16.53543 
vt -17.71654 17.71654 
vt -16.53543 17.71654 
vt 12.96175 -4.555591E-15 
vt 17.71654 -4.555591E-15 
vt 11.2699 0.1108895 
vt 9.607 0.4416608 
vt 8.001501 0.9866543 
vt 6.480874 1.736545 
vt 5.071136 2.678502 
vt 3.796408 3.796408 
vt 2.678502 5.071136 
vt 1.736545 6.480874 
vt 0.9866543 8.001501 
vt 0.4416608 9.607 
vt 0.1108895 11.2699 
vt -4.555591E-15 17.71654 
vt -4.555591E-15 12.96175 
vt 17.71654 2.292987 
vt 13.17307 2.292987 
vt 13.17307 15.35433 
vt -9.539954 15.35433 
vt -9.539954 2.292987 
vt -11.16008 15.35433 
vt -11.16008 2.292987 
vt -2.824381 15.35433 
vt -2.824381 2.292987 
vt -4.444504 15.35433 
vt -4.444504 2.292987 
vt 4.444504 2.292987 
vt 2.824381 2.292987 
vt 4.444504 15.35433 
vt 2.824381 15.35433 
vt -0.7874016 2.292987 
vt -1.574803 2.292987 
vt -17.71654 -6.722722E-14 
vt -1.574803 -6.722722E-14 
vt -5.178206 15.35433 
vt -5.178206 2.292987 
vt -6.79833 15.35433 
vt -6.79833 2.292987 
vt -0.4083684 15.35433 
vt -0.4083684 2.292987 
vt -2.028491 15.35433 
vt -2.028491 2.292987 
vt 11.16008 2.292987 
vt 9.539954 2.292987 
vt 11.16008 15.35433 
vt 9.539954 15.35433 
vt 2.028491 2.292987 
vt 0.4083684 2.292987 
vt 2.028491 15.35433 
vt 0.4083684 15.35433 
vt -11.47324 15.35433 
vt -11.47324 2.292987 
vt -13.09337 15.35433 
vt -13.09337 2.292987 
vt -1.574803 17.71654 
vt -1.574803 13.38439 
vt -1.675836 11.84293 
vt -1.977205 10.32785 
vt -2.473755 8.86506 
vt -3.156988 7.479599 
vt -4.015216 6.195171 
vt -5.033752 5.033752 
vt -6.195171 4.015216 
vt -7.479599 3.156988 
vt -8.86506 2.473755 
vt -10.32785 1.977205 
vt -11.84293 1.675836 
vt -13.38439 1.574803 
vt -17.71654 1.574803 
vt 1.574803 1.284579E-13 
vt 1.574803 2.292987 
vt 17.71654 1.284579E-13 
vt 0.7874016 2.292987 
vt -7.429572 15.35433 
vt -7.429572 2.292987 
vt -9.049695 15.35433 
vt -9.049695 2.292987 
vt -13.17307 15.35433 
vt -13.17307 2.292987 
vt -17.71654 2.292987 
vt 13.09337 2.292987 
vt 11.47324 2.292987 
vt 13.09337 15.35433 
vt 11.47324 15.35433 
vt 9.049695 2.292987 
vt 7.429572 2.292987 
vt 9.049695 15.35433 
vt 7.429572 15.35433 
vt 6.79833 2.292987 
vt 5.178206 2.292987 
vt 6.79833 15.35433 
vt 5.178206 15.35433 
vt -7.59943 2.292987 
vt -7.59943 0 
vt -9.144198 2.292987 
vt -9.144198 0 
vt 9.144198 0 
vt 7.59943 0 
vt 9.144198 2.292987 
vt 7.59943 2.292987 
vt -2.920362 2.292987 
vt -2.920362 0 
vt -4.46513 2.292987 
vt -4.46513 0 
vt -11.70797 2.292987 
vt -11.70797 0 
vt -13.25274 2.292987 
vt -13.25274 0 
vt 13.25274 0 
vt 11.70797 0 
vt 13.25274 2.292987 
vt 11.70797 2.292987 
vt 17.71654 0 
vt 13.38439 0 
vt 13.38439 2.292987 
vt 6.856717 0 
vt 5.311948 0 
vt 6.856717 2.292987 
vt 5.311948 2.292987 
vt -13.38439 2.292987 
vt -13.38439 0 
vt -0.4655919 2.292987 
vt -0.4655919 0 
vt -2.01036 2.292987 
vt -2.01036 0 
vt -9.743668 2.292987 
vt -9.743668 0 
vt -11.28844 2.292987 
vt -11.28844 0 
vt -5.311948 2.292987 
vt -5.311948 0 
vt -6.856717 2.292987 
vt -6.856717 0 
vt 11.28844 0 
vt 9.743668 0 
vt 11.28844 2.292987 
vt 9.743668 2.292987 
vt 4.46513 0 
vt 2.920362 0 
vt 4.46513 2.292987 
vt 2.920362 2.292987 
vt 2.01036 0 
vt 0.4655919 0 
vt 2.01036 2.292987 
vt 0.4655919 2.292987 

usemtl metal

f 2/2/1 1/1/1 3/3/1 
f 3/3/1 4/4/1 2/2/1 
f 3/3/1 5/5/1 4/4/1 
f 3/3/1 6/6/1 5/5/1 
f 6/6/1 7/7/1 5/5/1 
f 6/6/1 8/8/1 7/7/1 
f 8/8/1 9/9/1 7/7/1 
f 9/9/1 10/10/1 7/7/1 
f 9/9/1 11/11/1 10/10/1 
f 11/11/1 12/12/1 10/10/1 
f 12/12/1 13/13/1 10/10/1 
f 12/12/1 14/14/1 13/13/1 
f 14/14/1 15/15/1 13/13/1 
f 14/14/1 16/16/1 15/15/1 
f 16/16/1 17/17/1 15/15/1 
f 16/16/1 18/18/1 17/17/1 
f 18/18/1 19/19/1 17/17/1 
f 18/18/1 20/20/1 19/19/1 
f 20/20/1 21/21/1 19/19/1 
f 20/20/1 22/22/1 21/21/1 
f 22/22/1 23/23/1 21/21/1 
f 22/22/1 24/24/1 23/23/1 
f 24/24/1 25/25/1 23/23/1 
f 24/24/1 26/26/1 25/25/1 
f 26/26/1 27/27/1 25/25/1 
f 26/26/1 28/28/1 27/27/1 
f 28/28/1 29/29/1 27/27/1 
f 28/28/1 30/30/1 29/29/1 
f 15/32/2 31/31/2 32/33/3 
f 32/33/3 13/34/3 15/32/2 
f 15/36/2 17/35/4 33/37/4 
f 33/37/4 31/38/2 15/36/2 
f 34/40/5 29/39/5 30/41/5 
f 30/41/5 35/42/5 34/40/5 
f 30/41/5 36/43/5 35/42/5 
f 36/43/5 37/44/5 35/42/5 
f 36/43/5 38/45/5 37/44/5 
f 27/46/6 29/43/6 34/47/6 
f 34/47/6 39/48/6 27/46/6 
f 23/50/8 25/49/7 40/51/7 
f 40/51/7 41/52/8 23/50/8 
f 7/54/9 42/53/9 43/55/10 
f 43/55/10 5/56/10 7/54/9 
f 21/58/11 23/57/8 41/59/8 
f 41/59/8 44/60/11 21/58/11 
f 10/62/12 45/61/12 42/63/9 
f 42/63/9 7/64/9 10/62/12 
f 13/66/3 32/65/3 45/67/12 
f 45/67/12 10/68/12 13/66/3 
f 5/70/10 43/69/10 46/71/13 
f 46/71/13 4/72/13 5/70/10 
f 4/74/13 46/73/13 47/75/14 
f 47/75/14 2/76/14 4/74/13 
f 25/78/7 27/77/15 39/79/15 
f 39/79/15 40/80/7 25/78/7 
f 17/82/4 19/81/16 48/83/16 
f 48/83/16 33/84/4 17/82/4 
f 19/86/16 21/85/11 44/87/11 
f 44/87/11 48/88/16 19/86/16 
f 2/90/17 47/89/17 49/91/17 
f 49/91/17 1/92/17 2/90/17 
f 3/94/18 1/93/18 49/95/18 
f 49/95/18 36/96/18 3/94/18 
f 49/95/18 50/97/18 36/96/18 
f 38/98/18 36/96/18 50/97/18 
f 50/97/18 51/99/18 38/98/18 
f 53/97/17 52/99/17 51/98/17 
f 51/98/17 50/91/17 53/97/17 
f 53/42/6 35/47/6 37/45/6 
f 37/45/6 52/44/6 53/42/6 
f 53/42/19 39/100/19 34/101/19 
f 34/101/19 35/47/19 53/42/19 
f 39/100/19 53/42/19 50/44/19 
f 40/102/19 39/100/19 50/44/19 
f 41/103/19 40/102/19 50/44/19 
f 44/104/19 41/103/19 50/44/19 
f 48/105/19 44/104/19 50/44/19 
f 33/106/19 48/105/19 50/44/19 
f 31/107/19 33/106/19 50/44/19 
f 32/108/19 31/107/19 50/44/19 
f 45/109/19 32/108/19 50/44/19 
f 42/110/19 45/109/19 50/44/19 
f 43/111/19 42/110/19 50/44/19 
f 46/112/19 43/111/19 50/44/19 
f 46/112/19 50/44/19 49/113/19 
f 49/113/19 47/114/19 46/112/19 
f 51/44/19 52/42/19 37/47/19 
f 37/47/19 38/45/19 51/44/19 

usemtl wood

f 55/116/6 54/115/6 30/43/6 
f 30/43/6 28/117/6 55/116/6 
f 56/119/10 9/118/10 8/120/13 
f 8/120/13 57/121/13 56/119/10 
f 58/123/3 14/122/3 12/124/12 
f 12/124/12 59/125/12 58/123/3 
f 61/127/4 60/126/16 20/128/16 
f 20/128/16 18/129/4 61/127/4 
f 63/131/18 62/130/18 3/94/18 
f 63/131/18 3/94/18 36/96/18 
f 63/131/18 36/96/18 64/132/18 
f 64/132/18 65/133/18 63/131/18 
f 59/135/12 12/134/12 11/136/9 
f 11/136/9 66/137/9 59/135/12 
f 67/139/2 16/138/2 14/140/3 
f 14/140/3 58/141/3 67/139/2 
f 69/143/8 68/142/7 26/144/7 
f 26/144/7 24/145/8 69/143/8 
f 67/147/2 61/146/4 18/148/4 
f 18/148/4 16/149/2 67/147/2 
f 57/151/13 8/150/13 6/152/14 
f 6/152/14 70/153/14 57/151/13 
f 70/6/1 62/3/1 63/154/1 
f 63/154/1 57/8/1 70/6/1 
f 63/154/1 56/9/1 57/8/1 
f 63/154/1 71/155/1 56/9/1 
f 71/155/1 66/11/1 56/9/1 
f 71/155/1 72/156/1 66/11/1 
f 72/156/1 73/157/1 66/11/1 
f 73/157/1 59/12/1 66/11/1 
f 73/157/1 74/158/1 59/12/1 
f 74/158/1 58/14/1 59/12/1 
f 74/158/1 75/159/1 58/14/1 
f 75/159/1 76/160/1 58/14/1 
f 76/160/1 67/16/1 58/14/1 
f 76/160/1 77/161/1 67/16/1 
f 77/161/1 61/18/1 67/16/1 
f 77/161/1 78/162/1 61/18/1 
f 78/162/1 60/20/1 61/18/1 
f 78/162/1 79/163/1 60/20/1 
f 79/163/1 80/22/1 60/20/1 
f 79/163/1 81/164/1 80/22/1 
f 81/164/1 69/24/1 80/22/1 
f 81/164/1 82/165/1 69/24/1 
f 82/165/1 68/26/1 69/24/1 
f 82/165/1 83/166/1 68/26/1 
f 83/166/1 55/28/1 68/26/1 
f 83/166/1 84/167/1 55/28/1 
f 84/167/1 54/30/1 55/28/1 
f 84/167/1 85/168/1 54/30/1 
f 85/170/5 86/169/5 64/171/5 
f 64/171/5 36/43/5 85/170/5 
f 85/170/5 36/43/5 30/41/5 
f 30/41/5 54/172/5 85/170/5 
f 66/174/9 11/173/9 9/175/10 
f 9/175/10 56/176/10 66/174/9 
f 70/178/17 6/177/17 3/92/17 
f 3/92/17 62/179/17 70/178/17 
f 68/181/7 55/180/15 28/182/15 
f 28/182/15 26/183/7 68/181/7 
f 80/185/11 69/184/8 24/186/8 
f 24/186/8 22/187/11 80/185/11 
f 60/189/16 80/188/11 22/190/11 
f 22/190/11 20/191/16 60/189/16 
f 87/193/9 74/192/9 73/194/10 
f 73/194/10 88/195/10 87/193/9 
f 90/197/11 89/196/8 82/198/8 
f 82/198/8 81/199/11 90/197/11 
f 91/201/3 76/200/3 75/202/12 
f 75/202/12 92/203/12 91/201/3 
f 93/205/13 72/204/13 71/206/14 
f 71/206/14 94/207/14 93/205/13 
f 96/209/7 95/208/15 84/210/15 
f 84/210/15 83/211/7 96/209/7 
f 95/213/6 86/212/6 85/115/6 
f 85/115/6 84/214/6 95/213/6 
f 97/216/16 90/215/11 81/217/11 
f 81/217/11 79/218/16 97/216/16 
f 94/220/17 71/219/17 63/179/17 
f 63/179/17 65/29/17 94/220/17 
f 98/222/2 77/221/2 76/223/3 
f 76/223/3 91/224/3 98/222/2 
f 88/226/10 73/225/10 72/227/13 
f 72/227/13 93/228/13 88/226/10 
f 92/230/12 75/229/12 74/231/9 
f 74/231/9 87/232/9 92/230/12 
f 89/234/8 96/233/7 83/235/7 
f 83/235/7 82/236/8 89/234/8 
f 94/155/1 65/154/1 64/98/1 
f 64/98/1 93/156/1 94/155/1 
f 64/98/1 88/157/1 93/156/1 
f 64/98/1 87/158/1 88/157/1 
f 64/98/1 92/159/1 87/158/1 
f 64/98/1 91/160/1 92/159/1 
f 64/98/1 98/161/1 91/160/1 
f 64/98/1 99/162/1 98/161/1 
f 64/98/1 97/163/1 99/162/1 
f 64/98/1 90/164/1 97/163/1 
f 64/98/1 89/165/1 90/164/1 
f 64/98/1 96/166/1 89/165/1 
f 64/98/1 95/167/1 96/166/1 
f 64/98/1 86/168/1 95/167/1 
f 99/238/4 97/237/16 79/239/16 
f 79/239/16 78/240/4 99/238/4 
f 98/242/2 99/241/4 78/243/4 
f 78/243/4 77/244/2 98/242/2 
g kitchenCabinetCornerRound




usemtl metal

f 2/2/1 1/1/1 3/3/1 
f 3/3/1 4/4/1 2/2/1 
f 3/3/1 5/5/1 4/4/1 
f 3/3/1 6/6/1 5/5/1 
f 6/6/1 7/7/1 5/5/1 
f 6/6/1 8/8/1 7/7/1 
f 8/8/1 9/9/1 7/7/1 
f 9/9/1 10/10/1 7/7/1 
f 9/9/1 11/11/1 10/10/1 
f 11/11/1 12/12/1 10/10/1 
f 12/12/1 13/13/1 10/10/1 
f 12/12/1 14/14/1 13/13/1 
f 14/14/1 15/15/1 13/13/1 
f 14/14/1 16/16/1 15/15/1 
f 16/16/1 17/17/1 15/15/1 
f 16/16/1 18/18/1 17/17/1 
f 18/18/1 19/19/1 17/17/1 
f 18/18/1 20/20/1 19/19/1 
f 20/20/1 21/21/1 19/19/1 
f 20/20/1 22/22/1 21/21/1 
f 22/22/1 23/23/1 21/21/1 
f 22/22/1 24/24/1 23/23/1 
f 24/24/1 25/25/1 23/23/1 
f 24/24/1 26/26/1 25/25/1 
f 26/26/1 27/27/1 25/25/1 
f 26/26/1 28/28/1 27/27/1 
f 28/28/1 29/29/1 27/27/1 
f 28/28/1 30/30/1 29/29/1 
f 15/32/2 31/31/2 32/33/3 
f 32/33/3 13/34/3 15/32/2 
f 15/36/2 17/35/4 33/37/4 
f 33/37/4 31/38/2 15/36/2 
f 34/40/5 29/39/5 30/41/5 
f 30/41/5 35/42/5 34/40/5 
f 30/41/5 36/43/5 35/42/5 
f 36/43/5 37/44/5 35/42/5 
f 36/43/5 38/45/5 37/44/5 
f 27/46/6 29/43/6 34/47/6 
f 34/47/6 39/48/6 27/46/6 
f 23/50/8 25/49/7 40/51/7 
f 40/51/7 41/52/8 23/50/8 
f 7/54/9 42/53/9 43/55/10 
f 43/55/10 5/56/10 7/54/9 
f 21/58/11 23/57/8 41/59/8 
f 41/59/8 44/60/11 21/58/11 
f 10/62/12 45/61/12 42/63/9 
f 42/63/9 7/64/9 10/62/12 
f 13/66/3 32/65/3 45/67/12 
f 45/67/12 10/68/12 13/66/3 
f 5/70/10 43/69/10 46/71/13 
f 46/71/13 4/72/13 5/70/10 
f 4/74/13 46/73/13 47/75/14 
f 47/75/14 2/76/14 4/74/13 
f 25/78/7 27/77/15 39/79/15 
f 39/79/15 40/80/7 25/78/7 
f 17/82/4 19/81/16 48/83/16 
f 48/83/16 33/84/4 17/82/4 
f 19/86/16 21/85/11 44/87/11 
f 44/87/11 48/88/16 19/86/16 
f 2/90/17 47/89/17 49/91/17 
f 49/91/17 1/92/17 2/90/17 
f 3/94/18 1/93/18 49/95/18 
f 49/95/18 36/96/18 3/94/18 
f 49/95/18 50/97/18 36/96/18 
f 38/98/18 36/96/18 50/97/18 
f 50/97/18 51/99/18 38/98/18 
f 53/97/17 52/99/17 51/98/17 
f 51/98/17 50/91/17 53/97/17 
f 53/42/6 35/47/6 37/45/6 
f 37/45/6 52/44/6 53/42/6 
f 53/42/19 39/100/19 34/101/19 
f 34/101/19 35/47/19 53/42/19 
f 39/100/19 53/42/19 50/44/19 
f 40/102/19 39/100/19 50/44/19 
f 41/103/19 40/102/19 50/44/19 
f 44/104/19 41/103/19 50/44/19 
f 48/105/19 44/104/19 50/44/19 
f 33/106/19 48/105/19 50/44/19 
f 31/107/19 33/106/19 50/44/19 
f 32/108/19 31/107/19 50/44/19 
f 45/109/19 32/108/19 50/44/19 
f 42/110/19 45/109/19 50/44/19 
f 43/111/19 42/110/19 50/44/19 
f 46/112/19 43/111/19 50/44/19 
f 46/112/19 50/44/19 49/113/19 
f 49/113/19 47/114/19 46/112/19 
f 51/44/19 52/42/19 37/47/19 
f 37/47/19 38/45/19 51/44/19 

usemtl wood

f 55/116/6 54/115/6 30/43/6 
f 30/43/6 28/117/6 55/116/6 
f 56/119/10 9/118/10 8/120/13 
f 8/120/13 57/121/13 56/119/10 
f 58/123/3 14/122/3 12/124/12 
f 12/124/12 59/125/12 58/123/3 
f 61/127/4 60/126/16 20/128/16 
f 20/128/16 18/129/4 61/127/4 
f 63/131/18 62/130/18 3/94/18 
f 63/131/18 3/94/18 36/96/18 
f 63/131/18 36/96/18 64/132/18 
f 64/132/18 65/133/18 63/131/18 
f 59/135/12 12/134/12 11/136/9 
f 11/136/9 66/137/9 59/135/12 
f 67/139/2 16/138/2 14/140/3 
f 14/140/3 58/141/3 67/139/2 
f 69/143/8 68/142/7 26/144/7 
f 26/144/7 24/145/8 69/143/8 
f 67/147/2 61/146/4 18/148/4 
f 18/148/4 16/149/2 67/147/2 
f 57/151/13 8/150/13 6/152/14 
f 6/152/14 70/153/14 57/151/13 
f 70/6/1 62/3/1 63/154/1 
f 63/154/1 57/8/1 70/6/1 
f 63/154/1 56/9/1 57/8/1 
f 63/154/1 71/155/1 56/9/1 
f 71/155/1 66/11/1 56/9/1 
f 71/155/1 72/156/1 66/11/1 
f 72/156/1 73/157/1 66/11/1 
f 73/157/1 59/12/1 66/11/1 
f 73/157/1 74/158/1 59/12/1 
f 74/158/1 58/14/1 59/12/1 
f 74/158/1 75/159/1 58/14/1 
f 75/159/1 76/160/1 58/14/1 
f 76/160/1 67/16/1 58/14/1 
f 76/160/1 77/161/1 67/16/1 
f 77/161/1 61/18/1 67/16/1 
f 77/161/1 78/162/1 61/18/1 
f 78/162/1 60/20/1 61/18/1 
f 78/162/1 79/163/1 60/20/1 
f 79/163/1 80/22/1 60/20/1 
f 79/163/1 81/164/1 80/22/1 
f 81/164/1 69/24/1 80/22/1 
f 81/164/1 82/165/1 69/24/1 
f 82/165/1 68/26/1 69/24/1 
f 82/165/1 83/166/1 68/26/1 
f 83/166/1 55/28/1 68/26/1 
f 83/166/1 84/167/1 55/28/1 
f 84/167/1 54/30/1 55/28/1 
f 84/167/1 85/168/1 54/30/1 
f 85/170/5 86/169/5 64/171/5 
f 64/171/5 36/43/5 85/170/5 
f 85/170/5 36/43/5 30/41/5 
f 30/41/5 54/172/5 85/170/5 
f 66/174/9 11/173/9 9/175/10 
f 9/175/10 56/176/10 66/174/9 
f 70/178/17 6/177/17 3/92/17 
f 3/92/17 62/179/17 70/178/17 
f 68/181/7 55/180/15 28/182/15 
f 28/182/15 26/183/7 68/181/7 
f 80/185/11 69/184/8 24/186/8 
f 24/186/8 22/187/11 80/185/11 
f 60/189/16 80/188/11 22/190/11 
f 22/190/11 20/191/16 60/189/16 
f 87/193/9 74/192/9 73/194/10 
f 73/194/10 88/195/10 87/193/9 
f 90/197/11 89/196/8 82/198/8 
f 82/198/8 81/199/11 90/197/11 
f 91/201/3 76/200/3 75/202/12 
f 75/202/12 92/203/12 91/201/3 
f 93/205/13 72/204/13 71/206/14 
f 71/206/14 94/207/14 93/205/13 
f 96/209/7 95/208/15 84/210/15 
f 84/210/15 83/211/7 96/209/7 
f 95/213/6 86/212/6 85/115/6 
f 85/115/6 84/214/6 95/213/6 
f 97/216/16 90/215/11 81/217/11 
f 81/217/11 79/218/16 97/216/16 
f 94/220/17 71/219/17 63/179/17 
f 63/179/17 65/29/17 94/220/17 
f 98/222/2 77/221/2 76/223/3 
f 76/223/3 91/224/3 98/222/2 
f 88/226/10 73/225/10 72/227/13 
f 72/227/13 93/228/13 88/226/10 
f 92/230/12 75/229/12 74/231/9 
f 74/231/9 87/232/9 92/230/12 
f 89/234/8 96/233/7 83/235/7 
f 83/235/7 82/236/8 89/234/8 
f 94/155/1 65/154/1 64/98/1 
f 64/98/1 93/156/1 94/155/1 
f 64/98/1 88/157/1 93/156/1 
f 64/98/1 87/158/1 88/157/1 
f 64/98/1 92/159/1 87/158/1 
f 64/98/1 91/160/1 92/159/1 
f 64/98/1 98/161/1 91/160/1 
f 64/98/1 99/162/1 98/161/1 
f 64/98/1 97/163/1 99/162/1 
f 64/98/1 90/164/1 97/163/1 
f 64/98/1 89/165/1 90/164/1 
f 64/98/1 96/166/1 89/165/1 
f 64/98/1 95/167/1 96/166/1 
f 64/98/1 86/168/1 95/167/1 
f 99/238/4 97/237/16 79/239/16 
f 79/239/16 78/240/4 99/238/4 
f 98/242/2 99/241/4 78/243/4 
f 78/243/4 77/244/2 98/242/2 
