# Created by Kenney (www.kenney.nl) 

mtllib kitchenFridge.mtl 

g kitchenFridge

v 0 0 0.2819339 
v 0 0 0.04 
v -0.43 0 0.2819339 
v -0.43 0 0.04 
v 0 0.92 0.02 
v 0 0.92 0.2819339 
v -0.43 0.92 0.02 
v -0.43 0.92 0.2819339 
v 0 0.05998001 0.02 
v 0 0.05998001 0.04 
v -0.07792911 0.07792911 0.2819339 
v -0.07792911 0.6156727 0.2819339 
v -0.3520709 0.6156727 0.2819339 
v -0.3520709 0.07792911 0.2819339 
v -0.43 0.05998001 0.04 
v -0.43 0.05998001 0.02 
v -0.4031558 0.7168242 0.25 
v -0.02684418 0.7168242 0.25 
v -0.4031558 0.8931558 0.25 
v -0.02684418 0.8931558 0.25 
v -0.02684418 0.8931558 0.02 
v -0.4031558 0.8931558 0.02 
v -0.02684418 0.08682419 0.02 
v -0.02684418 0.08682419 0.25 
v -0.4031558 0.08682419 0.02 
v -0.4031558 0.08682419 0.25 
v -0.02684418 0.68998 0.25 
v -0.4031558 0.68998 0.25 
v -0.02684418 0.7168242 0.05 
v -0.4031558 0.7168242 0.05 
v -0.4031558 0.68998 0.05 
v -0.02684418 0.68998 0.05 

vn 0 -1 0 
vn 0 1 0 
vn 1 0 0 
vn 0 0 1 
vn -1 0 0 
vn 0 0 -1 

vt 0 11.09976 
vt 0 1.574803 
vt -16.92913 11.09976 
vt -16.92913 1.574803 
vt 0 0.7874016 
vt 16.92913 0.7874016 
vt 16.92913 11.09976 
vt -0.7874016 36.22047 
vt -0.7874016 2.361418 
vt -11.09976 36.22047 
vt -1.574803 2.361418 
vt -1.574803 0 
vt -11.09976 0 
vt -16.92913 0 
vt -3.068075 3.068075 
vt 0 0 
vt 0 36.22047 
vt -3.068075 24.23908 
vt -13.86106 24.23908 
vt -13.86106 3.068075 
vt -16.92913 36.22047 
vt 1.574803 0 
vt 1.574803 2.361418 
vt 11.09976 0 
vt 11.09976 36.22047 
vt 0.7874016 36.22047 
vt 0.7874016 2.361418 
vt 16.92913 0 
vt 16.92913 2.361418 
vt 0 2.361418 
vt -16.92913 0.7874016 
vt 15.87228 28.22142 
vt 1.056858 28.22142 
vt 15.87228 35.16362 
vt 1.056858 35.16362 
vt -1.056858 9.84252 
vt -1.056858 0.7874016 
vt -15.87228 9.84252 
vt -15.87228 0.7874016 
vt 1.056858 0.7874016 
vt 1.056858 9.84252 
vt 15.87228 0.7874016 
vt 15.87228 9.84252 
vt 15.87228 3.418275 
vt 16.92913 36.22047 
vt 1.056858 3.418275 
vt -1.056858 27.16457 
vt -15.87228 27.16457 
vt -1.056858 28.22142 
vt -15.87228 28.22142 
vt 1.056858 1.968504 
vt 15.87228 1.968504 
vt 15.87228 27.16457 
vt 1.056858 27.16457 
vt -1.968504 28.22142 
vt -1.968504 27.16457 
vt -9.84252 28.22142 
vt -9.84252 27.16457 
vt -9.84252 35.16362 
vt -0.7874016 35.16362 
vt -0.7874016 3.418275 
vt -9.84252 3.418275 
vt 9.84252 35.16362 
vt 1.968504 28.22142 
vt 0.7874016 35.16362 
vt 1.968504 27.16457 
vt 9.84252 28.22142 
vt 0.7874016 3.418275 
vt 9.84252 3.418275 
vt 9.84252 27.16457 
vt -1.056858 1.968504 
vt -15.87228 1.968504 

usemtl metalLight

f 2/2/1 1/1/1 3/3/1 
f 3/3/1 4/4/1 2/2/1 
f 6/1/2 5/5/2 7/6/2 
f 7/6/2 8/7/2 6/1/2 
f 9/9/3 5/8/3 6/10/3 
f 6/10/3 10/11/3 9/9/3 
f 6/10/3 2/12/3 10/11/3 
f 6/10/3 1/13/3 2/12/3 
f 11/15/4 3/14/4 1/16/4 
f 1/16/4 6/17/4 11/15/4 
f 6/17/4 12/18/4 11/15/4 
f 6/17/4 13/19/4 12/18/4 
f 3/14/4 11/15/4 14/20/4 
f 14/20/4 8/21/4 3/14/4 
f 14/20/4 13/19/4 8/21/4 
f 13/19/4 6/17/4 8/21/4 
f 15/23/5 4/22/5 3/24/5 
f 15/23/5 3/24/5 8/25/5 
f 15/23/5 8/25/5 7/26/5 
f 7/26/5 16/27/5 15/23/5 
f 2/16/6 4/28/6 15/29/6 
f 15/29/6 10/30/6 2/16/6 
f 9/5/1 10/2/1 15/4/1 
f 15/4/1 16/31/1 9/5/1 
f 18/33/6 17/32/6 19/34/6 
f 19/34/6 20/35/6 18/33/6 
f 21/37/1 20/36/1 19/38/1 
f 19/38/1 22/39/1 21/37/1 
f 24/41/2 23/40/2 25/42/2 
f 25/42/2 26/43/2 24/41/2 
f 25/44/6 9/30/6 16/29/6 
f 16/29/6 7/45/6 25/44/6 
f 7/45/6 22/34/6 25/44/6 
f 7/45/6 21/35/6 22/34/6 
f 9/30/6 25/44/6 23/46/6 
f 23/46/6 5/17/6 9/30/6 
f 23/46/6 21/35/6 5/17/6 
f 21/35/6 7/45/6 5/17/6 
f 28/48/4 27/47/4 18/49/4 
f 18/49/4 17/50/4 28/48/4 
f 18/41/2 29/51/2 30/52/2 
f 30/52/2 17/43/2 18/41/2 
f 24/46/6 26/44/6 28/53/6 
f 28/53/6 27/54/6 24/46/6 
f 31/56/3 30/55/3 17/57/3 
f 17/57/3 28/58/3 31/56/3 
f 19/59/3 17/57/3 30/55/3 
f 22/60/3 19/59/3 30/55/3 
f 30/55/3 25/61/3 22/60/3 
f 25/61/3 30/55/3 31/56/3 
f 31/56/3 26/62/3 25/61/3 
f 31/56/3 28/58/3 26/62/3 
f 29/64/5 20/63/5 21/65/5 
f 21/65/5 32/66/5 29/64/5 
f 29/64/5 18/67/5 20/63/5 
f 32/66/5 21/65/5 23/68/5 
f 23/68/5 24/69/5 32/66/5 
f 24/69/5 27/70/5 32/66/5 
f 29/64/5 32/66/5 27/70/5 
f 27/70/5 18/67/5 29/64/5 
f 32/54/6 31/53/6 30/32/6 
f 30/32/6 29/33/6 32/54/6 
f 32/71/1 27/36/1 28/38/1 
f 28/38/1 31/72/1 32/71/1 

usemtl metalDark

f 14/20/4 11/15/4 12/18/4 
f 12/18/4 13/19/4 14/20/4 
g kitchenFridge




usemtl metalLight

f 2/2/1 1/1/1 3/3/1 
f 3/3/1 4/4/1 2/2/1 
f 6/1/2 5/5/2 7/6/2 
f 7/6/2 8/7/2 6/1/2 
f 9/9/3 5/8/3 6/10/3 
f 6/10/3 10/11/3 9/9/3 
f 6/10/3 2/12/3 10/11/3 
f 6/10/3 1/13/3 2/12/3 
f 11/15/4 3/14/4 1/16/4 
f 1/16/4 6/17/4 11/15/4 
f 6/17/4 12/18/4 11/15/4 
f 6/17/4 13/19/4 12/18/4 
f 3/14/4 11/15/4 14/20/4 
f 14/20/4 8/21/4 3/14/4 
f 14/20/4 13/19/4 8/21/4 
f 13/19/4 6/17/4 8/21/4 
f 15/23/5 4/22/5 3/24/5 
f 15/23/5 3/24/5 8/25/5 
f 15/23/5 8/25/5 7/26/5 
f 7/26/5 16/27/5 15/23/5 
f 2/16/6 4/28/6 15/29/6 
f 15/29/6 10/30/6 2/16/6 
f 9/5/1 10/2/1 15/4/1 
f 15/4/1 16/31/1 9/5/1 
f 18/33/6 17/32/6 19/34/6 
f 19/34/6 20/35/6 18/33/6 
f 21/37/1 20/36/1 19/38/1 
f 19/38/1 22/39/1 21/37/1 
f 24/41/2 23/40/2 25/42/2 
f 25/42/2 26/43/2 24/41/2 
f 25/44/6 9/30/6 16/29/6 
f 16/29/6 7/45/6 25/44/6 
f 7/45/6 22/34/6 25/44/6 
f 7/45/6 21/35/6 22/34/6 
f 9/30/6 25/44/6 23/46/6 
f 23/46/6 5/17/6 9/30/6 
f 23/46/6 21/35/6 5/17/6 
f 21/35/6 7/45/6 5/17/6 
f 28/48/4 27/47/4 18/49/4 
f 18/49/4 17/50/4 28/48/4 
f 18/41/2 29/51/2 30/52/2 
f 30/52/2 17/43/2 18/41/2 
f 24/46/6 26/44/6 28/53/6 
f 28/53/6 27/54/6 24/46/6 
f 31/56/3 30/55/3 17/57/3 
f 17/57/3 28/58/3 31/56/3 
f 19/59/3 17/57/3 30/55/3 
f 22/60/3 19/59/3 30/55/3 
f 30/55/3 25/61/3 22/60/3 
f 25/61/3 30/55/3 31/56/3 
f 31/56/3 26/62/3 25/61/3 
f 31/56/3 28/58/3 26/62/3 
f 29/64/5 20/63/5 21/65/5 
f 21/65/5 32/66/5 29/64/5 
f 29/64/5 18/67/5 20/63/5 
f 32/66/5 21/65/5 23/68/5 
f 23/68/5 24/69/5 32/66/5 
f 24/69/5 27/70/5 32/66/5 
f 29/64/5 32/66/5 27/70/5 
f 27/70/5 18/67/5 29/64/5 
f 32/54/6 31/53/6 30/32/6 
f 30/32/6 29/33/6 32/54/6 
f 32/71/1 27/36/1 28/38/1 
f 28/38/1 31/72/1 32/71/1 

usemtl metalDark

f 14/20/4 11/15/4 12/18/4 
f 12/18/4 13/19/4 14/20/4 
g doorFreezer

v -0.4031558 0.7034021 0.05 
v -0.06781388 0.7443718 0.05 
v -0.02684418 0.7034021 0.05 
v -0.02684418 0.8931558 0.05 
v -0.06781388 0.8521861 0.05 
v -0.3621861 0.8521861 0.05 
v -0.3621861 0.7443718 0.05 
v -0.4031558 0.8931558 0.05 
v -0.02684418 0.8931558 0 
v -0.4031558 0.8931558 0 
v -0.02684418 0.7034021 0 
v -0.4031558 0.7034021 0 
v -0.3831558 0.7234021 0 
v -0.3831558 0.7434021 0 
v -0.3031558 0.7434021 0 
v -0.3031558 0.7234021 0 
v -0.08106063 0.7492235 0.07 
v -0.3489394 0.7492235 0.07 
v -0.08106063 0.8473345 0.07 
v -0.3489394 0.8473345 0.07 
v -0.3031558 0.7434021 -0.01 
v -0.3831558 0.7434021 -0.01 
v -0.3831558 0.7234021 -0.01 
v -0.3031558 0.7234021 -0.01 

vn 0 -0.971815 0.235745 
vn 0.8337124 0 0.5521989 
vn 0 0.971815 0.235745 
vn -0.8337124 0 0.5521989 

vt -14.81542 0 
vt -1.61298 1.61298 
vt 0 7.470619 
vt -1.61298 5.857638 
vt -13.20244 5.857638 
vt -13.20244 1.61298 
vt -14.81542 7.470619 
vt 0 -0.984252 
vt 0 0.984252 
vt 14.81542 -0.984252 
vt 14.81542 0.984252 
vt -14.81542 0.984252 
vt -14.81542 -0.984252 
vt 14.02802 0.7874016 
vt 14.81542 0 
vt 14.81542 7.470619 
vt 14.02802 1.574803 
vt 10.87841 1.574803 
vt 10.87841 0.7874016 
vt -0.984252 0 
vt -0.984252 7.470619 
vt 0.984252 0 
vt 0.984252 7.470619 
vt -2.134506 1.80399 
vt -12.68091 1.80399 
vt -2.134506 5.666629 
vt -12.68091 5.666629 
vt -1.61298 1.336763 
vt -13.20244 1.336763 
vt -2.134506 2.147001 
vt -12.68091 2.147001 
vt -1.711269 5.857638 
vt -1.711269 1.61298 
vt -2.655721 5.666629 
vt -2.655721 1.80399 
vt -1.61298 0.4243982 
vt -2.134506 -0.3858399 
vt -13.20244 0.4243982 
vt -12.68091 -0.3858399 
vt -6.46979 1.61298 
vt -6.46979 5.857638 
vt -5.525338 1.80399 
vt -5.525338 5.666629 
vt 10.87841 -0.984252 
vt 14.02802 -0.984252 
vt 10.87841 -1.377953 
vt 14.02802 -1.377953 
vt -1.377953 0.7874016 
vt -1.377953 1.574803 
vt -0.984252 0.7874016 
vt -0.984252 1.574803 
vt 1.377953 1.574803 
vt 1.377953 0.7874016 
vt 0.984252 1.574803 
vt 0.984252 0.7874016 
vt -10.87841 -0.984252 
vt -10.87841 -1.377953 
vt -14.02802 -0.984252 
vt -14.02802 -1.377953 

usemtl metalLight

f 34/74/4 33/73/4 35/16/4 
f 35/16/4 36/75/4 34/74/4 
f 36/75/4 37/76/4 34/74/4 
f 36/75/4 38/77/4 37/76/4 
f 33/73/4 34/74/4 39/78/4 
f 39/78/4 40/79/4 33/73/4 
f 39/78/4 38/77/4 40/79/4 
f 38/77/4 36/75/4 40/79/4 
f 36/81/2 41/80/2 42/82/2 
f 42/82/2 40/83/2 36/81/2 
f 43/80/1 35/81/1 33/84/1 
f 33/84/1 44/85/1 43/80/1 
f 45/86/6 43/16/6 44/87/6 
f 44/87/6 42/88/6 45/86/6 
f 42/88/6 46/89/6 45/86/6 
f 42/88/6 47/90/6 46/89/6 
f 43/16/6 45/86/6 48/91/6 
f 48/91/6 41/75/6 43/16/6 
f 48/91/6 47/90/6 41/75/6 
f 47/90/6 42/88/6 41/75/6 
f 42/93/5 44/92/5 33/94/5 
f 33/94/5 40/95/5 42/93/5 
f 43/94/3 41/95/3 36/93/3 
f 36/93/3 35/92/3 43/94/3 
f 50/97/4 49/96/4 51/98/4 
f 51/98/4 52/99/4 50/97/4 
f 39/101/7 34/100/7 49/102/7 
f 49/102/7 50/103/7 39/101/7 
f 34/105/8 37/104/8 51/106/8 
f 51/106/8 49/107/8 34/105/8 
f 51/109/9 37/108/9 38/110/9 
f 38/110/9 52/111/9 51/109/9 
f 38/113/10 39/112/10 50/114/10 
f 50/114/10 52/115/10 38/113/10 

usemtl metal

f 46/117/2 47/116/2 53/118/2 
f 53/118/2 54/119/2 46/117/2 
f 54/121/5 55/120/5 45/122/5 
f 45/122/5 46/123/5 54/121/5 
f 56/125/3 53/124/3 47/126/3 
f 47/126/3 48/127/3 56/125/3 
f 56/129/1 48/128/1 45/130/1 
f 45/130/1 55/131/1 56/129/1 
f 56/91/6 55/86/6 54/89/6 
f 54/89/6 53/90/6 56/91/6 
g doorFridge

v -0.02684418 0.08682419 0 
v -0.3831558 0.6634021 0 
v -0.4031558 0.08682419 0 
v -0.3831558 0.6834021 0 
v -0.3031558 0.6834021 0 
v -0.3031558 0.6634021 0 
v -0.4031558 0.08682419 0.05 
v -0.06781388 0.1277939 0.05 
v -0.02684418 0.08682419 0.05 
v -0.06781388 0.2003251 0.05 
v -0.06781388 0.2499012 0.05 
v -0.06781388 0.3703251 0.05 
v -0.06781388 0.4199012 0.05 
v -0.06781388 0.5403251 0.05 
v -0.06781388 0.5899011 0.05 
v -0.06781388 0.6624324 0.05 
v -0.3621861 0.6624324 0.05 
v -0.3621861 0.1277939 0.05 
v -0.3621861 0.2003251 0.05 
v -0.3621861 0.2499012 0.05 
v -0.3621861 0.3703251 0.05 
v -0.3621861 0.4199012 0.05 
v -0.3621861 0.5403251 0.05 
v -0.3621861 0.5899011 0.05 
v -0.06781388 0.1277939 0.03 
v -0.3621861 0.1277939 0.03 
v -0.3621861 0.2003251 0.03 
v -0.3621861 0.3703251 0.03 
v -0.3621861 0.5403251 0.03 
v -0.3621861 0.6624324 0.03 
v -0.06781388 0.6624324 0.03 
v -0.06781388 0.2003251 0.03 
v -0.06781388 0.3703251 0.03 
v -0.06781388 0.5403251 0.03 
v -0.3031558 0.6834021 -0.01 
v -0.3831558 0.6834021 -0.01 
v -0.3831558 0.6634021 -0.01 
v -0.3031558 0.6634021 -0.01 
v -0.06781388 0.2003251 0.09 
v -0.3621861 0.2003251 0.09 
v -0.06781388 0.2499012 0.09 
v -0.3621861 0.2499012 0.09 
v -0.06781388 0.5899011 0.09 
v -0.06781388 0.5403251 0.09 
v -0.3621861 0.5403251 0.09 
v -0.3621861 0.5899011 0.09 
v -0.3621861 0.3703251 0.09 
v -0.3621861 0.4199012 0.09 
v -0.06781388 0.3703251 0.09 
v -0.06781388 0.4199012 0.09 


vt 14.02802 22.69992 
vt 14.81542 24.27472 
vt 14.02802 23.48732 
vt 10.87841 23.48732 
vt 10.87841 22.69992 
vt 0 24.27472 
vt -1.61298 4.46854 
vt -1.61298 6.420354 
vt -1.61298 11.16145 
vt -1.61298 13.11327 
vt -1.61298 17.85437 
vt -1.61298 19.80618 
vt -1.61298 22.66174 
vt -13.20244 22.66174 
vt -14.81542 24.27472 
vt -13.20244 4.46854 
vt -13.20244 6.420354 
vt -13.20244 11.16145 
vt -13.20244 13.11327 
vt -13.20244 17.85437 
vt -13.20244 19.80618 
vt 0.984252 24.27472 
vt -0.984252 24.27472 
vt 1.61298 0.1968504 
vt 1.61298 0.984252 
vt 13.20244 0.1968504 
vt 13.20244 0.984252 
vt -0.1968504 4.46854 
vt -0.1968504 1.61298 
vt -0.984252 4.46854 
vt -0.984252 1.61298 
vt -0.984252 11.16145 
vt -0.1968504 11.16145 
vt -0.984252 6.420354 
vt -0.984252 17.85437 
vt -0.1968504 17.85437 
vt -0.984252 13.11327 
vt -0.984252 22.66174 
vt -0.1968504 22.66174 
vt -0.984252 19.80618 
vt -1.61298 0.984252 
vt -1.61298 0.1968504 
vt -13.20244 0.984252 
vt -13.20244 0.1968504 
vt 0.1968504 1.61298 
vt 0.1968504 4.46854 
vt 0.984252 1.61298 
vt 0.984252 4.46854 
vt 0.1968504 11.16145 
vt 0.984252 11.16145 
vt 0.1968504 17.85437 
vt 0.984252 17.85437 
vt 0.984252 13.11327 
vt 0.984252 6.420354 
vt 0.1968504 22.66174 
vt 0.984252 22.66174 
vt 0.984252 19.80618 
vt -1.377953 22.69992 
vt -1.377953 23.48732 
vt -0.984252 22.69992 
vt -0.984252 23.48732 
vt 1.377953 23.48732 
vt 1.377953 22.69992 
vt 0.984252 23.48732 
vt 0.984252 22.69992 
vt -1.61298 2.559055 
vt -13.20244 2.559055 
vt -2.559055 6.420354 
vt -2.559055 4.46854 
vt 2.559055 4.46854 
vt 2.559055 6.420354 
vt -2.559055 19.80618 
vt -2.559055 17.85437 
vt 2.559055 17.85437 
vt 2.559055 19.80618 
vt 2.559055 11.16145 
vt 2.559055 13.11327 
vt -2.559055 13.11327 
vt -2.559055 11.16145 

usemtl metalLight

f 58/132/6 57/16/6 59/87/6 
f 59/87/6 44/133/6 58/132/6 
f 44/133/6 60/134/6 58/132/6 
f 44/133/6 61/135/6 60/134/6 
f 57/16/6 58/132/6 62/136/6 
f 62/136/6 43/137/6 57/16/6 
f 62/136/6 61/135/6 43/137/6 
f 61/135/6 44/133/6 43/137/6 
f 35/81/2 43/80/2 44/82/2 
f 44/82/2 33/83/2 35/81/2 
f 64/74/4 63/73/4 65/16/4 
f 65/16/4 35/137/4 64/74/4 
f 35/137/4 66/138/4 64/74/4 
f 35/137/4 67/139/4 66/138/4 
f 35/137/4 68/140/4 67/139/4 
f 35/137/4 69/141/4 68/140/4 
f 35/137/4 70/142/4 69/141/4 
f 35/137/4 71/143/4 70/142/4 
f 35/137/4 72/144/4 71/143/4 
f 35/137/4 73/145/4 72/144/4 
f 63/73/4 64/74/4 74/78/4 
f 74/78/4 33/146/4 63/73/4 
f 73/145/4 35/137/4 33/146/4 
f 74/78/4 75/147/4 33/146/4 
f 75/147/4 76/148/4 33/146/4 
f 76/148/4 77/149/4 33/146/4 
f 77/149/4 78/150/4 33/146/4 
f 78/150/4 79/151/4 33/146/4 
f 79/151/4 80/152/4 33/146/4 
f 80/152/4 73/145/4 33/146/4 
f 57/80/1 65/81/1 63/84/1 
f 63/84/1 59/85/1 57/80/1 
f 57/94/3 43/153/3 35/154/3 
f 35/154/3 65/92/3 57/94/3 
f 44/154/5 59/92/5 63/94/5 
f 63/94/5 33/153/5 44/154/5 
f 64/156/2 81/155/2 82/157/2 
f 82/157/2 74/158/2 64/156/2 
f 82/160/3 83/159/3 75/161/3 
f 75/161/3 74/162/3 82/160/3 
f 77/163/3 75/161/3 83/159/3 
f 83/159/3 84/164/3 77/163/3 
f 77/163/3 76/165/3 75/161/3 
f 79/166/3 77/163/3 84/164/3 
f 84/164/3 85/167/3 79/166/3 
f 79/166/3 78/168/3 77/163/3 
f 73/169/3 79/166/3 85/167/3 
f 85/167/3 86/170/3 73/169/3 
f 73/169/3 80/171/3 79/166/3 
f 87/173/1 72/172/1 73/174/1 
f 73/174/1 86/175/1 87/173/1 
f 82/78/4 81/74/4 88/138/4 
f 88/138/4 83/147/4 82/78/4 
f 83/147/4 88/138/4 89/140/4 
f 89/140/4 84/149/4 83/147/4 
f 84/149/4 89/140/4 90/142/4 
f 90/142/4 85/151/4 84/149/4 
f 85/151/4 90/142/4 87/144/4 
f 87/144/4 86/145/4 85/151/4 
f 88/177/5 81/176/5 64/178/5 
f 64/178/5 66/179/5 88/177/5 
f 89/180/5 88/177/5 66/179/5 
f 66/179/5 68/181/5 89/180/5 
f 90/182/5 89/180/5 68/181/5 
f 68/181/5 70/183/5 90/182/5 
f 68/181/5 69/184/5 70/183/5 
f 66/179/5 67/185/5 68/181/5 
f 87/186/5 90/182/5 70/183/5 
f 70/183/5 72/187/5 87/186/5 
f 70/183/5 71/188/5 72/187/5 

usemtl metal

f 60/117/2 61/116/2 91/118/2 
f 91/118/2 92/119/2 60/117/2 
f 94/136/6 93/132/6 92/134/6 
f 92/134/6 91/135/6 94/136/6 
f 94/129/1 62/128/1 58/130/1 
f 58/130/1 93/131/1 94/129/1 
f 92/190/5 93/189/5 58/191/5 
f 58/191/5 60/192/5 92/190/5 
f 94/194/3 91/193/3 61/195/3 
f 61/195/3 62/196/3 94/194/3 

usemtl glass

f 96/147/4 95/138/4 97/139/4 
f 97/139/4 98/148/4 96/147/4 
f 96/147/6 97/139/6 95/138/6 
f 97/139/6 96/147/6 98/148/6 
f 66/172/1 95/197/1 96/198/1 
f 96/198/1 88/173/1 66/172/1 
f 96/198/1 83/175/1 88/173/1 
f 96/198/1 75/174/1 83/175/1 
f 66/172/2 96/198/2 95/197/2 
f 96/198/2 66/172/2 88/173/2 
f 96/198/2 88/173/2 83/175/2 
f 96/198/2 83/175/2 75/174/2 
f 66/161/3 67/165/3 97/199/3 
f 97/199/3 95/200/3 66/161/3 
f 66/161/5 97/199/5 67/165/5 
f 97/199/5 66/161/5 95/200/5 
f 76/185/5 75/179/5 96/201/5 
f 96/201/5 98/202/5 76/185/5 
f 76/185/3 96/201/3 75/179/3 
f 96/201/3 76/185/3 98/202/3 
f 70/166/3 71/171/3 99/203/3 
f 99/203/3 100/204/3 70/166/3 
f 70/166/5 99/203/5 71/171/5 
f 99/203/5 70/166/5 100/204/5 
f 80/188/5 79/183/5 101/205/5 
f 101/205/5 102/206/5 80/188/5 
f 80/188/3 101/205/3 79/183/3 
f 101/205/3 80/188/3 102/206/3 
f 101/151/4 100/142/4 99/143/4 
f 99/143/4 102/152/4 101/151/4 
f 101/151/6 99/143/6 100/142/6 
f 99/143/6 101/151/6 102/152/6 
f 78/184/5 77/181/5 103/207/5 
f 103/207/5 104/208/5 78/184/5 
f 78/184/3 103/207/3 77/181/3 
f 103/207/3 78/184/3 104/208/3 
f 103/149/4 105/140/4 106/141/4 
f 106/141/4 104/150/4 103/149/4 
f 103/149/6 106/141/6 105/140/6 
f 106/141/6 103/149/6 104/150/6 
f 68/172/1 105/197/1 103/198/1 
f 103/198/1 89/173/1 68/172/1 
f 103/198/1 84/175/1 89/173/1 
f 103/198/1 77/174/1 84/175/1 
f 68/172/2 103/198/2 105/197/2 
f 103/198/2 68/172/2 89/173/2 
f 103/198/2 89/173/2 84/175/2 
f 103/198/2 84/175/2 77/174/2 
f 68/163/3 69/168/3 106/209/3 
f 106/209/3 105/210/3 68/163/3 
f 68/163/5 106/209/5 69/168/5 
f 106/209/5 68/163/5 105/210/5 
f 70/172/1 100/197/1 101/198/1 
f 101/198/1 90/173/1 70/172/1 
f 101/198/1 85/175/1 90/173/1 
f 101/198/1 79/174/1 85/175/1 
f 70/172/2 101/198/2 100/197/2 
f 101/198/2 70/172/2 90/173/2 
f 101/198/2 90/173/2 85/175/2 
f 101/198/2 85/175/2 79/174/2 
