# Created by Kenney (www.kenney.nl) 

mtllib kitchenCabinetUpperLow.mtl 

g kitchenCabinetUpperLow

v 0 0 0.21 
v 0 0 0 
v -0.43 0 0.21 
v -0.43 0 0 
v 0 0.195 0 
v 0 0.195 0.21 
v -0.43 0.195 0 
v -0.43 0.195 0.21 
v -0.4031558 0.02684418 0 
v -0.4031558 0.1681558 0 
v -0.02684418 0.1681558 0 
v -0.02684418 0.02684418 0 
v -0.02684418 0.02684418 0.19 
v -0.4031558 0.02684418 0.19 
v -0.02684418 0.1681558 0.19 
v -0.4031558 0.1681558 0.19 

vn 0 -1 0 
vn 0 1 0 
vn 1 0 0 
vn 0 0 1 
vn -1 0 0 
vn 0 0 -1 

vt 0 8.267716 
vt 0 0 
vt -16.92913 8.267716 
vt -16.92913 0 
vt 16.92913 0 
vt 16.92913 8.267716 
vt 0 7.677166 
vt -8.267716 7.677166 
vt -8.267716 0 
vt -16.92913 7.677166 
vt 8.267716 0 
vt 8.267716 7.677166 
vt 15.87228 1.056858 
vt 16.92913 7.677166 
vt 15.87228 6.620308 
vt 1.056858 6.620308 
vt 1.056858 1.056858 
vt 1.056858 0 
vt 1.056858 7.480315 
vt 15.87228 0 
vt 15.87228 7.480315 
vt -1.056858 7.480315 
vt -1.056858 0 
vt -15.87228 7.480315 
vt -15.87228 0 
vt 0 6.620308 
vt 0 1.056858 
vt -7.480315 6.620308 
vt -7.480315 1.056858 
vt 7.480315 1.056858 
vt 7.480315 6.620308 

usemtl wood

f 2/2/1 1/1/1 3/3/1 
f 3/3/1 4/4/1 2/2/1 
f 6/1/2 5/2/2 7/5/2 
f 7/5/2 8/6/2 6/1/2 
f 2/2/3 5/7/3 6/8/3 
f 6/8/3 1/9/3 2/2/3 
f 3/4/4 1/2/4 6/7/4 
f 6/7/4 8/10/4 3/4/4 
f 7/7/5 4/2/5 3/11/5 
f 3/11/5 8/12/5 7/7/5 
f 9/13/6 2/2/6 4/5/6 
f 4/5/6 7/14/6 9/13/6 
f 7/14/6 10/15/6 9/13/6 
f 7/14/6 11/16/6 10/15/6 
f 2/2/6 9/13/6 12/17/6 
f 12/17/6 5/7/6 2/2/6 
f 12/17/6 11/16/6 5/7/6 
f 11/16/6 7/14/6 5/7/6 
f 13/19/2 12/18/2 9/20/2 
f 9/20/2 14/21/2 13/19/2 
f 11/23/1 15/22/1 16/24/1 
f 16/24/1 10/25/1 11/23/1 
f 13/17/6 14/13/6 16/15/6 
f 16/15/6 15/16/6 13/17/6 
f 9/27/3 10/26/3 16/28/3 
f 16/28/3 14/29/3 9/27/3 
f 11/26/5 12/27/5 13/30/5 
f 13/30/5 15/31/5 11/26/5 
g kitchenCabinetUpperLow




usemtl wood

f 2/2/1 1/1/1 3/3/1 
f 3/3/1 4/4/1 2/2/1 
f 6/1/2 5/2/2 7/5/2 
f 7/5/2 8/6/2 6/1/2 
f 2/2/3 5/7/3 6/8/3 
f 6/8/3 1/9/3 2/2/3 
f 3/4/4 1/2/4 6/7/4 
f 6/7/4 8/10/4 3/4/4 
f 7/7/5 4/2/5 3/11/5 
f 3/11/5 8/12/5 7/7/5 
f 9/13/6 2/2/6 4/5/6 
f 4/5/6 7/14/6 9/13/6 
f 7/14/6 10/15/6 9/13/6 
f 7/14/6 11/16/6 10/15/6 
f 2/2/6 9/13/6 12/17/6 
f 12/17/6 5/7/6 2/2/6 
f 12/17/6 11/16/6 5/7/6 
f 11/16/6 7/14/6 5/7/6 
f 13/19/2 12/18/2 9/20/2 
f 9/20/2 14/21/2 13/19/2 
f 11/23/1 15/22/1 16/24/1 
f 16/24/1 10/25/1 11/23/1 
f 13/17/6 14/13/6 16/15/6 
f 16/15/6 15/16/6 13/17/6 
f 9/27/3 10/26/3 16/28/3 
f 16/28/3 14/29/3 9/27/3 
f 11/26/5 12/27/5 13/30/5 
f 13/30/5 15/31/5 11/26/5 
g door

v -0.02684418 0.02684419 0.02 
v -0.4031558 0.02684419 0.02 
v -0.02684418 0.1681558 0.02 
v -0.4031558 0.1681558 0.02 
v -0.4031558 0.02684419 0 
v -0.02684418 0.02684419 0 
v -0.04718611 0.04718612 0 
v -0.255 0.06718612 0 
v -0.3828139 0.04718612 0 
v -0.3828139 0.1478139 0 
v -0.255 0.08718612 0 
v -0.175 0.08718612 0 
v -0.175 0.06718612 0 
v -0.04718611 0.1478139 0 
v -0.175 0.08718612 -0.01 
v -0.255 0.08718612 -0.01 
v -0.255 0.06718612 -0.01 
v -0.175 0.06718612 -0.01 


vt 0 -5.56345 
vt -14.81542 -5.56345 
vt -14.81542 0 
vt -0.3937008 -5.56345 
vt -0.3937008 0 
vt 0.3937008 -5.56345 
vt 0.3937008 0 
vt 0 -0.3937008 
vt 0 0.3937008 
vt 14.81542 -0.3937008 
vt 14.81542 0.3937008 
vt -14.81542 0.3937008 
vt -14.81542 -0.3937008 
vt 0.8008635 -4.762587 
vt 8.982512 -3.975185 
vt 14.01455 -4.762587 
vt 14.01455 -0.8008635 
vt 8.982512 -3.187783 
vt 5.832906 -3.187783 
vt 5.832906 -3.975185 
vt 0.8008635 -0.8008635 
vt 14.81542 -5.56345 
vt 14.81542 0 
vt 5.832906 -0.3937008 
vt 8.982512 -0.3937008 
vt 5.832906 -0.7874016 
vt 8.982512 -0.7874016 
vt -0.7874016 -3.975185 
vt -0.7874016 -3.187783 
vt -0.3937008 -3.975185 
vt -0.3937008 -3.187783 
vt 0.7874016 -3.187783 
vt 0.7874016 -3.975185 
vt 0.3937008 -3.187783 
vt 0.3937008 -3.975185 
vt -5.832906 -0.3937008 
vt -5.832906 -0.7874016 
vt -8.982512 -0.3937008 
vt -8.982512 -0.7874016 

usemtl wood

f 18/33/4 17/32/4 19/2/4 
f 19/2/4 20/34/4 18/33/4 
f 10/36/5 21/35/5 18/37/5 
f 18/37/5 20/38/5 10/36/5 
f 19/40/2 11/39/2 10/41/2 
f 10/41/2 20/42/2 19/40/2 
f 22/37/3 11/38/3 19/36/3 
f 19/36/3 17/35/3 22/37/3 
f 22/39/1 17/40/1 18/43/1 
f 18/43/1 21/44/1 22/39/1 
f 24/46/6 23/45/6 25/47/6 
f 25/47/6 26/48/6 24/46/6 
f 26/48/6 27/49/6 24/46/6 
f 26/48/6 28/50/6 27/49/6 
f 23/45/6 24/46/6 29/51/6 
f 29/51/6 30/52/6 23/45/6 
f 29/51/6 28/50/6 30/52/6 
f 28/50/6 26/48/6 30/52/6 

usemtl woodDark

f 25/47/6 22/32/6 21/53/6 
f 21/53/6 10/54/6 25/47/6 
f 10/54/6 26/48/6 25/47/6 
f 10/54/6 30/52/6 26/48/6 
f 22/32/6 25/47/6 23/45/6 
f 23/45/6 11/2/6 22/32/6 
f 23/45/6 30/52/6 11/2/6 
f 30/52/6 10/54/6 11/2/6 

usemtl metal

f 27/56/2 28/55/2 31/57/2 
f 31/57/2 32/58/2 27/56/2 
f 32/60/5 33/59/5 24/61/5 
f 24/61/5 27/62/5 32/60/5 
f 34/51/6 33/46/6 32/49/6 
f 32/49/6 31/50/6 34/51/6 
f 34/64/3 31/63/3 28/65/3 
f 28/65/3 29/66/3 34/64/3 
f 34/68/1 29/67/1 24/69/1 
f 24/69/1 33/70/1 34/68/1 
