# Created by Kenney (www.kenney.nl) 

mtllib kitchenMicrowave.mtl 

g kitchenMicrowave

v -0.2162638 0.1600274 0 
v -0.2162638 0.01997255 0 
v -0.2162638 0.1600274 0.16 
v -0.2162638 0.01997255 0.16 
v -0.01997255 0.1600274 0.16 
v -0.01997255 0.1600274 0 
v -0.01997255 0.01997255 0.16 
v -0.06615665 0.01997255 0.05 
v -0.01997255 0.01997255 0 
v -0.07569177 0.01997255 0.03757359 
v -0.08811818 0.01997255 0.02803847 
v -0.102589 0.01997255 0.02204445 
v -0.06016262 0.01997255 0.06447086 
v -0.05811818 0.01997255 0.08 
v -0.1181182 0.01997255 0.02 
v -0.1336473 0.01997255 0.02204445 
v -0.1481182 0.01997255 0.02803847 
v -0.1605446 0.01997255 0.03757359 
v -0.1700797 0.01997255 0.05 
v -0.1760737 0.01997255 0.06447086 
v -0.1781182 0.01997255 0.08 
v -0.06016262 0.01997255 0.09552914 
v -0.1760737 0.01997255 0.09552914 
v -0.1700797 0.01997255 0.11 
v -0.1605446 0.01997255 0.1224264 
v -0.1481182 0.01997255 0.1319615 
v -0.1336473 0.01997255 0.1379555 
v -0.1181182 0.01997255 0.14 
v -0.102589 0.01997255 0.1379555 
v -0.08811818 0.01997255 0.1319615 
v -0.07569177 0.01997255 0.1224264 
v -0.06615665 0.01997255 0.11 
v -0.29 0 0.01 
v -0.2362363 0 0.01 
v -0.29 0.143693 0.01 
v -0.2362363 0.143693 0.01 
v -0.29 0 0.2 
v -0.02608841 0.02608841 0.2 
v 0 0 0.2 
v 0 0.18 0.2 
v -0.02608841 0.1539116 0.2 
v -0.2639116 0.1539116 0.2 
v -0.2639116 0.02608841 0.2 
v -0.29 0.18 0.2 
v -0.03679045 0.1481595 0.22 
v -0.03679045 0.03184045 0.22 
v -0.2532095 0.03184045 0.22 
v -0.2532095 0.1481595 0.22 
v -0.2362363 0 0 
v -0.2362363 0.18 0 
v -0.2362363 0.18 0.01 
v 0 0 0 
v 0 0.18 0 
v -0.29 0.18 0.01 

vn 1 0 0 
vn 0 -1 0 
vn 0 0 -1 
vn 0 1 0 
vn -1 0 0 
vn 0 0 1 
vn 0.8817046 0 0.471802 
vn 0 -0.9610432 0.2763981 
vn -0.8817046 0 0.471802 
vn 0 0.9610432 0.2763981 

vt 0 6.300293 
vt 0 0.7863207 
vt -6.299212 6.300293 
vt -6.299212 0.7863207 
vt -0.7863207 6.299212 
vt -0.7863207 0 
vt -8.514323 6.299212 
vt -8.514323 0 
vt 8.514323 0.7863207 
vt 0.7863207 0.7863207 
vt 8.514323 6.300293 
vt 0.7863207 6.300293 
vt 0.7863207 6.299212 
vt 2.604593 1.968504 
vt 0.7863207 0 
vt 2.979991 1.479275 
vt 3.46922 1.103877 
vt 4.038939 0.8678917 
vt 8.514323 0 
vt 2.368607 2.538223 
vt 2.288117 3.149606 
vt 4.650322 0.7874016 
vt 5.261705 0.8678917 
vt 5.831424 1.103877 
vt 6.320653 1.479275 
vt 6.696051 1.968504 
vt 6.932036 2.538223 
vt 7.012527 3.149606 
vt 2.368607 3.76099 
vt 8.514323 6.299212 
vt 6.932036 3.76099 
vt 6.696051 4.330709 
vt 6.320653 4.819937 
vt 5.831424 5.195335 
vt 5.261705 5.431321 
vt 4.650322 5.511811 
vt 4.038939 5.431321 
vt 3.46922 5.195335 
vt 2.979991 4.819937 
vt 2.604593 4.330709 
vt 11.41732 0 
vt 9.300644 0 
vt 11.41732 5.657205 
vt 9.300644 5.657205 
vt 6.299212 0.7863207 
vt 6.299212 6.300293 
vt -11.41732 0 
vt -1.027103 1.027103 
vt 0 0 
vt 0 7.086614 
vt -1.027103 6.059511 
vt -10.39022 6.059511 
vt -10.39022 1.027103 
vt -11.41732 7.086614 
vt -7.427145 6.059511 
vt -7.427145 1.027103 
vt -8.320189 5.833053 
vt -8.320189 1.253561 
vt -1.027103 7.851159 
vt -10.39022 7.851159 
vt -1.448443 8.670479 
vt -9.96888 8.670479 
vt 2.040429 1.027103 
vt 2.040429 6.059511 
vt 2.933474 1.253561 
vt 2.933474 5.833053 
vt -1.027103 -5.892432 
vt -1.448443 -6.711752 
vt -10.39022 -5.892432 
vt -9.96888 -6.711752 
vt -1.448443 1.253561 
vt -9.96888 1.253561 
vt -1.448443 5.833053 
vt -9.96888 5.833053 
vt 0.3937008 0 
vt 0.3937008 7.086614 
vt 0.3937008 5.657205 
vt 0 7.874016 
vt -11.41732 7.874016 
vt -9.300644 0.3937008 
vt -11.41732 0.3937008 
vt -9.300644 0 
vt 9.300644 0.3937008 
vt 11.41732 7.874016 
vt 11.41732 0.3937008 
vt -7.874016 7.086614 
vt -7.874016 0 
vt 7.874016 0 
vt 7.874016 7.086614 
vt 9.300644 7.086614 
vt 11.41732 7.086614 

usemtl metalMedium

f 2/2/1 1/1/1 3/3/1 
f 3/3/1 4/4/1 2/2/1 
f 6/6/2 5/5/2 3/7/2 
f 3/7/2 1/8/2 6/6/2 
f 7/10/3 4/9/3 3/11/3 
f 3/11/3 5/12/3 7/10/3 
f 8/14/4 7/13/4 9/15/4 
f 9/15/4 10/16/4 8/14/4 
f 9/15/4 11/17/4 10/16/4 
f 9/15/4 12/18/4 11/17/4 
f 9/15/4 2/19/4 12/18/4 
f 8/14/4 13/20/4 7/13/4 
f 13/20/4 14/21/4 7/13/4 
f 2/19/4 15/22/4 12/18/4 
f 2/19/4 16/23/4 15/22/4 
f 2/19/4 17/24/4 16/23/4 
f 2/19/4 18/25/4 17/24/4 
f 2/19/4 19/26/4 18/25/4 
f 2/19/4 20/27/4 19/26/4 
f 2/19/4 21/28/4 20/27/4 
f 7/13/4 14/21/4 22/29/4 
f 21/28/4 2/19/4 4/30/4 
f 23/31/4 21/28/4 4/30/4 
f 24/32/4 23/31/4 4/30/4 
f 25/33/4 24/32/4 4/30/4 
f 26/34/4 25/33/4 4/30/4 
f 27/35/4 26/34/4 4/30/4 
f 28/36/4 27/35/4 4/30/4 
f 29/37/4 28/36/4 4/30/4 
f 29/37/4 4/30/4 7/13/4 
f 7/13/4 30/38/4 29/37/4 
f 7/13/4 31/39/4 30/38/4 
f 7/13/4 32/40/4 31/39/4 
f 7/13/4 22/29/4 32/40/4 
f 34/42/3 33/41/3 35/43/3 
f 35/43/3 36/44/3 34/42/3 
f 6/1/5 9/2/5 7/45/5 
f 7/45/5 5/46/5 6/1/5 
f 38/48/6 37/47/6 39/49/6 
f 39/49/6 40/50/6 38/48/6 
f 40/50/6 41/51/6 38/48/6 
f 40/50/6 42/52/6 41/51/6 
f 37/47/6 38/48/6 43/53/6 
f 43/53/6 44/54/6 37/47/6 
f 43/53/6 42/52/6 44/54/6 
f 42/52/6 40/50/6 44/54/6 
f 38/56/7 41/55/7 45/57/7 
f 45/57/7 46/58/7 38/56/7 
f 43/60/8 38/59/8 46/61/8 
f 46/61/8 47/62/8 43/60/8 
f 42/64/9 43/63/9 47/65/9 
f 47/65/9 48/66/9 42/64/9 
f 45/68/10 41/67/10 42/69/10 
f 42/69/10 48/70/10 45/68/10 
f 47/72/6 46/71/6 45/73/6 
f 45/73/6 48/74/6 47/72/6 
f 50/50/5 49/49/5 34/75/5 
f 34/75/5 51/76/5 50/50/5 
f 34/75/5 36/77/5 51/76/5 

usemtl carpetWhite

f 52/49/2 39/78/2 37/79/2 
f 37/79/2 34/80/2 52/49/2 
f 37/79/2 33/81/2 34/80/2 
f 52/49/2 34/80/2 49/82/2 
f 40/78/4 53/49/4 50/42/4 
f 50/42/4 51/83/4 40/78/4 
f 51/83/4 44/84/4 40/78/4 
f 51/83/4 54/85/4 44/84/4 
f 52/49/1 53/50/1 40/86/1 
f 40/86/1 39/87/1 52/49/1 
f 35/77/5 33/75/5 37/88/5 
f 37/88/5 54/76/5 35/77/5 
f 37/88/5 44/89/5 54/76/5 
f 2/9/3 52/49/3 49/42/3 
f 49/42/3 50/90/3 2/9/3 
f 50/90/3 1/11/3 2/9/3 
f 50/90/3 6/12/3 1/11/3 
f 52/49/3 2/9/3 9/10/3 
f 9/10/3 53/50/3 52/49/3 
f 9/10/3 6/12/3 53/50/3 
f 6/12/3 50/90/3 53/50/3 

usemtl metalDark

f 36/44/3 35/43/3 54/91/3 
f 54/91/3 51/90/3 36/44/3 
f 22/29/4 14/21/4 13/20/4 
f 13/20/4 8/14/4 22/29/4 
f 8/14/4 32/40/4 22/29/4 
f 8/14/4 31/39/4 32/40/4 
f 8/14/4 10/16/4 31/39/4 
f 10/16/4 11/17/4 31/39/4 
f 11/17/4 30/38/4 31/39/4 
f 11/17/4 12/18/4 30/38/4 
f 12/18/4 29/37/4 30/38/4 
f 12/18/4 15/22/4 29/37/4 
f 15/22/4 28/36/4 29/37/4 
f 15/22/4 16/23/4 28/36/4 
f 16/23/4 27/35/4 28/36/4 
f 16/23/4 17/24/4 27/35/4 
f 17/24/4 26/34/4 27/35/4 
f 17/24/4 18/25/4 26/34/4 
f 18/25/4 25/33/4 26/34/4 
f 18/25/4 19/26/4 25/33/4 
f 19/26/4 24/32/4 25/33/4 
f 19/26/4 23/31/4 24/32/4 
f 19/26/4 20/27/4 23/31/4 
f 20/27/4 21/28/4 23/31/4 
g kitchenMicrowave




usemtl metalMedium

f 2/2/1 1/1/1 3/3/1 
f 3/3/1 4/4/1 2/2/1 
f 6/6/2 5/5/2 3/7/2 
f 3/7/2 1/8/2 6/6/2 
f 7/10/3 4/9/3 3/11/3 
f 3/11/3 5/12/3 7/10/3 
f 8/14/4 7/13/4 9/15/4 
f 9/15/4 10/16/4 8/14/4 
f 9/15/4 11/17/4 10/16/4 
f 9/15/4 12/18/4 11/17/4 
f 9/15/4 2/19/4 12/18/4 
f 8/14/4 13/20/4 7/13/4 
f 13/20/4 14/21/4 7/13/4 
f 2/19/4 15/22/4 12/18/4 
f 2/19/4 16/23/4 15/22/4 
f 2/19/4 17/24/4 16/23/4 
f 2/19/4 18/25/4 17/24/4 
f 2/19/4 19/26/4 18/25/4 
f 2/19/4 20/27/4 19/26/4 
f 2/19/4 21/28/4 20/27/4 
f 7/13/4 14/21/4 22/29/4 
f 21/28/4 2/19/4 4/30/4 
f 23/31/4 21/28/4 4/30/4 
f 24/32/4 23/31/4 4/30/4 
f 25/33/4 24/32/4 4/30/4 
f 26/34/4 25/33/4 4/30/4 
f 27/35/4 26/34/4 4/30/4 
f 28/36/4 27/35/4 4/30/4 
f 29/37/4 28/36/4 4/30/4 
f 29/37/4 4/30/4 7/13/4 
f 7/13/4 30/38/4 29/37/4 
f 7/13/4 31/39/4 30/38/4 
f 7/13/4 32/40/4 31/39/4 
f 7/13/4 22/29/4 32/40/4 
f 34/42/3 33/41/3 35/43/3 
f 35/43/3 36/44/3 34/42/3 
f 6/1/5 9/2/5 7/45/5 
f 7/45/5 5/46/5 6/1/5 
f 38/48/6 37/47/6 39/49/6 
f 39/49/6 40/50/6 38/48/6 
f 40/50/6 41/51/6 38/48/6 
f 40/50/6 42/52/6 41/51/6 
f 37/47/6 38/48/6 43/53/6 
f 43/53/6 44/54/6 37/47/6 
f 43/53/6 42/52/6 44/54/6 
f 42/52/6 40/50/6 44/54/6 
f 38/56/7 41/55/7 45/57/7 
f 45/57/7 46/58/7 38/56/7 
f 43/60/8 38/59/8 46/61/8 
f 46/61/8 47/62/8 43/60/8 
f 42/64/9 43/63/9 47/65/9 
f 47/65/9 48/66/9 42/64/9 
f 45/68/10 41/67/10 42/69/10 
f 42/69/10 48/70/10 45/68/10 
f 47/72/6 46/71/6 45/73/6 
f 45/73/6 48/74/6 47/72/6 
f 50/50/5 49/49/5 34/75/5 
f 34/75/5 51/76/5 50/50/5 
f 34/75/5 36/77/5 51/76/5 

usemtl carpetWhite

f 52/49/2 39/78/2 37/79/2 
f 37/79/2 34/80/2 52/49/2 
f 37/79/2 33/81/2 34/80/2 
f 52/49/2 34/80/2 49/82/2 
f 40/78/4 53/49/4 50/42/4 
f 50/42/4 51/83/4 40/78/4 
f 51/83/4 44/84/4 40/78/4 
f 51/83/4 54/85/4 44/84/4 
f 52/49/1 53/50/1 40/86/1 
f 40/86/1 39/87/1 52/49/1 
f 35/77/5 33/75/5 37/88/5 
f 37/88/5 54/76/5 35/77/5 
f 37/88/5 44/89/5 54/76/5 
f 2/9/3 52/49/3 49/42/3 
f 49/42/3 50/90/3 2/9/3 
f 50/90/3 1/11/3 2/9/3 
f 50/90/3 6/12/3 1/11/3 
f 52/49/3 2/9/3 9/10/3 
f 9/10/3 53/50/3 52/49/3 
f 9/10/3 6/12/3 53/50/3 
f 6/12/3 50/90/3 53/50/3 

usemtl metalDark

f 36/44/3 35/43/3 54/91/3 
f 54/91/3 51/90/3 36/44/3 
f 22/29/4 14/21/4 13/20/4 
f 13/20/4 8/14/4 22/29/4 
f 8/14/4 32/40/4 22/29/4 
f 8/14/4 31/39/4 32/40/4 
f 8/14/4 10/16/4 31/39/4 
f 10/16/4 11/17/4 31/39/4 
f 11/17/4 30/38/4 31/39/4 
f 11/17/4 12/18/4 30/38/4 
f 12/18/4 29/37/4 30/38/4 
f 12/18/4 15/22/4 29/37/4 
f 15/22/4 28/36/4 29/37/4 
f 15/22/4 16/23/4 28/36/4 
f 16/23/4 27/35/4 28/36/4 
f 16/23/4 17/24/4 27/35/4 
f 17/24/4 26/34/4 27/35/4 
f 17/24/4 18/25/4 26/34/4 
f 18/25/4 25/33/4 26/34/4 
f 18/25/4 19/26/4 25/33/4 
f 19/26/4 24/32/4 25/33/4 
f 19/26/4 23/31/4 24/32/4 
f 19/26/4 20/27/4 23/31/4 
f 20/27/4 21/28/4 23/31/4 
g Group

v -0.01997255 0.1600275 -0.01 
v -0.01997255 0.01997255 -0.01 
v -0.01997255 0.1600275 0.01 
v -0.01997255 0.01997255 0.01 
v -0.2162638 0.1600275 -0.01 
v -0.2162638 0.1600275 0.01 
v -0.2162638 0.01997255 0.01 
v -0.2162638 0.01997255 -0.01 
v -0.2162638 0.05414709 -0.01 
v -0.2162638 0.05414709 0 
v -0.2162638 0.1258529 0 
v -0.2162638 0.1258529 -0.01 
v -0.03705981 0.03705981 0.01 
v -0.03705981 0.1429402 0.01 
v -0.1991765 0.1429402 0.01 
v -0.1991765 0.03705981 0.01 
v -0.03705981 0.1429402 -0.01 
v -0.1991765 0.1429402 -0.01 
v -0.03705981 0.03705981 -0.01 
v -0.1991765 0.03705981 -0.01 
v -0.1991765 0.1258529 -0.01 
v -0.1991765 0.05414709 -0.01 


vt 0.3937008 5.513973 
vt -0.3937008 5.513973 
vt -0.3937008 0 
vt 0 -0.3937008 
vt 0 0.3937008 
vt 7.728003 -0.3937008 
vt 7.728003 0.3937008 
vt -7.728003 0.3937008 
vt -7.728003 -0.3937008 
vt -0.3937008 1.345454 
vt -3.552714E-15 1.345454 
vt -3.552714E-15 4.168519 
vt -0.3937008 4.168519 
vt -7.728003 0 
vt -0.6727272 0.6727272 
vt 0 5.513973 
vt -0.6727272 4.841246 
vt -7.055275 4.841246 
vt -7.055275 0.6727272 
vt -7.728003 5.513973 
vt -0.6727272 0.3937008 
vt -0.6727272 -0.3937008 
vt -7.055275 0.3937008 
vt -7.055275 -0.3937008 
vt -0.3937008 0.6727272 
vt -0.3937008 4.841246 
vt 0.3937008 0.6727272 
vt 0.3937008 4.841246 
vt 0.6727272 -0.3937008 
vt 0.6727272 0.3937008 
vt 7.055275 -0.3937008 
vt 7.055275 0.3937008 
vt 0.3937008 4.168519 
vt 0.3937008 1.345454 
vt 7.055275 0.6727272 
vt 7.728003 0 
vt 7.728003 1.345454 
vt 7.055275 1.345454 
vt 0.6727272 0.6727272 
vt 0.6727272 4.841246 
vt 7.728003 5.513973 
vt 7.055275 4.841246 
vt 7.055275 4.168519 
vt 7.728003 4.168519 

usemtl carpetWhite

f 56/75/1 55/92/1 57/93/1 
f 57/93/1 58/94/1 56/75/1 
f 57/96/4 55/95/4 59/97/4 
f 59/97/4 60/98/4 57/96/4 
f 56/95/2 58/96/2 61/99/2 
f 61/99/2 62/100/2 56/95/2 
f 63/101/5 62/94/5 61/75/5 
f 61/75/5 64/102/5 63/101/5 
f 61/75/5 65/103/5 64/102/5 
f 65/103/5 61/75/5 60/92/5 
f 65/103/5 60/92/5 59/93/5 
f 59/93/5 66/104/5 65/103/5 
f 67/106/6 61/105/6 58/49/6 
f 58/49/6 57/107/6 67/106/6 
f 57/107/6 68/108/6 67/106/6 
f 57/107/6 69/109/6 68/108/6 
f 61/105/6 67/106/6 70/110/6 
f 70/110/6 60/111/6 61/105/6 
f 70/110/6 69/109/6 60/111/6 
f 69/109/6 57/107/6 60/111/6 
f 71/113/2 68/112/2 69/114/2 
f 69/114/2 72/115/2 71/113/2 
f 71/117/5 73/116/5 67/118/5 
f 67/118/5 68/119/5 71/117/5 
f 67/121/4 73/120/4 74/122/4 
f 74/122/4 70/123/4 67/121/4 
f 75/124/1 72/119/1 69/117/1 
f 69/117/1 76/125/1 75/124/1 
f 69/117/1 74/118/1 76/125/1 
f 69/117/1 70/116/1 74/118/1 
f 74/126/3 56/49/3 62/127/3 
f 62/127/3 63/128/3 74/126/3 
f 63/128/3 76/129/3 74/126/3 
f 56/49/3 74/126/3 73/130/3 
f 73/130/3 55/107/3 56/49/3 
f 73/130/3 71/131/3 55/107/3 
f 71/131/3 59/132/3 55/107/3 
f 59/132/3 71/131/3 72/133/3 
f 59/132/3 72/133/3 75/134/3 
f 75/134/3 66/135/3 59/132/3 

usemtl glass

f 73/130/3 74/126/3 76/129/3 
f 76/129/3 71/131/3 73/130/3 
f 76/129/3 75/134/3 71/131/3 
f 75/134/3 72/133/3 71/131/3 

usemtl metalMedium

f 76/129/3 63/128/3 66/135/3 
f 66/135/3 75/134/3 76/129/3 
f 66/104/5 63/101/5 64/102/5 
f 64/102/5 65/103/5 66/104/5 
