# Created by Kenney (www.kenney.nl) 

mtllib laptop.mtl 

g laptop

v 0 0 0.1700954 
v 0 0 0.0088 
v -0.264 0 0.1700954 
v -0.0088 0 0 
v -0.2552 0 0 
v -0.264 0 0.0088 
v -0.0088 0.0132 0 
v 0 0.0132 0.0088 
v -0.264 0.0132 0.0088 
v -0.2552 0.0132 0 
v 0 0.1537765 0.2244224 
v 0 0.1483865 0.2364718 
v -0.0088 0.1618094 0.2280157 
v -0.0088 0.1564194 0.2400652 
v 0 0.0132 0.1615395 
v -0.246265 0.02938907 0.1687813 
v -0.264 0.0132 0.1615395 
v -0.264 0.1537765 0.2244224 
v -0.246265 0.1456203 0.220774 
v -0.01773496 0.1456203 0.220774 
v -0.01773496 0.02938907 0.1687813 
v -0.2552 0.1618094 0.2280157 
v -0.264 0.1483865 0.2364718 
v -0.2552 0.1564194 0.2400652 
v -0.02566011 0.0132 0.06825808 
v -0.07988754 0.0132 0.01899121 
v -0.1282875 0.0132 0.01899121 
v -0.1282875 0.0132 0.04545858 
v -0.1774011 0.0132 0.06825808 
v -0.1903988 0.0132 0.06825808 
v -0.1774011 0.0132 0.1383462 
v -0.242311 0.0132 0.06825808 
v -0.242311 0.0132 0.1383462 
v -0.02566011 0.0132 0.1383462 
v -0.1903988 0.0132 0.1383462 
v -0.07988754 0.0132 0.04545858 

vn 0 -1 0 
vn 0.7071068 0 -0.7071068 
vn -0.7071068 0 -0.7071068 
vn 0 0 -1 
vn 0.7071068 0.6454712 0.2887332 
vn 0 0.4083304 -0.9128342 
vn 1 0 0 
vn -0.7071068 0.6454712 0.2887332 
vn 0 0.9128342 0.4083304 
vn 0 -0.4083304 0.9128342 
vn 0 1 0 
vn -1 0 0 

vt 0 15.2197 
vt 0 0.7874016 
vt -23.62205 15.2197 
vt -0.7874016 0 
vt -22.83465 0 
vt -23.62205 0.7874016 
vt 0.556777 9.974007E-29 
vt -0.556777 9.974007E-29 
vt 0.556777 1.181102 
vt -0.556777 1.181102 
vt 17.26009 2.479253E-27 
vt 16.14653 2.479253E-27 
vt 17.26009 1.181102 
vt 16.14653 1.181102 
vt 22.83465 0 
vt 0.7874016 0 
vt 22.83465 1.181102 
vt 0.7874016 1.181102 
vt -18.59063 5.609465 
vt -19.58877 4.978031 
vt -19.18595 6.550525 
vt -20.18409 5.91909 
vt 7.405973E-17 6.980219 
vt 22.03517 8.567098 
vt 23.62205 6.980219 
vt 23.62205 20.75975 
vt 22.03517 19.96027 
vt 1.586879 19.96027 
vt 1.586879 8.567098 
vt 1.028891E-16 20.75975 
vt 22.83465 21.54715 
vt 0.7874016 21.54715 
vt -0.7874016 1.181102 
vt -14.45415 1.181102 
vt -15.2197 0 
vt -20.08075 13.75953 
vt -21.1589 13.27725 
vt 9.66079 -8.506433 
vt 10.25611 -7.565374 
vt 10.65893 -9.137869 
vt 11.25426 -8.196809 
vt -0.7874016 -12.71196 
vt -0.7874016 -13.89306 
vt -22.83465 -12.71196 
vt -22.83465 -13.89306 
vt 1.050423E-17 6.214667 
vt -23.62205 6.214667 
vt 1.46033E-17 20.75975 
vt -23.62205 20.75975 
vt -0.7874016 21.54715 
vt -22.83465 21.54715 
vt 2.296001 6.10756 
vt 7.148133 1.699285 
vt 0.7874016 -2.727787E-17 
vt 22.83465 -2.727787E-17 
vt 11.47884 1.699285 
vt 11.47884 4.067518 
vt 15.8734 6.10756 
vt 17.0364 6.10756 
vt 15.8734 12.37887 
vt 21.68137 6.10756 
vt 21.68137 12.37887 
vt 2.296001 12.37887 
vt 1.150039E-17 14.45415 
vt 1.150039E-17 0.7874016 
vt 23.62205 14.45415 
vt 17.0364 12.37887 
vt 23.62205 0.7874016 
vt 7.148133 4.067518 
vt 15.2197 0 
vt 14.45415 1.181102 
vt 20.08075 13.75953 
vt 21.1589 13.27725 

usemtl metalDark

f 2/2/1 1/1/1 3/3/1 
f 3/3/1 4/4/1 2/2/1 
f 3/3/1 5/5/1 4/4/1 
f 3/3/1 6/6/1 5/5/1 
f 2/8/2 4/7/2 7/9/2 
f 7/9/2 8/10/2 2/8/2 
f 5/12/3 6/11/3 9/13/3 
f 9/13/3 10/14/3 5/12/3 
f 4/16/4 5/15/4 10/17/4 
f 10/17/4 7/18/4 4/16/4 
f 12/20/5 11/19/5 13/21/5 
f 13/21/5 14/22/5 12/20/5 
f 16/24/6 15/23/6 17/25/6 
f 17/25/6 18/26/6 16/24/6 
f 18/26/6 19/27/6 16/24/6 
f 18/26/6 20/28/6 19/27/6 
f 15/23/6 16/24/6 21/29/6 
f 21/29/6 11/30/6 15/23/6 
f 21/29/6 20/28/6 11/30/6 
f 20/28/6 18/26/6 11/30/6 
f 18/26/6 22/31/6 11/30/6 
f 22/31/6 13/32/6 11/30/6 
f 2/4/7 8/33/7 15/34/7 
f 15/34/7 1/35/7 2/4/7 
f 15/34/7 11/36/7 1/35/7 
f 11/36/7 12/37/7 1/35/7 
f 22/39/8 18/38/8 23/40/8 
f 23/40/8 24/41/8 22/39/8 
f 14/43/9 13/42/9 22/44/9 
f 22/44/9 24/45/9 14/43/9 
f 3/47/10 1/46/10 12/48/10 
f 12/48/10 23/49/10 3/47/10 
f 12/48/10 14/50/10 23/49/10 
f 14/50/10 24/51/10 23/49/10 
f 26/53/11 25/52/11 7/54/11 
f 7/54/11 10/55/11 26/53/11 
f 10/55/11 27/56/11 26/53/11 
f 10/55/11 28/57/11 27/56/11 
f 10/55/11 29/58/11 28/57/11 
f 10/55/11 30/59/11 29/58/11 
f 30/59/11 31/60/11 29/58/11 
f 10/55/11 32/61/11 30/59/11 
f 10/55/11 33/62/11 32/61/11 
f 7/54/11 25/52/11 34/63/11 
f 7/54/11 34/63/11 15/64/11 
f 15/64/11 8/65/11 7/54/11 
f 34/63/11 17/66/11 15/64/11 
f 34/63/11 31/60/11 17/66/11 
f 33/62/11 10/55/11 17/66/11 
f 31/60/11 35/67/11 17/66/11 
f 31/60/11 30/59/11 35/67/11 
f 35/67/11 33/62/11 17/66/11 
f 10/55/11 9/68/11 17/66/11 
f 36/69/11 28/57/11 29/58/11 
f 36/69/11 29/58/11 25/52/11 
f 25/52/11 26/53/11 36/69/11 
f 9/18/12 6/16/12 3/70/12 
f 3/70/12 17/71/12 9/18/12 
f 3/70/12 18/72/12 17/71/12 
f 3/70/12 23/73/12 18/72/12 

usemtl metal

f 21/29/6 16/24/6 19/27/6 
f 19/27/6 20/28/6 21/29/6 

usemtl metalMedium

f 36/69/11 26/53/11 27/56/11 
f 27/56/11 28/57/11 36/69/11 
f 34/63/11 25/52/11 29/58/11 
f 29/58/11 31/60/11 34/63/11 
f 35/67/11 30/59/11 32/61/11 
f 32/61/11 33/62/11 35/67/11 
g laptop




usemtl metalDark

f 2/2/1 1/1/1 3/3/1 
f 3/3/1 4/4/1 2/2/1 
f 3/3/1 5/5/1 4/4/1 
f 3/3/1 6/6/1 5/5/1 
f 2/8/2 4/7/2 7/9/2 
f 7/9/2 8/10/2 2/8/2 
f 5/12/3 6/11/3 9/13/3 
f 9/13/3 10/14/3 5/12/3 
f 4/16/4 5/15/4 10/17/4 
f 10/17/4 7/18/4 4/16/4 
f 12/20/5 11/19/5 13/21/5 
f 13/21/5 14/22/5 12/20/5 
f 16/24/6 15/23/6 17/25/6 
f 17/25/6 18/26/6 16/24/6 
f 18/26/6 19/27/6 16/24/6 
f 18/26/6 20/28/6 19/27/6 
f 15/23/6 16/24/6 21/29/6 
f 21/29/6 11/30/6 15/23/6 
f 21/29/6 20/28/6 11/30/6 
f 20/28/6 18/26/6 11/30/6 
f 18/26/6 22/31/6 11/30/6 
f 22/31/6 13/32/6 11/30/6 
f 2/4/7 8/33/7 15/34/7 
f 15/34/7 1/35/7 2/4/7 
f 15/34/7 11/36/7 1/35/7 
f 11/36/7 12/37/7 1/35/7 
f 22/39/8 18/38/8 23/40/8 
f 23/40/8 24/41/8 22/39/8 
f 14/43/9 13/42/9 22/44/9 
f 22/44/9 24/45/9 14/43/9 
f 3/47/10 1/46/10 12/48/10 
f 12/48/10 23/49/10 3/47/10 
f 12/48/10 14/50/10 23/49/10 
f 14/50/10 24/51/10 23/49/10 
f 26/53/11 25/52/11 7/54/11 
f 7/54/11 10/55/11 26/53/11 
f 10/55/11 27/56/11 26/53/11 
f 10/55/11 28/57/11 27/56/11 
f 10/55/11 29/58/11 28/57/11 
f 10/55/11 30/59/11 29/58/11 
f 30/59/11 31/60/11 29/58/11 
f 10/55/11 32/61/11 30/59/11 
f 10/55/11 33/62/11 32/61/11 
f 7/54/11 25/52/11 34/63/11 
f 7/54/11 34/63/11 15/64/11 
f 15/64/11 8/65/11 7/54/11 
f 34/63/11 17/66/11 15/64/11 
f 34/63/11 31/60/11 17/66/11 
f 33/62/11 10/55/11 17/66/11 
f 31/60/11 35/67/11 17/66/11 
f 31/60/11 30/59/11 35/67/11 
f 35/67/11 33/62/11 17/66/11 
f 10/55/11 9/68/11 17/66/11 
f 36/69/11 28/57/11 29/58/11 
f 36/69/11 29/58/11 25/52/11 
f 25/52/11 26/53/11 36/69/11 
f 9/18/12 6/16/12 3/70/12 
f 3/70/12 17/71/12 9/18/12 
f 3/70/12 18/72/12 17/71/12 
f 3/70/12 23/73/12 18/72/12 

usemtl metal

f 21/29/6 16/24/6 19/27/6 
f 19/27/6 20/28/6 21/29/6 

usemtl metalMedium

f 36/69/11 26/53/11 27/56/11 
f 27/56/11 28/57/11 36/69/11 
f 34/63/11 25/52/11 29/58/11 
f 29/58/11 31/60/11 34/63/11 
f 35/67/11 30/59/11 32/61/11 
f 32/61/11 33/62/11 35/67/11 
