# Created by Kenney (www.kenney.nl) 

mtllib loungeChair.mtl 

g loungeChair

v -0.3998286 0.33 0.02 
v -0.3998286 0.23 0.02 
v -0.3998286 0.37 0.06 
v -0.3998286 0.23 0.3198286 
v -0.3998286 0.37 0.3198286 
v -0.05508572 0.42 0.3198286 
v -0.05508572 0.37 0.3198286 
v -0.05508572 0.42 0.41 
v -0.05508572 0.37 0.41 
v -0.4349143 0.42 0.3198286 
v -0.3949143 0.46 0.3198286 
v -0.4349143 0.42 0.41 
v -0.3949143 0.46 0.41 
v -0.49 0.37 0.06 
v -0.4349143 0.37 0.3198286 
v -0.4349143 0.37 0.41 
v -0.49 0.37 0.41 
v -0.49 0.33 0.02 
v -0.09508572 0.46 0.3198286 
v -0.09508572 0.46 0.41 
v -0.49 0.05 0.02 
v -0.49 0.05 0.06 
v -0.49 0.05 0.37 
v -0.49 0.05 0.41 
v -1.127987E-17 0.33 0.02 
v -1.797519E-17 0.05 0.02 
v -1.127987E-17 0.37 0.06 
v -1.797519E-17 0.05 0.06 
v 0 0.37 0.41 
v -8.516298E-16 0.05 0.37 
v -8.516298E-16 0.05 0.41 
v -0.04 0.05 0.41 
v -0.45 0.05 0.41 
v -0.04 0.05 0.37 
v -0.45 0.05 0.06 
v -0.45 0.05 0.37 
v -0.45 0.05 0.02 
v -0.04 0.05 0.02 
v -0.04 0.05 0.06 
v -0.09017144 0.23 0 
v -0.09017144 0.23 0.02 
v -0.3998286 0.23 0 
v -0.09017144 0.23 0.3198286 
v -0.3998286 0.1448143 0 
v -0.09017144 0.1448143 0 
v -0.3998286 0.1448143 0.02 
v -0.09017144 0.1448143 0.02 
v -0.09017144 0.33 0.02 
v -0.09017144 0.37 0.06 
v -0.09017144 0.37 0.3198286 
v -0.45 9.023893E-17 0.41 
v -0.45 9.023893E-17 0.37 
v -0.49 9.023893E-17 0.41 
v -0.49 9.023893E-17 0.37 
v -0.49 0 0.02 
v -0.45 0 0.02 
v -0.04 9.023893E-17 0.37 
v -8.516298E-16 9.023893E-17 0.37 
v -8.516298E-16 9.023893E-17 0.41 
v -1.797519E-17 0 0.06 
v -1.797519E-17 0 0.02 
v -0.04 0 0.06 
v -0.04 0 0.02 
v -0.45 0 0.06 
v -0.49 0 0.06 
v -0.04 9.023893E-17 0.41 

vn 1 0 0 
vn -0.7071068 0.7071068 0 
vn 0 1 0 
vn 0 0.7071068 -0.7071068 
vn -1 0 0 
vn 0 0 1 
vn 0 -1 0 
vn 0 0 -1 
vn 0.7071068 0.7071068 0 

vt -0.7874016 12.99213 
vt -0.7874016 9.055119 
vt -2.362205 14.56693 
vt -12.59168 9.055119 
vt -12.59168 14.56693 
vt -12.59168 16.53543 
vt -16.14173 16.53543 
vt -16.14173 14.56693 
vt 12.59168 -0.4151964 
vt 12.59168 1.811912 
vt 16.14173 -0.4151964 
vt 16.14173 1.811912 
vt 15.74128 2.362205 
vt 15.74128 12.59168 
vt 19.29134 2.362205 
vt 17.12261 12.59168 
vt 17.12261 16.14173 
vt 19.29134 16.14173 
vt 19.29134 9.743597 
vt 15.74128 9.743597 
vt 19.29134 11.97071 
vt 15.74128 11.97071 
vt 3.743532 12.59168 
vt 3.743532 16.14173 
vt 15.54781 12.59168 
vt 15.54781 16.14173 
vt 0.7874016 1.968504 
vt 0.7874016 12.99213 
vt 2.362205 1.968504 
vt 2.362205 14.56693 
vt 14.56693 1.968504 
vt 16.14173 14.56693 
vt 16.14173 1.968504 
vt -0.7874016 1.968504 
vt -2.362205 1.968504 
vt -14.56693 1.968504 
vt -16.14173 1.968504 
vt -3.951606E-14 1.968504 
vt -1.574803 1.968504 
vt -5.987324E-15 14.56693 
vt -17.71654 1.968504 
vt -2.168729 14.56693 
vt -19.29134 14.56693 
vt -19.29134 1.968504 
vt -17.12261 14.56693 
vt -2.168729 16.53543 
vt -17.12261 16.53543 
vt -3.743532 18.11024 
vt -15.54781 18.11024 
vt -1.574803 16.14173 
vt -1.574803 14.56693 
vt -17.71654 16.14173 
vt -17.71654 2.362205 
vt -17.71654 14.56693 
vt -19.29134 2.362205 
vt -17.71654 0.7874016 
vt -1.574803 0.7874016 
vt -1.574803 2.362205 
vt -3.345127E-14 14.56693 
vt -6.302192E-16 2.362205 
vt 3.550057 0 
vt 3.550057 0.7874016 
vt 15.74128 0 
vt 3.550057 12.59168 
vt 15.74128 0.7874016 
vt 15.74128 5.701352 
vt 3.550057 5.701352 
vt 15.74128 9.055119 
vt 3.550057 9.055119 
vt 19.29134 1.968504 
vt 17.71654 1.968504 
vt 19.29134 12.99213 
vt 1.574803 1.968504 
vt 7.076846E-16 1.968504 
vt 15.74128 12.99213 
vt 4.440892E-16 12.99213 
vt 3.550057 12.99213 
vt -9.151615E-15 2.362205 
vt 2.168729 12.59168 
vt 3.550057 2.362205 
vt 2.168729 16.14173 
vt -9.595704E-15 16.14173 
vt 3.550057 9.743597 
vt 4.440892E-16 9.743597 
vt 3.550057 11.97071 
vt 4.440892E-16 11.97071 
vt 0.7874016 9.055119 
vt 12.59168 9.055119 
vt 12.59168 14.56693 
vt -12.59168 15.45295 
vt -12.59168 13.22584 
vt -16.14173 15.45295 
vt -16.14173 13.22584 
vt 17.12261 14.56693 
vt 15.74128 14.56693 
vt 17.12261 16.53543 
vt 3.550057 14.56693 
vt 2.168729 14.56693 
vt 2.168729 16.53543 
vt 15.54781 18.11024 
vt 3.743532 18.11024 
vt 12.59168 16.53543 
vt 16.14173 16.53543 
vt 0 9.055119 
vt 0 5.701352 
vt -0.7874016 5.701352 
vt -3.550057 0.7874016 
vt -3.550057 0 
vt -15.74128 0.7874016 
vt -15.74128 0 
vt 0.7874016 5.701352 
vt -19.29134 16.14173 
vt -17.71654 1.49214E-13 
vt -19.29134 1.49214E-13 
vt 14.56693 -1.705303E-13 
vt 16.14173 -1.705303E-13 
vt 19.29134 3.552714E-15 
vt 17.71654 3.552714E-15 
vt -14.56693 3.552714E-15 
vt -16.14173 3.552714E-15 
vt 19.29134 0 
vt 17.71654 0 
vt 1.574803 3.552714E-15 
vt 3.352874E-14 3.552714E-15 
vt 3.352874E-14 1.968504 
vt -7.076846E-16 2.362205 
vt -7.076846E-16 0.7874016 
vt -0.7874016 0 
vt -2.362205 0 
vt -17.71654 0 
vt -19.29134 0 
vt -7.076846E-16 0 
vt -1.574803 0 
vt -7.076846E-16 1.968504 
vt 0.7874016 0 
vt 2.362205 0 
vt -19.29134 0.7874016 
vt -3.352874E-14 3.552714E-15 
vt -1.574803 3.552714E-15 
vt 14.56693 3.552714E-15 
vt 16.14173 3.552714E-15 
vt -3.352874E-14 16.14173 
vt -3.352874E-14 14.56693 
vt 1.574803 0 
vt 7.076846E-16 0 

usemtl carpet

f 2/2/1 1/1/1 3/3/1 
f 3/3/1 4/4/1 2/2/1 
f 3/3/1 5/5/1 4/4/1 
f 7/5/1 6/6/1 8/7/1 
f 8/7/1 9/8/1 7/5/1 
f 11/10/2 10/9/2 12/11/2 
f 12/11/2 13/12/2 11/10/2 
f 5/14/3 3/13/3 14/15/3 
f 14/15/3 15/16/3 5/14/3 
f 14/15/3 16/17/3 15/16/3 
f 14/15/3 17/18/3 16/17/3 
f 1/20/4 18/19/4 14/21/4 
f 14/21/4 3/22/4 1/20/4 
f 20/24/3 19/23/3 11/25/3 
f 11/25/3 13/26/3 20/24/3 
f 18/28/5 21/27/5 22/29/5 
f 22/29/5 14/30/5 18/28/5 
f 22/29/5 23/31/5 14/30/5 
f 23/31/5 17/32/5 14/30/5 
f 23/31/5 24/33/5 17/32/5 
f 26/34/1 25/1/1 27/3/1 
f 27/3/1 28/35/1 26/34/1 
f 27/3/1 29/8/1 28/35/1 
f 29/8/1 30/36/1 28/35/1 
f 29/8/1 31/37/1 30/36/1 
f 32/39/6 31/38/6 29/40/6 
f 29/40/6 33/41/6 32/39/6 
f 29/40/6 9/42/6 33/41/6 
f 33/41/6 9/42/6 17/43/6 
f 17/43/6 24/44/6 33/41/6 
f 9/42/6 16/45/6 17/43/6 
f 16/45/6 9/42/6 8/46/6 
f 8/46/6 12/47/6 16/45/6 
f 8/46/6 20/48/6 12/47/6 
f 20/48/6 13/49/6 12/47/6 
f 34/51/7 32/50/7 33/52/7 
f 33/52/7 35/53/7 34/51/7 
f 33/52/7 36/54/7 35/53/7 
f 36/54/7 22/55/7 35/53/7 
f 36/54/7 23/43/7 22/55/7 
f 34/51/7 35/53/7 37/56/7 
f 34/51/7 37/56/7 38/57/7 
f 34/51/7 38/57/7 39/58/7 
f 30/59/7 34/51/7 39/58/7 
f 39/58/7 28/60/7 30/59/7 
f 41/62/3 40/61/3 42/63/3 
f 42/63/3 43/64/3 41/62/3 
f 42/63/3 4/14/3 43/64/3 
f 42/63/3 2/65/3 4/14/3 
f 45/67/8 44/66/8 42/68/8 
f 42/68/8 40/69/8 45/67/8 
f 37/71/8 21/70/8 18/72/8 
f 18/72/8 46/66/8 37/71/8 
f 46/66/8 38/73/8 37/71/8 
f 46/66/8 26/74/8 38/73/8 
f 18/72/8 2/68/8 46/66/8 
f 18/72/8 1/75/8 2/68/8 
f 26/74/8 46/66/8 47/67/8 
f 47/67/8 25/76/8 26/74/8 
f 47/67/8 41/69/8 25/76/8 
f 41/69/8 48/77/8 25/76/8 
f 7/79/3 27/78/3 49/80/3 
f 49/80/3 50/64/3 7/79/3 
f 27/78/3 7/79/3 9/81/3 
f 9/81/3 29/82/3 27/78/3 
f 25/84/4 48/83/4 49/85/4 
f 49/85/4 27/86/4 25/84/4 
f 48/28/5 41/87/5 43/88/5 
f 43/88/5 49/30/5 48/28/5 
f 43/88/5 50/89/5 49/30/5 
f 6/91/9 19/90/9 20/92/9 
f 20/92/9 8/93/9 6/91/9 
f 5/95/8 15/94/8 10/96/8 
f 10/96/8 50/97/8 5/95/8 
f 10/96/8 7/98/8 50/97/8 
f 10/96/8 6/99/8 7/98/8 
f 10/96/8 11/100/8 6/99/8 
f 11/100/8 19/101/8 6/99/8 
f 5/95/8 50/97/8 43/69/8 
f 43/69/8 4/68/8 5/95/8 
f 10/102/5 15/89/5 16/32/5 
f 16/32/5 12/103/5 10/102/5 
f 45/105/1 40/104/1 41/2/1 
f 41/2/1 47/106/1 45/105/1 
f 45/108/7 47/107/7 46/109/7 
f 46/109/7 44/110/7 45/108/7 
f 42/104/5 44/105/5 46/111/5 
f 46/111/5 2/87/5 42/104/5 

usemtl wood

f 52/54/7 51/52/7 53/112/7 
f 53/112/7 54/43/7 52/54/7 
f 53/114/6 51/113/6 33/41/6 
f 33/41/6 24/44/6 53/114/6 
f 23/31/5 54/115/5 53/116/5 
f 53/116/5 24/33/5 23/31/5 
f 52/118/8 54/117/8 23/70/8 
f 23/70/8 36/71/8 52/118/8 
f 52/119/1 36/36/1 33/37/1 
f 33/37/1 51/120/1 52/119/1 
f 56/122/8 55/121/8 21/70/8 
f 21/70/8 37/71/8 56/122/8 
f 58/124/8 57/123/8 34/73/8 
f 34/73/8 30/125/8 58/124/8 
f 58/119/1 30/36/1 31/37/1 
f 31/37/1 59/120/1 58/119/1 
f 61/127/7 60/126/7 62/58/7 
f 62/58/7 63/57/7 61/127/7 
f 56/128/1 37/34/1 35/35/1 
f 35/35/1 64/129/1 56/128/1 
f 61/128/1 26/34/1 28/35/1 
f 28/35/1 60/129/1 61/128/1 
f 65/131/6 64/130/6 35/41/6 
f 35/41/6 22/44/6 65/131/6 
f 62/133/6 60/132/6 28/134/6 
f 28/134/6 39/39/6 62/133/6 
f 38/27/5 63/135/5 62/136/5 
f 62/136/5 39/29/5 38/27/5 
f 21/27/5 55/135/5 65/136/5 
f 65/136/5 22/29/5 21/27/5 
f 56/56/7 64/53/7 65/55/7 
f 65/55/7 55/137/7 56/56/7 
f 66/139/6 59/138/6 31/38/6 
f 31/38/6 32/39/6 66/139/6 
f 34/31/5 57/140/5 66/141/5 
f 66/141/5 32/33/5 34/31/5 
f 58/143/7 59/142/7 66/50/7 
f 66/50/7 57/51/7 58/143/7 
f 61/145/8 63/144/8 38/73/8 
f 38/73/8 26/74/8 61/145/8 
g loungeChair




usemtl carpet

f 2/2/1 1/1/1 3/3/1 
f 3/3/1 4/4/1 2/2/1 
f 3/3/1 5/5/1 4/4/1 
f 7/5/1 6/6/1 8/7/1 
f 8/7/1 9/8/1 7/5/1 
f 11/10/2 10/9/2 12/11/2 
f 12/11/2 13/12/2 11/10/2 
f 5/14/3 3/13/3 14/15/3 
f 14/15/3 15/16/3 5/14/3 
f 14/15/3 16/17/3 15/16/3 
f 14/15/3 17/18/3 16/17/3 
f 1/20/4 18/19/4 14/21/4 
f 14/21/4 3/22/4 1/20/4 
f 20/24/3 19/23/3 11/25/3 
f 11/25/3 13/26/3 20/24/3 
f 18/28/5 21/27/5 22/29/5 
f 22/29/5 14/30/5 18/28/5 
f 22/29/5 23/31/5 14/30/5 
f 23/31/5 17/32/5 14/30/5 
f 23/31/5 24/33/5 17/32/5 
f 26/34/1 25/1/1 27/3/1 
f 27/3/1 28/35/1 26/34/1 
f 27/3/1 29/8/1 28/35/1 
f 29/8/1 30/36/1 28/35/1 
f 29/8/1 31/37/1 30/36/1 
f 32/39/6 31/38/6 29/40/6 
f 29/40/6 33/41/6 32/39/6 
f 29/40/6 9/42/6 33/41/6 
f 33/41/6 9/42/6 17/43/6 
f 17/43/6 24/44/6 33/41/6 
f 9/42/6 16/45/6 17/43/6 
f 16/45/6 9/42/6 8/46/6 
f 8/46/6 12/47/6 16/45/6 
f 8/46/6 20/48/6 12/47/6 
f 20/48/6 13/49/6 12/47/6 
f 34/51/7 32/50/7 33/52/7 
f 33/52/7 35/53/7 34/51/7 
f 33/52/7 36/54/7 35/53/7 
f 36/54/7 22/55/7 35/53/7 
f 36/54/7 23/43/7 22/55/7 
f 34/51/7 35/53/7 37/56/7 
f 34/51/7 37/56/7 38/57/7 
f 34/51/7 38/57/7 39/58/7 
f 30/59/7 34/51/7 39/58/7 
f 39/58/7 28/60/7 30/59/7 
f 41/62/3 40/61/3 42/63/3 
f 42/63/3 43/64/3 41/62/3 
f 42/63/3 4/14/3 43/64/3 
f 42/63/3 2/65/3 4/14/3 
f 45/67/8 44/66/8 42/68/8 
f 42/68/8 40/69/8 45/67/8 
f 37/71/8 21/70/8 18/72/8 
f 18/72/8 46/66/8 37/71/8 
f 46/66/8 38/73/8 37/71/8 
f 46/66/8 26/74/8 38/73/8 
f 18/72/8 2/68/8 46/66/8 
f 18/72/8 1/75/8 2/68/8 
f 26/74/8 46/66/8 47/67/8 
f 47/67/8 25/76/8 26/74/8 
f 47/67/8 41/69/8 25/76/8 
f 41/69/8 48/77/8 25/76/8 
f 7/79/3 27/78/3 49/80/3 
f 49/80/3 50/64/3 7/79/3 
f 27/78/3 7/79/3 9/81/3 
f 9/81/3 29/82/3 27/78/3 
f 25/84/4 48/83/4 49/85/4 
f 49/85/4 27/86/4 25/84/4 
f 48/28/5 41/87/5 43/88/5 
f 43/88/5 49/30/5 48/28/5 
f 43/88/5 50/89/5 49/30/5 
f 6/91/9 19/90/9 20/92/9 
f 20/92/9 8/93/9 6/91/9 
f 5/95/8 15/94/8 10/96/8 
f 10/96/8 50/97/8 5/95/8 
f 10/96/8 7/98/8 50/97/8 
f 10/96/8 6/99/8 7/98/8 
f 10/96/8 11/100/8 6/99/8 
f 11/100/8 19/101/8 6/99/8 
f 5/95/8 50/97/8 43/69/8 
f 43/69/8 4/68/8 5/95/8 
f 10/102/5 15/89/5 16/32/5 
f 16/32/5 12/103/5 10/102/5 
f 45/105/1 40/104/1 41/2/1 
f 41/2/1 47/106/1 45/105/1 
f 45/108/7 47/107/7 46/109/7 
f 46/109/7 44/110/7 45/108/7 
f 42/104/5 44/105/5 46/111/5 
f 46/111/5 2/87/5 42/104/5 

usemtl wood

f 52/54/7 51/52/7 53/112/7 
f 53/112/7 54/43/7 52/54/7 
f 53/114/6 51/113/6 33/41/6 
f 33/41/6 24/44/6 53/114/6 
f 23/31/5 54/115/5 53/116/5 
f 53/116/5 24/33/5 23/31/5 
f 52/118/8 54/117/8 23/70/8 
f 23/70/8 36/71/8 52/118/8 
f 52/119/1 36/36/1 33/37/1 
f 33/37/1 51/120/1 52/119/1 
f 56/122/8 55/121/8 21/70/8 
f 21/70/8 37/71/8 56/122/8 
f 58/124/8 57/123/8 34/73/8 
f 34/73/8 30/125/8 58/124/8 
f 58/119/1 30/36/1 31/37/1 
f 31/37/1 59/120/1 58/119/1 
f 61/127/7 60/126/7 62/58/7 
f 62/58/7 63/57/7 61/127/7 
f 56/128/1 37/34/1 35/35/1 
f 35/35/1 64/129/1 56/128/1 
f 61/128/1 26/34/1 28/35/1 
f 28/35/1 60/129/1 61/128/1 
f 65/131/6 64/130/6 35/41/6 
f 35/41/6 22/44/6 65/131/6 
f 62/133/6 60/132/6 28/134/6 
f 28/134/6 39/39/6 62/133/6 
f 38/27/5 63/135/5 62/136/5 
f 62/136/5 39/29/5 38/27/5 
f 21/27/5 55/135/5 65/136/5 
f 65/136/5 22/29/5 21/27/5 
f 56/56/7 64/53/7 65/55/7 
f 65/55/7 55/137/7 56/56/7 
f 66/139/6 59/138/6 31/38/6 
f 31/38/6 32/39/6 66/139/6 
f 34/31/5 57/140/5 66/141/5 
f 66/141/5 32/33/5 34/31/5 
f 58/143/7 59/142/7 66/50/7 
f 66/50/7 57/51/7 58/143/7 
f 61/145/8 63/144/8 38/73/8 
f 38/73/8 26/74/8 61/145/8 
