# Created by Kenney (www.kenney.nl) 

mtllib pillowLong.mtl 

g pillowLong

v -0.3566755 0.03483402 0 
v -0.3566755 0.1992346 0.044051 
v -0.3566755 -3.609557E-16 0.0144776 
v -0.3566755 0.02292834 0.04443259 
v -0.3566755 0.2221629 0.07400598 
v -0.3566755 0.1873289 0.08848359 
v -0.3865755 0.1932818 0.0662673 
v 0 0.02888118 0.02221629 
v -0.0299 5.86553E-16 0.0144776 
v -0.0299 0.02292834 0.04443259 
v -0.3865755 0.02888118 0.02221629 
v -5.414336E-16 0.1932818 0.0662673 
v -0.0299 0.2221629 0.07400598 
v -0.0299 0.03483402 0 
v -0.0299 0.1992346 0.044051 
v -0.0299 0.1873289 0.08848359 

vn -1 0 0 
vn -0.5205792 0.6779975 -0.5189574 
vn 0.5205792 -0.6779975 0.5189574 
vn -0.6097108 -0.2051462 0.765616 
vn 0 -0.258819 0.9659258 
vn 0 0.258819 -0.9659258 
vn 1 0 0 
vn 0 -0.9659258 -0.258819 
vn -0.5205792 -0.6779975 0.5189574 
vn 0.6097108 0.2051462 -0.765616 
vn 0.5205792 0.3276843 0.788429 
vn 0 0.9659258 0.258819 
vn 0.6097108 -0.2051462 0.765616 
vn 0 -0.3837892 -0.9234207 
vn 0 -0.7940816 0.6078112 
vn -0.5205792 -0.3276843 -0.788429 
vn -0.6097108 0.2051462 -0.765616 
vn 0 0.7940816 -0.6078112 
vn 0.5205792 0.6779975 -0.5189574 
vn 0.5205792 -0.3276843 -0.788429 
vn 0 0.3837892 0.9234207 
vn -0.5205792 0.3276843 0.788429 

vt -1.488159E-13 1.371418 
vt 1.734291 7.843882 
vt 0.5699844 6.900331E-14 
vt 1.749315 0.9026907 
vt 2.913621 8.746572 
vt 3.483606 7.375154 
vt 11.14217 -0.1467212 
vt 11.97739 1.081322 
vt 12.5927 -0.4655555 
vt -0.6194403 1.254479 
vt -1.23475 -0.2923991 
vt -2.069963 0.9356442 
vt -9.894919 2.958798 
vt -11.36064 3.198254 
vt -8.814525 9.571914 
vt -10.28024 9.81137 
vt -14.04234 0.1475228 
vt -15.21951 1.324688 
vt -1.177165 0.1475228 
vt -1.834413E-16 1.324688 
vt -15.21951 8.025476 
vt -2.186346E-14 8.025476 
vt -14.04234 9.202641 
vt -1.177165 9.202641 
vt 14.04234 1.324688 
vt 1.177165 1.324688 
vt 14.04234 8.025476 
vt 1.177165 8.025476 
vt 9.193139E-15 1.371418 
vt -0.5699844 3.060532E-14 
vt -1.734291 7.843882 
vt -1.749315 0.9026907 
vt -2.913621 8.746572 
vt -3.483606 7.375154 
vt -9.668014E-15 -0.5505627 
vt 1.177165 0.3549491 
vt 1.177165 -1.456074 
vt 14.04234 -1.456074 
vt 14.04234 0.3549491 
vt 15.21951 -0.5505627 
vt -8.675053 8.243505 
vt -9.510265 7.015461 
vt -10.12558 8.562339 
vt -0.5448768 1.253233 
vt -1.625271 7.866348 
vt 0.9208417 1.492689 
vt -0.159553 8.105804 
vt -1.437535 6.475948 
vt -2.901822 6.227889 
vt -2.587759 7.679451 
vt 1.770129E-15 -0.5505627 
vt -1.177165 -1.456074 
vt -1.177165 0.3549491 
vt -14.04234 -1.456074 
vt -14.04234 0.3549491 
vt -15.21951 -0.5505627 
vt -2.010595 1.013776 
vt -3.09099 7.626892 
vt -14.04234 1.324688 
vt -14.04234 8.025476 
vt -1.177165 1.324688 
vt -1.177165 8.025476 
vt 14.04234 -0.2187539 
vt 1.177165 -0.2187539 
vt 14.04234 1.266396 
vt 1.177165 1.266396 
vt -1.177165 0.4526141 
vt -14.04234 0.4526141 
vt -1.177165 1.937764 
vt -14.04234 1.937764 
vt 13.18268 3.583048 
vt 12.03246 2.379545 
vt 11.7184 3.831108 
vt 12.45039 -0.6917892 
vt 10.98467 -0.4523326 
vt 13.53079 5.921327 
vt 12.06507 6.160783 
vt 1.177165 7.629918 
vt 14.04234 7.629918 
vt 1.177165 6.144768 
vt 14.04234 6.144768 
vt -1.847681 6.842305 
vt -1.232371 8.389183 
vt -0.397159 7.161139 
vt 0.6682872 -0.3684071 
vt -0.4819375 0.835096 
vt 0.9823495 1.083156 
vt -14.04234 5.4734 
vt -14.04234 6.95855 
vt -1.177165 5.4734 
vt -1.177165 6.95855 
vt -9.798924 3.479937 
vt -11.26321 3.727996 
vt -10.11299 4.931499 

usemtl carpet

f 2/2/1 1/1/1 3/3/1 
f 3/3/1 4/4/1 2/2/1 
f 4/4/1 5/5/1 2/2/1 
f 4/4/1 6/6/1 5/5/1 
f 5/8/2 2/7/2 7/9/2 
f 9/11/3 8/10/3 10/12/3 
f 11/14/4 4/13/4 6/15/4 
f 6/15/4 7/16/4 11/14/4 
f 11/18/5 3/17/5 9/19/5 
f 9/19/5 8/20/5 11/18/5 
f 8/20/5 7/21/5 11/18/5 
f 8/20/5 12/22/5 7/21/5 
f 12/22/5 5/23/5 7/21/5 
f 12/22/5 13/24/5 5/23/5 
f 14/26/6 1/25/6 2/27/6 
f 2/27/6 15/28/6 14/26/6 
f 9/30/7 14/29/7 15/31/7 
f 15/31/7 10/32/7 9/30/7 
f 15/31/7 13/33/7 10/32/7 
f 13/33/7 16/34/7 10/32/7 
f 14/36/8 8/35/8 10/37/8 
f 10/37/8 4/38/8 14/36/8 
f 4/38/8 1/39/8 14/36/8 
f 4/38/8 11/40/8 1/39/8 
f 3/42/9 4/41/9 11/43/9 
f 12/45/10 8/44/10 14/46/10 
f 14/46/10 15/47/10 12/45/10 
f 16/49/11 12/48/11 13/50/11 
f 16/52/12 12/51/12 15/53/12 
f 15/53/12 6/54/12 16/52/12 
f 15/53/12 2/55/12 6/54/12 
f 2/55/12 7/56/12 6/54/12 
f 16/58/13 10/57/13 8/44/13 
f 8/44/13 12/45/13 16/58/13 
f 6/60/5 4/59/5 10/61/5 
f 10/61/5 16/62/5 6/60/5 
f 9/64/14 3/63/14 1/65/14 
f 1/65/14 14/66/14 9/64/14 
f 3/68/15 9/67/15 10/69/15 
f 10/69/15 4/70/15 3/68/15 
f 3/72/16 11/71/16 1/73/16 
f 1/75/17 11/74/17 7/76/17 
f 7/76/17 2/77/17 1/75/17 
f 5/79/18 13/78/18 15/80/18 
f 15/80/18 2/81/18 5/79/18 
f 13/83/19 12/82/19 15/84/19 
f 8/86/20 9/85/20 14/87/20 
f 5/89/21 6/88/21 16/90/21 
f 16/90/21 13/91/21 5/89/21 
f 7/93/22 6/92/22 5/94/22 
g pillowLong




usemtl carpet

f 2/2/1 1/1/1 3/3/1 
f 3/3/1 4/4/1 2/2/1 
f 4/4/1 5/5/1 2/2/1 
f 4/4/1 6/6/1 5/5/1 
f 5/8/2 2/7/2 7/9/2 
f 9/11/3 8/10/3 10/12/3 
f 11/14/4 4/13/4 6/15/4 
f 6/15/4 7/16/4 11/14/4 
f 11/18/5 3/17/5 9/19/5 
f 9/19/5 8/20/5 11/18/5 
f 8/20/5 7/21/5 11/18/5 
f 8/20/5 12/22/5 7/21/5 
f 12/22/5 5/23/5 7/21/5 
f 12/22/5 13/24/5 5/23/5 
f 14/26/6 1/25/6 2/27/6 
f 2/27/6 15/28/6 14/26/6 
f 9/30/7 14/29/7 15/31/7 
f 15/31/7 10/32/7 9/30/7 
f 15/31/7 13/33/7 10/32/7 
f 13/33/7 16/34/7 10/32/7 
f 14/36/8 8/35/8 10/37/8 
f 10/37/8 4/38/8 14/36/8 
f 4/38/8 1/39/8 14/36/8 
f 4/38/8 11/40/8 1/39/8 
f 3/42/9 4/41/9 11/43/9 
f 12/45/10 8/44/10 14/46/10 
f 14/46/10 15/47/10 12/45/10 
f 16/49/11 12/48/11 13/50/11 
f 16/52/12 12/51/12 15/53/12 
f 15/53/12 6/54/12 16/52/12 
f 15/53/12 2/55/12 6/54/12 
f 2/55/12 7/56/12 6/54/12 
f 16/58/13 10/57/13 8/44/13 
f 8/44/13 12/45/13 16/58/13 
f 6/60/5 4/59/5 10/61/5 
f 10/61/5 16/62/5 6/60/5 
f 9/64/14 3/63/14 1/65/14 
f 1/65/14 14/66/14 9/64/14 
f 3/68/15 9/67/15 10/69/15 
f 10/69/15 4/70/15 3/68/15 
f 3/72/16 11/71/16 1/73/16 
f 1/75/17 11/74/17 7/76/17 
f 7/76/17 2/77/17 1/75/17 
f 5/79/18 13/78/18 15/80/18 
f 15/80/18 2/81/18 5/79/18 
f 13/83/19 12/82/19 15/84/19 
f 8/86/20 9/85/20 14/87/20 
f 5/89/21 6/88/21 16/90/21 
f 16/90/21 13/91/21 5/89/21 
f 7/93/22 6/92/22 5/94/22 
