# Created by Kenney (www.kenney.nl) 

mtllib pottedPlant.mtl 

g pottedPlant

v -0.08578847 0.24304 -0.04953 
v -0.08578847 0.24304 0.04953 
v -0.06754998 0 -0.039 
v -0.06754998 0 0.039 
v -0.06454916 0.24304 -0.03726747 
v -0.06454916 0.21824 -0.03726747 
v -0.06454916 0.24304 0.03726748 
v -0.06454916 0.21824 0.03726748 
v 2.221758E-09 0.21824 0.07453495 
v 2.221758E-09 0.24304 0.07453495 
v -2.221765E-09 0.21824 -0.07453495 
v -2.221765E-09 0.24304 -0.07453495 
v 0.06454916 0.21824 0.03726747 
v 0.06454916 0.24304 0.03726747 
v 0.06454916 0.24304 -0.03726748 
v 0.08578847 0.24304 -0.04953 
v -2.952815E-09 0.24304 -0.09906 
v 0.08578847 0.24304 0.04953 
v 2.952809E-09 0.24304 0.09906 
v 2.325045E-09 0 0.078 
v -2.325053E-09 0 -0.078 
v 0.06754998 0 -0.039 
v 0.06454916 0.21824 -0.03726748 
v 0.06754998 0 0.039 

vn -0.9971961 -0.07483277 0 
vn 1 0 0 
vn 0.5 0 -0.8660254 
vn 0.5 0 0.8660254 
vn -0.5 0 -0.8660254 
vn 0 1 0 
vn -0.498598 -0.07483277 0.8635972 
vn 0.498598 -0.07483277 -0.8635972 
vn -1 0 0 
vn 0 -1 0 
vn -0.498598 -0.07483277 -0.8635972 
vn -0.5 0 0.8660254 
vn 0.498598 -0.07483277 0.8635972 
vn 0.9971961 -0.07483277 0 

vt -0.975 4.897211 
vt 0.975 4.897211 
vt -0.7677165 0.09950693 
vt 0.7677165 0.09950693 
vt 0.7336117 4.784252 
vt 0.7336117 4.296063 
vt -0.7336117 4.784252 
vt -0.7336117 4.296063 
vt -1.270653 0.7336116 
vt -1.270653 -0.7336118 
vt -1.68875 -0.975 
vt 5.812628E-08 -1.95 
vt 4.373553E-08 -1.467223 
vt 1.270653 -0.7336116 
vt 1.68875 -0.975 
vt 1.68875 0.975 
vt -1.68875 0.975 
vt -5.812615E-08 1.95 
vt -4.373539E-08 1.467223 
vt 1.270653 0.7336118 
vt 1.329724 0.7677165 
vt 1.329724 -0.7677166 
vt 4.576861E-08 1.535433 
vt -4.576875E-08 -1.535433 
vt -1.329724 0.7677166 
vt -1.329724 -0.7677165 

usemtl wood

f 2/2/1 1/1/1 3/3/1 
f 3/3/1 4/4/1 2/2/1 
f 6/6/2 5/5/2 7/7/2 
f 7/7/2 8/8/2 6/6/2 
f 9/8/3 8/6/3 7/5/3 
f 7/5/3 10/7/3 9/8/3 
f 6/8/4 11/6/4 12/5/4 
f 12/5/4 5/7/4 6/8/4 
f 13/8/5 9/6/5 10/5/5 
f 10/5/5 14/7/5 13/8/5 
f 15/10/6 14/9/6 16/11/6 
f 16/11/6 17/12/6 15/10/6 
f 17/12/6 12/13/6 15/10/6 
f 17/12/6 5/14/6 12/13/6 
f 17/12/6 1/15/6 5/14/6 
f 1/15/6 2/16/6 5/14/6 
f 18/17/6 16/11/6 14/9/6 
f 14/9/6 19/18/6 18/17/6 
f 14/9/6 10/19/6 19/18/6 
f 10/19/6 2/16/6 19/18/6 
f 10/19/6 7/20/6 2/16/6 
f 7/20/6 5/14/6 2/16/6 
f 4/3/7 20/4/7 19/2/7 
f 19/2/7 2/1/7 4/3/7 
f 22/3/8 21/4/8 17/2/8 
f 17/2/8 16/1/8 22/3/8 
f 15/7/9 23/8/9 13/6/9 
f 13/6/9 14/5/9 15/7/9 
f 22/22/10 24/21/10 20/23/10 
f 20/23/10 21/24/10 22/22/10 
f 20/23/10 4/25/10 21/24/10 
f 4/25/10 3/26/10 21/24/10 
f 21/3/11 3/4/11 1/2/11 
f 1/2/11 17/1/11 21/3/11 
f 11/8/12 23/6/12 15/5/12 
f 15/5/12 12/7/12 11/8/12 
f 20/3/13 24/4/13 18/2/13 
f 18/2/13 19/1/13 20/3/13 
f 22/4/14 16/2/14 18/1/14 
f 18/1/14 24/3/14 22/4/14 

usemtl woodDark

f 9/19/6 13/9/6 23/10/6 
f 23/10/6 11/13/6 9/19/6 
f 11/13/6 8/20/6 9/19/6 
f 11/13/6 6/14/6 8/20/6 
g pottedPlant




usemtl wood

f 2/2/1 1/1/1 3/3/1 
f 3/3/1 4/4/1 2/2/1 
f 6/6/2 5/5/2 7/7/2 
f 7/7/2 8/8/2 6/6/2 
f 9/8/3 8/6/3 7/5/3 
f 7/5/3 10/7/3 9/8/3 
f 6/8/4 11/6/4 12/5/4 
f 12/5/4 5/7/4 6/8/4 
f 13/8/5 9/6/5 10/5/5 
f 10/5/5 14/7/5 13/8/5 
f 15/10/6 14/9/6 16/11/6 
f 16/11/6 17/12/6 15/10/6 
f 17/12/6 12/13/6 15/10/6 
f 17/12/6 5/14/6 12/13/6 
f 17/12/6 1/15/6 5/14/6 
f 1/15/6 2/16/6 5/14/6 
f 18/17/6 16/11/6 14/9/6 
f 14/9/6 19/18/6 18/17/6 
f 14/9/6 10/19/6 19/18/6 
f 10/19/6 2/16/6 19/18/6 
f 10/19/6 7/20/6 2/16/6 
f 7/20/6 5/14/6 2/16/6 
f 4/3/7 20/4/7 19/2/7 
f 19/2/7 2/1/7 4/3/7 
f 22/3/8 21/4/8 17/2/8 
f 17/2/8 16/1/8 22/3/8 
f 15/7/9 23/8/9 13/6/9 
f 13/6/9 14/5/9 15/7/9 
f 22/22/10 24/21/10 20/23/10 
f 20/23/10 21/24/10 22/22/10 
f 20/23/10 4/25/10 21/24/10 
f 4/25/10 3/26/10 21/24/10 
f 21/3/11 3/4/11 1/2/11 
f 1/2/11 17/1/11 21/3/11 
f 11/8/12 23/6/12 15/5/12 
f 15/5/12 12/7/12 11/8/12 
f 20/3/13 24/4/13 18/2/13 
f 18/2/13 19/1/13 20/3/13 
f 22/4/14 16/2/14 18/1/14 
f 18/1/14 24/3/14 22/4/14 

usemtl woodDark

f 9/19/6 13/9/6 23/10/6 
f 23/10/6 11/13/6 9/19/6 
f 11/13/6 8/20/6 9/19/6 
f 11/13/6 6/14/6 8/20/6 
g plant

v 0.1060296 0.6540168 0 
v 0 0.11824 0 
v 0.02284262 0.3529258 0.0489888 
v -0.05976633 0.2920813 0.02600982 
v 0 0.5151117 0.120731 
v 0.05976634 0.2920813 -0.02600981 
v 0 0.5151117 -0.120731 
v -0.02284261 0.3529258 -0.0489888 
v -0.1060296 0.6540168 0 
v -0.05976633 0.2920813 -0.02600981 
v -0.02284261 0.3529258 0.0489888 
v 0.02284262 0.3529258 -0.0489888 
v 0.05976634 0.2920813 0.02600982 

vn 0.8869137 -0.1755192 0.4272904 
vn -0.8869137 0.1755192 -0.4272904 
vn -0.3951705 -0.2673497 0.8788426 
vn 0.3951705 0.2673497 -0.8788426 
vn 0.3951705 -0.2673497 -0.8788426 
vn -0.3951705 0.2673497 0.8788426 
vn -0.8869137 -0.1755192 -0.4272904 
vn 0.8869137 0.1755192 0.4272904 
vn -0.3951705 -0.2673497 -0.8788426 
vn 0.3951705 0.2673497 0.8788426 
vn -0.8869137 -0.1755192 0.4272904 
vn 0.8869137 0.1755192 -0.4272904 
vn 0.8869137 -0.1755192 -0.4272904 
vn -0.8869137 0.1755192 0.4272904 
vn 0.3951705 -0.2673497 0.8788426 
vn -0.3951705 0.2673497 -0.8788426 

vt -4.282144 21.12822 
vt -6.093949 -0.2979776 
vt -7.441179 9.087317 
vt -1.857947 1.616668 
vt -3.584041 8.719356 
vt 0.09132689 17.83178 
vt 1.857947 -1.616668 
vt 0.131853 5.486019 
vt 3.807221 14.59844 
vt 6.093949 0.2979776 
vt 4.746719 9.683272 
vt 7.905754 21.72417 
vt 7.482589 6.401377 
vt 5.756495 -0.7013096 
vt 3.807221 15.5138 
vt 2.470338 1.022176 
vt 0.6585331 22.44837 
vt 3.817568 10.40747 
vt -4.282144 20.40402 
vt -1.123109 8.363118 
vt -2.470338 -1.022176 
vt -4.030401 7.803997 
vt -5.756495 0.7013096 
vt -7.705769 16.91642 

usemtl plant

f 26/28/15 25/27/15 27/29/15 
f 26/28/16 27/29/16 25/27/16 
f 28/31/17 26/30/17 29/32/17 
f 28/31/18 29/32/18 26/30/18 
f 30/34/19 26/33/19 31/35/19 
f 30/34/20 31/35/20 26/33/20 
f 32/37/21 26/36/21 33/38/21 
f 32/37/22 33/38/22 26/36/22 
f 26/40/23 34/39/23 31/41/23 
f 26/40/24 31/41/24 34/39/24 
f 33/43/25 26/42/25 35/44/25 
f 33/43/26 35/44/26 26/42/26 
f 36/46/27 25/45/27 26/47/27 
f 36/46/28 26/47/28 25/45/28 
f 26/49/29 37/48/29 29/50/29 
f 26/49/30 29/50/30 37/48/30 
