# Created by Kenney (www.kenney.nl) 

mtllib rugRounded.mtl 

g rugRounded

v -0.1014274 0.01 0.46 
v -0.1136455 0.01 0.5528054 
v -0.1136455 0.01 0.3671946 
v -0.1494671 0.01 0.2807137 
v -0.1494671 0.01 0.6392863 
v -0.1519375 0.01 0.46 
v -0.1624344 0.01 0.3802675 
v -0.2064509 0.01 0.2064509 
v -0.19321 0.01 0.3059687 
v -0.2421669 0.01 0.2421669 
v -0.2807137 0.01 0.1494671 
v -0.3059687 0.01 0.19321 
v -0.3671946 0.01 0.1136455 
v -0.3802675 0.01 0.1624344 
v -0.466591 0.01 0.1005597 
v -0.4698733 0.01 0.1506376 
v -1.103409 0.01 0.1005597 
v -1.100127 0.01 0.1506376 
v -1.189732 0.01 0.1624344 
v -1.202805 0.01 0.1136455 
v -1.264031 0.01 0.19321 
v -1.289286 0.01 0.1494671 
v -1.327833 0.01 0.2421669 
v -1.363549 0.01 0.2064509 
v -1.37679 0.01 0.3059687 
v -1.420533 0.01 0.2807137 
v -1.407565 0.01 0.3802675 
v -1.418063 0.01 0.46 
v -1.420533 0.01 0.6392863 
v -1.456354 0.01 0.5528054 
v -1.456354 0.01 0.3671946 
v -1.468572 0.01 0.46 
v -1.407565 0.01 0.5397325 
v -1.37679 0.01 0.6140313 
v -1.363549 0.01 0.7135491 
v -1.327833 0.01 0.6778331 
v -1.289286 0.01 0.770533 
v -1.264031 0.01 0.72679 
v -1.202805 0.01 0.8063545 
v -1.189732 0.01 0.7575656 
v -1.103409 0.01 0.8194403 
v -1.100127 0.01 0.7693624 
v -0.4698733 0.01 0.7693624 
v -0.466591 0.01 0.8194403 
v -0.3802675 0.01 0.7575656 
v -0.3671946 0.01 0.8063545 
v -0.3059687 0.01 0.72679 
v -0.2807137 0.01 0.770533 
v -0.2421669 0.01 0.6778331 
v -0.2064509 0.01 0.7135491 
v -0.19321 0.01 0.6140313 
v -0.1624344 0.01 0.5397325 
v 0 0 0.46 
v -0.01567412 0 0.3409432 
v -0.01567412 0 0.5790567 
v -0.06162831 0 0.23 
v -0.06162831 0 0.69 
v -0.1347309 0 0.1347309 
v -0.1347309 0 0.7852691 
v -0.23 0 0.8583717 
v -0.23 0 0.06162831 
v -0.3409432 0 0.9043259 
v -0.3409432 0 0.01567412 
v -0.46 0 0.92 
v -0.46 0 0 
v -1.11 0 0.92 
v -1.11 0 0 
v -1.229057 0 0.9043259 
v -1.229057 0 0.01567412 
v -1.34 0 0.8583717 
v -1.34 0 0.06162831 
v -1.435269 0 0.7852691 
v -1.435269 0 0.1347309 
v -1.508372 0 0.69 
v -1.508372 0 0.23 
v -1.554326 0 0.5790567 
v -1.554326 0 0.3409432 
v -1.57 0 0.46 
v 0 0.01 0.46 
v -0.01567412 0.01 0.5790567 
v -0.01567412 0.01 0.3409432 
v -1.435269 0.01 0.1347309 
v -1.34 0.01 0.06162831 
v -0.06162831 0.01 0.69 
v -0.1347309 0.01 0.7852691 
v -1.11 0.01 0 
v -0.46 0.01 0 
v -0.23 0.01 0.06162831 
v -0.1347309 0.01 0.1347309 
v -1.554326 0.01 0.3409432 
v -1.57 0.01 0.46 
v -1.554326 0.01 0.5790567 
v -1.508372 0.01 0.69 
v -1.435269 0.01 0.7852691 
v -0.3409432 0.01 0.01567412 
v -1.229057 0.01 0.9043259 
v -1.34 0.01 0.8583717 
v -0.23 0.01 0.8583717 
v -0.3409432 0.01 0.9043259 
v -1.229057 0.01 0.01567412 
v -1.11 0.01 0.92 
v -0.06162831 0.01 0.23 
v -1.508372 0.01 0.23 
v -0.46 0.01 0.92 

vn 0 1 0 
vn 0 -1 0 
vn 1 0 0 
vn 0.9659258 0 0.258819 
vn 0.9659258 0 -0.258819 
vn -0.7071068 0 -0.7071068 
vn -0.5 0 -0.8660254 
vn 0.8660254 0 0.5 
vn 0.7071068 0 0.7071068 
vn 0 0 -1 
vn 0.5 0 -0.8660254 
vn 0.7071068 0 -0.7071068 
vn -0.9659258 0 -0.258819 
vn -1 0 0 
vn -0.9659258 0 0.258819 
vn -0.8660254 0 0.5 
vn -0.7071068 0 0.7071068 
vn 0.1305262 0 -0.9914449 
vn 0.258819 0 -0.9659258 
vn -0.258819 0 0.9659258 
vn -0.5 0 0.8660254 
vn 0.5 0 0.8660254 
vn 0.258819 0 0.9659258 
vn -0.258819 0 -0.9659258 
vn -0.1305262 0 -0.9914449 
vn -0.1305262 0 0.9914449 
vn 0.8660254 0 -0.5 
vn -0.8660254 0 -0.5 
vn 0.1305262 0 0.9914449 
vn 0 0 1 

vt 3.993206 18.11024 
vt 4.474232 21.76399 
vt 4.474232 14.45648 
vt 5.88453 11.05172 
vt 5.88453 25.16875 
vt 5.98179 18.11024 
vt 6.395056 14.97116 
vt 8.127989 8.127989 
vt 7.606693 12.04601 
vt 9.534129 9.534129 
vt 11.05172 5.88453 
vt 12.04601 7.606693 
vt 14.45648 4.474232 
vt 14.97116 6.395056 
vt 18.36973 3.959044 
vt 18.49895 5.930614 
vt 43.4413 3.959044 
vt 43.31207 5.930614 
vt 46.83986 6.395056 
vt 47.35455 4.474232 
vt 49.76501 7.606693 
vt 50.7593 5.88453 
vt 52.27689 9.534129 
vt 53.68304 8.127989 
vt 54.20433 12.04601 
vt 55.92649 11.05172 
vt 55.41597 14.97116 
vt 55.82924 18.11024 
vt 55.92649 25.16875 
vt 57.33679 21.76399 
vt 57.33679 14.45648 
vt 57.81782 18.11024 
vt 55.41597 21.24931 
vt 54.20433 24.17446 
vt 53.68304 28.09248 
vt 52.27689 26.68634 
vt 50.7593 30.33594 
vt 49.76501 28.61378 
vt 47.35455 31.74624 
vt 46.83986 29.82542 
vt 43.4413 32.26143 
vt 43.31207 30.28986 
vt 18.49895 30.28986 
vt 18.36973 32.26143 
vt 14.97116 29.82542 
vt 14.45648 31.74624 
vt 12.04601 28.61378 
vt 11.05172 30.33594 
vt 9.534129 26.68634 
vt 8.127989 28.09248 
vt 7.606693 24.17446 
vt 6.395056 21.24931 
vt 0 18.11024 
vt -0.6170914 13.42296 
vt -0.6170914 22.79751 
vt -2.426311 9.055119 
vt -2.426311 27.16535 
vt -5.304365 5.304365 
vt -5.304365 30.91611 
vt -9.055119 33.79416 
vt -9.055119 2.426311 
vt -13.42296 35.60338 
vt -13.42296 0.6170914 
vt -18.11024 36.22047 
vt -18.11024 0 
vt -43.70079 36.22047 
vt -43.70079 0 
vt -48.38806 35.60338 
vt -48.38806 0.6170914 
vt -52.75591 33.79416 
vt -52.75591 2.426311 
vt -56.50666 30.91611 
vt -56.50666 5.304365 
vt -59.38471 27.16535 
vt -59.38471 9.055119 
vt -61.19393 22.79751 
vt -61.19393 13.42296 
vt -61.81102 18.11024 
vt -17.9553 0.3937008 
vt -17.9553 0 
vt -22.68302 0.3937008 
vt -22.68302 0 
vt -13.22758 0 
vt -13.22758 0.3937008 
vt 48.05884 0 
vt 43.33112 0 
vt 48.05884 0.3937008 
vt 43.33112 0.3937008 
vt -23.02877 0.3937008 
vt -23.02877 0 
vt -27.75649 0.3937008 
vt -27.75649 0 
vt -21.2983 0.3937008 
vt -21.2983 0 
vt -26.02602 0.3937008 
vt -26.02602 0 
vt 43.70079 0 
vt 18.11024 0 
vt 43.70079 0.3937008 
vt 18.11024 0.3937008 
vt 5.706863 0 
vt 0.979143 0 
vt 5.706863 0.3937008 
vt 0.979143 0.3937008 
vt 21.29554 0 
vt 21.29554 0.3937008 
vt 26.02326 0 
vt 26.02326 0.3937008 
vt 9.887343 0 
vt 9.887343 0.3937008 
vt 14.61506 0 
vt 14.61506 0.3937008 
vt -14.5994 0 
vt -14.5994 0.3937008 
vt -9.871677 0 
vt -9.871677 0.3937008 
vt 17.9553 0 
vt 13.22758 0 
vt 17.9553 0.3937008 
vt 13.22758 0.3937008 
vt -31.07992 0 
vt -35.80764 0 
vt -31.07992 0.3937008 
vt -35.80764 0.3937008 
vt 48.05464 0 
vt 43.32692 0 
vt 48.05464 0.3937008 
vt 43.32692 0.3937008 
vt -21.28149 0 
vt -26.00921 0 
vt -21.28149 0.3937008 
vt -26.00921 0.3937008 
vt -38.5992 0 
vt -43.32692 0 
vt -38.5992 0.3937008 
vt -43.32692 0.3937008 
vt -7.437329 0.3937008 
vt -7.437329 0 
vt -12.16505 0.3937008 
vt -12.16505 0 
vt -0.979143 0.3937008 
vt -0.979143 0 
vt -5.706863 0.3937008 
vt -5.706863 0 
vt 31.09138 0 
vt 31.09138 0.3937008 
vt 35.8191 0 
vt 35.8191 0.3937008 
vt -2.355751 0 
vt -2.355751 0.3937008 
vt 2.371969 0 
vt 2.371969 0.3937008 
vt 38.60731 0 
vt 38.60731 0.3937008 
vt 43.33503 0 
vt 43.33503 0.3937008 
vt 49.66861 0 
vt 44.94089 0 
vt 49.66861 0.3937008 
vt 44.94089 0.3937008 
vt 12.16505 0 
vt 7.437329 0 
vt 12.16505 0.3937008 
vt 7.437329 0.3937008 
vt 0.6170914 22.79751 
vt 0.6170914 13.42296 
vt 2.426311 9.055119 
vt 2.426311 27.16535 
vt 5.304365 5.304365 
vt 9.055119 2.426311 
vt 13.42296 0.6170914 
vt 48.38806 0.6170914 
vt 52.75591 2.426311 
vt 56.50666 5.304365 
vt 59.38471 9.055119 
vt 59.38471 27.16535 
vt 56.50666 30.91611 
vt 52.75591 33.79416 
vt 48.38806 35.60338 
vt 43.70079 36.22047 
vt 18.11024 36.22047 
vt 13.42296 35.60338 
vt 9.055119 33.79416 
vt 5.304365 30.91611 
vt 61.19393 13.42296 
vt 61.19393 22.79751 
vt 61.81102 18.11024 
vt -18.11024 0.3937008 
vt -43.70079 0.3937008 

usemtl carpetDarker

f 2/2/1 1/1/1 3/3/1 
f 3/3/1 4/4/1 2/2/1 
f 4/4/1 5/5/1 2/2/1 
f 4/4/1 6/6/1 5/5/1 
f 4/4/1 7/7/1 6/6/1 
f 4/4/1 8/8/1 7/7/1 
f 8/8/1 9/9/1 7/7/1 
f 8/8/1 10/10/1 9/9/1 
f 8/8/1 11/11/1 10/10/1 
f 11/11/1 12/12/1 10/10/1 
f 11/11/1 13/13/1 12/12/1 
f 13/13/1 14/14/1 12/12/1 
f 13/13/1 15/15/1 14/14/1 
f 15/15/1 16/16/1 14/14/1 
f 15/15/1 17/17/1 16/16/1 
f 17/17/1 18/18/1 16/16/1 
f 17/17/1 19/19/1 18/18/1 
f 17/17/1 20/20/1 19/19/1 
f 20/20/1 21/21/1 19/19/1 
f 20/20/1 22/22/1 21/21/1 
f 22/22/1 23/23/1 21/21/1 
f 22/22/1 24/24/1 23/23/1 
f 24/24/1 25/25/1 23/23/1 
f 24/24/1 26/26/1 25/25/1 
f 26/26/1 27/27/1 25/25/1 
f 26/26/1 28/28/1 27/27/1 
f 26/26/1 29/29/1 28/28/1 
f 26/26/1 30/30/1 29/29/1 
f 26/26/1 31/31/1 30/30/1 
f 31/31/1 32/32/1 30/30/1 
f 33/33/1 28/28/1 29/29/1 
f 34/34/1 33/33/1 29/29/1 
f 34/34/1 29/29/1 35/35/1 
f 36/36/1 34/34/1 35/35/1 
f 36/36/1 35/35/1 37/37/1 
f 38/38/1 36/36/1 37/37/1 
f 38/38/1 37/37/1 39/39/1 
f 40/40/1 38/38/1 39/39/1 
f 40/40/1 39/39/1 41/41/1 
f 42/42/1 40/40/1 41/41/1 
f 43/43/1 42/42/1 41/41/1 
f 43/43/1 41/41/1 44/44/1 
f 45/45/1 43/43/1 44/44/1 
f 45/45/1 44/44/1 46/46/1 
f 47/47/1 45/45/1 46/46/1 
f 47/47/1 46/46/1 48/48/1 
f 49/49/1 47/47/1 48/48/1 
f 49/49/1 48/48/1 50/50/1 
f 51/51/1 49/49/1 50/50/1 
f 52/52/1 51/51/1 50/50/1 
f 52/52/1 50/50/1 5/5/1 
f 5/5/1 6/6/1 52/52/1 

usemtl carpet

f 54/54/2 53/53/2 55/55/2 
f 55/55/2 56/56/2 54/54/2 
f 55/55/2 57/57/2 56/56/2 
f 57/57/2 58/58/2 56/56/2 
f 57/57/2 59/59/2 58/58/2 
f 59/59/2 60/60/2 58/58/2 
f 60/60/2 61/61/2 58/58/2 
f 60/60/2 62/62/2 61/61/2 
f 62/62/2 63/63/2 61/61/2 
f 62/62/2 64/64/2 63/63/2 
f 64/64/2 65/65/2 63/63/2 
f 64/64/2 66/66/2 65/65/2 
f 66/66/2 67/67/2 65/65/2 
f 66/66/2 68/68/2 67/67/2 
f 68/68/2 69/69/2 67/67/2 
f 68/68/2 70/70/2 69/69/2 
f 70/70/2 71/71/2 69/69/2 
f 70/70/2 72/72/2 71/71/2 
f 72/72/2 73/73/2 71/71/2 
f 72/72/2 74/74/2 73/73/2 
f 74/74/2 75/75/2 73/73/2 
f 74/74/2 76/76/2 75/75/2 
f 76/76/2 77/77/2 75/75/2 
f 76/76/2 78/78/2 77/77/2 
f 53/80/3 79/79/3 80/81/4 
f 80/81/4 55/82/4 53/80/3 
f 79/79/3 53/80/3 54/83/5 
f 54/83/5 81/84/5 79/79/3 
f 71/86/7 73/85/6 82/87/6 
f 82/87/6 83/88/7 71/86/7 
f 57/90/8 84/89/8 85/91/9 
f 85/91/9 59/92/9 57/90/8 
f 55/94/4 80/93/4 84/95/8 
f 84/95/8 57/96/8 55/94/4 
f 65/98/10 67/97/10 86/99/10 
f 86/99/10 87/100/10 65/98/10 
f 58/102/12 61/101/11 88/103/11 
f 88/103/11 89/104/12 58/102/12 
f 90/106/13 77/105/13 78/107/14 
f 78/107/14 91/108/14 90/106/13 
f 91/110/14 78/109/14 76/111/15 
f 76/111/15 92/112/15 91/110/14 
f 93/114/16 74/113/16 72/115/17 
f 72/115/17 94/116/17 93/114/16 
f 63/118/19 65/117/18 87/119/18 
f 87/119/18 95/120/19 63/118/19 
f 70/122/21 68/121/20 96/123/20 
f 96/123/20 97/124/21 70/122/21 
f 62/96/23 60/94/22 98/93/22 
f 98/93/22 99/95/23 62/96/23 
f 67/126/25 69/125/24 100/127/24 
f 100/127/24 86/128/25 67/126/25 
f 72/130/17 70/129/21 97/131/21 
f 97/131/21 94/132/17 72/130/17 
f 68/134/20 66/133/26 101/135/26 
f 101/135/26 96/136/20 68/134/20 
f 56/138/27 102/137/27 81/139/5 
f 81/139/5 54/140/5 56/138/27 
f 58/142/12 89/141/12 102/143/27 
f 102/143/27 56/144/27 58/142/12 
f 103/146/28 75/145/28 77/147/13 
f 77/147/13 90/148/13 103/146/28 
f 92/150/15 76/149/15 74/151/16 
f 74/151/16 93/152/16 92/150/15 
f 82/154/6 73/153/6 75/155/28 
f 75/155/28 103/156/28 82/154/6 
f 69/158/24 71/157/7 83/159/7 
f 83/159/7 100/160/24 69/158/24 
f 60/92/22 59/90/9 85/89/9 
f 85/89/9 98/91/22 60/92/22 
f 61/162/11 63/161/19 95/163/19 
f 95/163/19 88/164/11 61/162/11 
f 64/82/29 62/80/23 99/79/23 
f 99/79/23 104/81/29 64/82/29 
f 80/165/1 79/53/1 81/166/1 
f 81/166/1 102/167/1 80/165/1 
f 102/167/1 84/168/1 80/165/1 
f 102/167/1 89/169/1 84/168/1 
f 89/169/1 1/1/1 84/168/1 
f 89/169/1 3/3/1 1/1/1 
f 89/169/1 4/4/1 3/3/1 
f 89/169/1 88/170/1 4/4/1 
f 88/170/1 8/8/1 4/4/1 
f 88/170/1 11/11/1 8/8/1 
f 88/170/1 95/171/1 11/11/1 
f 95/171/1 13/13/1 11/11/1 
f 95/171/1 87/98/1 13/13/1 
f 87/98/1 15/15/1 13/13/1 
f 87/98/1 86/97/1 15/15/1 
f 86/97/1 17/17/1 15/15/1 
f 86/97/1 20/20/1 17/17/1 
f 86/97/1 100/172/1 20/20/1 
f 100/172/1 22/22/1 20/20/1 
f 100/172/1 83/173/1 22/22/1 
f 83/173/1 24/24/1 22/22/1 
f 83/173/1 82/174/1 24/24/1 
f 82/174/1 26/26/1 24/24/1 
f 82/174/1 31/31/1 26/26/1 
f 82/174/1 103/175/1 31/31/1 
f 103/175/1 32/32/1 31/31/1 
f 32/32/1 103/175/1 93/176/1 
f 30/30/1 32/32/1 93/176/1 
f 30/30/1 93/176/1 94/177/1 
f 29/29/1 30/30/1 94/177/1 
f 35/35/1 29/29/1 94/177/1 
f 35/35/1 94/177/1 97/178/1 
f 37/37/1 35/35/1 97/178/1 
f 37/37/1 97/178/1 96/179/1 
f 39/39/1 37/37/1 96/179/1 
f 39/39/1 96/179/1 101/180/1 
f 41/41/1 39/39/1 101/180/1 
f 44/44/1 41/41/1 101/180/1 
f 44/44/1 101/180/1 104/181/1 
f 46/46/1 44/44/1 104/181/1 
f 46/46/1 104/181/1 99/182/1 
f 48/48/1 46/46/1 99/182/1 
f 48/48/1 99/182/1 98/183/1 
f 50/50/1 48/48/1 98/183/1 
f 5/5/1 50/50/1 98/183/1 
f 5/5/1 98/183/1 85/184/1 
f 2/2/1 5/5/1 85/184/1 
f 1/1/1 2/2/1 85/184/1 
f 85/184/1 84/168/1 1/1/1 
f 103/175/1 90/185/1 93/176/1 
f 90/185/1 92/186/1 93/176/1 
f 90/185/1 91/187/1 92/186/1 
f 66/67/30 64/65/30 104/188/30 
f 104/188/30 101/189/30 66/67/30 
f 52/52/1 6/6/1 7/7/1 
f 7/7/1 9/9/1 52/52/1 
f 9/9/1 51/51/1 52/52/1 
f 9/9/1 49/49/1 51/51/1 
f 9/9/1 10/10/1 49/49/1 
f 10/10/1 47/47/1 49/49/1 
f 10/10/1 12/12/1 47/47/1 
f 12/12/1 14/14/1 47/47/1 
f 14/14/1 45/45/1 47/47/1 
f 14/14/1 43/43/1 45/45/1 
f 14/14/1 16/16/1 43/43/1 
f 16/16/1 18/18/1 43/43/1 
f 18/18/1 42/42/1 43/43/1 
f 18/18/1 19/19/1 42/42/1 
f 19/19/1 40/40/1 42/42/1 
f 19/19/1 38/38/1 40/40/1 
f 19/19/1 21/21/1 38/38/1 
f 21/21/1 23/23/1 38/38/1 
f 23/23/1 36/36/1 38/38/1 
f 23/23/1 34/34/1 36/36/1 
f 23/23/1 25/25/1 34/34/1 
f 25/25/1 33/33/1 34/34/1 
f 25/25/1 27/27/1 33/33/1 
f 27/27/1 28/28/1 33/33/1 
g rugRounded




usemtl carpetDarker

f 2/2/1 1/1/1 3/3/1 
f 3/3/1 4/4/1 2/2/1 
f 4/4/1 5/5/1 2/2/1 
f 4/4/1 6/6/1 5/5/1 
f 4/4/1 7/7/1 6/6/1 
f 4/4/1 8/8/1 7/7/1 
f 8/8/1 9/9/1 7/7/1 
f 8/8/1 10/10/1 9/9/1 
f 8/8/1 11/11/1 10/10/1 
f 11/11/1 12/12/1 10/10/1 
f 11/11/1 13/13/1 12/12/1 
f 13/13/1 14/14/1 12/12/1 
f 13/13/1 15/15/1 14/14/1 
f 15/15/1 16/16/1 14/14/1 
f 15/15/1 17/17/1 16/16/1 
f 17/17/1 18/18/1 16/16/1 
f 17/17/1 19/19/1 18/18/1 
f 17/17/1 20/20/1 19/19/1 
f 20/20/1 21/21/1 19/19/1 
f 20/20/1 22/22/1 21/21/1 
f 22/22/1 23/23/1 21/21/1 
f 22/22/1 24/24/1 23/23/1 
f 24/24/1 25/25/1 23/23/1 
f 24/24/1 26/26/1 25/25/1 
f 26/26/1 27/27/1 25/25/1 
f 26/26/1 28/28/1 27/27/1 
f 26/26/1 29/29/1 28/28/1 
f 26/26/1 30/30/1 29/29/1 
f 26/26/1 31/31/1 30/30/1 
f 31/31/1 32/32/1 30/30/1 
f 33/33/1 28/28/1 29/29/1 
f 34/34/1 33/33/1 29/29/1 
f 34/34/1 29/29/1 35/35/1 
f 36/36/1 34/34/1 35/35/1 
f 36/36/1 35/35/1 37/37/1 
f 38/38/1 36/36/1 37/37/1 
f 38/38/1 37/37/1 39/39/1 
f 40/40/1 38/38/1 39/39/1 
f 40/40/1 39/39/1 41/41/1 
f 42/42/1 40/40/1 41/41/1 
f 43/43/1 42/42/1 41/41/1 
f 43/43/1 41/41/1 44/44/1 
f 45/45/1 43/43/1 44/44/1 
f 45/45/1 44/44/1 46/46/1 
f 47/47/1 45/45/1 46/46/1 
f 47/47/1 46/46/1 48/48/1 
f 49/49/1 47/47/1 48/48/1 
f 49/49/1 48/48/1 50/50/1 
f 51/51/1 49/49/1 50/50/1 
f 52/52/1 51/51/1 50/50/1 
f 52/52/1 50/50/1 5/5/1 
f 5/5/1 6/6/1 52/52/1 

usemtl carpet

f 54/54/2 53/53/2 55/55/2 
f 55/55/2 56/56/2 54/54/2 
f 55/55/2 57/57/2 56/56/2 
f 57/57/2 58/58/2 56/56/2 
f 57/57/2 59/59/2 58/58/2 
f 59/59/2 60/60/2 58/58/2 
f 60/60/2 61/61/2 58/58/2 
f 60/60/2 62/62/2 61/61/2 
f 62/62/2 63/63/2 61/61/2 
f 62/62/2 64/64/2 63/63/2 
f 64/64/2 65/65/2 63/63/2 
f 64/64/2 66/66/2 65/65/2 
f 66/66/2 67/67/2 65/65/2 
f 66/66/2 68/68/2 67/67/2 
f 68/68/2 69/69/2 67/67/2 
f 68/68/2 70/70/2 69/69/2 
f 70/70/2 71/71/2 69/69/2 
f 70/70/2 72/72/2 71/71/2 
f 72/72/2 73/73/2 71/71/2 
f 72/72/2 74/74/2 73/73/2 
f 74/74/2 75/75/2 73/73/2 
f 74/74/2 76/76/2 75/75/2 
f 76/76/2 77/77/2 75/75/2 
f 76/76/2 78/78/2 77/77/2 
f 53/80/3 79/79/3 80/81/4 
f 80/81/4 55/82/4 53/80/3 
f 79/79/3 53/80/3 54/83/5 
f 54/83/5 81/84/5 79/79/3 
f 71/86/7 73/85/6 82/87/6 
f 82/87/6 83/88/7 71/86/7 
f 57/90/8 84/89/8 85/91/9 
f 85/91/9 59/92/9 57/90/8 
f 55/94/4 80/93/4 84/95/8 
f 84/95/8 57/96/8 55/94/4 
f 65/98/10 67/97/10 86/99/10 
f 86/99/10 87/100/10 65/98/10 
f 58/102/12 61/101/11 88/103/11 
f 88/103/11 89/104/12 58/102/12 
f 90/106/13 77/105/13 78/107/14 
f 78/107/14 91/108/14 90/106/13 
f 91/110/14 78/109/14 76/111/15 
f 76/111/15 92/112/15 91/110/14 
f 93/114/16 74/113/16 72/115/17 
f 72/115/17 94/116/17 93/114/16 
f 63/118/19 65/117/18 87/119/18 
f 87/119/18 95/120/19 63/118/19 
f 70/122/21 68/121/20 96/123/20 
f 96/123/20 97/124/21 70/122/21 
f 62/96/23 60/94/22 98/93/22 
f 98/93/22 99/95/23 62/96/23 
f 67/126/25 69/125/24 100/127/24 
f 100/127/24 86/128/25 67/126/25 
f 72/130/17 70/129/21 97/131/21 
f 97/131/21 94/132/17 72/130/17 
f 68/134/20 66/133/26 101/135/26 
f 101/135/26 96/136/20 68/134/20 
f 56/138/27 102/137/27 81/139/5 
f 81/139/5 54/140/5 56/138/27 
f 58/142/12 89/141/12 102/143/27 
f 102/143/27 56/144/27 58/142/12 
f 103/146/28 75/145/28 77/147/13 
f 77/147/13 90/148/13 103/146/28 
f 92/150/15 76/149/15 74/151/16 
f 74/151/16 93/152/16 92/150/15 
f 82/154/6 73/153/6 75/155/28 
f 75/155/28 103/156/28 82/154/6 
f 69/158/24 71/157/7 83/159/7 
f 83/159/7 100/160/24 69/158/24 
f 60/92/22 59/90/9 85/89/9 
f 85/89/9 98/91/22 60/92/22 
f 61/162/11 63/161/19 95/163/19 
f 95/163/19 88/164/11 61/162/11 
f 64/82/29 62/80/23 99/79/23 
f 99/79/23 104/81/29 64/82/29 
f 80/165/1 79/53/1 81/166/1 
f 81/166/1 102/167/1 80/165/1 
f 102/167/1 84/168/1 80/165/1 
f 102/167/1 89/169/1 84/168/1 
f 89/169/1 1/1/1 84/168/1 
f 89/169/1 3/3/1 1/1/1 
f 89/169/1 4/4/1 3/3/1 
f 89/169/1 88/170/1 4/4/1 
f 88/170/1 8/8/1 4/4/1 
f 88/170/1 11/11/1 8/8/1 
f 88/170/1 95/171/1 11/11/1 
f 95/171/1 13/13/1 11/11/1 
f 95/171/1 87/98/1 13/13/1 
f 87/98/1 15/15/1 13/13/1 
f 87/98/1 86/97/1 15/15/1 
f 86/97/1 17/17/1 15/15/1 
f 86/97/1 20/20/1 17/17/1 
f 86/97/1 100/172/1 20/20/1 
f 100/172/1 22/22/1 20/20/1 
f 100/172/1 83/173/1 22/22/1 
f 83/173/1 24/24/1 22/22/1 
f 83/173/1 82/174/1 24/24/1 
f 82/174/1 26/26/1 24/24/1 
f 82/174/1 31/31/1 26/26/1 
f 82/174/1 103/175/1 31/31/1 
f 103/175/1 32/32/1 31/31/1 
f 32/32/1 103/175/1 93/176/1 
f 30/30/1 32/32/1 93/176/1 
f 30/30/1 93/176/1 94/177/1 
f 29/29/1 30/30/1 94/177/1 
f 35/35/1 29/29/1 94/177/1 
f 35/35/1 94/177/1 97/178/1 
f 37/37/1 35/35/1 97/178/1 
f 37/37/1 97/178/1 96/179/1 
f 39/39/1 37/37/1 96/179/1 
f 39/39/1 96/179/1 101/180/1 
f 41/41/1 39/39/1 101/180/1 
f 44/44/1 41/41/1 101/180/1 
f 44/44/1 101/180/1 104/181/1 
f 46/46/1 44/44/1 104/181/1 
f 46/46/1 104/181/1 99/182/1 
f 48/48/1 46/46/1 99/182/1 
f 48/48/1 99/182/1 98/183/1 
f 50/50/1 48/48/1 98/183/1 
f 5/5/1 50/50/1 98/183/1 
f 5/5/1 98/183/1 85/184/1 
f 2/2/1 5/5/1 85/184/1 
f 1/1/1 2/2/1 85/184/1 
f 85/184/1 84/168/1 1/1/1 
f 103/175/1 90/185/1 93/176/1 
f 90/185/1 92/186/1 93/176/1 
f 90/185/1 91/187/1 92/186/1 
f 66/67/30 64/65/30 104/188/30 
f 104/188/30 101/189/30 66/67/30 
f 52/52/1 6/6/1 7/7/1 
f 7/7/1 9/9/1 52/52/1 
f 9/9/1 51/51/1 52/52/1 
f 9/9/1 49/49/1 51/51/1 
f 9/9/1 10/10/1 49/49/1 
f 10/10/1 47/47/1 49/49/1 
f 10/10/1 12/12/1 47/47/1 
f 12/12/1 14/14/1 47/47/1 
f 14/14/1 45/45/1 47/47/1 
f 14/14/1 43/43/1 45/45/1 
f 14/14/1 16/16/1 43/43/1 
f 16/16/1 18/18/1 43/43/1 
f 18/18/1 42/42/1 43/43/1 
f 18/18/1 19/19/1 42/42/1 
f 19/19/1 40/40/1 42/42/1 
f 19/19/1 38/38/1 40/40/1 
f 19/19/1 21/21/1 38/38/1 
f 21/21/1 23/23/1 38/38/1 
f 23/23/1 36/36/1 38/38/1 
f 23/23/1 34/34/1 36/36/1 
f 23/23/1 25/25/1 34/34/1 
f 25/25/1 33/33/1 34/34/1 
f 25/25/1 27/27/1 33/33/1 
f 27/27/1 28/28/1 33/33/1 
