# Created by Kenney (www.kenney.nl) 

mtllib sideTableDrawers.mtl 

g sideTableDrawers

v -0.4844755 0.05 0.16 
v -0.4844755 0.05 0.04 
v -0.5044755 0.05 0.16 
v -0.5044755 0.05 0.04 
v -0.4744754 0 0.04 
v -0.4744754 0 0 
v -0.5144755 0 0.04 
v -0.5144755 0 0 
v -0.5144755 0 0.16 
v -0.5144755 0.2444076 0.16 
v -0.5144755 0 0.2 
v -0.5144755 0.3544075 0.2 
v -0.5144755 0.2444076 0.04 
v -0.5144755 0.3544075 0 
v -0.4744754 0.2444076 0.16 
v -0.4744754 0.2444076 0.04 
v -0.4744754 0.2444076 0 
v -0.4744754 0.2444076 0.2 
v -0.04 0.2444076 0 
v -0.04 0.2444076 0.04 
v -0.04 0.2444076 0.16 
v -0.04 0.2444076 0.2 
v 0 0.2444076 0.04 
v 0 0.2444076 0.16 
v -0.4744754 0.2744075 0 
v -0.4744754 0.3244075 0 
v -0.2776755 0.3244075 0 
v -0.2368 0.3244075 0 
v -0.04 0.3244075 0 
v -0.04 0.2744075 0 
v 0 0.3544075 0 
v 0 0 0 
v -0.04 0 0 
v -0.2776755 0.2744075 0 
v -0.2368 0.2744075 0 
v 0 0 0.2 
v 0 0 0.16 
v -0.04 0 0.2 
v -0.04 0 0.16 
v 0 0 0.04 
v -0.04 0 0.04 
v -0.4744754 0 0.2 
v -0.4744754 0 0.16 
v -0.01 0.07 0.04 
v -0.01 0.07 0.16 
v -0.03 0.07 0.04 
v -0.03 0.07 0.16 
v 0.01 0.3844076 -0.01 
v 0.01 0.3844076 0.21 
v -0.5244755 0.3844076 -0.01 
v -0.5244755 0.3844076 0.21 
v 0 0.3544075 0.2 
v -0.5244755 0.3544075 -0.01 
v 0.01 0.3544075 -0.01 
v 0.01 0.3544075 0.21 
v -0.5244755 0.3544075 0.21 
v -0.01 0.05 0.16 
v -0.01 0.05 0.04 
v -0.03 0.05 0.16 
v -0.03 0.05 0.04 
v -0.4844755 0.07 0.04 
v -0.4844755 0.07 0.16 
v -0.5044755 0.07 0.16 
v -0.5044755 0.07 0.04 
v -0.2368 0.2744075 0.164 
v -0.04 0.2744075 0.164 
v -0.2368 0.3244075 0.164 
v -0.04 0.3244075 0.164 
v -0.4744754 0.2744075 0.164 
v -0.2776755 0.2744075 0.164 
v -0.4744754 0.3244075 0.164 
v -0.2776755 0.3244075 0.164 

vn 0 -1 0 
vn -1 0 0 
vn 0 0 -1 
vn 1 0 0 
vn 0 1 0 
vn 0 0 1 

vt -19.07384 6.299212 
vt -19.07384 1.574803 
vt -19.86124 6.299212 
vt -19.86124 1.574803 
vt -18.68014 1.574803 
vt -18.68014 0 
vt -20.25494 1.574803 
vt -20.25494 0 
vt 6.299212 -1.167682E-14 
vt 6.299212 9.622345 
vt 7.874016 -1.167682E-14 
vt 7.874016 13.95305 
vt 1.574803 9.622345 
vt -2.687918E-14 13.95305 
vt 1.574803 -1.167682E-14 
vt -2.687918E-14 -1.167682E-14 
vt -18.68014 6.299212 
vt -20.25494 6.299212 
vt -18.68014 7.874016 
vt -1.574803 0 
vt -1.574803 1.574803 
vt -1.574803 6.299212 
vt -1.574803 7.874016 
vt 0 1.574803 
vt 0 6.299212 
vt 20.25494 0 
vt 18.68014 0 
vt 20.25494 13.95305 
vt 18.68014 9.622345 
vt 18.68014 10.80345 
vt 18.68014 12.77195 
vt 10.93211 12.77195 
vt 9.322835 12.77195 
vt 1.574803 12.77195 
vt 1.574803 10.80345 
vt 0 13.95305 
vt 0 0 
vt 1.574803 0 
vt 10.93211 10.80345 
vt 9.322835 10.80345 
vt 0 7.874016 
vt 6.299212 0 
vt 7.874016 0 
vt 7.874016 9.622345 
vt 0 9.622345 
vt -1.574803 9.622345 
vt -20.25494 7.874016 
vt 0.3937008 1.574803 
vt 0.3937008 6.299212 
vt 1.181102 1.574803 
vt 1.181102 6.299212 
vt -0.3937008 -0.3937008 
vt -0.3937008 8.267716 
vt 20.64864 -0.3937008 
vt 20.64864 8.267716 
vt -7.874016 13.95305 
vt -6.299212 9.622345 
vt -6.299212 0 
vt -7.874016 0 
vt 20.64864 13.95305 
vt -0.3937008 13.95305 
vt 20.64864 15.13416 
vt -0.3937008 15.13416 
vt 0.3937008 15.13416 
vt 0.3937008 13.95305 
vt -8.267716 15.13416 
vt -8.267716 13.95305 
vt 0.3937008 -0.3937008 
vt 0.3937008 8.267716 
vt -20.64864 8.267716 
vt -20.64864 -0.3937008 
vt 8.267716 13.95305 
vt 8.267716 15.13416 
vt -20.64864 13.95305 
vt -20.64864 15.13416 
vt -0.3937008 6.299212 
vt -0.3937008 1.574803 
vt -1.181102 6.299212 
vt -1.181102 1.574803 
vt -1.574803 2.755906 
vt -1.574803 1.968504 
vt -6.299212 2.755906 
vt -6.299212 1.968504 
vt 19.86124 1.968504 
vt 20.25494 9.622345 
vt 19.86124 2.755906 
vt 19.07384 2.755906 
vt 19.07384 1.968504 
vt 19.07384 1.574803 
vt 19.07384 6.299212 
vt 19.86124 1.574803 
vt 19.86124 6.299212 
vt 1.574803 1.968504 
vt 1.574803 2.755906 
vt 6.299212 1.968504 
vt 6.299212 2.755906 
vt -19.07384 1.968504 
vt -18.68014 9.622345 
vt -19.07384 2.755906 
vt -19.86124 2.755906 
vt -19.86124 1.968504 
vt -20.25494 9.622345 
vt -7.874016 9.622345 
vt -20.25494 13.95305 
vt -1.957444E-15 2.222824E-15 
vt 1.181102 1.968504 
vt 1.574803 2.222824E-15 
vt 1.181102 2.755906 
vt 0.3937008 2.755906 
vt 0.3937008 1.968504 
vt -1.957444E-15 9.622345 
vt -0.3937008 1.968504 
vt -0.3937008 2.755906 
vt -1.181102 2.755906 
vt -1.181102 1.968504 
vt 0 10.80345 
vt 0 12.77195 
vt 6.456693 10.80345 
vt 6.456693 12.77195 
vt 1.574803 6.456693 
vt 9.322835 0 
vt 9.322835 6.456693 
vt -6.456693 12.77195 
vt -6.456693 10.80345 
vt -1.574803 6.456693 
vt -9.322835 6.456693 
vt -9.322835 0 
vt -10.93211 6.456693 
vt -10.93211 0 
vt -18.68014 6.456693 
vt 10.93211 0 
vt 10.93211 6.456693 
vt 18.68014 6.456693 

usemtl wood

f 2/2/1 1/1/1 3/3/1 
f 3/3/1 4/4/1 2/2/1 
f 6/6/1 5/5/1 7/7/1 
f 7/7/1 8/8/1 6/6/1 
f 10/10/2 9/9/2 11/11/2 
f 10/10/2 11/11/2 12/12/2 
f 13/13/2 10/10/2 12/12/2 
f 13/13/2 12/12/2 14/14/2 
f 7/15/2 13/13/2 14/14/2 
f 14/14/2 8/16/2 7/15/2 
f 16/5/1 15/17/1 10/18/1 
f 10/18/1 13/7/1 16/5/1 
f 15/17/1 16/5/1 17/6/1 
f 18/19/1 15/17/1 17/6/1 
f 18/19/1 17/6/1 19/20/1 
f 18/19/1 19/20/1 20/21/1 
f 18/19/1 20/21/1 21/22/1 
f 21/22/1 22/23/1 18/19/1 
f 21/22/1 20/21/1 23/24/1 
f 23/24/1 24/25/1 21/22/1 
f 6/27/3 8/26/3 14/28/3 
f 14/28/3 17/29/3 6/27/3 
f 14/28/3 25/30/3 17/29/3 
f 25/30/3 19/13/3 17/29/3 
f 14/28/3 26/31/3 25/30/3 
f 14/28/3 27/32/3 26/31/3 
f 14/28/3 28/33/3 27/32/3 
f 14/28/3 29/34/3 28/33/3 
f 19/13/3 25/30/3 30/35/3 
f 19/13/3 30/35/3 31/36/3 
f 30/35/3 29/34/3 31/36/3 
f 29/34/3 14/28/3 31/36/3 
f 19/13/3 31/36/3 32/37/3 
f 32/37/3 33/38/3 19/13/3 
f 25/30/3 34/39/3 30/35/3 
f 34/39/3 35/40/3 30/35/3 
f 35/40/3 34/39/3 27/32/3 
f 27/32/3 28/33/3 35/40/3 
f 37/25/1 36/41/1 38/23/1 
f 38/23/1 39/22/1 37/25/1 
f 32/37/1 40/24/1 41/21/1 
f 41/21/1 33/20/1 32/37/1 
f 21/10/2 39/42/2 38/43/2 
f 38/43/2 22/44/2 21/10/2 
f 6/37/4 17/45/4 16/46/4 
f 16/46/4 5/20/4 6/37/4 
f 43/17/1 42/19/1 11/47/1 
f 11/47/1 9/18/1 43/17/1 
f 45/49/5 44/48/5 46/50/5 
f 46/50/5 47/51/5 45/49/5 
f 49/53/5 48/52/5 50/54/5 
f 50/54/5 51/55/5 49/53/5 
f 32/37/4 23/46/4 40/20/4 
f 23/46/4 32/37/4 31/36/4 
f 31/36/4 52/56/4 23/46/4 
f 52/56/4 24/57/4 23/46/4 
f 52/56/4 37/58/4 24/57/4 
f 52/56/4 36/59/4 37/58/4 
f 54/61/3 53/60/3 50/62/3 
f 50/62/3 48/63/3 54/61/3 
f 54/65/4 48/64/4 49/66/4 
f 49/66/4 55/67/4 54/65/4 
f 52/41/1 54/68/1 55/69/1 
f 55/69/1 56/70/1 52/41/1 
f 56/70/1 12/47/1 52/41/1 
f 56/70/1 14/8/1 12/47/1 
f 54/68/1 52/41/1 31/37/1 
f 31/37/1 53/71/1 54/68/1 
f 31/37/1 14/8/1 53/71/1 
f 14/8/1 56/70/1 53/71/1 
f 50/63/2 53/61/2 56/72/2 
f 56/72/2 51/73/2 50/63/2 
f 56/74/6 55/65/6 49/64/6 
f 49/64/6 51/75/6 56/74/6 
f 58/77/1 57/76/1 59/78/1 
f 59/78/1 60/79/1 58/77/1 
f 2/81/4 61/80/4 62/82/4 
f 62/82/4 1/83/4 2/81/4 
f 3/84/3 43/27/3 9/26/3 
f 9/26/3 10/85/3 3/84/3 
f 10/85/3 63/86/3 3/84/3 
f 10/85/3 62/87/3 63/86/3 
f 43/27/3 3/84/3 1/88/3 
f 1/88/3 15/29/3 43/27/3 
f 1/88/3 62/87/3 15/29/3 
f 62/87/3 10/85/3 15/29/3 
f 62/90/5 61/89/5 64/91/5 
f 64/91/5 63/92/5 62/90/5 
f 64/94/2 4/93/2 3/95/2 
f 3/95/2 63/96/2 64/94/2 
f 2/97/6 7/8/6 5/6/6 
f 5/6/6 16/98/6 2/97/6 
f 16/98/6 61/99/6 2/97/6 
f 16/98/6 64/100/6 61/99/6 
f 7/8/6 2/97/6 4/101/6 
f 4/101/6 13/102/6 7/8/6 
f 4/101/6 64/100/6 13/102/6 
f 64/100/6 16/98/6 13/102/6 
f 43/58/4 15/57/4 18/103/4 
f 18/103/4 42/59/4 43/58/4 
f 38/20/6 36/37/6 52/36/6 
f 52/36/6 22/46/6 38/20/6 
f 52/36/6 18/98/6 22/46/6 
f 18/98/6 52/36/6 12/104/6 
f 18/98/6 12/104/6 11/8/6 
f 11/8/6 42/6/6 18/98/6 
f 19/45/2 33/37/2 41/38/2 
f 41/38/2 20/13/2 19/45/2 
f 46/94/2 60/93/2 59/95/2 
f 59/95/2 47/96/2 46/94/2 
f 59/106/3 37/105/3 39/107/3 
f 39/107/3 21/13/3 59/106/3 
f 21/13/3 47/108/3 59/106/3 
f 21/13/3 45/109/3 47/108/3 
f 37/105/3 59/106/3 57/110/3 
f 57/110/3 24/111/3 37/105/3 
f 57/110/3 45/109/3 24/111/3 
f 45/109/3 21/13/3 24/111/3 
f 58/81/4 44/80/4 45/82/4 
f 45/82/4 57/83/4 58/81/4 
f 58/112/6 41/20/6 40/37/6 
f 40/37/6 23/45/6 58/112/6 
f 23/45/6 44/113/6 58/112/6 
f 23/45/6 46/114/6 44/113/6 
f 41/20/6 58/112/6 60/115/6 
f 60/115/6 20/46/6 41/20/6 
f 60/115/6 46/114/6 20/46/6 
f 46/114/6 23/45/6 20/46/6 
f 66/35/3 65/40/3 67/33/3 
f 67/33/3 68/34/3 66/35/3 
f 29/117/2 30/116/2 66/118/2 
f 66/118/2 68/119/2 29/117/2 
f 66/120/5 30/38/5 35/121/5 
f 35/121/5 65/122/5 66/120/5 
f 35/116/4 28/117/4 67/123/4 
f 67/123/4 65/124/4 35/116/4 
f 29/20/1 68/125/1 67/126/1 
f 67/126/1 28/127/1 29/20/1 
f 70/39/3 69/30/3 71/31/3 
f 71/31/3 72/32/3 70/39/3 
f 27/129/1 72/128/1 71/130/1 
f 71/130/1 26/6/1 27/129/1 
f 27/117/2 34/116/2 70/118/2 
f 70/118/2 72/119/2 27/117/2 
f 70/132/5 34/131/5 25/27/5 
f 25/27/5 69/133/5 70/132/5 
f 25/116/4 26/117/4 71/123/4 
f 71/123/4 69/124/4 25/116/4 

usemtl _defaultMat

f 52/56/5 31/59/5 14/58/5 
f 14/56/5 12/59/5 52/58/5 
g sideTableDrawers




usemtl wood

f 2/2/1 1/1/1 3/3/1 
f 3/3/1 4/4/1 2/2/1 
f 6/6/1 5/5/1 7/7/1 
f 7/7/1 8/8/1 6/6/1 
f 10/10/2 9/9/2 11/11/2 
f 10/10/2 11/11/2 12/12/2 
f 13/13/2 10/10/2 12/12/2 
f 13/13/2 12/12/2 14/14/2 
f 7/15/2 13/13/2 14/14/2 
f 14/14/2 8/16/2 7/15/2 
f 16/5/1 15/17/1 10/18/1 
f 10/18/1 13/7/1 16/5/1 
f 15/17/1 16/5/1 17/6/1 
f 18/19/1 15/17/1 17/6/1 
f 18/19/1 17/6/1 19/20/1 
f 18/19/1 19/20/1 20/21/1 
f 18/19/1 20/21/1 21/22/1 
f 21/22/1 22/23/1 18/19/1 
f 21/22/1 20/21/1 23/24/1 
f 23/24/1 24/25/1 21/22/1 
f 6/27/3 8/26/3 14/28/3 
f 14/28/3 17/29/3 6/27/3 
f 14/28/3 25/30/3 17/29/3 
f 25/30/3 19/13/3 17/29/3 
f 14/28/3 26/31/3 25/30/3 
f 14/28/3 27/32/3 26/31/3 
f 14/28/3 28/33/3 27/32/3 
f 14/28/3 29/34/3 28/33/3 
f 19/13/3 25/30/3 30/35/3 
f 19/13/3 30/35/3 31/36/3 
f 30/35/3 29/34/3 31/36/3 
f 29/34/3 14/28/3 31/36/3 
f 19/13/3 31/36/3 32/37/3 
f 32/37/3 33/38/3 19/13/3 
f 25/30/3 34/39/3 30/35/3 
f 34/39/3 35/40/3 30/35/3 
f 35/40/3 34/39/3 27/32/3 
f 27/32/3 28/33/3 35/40/3 
f 37/25/1 36/41/1 38/23/1 
f 38/23/1 39/22/1 37/25/1 
f 32/37/1 40/24/1 41/21/1 
f 41/21/1 33/20/1 32/37/1 
f 21/10/2 39/42/2 38/43/2 
f 38/43/2 22/44/2 21/10/2 
f 6/37/4 17/45/4 16/46/4 
f 16/46/4 5/20/4 6/37/4 
f 43/17/1 42/19/1 11/47/1 
f 11/47/1 9/18/1 43/17/1 
f 45/49/5 44/48/5 46/50/5 
f 46/50/5 47/51/5 45/49/5 
f 49/53/5 48/52/5 50/54/5 
f 50/54/5 51/55/5 49/53/5 
f 32/37/4 23/46/4 40/20/4 
f 23/46/4 32/37/4 31/36/4 
f 31/36/4 52/56/4 23/46/4 
f 52/56/4 24/57/4 23/46/4 
f 52/56/4 37/58/4 24/57/4 
f 52/56/4 36/59/4 37/58/4 
f 54/61/3 53/60/3 50/62/3 
f 50/62/3 48/63/3 54/61/3 
f 54/65/4 48/64/4 49/66/4 
f 49/66/4 55/67/4 54/65/4 
f 52/41/1 54/68/1 55/69/1 
f 55/69/1 56/70/1 52/41/1 
f 56/70/1 12/47/1 52/41/1 
f 56/70/1 14/8/1 12/47/1 
f 54/68/1 52/41/1 31/37/1 
f 31/37/1 53/71/1 54/68/1 
f 31/37/1 14/8/1 53/71/1 
f 14/8/1 56/70/1 53/71/1 
f 50/63/2 53/61/2 56/72/2 
f 56/72/2 51/73/2 50/63/2 
f 56/74/6 55/65/6 49/64/6 
f 49/64/6 51/75/6 56/74/6 
f 58/77/1 57/76/1 59/78/1 
f 59/78/1 60/79/1 58/77/1 
f 2/81/4 61/80/4 62/82/4 
f 62/82/4 1/83/4 2/81/4 
f 3/84/3 43/27/3 9/26/3 
f 9/26/3 10/85/3 3/84/3 
f 10/85/3 63/86/3 3/84/3 
f 10/85/3 62/87/3 63/86/3 
f 43/27/3 3/84/3 1/88/3 
f 1/88/3 15/29/3 43/27/3 
f 1/88/3 62/87/3 15/29/3 
f 62/87/3 10/85/3 15/29/3 
f 62/90/5 61/89/5 64/91/5 
f 64/91/5 63/92/5 62/90/5 
f 64/94/2 4/93/2 3/95/2 
f 3/95/2 63/96/2 64/94/2 
f 2/97/6 7/8/6 5/6/6 
f 5/6/6 16/98/6 2/97/6 
f 16/98/6 61/99/6 2/97/6 
f 16/98/6 64/100/6 61/99/6 
f 7/8/6 2/97/6 4/101/6 
f 4/101/6 13/102/6 7/8/6 
f 4/101/6 64/100/6 13/102/6 
f 64/100/6 16/98/6 13/102/6 
f 43/58/4 15/57/4 18/103/4 
f 18/103/4 42/59/4 43/58/4 
f 38/20/6 36/37/6 52/36/6 
f 52/36/6 22/46/6 38/20/6 
f 52/36/6 18/98/6 22/46/6 
f 18/98/6 52/36/6 12/104/6 
f 18/98/6 12/104/6 11/8/6 
f 11/8/6 42/6/6 18/98/6 
f 19/45/2 33/37/2 41/38/2 
f 41/38/2 20/13/2 19/45/2 
f 46/94/2 60/93/2 59/95/2 
f 59/95/2 47/96/2 46/94/2 
f 59/106/3 37/105/3 39/107/3 
f 39/107/3 21/13/3 59/106/3 
f 21/13/3 47/108/3 59/106/3 
f 21/13/3 45/109/3 47/108/3 
f 37/105/3 59/106/3 57/110/3 
f 57/110/3 24/111/3 37/105/3 
f 57/110/3 45/109/3 24/111/3 
f 45/109/3 21/13/3 24/111/3 
f 58/81/4 44/80/4 45/82/4 
f 45/82/4 57/83/4 58/81/4 
f 58/112/6 41/20/6 40/37/6 
f 40/37/6 23/45/6 58/112/6 
f 23/45/6 44/113/6 58/112/6 
f 23/45/6 46/114/6 44/113/6 
f 41/20/6 58/112/6 60/115/6 
f 60/115/6 20/46/6 41/20/6 
f 60/115/6 46/114/6 20/46/6 
f 46/114/6 23/45/6 20/46/6 
f 66/35/3 65/40/3 67/33/3 
f 67/33/3 68/34/3 66/35/3 
f 29/117/2 30/116/2 66/118/2 
f 66/118/2 68/119/2 29/117/2 
f 66/120/5 30/38/5 35/121/5 
f 35/121/5 65/122/5 66/120/5 
f 35/116/4 28/117/4 67/123/4 
f 67/123/4 65/124/4 35/116/4 
f 29/20/1 68/125/1 67/126/1 
f 67/126/1 28/127/1 29/20/1 
f 70/39/3 69/30/3 71/31/3 
f 71/31/3 72/32/3 70/39/3 
f 27/129/1 72/128/1 71/130/1 
f 71/130/1 26/6/1 27/129/1 
f 27/117/2 34/116/2 70/118/2 
f 70/118/2 72/119/2 27/117/2 
f 70/132/5 34/131/5 25/27/5 
f 25/27/5 69/133/5 70/132/5 
f 25/116/4 26/117/4 71/123/4 
f 71/123/4 69/124/4 25/116/4 

usemtl _defaultMat

f 52/56/5 31/59/5 14/58/5 
f 14/56/5 12/59/5 52/58/5 
g drawerLeft

v -0.04 0.2744076 0.164 
v -0.2368 0.2744076 0.164 
v -0.04 0.3244076 0.164 
v -0.2368 0.3244076 0.164 
v -0.04 0.2744076 0 
v -0.1612 0.2891576 0 
v -0.2368 0.2744076 0 
v -0.2368 0.3244076 0 
v -0.1612 0.3096576 0 
v -0.1156 0.3096576 0 
v -0.1156 0.2891576 0 
v -0.04 0.3244076 0 
v -0.06032898 0.3244076 0.143671 
v -0.06032898 0.3244076 0.02032898 
v -0.216471 0.3244076 0.02032898 
v -0.216471 0.3244076 0.143671 
v -0.06032898 0.2844076 0.143671 
v -0.216471 0.2844076 0.143671 
v -0.06032898 0.2844076 0.02032898 
v -0.216471 0.2844076 0.02032898 
v -0.12216 0.2912076 -0.0123 
v -0.12216 0.3076076 -0.0123 
v -0.15464 0.2912076 -0.0123 
v -0.15464 0.3076076 -0.0123 

vn 0.8823529 0 -0.4705883 
vn -0.8823529 0 -0.4705883 
vn 0 0.986394 -0.164399 
vn 0 -0.986394 -0.164399 

vt 0 0.01537871 
vt -7.748032 0.01537871 
vt 0 1.983883 
vt -7.748032 1.983883 
vt 1.184238E-15 0.01537871 
vt 4.771654 0.5960874 
vt 7.748032 0.01537871 
vt 7.748032 1.983883 
vt 4.771654 1.403174 
vt 2.976378 1.403174 
vt 2.976378 0.5960874 
vt 1.184238E-15 1.983883 
vt 6.456693 1.983883 
vt 6.456693 0.01537871 
vt -2.4869E-14 -6.456693 
vt -7.748032 2.842171E-14 
vt -7.748032 -6.456693 
vt -6.456693 0.01537871 
vt -6.456693 1.983883 
vt -1.421085E-15 0.01537871 
vt -1.421085E-15 1.983883 
vt 0.8003536 -0.8003536 
vt 0.8003536 -5.656339 
vt 2.4869E-14 -6.456693 
vt 7.748032 -6.456693 
vt 6.947678 -5.656339 
vt 7.748032 2.842171E-14 
vt 6.947678 -0.8003536 
vt 5.656339 1.983883 
vt 5.656339 0.4090795 
vt 0.8003536 1.983883 
vt 0.8003536 0.4090795 
vt 6.947678 0.4090795 
vt 6.947678 1.983883 
vt -5.656339 0.4090795 
vt -5.656339 1.983883 
vt -0.8003536 0.4090795 
vt -0.8003536 1.983883 
vt -6.947678 0.4090795 
vt -6.947678 1.983883 
vt 7.646549 0.676796 
vt 7.097731 0.5960873 
vt 7.646549 1.322465 
vt 7.097731 1.403174 
vt -4.000417 0.676796 
vt -4.000417 1.322465 
vt -3.451598 0.5960873 
vt -3.451598 1.403174 
vt 2.976378 -6.138162 
vt 4.771654 -6.138162 
vt 3.234646 -6.629094 
vt 4.513386 -6.629094 
vt 2.976378 6.466839 
vt 3.234646 6.95777 
vt 4.771654 6.466839 
vt 4.513386 6.95777 
vt 4.513386 0.676796 
vt 3.234646 0.676796 
vt 4.513386 1.322465 
vt 3.234646 1.322465 

usemtl wood

f 74/135/6 73/134/6 75/136/6 
f 75/136/6 76/137/6 74/135/6 
f 78/139/3 77/138/3 79/140/3 
f 79/140/3 80/141/3 78/139/3 
f 80/141/3 81/142/3 78/139/3 
f 80/141/3 82/143/3 81/142/3 
f 77/138/3 78/139/3 83/144/3 
f 83/144/3 84/145/3 77/138/3 
f 83/144/3 82/143/3 84/145/3 
f 82/143/3 80/141/3 84/145/3 
f 77/147/4 84/146/4 75/136/4 
f 75/136/4 73/134/4 77/147/4 
f 77/148/1 73/37/1 74/149/1 
f 74/149/1 79/150/1 77/148/1 
f 80/152/2 79/151/2 74/153/2 
f 74/153/2 76/154/2 80/152/2 
f 86/156/5 85/155/5 84/157/5 
f 84/157/5 80/158/5 86/156/5 
f 80/158/5 87/159/5 86/156/5 
f 80/158/5 76/160/5 87/159/5 
f 85/155/5 76/160/5 75/37/5 
f 75/37/5 84/157/5 85/155/5 
f 85/155/5 88/161/5 76/160/5 
f 88/161/5 87/159/5 76/160/5 
f 90/161/5 89/155/5 91/156/5 
f 91/156/5 92/159/5 90/161/5 
f 92/163/4 87/162/4 88/164/4 
f 88/164/4 90/165/4 92/163/4 
f 89/165/3 90/166/3 88/167/3 
f 88/167/3 85/164/3 89/165/3 
f 86/169/2 91/168/2 89/170/2 
f 89/170/2 85/171/2 86/169/2 
f 92/172/6 91/170/6 86/171/6 
f 86/171/6 87/173/6 92/172/6 

usemtl metal

f 83/175/7 93/174/7 94/176/7 
f 94/176/7 82/177/7 83/175/7 
f 96/179/8 95/178/8 78/180/8 
f 78/180/8 81/181/8 96/179/8 
f 81/183/9 82/182/9 94/184/9 
f 94/184/9 96/185/9 81/183/9 
f 93/187/10 83/186/10 78/188/10 
f 78/188/10 95/189/10 93/187/10 
f 93/191/3 95/190/3 96/192/3 
f 96/192/3 94/193/3 93/191/3 
g drawerRight

v -0.2776755 0.2744076 0.164 
v -0.4744755 0.2744076 0.164 
v -0.2776755 0.3244076 0.164 
v -0.4744755 0.3244076 0.164 
v -0.2776755 0.2744076 0 
v -0.3988755 0.2891576 0 
v -0.4744755 0.2744076 0 
v -0.4744755 0.3244076 0 
v -0.3988755 0.3096576 0 
v -0.3532755 0.3096576 0 
v -0.3532755 0.2891576 0 
v -0.2776755 0.3244076 0 
v -0.2980044 0.3244076 0.143671 
v -0.2980044 0.3244076 0.02032898 
v -0.4541465 0.3244076 0.02032898 
v -0.4541465 0.3244076 0.143671 
v -0.2980044 0.2844076 0.143671 
v -0.4541465 0.2844076 0.143671 
v -0.2980044 0.2844076 0.02032898 
v -0.4541465 0.2844076 0.02032898 
v -0.3598355 0.2912076 -0.0123 
v -0.3598355 0.3076076 -0.0123 
v -0.3923155 0.2912076 -0.0123 
v -0.3923155 0.3076076 -0.0123 



usemtl wood

f 98/135/6 97/134/6 99/136/6 
f 99/136/6 100/137/6 98/135/6 
f 102/139/3 101/138/3 103/140/3 
f 103/140/3 104/141/3 102/139/3 
f 104/141/3 105/142/3 102/139/3 
f 104/141/3 106/143/3 105/142/3 
f 101/138/3 102/139/3 107/144/3 
f 107/144/3 108/145/3 101/138/3 
f 107/144/3 106/143/3 108/145/3 
f 106/143/3 104/141/3 108/145/3 
f 101/147/4 108/146/4 99/136/4 
f 99/136/4 97/134/4 101/147/4 
f 101/148/1 97/37/1 98/149/1 
f 98/149/1 103/150/1 101/148/1 
f 104/152/2 103/151/2 98/153/2 
f 98/153/2 100/154/2 104/152/2 
f 110/156/5 109/155/5 108/157/5 
f 108/157/5 104/158/5 110/156/5 
f 104/158/5 111/159/5 110/156/5 
f 104/158/5 100/160/5 111/159/5 
f 109/155/5 100/160/5 99/37/5 
f 99/37/5 108/157/5 109/155/5 
f 109/155/5 112/161/5 100/160/5 
f 112/161/5 111/159/5 100/160/5 
f 114/161/5 113/155/5 115/156/5 
f 115/156/5 116/159/5 114/161/5 
f 116/163/4 111/162/4 112/164/4 
f 112/164/4 114/165/4 116/163/4 
f 113/165/3 114/166/3 112/167/3 
f 112/167/3 109/164/3 113/165/3 
f 110/169/2 115/168/2 113/170/2 
f 113/170/2 109/171/2 110/169/2 
f 116/172/6 115/170/6 110/171/6 
f 110/171/6 111/173/6 116/172/6 

usemtl metal

f 107/175/7 117/174/7 118/176/7 
f 118/176/7 106/177/7 107/175/7 
f 120/179/8 119/178/8 102/180/8 
f 102/180/8 105/181/8 120/179/8 
f 105/183/9 106/182/9 118/184/9 
f 118/184/9 120/185/9 105/183/9 
f 117/187/10 107/186/10 102/188/10 
f 102/188/10 119/189/10 117/187/10 
f 117/191/3 119/190/3 120/192/3 
f 120/192/3 118/193/3 117/191/3 
