# Created by Kenney (www.kenney.nl) 

mtllib tableRound.mtl 

g tableRound

v -3.609557E-16 0.04516064 0.6 
v -0.3064102 0.04516064 0.44 
v -0.3464102 0.04516064 0.8 
v -0.3864101 0.04516064 0.44 
v -0.6928203 0.04516064 0.6 
v -0.3864101 0.04516064 0.36 
v -0.3064102 0.04516064 0.36 
v -0.3464102 0.04516064 0 
v 0 0.04516064 0.2 
v 0 0.04516064 0.4 
v -0.6928203 0.04516064 0.2 
v -0.6928203 0.04516064 0.4 
v 0 0.09673398 0.2 
v -3.609557E-16 0.09673398 0.6 
v -0.3464102 0.09673398 0 
v -0.3464102 0.09673398 0.8 
v -0.6928203 0.09673398 0.2 
v -0.6928203 0.09673398 0.6 
v -0.3864101 -0.2 0.36 
v -0.3064102 -0.2 0.36 
v -0.3064102 -0.2 0.44 
v -0.3864101 -0.2 0.44 
v -0.4064102 -0.22 0.34 
v -0.2864102 -0.22 0.34 
v -0.4064102 -0.2 0.34 
v -0.2864102 -0.2 0.34 
v -0.2864102 -0.2 0.46 
v -0.2864102 -0.22 0.46 
v -0.4064102 -0.22 0.46 
v -0.4064102 -0.2 0.46 
v -0.2464101 -0.22 0.3 
v -0.2464101 -0.25 0.3 
v -0.2464101 -0.22 0.5 
v -0.2464101 -0.25 0.5 
v -0.4464101 -0.25 0.5 
v -0.4464101 -0.22 0.5 
v -0.4464101 -0.25 0.3 
v -0.4464101 -0.22 0.3 
v -0.2364102 -0.27 0.51 
v -0.2364102 -0.27 0.29 
v -0.4564102 -0.27 0.51 
v -0.4564102 -0.27 0.29 

vn 0 -1 0 
vn 0 1 0 
vn -0.5 0 0.8660254 
vn -1 0 0 
vn -0.5 0 -0.8660254 
vn 0.5 0 -0.8660254 
vn 1 0 0 
vn 0.5 0 0.8660254 
vn 0 0 -1 
vn 0 0 1 
vn 0 0.4472136 0.8944272 
vn -0.8944272 0.4472136 0 
vn 0 0.4472136 -0.8944272 
vn 0.8944272 0.4472136 0 

vt -1.421085E-14 23.62205 
vt -12.06339 17.32283 
vt -13.6382 31.49606 
vt -15.213 17.32283 
vt -27.27639 23.62205 
vt -15.213 14.17323 
vt -12.06339 14.17323 
vt -13.6382 0 
vt 0 7.874016 
vt 0 15.74803 
vt -27.27639 7.874016 
vt -27.27639 15.74803 
vt 1.421085E-14 23.62205 
vt 13.6382 0 
vt 13.6382 31.49606 
vt 27.27639 7.874016 
vt 27.27639 23.62205 
vt 3.937008 1.777978 
vt -11.81102 1.777978 
vt 3.937008 3.808424 
vt -11.81102 3.808424 
vt 7.874016 1.777978 
vt 7.874016 3.808424 
vt 15.74803 1.777978 
vt 23.62205 3.808424 
vt 23.62205 1.777978 
vt 27.55906 1.777978 
vt 11.81102 1.777978 
vt 27.55906 3.808424 
vt 11.81102 3.808424 
vt -3.937008 1.777978 
vt -3.937008 3.808424 
vt -7.874016 3.808424 
vt -7.874016 1.777978 
vt -23.62205 3.808424 
vt -15.74803 1.777978 
vt -23.62205 1.777978 
vt -27.55906 1.777978 
vt -27.55906 3.808424 
vt 15.213 -7.874016 
vt 12.06339 -7.874016 
vt 15.213 1.777978 
vt 12.06339 1.777978 
vt -14.17323 1.777978 
vt -14.17323 -7.874016 
vt -17.32283 1.777978 
vt -17.32283 -7.874016 
vt -12.06339 -7.874016 
vt -15.213 -7.874016 
vt -12.06339 1.777978 
vt -15.213 1.777978 
vt 14.17323 -7.874016 
vt 14.17323 1.777978 
vt 17.32283 -7.874016 
vt 17.32283 1.777978 
vt 16.0004 -8.661417 
vt 11.27599 -8.661417 
vt 16.0004 -7.874016 
vt 11.27599 -7.874016 
vt -13.38583 -7.874016 
vt -13.38583 -8.661417 
vt -18.11024 -7.874016 
vt -18.11024 -8.661417 
vt 13.38583 -8.661417 
vt 13.38583 -7.874016 
vt 18.11024 -8.661417 
vt 18.11024 -7.874016 
vt 11.27599 18.11024 
vt 12.06339 14.17323 
vt 11.27599 13.38583 
vt 16.0004 13.38583 
vt 15.213 14.17323 
vt 15.213 17.32283 
vt 12.06339 17.32283 
vt 16.0004 18.11024 
vt -11.81102 -8.661417 
vt -11.81102 -9.84252 
vt -19.68504 -8.661417 
vt -19.68504 -9.84252 
vt -9.701187 -9.84252 
vt -17.5752 -9.84252 
vt -9.701187 -8.661417 
vt -17.5752 -8.661417 
vt 17.5752 -9.84252 
vt 9.701187 -9.84252 
vt 17.5752 -8.661417 
vt 9.701187 -8.661417 
vt 11.81102 -9.84252 
vt 11.81102 -8.661417 
vt 19.68504 -9.84252 
vt 19.68504 -8.661417 
vt 9.701187 19.68504 
vt 9.701187 11.81102 
vt 17.5752 11.81102 
vt 17.5752 19.68504 
vt -9.307487 20.07874 
vt -9.307487 11.41732 
vt -17.9689 20.07874 
vt -17.9689 11.41732 
vt -9.307487 -18.48718 
vt -17.9689 -18.48718 
vt -9.701187 -17.60683 
vt -17.5752 -17.60683 
vt 11.41732 -17.54363 
vt 11.81102 -16.66329 
vt 20.07874 -17.54363 
vt 19.68504 -16.66329 
vt 17.9689 -4.401709 
vt 9.307487 -4.401709 
vt 17.5752 -3.521367 
vt 9.701187 -3.521367 
vt -11.41732 -5.345256 
vt -20.07874 -5.345256 
vt -11.81102 -4.464914 
vt -19.68504 -4.464914 
vt -11.27599 -8.661417 
vt -16.0004 -8.661417 
vt -11.27599 -7.874016 
vt -16.0004 -7.874016 

usemtl wood

f 2/2/1 1/1/1 3/3/1 
f 3/3/1 4/4/1 2/2/1 
f 3/3/1 5/5/1 4/4/1 
f 5/5/1 6/6/1 4/4/1 
f 1/1/1 2/2/1 7/7/1 
f 1/1/1 7/7/1 8/8/1 
f 7/7/1 6/6/1 8/8/1 
f 1/1/1 8/8/1 9/9/1 
f 9/9/1 10/10/1 1/1/1 
f 6/6/1 11/11/1 8/8/1 
f 6/6/1 5/5/1 11/11/1 
f 5/5/1 12/12/1 11/11/1 
f 14/13/2 13/9/2 15/14/2 
f 15/14/2 16/15/2 14/13/2 
f 15/14/2 17/16/2 16/15/2 
f 17/16/2 18/17/2 16/15/2 
f 5/19/3 3/18/3 16/20/3 
f 16/20/3 18/21/3 5/19/3 
f 17/23/4 11/22/4 12/24/4 
f 12/24/4 18/25/4 17/23/4 
f 12/24/4 5/26/4 18/25/4 
f 8/28/5 11/27/5 17/29/5 
f 17/29/5 15/30/5 8/28/5 
f 9/31/6 8/28/6 15/30/6 
f 15/30/6 13/32/6 9/31/6 
f 9/34/7 13/33/7 14/35/7 
f 14/35/7 10/36/7 9/34/7 
f 14/35/7 1/37/7 10/36/7 
f 3/38/8 1/19/8 14/21/8 
f 14/21/8 16/39/8 3/38/8 
f 20/41/9 19/40/9 6/42/9 
f 6/42/9 7/43/9 20/41/9 
f 20/45/7 7/44/7 2/46/7 
f 2/46/7 21/47/7 20/45/7 
f 22/49/10 21/48/10 2/50/10 
f 2/50/10 4/51/10 22/49/10 
f 6/53/4 19/52/4 22/54/4 
f 22/54/4 4/55/4 6/53/4 
f 24/57/9 23/56/9 25/58/9 
f 25/58/9 26/59/9 24/57/9 
f 24/61/7 26/60/7 27/62/7 
f 27/62/7 28/63/7 24/61/7 
f 25/65/4 23/64/4 29/66/4 
f 29/66/4 30/67/4 25/65/4 
f 20/69/2 27/68/2 26/70/2 
f 26/70/2 25/71/2 20/69/2 
f 25/71/2 19/72/2 20/69/2 
f 25/71/2 22/73/2 19/72/2 
f 27/68/2 20/69/2 21/74/2 
f 21/74/2 30/75/2 27/68/2 
f 21/74/2 22/73/2 30/75/2 
f 22/73/2 25/71/2 30/75/2 
f 32/77/7 31/76/7 33/78/7 
f 33/78/7 34/79/7 32/77/7 
f 35/81/10 34/80/10 33/82/10 
f 33/82/10 36/83/10 35/81/10 
f 32/85/9 37/84/9 38/86/9 
f 38/86/9 31/87/9 32/85/9 
f 38/89/4 37/88/4 35/90/4 
f 35/90/4 36/91/4 38/89/4 
f 24/70/2 33/92/2 31/93/2 
f 31/93/2 38/94/2 24/70/2 
f 38/94/2 23/71/2 24/70/2 
f 38/94/2 29/75/2 23/71/2 
f 33/92/2 24/70/2 28/68/2 
f 28/68/2 36/95/2 33/92/2 
f 28/68/2 29/75/2 36/95/2 
f 29/75/2 38/94/2 36/95/2 
f 40/97/1 39/96/1 41/98/1 
f 41/98/1 42/99/1 40/97/1 
f 41/101/11 39/100/11 34/102/11 
f 34/102/11 35/103/11 41/101/11 
f 37/105/12 42/104/12 41/106/12 
f 41/106/12 35/107/12 37/105/12 
f 40/109/13 42/108/13 37/110/13 
f 37/110/13 32/111/13 40/109/13 
f 39/113/14 40/112/14 32/114/14 
f 32/114/14 34/115/14 39/113/14 
f 29/117/10 28/116/10 27/118/10 
f 27/118/10 30/119/10 29/117/10 
g tableRound




usemtl wood

f 2/2/1 1/1/1 3/3/1 
f 3/3/1 4/4/1 2/2/1 
f 3/3/1 5/5/1 4/4/1 
f 5/5/1 6/6/1 4/4/1 
f 1/1/1 2/2/1 7/7/1 
f 1/1/1 7/7/1 8/8/1 
f 7/7/1 6/6/1 8/8/1 
f 1/1/1 8/8/1 9/9/1 
f 9/9/1 10/10/1 1/1/1 
f 6/6/1 11/11/1 8/8/1 
f 6/6/1 5/5/1 11/11/1 
f 5/5/1 12/12/1 11/11/1 
f 14/13/2 13/9/2 15/14/2 
f 15/14/2 16/15/2 14/13/2 
f 15/14/2 17/16/2 16/15/2 
f 17/16/2 18/17/2 16/15/2 
f 5/19/3 3/18/3 16/20/3 
f 16/20/3 18/21/3 5/19/3 
f 17/23/4 11/22/4 12/24/4 
f 12/24/4 18/25/4 17/23/4 
f 12/24/4 5/26/4 18/25/4 
f 8/28/5 11/27/5 17/29/5 
f 17/29/5 15/30/5 8/28/5 
f 9/31/6 8/28/6 15/30/6 
f 15/30/6 13/32/6 9/31/6 
f 9/34/7 13/33/7 14/35/7 
f 14/35/7 10/36/7 9/34/7 
f 14/35/7 1/37/7 10/36/7 
f 3/38/8 1/19/8 14/21/8 
f 14/21/8 16/39/8 3/38/8 
f 20/41/9 19/40/9 6/42/9 
f 6/42/9 7/43/9 20/41/9 
f 20/45/7 7/44/7 2/46/7 
f 2/46/7 21/47/7 20/45/7 
f 22/49/10 21/48/10 2/50/10 
f 2/50/10 4/51/10 22/49/10 
f 6/53/4 19/52/4 22/54/4 
f 22/54/4 4/55/4 6/53/4 
f 24/57/9 23/56/9 25/58/9 
f 25/58/9 26/59/9 24/57/9 
f 24/61/7 26/60/7 27/62/7 
f 27/62/7 28/63/7 24/61/7 
f 25/65/4 23/64/4 29/66/4 
f 29/66/4 30/67/4 25/65/4 
f 20/69/2 27/68/2 26/70/2 
f 26/70/2 25/71/2 20/69/2 
f 25/71/2 19/72/2 20/69/2 
f 25/71/2 22/73/2 19/72/2 
f 27/68/2 20/69/2 21/74/2 
f 21/74/2 30/75/2 27/68/2 
f 21/74/2 22/73/2 30/75/2 
f 22/73/2 25/71/2 30/75/2 
f 32/77/7 31/76/7 33/78/7 
f 33/78/7 34/79/7 32/77/7 
f 35/81/10 34/80/10 33/82/10 
f 33/82/10 36/83/10 35/81/10 
f 32/85/9 37/84/9 38/86/9 
f 38/86/9 31/87/9 32/85/9 
f 38/89/4 37/88/4 35/90/4 
f 35/90/4 36/91/4 38/89/4 
f 24/70/2 33/92/2 31/93/2 
f 31/93/2 38/94/2 24/70/2 
f 38/94/2 23/71/2 24/70/2 
f 38/94/2 29/75/2 23/71/2 
f 33/92/2 24/70/2 28/68/2 
f 28/68/2 36/95/2 33/92/2 
f 28/68/2 29/75/2 36/95/2 
f 29/75/2 38/94/2 36/95/2 
f 40/97/1 39/96/1 41/98/1 
f 41/98/1 42/99/1 40/97/1 
f 41/101/11 39/100/11 34/102/11 
f 34/102/11 35/103/11 41/101/11 
f 37/105/12 42/104/12 41/106/12 
f 41/106/12 35/107/12 37/105/12 
f 40/109/13 42/108/13 37/110/13 
f 37/110/13 32/111/13 40/109/13 
f 39/113/14 40/112/14 32/114/14 
f 32/114/14 34/115/14 39/113/14 
f 29/117/10 28/116/10 27/118/10 
f 27/118/10 30/119/10 29/117/10 
