# Created by Kenney (www.kenney.nl) 

mtllib tableCoffee.mtl 

g tableCoffee

v -0.16 0.07 -0.06 
v -0.2 0.07 -0.06 
v -0.16 0.18 -0.06 
v -0.2 0.18 -0.06 
v 0.4209961 0.07 -0.06 
v -0.16 0.05 -0.06 
v 0.4209961 0.05 -0.06 
v -0.16 7.219114E-16 -0.06 
v -0.2 7.219114E-16 -0.06 
v -0.2 0.05 -0.06 
v 0.4609961 0.05 -0.06 
v 0.4209961 3.609557E-16 -0.06 
v 0.4609961 3.609557E-16 -0.06 
v 0.4609961 0.07 -0.06 
v 0.4609961 0.18 -0.06 
v 0.4209961 0.18 -0.06 
v -0.16 0.05 0.26 
v -0.2 0.05 0.26 
v 0.4209961 0.05 0.26 
v 0.4209961 0.05 0.3 
v -0.16 0.05 0.3 
v 0.4209961 0.05 -0.1 
v -0.16 0.05 -0.1 
v 0.4609961 0.05 0.26 
v 0.4209961 0 0.26 
v 0.4609961 0 0.26 
v -0.16 0.07 0.26 
v 0.4209961 0.07 0.26 
v 0.4609961 0.07 0.26 
v 0.4209961 0.18 0.26 
v 0.4609961 0.18 0.26 
v -0.16 -3.609557E-16 0.26 
v -0.2 -3.609557E-16 0.26 
v -0.2 0.07 0.26 
v -0.2 0.18 0.26 
v -0.16 0.18 0.26 
v -0.16 0 -0.1 
v -0.2 0 -0.1 
v 0.4609961 0.23 -0.1 
v 0.4609961 0.23 0.3 
v -0.2 0.23 -0.1 
v -0.2 0.23 0.3 
v -0.2 0 0.3 
v 0.4609961 0 -0.1 
v 0.4609961 0 0.3 
v -0.16 0.18 -0.1 
v -0.16 0.18 0.3 
v 0.4209961 0.18 -0.1 
v 0.4209961 0.18 0.3 
v -0.16 0.07 -0.1 
v 0.4209961 0.07 -0.1 
v 0.4209961 0 -0.1 
v 0.4209961 0 0.3 
v 0.4209961 0.07 0.3 
v -0.16 0.07 0.3 
v -0.16 0 0.3 

vn 0 0 1 
vn 0 -1 0 
vn 0 0 -1 
vn 0 1 0 
vn -1 0 0 
vn 1 0 0 

vt -6.299212 2.755906 
vt -7.874016 2.755906 
vt -6.299212 7.086614 
vt -7.874016 7.086614 
vt 16.57465 2.755906 
vt -6.299212 1.968504 
vt 16.57465 1.968504 
vt -6.299212 1.136868E-14 
vt -7.874016 1.136868E-14 
vt -7.874016 1.968504 
vt 18.14945 1.968504 
vt 16.57465 5.684342E-15 
vt 18.14945 5.684342E-15 
vt 18.14945 2.755906 
vt 18.14945 7.086614 
vt 16.57465 7.086614 
vt -6.299212 10.23622 
vt -6.299212 -2.362205 
vt -7.874016 10.23622 
vt -7.874016 -2.362205 
vt 16.57465 10.23622 
vt 16.57465 11.81102 
vt -6.299212 11.81102 
vt 16.57465 -2.362205 
vt 16.57465 -3.937008 
vt -6.299212 -3.937008 
vt 18.14945 -2.362205 
vt 18.14945 10.23622 
vt -16.57465 0 
vt -18.14945 0 
vt -16.57465 1.968504 
vt -18.14945 1.968504 
vt 6.299212 1.968504 
vt 6.299212 2.755906 
vt -16.57465 2.755906 
vt -18.14945 2.755906 
vt -16.57465 7.086614 
vt -18.14945 7.086614 
vt 7.874016 1.968504 
vt 6.299212 2.273737E-14 
vt 7.874016 2.273737E-14 
vt 7.874016 2.755906 
vt 7.874016 7.086614 
vt 6.299212 7.086614 
vt -7.874016 -3.937008 
vt -18.14945 -3.937008 
vt -18.14945 11.81102 
vt 7.874016 -3.937008 
vt 7.874016 11.81102 
vt -2.362205 7.086614 
vt -2.362205 2.755906 
vt -2.362205 3.243747E-14 
vt -2.362205 1.968504 
vt 10.23622 2.755906 
vt 10.23622 1.968504 
vt 10.23622 7.086614 
vt -3.937008 9.055119 
vt -3.937008 4.015755E-15 
vt 11.81102 9.055119 
vt 11.81102 4.015755E-15 
vt 10.23622 -1.01951E-14 
vt 3.937008 -9.256236E-15 
vt 2.362205 7.086614 
vt 3.937008 9.055119 
vt -11.81102 9.055119 
vt -10.23622 7.086614 
vt -10.23622 1.968504 
vt -10.23622 -9.256236E-15 
vt -11.81102 -9.256236E-15 
vt 2.362205 4.954618E-15 
vt 2.362205 2.755906 
vt 2.362205 1.968504 
vt -10.23622 2.755906 
vt 7.874016 0 
vt 6.299212 0 
vt 7.874016 9.055119 
vt -18.14945 9.055119 
vt 18.14945 11.81102 
vt 18.14945 -3.937008 
vt 10.23622 -2.991357E-14 
vt 11.81102 -2.991357E-14 
vt 11.81102 1.968504 
vt 11.81102 2.755906 
vt 11.81102 7.086614 
vt -3.937008 2.755906 
vt -3.937008 7.086614 
vt -2.362205 -7.552986E-14 
vt -3.937008 1.968504 
vt -3.937008 -8.974071E-14 
vt 3.937008 2.755906 
vt 3.937008 7.086614 
vt 3.937008 1.968504 
vt 3.937008 0 
vt 2.362205 2.842171E-14 
vt -11.81102 7.086614 
vt -11.81102 2.755906 
vt -10.23622 -1.421085E-14 
vt -11.81102 0 
vt -11.81102 1.968504 
vt -7.874016 11.81102 
vt 6.299212 -2.362205 
vt 6.299212 10.23622 
vt 7.874016 -2.362205 
vt 7.874016 10.23622 
vt -16.57465 10.23622 
vt -16.57465 11.81102 
vt 6.299212 11.81102 
vt -16.57465 -2.362205 
vt -16.57465 -3.937008 
vt 6.299212 -3.937008 
vt -18.14945 10.23622 
vt -18.14945 -2.362205 
vt 18.14945 0 
vt 16.57465 0 
vt 18.14945 9.055119 
vt -7.874016 9.055119 
vt -7.874016 0 
vt -6.299212 0 

usemtl wood

f 2/2/1 1/1/1 3/3/1 
f 3/3/1 4/4/1 2/2/1 
f 5/5/1 1/1/1 6/6/1 
f 6/6/1 7/7/1 5/5/1 
f 9/9/1 8/8/1 6/6/1 
f 6/6/1 10/10/1 9/9/1 
f 11/11/1 7/7/1 12/12/1 
f 12/12/1 13/13/1 11/11/1 
f 5/5/1 14/14/1 15/15/1 
f 15/15/1 16/16/1 5/5/1 
f 6/18/2 17/17/2 18/19/2 
f 18/19/2 10/20/2 6/18/2 
f 17/17/2 19/21/2 20/22/2 
f 20/22/2 21/23/2 17/17/2 
f 22/25/2 7/24/2 6/18/2 
f 6/18/2 23/26/2 22/25/2 
f 19/21/2 7/24/2 11/27/2 
f 11/27/2 24/28/2 19/21/2 
f 26/30/3 25/29/3 19/31/3 
f 19/31/3 24/32/3 26/30/3 
f 19/31/3 17/33/3 27/34/3 
f 27/34/3 28/35/3 19/31/3 
f 29/36/3 28/35/3 30/37/3 
f 30/37/3 31/38/3 29/36/3 
f 18/39/3 17/33/3 32/40/3 
f 32/40/3 33/41/3 18/39/3 
f 27/34/3 34/42/3 35/43/3 
f 35/43/3 36/44/3 27/34/3 
f 37/26/2 8/18/2 9/20/2 
f 9/20/2 38/45/2 37/26/2 
f 40/47/4 39/46/4 41/48/4 
f 41/48/4 42/49/4 40/47/4 
f 2/51/5 4/50/5 9/52/5 
f 9/52/5 10/53/5 2/51/5 
f 10/53/5 34/54/5 2/51/5 
f 10/53/5 18/55/5 34/54/5 
f 18/55/5 35/56/5 34/54/5 
f 9/52/5 4/50/5 41/57/5 
f 41/57/5 38/58/5 9/52/5 
f 4/50/5 42/59/5 41/57/5 
f 4/50/5 35/56/5 42/59/5 
f 35/56/5 18/55/5 42/59/5 
f 18/55/5 43/60/5 42/59/5 
f 18/55/5 33/61/5 43/60/5 
f 15/63/6 44/62/6 39/64/6 
f 39/64/6 40/65/6 15/63/6 
f 40/65/6 31/66/6 15/63/6 
f 40/65/6 24/67/6 31/66/6 
f 40/65/6 26/68/6 24/67/6 
f 40/65/6 45/69/6 26/68/6 
f 13/70/6 44/62/6 15/63/6 
f 15/63/6 14/71/6 13/70/6 
f 14/71/6 11/72/6 13/70/6 
f 14/71/6 29/73/6 11/72/6 
f 29/73/6 24/67/6 11/72/6 
f 29/73/6 31/66/6 24/67/6 
f 3/18/2 36/17/2 35/19/2 
f 35/19/2 4/20/2 3/18/2 
f 36/17/2 3/18/2 46/26/2 
f 47/23/2 36/17/2 46/26/2 
f 47/23/2 46/26/2 48/25/2 
f 47/23/2 48/25/2 16/24/2 
f 47/23/2 16/24/2 30/21/2 
f 30/21/2 49/22/2 47/23/2 
f 30/21/2 16/24/2 15/27/2 
f 15/27/2 31/28/2 30/21/2 
f 37/75/3 38/74/3 41/76/3 
f 41/76/3 23/33/3 37/75/3 
f 41/76/3 50/34/3 23/33/3 
f 50/34/3 22/31/3 23/33/3 
f 41/76/3 46/44/3 50/34/3 
f 41/76/3 48/37/3 46/44/3 
f 22/31/3 50/34/3 51/35/3 
f 22/31/3 51/35/3 39/77/3 
f 51/35/3 48/37/3 39/77/3 
f 48/37/3 41/76/3 39/77/3 
f 22/31/3 39/77/3 44/30/3 
f 44/30/3 52/29/3 22/31/3 
f 26/28/2 45/78/2 53/22/2 
f 53/22/2 25/21/2 26/28/2 
f 44/79/2 13/27/2 12/24/2 
f 12/24/2 52/25/2 44/79/2 
f 28/54/5 5/51/5 7/53/5 
f 7/53/5 19/55/5 28/54/5 
f 19/55/5 25/80/5 53/81/5 
f 53/81/5 20/82/5 19/55/5 
f 30/56/5 28/54/5 54/83/5 
f 54/83/5 49/84/5 30/56/5 
f 48/86/5 51/85/5 5/51/5 
f 5/51/5 16/50/5 48/86/5 
f 12/87/5 7/53/5 22/88/5 
f 22/88/5 52/89/5 12/87/5 
f 6/72/6 1/71/6 27/73/6 
f 27/73/6 17/67/6 6/72/6 
f 3/63/6 1/71/6 50/90/6 
f 50/90/6 46/91/6 3/63/6 
f 37/93/6 23/92/6 6/72/6 
f 6/72/6 8/94/6 37/93/6 
f 27/73/6 36/66/6 47/95/6 
f 47/95/6 55/96/6 27/73/6 
f 56/98/6 32/97/6 17/67/6 
f 17/67/6 21/99/6 56/98/6 
f 32/17/2 56/23/2 43/100/2 
f 43/100/2 33/19/2 32/17/2 
f 27/102/4 1/101/4 2/103/4 
f 2/103/4 34/104/4 27/102/4 
f 54/106/4 28/105/4 27/102/4 
f 27/102/4 55/107/4 54/106/4 
f 1/101/4 5/108/4 51/109/4 
f 51/109/4 50/110/4 1/101/4 
f 5/108/4 28/105/4 29/111/4 
f 29/111/4 14/112/4 5/108/4 
f 53/114/1 45/113/1 40/115/1 
f 40/115/1 20/7/1 53/114/1 
f 40/115/1 54/5/1 20/7/1 
f 54/5/1 21/6/1 20/7/1 
f 40/115/1 49/16/1 54/5/1 
f 40/115/1 47/3/1 49/16/1 
f 21/6/1 54/5/1 55/1/1 
f 21/6/1 55/1/1 42/116/1 
f 55/1/1 47/3/1 42/116/1 
f 47/3/1 40/115/1 42/116/1 
f 21/6/1 42/116/1 43/117/1 
f 43/117/1 56/118/1 21/6/1 
g tableCoffee




usemtl wood

f 2/2/1 1/1/1 3/3/1 
f 3/3/1 4/4/1 2/2/1 
f 5/5/1 1/1/1 6/6/1 
f 6/6/1 7/7/1 5/5/1 
f 9/9/1 8/8/1 6/6/1 
f 6/6/1 10/10/1 9/9/1 
f 11/11/1 7/7/1 12/12/1 
f 12/12/1 13/13/1 11/11/1 
f 5/5/1 14/14/1 15/15/1 
f 15/15/1 16/16/1 5/5/1 
f 6/18/2 17/17/2 18/19/2 
f 18/19/2 10/20/2 6/18/2 
f 17/17/2 19/21/2 20/22/2 
f 20/22/2 21/23/2 17/17/2 
f 22/25/2 7/24/2 6/18/2 
f 6/18/2 23/26/2 22/25/2 
f 19/21/2 7/24/2 11/27/2 
f 11/27/2 24/28/2 19/21/2 
f 26/30/3 25/29/3 19/31/3 
f 19/31/3 24/32/3 26/30/3 
f 19/31/3 17/33/3 27/34/3 
f 27/34/3 28/35/3 19/31/3 
f 29/36/3 28/35/3 30/37/3 
f 30/37/3 31/38/3 29/36/3 
f 18/39/3 17/33/3 32/40/3 
f 32/40/3 33/41/3 18/39/3 
f 27/34/3 34/42/3 35/43/3 
f 35/43/3 36/44/3 27/34/3 
f 37/26/2 8/18/2 9/20/2 
f 9/20/2 38/45/2 37/26/2 
f 40/47/4 39/46/4 41/48/4 
f 41/48/4 42/49/4 40/47/4 
f 2/51/5 4/50/5 9/52/5 
f 9/52/5 10/53/5 2/51/5 
f 10/53/5 34/54/5 2/51/5 
f 10/53/5 18/55/5 34/54/5 
f 18/55/5 35/56/5 34/54/5 
f 9/52/5 4/50/5 41/57/5 
f 41/57/5 38/58/5 9/52/5 
f 4/50/5 42/59/5 41/57/5 
f 4/50/5 35/56/5 42/59/5 
f 35/56/5 18/55/5 42/59/5 
f 18/55/5 43/60/5 42/59/5 
f 18/55/5 33/61/5 43/60/5 
f 15/63/6 44/62/6 39/64/6 
f 39/64/6 40/65/6 15/63/6 
f 40/65/6 31/66/6 15/63/6 
f 40/65/6 24/67/6 31/66/6 
f 40/65/6 26/68/6 24/67/6 
f 40/65/6 45/69/6 26/68/6 
f 13/70/6 44/62/6 15/63/6 
f 15/63/6 14/71/6 13/70/6 
f 14/71/6 11/72/6 13/70/6 
f 14/71/6 29/73/6 11/72/6 
f 29/73/6 24/67/6 11/72/6 
f 29/73/6 31/66/6 24/67/6 
f 3/18/2 36/17/2 35/19/2 
f 35/19/2 4/20/2 3/18/2 
f 36/17/2 3/18/2 46/26/2 
f 47/23/2 36/17/2 46/26/2 
f 47/23/2 46/26/2 48/25/2 
f 47/23/2 48/25/2 16/24/2 
f 47/23/2 16/24/2 30/21/2 
f 30/21/2 49/22/2 47/23/2 
f 30/21/2 16/24/2 15/27/2 
f 15/27/2 31/28/2 30/21/2 
f 37/75/3 38/74/3 41/76/3 
f 41/76/3 23/33/3 37/75/3 
f 41/76/3 50/34/3 23/33/3 
f 50/34/3 22/31/3 23/33/3 
f 41/76/3 46/44/3 50/34/3 
f 41/76/3 48/37/3 46/44/3 
f 22/31/3 50/34/3 51/35/3 
f 22/31/3 51/35/3 39/77/3 
f 51/35/3 48/37/3 39/77/3 
f 48/37/3 41/76/3 39/77/3 
f 22/31/3 39/77/3 44/30/3 
f 44/30/3 52/29/3 22/31/3 
f 26/28/2 45/78/2 53/22/2 
f 53/22/2 25/21/2 26/28/2 
f 44/79/2 13/27/2 12/24/2 
f 12/24/2 52/25/2 44/79/2 
f 28/54/5 5/51/5 7/53/5 
f 7/53/5 19/55/5 28/54/5 
f 19/55/5 25/80/5 53/81/5 
f 53/81/5 20/82/5 19/55/5 
f 30/56/5 28/54/5 54/83/5 
f 54/83/5 49/84/5 30/56/5 
f 48/86/5 51/85/5 5/51/5 
f 5/51/5 16/50/5 48/86/5 
f 12/87/5 7/53/5 22/88/5 
f 22/88/5 52/89/5 12/87/5 
f 6/72/6 1/71/6 27/73/6 
f 27/73/6 17/67/6 6/72/6 
f 3/63/6 1/71/6 50/90/6 
f 50/90/6 46/91/6 3/63/6 
f 37/93/6 23/92/6 6/72/6 
f 6/72/6 8/94/6 37/93/6 
f 27/73/6 36/66/6 47/95/6 
f 47/95/6 55/96/6 27/73/6 
f 56/98/6 32/97/6 17/67/6 
f 17/67/6 21/99/6 56/98/6 
f 32/17/2 56/23/2 43/100/2 
f 43/100/2 33/19/2 32/17/2 
f 27/102/4 1/101/4 2/103/4 
f 2/103/4 34/104/4 27/102/4 
f 54/106/4 28/105/4 27/102/4 
f 27/102/4 55/107/4 54/106/4 
f 1/101/4 5/108/4 51/109/4 
f 51/109/4 50/110/4 1/101/4 
f 5/108/4 28/105/4 29/111/4 
f 29/111/4 14/112/4 5/108/4 
f 53/114/1 45/113/1 40/115/1 
f 40/115/1 20/7/1 53/114/1 
f 40/115/1 54/5/1 20/7/1 
f 54/5/1 21/6/1 20/7/1 
f 40/115/1 49/16/1 54/5/1 
f 40/115/1 47/3/1 49/16/1 
f 21/6/1 54/5/1 55/1/1 
f 21/6/1 55/1/1 42/116/1 
f 55/1/1 47/3/1 42/116/1 
f 47/3/1 40/115/1 42/116/1 
f 21/6/1 42/116/1 43/117/1 
f 43/117/1 56/118/1 21/6/1 
