# Created by Kenney (www.kenney.nl) 

mtllib table.mtl 

g table

v -0.0485035 0.0485035 0.1979 
v -0.0485035 0.09700699 0.1979 
v -0.7929844 0.0485035 0.1979 
v -0.7929844 0.09700699 0.1979 
v -0.7929844 0.0485035 0.2494733 
v -0.7929844 0.09700699 0.2494733 
v -0.0485035 0.0485035 0.2494733 
v -0.0485035 0.09700699 0.2494733 
v -0.0485035 0.2782305 0.4473733 
v -0.0485035 0.2782305 0.3958 
v -0.7929844 0.2782305 0.4473733 
v -0.7929844 0.2782305 0.3958 
v -0.7929844 0.2782305 1.224768E-13 
v -0.0485035 0.2782305 2.180398E-14 
v -0.0485035 0.2782305 0.05157334 
v -1.440213E-13 0.2782305 0.3958 
v -1.191154E-14 0.2782305 0.05157334 
v -0.7929844 0.2782305 0.05157334 
v -0.8414879 0.2782305 0.3958 
v -0.8414879 0.2782305 0.05157334 
v -0.02425175 0.0485035 0.3958 
v -0.02425175 0.0485035 0.05157334 
v -0.0485035 0.0485035 0.3958 
v -0.0485035 0.0485035 0.05157334 
v -0.8172362 0.0485035 0.3958 
v -0.7929844 0.0485035 0.3958 
v -0.8172362 0.0485035 0.05157334 
v -0.7929844 0.0485035 0.05157334 
v -0.02425175 0.09700699 0.05157334 
v -0.02425175 0.09700699 0.3958 
v -0.0485035 0.09700699 0.05157334 
v -0.0485035 0.09700699 0.3958 
v -0.8172362 0.09700699 0.3958 
v -0.7929844 0.09700699 0.3958 
v -0.8172362 0.09700699 0.05157334 
v -0.7929844 0.09700699 0.05157334 
v -0.7929844 5.491373E-15 1.224768E-13 
v -0.7929844 5.491373E-15 0.05157334 
v -0.8414879 5.491373E-15 0.3958 
v -0.8414879 5.491373E-15 0.4473733 
v -0.8414879 0.326734 0.4473733 
v -0.8414879 0.326734 1.248794E-13 
v -0.8414879 5.491373E-15 0.05157334 
v -0.8414879 5.491373E-15 1.242703E-13 
v -0.7929844 5.491373E-15 0.4473733 
v -0.7929844 5.491373E-15 0.3958 
v -1.191154E-14 6.178392E-14 0.05157334 
v -1.335536E-14 6.178392E-14 0 
v -0.0485035 0 0.05157334 
v -0.0485035 0 2.180398E-14 
v -1.425775E-13 6.178392E-14 0.4473733 
v -1.440213E-13 6.178392E-14 0.3958 
v -0.0485035 5.972656E-14 0.4473733 
v -0.0485035 5.972656E-14 0.3958 
v -1.191154E-14 0.326734 1.184386E-15 
v 0 0.326734 0.4473733 

vn 0 0 -1 
vn 0 0 1 
vn 0 -1 0 
vn 0 1 0 
vn 1 0 0 
vn -1 0 0 

vt 1.909586 1.909586 
vt 1.909586 3.819173 
vt 31.21986 1.909586 
vt 31.21986 3.819173 
vt -31.21986 1.909586 
vt -31.21986 3.819173 
vt -1.909586 1.909586 
vt -1.909586 3.819173 
vt -1.909586 17.61312 
vt -1.909586 15.58268 
vt -31.21986 17.61312 
vt -31.21986 15.58268 
vt -31.21986 4.821754E-12 
vt -1.909586 8.582577E-13 
vt -1.909586 2.030446 
vt -5.669536E-12 15.58268 
vt -4.683634E-13 2.030446 
vt -31.21986 2.030446 
vt -33.12945 15.58268 
vt -33.12945 2.030446 
vt -0.9547932 15.58268 
vt -0.9547932 2.030446 
vt -1.909586 9.821785 
vt -1.909586 7.791339 
vt -31.21986 7.791339 
vt -31.21986 9.821785 
vt -32.17466 15.58268 
vt -32.17466 2.030446 
vt 0.9547932 2.030446 
vt 0.9547932 15.58268 
vt 1.909586 2.030446 
vt 1.909586 15.58268 
vt 1.909586 7.791339 
vt 1.909586 9.821785 
vt 31.21986 7.791339 
vt 31.21986 9.821785 
vt 32.17466 15.58268 
vt 31.21986 15.58268 
vt 32.17466 2.030446 
vt 31.21986 2.030446 
vt 8.542395E-11 10.95396 
vt 8.542395E-11 1.895239E-11 
vt -2.030446 10.95396 
vt -2.030446 1.895239E-11 
vt -2.030446 3.819173 
vt -2.030446 1.909586 
vt -7.791339 3.819173 
vt -7.791339 1.909586 
vt 15.58268 2.458224E-11 
vt 15.58268 10.95396 
vt 17.61312 2.458224E-11 
vt 17.61312 12.86354 
vt 2.030446 10.95396 
vt -6.041379E-12 12.86354 
vt 2.030446 2.458224E-11 
vt -6.06536E-12 2.458224E-11 
vt -15.58268 10.95396 
vt -15.58268 3.819173 
vt -17.61312 10.95396 
vt -15.58268 1.909586 
vt -17.61312 9.537689E-12 
vt -15.58268 9.537689E-12 
vt -9.821785 1.909586 
vt -9.821785 3.819173 
vt -33.12945 17.61312 
vt 2.030446 3.819173 
vt 15.58268 3.819173 
vt 2.030446 1.909586 
vt 15.58268 1.909586 
vt -4.689582E-13 2.030446 
vt -5.258016E-13 0 
vt -1.909586 8.584244E-13 
vt 31.21986 1.021737E-13 
vt 32.17466 1.909586 
vt 33.12945 1.021737E-13 
vt 33.12945 10.95396 
vt 32.17466 3.819173 
vt 31.21986 10.95396 
vt -5.613288E-12 17.61312 
vt -5.670131E-12 15.58268 
vt -4.662937E-14 12.86354 
vt -17.61312 12.86354 
vt -15.58268 2.432438E-12 
vt -17.61312 2.432438E-12 
vt -2.030446 2.432438E-12 
vt -8.561594E-26 2.432438E-12 
vt -1.909586 -9.251059E-17 
vt -1.297663E-12 2.432345E-12 
vt -0.9547932 1.909586 
vt -1.297663E-12 10.95396 
vt -0.9547932 3.819173 
vt -1.909586 10.95396 
vt -31.21986 1.91841E-13 
vt -33.12945 1.91841E-13 
vt -32.17466 1.909586 
vt -33.12945 10.95396 
vt -32.17466 3.819173 
vt -31.21986 10.95396 
vt 1.909586 1.116324E-12 
vt -8.245735E-11 1.197322E-12 
vt 0.9547932 1.909586 
vt -8.245735E-11 10.95396 
vt 0.9547932 3.819173 
vt 1.909586 10.95396 
vt 7.791339 1.909586 
vt 7.791339 3.819173 
vt 2.030446 2.524667E-14 
vt 1.074204E-12 10.95396 
vt 1.074204E-12 2.524667E-14 
vt -31.21986 4.821921E-12 
vt -33.12945 4.892531E-12 
vt 9.821785 3.819173 
vt 9.821785 1.909586 
vt 15.58268 2.105611E-12 
vt 17.61312 2.105611E-12 
vt 17.61312 10.95396 
vt -1.089767E-15 17.61312 
vt 33.12945 17.61312 
vt 4.678684E-13 4.560447E-14 
vt 33.12945 4.915487E-12 
vt 33.12945 2.161958E-13 
vt 31.21986 2.161958E-13 
vt 33.12945 12.86354 
vt 4.689582E-13 12.86354 
vt 5.258016E-13 2.432438E-12 
vt 1.909586 1.363224E-27 
vt -1.909586 2.371252E-12 
vt -6.289129E-12 2.45225E-12 
vt -6.758413E-13 12.86354 
vt -33.12945 12.86354 
vt -33.12945 2.360083E-13 
vt -31.21986 2.360083E-13 

usemtl wood

f 2/2/1 1/1/1 3/3/1 
f 3/3/1 4/4/1 2/2/1 
f 6/6/2 5/5/2 7/7/2 
f 7/7/2 8/8/2 6/6/2 
f 10/10/3 9/9/3 11/11/3 
f 10/10/3 11/11/3 12/12/3 
f 10/10/3 12/12/3 13/13/3 
f 10/10/3 13/13/3 14/14/3 
f 10/10/3 14/14/3 15/15/3 
f 16/16/3 10/10/3 15/15/3 
f 15/15/3 17/17/3 16/16/3 
f 12/12/3 18/18/3 13/13/3 
f 18/18/3 12/12/3 19/19/3 
f 19/19/3 20/20/3 18/18/3 
f 22/22/3 21/21/3 23/10/3 
f 23/10/3 7/23/3 22/22/3 
f 7/23/3 1/24/3 22/22/3 
f 1/24/3 24/15/3 22/22/3 
f 3/25/3 1/24/3 7/23/3 
f 7/23/3 5/26/3 3/25/3 
f 25/27/3 3/25/3 5/26/3 
f 5/26/3 26/12/3 25/27/3 
f 25/27/3 27/28/3 3/25/3 
f 28/18/3 3/25/3 27/28/3 
f 30/30/4 29/29/4 31/31/4 
f 31/31/4 32/32/4 30/30/4 
f 31/31/4 2/33/4 32/32/4 
f 2/33/4 8/34/4 32/32/4 
f 2/33/4 4/35/4 8/34/4 
f 4/35/4 6/36/4 8/34/4 
f 6/36/4 4/35/4 33/37/4 
f 33/37/4 34/38/4 6/36/4 
f 4/35/4 35/39/4 33/37/4 
f 4/35/4 36/40/4 35/39/4 
f 37/42/5 13/41/5 18/43/5 
f 18/43/5 38/44/5 37/42/5 
f 18/43/5 36/45/5 38/44/5 
f 36/45/5 28/46/5 38/44/5 
f 36/45/5 4/47/5 28/46/5 
f 4/47/5 3/48/5 28/46/5 
f 19/50/6 39/49/6 40/51/6 
f 19/50/6 40/51/6 41/52/6 
f 20/53/6 19/50/6 41/52/6 
f 20/53/6 41/52/6 42/54/6 
f 43/55/6 20/53/6 42/54/6 
f 42/54/6 44/56/6 43/55/6 
f 34/58/5 12/57/5 11/59/5 
f 11/59/5 26/60/5 34/58/5 
f 26/60/5 11/59/5 45/61/5 
f 45/61/5 46/62/5 26/60/5 
f 34/58/5 26/60/5 5/63/5 
f 5/63/5 6/64/5 34/58/5 
f 46/12/3 45/11/3 40/65/3 
f 40/65/3 39/19/3 46/12/3 
f 33/67/6 35/66/6 27/68/6 
f 27/68/6 25/69/6 33/67/6 
f 48/71/3 47/70/3 49/15/3 
f 49/15/3 50/72/3 48/71/3 
f 25/74/1 46/73/1 39/75/1 
f 39/75/1 19/76/1 25/74/1 
f 19/76/1 33/77/1 25/74/1 
f 19/76/1 34/4/1 33/77/1 
f 19/76/1 12/78/1 34/4/1 
f 46/73/1 25/74/1 26/3/1 
f 22/46/5 29/45/5 30/58/5 
f 30/58/5 21/60/5 22/46/5 
f 52/80/3 51/79/3 53/9/3 
f 53/9/3 54/10/3 52/80/3 
f 17/43/5 55/81/5 56/82/5 
f 56/82/5 16/57/5 17/43/5 
f 56/82/5 52/83/5 16/57/5 
f 56/82/5 51/84/5 52/83/5 
f 55/81/5 17/43/5 47/85/5 
f 47/85/5 48/86/5 55/81/5 
f 24/7/2 49/87/2 47/88/2 
f 47/88/2 22/89/2 24/7/2 
f 47/88/2 17/90/2 22/89/2 
f 17/90/2 29/91/2 22/89/2 
f 17/90/2 15/92/2 29/91/2 
f 31/8/2 29/91/2 15/92/2 
f 43/94/2 38/93/2 28/5/2 
f 28/5/2 27/95/2 43/94/2 
f 20/96/2 43/94/2 27/95/2 
f 27/95/2 35/97/2 20/96/2 
f 35/97/2 36/6/2 20/96/2 
f 36/6/2 18/98/2 20/96/2 
f 52/100/1 54/99/1 23/1/1 
f 23/1/1 21/101/1 52/100/1 
f 16/102/1 52/100/1 21/101/1 
f 21/101/1 30/103/1 16/102/1 
f 30/103/1 32/2/1 16/102/1 
f 32/2/1 10/104/1 16/102/1 
f 31/66/6 24/68/6 1/105/6 
f 1/105/6 2/106/6 31/66/6 
f 24/68/6 31/66/6 15/53/6 
f 49/107/6 24/68/6 15/53/6 
f 49/107/6 15/53/6 14/108/6 
f 14/108/6 50/109/6 49/107/6 
f 37/110/3 38/18/3 43/20/3 
f 43/20/3 44/111/3 37/110/3 
f 32/67/6 8/112/6 7/113/6 
f 7/113/6 23/69/6 32/67/6 
f 23/69/6 10/50/6 32/67/6 
f 23/69/6 54/114/6 10/50/6 
f 54/114/6 53/115/6 10/50/6 
f 53/115/6 9/116/6 10/50/6 
f 41/118/4 56/117/4 55/119/4 
f 55/119/4 42/120/4 41/118/4 
f 37/122/1 44/121/1 42/123/1 
f 42/123/1 13/78/1 37/122/1 
f 13/78/1 42/123/1 55/124/1 
f 14/104/1 13/78/1 55/124/1 
f 14/104/1 55/124/1 48/125/1 
f 48/125/1 50/126/1 14/104/1 
f 9/92/2 53/127/2 51/128/2 
f 51/128/2 56/129/2 9/92/2 
f 56/129/2 41/130/2 9/92/2 
f 11/98/2 9/92/2 41/130/2 
f 11/98/2 41/130/2 40/131/2 
f 40/131/2 45/132/2 11/98/2 
g table




usemtl wood

f 2/2/1 1/1/1 3/3/1 
f 3/3/1 4/4/1 2/2/1 
f 6/6/2 5/5/2 7/7/2 
f 7/7/2 8/8/2 6/6/2 
f 10/10/3 9/9/3 11/11/3 
f 10/10/3 11/11/3 12/12/3 
f 10/10/3 12/12/3 13/13/3 
f 10/10/3 13/13/3 14/14/3 
f 10/10/3 14/14/3 15/15/3 
f 16/16/3 10/10/3 15/15/3 
f 15/15/3 17/17/3 16/16/3 
f 12/12/3 18/18/3 13/13/3 
f 18/18/3 12/12/3 19/19/3 
f 19/19/3 20/20/3 18/18/3 
f 22/22/3 21/21/3 23/10/3 
f 23/10/3 7/23/3 22/22/3 
f 7/23/3 1/24/3 22/22/3 
f 1/24/3 24/15/3 22/22/3 
f 3/25/3 1/24/3 7/23/3 
f 7/23/3 5/26/3 3/25/3 
f 25/27/3 3/25/3 5/26/3 
f 5/26/3 26/12/3 25/27/3 
f 25/27/3 27/28/3 3/25/3 
f 28/18/3 3/25/3 27/28/3 
f 30/30/4 29/29/4 31/31/4 
f 31/31/4 32/32/4 30/30/4 
f 31/31/4 2/33/4 32/32/4 
f 2/33/4 8/34/4 32/32/4 
f 2/33/4 4/35/4 8/34/4 
f 4/35/4 6/36/4 8/34/4 
f 6/36/4 4/35/4 33/37/4 
f 33/37/4 34/38/4 6/36/4 
f 4/35/4 35/39/4 33/37/4 
f 4/35/4 36/40/4 35/39/4 
f 37/42/5 13/41/5 18/43/5 
f 18/43/5 38/44/5 37/42/5 
f 18/43/5 36/45/5 38/44/5 
f 36/45/5 28/46/5 38/44/5 
f 36/45/5 4/47/5 28/46/5 
f 4/47/5 3/48/5 28/46/5 
f 19/50/6 39/49/6 40/51/6 
f 19/50/6 40/51/6 41/52/6 
f 20/53/6 19/50/6 41/52/6 
f 20/53/6 41/52/6 42/54/6 
f 43/55/6 20/53/6 42/54/6 
f 42/54/6 44/56/6 43/55/6 
f 34/58/5 12/57/5 11/59/5 
f 11/59/5 26/60/5 34/58/5 
f 26/60/5 11/59/5 45/61/5 
f 45/61/5 46/62/5 26/60/5 
f 34/58/5 26/60/5 5/63/5 
f 5/63/5 6/64/5 34/58/5 
f 46/12/3 45/11/3 40/65/3 
f 40/65/3 39/19/3 46/12/3 
f 33/67/6 35/66/6 27/68/6 
f 27/68/6 25/69/6 33/67/6 
f 48/71/3 47/70/3 49/15/3 
f 49/15/3 50/72/3 48/71/3 
f 25/74/1 46/73/1 39/75/1 
f 39/75/1 19/76/1 25/74/1 
f 19/76/1 33/77/1 25/74/1 
f 19/76/1 34/4/1 33/77/1 
f 19/76/1 12/78/1 34/4/1 
f 46/73/1 25/74/1 26/3/1 
f 22/46/5 29/45/5 30/58/5 
f 30/58/5 21/60/5 22/46/5 
f 52/80/3 51/79/3 53/9/3 
f 53/9/3 54/10/3 52/80/3 
f 17/43/5 55/81/5 56/82/5 
f 56/82/5 16/57/5 17/43/5 
f 56/82/5 52/83/5 16/57/5 
f 56/82/5 51/84/5 52/83/5 
f 55/81/5 17/43/5 47/85/5 
f 47/85/5 48/86/5 55/81/5 
f 24/7/2 49/87/2 47/88/2 
f 47/88/2 22/89/2 24/7/2 
f 47/88/2 17/90/2 22/89/2 
f 17/90/2 29/91/2 22/89/2 
f 17/90/2 15/92/2 29/91/2 
f 31/8/2 29/91/2 15/92/2 
f 43/94/2 38/93/2 28/5/2 
f 28/5/2 27/95/2 43/94/2 
f 20/96/2 43/94/2 27/95/2 
f 27/95/2 35/97/2 20/96/2 
f 35/97/2 36/6/2 20/96/2 
f 36/6/2 18/98/2 20/96/2 
f 52/100/1 54/99/1 23/1/1 
f 23/1/1 21/101/1 52/100/1 
f 16/102/1 52/100/1 21/101/1 
f 21/101/1 30/103/1 16/102/1 
f 30/103/1 32/2/1 16/102/1 
f 32/2/1 10/104/1 16/102/1 
f 31/66/6 24/68/6 1/105/6 
f 1/105/6 2/106/6 31/66/6 
f 24/68/6 31/66/6 15/53/6 
f 49/107/6 24/68/6 15/53/6 
f 49/107/6 15/53/6 14/108/6 
f 14/108/6 50/109/6 49/107/6 
f 37/110/3 38/18/3 43/20/3 
f 43/20/3 44/111/3 37/110/3 
f 32/67/6 8/112/6 7/113/6 
f 7/113/6 23/69/6 32/67/6 
f 23/69/6 10/50/6 32/67/6 
f 23/69/6 54/114/6 10/50/6 
f 54/114/6 53/115/6 10/50/6 
f 53/115/6 9/116/6 10/50/6 
f 41/118/4 56/117/4 55/119/4 
f 55/119/4 42/120/4 41/118/4 
f 37/122/1 44/121/1 42/123/1 
f 42/123/1 13/78/1 37/122/1 
f 13/78/1 42/123/1 55/124/1 
f 14/104/1 13/78/1 55/124/1 
f 14/104/1 55/124/1 48/125/1 
f 48/125/1 50/126/1 14/104/1 
f 9/92/2 53/127/2 51/128/2 
f 51/128/2 56/129/2 9/92/2 
f 56/129/2 41/130/2 9/92/2 
f 11/98/2 9/92/2 41/130/2 
f 11/98/2 41/130/2 40/131/2 
f 40/131/2 45/132/2 11/98/2 
