# Created by Kenney (www.kenney.nl) 

mtllib wallWindow.mtl 

g wallWindow

v -0.2630005 1.106531 0.05 
v -0.2630005 1.106531 0.06955 
v -0.7369995 1.106531 0.05 
v -0.7369995 1.106531 0.06955 
v -0.2630005 0.3430005 0.06955 
v -0.2630005 0.3430005 0.05 
v -0.7369995 0.3430005 0.06955 
v -0.7369995 0.3430005 0.05 
v -0.3127084 0.3927084 0.06955 
v -0.3127084 1.056823 0.06955 
v -0.6872916 1.056823 0.06955 
v -0.6872916 0.3927084 0.06955 
v -0.2630005 0.3430005 -0.01955 
v -0.6872916 0.3927084 -0.01955 
v -0.7369995 0.3430005 -0.01955 
v -0.7369995 1.106531 -0.01955 
v -0.6872916 1.056823 -0.01955 
v -0.3127084 1.056823 -0.01955 
v -0.3127084 0.3927084 -0.01955 
v -0.2630005 1.106531 -0.01955 
v -0.2630005 1.106531 0 
v -0.7369995 1.106531 0 
v -0.2630005 0.3430005 0 
v -0.7369995 0.3430005 0 
v 0 0 0.05 
v 0 0 0 
v -1 0 0.05 
v -1 0 0 
v 0 1.289532 0 
v 0 1.289532 0.05 
v -1 1.289532 0 
v -1 1.289532 0.05 

vn 0 1 0 
vn 0 -1 0 
vn -1 0 0 
vn 0 0 1 
vn 1 0 0 
vn 0 0 -1 

vt 10.35435 1.968504 
vt 10.35435 2.738189 
vt 29.01573 1.968504 
vt 29.01573 2.738189 
vt -10.35435 2.738189 
vt -10.35435 1.968504 
vt -29.01573 2.738189 
vt -29.01573 1.968504 
vt 1.968504 13.50396 
vt 1.968504 43.56422 
vt 2.738189 13.50396 
vt 2.738189 43.56422 
vt -29.01573 13.50396 
vt -12.31135 15.46096 
vt -10.35435 13.50396 
vt -10.35435 43.56422 
vt -12.31135 41.60722 
vt -27.05872 41.60722 
vt -27.05872 15.46096 
vt -29.01573 43.56422 
vt -1.968504 43.56422 
vt -1.968504 13.50396 
vt -2.738189 43.56422 
vt -2.738189 13.50396 
vt 10.35435 13.50396 
vt 27.05872 15.46096 
vt 29.01573 13.50396 
vt 29.01573 43.56422 
vt 27.05872 41.60722 
vt 12.31135 41.60722 
vt 12.31135 15.46096 
vt 10.35435 43.56422 
vt 10.35435 -0.769685 
vt 10.35435 0 
vt 29.01573 -0.769685 
vt 29.01573 0 
vt 0.769685 43.56422 
vt 0.769685 13.50396 
vt 0 43.56422 
vt 0 13.50396 
vt -10.35435 0 
vt -10.35435 -0.769685 
vt -29.01573 0 
vt -29.01573 -0.769685 
vt -0.769685 13.50396 
vt -0.769685 43.56422 
vt 0 1.968504 
vt 0 0 
vt -39.37008 1.968504 
vt -39.37008 0 
vt 39.37008 0 
vt 39.37008 1.968504 
vt 0.769685 41.60722 
vt 0.769685 15.46096 
vt -2.738189 41.60722 
vt -2.738189 15.46096 
vt -12.31135 2.738189 
vt -12.31135 -0.769685 
vt -27.05872 2.738189 
vt -27.05872 -0.769685 
vt 12.31135 -0.769685 
vt 12.31135 2.738189 
vt 27.05872 -0.769685 
vt 27.05872 2.738189 
vt -0.769685 15.46096 
vt -0.769685 41.60722 
vt 2.738189 15.46096 
vt 2.738189 41.60722 
vt 0 50.76897 
vt -39.37008 50.76897 

usemtl wood

f 2/2/1 1/1/1 3/3/1 
f 3/3/1 4/4/1 2/2/1 
f 6/6/2 5/5/2 7/7/2 
f 7/7/2 8/8/2 6/6/2 
f 3/10/3 8/9/3 7/11/3 
f 7/11/3 4/12/3 3/10/3 
f 9/14/4 7/13/4 5/15/4 
f 5/15/4 2/16/4 9/14/4 
f 2/16/4 10/17/4 9/14/4 
f 2/16/4 11/18/4 10/17/4 
f 7/13/4 9/14/4 12/19/4 
f 12/19/4 4/20/4 7/13/4 
f 12/19/4 11/18/4 4/20/4 
f 11/18/4 2/16/4 4/20/4 
f 6/22/5 1/21/5 2/23/5 
f 2/23/5 5/24/5 6/22/5 
f 14/26/6 13/25/6 15/27/6 
f 15/27/6 16/28/6 14/26/6 
f 16/28/6 17/29/6 14/26/6 
f 16/28/6 18/30/6 17/29/6 
f 13/25/6 14/26/6 19/31/6 
f 19/31/6 20/32/6 13/25/6 
f 19/31/6 18/30/6 20/32/6 
f 18/30/6 16/28/6 20/32/6 
f 21/34/1 20/33/1 16/35/1 
f 16/35/1 22/36/1 21/34/1 
f 13/38/5 20/37/5 21/39/5 
f 21/39/5 23/40/5 13/38/5 
f 13/42/2 23/41/2 24/43/2 
f 24/43/2 15/44/2 13/42/2 
f 16/46/3 15/45/3 24/40/3 
f 24/40/3 22/39/3 16/46/3 
f 26/48/2 25/47/2 27/49/2 
f 27/49/2 28/50/2 26/48/2 
f 30/47/1 29/48/1 31/51/1 
f 31/51/1 32/52/1 30/47/1 
f 14/54/5 17/53/5 11/55/5 
f 11/55/5 12/56/5 14/54/5 
f 18/58/2 10/57/2 11/59/2 
f 11/59/2 17/60/2 18/58/2 
f 9/62/1 19/61/1 14/63/1 
f 14/63/1 12/64/1 9/62/1 
f 18/66/3 19/65/3 9/67/3 
f 9/67/3 10/68/3 18/66/3 

usemtl metalDark

f 6/15/4 27/50/4 25/48/4 
f 25/48/4 30/69/4 6/15/4 
f 30/69/4 1/16/4 6/15/4 
f 30/69/4 3/20/4 1/16/4 
f 27/50/4 6/15/4 8/13/4 
f 8/13/4 32/70/4 27/50/4 
f 8/13/4 3/20/4 32/70/4 
f 3/20/4 30/69/4 32/70/4 

usemtl _defaultMat

f 24/20/6 26/69/6 28/70/6 
f 28/20/6 31/69/6 24/70/6 
f 31/20/6 22/69/6 24/70/6 
f 31/20/6 21/69/6 22/70/6 
f 23/20/6 29/69/6 26/70/6 
f 26/20/6 24/69/6 23/70/6 
f 23/20/6 21/69/6 29/70/6 
f 21/20/6 31/69/6 29/70/6 
f 26/20/5 29/69/5 30/70/5 
f 30/20/5 25/69/5 26/70/5 
f 31/51/3 28/52/3 27/47/3 
f 27/51/3 32/52/3 31/47/3 
g wallWindow




usemtl wood

f 2/2/1 1/1/1 3/3/1 
f 3/3/1 4/4/1 2/2/1 
f 6/6/2 5/5/2 7/7/2 
f 7/7/2 8/8/2 6/6/2 
f 3/10/3 8/9/3 7/11/3 
f 7/11/3 4/12/3 3/10/3 
f 9/14/4 7/13/4 5/15/4 
f 5/15/4 2/16/4 9/14/4 
f 2/16/4 10/17/4 9/14/4 
f 2/16/4 11/18/4 10/17/4 
f 7/13/4 9/14/4 12/19/4 
f 12/19/4 4/20/4 7/13/4 
f 12/19/4 11/18/4 4/20/4 
f 11/18/4 2/16/4 4/20/4 
f 6/22/5 1/21/5 2/23/5 
f 2/23/5 5/24/5 6/22/5 
f 14/26/6 13/25/6 15/27/6 
f 15/27/6 16/28/6 14/26/6 
f 16/28/6 17/29/6 14/26/6 
f 16/28/6 18/30/6 17/29/6 
f 13/25/6 14/26/6 19/31/6 
f 19/31/6 20/32/6 13/25/6 
f 19/31/6 18/30/6 20/32/6 
f 18/30/6 16/28/6 20/32/6 
f 21/34/1 20/33/1 16/35/1 
f 16/35/1 22/36/1 21/34/1 
f 13/38/5 20/37/5 21/39/5 
f 21/39/5 23/40/5 13/38/5 
f 13/42/2 23/41/2 24/43/2 
f 24/43/2 15/44/2 13/42/2 
f 16/46/3 15/45/3 24/40/3 
f 24/40/3 22/39/3 16/46/3 
f 26/48/2 25/47/2 27/49/2 
f 27/49/2 28/50/2 26/48/2 
f 30/47/1 29/48/1 31/51/1 
f 31/51/1 32/52/1 30/47/1 
f 14/54/5 17/53/5 11/55/5 
f 11/55/5 12/56/5 14/54/5 
f 18/58/2 10/57/2 11/59/2 
f 11/59/2 17/60/2 18/58/2 
f 9/62/1 19/61/1 14/63/1 
f 14/63/1 12/64/1 9/62/1 
f 18/66/3 19/65/3 9/67/3 
f 9/67/3 10/68/3 18/66/3 

usemtl metalDark

f 6/15/4 27/50/4 25/48/4 
f 25/48/4 30/69/4 6/15/4 
f 30/69/4 1/16/4 6/15/4 
f 30/69/4 3/20/4 1/16/4 
f 27/50/4 6/15/4 8/13/4 
f 8/13/4 32/70/4 27/50/4 
f 8/13/4 3/20/4 32/70/4 
f 3/20/4 30/69/4 32/70/4 

usemtl _defaultMat

f 24/20/6 26/69/6 28/70/6 
f 28/20/6 31/69/6 24/70/6 
f 31/20/6 22/69/6 24/70/6 
f 31/20/6 21/69/6 22/70/6 
f 23/20/6 29/69/6 26/70/6 
f 26/20/6 24/69/6 23/70/6 
f 23/20/6 21/69/6 29/70/6 
f 21/20/6 31/69/6 29/70/6 
f 26/20/5 29/69/5 30/70/5 
f 30/20/5 25/69/5 26/70/5 
f 31/51/3 28/52/3 27/47/3 
f 27/51/3 32/52/3 31/47/3 
g window

v -0.6380731 0.4419269 0.025 
v -0.3619269 0.4419269 0.025 
v -0.6380731 1.007605 0.025 
v -0.3619269 1.007605 0.025 
v -0.6380731 1.007605 0.012725 
v -0.6380731 0.4419269 0.012725 
v -0.6380731 1.007605 0.037275 
v -0.6380731 0.4419269 0.037275 
v -0.3619269 1.007605 0.012725 
v -0.3619269 1.007605 0.037275 
v -0.3619269 0.4419269 0.012725 
v -0.3619269 0.4419269 0.037275 
v -0.6872916 0.3927084 0.012725 
v -0.6872916 1.056823 0.012725 
v -0.6872916 0.3927084 0.037275 
v -0.6872916 1.056823 0.037275 
v -0.3127084 1.056823 0.012725 
v -0.3127084 1.056823 0.037275 
v -0.3127084 0.3927084 0.037275 
v -0.3127084 0.3927084 0.012725 


vt 12.80964 1.937735 
vt 1.937735 1.937735 
vt 12.80964 24.20852 
vt 1.937735 24.20852 
vt -0.3937008 24.20852 
vt -0.3937008 1.937735 
vt -0.8769685 24.20852 
vt -0.8769685 1.937735 
vt -1.360236 24.20852 
vt -1.360236 1.937735 
vt -1.937735 0.8769685 
vt -1.937735 0.3937008 
vt -12.80964 0.8769685 
vt -12.80964 0.3937008 
vt -12.80964 1.360236 
vt -1.937735 1.360236 
vt 0.3937008 1.937735 
vt 0.3937008 24.20852 
vt 0.8769685 1.937735 
vt 0.8769685 24.20852 
vt 1.360236 1.937735 
vt 1.360236 24.20852 
vt 1.937735 0.3937008 
vt 1.937735 0.8769685 
vt 12.80964 0.3937008 
vt 12.80964 0.8769685 
vt 1.937735 1.360236 
vt 12.80964 1.360236 
vt 0.3937008 0 
vt 0.3937008 26.14626 
vt 1.360236 0 
vt 1.360236 26.14626 
vt 0 0.3937008 
vt 0 1.360236 
vt 14.74737 0.3937008 
vt 14.74737 1.360236 
vt -14.74737 0 
vt -1.937735 1.937735 
vt 0 26.14626 
vt -1.937735 24.20852 
vt -12.80964 24.20852 
vt -12.80964 1.937735 
vt -14.74737 26.14626 
vt 14.74737 0 
vt 14.74737 26.14626 
vt -14.74737 1.360236 
vt -14.74737 0.3937008 
vt -0.3937008 26.14626 
vt -0.3937008 0 
vt -1.360236 26.14626 
vt -1.360236 0 

usemtl glass

f 34/72/6 33/71/6 35/73/6 
f 35/73/6 36/74/6 34/72/6 
f 34/72/4 35/73/4 33/71/4 
f 35/73/4 34/72/4 36/74/4 

usemtl wood

f 38/76/5 37/75/5 35/77/5 
f 35/77/5 33/78/5 38/76/5 
f 33/78/5 35/77/5 39/79/5 
f 39/79/5 40/80/5 33/78/5 
f 41/82/2 36/81/2 35/83/2 
f 35/83/2 37/84/2 41/82/2 
f 39/85/2 35/83/2 36/81/2 
f 36/81/2 42/86/2 39/85/2 
f 41/88/3 43/87/3 34/89/3 
f 34/89/3 36/90/3 41/88/3 
f 36/90/3 34/89/3 44/91/3 
f 44/91/3 42/92/3 36/90/3 
f 34/94/1 43/93/1 38/95/1 
f 38/95/1 33/96/1 34/94/1 
f 44/97/1 34/94/1 33/96/1 
f 33/96/1 40/98/1 44/97/1 
f 46/100/3 45/99/3 47/101/3 
f 47/101/3 48/102/3 46/100/3 
f 50/104/1 49/103/1 46/105/1 
f 46/105/1 48/106/1 50/104/1 
f 44/108/4 47/107/4 51/48/4 
f 51/48/4 50/109/4 44/108/4 
f 50/109/4 42/110/4 44/108/4 
f 50/109/4 39/111/4 42/110/4 
f 47/107/4 44/108/4 40/112/4 
f 40/112/4 48/113/4 47/107/4 
f 40/112/4 39/111/4 48/113/4 
f 39/111/4 50/109/4 48/113/4 
f 38/71/6 52/48/6 45/114/6 
f 45/114/6 46/115/6 38/71/6 
f 46/115/6 37/73/6 38/71/6 
f 46/115/6 41/74/6 37/73/6 
f 52/48/6 38/71/6 43/72/6 
f 43/72/6 49/109/6 52/48/6 
f 43/72/6 41/74/6 49/109/6 
f 41/74/6 46/115/6 49/109/6 
f 52/103/2 51/104/2 47/116/2 
f 47/116/2 45/117/2 52/103/2 
f 52/119/5 49/118/5 50/120/5 
f 50/120/5 51/121/5 52/119/5 
