# Created by Kenney (www.kenney.nl) 

mtllib wallCornerRond.mtl 

g wallCornerRond

v -0.5 1.289532 0.1 
v -0.5 0 0.1 
v -0.5 1.289532 0.55 
v -0.5 0 0.55 
v 0 0 0.05 
v -0.45 0 0.05 
v 0 1.289532 0.05 
v -0.45 1.289532 0.05 
v -0.4565263 0 0.05042776 
v -0.4565263 1.289532 0.05042776 
v -0.4629409 0 0.05170371 
v -0.4629409 1.289532 0.05170371 
v -0.4691342 0 0.05380602 
v -0.4691342 1.289532 0.05380602 
v -0.475 0 0.05669873 
v -0.475 1.289532 0.05669873 
v -0.4804381 0 0.06033233 
v -0.4804381 1.289532 0.06033233 
v -0.4853553 0 0.06464466 
v -0.4853553 1.289532 0.06464466 
v -0.4896677 1.289532 0.06956193 
v -0.4896677 0 0.06956193 
v -0.4933013 1.289532 0.075 
v -0.4933013 0 0.075 
v -0.496194 1.289532 0.08086583 
v -0.496194 0 0.08086583 
v -0.4982963 1.289532 0.08705904 
v -0.4982963 0 0.08705904 
v -0.4995722 1.289532 0.09347369 
v -0.4995722 0 0.09347369 
v -0.45 0 0 
v 0 0 0 
v -0.45 1.289532 0 
v 0 1.289532 0 
v -0.55 0 0.55 
v -0.55 1.289532 0.55 
v -0.55 0 0.1 
v -0.55 1.289532 0.1 
v -0.5491445 0 0.08694738 
v -0.5491445 1.289532 0.08694738 
v -0.5465926 0 0.07411809 
v -0.5465926 1.289532 0.07411809 
v -0.542388 0 0.06173166 
v -0.542388 1.289532 0.06173166 
v -0.5366025 0 0.05 
v -0.5366025 1.289532 0.05 
v -0.5293353 0 0.03912386 
v -0.5293353 1.289532 0.03912386 
v -0.5207106 0 0.02928932 
v -0.5207106 1.289532 0.02928932 
v -0.5108761 0 0.02066467 
v -0.5108761 1.289532 0.02066467 
v -0.5 0 0.01339746 
v -0.5 1.289532 0.01339746 
v -0.4882683 0 0.007612047 
v -0.4882683 1.289532 0.007612047 
v -0.4758819 0 0.003407418 
v -0.4758819 1.289532 0.003407418 
v -0.4630526 0 0.0008555139 
v -0.4630526 1.289532 0.0008555139 

vn 1 0 0 
vn 0 0 1 
vn 0.06540313 0 0.9978589 
vn 0.1305262 0 0.9914449 
vn 0.258819 0 0.9659258 
vn 0.3826834 0 0.9238795 
vn 0.5 0 0.8660254 
vn 0.6087614 0 0.7933533 
vn 0.7071068 0 0.7071068 
vn 0.7933533 0 0.6087614 
vn 0.8660254 0 0.5 
vn 0.9238795 0 0.3826834 
vn 0.9659258 0 0.258819 
vn 0.9914449 0 0.1305262 
vn 0.9978589 0 0.06540313 
vn 0 0 -1 
vn -1 0 0 
vn -0.9914449 0 -0.1305262 
vn -0.9978589 0 -0.06540313 
vn -0.9659258 0 -0.258819 
vn -0.9238795 0 -0.3826834 
vn -0.8660254 0 -0.5 
vn -0.7933533 0 -0.6087614 
vn -0.7071068 0 -0.7071068 
vn -0.6087614 0 -0.7933533 
vn -0.5 0 -0.8660254 
vn -0.3826834 0 -0.9238795 
vn -0.258819 0 -0.9659258 
vn -0.1305262 0 -0.9914449 
vn -0.06540313 0 -0.9978589 
vn 0 -1 0 
vn 0 1 0 

vt -3.937008 50.76897 
vt -3.937008 0 
vt -21.65354 50.76897 
vt -21.65354 0 
vt 0 0 
vt -17.71654 0 
vt 0 50.76897 
vt -17.71654 50.76897 
vt -17.80735 0 
vt -18.06484 0 
vt -17.80735 50.76897 
vt -18.06484 50.76897 
vt -18.01544 0 
vt -18.27294 0 
vt -18.01544 50.76897 
vt -18.27294 50.76897 
vt -17.91308 0 
vt -18.17058 0 
vt -17.91308 50.76897 
vt -18.17058 50.76897 
vt -17.50203 0 
vt -17.75952 0 
vt -17.50203 50.76897 
vt -17.75952 50.76897 
vt -16.7893 0 
vt -17.04679 0 
vt -16.7893 50.76897 
vt -17.04679 50.76897 
vt -15.7871 0 
vt -16.04459 0 
vt -15.7871 50.76897 
vt -16.04459 50.76897 
vt -14.51258 50.76897 
vt -14.51258 0 
vt -14.77007 50.76897 
vt -14.77007 0 
vt -12.98754 50.76897 
vt -12.98754 0 
vt -13.24503 50.76897 
vt -13.24503 0 
vt -11.23807 50.76897 
vt -11.23807 0 
vt -11.49556 50.76897 
vt -11.49556 0 
vt -9.294119 50.76897 
vt -9.294119 0 
vt -9.551611 50.76897 
vt -9.551611 0 
vt -7.188938 50.76897 
vt -7.188938 0 
vt -7.44643 50.76897 
vt -7.44643 0 
vt -4.958549 50.76897 
vt -4.958549 0 
vt -5.216042 50.76897 
vt -5.216042 0 
vt -19.68504 3.937008 
vt -19.6682 3.680067 
vt -19.68504 0.527459 
vt 21.65354 3.937008 
vt 21.61986 3.423125 
vt 21.65354 21.65354 
vt -19.68504 21.65354 
vt -21.65354 21.65354 
vt -20.11323 0.8135695 
vt -20.50042 1.153123 
vt -20.83997 1.540309 
vt -21.12608 1.968504 
vt -21.35386 2.43038 
vt -21.51939 2.918035 
vt -21.61986 3.423125 
vt -21.65354 3.937008 
vt -19.61796 3.427521 
vt -19.5352 3.183694 
vt -19.42131 2.952756 
vt -19.27826 2.738659 
vt -19.22316 0.2996869 
vt -19.10848 2.545065 
vt -18.91488 2.375289 
vt -18.73551 0.1341503 
vt -18.70079 2.232234 
vt -18.46985 2.118347 
vt -18.23042 0.03368165 
vt -18.22602 2.035579 
vt -17.97348 1.985345 
vt -17.71654 1.968504 
vt 0 1.968504 
vt 17.71654 0 
vt 17.71654 1.968504 
vt 18.23042 0.03368165 
vt 17.97348 1.985345 
vt 18.22602 2.035579 
vt 18.46985 2.118347 
vt 18.73551 0.1341503 
vt 18.70079 2.232234 
vt 18.91488 2.375289 
vt 19.22316 0.2996869 
vt 19.10848 2.545065 
vt 19.27826 2.738659 
vt 19.68504 0.527459 
vt 19.42131 2.952756 
vt 19.5352 3.183694 
vt 19.61796 3.427521 
vt 19.6682 3.680067 
vt 19.68504 3.937008 
vt 19.68504 21.65354 
vt 20.11323 0.8135695 
vt 20.50042 1.153123 
vt 20.83997 1.540309 
vt 21.12608 1.968504 
vt 21.35386 2.43038 
vt 21.51939 2.918035 

usemtl metalDark

f 2/2/1 1/1/1 3/3/1 
f 3/3/1 4/4/1 2/2/1 
f 6/6/2 5/5/2 7/7/2 
f 7/7/2 8/8/2 6/6/2 
f 9/10/4 6/9/3 8/11/3 
f 8/11/3 10/12/4 9/10/4 
f 11/14/5 9/13/4 10/15/4 
f 10/15/4 12/16/5 11/14/5 
f 13/18/6 11/17/5 12/19/5 
f 12/19/5 14/20/6 13/18/6 
f 15/22/7 13/21/6 14/23/6 
f 14/23/6 16/24/7 15/22/7 
f 17/26/8 15/25/7 16/27/7 
f 16/27/7 18/28/8 17/26/8 
f 19/30/9 17/29/8 18/31/8 
f 18/31/8 20/32/9 19/30/9 
f 19/34/9 20/33/9 21/35/10 
f 21/35/10 22/36/10 19/34/9 
f 22/38/10 21/37/10 23/39/11 
f 23/39/11 24/40/11 22/38/10 
f 24/42/11 23/41/11 25/43/12 
f 25/43/12 26/44/12 24/42/11 
f 26/46/12 25/45/12 27/47/13 
f 27/47/13 28/48/13 26/46/12 
f 28/50/13 27/49/13 29/51/14 
f 29/51/14 30/52/14 28/50/13 
f 30/54/14 29/53/14 1/55/15 
f 1/55/15 2/56/15 30/54/14 

usemtl _defaultMat

f 32/7/16 31/8/16 33/6/16 
f 33/7/16 34/8/16 32/6/16 
f 32/7/1 34/8/1 7/6/1 
f 7/7/1 5/8/1 32/6/1 
f 35/7/2 4/8/2 3/6/2 
f 3/7/2 36/8/2 35/6/2 
f 38/58/17 37/57/17 35/59/17 
f 35/58/17 36/57/17 38/59/17 
f 40/61/18 39/60/18 37/62/19 
f 37/61/19 38/60/19 40/62/18 
f 42/61/20 41/60/20 39/62/18 
f 39/61/18 40/60/18 42/62/20 
f 44/61/21 43/60/21 41/62/20 
f 41/61/20 42/60/20 44/62/21 
f 46/61/22 45/60/22 43/62/21 
f 43/61/21 44/60/21 46/62/22 
f 48/61/23 47/60/23 45/62/22 
f 45/61/22 46/60/22 48/62/23 
f 50/61/24 49/60/24 47/62/23 
f 47/61/23 48/60/23 50/62/24 
f 51/61/25 49/60/24 50/62/24 
f 50/61/24 52/60/25 51/62/25 
f 53/61/26 51/60/25 52/62/25 
f 52/61/25 54/60/26 53/62/26 
f 55/61/27 53/60/26 54/62/26 
f 54/61/26 56/60/27 55/62/27 
f 57/61/28 55/60/27 56/62/27 
f 56/61/27 58/60/28 57/62/28 
f 59/61/29 57/60/28 58/62/28 
f 58/61/28 60/60/29 59/62/29 
f 31/61/30 59/60/29 60/62/29 
f 60/61/29 33/60/30 31/62/30 

usemtl wood

f 2/57/31 4/63/31 35/64/31 
f 35/64/31 53/59/31 2/57/31 
f 35/64/31 51/65/31 53/59/31 
f 35/64/31 49/66/31 51/65/31 
f 35/64/31 47/67/31 49/66/31 
f 35/64/31 45/68/31 47/67/31 
f 35/64/31 43/69/31 45/68/31 
f 35/64/31 41/70/31 43/69/31 
f 35/64/31 39/71/31 41/70/31 
f 35/64/31 37/72/31 39/71/31 
f 30/58/31 2/57/31 53/59/31 
f 28/73/31 30/58/31 53/59/31 
f 26/74/31 28/73/31 53/59/31 
f 24/75/31 26/74/31 53/59/31 
f 22/76/31 24/75/31 53/59/31 
f 22/76/31 53/59/31 55/77/31 
f 19/78/31 22/76/31 55/77/31 
f 17/79/31 19/78/31 55/77/31 
f 17/79/31 55/77/31 57/80/31 
f 15/81/31 17/79/31 57/80/31 
f 13/82/31 15/81/31 57/80/31 
f 13/82/31 57/80/31 59/83/31 
f 11/84/31 13/82/31 59/83/31 
f 9/85/31 11/84/31 59/83/31 
f 9/85/31 59/83/31 31/6/31 
f 6/86/31 9/85/31 31/6/31 
f 6/86/31 31/6/31 32/5/31 
f 32/5/31 5/87/31 6/86/31 
f 7/87/32 34/5/32 33/88/32 
f 33/88/32 8/89/32 7/87/32 
f 33/88/32 60/90/32 8/89/32 
f 60/90/32 10/91/32 8/89/32 
f 60/90/32 12/92/32 10/91/32 
f 60/90/32 14/93/32 12/92/32 
f 60/90/32 58/94/32 14/93/32 
f 58/94/32 16/95/32 14/93/32 
f 58/94/32 18/96/32 16/95/32 
f 58/94/32 56/97/32 18/96/32 
f 56/97/32 20/98/32 18/96/32 
f 56/97/32 21/99/32 20/98/32 
f 56/97/32 54/100/32 21/99/32 
f 54/100/32 23/101/32 21/99/32 
f 54/100/32 25/102/32 23/101/32 
f 54/100/32 27/103/32 25/102/32 
f 54/100/32 29/104/32 27/103/32 
f 54/100/32 1/105/32 29/104/32 
f 1/105/32 54/100/32 36/62/32 
f 36/62/32 3/106/32 1/105/32 
f 54/100/32 52/107/32 36/62/32 
f 52/107/32 50/108/32 36/62/32 
f 50/108/32 48/109/32 36/62/32 
f 48/109/32 46/110/32 36/62/32 
f 46/110/32 44/111/32 36/62/32 
f 44/111/32 42/112/32 36/62/32 
f 42/112/32 40/61/32 36/62/32 
f 40/61/32 38/60/32 36/62/32 
g wallCornerRond




usemtl metalDark

f 2/2/1 1/1/1 3/3/1 
f 3/3/1 4/4/1 2/2/1 
f 6/6/2 5/5/2 7/7/2 
f 7/7/2 8/8/2 6/6/2 
f 9/10/4 6/9/3 8/11/3 
f 8/11/3 10/12/4 9/10/4 
f 11/14/5 9/13/4 10/15/4 
f 10/15/4 12/16/5 11/14/5 
f 13/18/6 11/17/5 12/19/5 
f 12/19/5 14/20/6 13/18/6 
f 15/22/7 13/21/6 14/23/6 
f 14/23/6 16/24/7 15/22/7 
f 17/26/8 15/25/7 16/27/7 
f 16/27/7 18/28/8 17/26/8 
f 19/30/9 17/29/8 18/31/8 
f 18/31/8 20/32/9 19/30/9 
f 19/34/9 20/33/9 21/35/10 
f 21/35/10 22/36/10 19/34/9 
f 22/38/10 21/37/10 23/39/11 
f 23/39/11 24/40/11 22/38/10 
f 24/42/11 23/41/11 25/43/12 
f 25/43/12 26/44/12 24/42/11 
f 26/46/12 25/45/12 27/47/13 
f 27/47/13 28/48/13 26/46/12 
f 28/50/13 27/49/13 29/51/14 
f 29/51/14 30/52/14 28/50/13 
f 30/54/14 29/53/14 1/55/15 
f 1/55/15 2/56/15 30/54/14 

usemtl _defaultMat

f 32/7/16 31/8/16 33/6/16 
f 33/7/16 34/8/16 32/6/16 
f 32/7/1 34/8/1 7/6/1 
f 7/7/1 5/8/1 32/6/1 
f 35/7/2 4/8/2 3/6/2 
f 3/7/2 36/8/2 35/6/2 
f 38/58/17 37/57/17 35/59/17 
f 35/58/17 36/57/17 38/59/17 
f 40/61/18 39/60/18 37/62/19 
f 37/61/19 38/60/19 40/62/18 
f 42/61/20 41/60/20 39/62/18 
f 39/61/18 40/60/18 42/62/20 
f 44/61/21 43/60/21 41/62/20 
f 41/61/20 42/60/20 44/62/21 
f 46/61/22 45/60/22 43/62/21 
f 43/61/21 44/60/21 46/62/22 
f 48/61/23 47/60/23 45/62/22 
f 45/61/22 46/60/22 48/62/23 
f 50/61/24 49/60/24 47/62/23 
f 47/61/23 48/60/23 50/62/24 
f 51/61/25 49/60/24 50/62/24 
f 50/61/24 52/60/25 51/62/25 
f 53/61/26 51/60/25 52/62/25 
f 52/61/25 54/60/26 53/62/26 
f 55/61/27 53/60/26 54/62/26 
f 54/61/26 56/60/27 55/62/27 
f 57/61/28 55/60/27 56/62/27 
f 56/61/27 58/60/28 57/62/28 
f 59/61/29 57/60/28 58/62/28 
f 58/61/28 60/60/29 59/62/29 
f 31/61/30 59/60/29 60/62/29 
f 60/61/29 33/60/30 31/62/30 

usemtl wood

f 2/57/31 4/63/31 35/64/31 
f 35/64/31 53/59/31 2/57/31 
f 35/64/31 51/65/31 53/59/31 
f 35/64/31 49/66/31 51/65/31 
f 35/64/31 47/67/31 49/66/31 
f 35/64/31 45/68/31 47/67/31 
f 35/64/31 43/69/31 45/68/31 
f 35/64/31 41/70/31 43/69/31 
f 35/64/31 39/71/31 41/70/31 
f 35/64/31 37/72/31 39/71/31 
f 30/58/31 2/57/31 53/59/31 
f 28/73/31 30/58/31 53/59/31 
f 26/74/31 28/73/31 53/59/31 
f 24/75/31 26/74/31 53/59/31 
f 22/76/31 24/75/31 53/59/31 
f 22/76/31 53/59/31 55/77/31 
f 19/78/31 22/76/31 55/77/31 
f 17/79/31 19/78/31 55/77/31 
f 17/79/31 55/77/31 57/80/31 
f 15/81/31 17/79/31 57/80/31 
f 13/82/31 15/81/31 57/80/31 
f 13/82/31 57/80/31 59/83/31 
f 11/84/31 13/82/31 59/83/31 
f 9/85/31 11/84/31 59/83/31 
f 9/85/31 59/83/31 31/6/31 
f 6/86/31 9/85/31 31/6/31 
f 6/86/31 31/6/31 32/5/31 
f 32/5/31 5/87/31 6/86/31 
f 7/87/32 34/5/32 33/88/32 
f 33/88/32 8/89/32 7/87/32 
f 33/88/32 60/90/32 8/89/32 
f 60/90/32 10/91/32 8/89/32 
f 60/90/32 12/92/32 10/91/32 
f 60/90/32 14/93/32 12/92/32 
f 60/90/32 58/94/32 14/93/32 
f 58/94/32 16/95/32 14/93/32 
f 58/94/32 18/96/32 16/95/32 
f 58/94/32 56/97/32 18/96/32 
f 56/97/32 20/98/32 18/96/32 
f 56/97/32 21/99/32 20/98/32 
f 56/97/32 54/100/32 21/99/32 
f 54/100/32 23/101/32 21/99/32 
f 54/100/32 25/102/32 23/101/32 
f 54/100/32 27/103/32 25/102/32 
f 54/100/32 29/104/32 27/103/32 
f 54/100/32 1/105/32 29/104/32 
f 1/105/32 54/100/32 36/62/32 
f 36/62/32 3/106/32 1/105/32 
f 54/100/32 52/107/32 36/62/32 
f 52/107/32 50/108/32 36/62/32 
f 50/108/32 48/109/32 36/62/32 
f 48/109/32 46/110/32 36/62/32 
f 46/110/32 44/111/32 36/62/32 
f 44/111/32 42/112/32 36/62/32 
f 42/112/32 40/61/32 36/62/32 
f 40/61/32 38/60/32 36/62/32 
